<?xml version="1.0" encoding="UTF-8"?>
<svg xmlns="http://www.w3.org/2000/svg" xmlns:xlink="http://www.w3.org/1999/xlink" viewBox="0 0 100 100">
  <defs>
    <clipPath id="uuid-2f7bd701-c05a-4352-8509-6858e1fbc51c">
      <rect x="-317.95" y="0" width="297.29" height="292.63" style="fill: none;"/>
    </clipPath>
  </defs>
  <g style="isolation: isolate;">
    <g id="uuid-66105799-5b44-4eed-9f61-6bbd2f1a362d" data-name="圖層 1">
      <g>
        <polygon points="36.36 78.55 64.35 93.82 98.39 72.96 69.42 55.72 36.36 78.55" style="fill: #afafaf; mix-blend-mode: multiply; opacity: .5;"/>
        <g>
          <polygon points="16.88 36.86 16.21 22.19 16.39 22.12 17.08 36.7 16.88 36.86" style="fill: #a4a4a3;"/>
          <g>
            <polygon points="91.56 57.48 11.28 10.88 11.55 7.48 91.56 54.36 91.56 57.48" style="fill: #eaeaea;"/>
            <polygon points="91.56 57.48 92.94 56.55 92.95 53.48 91.51 54.39 91.56 57.48" style="fill: #bc2a27;"/>
            <polygon points="11.55 7.48 91.56 54.36 92.95 53.48 12.47 6.94 11.55 7.48" style="fill: #f7f7f7;"/>
            <g style="mix-blend-mode: multiply;">
              <polygon points="11.27 10.88 14.2 12.59 14.33 9.11 15.39 8.64 12.47 6.94 11.56 7.48 11.27 10.88" style="fill: #da3832;"/>
              <polygon points="21.36 12.09 18.48 10.41 17.51 10.98 17.24 14.35 20.15 16.04 20.27 12.59 21.36 12.09" style="fill: #da3832;"/>
              <polygon points="27.33 15.54 24.48 13.88 23.47 14.47 23.21 17.81 26.1 19.5 26.21 16.07 27.33 15.54" style="fill: #da3832;"/>
              <polygon points="33.29 18.99 30.49 17.35 29.43 17.96 29.18 21.28 32.05 22.95 32.15 19.55 33.29 18.99" style="fill: #da3832;"/>
              <polygon points="39.26 22.44 36.49 20.83 35.39 21.46 35.15 24.74 38 26.4 38.09 23.03 39.26 22.44" style="fill: #da3832;"/>
              <polygon points="45.22 25.89 42.5 24.3 41.34 24.95 41.12 28.21 43.95 29.86 44.03 26.51 45.22 25.89" style="fill: #da3832;"/>
              <polygon points="51.19 29.33 48.5 27.77 47.3 28.44 47.09 31.67 49.91 33.31 49.97 29.99 51.19 29.33" style="fill: #da3832;"/>
              <polygon points="57.16 32.78 54.51 31.25 53.26 31.93 53.06 35.14 55.86 36.76 55.91 33.47 57.16 32.78" style="fill: #da3832;"/>
              <polygon points="63.12 36.23 60.52 34.72 59.22 35.43 59.03 38.6 61.81 40.21 61.85 36.96 63.12 36.23" style="fill: #da3832;"/>
              <polygon points="69.09 39.68 66.52 38.19 65.18 38.92 65 42.07 67.76 43.67 67.79 40.44 69.09 39.68" style="fill: #da3832;"/>
              <polygon points="75.06 43.13 72.53 41.67 71.13 42.41 70.97 45.53 73.71 47.12 73.74 43.92 75.06 43.13" style="fill: #da3832;"/>
              <polygon points="81.02 46.58 78.53 45.14 77.09 45.91 76.94 49 79.66 50.57 79.68 47.4 81.02 46.58" style="fill: #da3832;"/>
              <polygon points="86.99 50.03 84.54 48.61 83.05 49.4 82.91 52.46 85.61 54.03 85.62 50.88 86.99 50.03" style="fill: #da3832;"/>
              <polygon points="88.88 55.93 91.56 57.48 91.56 54.36 92.95 53.48 90.54 52.08 89.01 52.89 88.88 55.93" style="fill: #da3832;"/>
            </g>
            <g>
              <polygon points="49.31 6.59 49.65 7.42 26.19 16.84 25.88 16.1 49.31 6.59" style="fill: #ddd;"/>
              <path d="M48.69,6.84l.34.84.62-.25-.34-.84-.62.25ZM44.12,8.69l.34.84,2.28-.93-.34-.84-2.28.93ZM39.56,10.54l.34.84,2.28-.93-.34-.84-2.28.93ZM35,12.39l.34.84,2.28-.93-.34-.84-2.28.93ZM30.44,14.25l.34.84,2.28-.93-.34-.84-2.28.93ZM25.33,16.32l.86.52,2.27-.91-.31-.75-2.83,1.15Z" style="fill: #ce3932;"/>
            </g>
          </g>
          <g>
            <g>
              <polygon points="17.94 42.71 24.02 39.51 19.05 38.12 17.94 42.71" style="fill: #a6a7a7;"/>
              <path d="M26.71,38.66c0,.67-.12,1.27-.44,1.58l-5.34,3.45c.34-.31.69-1.37.69-2.05,0-1.65-1.15-3.66-2.57-4.49-.64-.37-1.68-.54-2.13-.35l5.01-2.81c.47-.34,1.45-.25,2.21.19,1.42.82,2.58,2.84,2.58,4.49Z" style="fill: #b7b7b8;"/>
              <path d="M19.05,37.15c1.42.83,2.57,2.84,2.57,4.48,0,.69-.45,1.46-.79,1.77-.13.12-.67.19-1.26-.15,0,0-.52-6.1-.52-6.1" style="fill: #e5e5e5; stroke: #e5e5e5; stroke-width: .59px;"/>
              <path d="M17.76,42.23c-1-.69-1.42-1.72-1.43-3.37,0-.78.4-1.55.81-1.83l.23-.13c.45-.19,1.04-.12,1.68.25,0,0,0,0,0,0l-1.29,5.08Z" style="fill: #e5e5e5; stroke: #e5e5e5; stroke-width: .59px;"/>
            </g>
            <polygon points="26.71 38.66 26.05 37.01 28.26 21.13 29.25 20.52 26.71 38.66" style="fill: #b7b7b8;"/>
            <polygon points="16.92 36.79 16.18 37.9 15.35 21.4 16.24 21.5 16.92 36.79" style="fill: #e5e5e5;"/>
            <polygon points="22.44 33.78 21.51 34.15 22.84 15.21 23.74 15.26 22.44 33.78" style="fill: #b7b7b8;"/>
            <g>
              <polygon points="14.64 21.63 20.81 24.93 29.25 19.77 23.1 16.56 14.64 21.63" style="fill: #c2c1c2;"/>
              <polygon points="14.57 19.93 20.99 23.65 29.43 18.49 23.29 14.91 14.57 19.93" style="fill: #e5e5e5;"/>
              <polygon points="29.43 18.49 29.25 20.52 20.81 25.68 20.99 23.65 29.43 18.49" style="fill: #b7b7b8;"/>
            </g>
            <polygon points="21.22 39.16 20.54 23.09 21.44 23.05 21.82 40.95 21.22 39.16" style="fill: #e5e5e5;"/>
            <polygon points="21.82 40.75 21.32 23.05 21.56 23.05 21.9 41.22 21.82 40.75" style="fill: #a4a4a3;"/>
          </g>
          <g>
            <g>
              <polygon points="51.43 70.36 49.1 69.06 47.53 8.56 48.27 8.56 51.43 70.36" style="fill: #d8d8d8;"/>
              <polygon points="51.43 70.36 56.01 67.71 50.04 7.91 48.04 8.66 51.43 70.36" style="fill: #b7b7b8;"/>
            </g>
            <g>
              <polygon points="52.61 35.47 52.59 32.13 76.22 70.39 76.05 73.68 52.61 35.47" style="fill: #c7c6c6;"/>
              <path d="M55.62,40.44l1.4-1.06-2.05-3.31-1.33,1.09,1.98,3.28ZM59.89,47.52l1.55-.99-2.27-3.67-1.47,1.03,2.19,3.63ZM64.64,55.36l1.73-.89-2.53-4.08-1.64.94,2.43,4.03ZM70.22,64.17l1.65-.83-2.83-4.56-1.66.76,2.84,4.63ZM76.05,73.68l.17-3.3-1.36-2.2-2.06.69,3.25,4.81Z" style="fill: #ce3932;"/>
            </g>
          </g>
          <polygon points="36.26 69.06 59.86 82.85 77.79 72.7 55.09 58.49 36.26 69.06" style="fill: #aeadad;"/>
          <g>
            <polygon points="36.15 71.19 36.28 69.06 59.86 82.85 59.74 84.68 36.15 71.19" style="fill: #d8d8d8;"/>
            <polygon points="59.86 82.85 59.74 84.68 77.99 74.06 77.79 72.7 59.86 82.85" style="fill: #b7b7b8;"/>
          </g>
          <g>
            <polygon points="58.9 93.29 56.57 91.99 62.12 51.87 62.91 52.37 58.9 93.29" style="fill: #d8d8d8;"/>
            <polygon points="58.9 93.29 63.48 90.65 64.77 51.42 62.91 52.37 58.9 93.29" style="fill: #b7b7b8;"/>
            <polygon points="74.69 84.05 72.36 82.75 70.79 47.71 71.52 47.71 74.69 84.05" style="fill: #d8d8d8;"/>
            <polygon points="74.69 84.05 79.27 81.4 73.3 47.06 71.3 47.81 74.69 84.05" style="fill: #b7b7b8;"/>
            <polygon points="62.12 50.76 62.91 51.26 73.22 46.01 72.4 45.72 62.12 50.76" style="fill: #d8d8d8;"/>
            <polygon points="62.91 52.37 62.91 51.26 73.22 46.01 73.3 47.06 62.91 52.37" style="fill: #b7b7b8;"/>
            <polygon points="62.12 50.76 62.11 51.93 62.91 52.37 62.91 51.26 62.12 50.76" style="fill: #d8d8d8;"/>
          </g>
          <g>
            <g>
              <rect x="17.69" y="15.83" width="22.86" height=".9" transform="translate(-4.04 12.64) rotate(-22.95)" style="fill: #ededec;"/>
              <path d="M38.92,11.64l.35.83.56-.24-.35-.83-.56.24ZM34.82,13.38l.35.83,2.05-.87-.35-.83-2.05.87ZM30.72,15.12l.35.83,2.05-.87-.35-.83-2.05.87ZM26.62,16.85l.35.83,2.05-.87-.35-.83-2.05.87ZM22.52,18.59l.35.83,2.05-.87-.35-.83-2.05.87ZM17.73,20.54l1.04.62,2.05-.87-.35-.83-2.74,1.08Z" style="fill: #ce3932;"/>
            </g>
            <polygon points="35.64 79.61 33.31 78.3 38.86 12.72 39.65 13.22 35.64 79.61" style="fill: #e5e5e5;"/>
            <polygon points="35.64 79.61 40.22 76.96 41.51 12.27 39.65 13.22 35.64 79.61" style="fill: #b7b7b8;"/>
            <polygon points="38.86 11.62 39.65 12.11 50.16 6.77 49.4 6.4 38.86 11.62" style="fill: #d8d8d8;"/>
            <polygon points="39.65 13.22 39.65 12.11 50.16 6.77 50.04 7.91 39.65 13.22" style="fill: #b7b7b8;"/>
            <polygon points="38.86 11.62 38.85 12.79 39.65 13.22 39.65 12.11 38.86 11.62" style="fill: #d8d8d8;"/>
            <g>
              <polygon points="37.87 41.69 38.13 38.37 58.44 78.48 57.99 81.75 37.87 41.69" style="fill: #ededec;"/>
              <path d="M40.44,46.9l1.49-.94-1.76-3.48-1.42.97,1.7,3.44ZM44.1,54.31l1.63-.85-1.95-3.85-1.56.9,1.88,3.8ZM48.16,62.53l1.8-.74-2.17-4.28-1.71.8,2.08,4.22ZM52.69,71.7l2-.6-2.43-4.79-1.9.68,2.33,4.71ZM57.99,81.75l.45-3.27-1.17-2.31-2.11.51,2.83,5.06Z" style="fill: #ce3932;"/>
            </g>
          </g>
          <g>
            <g>
              <polygon points="2.82 12.7 12.47 6.94 11.27 6.18 1.7 12.15 2.82 12.7" style="fill: #da3832;"/>
              <polygon points="1.7 12.15 1.61 15.37 2.66 16.08 2.82 12.7 1.7 12.15" style="fill: #c9332f;"/>
              <polygon points="11.5 11.01 2.82 16.08 2.82 12.7 11.55 7.48 11.5 11.01" style="fill: #ba2824;"/>
            </g>
            <g>
              <polygon points="83.14 62.87 2.66 16.08 2.84 12.72 83.05 59.73 83.14 62.87" style="fill: #eaeaea;"/>
              <polygon points="83.14 62.87 84.53 62 84.53 58.87 83.05 59.73 83.14 62.87" style="fill: #bc2a27;"/>
              <polygon points="2.82 12.7 83.05 59.73 84.53 58.87 3.74 12.15 2.82 12.7" style="fill: #f7f7f7;"/>
              <g style="mix-blend-mode: multiply;">
                <polygon points="2.66 16.08 5.77 17.9 5.9 14.41 6.8 13.92 3.74 12.15 2.82 12.7 2.66 16.08" style="fill: #da3832;"/>
                <polygon points="12.78 17.38 9.77 15.64 8.8 16.2 8.65 19.56 11.72 21.36 11.83 17.9 12.78 17.38" style="fill: #da3832;"/>
                <polygon points="18.76 20.84 15.8 19.12 14.79 19.71 14.63 23.04 17.67 24.82 17.77 21.39 18.76 20.84" style="fill: #da3832;"/>
                <polygon points="24.74 24.29 21.83 22.61 20.77 23.22 20.61 26.52 23.62 28.28 23.7 24.87 24.74 24.29" style="fill: #da3832;"/>
                <polygon points="30.72 27.75 27.86 26.1 26.75 26.72 26.6 30 29.57 31.74 29.64 28.36 30.72 27.75" style="fill: #da3832;"/>
                <polygon points="36.7 31.21 33.89 29.58 32.73 30.23 32.58 33.48 35.53 35.2 35.57 31.84 36.7 31.21" style="fill: #da3832;"/>
                <polygon points="42.68 34.67 39.92 33.07 38.72 33.74 38.57 36.96 41.48 38.66 41.51 35.33 42.68 34.67" style="fill: #da3832;"/>
                <polygon points="48.66 38.13 45.95 36.56 44.7 37.25 44.55 40.44 47.43 42.12 47.44 38.82 48.66 38.13" style="fill: #da3832;"/>
                <polygon points="54.64 41.58 51.98 40.04 50.68 40.75 50.54 43.92 53.38 45.58 53.38 42.3 54.64 41.58" style="fill: #da3832;"/>
                <polygon points="60.62 45.04 58.01 43.53 56.66 44.26 56.52 47.4 59.33 49.04 59.31 45.79 60.62 45.04" style="fill: #da3832;"/>
                <polygon points="66.6 48.5 64.03 47.02 62.64 47.77 62.51 50.88 65.28 52.5 65.24 49.27 66.6 48.5" style="fill: #da3832;"/>
                <polygon points="72.58 51.96 70.06 50.51 68.63 51.27 68.49 54.36 71.24 55.95 71.18 52.76 72.58 51.96" style="fill: #da3832;"/>
                <polygon points="78.56 55.42 76.09 53.99 74.61 54.78 74.48 57.84 77.19 59.41 77.11 56.25 78.56 55.42" style="fill: #da3832;"/>
                <polygon points="80.46 61.32 83.14 62.87 83.05 59.73 84.54 58.87 82.12 57.48 80.59 58.29 80.46 61.32" style="fill: #da3832;"/>
              </g>
            </g>
            <g>
              <polygon points="84.07 60.31 93.99 54.19 94.05 57.21 84.03 63.42 84.07 60.31" style="fill: #bb1f21;"/>
              <polygon points="83.05 59.73 84.07 60.32 93.99 54.19 92.95 53.48 83.05 59.73" style="fill: #da3832;"/>
              <polygon points="83.05 59.73 84.07 60.32 84.03 63.44 83.05 62.82 83.05 59.73" style="fill: #c9332f;"/>
            </g>
          </g>
          <g>
            <polygon points="86.64 44.27 62.12 58.43 49.87 51.35 74.35 37.26 86.64 44.27" style="fill: #ddd;"/>
            <polygon points="86.64 44.27 86.64 46.09 62.14 60.32 62.12 58.43 86.64 44.27" style="fill: #c7c6c6;"/>
            <polygon points="62.12 58.43 62.14 60.32 49.87 53.15 49.87 51.35 62.12 58.43" style="fill: #ababab;"/>
            <g>
              <path d="M54.29,46.86s-.04-.01-.05-.03c-.02-.03,0-.06.02-.08l19.38-11.2c.12-.07.24-.08.33-.03.09.05.14.16.14.3v2.22s-.03.06-.06.06-.06-.03-.06-.06v-2.22c0-.1-.03-.17-.09-.2-.06-.03-.13-.02-.22.03l-19.38,11.2s-.02,0-.03,0Z" style="fill: #e6d5b6;"/>
              <path d="M71.99,39.34s-.06-.03-.06-.06v-2.7s.03-.06.06-.06.06.03.06.06v2.7s-.03.06-.06.06Z" style="fill: #e6d5b6;"/>
              <path d="M69.44,40.8s-.06-.03-.06-.06v-2.7s.03-.06.06-.06.06.03.06.06v2.7s-.03.06-.06.06Z" style="fill: #e6d5b6;"/>
              <path d="M66.88,42.31s-.06-.03-.06-.06v-2.7s.03-.06.06-.06.06.03.06.06v2.7s-.03.06-.06.06Z" style="fill: #e6d5b6;"/>
              <path d="M64.32,43.79s-.06-.03-.06-.06v-2.7s.03-.06.06-.06.06.03.06.06v2.7s-.03.06-.06.06Z" style="fill: #e6d5b6;"/>
              <path d="M61.76,45.29s-.06-.03-.06-.06v-2.7s.03-.06.06-.06.06.03.06.06v2.7s-.03.06-.06.06Z" style="fill: #e6d5b6;"/>
              <path d="M59.36,46.66s-.06-.03-.06-.06v-2.7s.03-.06.06-.06.06.03.06.06v2.7s-.03.06-.06.06Z" style="fill: #e6d5b6;"/>
              <path d="M56.8,48.16s-.06-.03-.06-.06v-2.7s.03-.06.06-.06.06.03.06.06v2.7s-.03.06-.06.06Z" style="fill: #e6d5b6;"/>
              <path d="M54.24,49.64s-.06-.03-.06-.06v-2.7s.03-.06.06-.06.06.03.06.06v2.7s-.03.06-.06.06Z" style="fill: #e6d5b6;"/>
              <path d="M51.27,51.35h0s.05-.02.05-.05l-.03-2.25c0-.3.16-.59.42-.74l2.61-1.46s.03-.05.02-.07-.05-.03-.07-.02l-2.61,1.46c-.29.17-.47.49-.47.83l.03,2.25s.02.05.05.05Z" style="fill: #e6d5b6;"/>
            </g>
            <g>
              <path d="M53.77,53.35s.06-.03.06-.06v-2.7s-.03-.06-.06-.06-.06.03-.06.06v2.7s.03.06.06.06Z" style="fill: #e6d5b6;"/>
              <path d="M56.1,54.68s.06-.03.06-.06v-2.7s-.03-.06-.06-.06-.06.03-.06.06v2.7s.03.06.06.06Z" style="fill: #e6d5b6;"/>
              <path d="M58.66,56.16s.06-.03.06-.06v-2.7s-.03-.06-.06-.06-.06.03-.06.06v2.7s.03.06.06.06Z" style="fill: #e6d5b6;"/>
              <path d="M61.63,57.87h0s-.05-.02-.05-.05l.03-2.25c0-.3-.16-.59-.42-.74l-2.61-1.46s-.03-.05-.02-.07.05-.03.07-.02l2.61,1.46c.29.17.47.49.47.83l-.03,2.25s-.02.05-.05.05Z" style="fill: #e6d5b6;"/>
              <path d="M58.64,53.4l.05-.09c-.99-.55-2.06-1.16-3.1-1.75-1.04-.59-2.11-1.21-3.1-1.75-.15-.08-.32-.08-.47,0-.15.08-.24.24-.24.41l-.02,1.83h.11s.02-1.82.02-1.82c0-.13.07-.25.19-.32.12-.07.25-.07.37,0,.99.55,2.06,1.16,3.1,1.75,1.04.59,2.11,1.21,3.1,1.75Z" style="fill: #e6d5b6;"/>
            </g>
            <g>
              <path d="M76.54,39.27s.06-.03.06-.06v-2.7s-.03-.06-.06-.06-.06.03-.06.06v2.7s.03.06.06.06Z" style="fill: #e6d5b6;"/>
              <path d="M78.87,40.6s.06-.03.06-.06v-2.7s-.03-.06-.06-.06-.06.03-.06.06v2.7s.03.06.06.06Z" style="fill: #e6d5b6;"/>
              <path d="M81.43,42.08s.06-.03.06-.06v-2.7s-.03-.06-.06-.06-.06.03-.06.06v2.7s.03.06.06.06Z" style="fill: #e6d5b6;"/>
              <path d="M84.4,43.79h0s-.05-.02-.05-.05l.03-2.25c0-.3-.16-.59-.42-.74l-2.61-1.46s-.03-.05-.02-.07.05-.03.07-.02l2.61,1.46c.29.17.47.49.47.83l-.03,2.25s-.02.05-.05.05Z" style="fill: #e6d5b6;"/>
              <path d="M81.41,39.31l.05-.09c-.99-.55-2.06-1.16-3.1-1.75-1.04-.59-2.11-1.21-3.1-1.75-.15-.08-.32-.08-.47,0-.15.08-.24.24-.24.41l-.02,1.83h.11s.02-1.82.02-1.82c0-.13.07-.25.19-.32.12-.07.25-.07.37,0,.99.55,2.06,1.16,3.1,1.75,1.04.59,2.11,1.21,3.1,1.75Z" style="fill: #e6d5b6;"/>
            </g>
            <g>
              <polygon points="78.9 46.48 64 55.11 64 46.93 78.9 38.3 78.9 46.48" style="fill: #b4c1cd;"/>
              <polygon points="64.41 47.18 78.5 39.03 78.5 46.23 64.41 54.38 64.41 47.18" style="fill: #9aa7ba;"/>
              <polygon points="72.29 34.49 78.9 38.3 64 46.93 57.39 43.11 72.29 34.49" style="fill: #f5f7f8;"/>
              <polygon points="64 55.11 57.39 51.29 57.39 43.11 64 46.93 64 55.11" style="fill: #707e97;"/>
              <polygon points="63.6 47.38 57.79 44.01 57.79 51.21 63.6 54.58 63.6 47.38" style="fill: #54626f;"/>
              <polygon points="57.99 44.13 57.99 51.06 63.6 54.32 63.6 54.58 57.79 51.21 57.79 44.01 57.99 44.13" style="fill: #9ea7b4;"/>
              <g>
                <g>
                  <polygon points="62.04 46.49 62.04 53.88 62.98 54.35 62.98 47.02 62.96 47.02 62.04 46.49" style="fill: #707e97;"/>
                  <polygon points="62.96 47.02 62.96 54.19 62.98 54.19 63.2 54.11 63.2 47.15 62.98 47.02 62.96 47.02" style="fill: #9ea7b4;"/>
                </g>
                <g>
                  <polygon points="60.16 45.39 60.16 52.79 61.09 53.26 61.09 45.93 61.08 45.92 60.16 45.39" style="fill: #707e97;"/>
                  <polygon points="61.08 45.92 61.08 53.1 61.09 53.1 61.32 53.01 61.32 46.06 61.09 45.93 61.08 45.92" style="fill: #9ea7b4;"/>
                </g>
                <g>
                  <polygon points="58.28 44.3 58.28 51.69 59.21 52.16 59.21 44.83 59.2 44.83 58.28 44.3" style="fill: #707e97;"/>
                  <polygon points="59.2 44.83 59.2 52 59.21 52 59.44 51.92 59.44 44.96 59.21 44.83 59.2 44.83" style="fill: #9ea7b4;"/>
                </g>
              </g>
              <path d="M63.67,54.71l-5.95-3.43v-7.6s5.95,3.43,5.95,3.43v7.6ZM57.87,51.19l5.64,3.26v-7.24l-5.64-3.26v7.24Z" style="fill: #566177;"/>
              <polygon points="78.29 39.13 78.29 46.06 64.41 54.09 64.41 54.36 78.5 46.21 78.5 39.01 78.29 39.13" style="fill: #707e97;"/>
              <rect x="60.43" y="45.34" width=".15" height="7.57" style="fill: #596e78;"/>
              <g>
                <g>
                  <polygon points="66.36 46.02 66.36 53.41 65.43 53.88 65.43 46.56 65.44 46.55 66.36 46.02" style="fill: #b4c1cd;"/>
                  <polygon points="65.44 46.55 65.44 53.73 65.43 53.72 65.2 53.64 65.2 46.68 65.43 46.56 65.44 46.55" style="fill: #707e97;"/>
                </g>
                <g>
                  <polygon points="68.21 44.95 68.21 52.34 67.27 52.81 67.27 45.49 67.28 45.48 68.21 44.95" style="fill: #b4c1cd;"/>
                  <polygon points="67.28 45.48 67.28 52.66 67.27 52.65 67.05 52.57 67.05 45.61 67.27 45.49 67.28 45.48" style="fill: #707e97;"/>
                </g>
                <g>
                  <polygon points="70.05 43.88 70.05 51.27 69.12 51.74 69.12 44.42 69.13 44.41 70.05 43.88" style="fill: #b4c1cd;"/>
                  <polygon points="69.13 44.41 69.13 51.59 69.12 51.58 68.9 51.5 68.9 44.54 69.12 44.42 69.13 44.41" style="fill: #707e97;"/>
                </g>
                <g>
                  <polygon points="71.9 42.81 71.9 50.2 70.97 50.67 70.97 43.35 70.98 43.34 71.9 42.81" style="fill: #b4c1cd;"/>
                  <polygon points="70.98 43.34 70.98 50.52 70.97 50.51 70.75 50.43 70.75 43.47 70.97 43.35 70.98 43.34" style="fill: #707e97;"/>
                </g>
                <g>
                  <polygon points="73.75 41.74 73.75 49.13 72.82 49.6 72.82 42.28 72.83 42.27 73.75 41.74" style="fill: #b4c1cd;"/>
                  <polygon points="72.83 42.27 72.83 49.45 72.82 49.44 72.6 49.36 72.6 42.4 72.82 42.28 72.83 42.27" style="fill: #707e97;"/>
                </g>
                <g>
                  <polygon points="75.6 40.67 75.6 48.06 74.67 48.53 74.67 41.21 74.68 41.2 75.6 40.67" style="fill: #b4c1cd;"/>
                  <polygon points="74.68 41.2 74.68 48.38 74.67 48.37 74.45 48.29 74.45 41.33 74.67 41.21 74.68 41.2" style="fill: #707e97;"/>
                </g>
                <g>
                  <polygon points="77.45 39.6 77.45 46.99 76.52 47.46 76.52 40.14 76.53 40.13 77.45 39.6" style="fill: #b4c1cd;"/>
                  <polygon points="76.53 40.13 76.53 47.31 76.52 47.3 76.3 47.22 76.3 40.26 76.52 40.14 76.53 40.13" style="fill: #707e97;"/>
                </g>
              </g>
              <g>
                <polygon points="64.11 46.29 77.9 38.33 72.18 35.03 58.38 42.98 64.11 46.29" style="fill: #cdd2d8;"/>
                <polygon points="77.71 38.44 72.2 35.26 58.59 43.1 58.38 42.98 72.18 35.03 77.9 38.33 77.71 38.44" style="fill: #acb6c2;"/>
                <g>
                  <g>
                    <polygon points="65.91 45.26 60.03 41.87 59.23 42.39 65.06 45.76 65.07 45.75 65.91 45.26" style="fill: #f5f7f8;"/>
                    <polygon points="65.07 45.75 59.36 42.46 59.36 42.47 59.32 42.68 64.85 45.88 65.06 45.76 65.07 45.75" style="fill: #acb6c2;"/>
                  </g>
                  <g>
                    <polygon points="67.75 44.2 61.87 40.81 61.07 41.33 66.9 44.7 66.91 44.69 67.75 44.2" style="fill: #f5f7f8;"/>
                    <polygon points="66.91 44.69 61.2 41.4 61.2 41.41 61.16 41.62 66.69 44.82 66.9 44.7 66.91 44.69" style="fill: #acb6c2;"/>
                  </g>
                  <g>
                    <polygon points="69.59 43.14 63.71 39.74 62.91 40.27 68.74 43.63 68.75 43.63 69.59 43.14" style="fill: #f5f7f8;"/>
                    <polygon points="68.75 43.63 63.04 40.33 63.04 40.34 63 40.56 68.53 43.75 68.74 43.63 68.75 43.63" style="fill: #acb6c2;"/>
                  </g>
                  <g>
                    <polygon points="71.43 42.08 65.55 38.68 64.75 39.21 70.58 42.57 70.59 42.57 71.43 42.08" style="fill: #f5f7f8;"/>
                    <polygon points="70.59 42.57 64.88 39.27 64.88 39.28 64.84 39.5 70.37 42.69 70.58 42.57 70.59 42.57" style="fill: #acb6c2;"/>
                  </g>
                  <g>
                    <polygon points="73.27 41.02 67.39 37.62 66.59 38.15 72.42 41.51 72.43 41.51 73.27 41.02" style="fill: #f5f7f8;"/>
                    <polygon points="72.43 41.51 66.72 38.21 66.72 38.22 66.68 38.44 72.21 41.63 72.42 41.51 72.43 41.51" style="fill: #acb6c2;"/>
                  </g>
                  <g>
                    <polygon points="75.11 39.96 69.23 36.56 68.43 37.08 74.26 40.45 74.27 40.44 75.11 39.96" style="fill: #f5f7f8;"/>
                    <polygon points="74.27 40.44 68.56 37.15 68.56 37.16 68.52 37.37 74.05 40.57 74.26 40.45 74.27 40.44" style="fill: #acb6c2;"/>
                  </g>
                  <g>
                    <polygon points="76.95 38.89 71.07 35.5 70.27 36.02 76.1 39.39 76.11 39.38 76.95 38.89" style="fill: #f5f7f8;"/>
                    <polygon points="76.11 39.38 70.4 36.09 70.4 36.1 70.36 36.31 75.89 39.51 76.1 39.39 76.11 39.38" style="fill: #acb6c2;"/>
                  </g>
                </g>
              </g>
            </g>
            <g>
              <path d="M65.69,53.38s-.04-.01-.05-.03c-.02-.03,0-.06.02-.08l19.38-11.2c.12-.07.24-.08.33-.03.09.05.14.16.14.3v2.22s-.03.06-.06.06-.06-.03-.06-.06v-2.22c0-.1-.03-.17-.09-.2-.06-.03-.13-.02-.22.03l-19.38,11.2s-.02,0-.03,0Z" style="fill: #e6d5b6;"/>
              <path d="M83.4,45.86s-.06-.03-.06-.06v-2.7s.03-.06.06-.06.06.03.06.06v2.7s-.03.06-.06.06Z" style="fill: #e6d5b6;"/>
              <path d="M80.84,47.32s-.06-.03-.06-.06v-2.7s.03-.06.06-.06.06.03.06.06v2.7s-.03.06-.06.06Z" style="fill: #e6d5b6;"/>
              <path d="M78.29,48.82s-.06-.03-.06-.06v-2.7s.03-.06.06-.06.06.03.06.06v2.7s-.03.06-.06.06Z" style="fill: #e6d5b6;"/>
              <path d="M75.73,50.3s-.06-.03-.06-.06v-2.7s.03-.06.06-.06.06.03.06.06v2.7s-.03.06-.06.06Z" style="fill: #e6d5b6;"/>
              <path d="M73.17,51.81s-.06-.03-.06-.06v-2.7s.03-.06.06-.06.06.03.06.06v2.7s-.03.06-.06.06Z" style="fill: #e6d5b6;"/>
              <path d="M70.76,53.17s-.06-.03-.06-.06v-2.7s.03-.06.06-.06.06.03.06.06v2.7s-.03.06-.06.06Z" style="fill: #e6d5b6;"/>
              <path d="M68.2,54.68s-.06-.03-.06-.06v-2.7s.03-.06.06-.06.06.03.06.06v2.7s-.03.06-.06.06Z" style="fill: #e6d5b6;"/>
              <path d="M65.65,56.16s-.06-.03-.06-.06v-2.7s.03-.06.06-.06.06.03.06.06v2.7s-.03.06-.06.06Z" style="fill: #e6d5b6;"/>
              <path d="M62.68,57.87h0s.05-.02.05-.05l-.03-2.25c0-.3.16-.59.42-.74l2.61-1.46s.03-.05.02-.07-.05-.03-.07-.02l-2.61,1.46c-.29.17-.47.49-.47.83l.03,2.25s.02.05.05.05Z" style="fill: #e6d5b6;"/>
            </g>
          </g>
          <g>
            <g>
              <rect x="47.34" y="9.08" width=".9" height="19.75" transform="translate(-3.58 16.89) rotate(-19.34)" style="fill: #ededec;"/>
              <path d="M51.31,27.63l-.85.3.17.49.85-.3-.17-.49ZM50.04,24l-.85.3.64,1.81.85-.3-.64-1.81ZM48.77,20.37l-.85.3.64,1.81.85-.3-.64-1.81ZM47.49,16.74l-.85.3.64,1.81.85-.3-.64-1.81ZM46.22,13.12l-.85.3.64,1.81.85-.3-.64-1.81ZM44.95,9.49l-.85.3.64,1.81.85-.3-.64-1.81Z" style="fill: #ce3932;"/>
            </g>
            <g>
              <rect x="53.88" y="27.71" width=".9" height="19.75" transform="translate(-9.38 20.11) rotate(-19.34)" style="fill: #ededec;"/>
              <path d="M57.85,46.26l-.85.3.17.49.85-.3-.17-.49ZM56.58,42.63l-.85.3.64,1.81.85-.3-.64-1.81ZM55.3,39l-.85.3.64,1.81.85-.3-.64-1.81ZM54.03,35.37l-.85.3.64,1.81.85-.3-.64-1.81ZM52.76,31.75l-.85.3.64,1.81.85-.3-.64-1.81ZM51.48,28.12l-.85.3.64,1.81.85-.3-.64-1.81Z" style="fill: #ce3932;"/>
            </g>
          </g>
        </g>
      </g>
    </g>
    <g id="uuid-0a9520bc-b05c-457a-9ed8-7bd8e91500f6" data-name="圖層 2">
      <g style="opacity: .2;">
        <g style="clip-path: url(#uuid-2f7bd701-c05a-4352-8509-6858e1fbc51c);">
          <g>
            <g>
              <line x1="58.03" y1="-55.7" x2="58.03" y2="390.24" style="fill: none; stroke: #59bfee; stroke-miterlimit: 10; stroke-width: .25px;"/>
              <line x1="49.29" y1="-55.7" x2="49.29" y2="390.24" style="fill: none; stroke: #59bfee; stroke-miterlimit: 10; stroke-width: .25px;"/>
              <line x1="40.54" y1="-55.7" x2="40.54" y2="390.24" style="fill: none; stroke: #59bfee; stroke-miterlimit: 10; stroke-width: .25px;"/>
              <line x1="31.8" y1="-55.7" x2="31.8" y2="390.24" style="fill: none; stroke: #59bfee; stroke-miterlimit: 10; stroke-width: .25px;"/>
              <line x1="23.06" y1="-55.7" x2="23.06" y2="390.24" style="fill: none; stroke: #59bfee; stroke-miterlimit: 10; stroke-width: .25px;"/>
              <line x1="14.31" y1="-55.7" x2="14.31" y2="390.24" style="fill: none; stroke: #59bfee; stroke-miterlimit: 10; stroke-width: .25px;"/>
              <line x1="5.57" y1="-55.7" x2="5.57" y2="390.24" style="fill: none; stroke: #59bfee; stroke-miterlimit: 10; stroke-width: .25px;"/>
              <line x1="66.78" y1="-55.7" x2="66.78" y2="390.24" style="fill: none; stroke: #59bfee; stroke-miterlimit: 10; stroke-width: .25px;"/>
            </g>
            <g>
              <line x1="-78.95" y1="460.91" x2="144.02" y2="74.71" style="fill: none; stroke: #59bfee; stroke-miterlimit: 10; stroke-width: .25px;"/>
              <line x1="-246.55" y1="-140.68" x2="139.64" y2="82.29" style="fill: none; stroke: #59bfee; stroke-miterlimit: 10; stroke-width: .25px;"/>
              <line x1="-250.92" y1="-133.11" x2="135.27" y2="89.86" style="fill: none; stroke: #59bfee; stroke-miterlimit: 10; stroke-width: .25px;"/>
              <line x1="-255.29" y1="-125.54" x2="130.9" y2="97.43" style="fill: none; stroke: #59bfee; stroke-miterlimit: 10; stroke-width: .25px;"/>
              <line x1="-259.66" y1="-117.96" x2="126.53" y2="105" style="fill: none; stroke: #59bfee; stroke-miterlimit: 10; stroke-width: .25px;"/>
              <line x1="-264.04" y1="-110.39" x2="122.16" y2="112.58" style="fill: none; stroke: #59bfee; stroke-miterlimit: 10; stroke-width: .25px;"/>
              <line x1="-268.41" y1="-102.82" x2="117.78" y2="120.15" style="fill: none; stroke: #59bfee; stroke-miterlimit: 10; stroke-width: .25px;"/>
              <line x1="-272.78" y1="-95.25" x2="113.41" y2="127.72" style="fill: none; stroke: #59bfee; stroke-miterlimit: 10; stroke-width: .25px;"/>
              <line x1="-277.15" y1="-87.67" x2="109.04" y2="135.29" style="fill: none; stroke: #59bfee; stroke-miterlimit: 10; stroke-width: .25px;"/>
              <line x1="-281.52" y1="-80.1" x2="104.67" y2="142.87" style="fill: none; stroke: #59bfee; stroke-miterlimit: 10; stroke-width: .25px;"/>
              <line x1="-285.89" y1="-72.53" x2="100.3" y2="150.44" style="fill: none; stroke: #59bfee; stroke-miterlimit: 10; stroke-width: .25px;"/>
              <line x1="-290.27" y1="-64.96" x2="95.92" y2="158.01" style="fill: none; stroke: #59bfee; stroke-miterlimit: 10; stroke-width: .25px;"/>
              <line x1="-294.64" y1="-57.38" x2="91.55" y2="165.58" style="fill: none; stroke: #59bfee; stroke-miterlimit: 10; stroke-width: .25px;"/>
              <line x1="-299.01" y1="-49.81" x2="87.18" y2="173.16" style="fill: none; stroke: #59bfee; stroke-miterlimit: 10; stroke-width: .25px;"/>
              <line x1="-303.38" y1="-42.24" x2="82.81" y2="180.73" style="fill: none; stroke: #59bfee; stroke-miterlimit: 10; stroke-width: .25px;"/>
              <line x1="-307.75" y1="-34.67" x2="78.44" y2="188.3" style="fill: none; stroke: #59bfee; stroke-miterlimit: 10; stroke-width: .25px;"/>
              <line x1="-312.13" y1="-27.09" x2="74.07" y2="195.87" style="fill: none; stroke: #59bfee; stroke-miterlimit: 10; stroke-width: .25px;"/>
              <line x1="-316.5" y1="-19.52" x2="69.69" y2="203.45" style="fill: none; stroke: #59bfee; stroke-miterlimit: 10; stroke-width: .25px;"/>
              <line x1="-320.87" y1="-11.95" x2="65.32" y2="211.02" style="fill: none; stroke: #59bfee; stroke-miterlimit: 10; stroke-width: .25px;"/>
              <line x1="-325.24" y1="-4.38" x2="60.95" y2="218.59" style="fill: none; stroke: #59bfee; stroke-miterlimit: 10; stroke-width: .25px;"/>
              <line x1="-329.61" y1="3.19" x2="56.58" y2="226.16" style="fill: none; stroke: #59bfee; stroke-miterlimit: 10; stroke-width: .25px;"/>
              <line x1="-333.99" y1="10.77" x2="52.21" y2="233.73" style="fill: none; stroke: #59bfee; stroke-miterlimit: 10; stroke-width: .25px;"/>
              <line x1="-338.36" y1="18.34" x2="47.83" y2="241.31" style="fill: none; stroke: #59bfee; stroke-miterlimit: 10; stroke-width: .25px;"/>
              <line x1="-342.73" y1="25.91" x2="43.46" y2="248.88" style="fill: none; stroke: #59bfee; stroke-miterlimit: 10; stroke-width: .25px;"/>
              <line x1="-347.1" y1="33.48" x2="39.09" y2="256.45" style="fill: none; stroke: #59bfee; stroke-miterlimit: 10; stroke-width: .25px;"/>
              <line x1="-351.47" y1="41.06" x2="34.72" y2="264.02" style="fill: none; stroke: #59bfee; stroke-miterlimit: 10; stroke-width: .25px;"/>
              <line x1="-355.85" y1="48.63" x2="30.35" y2="271.6" style="fill: none; stroke: #59bfee; stroke-miterlimit: 10; stroke-width: .25px;"/>
              <line x1="-360.22" y1="56.2" x2="25.97" y2="279.17" style="fill: none; stroke: #59bfee; stroke-miterlimit: 10; stroke-width: .25px;"/>
              <line x1="-364.59" y1="63.77" x2="21.6" y2="286.74" style="fill: none; stroke: #59bfee; stroke-miterlimit: 10; stroke-width: .25px;"/>
              <line x1="-368.96" y1="71.35" x2="17.23" y2="294.31" style="fill: none; stroke: #59bfee; stroke-miterlimit: 10; stroke-width: .25px;"/>
              <line x1="-373.33" y1="78.92" x2="12.86" y2="301.89" style="fill: none; stroke: #59bfee; stroke-miterlimit: 10; stroke-width: .25px;"/>
              <line x1="-377.71" y1="86.49" x2="8.49" y2="309.46" style="fill: none; stroke: #59bfee; stroke-miterlimit: 10; stroke-width: .25px;"/>
              <line x1="-382.08" y1="94.06" x2="4.11" y2="317.03" style="fill: none; stroke: #59bfee; stroke-miterlimit: 10; stroke-width: .25px;"/>
              <line x1="-242.18" y1="-148.25" x2="144.02" y2="74.71" style="fill: none; stroke: #59bfee; stroke-miterlimit: 10; stroke-width: .25px;"/>
            </g>
            <g>
              <line x1="144.02" y1="237.94" x2="-78.95" y2="-148.25" style="fill: none; stroke: #59bfee; stroke-miterlimit: 10; stroke-width: .25px;"/>
              <line x1="-382.08" y1="218.59" x2="4.11" y2="-4.38" style="fill: none; stroke: #59bfee; stroke-miterlimit: 10; stroke-width: .25px;"/>
              <line x1="-377.71" y1="226.16" x2="8.49" y2="3.19" style="fill: none; stroke: #59bfee; stroke-miterlimit: 10; stroke-width: .25px;"/>
              <line x1="-373.33" y1="233.73" x2="12.86" y2="10.77" style="fill: none; stroke: #59bfee; stroke-miterlimit: 10; stroke-width: .25px;"/>
              <line x1="-368.96" y1="241.31" x2="17.23" y2="18.34" style="fill: none; stroke: #59bfee; stroke-miterlimit: 10; stroke-width: .25px;"/>
              <line x1="-364.59" y1="248.88" x2="21.6" y2="25.91" style="fill: none; stroke: #59bfee; stroke-miterlimit: 10; stroke-width: .25px;"/>
              <line x1="-360.22" y1="256.45" x2="25.97" y2="33.48" style="fill: none; stroke: #59bfee; stroke-miterlimit: 10; stroke-width: .25px;"/>
              <line x1="-355.85" y1="264.02" x2="30.35" y2="41.06" style="fill: none; stroke: #59bfee; stroke-miterlimit: 10; stroke-width: .25px;"/>
              <line x1="-351.47" y1="271.6" x2="34.72" y2="48.63" style="fill: none; stroke: #59bfee; stroke-miterlimit: 10; stroke-width: .25px;"/>
              <line x1="-347.1" y1="279.17" x2="39.09" y2="56.2" style="fill: none; stroke: #59bfee; stroke-miterlimit: 10; stroke-width: .25px;"/>
              <line x1="-342.73" y1="286.74" x2="43.46" y2="63.77" style="fill: none; stroke: #59bfee; stroke-miterlimit: 10; stroke-width: .25px;"/>
              <line x1="-338.36" y1="294.31" x2="47.83" y2="71.35" style="fill: none; stroke: #59bfee; stroke-miterlimit: 10; stroke-width: .25px;"/>
              <line x1="-333.99" y1="301.89" x2="52.21" y2="78.92" style="fill: none; stroke: #59bfee; stroke-miterlimit: 10; stroke-width: .25px;"/>
              <line x1="-329.61" y1="309.46" x2="56.58" y2="86.49" style="fill: none; stroke: #59bfee; stroke-miterlimit: 10; stroke-width: .25px;"/>
              <line x1="-325.24" y1="317.03" x2="60.95" y2="94.06" style="fill: none; stroke: #59bfee; stroke-miterlimit: 10; stroke-width: .25px;"/>
            </g>
          </g>
        </g>
      </g>
    </g>
  </g>
</svg>