<?xml version="1.0" encoding="UTF-8"?>
<svg xmlns="http://www.w3.org/2000/svg" xmlns:xlink="http://www.w3.org/1999/xlink" viewBox="0 0 100 100">
  <defs>
    <clipPath id="uuid-e2fcf8c3-b96b-438f-b235-3047e49b468a">
      <rect x="-427.89" y="0" width="297.29" height="292.63" style="fill: none;"/>
    </clipPath>
  </defs>
  <g style="isolation: isolate;">
    <g id="uuid-bc025952-55e7-4ecc-a651-71580c5cd7d0" data-name="圖層 1">
      <g>
        <polygon points="61.89 61.66 75.1 68.36 86.13 61.55 74.11 56.33 61.89 61.66" style="fill: #afafaf; mix-blend-mode: multiply; opacity: .5;"/>
        <g>
          <polygon points="57.89 51.92 60.16 62.08 72.11 68.71 72.11 60.13 57.89 51.92" style="fill: #c34d4c;"/>
          <polygon points="72.11 60.13 80.18 55.98 83.13 58.31 83.03 61.7 72.11 68.71 72.11 60.13" style="fill: #a73e3e;"/>
          <polygon points="57.89 51.92 72.11 60.13 80.18 55.98 65.67 48.01 57.89 51.92" style="fill: #ed8a8a;"/>
          <g>
            <polygon points="78.01 57.1 74.94 30.91 76.02 30.28 80.18 56.04 78.01 57.1" style="fill: #a73e3e;"/>
            <polygon points="74.94 30.91 72.95 29.77 75.62 55.96 78.01 57.1 74.94 30.91" style="fill: #c34d4c;"/>
          </g>
          <g>
            <polygon points="65.79 50.36 62.71 24.17 63.8 23.54 67.96 49.3 65.79 50.36" style="fill: #a73e3e;"/>
            <polygon points="62.71 24.17 61.01 23.38 63.39 49.22 65.79 50.36 62.71 24.17" style="fill: #c34d4c;"/>
          </g>
          <g>
            <polygon points="72.11 60.13 73.19 31.97 74.29 31.32 74.28 59.07 72.11 60.13" style="fill: #a73e3e;"/>
            <polygon points="73.19 31.97 71.21 30.84 69.71 58.99 72.11 60.13 73.19 31.97" style="fill: #c34d4c;"/>
          </g>
          <g>
            <polygon points="60.13 53.21 61.37 24.95 62.46 24.32 62.3 52.15 60.13 53.21" style="fill: #a73e3e;"/>
            <polygon points="61.37 24.95 59.38 24.04 57.89 51.96 60.13 53.21 61.37 24.95" style="fill: #c34d4c;"/>
          </g>
          <g>
            <line x1="71.45" y1="13.28" x2="71.66" y2="22.21" style="fill: none; stroke: #a73e3e; stroke-linejoin: round; stroke-width: .81px;"/>
            <g>
              <g>
                <path d="M80.44,16.61l9.22,5.27c-1.35-.77-1.36-3.28-.04-5.59,1.33-2.3,3.51-3.54,4.86-2.77l-9.22-5.27c-1.34-.77-3.52.46-4.85,2.77-1.33,2.3-1.32,4.81.03,5.59Z" style="fill: #c34d4c;"/>
                <path d="M89.61,21.86c1.35.78,3.52-.45,4.86-2.77,1.33-2.3,1.32-4.81-.04-5.59-1.35-.77-3.52.46-4.86,2.77-1.33,2.3-1.32,4.81.04,5.59Z" style="fill: #a73e3e;"/>
              </g>
              <g>
                <polygon points="68.39 28.85 64.74 26.82 82.67 16.49 86.32 18.51 68.39 28.85" style="fill: #a73e3e;"/>
                <polygon points="86.32 18.51 86.32 17.09 82.67 15.06 82.67 16.49 86.32 18.51" style="fill: #a73e3e;"/>
                <polygon points="68.39 27.42 64.74 25.4 82.67 15.06 86.32 17.09 68.39 27.42" style="fill: #ed8a8a;"/>
              </g>
              <polygon points="59.38 22.22 73.33 29.98 76.02 28.46 62.91 20.78 59.38 22.22" style="fill: #ed8a8a;"/>
              <polygon points="59.38 24.04 59.38 22.21 73.33 29.98 73.19 31.97 59.38 24.04" style="fill: #c34d4c;"/>
              <polygon points="73.19 31.97 73.33 29.98 76.02 28.46 76.02 30.28 73.19 31.97" style="fill: #a73e3e;"/>
            </g>
            <line x1="75.83" y1="15.06" x2="76.02" y2="23.54" style="fill: none; stroke: #a73e3e; stroke-linejoin: round; stroke-width: .81px;"/>
            <polygon points="82.39 15.01 86.32 17.09 65.58 13.08 61.57 11.32 82.39 15.01" style="fill: none; stroke: #c34d4c; stroke-linejoin: round; stroke-width: .98px;"/>
          </g>
          <g>
            <g>
              <polygon points="13.95 88.18 10.3 86.16 62.91 55.83 66.57 57.85 13.95 88.18" style="fill: #a73e3e;"/>
              <polygon points="66.57 57.85 66.57 56.43 62.91 54.4 62.91 55.83 66.57 57.85" style="fill: #a73e3e;"/>
              <polygon points="13.95 86.76 10.3 84.73 62.91 54.4 66.57 56.43 13.95 86.76" style="fill: #ed8a8a;"/>
            </g>
            <polygon points="26 79.61 22.35 77.58 61.57 11.32 65.22 13.35 26 79.61" style="fill: none; stroke: #c34d4c; stroke-linejoin: round; stroke-width: 1.63px;"/>
            <g>
              <polygon points="29.25 83.48 25.92 87.1 26.57 87.1 29.35 84.14 29.25 83.48" style="fill: #a73e3e;"/>
              <polygon points="19.37 91.8 18.63 91.69 23.04 89.64 22.36 90.33 19.37 91.8" style="fill: #a73e3e;"/>
              <g>
                <path d="M27.74,71.72c-.34,5-5.1,11.45-10.53,14.45-5.3,2.93-9.42,1.56-9.33-3.09.1-4.76,4.56-11.29,10.09-14.57,5.68-3.36,10.1-1.9,9.76,3.21Z" style="fill: #c34d4c;"/>
                <path d="M28.4,72.38c-.34,5-5.1,11.45-10.53,14.45s-9.42,1.56-9.33-3.09c.1-4.76,4.56-11.29,10.09-14.57,5.68-3.36,10.1-1.9,9.76,3.21Z" style="fill: #af4040;"/>
              </g>
              <g>
                <polygon points="8.11 80.14 4.55 82.2 9.84 85.21 13.37 83.17 8.11 80.14" style="fill: #ed8a8a;"/>
                <polygon points="8.11 80.14 8.12 84.23 4.55 82.2 8.11 80.14" style="fill: #8e413d;"/>
                <path d="M4.55,82.2l5.29,3.01,2.73,4.44-5.19-3.08s-.34-.13-1.49-1.44c-1.35-1.53-1.35-2.92-1.35-2.92Z" style="fill: #c34d4c;"/>
                <path d="M13.37,83.17v6.07l-.8.41c-1.49-.86-2.15-2.82-2.73-4.44h0s3.53-2.04,3.53-2.04Z" style="fill: #a73e3e;"/>
              </g>
              <g>
                <path d="M16.88,79.54l-3.64-2.12c-.43-1.13-.55-2.76-.55-4.24s.12-2.79.17-3.31c.01-.11.02-.18.02-.22l3.67,2.12.08,2.57.23,5.2Z" style="fill: #c34d4c;"/>
                <polygon points="12.9 69.65 16.56 71.77 19.37 72.47 15.84 70.73 12.9 69.65" style="fill: #ed8a8a;"/>
                <path d="M16.56,71.77l2.81.7-1.41,6.63-1.05.46h0c-.97-2.58-.35-7.79-.35-7.79Z" style="fill: #a73e3e;"/>
              </g>
              <g>
                <path d="M29.56,66.19v6.07l-5.26,3.03v-1.5c0-.54.05-1.07.16-1.58.34-1.66,1.21-3.18,2.47-4.31.04-.04.08-.08.13-.11.37-.32.77-.61,1.2-.85l1.3-.75Z" style="fill: #a73e3e;"/>
                <path d="M29.56,66.19l-1.3.75c-.43.25-.83.53-1.2.85-.04.04-.08.07-.13.11-1.26,1.13-2.13,2.64-2.47,4.31-.11.51-.16,1.04-.16,1.58v1.5l-2.5-1.54v-1.5c0-2.82,1.51-5.44,3.96-6.86l1.3-.75,2.5,1.54Z" style="fill: #c34d4c;"/>
              </g>
              <g>
                <path d="M32.14,74.9c-.35,5.17-5.27,11.84-10.88,14.94-5.48,3.03-9.74,1.61-9.64-3.2s4.71-11.68,10.44-15.06c5.87-3.47,10.45-1.97,10.09,3.32Z" style="fill: #cd6766;"/>
                <path d="M32.69,75.45c-.35,5.17-5.27,11.84-10.88,14.94-5.48,3.03-9.74,1.61-9.64-3.2s4.71-11.68,10.44-15.06c5.87-3.47,10.45-1.97,10.09,3.32Z" style="fill: #c34d4c;"/>
                <path d="M29.94,77.96c-.25,3.78-3.86,8.66-7.97,10.93-4.01,2.21-7.13,1.18-7.06-2.34.07-3.6,3.45-8.54,7.64-11.02,4.3-2.54,7.64-1.44,7.39,2.43Z" style="fill: #a73e3e;"/>
                <path d="M27.79,74.67c.42.63.64,1.48.56,2.55-.25,3.78-3.86,8.66-7.97,10.93-2.4,1.32-4.47,1.48-5.74.64,1.07,1.59,3.53,1.73,6.49.1,4.11-2.27,7.71-7.15,7.97-10.93.11-1.58-.4-2.69-1.31-3.29Z" style="fill: #8e413d;"/>
              </g>
            </g>
            <line x1="69.71" y1="58.99" x2="48.16" y2="42.17" style="fill: none; stroke: #c34d4c; stroke-miterlimit: 10; stroke-width: .81px;"/>
            <line x1="59.92" y1="53.52" x2="44.46" y2="40.82" style="fill: none; stroke: #c34d4c; stroke-miterlimit: 10; stroke-width: .81px;"/>
          </g>
        </g>
      </g>
    </g>
    <g id="uuid-dafbc14c-331f-4fa5-a3ff-46ecf9cfbd74" data-name="圖層 2">
      <g style="opacity: .2;">
        <g style="clip-path: url(#uuid-e2fcf8c3-b96b-438f-b235-3047e49b468a);">
          <g>
            <g>
              <line x1="-188.89" y1="460.91" x2="34.08" y2="74.71" style="fill: none; stroke: #59bfee; stroke-miterlimit: 10; stroke-width: .25px;"/>
              <line x1="-356.48" y1="-140.68" x2="29.71" y2="82.29" style="fill: none; stroke: #59bfee; stroke-miterlimit: 10; stroke-width: .25px;"/>
              <line x1="-360.86" y1="-133.11" x2="25.34" y2="89.86" style="fill: none; stroke: #59bfee; stroke-miterlimit: 10; stroke-width: .25px;"/>
              <line x1="-365.23" y1="-125.54" x2="20.96" y2="97.43" style="fill: none; stroke: #59bfee; stroke-miterlimit: 10; stroke-width: .25px;"/>
              <line x1="-369.6" y1="-117.96" x2="16.59" y2="105" style="fill: none; stroke: #59bfee; stroke-miterlimit: 10; stroke-width: .25px;"/>
              <line x1="-373.97" y1="-110.39" x2="12.22" y2="112.58" style="fill: none; stroke: #59bfee; stroke-miterlimit: 10; stroke-width: .25px;"/>
              <line x1="-378.34" y1="-102.82" x2="7.85" y2="120.15" style="fill: none; stroke: #59bfee; stroke-miterlimit: 10; stroke-width: .25px;"/>
              <line x1="-382.71" y1="-95.25" x2="3.48" y2="127.72" style="fill: none; stroke: #59bfee; stroke-miterlimit: 10; stroke-width: .25px;"/>
              <line x1="-352.11" y1="-148.25" x2="34.08" y2="74.71" style="fill: none; stroke: #59bfee; stroke-miterlimit: 10; stroke-width: .25px;"/>
            </g>
            <line x1="34.08" y1="237.94" x2="-188.89" y2="-148.25" style="fill: none; stroke: #59bfee; stroke-miterlimit: 10; stroke-width: .25px;"/>
          </g>
        </g>
      </g>
    </g>
  </g>
</svg>