<?xml version="1.0" encoding="UTF-8"?>
<svg id="uuid-982cdfaa-19e1-40e3-a3d6-9b3ae3c708d5" data-name="圖層 1" xmlns="http://www.w3.org/2000/svg" xmlns:xlink="http://www.w3.org/1999/xlink" viewBox="0 0 100 100">
  <defs>
    <linearGradient id="uuid-73e5f72f-fcb7-44fe-9348-fa411db39fa2" data-name="未命名漸層 124" x1="70.71" y1="35.87" x2="76.01" y2="50.38" gradientUnits="userSpaceOnUse">
      <stop offset="0" stop-color="#e9e9ea"/>
      <stop offset="1" stop-color="#b4b3b4"/>
    </linearGradient>
    <linearGradient id="uuid-c97dbe8b-1f4c-4f6e-a41c-f2919ea5eaf7" data-name="未命名漸層 44" x1="39.84" y1="53.31" x2="54.32" y2="64.78" gradientUnits="userSpaceOnUse">
      <stop offset="0" stop-color="#8f2f2a"/>
      <stop offset="1" stop-color="#7c2e2f"/>
    </linearGradient>
    <linearGradient id="uuid-7708e229-0fed-4c31-bc30-56136ba8984d" data-name="未命名漸層 20" x1="35.41" y1="75.25" x2="19.09" y2="56.15" gradientUnits="userSpaceOnUse">
      <stop offset="0" stop-color="#1b1c1b"/>
      <stop offset="1" stop-color="#5d5e5e"/>
    </linearGradient>
  </defs>
  <g>
    <polygon points="87.91 49.6 74.13 41.5 74.13 14.54 78.95 17.32 83.48 20.06 83.58 24.73 87.91 48.11 87.91 49.6" style="fill: #d1d1d1;"/>
    <polygon points="55.57 25.27 74.13 14.59 74.11 41.14 55.57 52.23 55.57 25.27" style="fill: #999;"/>
    <polygon points="69.35 60.33 69.35 58.83 87.91 48.55 87.91 49.61 69.35 60.33" style="fill: #878788;"/>
    <polygon points="55.82 50.96 69.35 58.83 87.91 48.55 74.03 40.45 55.82 50.96" style="fill: #999;"/>
    <polygon points="69.35 60.33 55.57 52.23 55.57 25.27 60.3 28.11 64.91 30.79 65.01 35.46 69.35 58.83 69.35 60.33" style="fill: #d1d1d1;"/>
    <polygon points="66.04 62.07 52.26 53.97 52.26 27.02 57.07 29.8 61.6 32.53 61.7 37.2 66.04 60.58 66.04 62.07" style="fill: #d1d1d1;"/>
    <polygon points="65.04 35.5 64.92 30.74 55.59 25.28 52.36 27.16 55.46 28.96 56.91 29.79 57.09 29.9 61.62 32.63 61.72 37.31 65.26 56.35 65.61 58.27 66.14 60.68 66.14 62.17 69.36 60.3 69.49 58.95 65.04 35.5" style="fill: #999;"/>
    <polygon points="86.81 22.91 86.69 18.16 77.37 12.7 74.13 14.58 77.23 16.37 78.68 17.21 78.86 17.31 83.39 20.05 83.49 24.72 87.03 43.77 87.38 45.68 87.91 48.09 87.91 49.59 91.14 47.71 91.27 46.36 86.81 22.91" style="fill: #999;"/>
    <path d="M81.12,37.16c-1.55-2.02-3.48-4.54-5.73-4.26-.87.11-1.44.59-2.26,1.3-2.71,2.34-1.88,4.19-4.34,6.77-1.21,1.27-2.07,1.51-3.65,3.47-.88,1.1-1.33,1.66-1.3,2.35.06,1.81,2.81,2.15,3.3,4.34.38,1.68-1.01,2.51-.52,3.3.98,1.58,7.3-.41,11.55-2.34,2.71-1.23,4.91-1.41,5.91-3.3.51-.96.52-1.85.52-2.87,0-4.15-2.29-7.22-3.47-8.77Z" style="fill: url(#uuid-73e5f72f-fcb7-44fe-9348-fa411db39fa2);"/>
  </g>
  <g>
    <polygon points="66.16 62.15 52.38 54.06 52.38 27.1 57.19 29.88 61.72 32.61 61.83 37.29 66.16 60.66 66.16 62.15" style="fill: #d1d1d1;"/>
    <polygon points="33.82 37.83 52.38 27.15 52.35 53.7 33.82 64.78 33.82 37.83" style="fill: #999;"/>
    <polygon points="47.59 72.88 47.59 71.39 66.16 61.11 66.16 62.16 47.59 72.88" style="fill: #878788;"/>
    <polygon points="34.07 63.52 47.59 71.39 66.16 61.11 52.28 53 34.07 63.52" style="fill: #999;"/>
    <path d="M37.66,48.64c.41-.22,1.86.2,4.75,1.04,3.57,1.04,4.34,1.43,6.49,1.97,3.29.83,3.03.31,5.67,1.04,2.13.59,6.52,1.8,7.18,4.52.07.3.19.79-.02,1.31-.53,1.33-2.67,1.53-5.42,1.93-3.7.54-5.56.81-6.49,1.16-4.96,1.86-4.97,7.88-7.14,7.91-3.86.06-8.66-18.97-5.02-20.88Z" style="fill: url(#uuid-c97dbe8b-1f4c-4f6e-a41c-f2919ea5eaf7);"/>
    <polygon points="47.59 72.88 33.82 64.78 33.82 37.83 38.55 40.67 43.16 43.34 43.26 48.01 47.59 71.39 47.59 72.88" style="fill: #d1d1d1;"/>
    <polygon points="44.28 74.63 30.51 66.53 30.51 39.57 35.32 42.35 39.85 45.08 39.95 49.76 44.28 73.13 44.28 74.63" style="fill: #d1d1d1;"/>
    <polygon points="43.28 48.06 43.17 43.3 33.84 37.84 30.61 39.72 33.71 41.51 35.16 42.35 35.34 42.45 39.87 45.19 39.97 49.86 43.5 68.91 43.85 70.82 44.38 73.23 44.38 74.73 47.61 72.85 47.74 71.5 43.28 48.06" style="fill: #999;"/>
    <polygon points="65.06 35.47 64.94 30.71 55.61 25.26 52.38 27.14 55.48 28.93 56.93 29.76 57.11 29.87 61.64 32.6 61.74 37.28 65.28 56.32 65.63 58.24 66.16 60.65 66.16 62.14 69.38 60.27 69.51 58.92 65.06 35.47" style="fill: #999;"/>
  </g>
  <g>
    <polygon points="44.38 74.73 30.61 66.63 30.61 39.67 35.42 42.45 39.95 45.19 40.05 49.86 44.38 73.24 44.38 74.73" style="fill: #d1d1d1;"/>
    <polygon points="12.04 50.4 30.61 39.72 30.58 66.27 12.04 77.36 12.04 50.4" style="fill: #999;"/>
    <polygon points="25.82 85.46 25.82 83.96 44.38 73.68 44.38 74.74 25.82 85.46" style="fill: #878788;"/>
    <polygon points="12.3 76.09 25.82 83.96 44.38 73.68 30.5 65.58 12.3 76.09" style="fill: #999;"/>
    <polygon points="12.41 55.02 17.07 57.69 21.67 81.76 12.52 76.47 12.41 55.02" style="fill: #777778;"/>
    <polygon points="25.82 85.46 12.04 77.36 12.04 50.4 16.78 53.24 21.39 55.92 21.49 60.59 25.82 83.96 25.82 85.46" style="fill: #d1d1d1;"/>
    <polygon points="43.28 48.04 43.17 43.29 33.84 37.83 30.61 39.71 33.71 41.5 35.16 42.34 35.34 42.44 39.87 45.18 39.97 49.85 43.5 68.9 43.85 70.81 44.38 73.22 44.38 74.72 47.61 72.84 47.74 71.49 43.28 48.04" style="fill: #999;"/>
    <path d="M25.15,76.92s2.59,1.04,3.19.96c.6-.09,1.76-1.22,2.27-2,.51-.78.15-.73,2.67-.89,2.52-.16,3.53-.56,5.89-1.31,2.36-.76,1.84-1.97,1.84-1.97l-3.12-5.74s-2.27-3.3-2.27-3.91-4.95-5.86-6.69-6.71c-1.74-.85-14.56-3.55-14.56-3.55l2.66,3.55s5.75,16.61,6,17.53,2.1,4.04,2.1,4.04Z" style="fill: url(#uuid-7708e229-0fed-4c31-bc30-56136ba8984d);"/>
    <polygon points="22.51 87.2 8.73 79.1 8.73 52.15 13.55 54.93 18.08 57.66 18.18 62.33 22.51 85.71 22.51 87.2" style="fill: #d1d1d1;"/>
    <polygon points="21.51 60.63 21.39 55.87 12.07 50.41 8.84 52.29 11.93 54.09 13.39 54.92 13.57 55.03 18.1 57.76 18.2 62.44 21.73 81.48 22.08 83.4 22.61 85.81 22.61 87.3 25.84 85.43 25.97 84.08 21.51 60.63" style="fill: #999;"/>
  </g>
</svg>