<?xml version="1.0" encoding="UTF-8"?>
<svg xmlns="http://www.w3.org/2000/svg" xmlns:xlink="http://www.w3.org/1999/xlink" viewBox="0 0 150 100">
  <defs>
    <linearGradient id="uuid-a8c90d88-abdd-4aa1-be52-a5943acdbd22" data-name="未命名漸層 7" x1="99.99" y1="28.8" x2="110.95" y2="38.92" gradientUnits="userSpaceOnUse">
      <stop offset="0" stop-color="#504f4f"/>
      <stop offset="1" stop-color="#39393a"/>
    </linearGradient>
    <linearGradient id="uuid-f832da26-2193-4eda-b160-3aeffe27e299" data-name="未命名漸層 7" x1="84.72" y1="37.73" x2="95.68" y2="47.85" xlink:href="#uuid-a8c90d88-abdd-4aa1-be52-a5943acdbd22"/>
    <linearGradient id="uuid-53044a5e-1e39-42a1-bdab-4a703722b2e0" data-name="未命名漸層 124" x1="74.97" y1="46.75" x2="78.6" y2="56.69" gradientUnits="userSpaceOnUse">
      <stop offset="0" stop-color="#e9e9ea"/>
      <stop offset="1" stop-color="#b4b3b4"/>
    </linearGradient>
    <linearGradient id="uuid-0bb99a30-bc21-4175-9efe-cf796d1dc530" data-name="未命名漸層 44" x1="53.81" y1="58.7" x2="63.74" y2="66.56" gradientUnits="userSpaceOnUse">
      <stop offset="0" stop-color="#8f2f2a"/>
      <stop offset="1" stop-color="#7c2e2f"/>
    </linearGradient>
    <linearGradient id="uuid-8293639f-6180-4743-96d9-f731ad586a1e" data-name="未命名漸層 20" x1="50.78" y1="73.74" x2="39.59" y2="60.64" gradientUnits="userSpaceOnUse">
      <stop offset="0" stop-color="#1b1c1b"/>
      <stop offset="1" stop-color="#5d5e5e"/>
    </linearGradient>
  </defs>
  <g style="isolation: isolate;">
    <g id="uuid-a53492d9-fabb-44b7-9973-58c14ab0583c" data-name="圖層 1">
      <g>
        <path d="M5.27,77.1c2,1.34,35.33,19.67,37.33,21,30.05-18.03,72.44-40.02,102.49-58.04-2.67-1.34-15.36-6.68-18.03-8.01-29.38,18.03-92.41,27.03-121.79,45.05Z" style="fill: #afafaf; mix-blend-mode: multiply; opacity: .5;"/>
        <g>
          <path d="M134,43.28s-37.18-21.42-37.18-21.42c-.07-1.76-.21-4.3.09-5.89h0c0-.08.01-.14.03-.21.84-4.43,2.71-8.13,5.35-10.59.22-.21.44-.4.66-.58.95-.77,2.01-1.41,3.13-1.85.08-.03.17-.07.25-.1.22-.08.44-.15.66-.22.35-.1.68-.19,1.01-.25.03-.01.04-.01.07-.01.83-.17,1.65-.24,2.42-.24,3.22,0,5.92,1.18,6.9,1.59.03.01.07.04.1.06.08.04.18.08.26.12.06.03.11.06.17.08,1.34.62,2.54,1.41,3.68,2.34,11.84,9.78,12.39,37.18,12.39,37.18Z" style="fill: #36698d;"/>
          <polygon points="134 43.28 42.22 96.03 4.96 74.88 96.82 21.85 134 43.28" style="fill: #4587ac;"/>
          <path d="M30.71,59.88l-25.75,15s-.04-.02-.05-.03c-.05-9.03,3.74-16.38,9.66-18.73.3-.12.61-.22.91-.31h0c4.64-1.4,9.08.53,10.39,1.1.04.02.07.03.11.05,1.5.66,3.49,1.9,4.73,2.93Z" style="fill: #36698d;"/>
          <path d="M42.17,96.06c-12.41-7.06-24.81-14.11-37.22-21.18l25.56-15c12.04,9.94,11.67,34.52,11.66,36.18Z" style="fill: #4587ac;"/>
          <polygon points="10.32 71.74 10.32 65.27 96.85 15.69 96.82 21.85 10.32 71.74" style="fill: #36698d;"/>
          <g>
            <polygon points="15.16 80.49 34.27 91.52 125.61 38.93 105.91 27.79 15.16 80.49" style="fill: #bccad2;"/>
            <g>
              <polygon points="117.03 38.6 107.58 33.05 107.58 14.57 110.88 16.48 113.99 18.35 114.06 21.55 117.03 37.58 117.03 38.6" style="fill: #d1d1d1;"/>
              <polygon points="94.86 21.93 107.58 14.6 107.57 32.8 94.86 40.4 94.86 21.93" style="fill: #999;"/>
              <polygon points="104.3 45.95 104.3 44.93 117.03 37.88 117.03 38.61 104.3 45.95" style="fill: #878788;"/>
              <polygon points="95.03 39.53 104.3 44.93 117.03 37.88 107.51 32.33 95.03 39.53" style="fill: #999;"/>
              <polygon points="104.3 45.95 94.86 40.4 94.86 21.93 98.1 23.87 101.26 25.7 101.33 28.91 104.3 44.93 104.3 45.95" style="fill: #d1d1d1;"/>
              <polygon points="102.03 47.15 92.59 41.6 92.59 23.12 95.89 25.02 98.99 26.9 99.06 30.1 102.03 46.13 102.03 47.15" style="fill: #d1d1d1;"/>
              <polygon points="101.35 28.94 101.27 25.67 94.88 21.93 92.66 23.22 94.78 24.45 95.78 25.02 95.9 25.1 99.01 26.97 99.08 30.17 101.5 43.23 101.74 44.54 102.1 46.19 102.1 47.22 104.31 45.93 104.4 45.01 101.35 28.94" style="fill: #999;"/>
              <polygon points="116.27 20.31 116.19 17.05 109.8 13.31 107.58 14.59 109.71 15.82 110.7 16.4 110.83 16.47 113.93 18.34 114 21.55 116.42 34.6 116.66 35.91 117.03 37.57 117.03 38.59 119.24 37.31 119.33 36.38 116.27 20.31" style="fill: #999;"/>
              <path d="M100.65,34.77c1.24,2.65-.24,4.26,1.19,6.07.72.91,1.88,1.49,2.98,1.55,1.26.07,2.15-.57,3.57-1.55,4.7-3.23,5.04-2.87,5.48-3.69.43-.8,1.19-4.31-.71-6.55-1.45-1.71-2.67-.59-7.86-2.74-1.7-.71-2.29-1.12-3.33-.95-1.99.33-3.87,2.52-3.69,4.41.14,1.49,1.43,1.42,2.38,3.45Z" style="fill: url(#uuid-a8c90d88-abdd-4aa1-be52-a5943acdbd22);"/>
            </g>
            <g>
              <polygon points="76.08 28.93 77.83 29.91 77.85 46.33 76.08 45.31 76.08 28.93" style="fill: #d1d1d1;"/>
              <polygon points="20.81 79.39 20.78 62.79 77.83 29.91 77.85 46.33 20.81 79.39" style="fill: #ddd;"/>
              <polygon points="20.78 62.79 116.85 7.51 115.36 6.69 19.04 61.81 20.78 62.79" style="fill: #d1d1d1;"/>
              <polygon points="19.04 61.81 20.78 62.78 20.81 79.39 19.04 78.37 19.04 61.81" style="fill: #afafaf;"/>
            </g>
            <g>
              <polygon points="92.88 20.74 94.63 21.71 94.65 38.14 92.88 37.12 92.88 20.74" style="fill: #d1d1d1;"/>
              <polygon points="22.58 80.41 22.55 63.8 92.77 23.2 92.79 39.62 22.58 80.41" style="fill: #ddd;"/>
              <polygon points="22.55 63.8 118.77 8.3 116.68 7.11 20.81 62.83 22.55 63.8" style="fill: #d1d1d1;"/>
              <polygon points="20.81 62.83 22.55 63.8 22.58 80.41 20.81 79.39 20.81 62.83" style="fill: #afafaf;"/>
            </g>
            <polygon points="21.44 63.18 20.1 62.4 116.18 6.75 117.4 7.45 21.44 63.18" style="fill: #5d5e5e;"/>
            <g>
              <polygon points="101.76 47.53 92.31 41.98 92.31 23.5 95.61 25.4 98.72 27.28 98.79 30.48 101.76 46.5 101.76 47.53" style="fill: #d1d1d1;"/>
              <polygon points="79.59 30.85 92.31 23.53 92.3 41.73 79.59 49.33 79.59 30.85" style="fill: #999;"/>
              <polygon points="89.03 54.88 89.03 53.86 101.76 46.81 101.76 47.53 89.03 54.88" style="fill: #878788;"/>
              <polygon points="79.76 48.46 89.03 53.86 101.76 46.81 92.24 41.26 79.76 48.46" style="fill: #999;"/>
              <polygon points="89.03 54.88 79.59 49.33 79.59 30.85 82.83 32.8 85.99 34.63 86.06 37.84 89.03 53.86 89.03 54.88" style="fill: #d1d1d1;"/>
              <polygon points="86.76 56.08 77.32 50.53 77.32 32.05 80.62 33.95 83.72 35.83 83.79 39.03 86.76 55.05 86.76 56.08" style="fill: #d1d1d1;"/>
              <polygon points="86.08 37.86 86 34.6 79.61 30.86 77.39 32.15 79.51 33.38 80.51 33.95 80.63 34.02 83.74 35.9 83.81 39.1 86.23 52.16 86.47 53.47 86.83 55.12 86.83 56.15 89.04 54.86 89.13 53.94 86.08 37.86" style="fill: #999;"/>
              <polygon points="101 29.24 100.92 25.98 94.53 22.23 92.31 23.52 94.44 24.75 95.43 25.32 95.56 25.4 98.66 27.27 98.73 30.47 101.15 43.53 101.39 44.84 101.76 46.5 101.76 47.52 103.97 46.24 104.06 45.31 101 29.24" style="fill: #999;"/>
              <path d="M85.38,43.7c1.24,2.65-.24,4.26,1.19,6.07.72.91,1.88,1.49,2.98,1.55,1.26.07,2.15-.57,3.57-1.55,4.7-3.23,5.04-2.87,5.48-3.69.43-.8,1.19-4.31-.71-6.55-1.45-1.71-2.67-.59-7.86-2.74-1.7-.71-2.29-1.12-3.33-.95-1.99.33-3.87,2.52-3.69,4.41.14,1.49,1.43,1.42,2.38,3.45Z" style="fill: url(#uuid-f832da26-2193-4eda-b160-3aeffe27e299);"/>
            </g>
            <g>
              <polygon points="26.57 54.14 26.71 57.35 29.45 55.76 26.57 54.14" style="fill: #d1d1d1;"/>
              <polygon points="29.37 52.52 32.22 54.17 29.45 55.76 26.57 54.14 29.37 52.52" style="fill: #999;"/>
            </g>
            <g>
              <polygon points="70.96 28.63 71.1 31.84 73.84 30.25 70.96 28.63" style="fill: #d1d1d1;"/>
              <polygon points="73.76 27.01 76.6 28.65 73.84 30.25 70.96 28.63 73.76 27.01" style="fill: #999;"/>
            </g>
            <g>
              <polygon points="86.76 56.15 77.32 50.6 77.32 32.13 80.62 34.03 83.72 35.9 83.79 39.11 86.76 55.13 86.76 56.15" style="fill: #d1d1d1;"/>
              <polygon points="64.59 39.48 77.32 32.16 77.3 50.36 64.59 57.96 64.59 39.48" style="fill: #999;"/>
              <polygon points="74.04 63.51 74.04 62.49 86.76 55.44 86.76 56.16 74.04 63.51" style="fill: #878788;"/>
              <polygon points="64.77 57.09 74.04 62.49 86.76 55.44 77.25 49.88 64.77 57.09" style="fill: #999;"/>
              <polygon points="74.04 63.51 64.59 57.96 64.59 39.48 67.84 41.43 71 43.26 71.07 46.46 74.04 62.49 74.04 63.51" style="fill: #d1d1d1;"/>
              <polygon points="71.77 64.7 62.33 59.15 62.33 40.67 65.63 42.58 68.73 44.45 68.8 47.66 71.77 63.68 71.77 64.7" style="fill: #d1d1d1;"/>
              <polygon points="71.08 46.49 71 43.23 64.61 39.49 62.4 40.78 64.52 42 65.52 42.58 65.64 42.65 68.74 44.52 68.81 47.73 71.24 60.78 71.47 62.1 71.84 63.75 71.84 64.77 74.05 63.49 74.14 62.56 71.08 46.49" style="fill: #999;"/>
              <polygon points="86.01 37.86 85.93 34.6 79.54 30.86 77.32 32.15 79.44 33.38 80.44 33.95 80.56 34.02 83.67 35.9 83.74 39.1 86.16 52.16 86.4 53.47 86.76 55.12 86.76 56.15 88.98 54.86 89.06 53.94 86.01 37.86" style="fill: #999;"/>
              <path d="M82.11,47.63c-1.06-1.39-2.39-3.11-3.93-2.92-.6.07-.98.41-1.55.89-1.86,1.6-1.29,2.87-2.98,4.64-.83.87-1.42,1.04-2.5,2.38-.61.75-.91,1.14-.89,1.61.04,1.24,1.92,1.48,2.26,2.98.26,1.15-.69,1.72-.36,2.26.67,1.08,5.01-.28,7.92-1.61,1.86-.84,3.37-.97,4.05-2.26.35-.66.36-1.27.36-1.96,0-2.84-1.57-4.95-2.38-6.01Z" style="fill: url(#uuid-53044a5e-1e39-42a1-bdab-4a703722b2e0);"/>
            </g>
            <g>
              <g>
                <polygon points="71.85 64.76 62.41 59.21 62.41 40.73 65.71 42.64 68.81 44.51 68.88 47.71 71.85 63.74 71.85 64.76" style="fill: #d1d1d1;"/>
                <polygon points="49.68 48.09 62.41 40.76 62.39 58.96 49.68 66.56 49.68 48.09" style="fill: #999;"/>
                <polygon points="59.13 72.12 59.13 71.09 71.85 64.05 71.85 64.77 59.13 72.12" style="fill: #878788;"/>
                <polygon points="49.86 65.7 59.13 71.09 71.85 64.05 62.34 58.49 49.86 65.7" style="fill: #999;"/>
                <path d="M52.32,55.5c.28-.15,1.28.14,3.25.71,2.45.72,2.97.98,4.45,1.35,2.25.57,2.07.21,3.89.71,1.46.4,4.47,1.23,4.92,3.1.05.21.13.54-.02.9-.37.91-1.83,1.05-3.72,1.32-2.54.37-3.81.55-4.45.79-3.4,1.28-3.41,5.4-4.89,5.42-2.64.04-5.94-13-3.44-14.31Z" style="fill: url(#uuid-0bb99a30-bc21-4175-9efe-cf796d1dc530);"/>
                <polygon points="59.13 72.12 49.68 66.56 49.68 48.09 52.93 50.03 56.09 51.87 56.16 55.07 59.13 71.09 59.13 72.12" style="fill: #d1d1d1;"/>
                <polygon points="56.86 73.31 47.42 67.76 47.42 49.28 50.71 51.19 53.82 53.06 53.89 56.26 56.86 72.29 56.86 73.31" style="fill: #d1d1d1;"/>
                <polygon points="56.17 55.1 56.09 51.84 49.7 48.09 47.48 49.38 49.61 50.61 50.6 51.18 50.73 51.26 53.83 53.13 53.9 56.33 56.32 69.39 56.56 70.7 56.93 72.36 56.93 73.38 59.14 72.1 59.23 71.17 56.17 55.1" style="fill: #999;"/>
                <polygon points="71.1 46.47 71.02 43.21 64.63 39.47 62.41 40.76 64.53 41.98 65.53 42.56 65.65 42.63 68.76 44.5 68.83 47.71 71.25 60.76 71.49 62.08 71.85 63.73 71.85 64.75 74.06 63.47 74.15 62.54 71.1 46.47" style="fill: #999;"/>
              </g>
              <g>
                <polygon points="56.35 36.96 56.49 40.17 59.23 38.58 56.35 36.96" style="fill: #d1d1d1;"/>
                <polygon points="59.15 35.35 61.99 36.99 59.23 38.58 56.35 36.96 59.15 35.35" style="fill: #999;"/>
                <polygon points="42.3 45.15 42.44 48.36 45.18 46.77 42.3 45.15" style="fill: #d1d1d1;"/>
                <polygon points="45.1 43.53 47.95 45.18 45.18 46.77 42.3 45.15 45.1 43.53" style="fill: #999;"/>
              </g>
            </g>
            <g>
              <polygon points="56.93 73.38 47.48 67.83 47.48 49.35 50.78 51.26 53.89 53.13 53.96 56.33 56.93 72.36 56.93 73.38" style="fill: #d1d1d1;"/>
              <polygon points="34.76 56.71 47.48 49.38 47.47 67.58 34.76 75.18 34.76 56.71" style="fill: #999;"/>
              <polygon points="44.2 80.73 44.2 79.71 56.93 72.66 56.93 73.39 44.2 80.73" style="fill: #878788;"/>
              <polygon points="34.93 74.31 44.2 79.71 56.93 72.66 47.41 67.11 34.93 74.31" style="fill: #999;"/>
              <polygon points="35.01 59.87 38.2 61.7 41.36 78.2 35.09 74.57 35.01 59.87" style="fill: #777778;"/>
              <polygon points="44.2 80.73 34.76 75.18 34.76 56.71 38 58.65 41.16 60.49 41.23 63.69 44.2 79.71 44.2 80.73" style="fill: #d1d1d1;"/>
              <polygon points="56.17 55.09 56.09 51.83 49.7 48.09 47.48 49.38 49.61 50.6 50.6 51.18 50.73 51.25 53.83 53.12 53.9 56.33 56.32 69.38 56.56 70.69 56.93 72.35 56.93 73.37 59.14 72.09 59.23 71.16 56.17 55.09" style="fill: #999;"/>
              <path d="M43.74,74.89s1.78.71,2.19.65,1.21-.83,1.55-1.37.1-.5,1.83-.61c1.73-.11,2.42-.38,4.04-.9s1.26-1.35,1.26-1.35l-2.14-3.94s-1.55-2.26-1.55-2.68-3.39-4.02-4.58-4.6c-1.19-.58-9.98-2.43-9.98-2.43l1.83,2.43s3.94,11.39,4.11,12.01,1.44,2.77,1.44,2.77Z" style="fill: url(#uuid-8293639f-6180-4743-96d9-f731ad586a1e);"/>
              <polygon points="41.93 81.93 32.49 76.38 32.49 57.9 35.79 59.81 38.9 61.68 38.97 64.88 41.93 80.91 41.93 81.93" style="fill: #d1d1d1;"/>
              <polygon points="41.25 63.72 41.17 60.46 34.78 56.71 32.56 58 34.68 59.23 35.68 59.8 35.8 59.88 38.91 61.75 38.98 64.95 41.4 78.01 41.64 79.32 42 80.98 42 82 44.22 80.71 44.3 79.79 41.25 63.72" style="fill: #999;"/>
            </g>
            <g>
              <polygon points="33.9 90.49 123.33 38.63 121.59 37.65 32.16 89.52 33.9 90.49" style="fill: #848485;"/>
              <g>
                <polygon points="42.78 46.47 45.89 48.29 47.11 47.64 43.99 45.85 42.78 46.47" style="fill: #e44d52;"/>
                <polygon points="44.18 49.7 45.81 50.65 47.12 49.88 45.46 49 44.18 49.7" style="fill: #999;"/>
                <polygon points="42.76 48.87 42.78 46.47 45.89 48.29 45.81 50.65 42.76 48.87" style="fill: #b53a39;"/>
                <polygon points="45.81 50.65 47.12 49.88 58.38 71.46 57.03 72.27 45.81 50.65" style="fill: #5e807e;"/>
                <polygon points="45.89 48.29 47.11 47.64 59.07 70.29 57.67 71.1 45.89 48.29" style="fill: #e33b39;"/>
                <polygon points="45.88 48.29 45.81 50.65 57.03 72.27 57.67 71.1 45.88 48.29" style="fill: #b53a39;"/>
                <g>
                  <polygon points="54.62 72.84 56.47 73.89 62.82 70.22 60.97 69.18 54.62 72.84" style="fill: #e33b39;"/>
                  <polygon points="54.61 72.82 54.61 76.49 56.47 77.56 56.47 73.89 54.61 72.82" style="fill: #b53a39;"/>
                  <polygon points="56.47 73.89 56.47 77.56 62.82 73.89 62.83 70.22 56.47 73.89" style="fill: #992725;"/>
                </g>
                <polygon points="42.76 48.87 42.78 50.43 43.15 50.69 43.36 49.22 42.76 48.87" style="fill: #b53a39;"/>
                <polygon points="43.15 50.69 43.67 50.44 43.94 49.55 43.36 49.22 43.15 50.69" style="fill: #8f2727;"/>
              </g>
            </g>
          </g>
          <line x1="72.18" y1="30.28" x2="72.15" y2="30.29" style="fill: none;"/>
          <line x1="25.98" y1="56.95" x2="25.95" y2="56.97" style="fill: none;"/>
          <line x1="88.3" y1="68.69" x2="88.13" y2="68.79" style="fill: none;"/>
          <polyline points="5.15 74.32 30.29 59.69 76.46 32.82" style="fill: none;"/>
          <path d="M97.26,15.75c-.32,1.66-.5,3.42-.51,5.26l-.32.18v-.18c.01-1.77.18-3.46.48-5.05l.35-.21Z" style="fill: none;"/>
          <path d="M118.14,3.85l-19.67,11.61-.5.29-.35.19h0s-24.55,14.22-24.55,14.22l-.19.11s-.06-.03-.08-.04h-.01c-1.31-.57-7.77-1.97-12.42-.56,0,0,44.44-26.45,44.81-26.55.03-.01,1.13-.7,2.85-.98,5.67-1.07,10.11,1.71,10.11,1.71Z" style="fill: #5f97bf;"/>
          <path d="M72.89,30.27l-21.33,11.86-25.58,14.82s-.07-.03-.11-.05c-1.31-.57-5.75-2.5-10.39-1.1,0,0,44.03-25.83,44.97-26.2,4.96-1.97,12.19.5,12.44.66Z" style="fill: #5f97bf;"/>
          <g>
            <path d="M25.98,56.96s-.07-.03-.11-.05c-1.31-.57-5.75-2.5-10.39-1.1" style="fill: none; stroke: #8cb6c8; stroke-linecap: round; stroke-linejoin: round; stroke-width: .62px;"/>
            <path d="M28.17,55.7s-.07-.03-.11-.05c-1.31-.57-5.74-2.51-10.45-1.09" style="fill: none; stroke: #8cb6c8; stroke-linecap: round; stroke-linejoin: round; stroke-width: .62px;"/>
            <path d="M30.36,54.45s-.07-.03-.11-.05c-1.31-.57-5.73-2.51-10.5-1.09" style="fill: none; stroke: #8cb6c8; stroke-linecap: round; stroke-linejoin: round; stroke-width: .62px;"/>
            <path d="M32.55,53.19s-.07-.03-.11-.05c-1.31-.57-5.72-2.52-10.56-1.08" style="fill: none; stroke: #8cb6c8; stroke-linecap: round; stroke-linejoin: round; stroke-width: .62px;"/>
            <path d="M34.74,51.93s-.07-.03-.11-.05c-1.31-.57-5.71-2.53-10.61-1.08" style="fill: none; stroke: #8cb6c8; stroke-linecap: round; stroke-linejoin: round; stroke-width: .62px;"/>
            <path d="M36.93,50.67s-.07-.03-.11-.05c-1.31-.57-5.7-2.53-10.67-1.08" style="fill: none; stroke: #8cb6c8; stroke-linecap: round; stroke-linejoin: round; stroke-width: .62px;"/>
            <path d="M39.12,49.41s-.07-.03-.11-.05c-1.31-.57-5.69-2.54-10.72-1.07" style="fill: none; stroke: #8cb6c8; stroke-linecap: round; stroke-linejoin: round; stroke-width: .62px;"/>
            <path d="M41.31,48.15s-.07-.03-.11-.05c-1.31-.57-5.68-2.55-10.77-1.07" style="fill: none; stroke: #8cb6c8; stroke-linecap: round; stroke-linejoin: round; stroke-width: .62px;"/>
            <path d="M43.5,46.89s-.07-.03-.11-.05c-1.31-.57-5.67-2.55-10.83-1.06" style="fill: none; stroke: #8cb6c8; stroke-linecap: round; stroke-linejoin: round; stroke-width: .62px;"/>
            <path d="M45.7,45.64s-.07-.03-.11-.05c-1.31-.57-5.66-2.56-10.88-1.06" style="fill: none; stroke: #8cb6c8; stroke-linecap: round; stroke-linejoin: round; stroke-width: .62px;"/>
            <path d="M47.89,44.38s-.07-.03-.11-.05c-1.31-.57-5.65-2.57-10.94-1.06" style="fill: none; stroke: #8cb6c8; stroke-linecap: round; stroke-linejoin: round; stroke-width: .62px;"/>
            <path d="M50.08,43.12s-.07-.03-.11-.05c-1.31-.57-5.64-2.57-10.99-1.05" style="fill: none; stroke: #8cb6c8; stroke-linecap: round; stroke-linejoin: round; stroke-width: .62px;"/>
            <path d="M52.27,41.86s-.07-.03-.11-.05c-1.31-.57-5.63-2.58-11.05-1.05" style="fill: none; stroke: #8cb6c8; stroke-linecap: round; stroke-linejoin: round; stroke-width: .62px;"/>
            <path d="M54.46,40.6s-.07-.03-.11-.05c-1.31-.57-5.62-2.59-11.1-1.05" style="fill: none; stroke: #8cb6c8; stroke-linecap: round; stroke-linejoin: round; stroke-width: .62px;"/>
            <path d="M56.65,39.34s-.07-.03-.11-.05c-1.31-.57-5.61-2.59-11.16-1.04" style="fill: none; stroke: #8cb6c8; stroke-linecap: round; stroke-linejoin: round; stroke-width: .62px;"/>
            <path d="M58.84,38.09s-.07-.03-.11-.05c-1.31-.57-5.6-2.6-11.21-1.04" style="fill: none; stroke: #8cb6c8; stroke-linecap: round; stroke-linejoin: round; stroke-width: .62px;"/>
            <path d="M61.03,36.83s-.07-.03-.11-.05c-1.31-.57-5.59-2.61-11.27-1.03" style="fill: none; stroke: #8cb6c8; stroke-linecap: round; stroke-linejoin: round; stroke-width: .62px;"/>
            <path d="M63.22,35.57s-.07-.03-.11-.05c-1.31-.57-5.58-2.61-11.32-1.03" style="fill: none; stroke: #8cb6c8; stroke-linecap: round; stroke-linejoin: round; stroke-width: .62px;"/>
            <path d="M65.41,34.31s-.07-.03-.11-.05c-1.31-.57-5.57-2.62-11.38-1.03" style="fill: none; stroke: #8cb6c8; stroke-linecap: round; stroke-linejoin: round; stroke-width: .62px;"/>
            <path d="M67.6,33.05s-.07-.03-.11-.05c-1.31-.57-5.56-2.63-11.43-1.02" style="fill: none; stroke: #8cb6c8; stroke-linecap: round; stroke-linejoin: round; stroke-width: .62px;"/>
            <path d="M69.79,31.79s-.07-.03-.11-.05c-1.31-.57-5.55-2.63-11.49-1.02" style="fill: none; stroke: #8cb6c8; stroke-linecap: round; stroke-linejoin: round; stroke-width: .62px;"/>
            <path d="M71.98,30.54s-.07-.03-.11-.05c-1.31-.57-5.54-2.64-11.54-1.02" style="fill: none; stroke: #8cb6c8; stroke-linecap: round; stroke-linejoin: round; stroke-width: .62px;"/>
            <path d="M74.17,29.28s-.07-.03-.11-.05c-1.31-.57-5.53-2.64-11.59-1.01" style="fill: none; stroke: #8cb6c8; stroke-linecap: round; stroke-linejoin: round; stroke-width: .62px;"/>
            <path d="M76.36,28.02s-.07-.03-.11-.05c-1.31-.57-5.52-2.65-11.65-1.01" style="fill: none; stroke: #8cb6c8; stroke-linecap: round; stroke-linejoin: round; stroke-width: .62px;"/>
            <path d="M78.55,26.76s-.07-.03-.11-.05c-1.31-.57-5.51-2.66-11.7-1" style="fill: none; stroke: #8cb6c8; stroke-linecap: round; stroke-linejoin: round; stroke-width: .62px;"/>
            <path d="M80.74,25.5s-.07-.03-.11-.05c-1.31-.57-5.5-2.66-11.76-1" style="fill: none; stroke: #8cb6c8; stroke-linecap: round; stroke-linejoin: round; stroke-width: .62px;"/>
            <path d="M82.93,24.24s-.07-.03-.11-.05c-1.31-.57-5.49-2.67-11.81-1" style="fill: none; stroke: #8cb6c8; stroke-linecap: round; stroke-linejoin: round; stroke-width: .62px;"/>
            <path d="M85.12,22.98s-.07-.03-.11-.05c-1.31-.57-5.48-2.68-11.87-.99" style="fill: none; stroke: #8cb6c8; stroke-linecap: round; stroke-linejoin: round; stroke-width: .62px;"/>
            <path d="M87.31,21.73s-.07-.03-.11-.05c-1.31-.57-5.47-2.68-11.92-.99" style="fill: none; stroke: #8cb6c8; stroke-linecap: round; stroke-linejoin: round; stroke-width: .62px;"/>
            <path d="M89.5,20.47s-.07-.03-.11-.05c-1.31-.57-5.46-2.69-11.98-.98" style="fill: none; stroke: #8cb6c8; stroke-linecap: round; stroke-linejoin: round; stroke-width: .62px;"/>
            <path d="M91.7,19.21s-.07-.03-.11-.05c-1.31-.57-5.45-2.7-12.03-.98" style="fill: none; stroke: #8cb6c8; stroke-linecap: round; stroke-linejoin: round; stroke-width: .62px;"/>
            <path d="M93.89,17.95s-.07-.03-.11-.05c-1.31-.57-5.44-2.7-12.09-.98" style="fill: none; stroke: #8cb6c8; stroke-linecap: round; stroke-linejoin: round; stroke-width: .62px;"/>
            <path d="M96.08,16.69s-.07-.03-.11-.05c-1.31-.57-5.43-2.71-12.14-.97" style="fill: none; stroke: #8cb6c8; stroke-linecap: round; stroke-linejoin: round; stroke-width: .62px;"/>
            <path d="M98.27,15.43s-.07-.03-.11-.05c-1.31-.57-5.42-2.72-12.2-.97" style="fill: none; stroke: #8cb6c8; stroke-linecap: round; stroke-linejoin: round; stroke-width: .62px;"/>
            <path d="M100.46,14.18s-.07-.03-.11-.05c-1.31-.57-5.41-2.72-12.25-.97" style="fill: none; stroke: #8cb6c8; stroke-linecap: round; stroke-linejoin: round; stroke-width: .62px;"/>
            <path d="M102.65,12.92s-.07-.03-.11-.05c-1.31-.57-5.4-2.73-12.31-.96" style="fill: none; stroke: #8cb6c8; stroke-linecap: round; stroke-linejoin: round; stroke-width: .62px;"/>
            <path d="M104.84,11.66s-.07-.03-.11-.05c-1.31-.57-5.39-2.74-12.36-.96" style="fill: none; stroke: #8cb6c8; stroke-linecap: round; stroke-linejoin: round; stroke-width: .62px;"/>
            <path d="M107.03,10.4s-.07-.03-.11-.05c-1.31-.57-5.38-2.74-12.41-.95" style="fill: none; stroke: #8cb6c8; stroke-linecap: round; stroke-linejoin: round; stroke-width: .62px;"/>
            <path d="M109.22,9.14s-.07-.03-.11-.05c-1.31-.57-5.37-2.75-12.47-.95" style="fill: none; stroke: #8cb6c8; stroke-linecap: round; stroke-linejoin: round; stroke-width: .62px;"/>
            <path d="M111.41,7.88s-.07-.03-.11-.05c-1.31-.57-5.36-2.76-12.52-.95" style="fill: none; stroke: #8cb6c8; stroke-linecap: round; stroke-linejoin: round; stroke-width: .62px;"/>
            <path d="M113.6,6.62s-.07-.03-.11-.05c-1.31-.57-5.35-2.76-12.58-.94" style="fill: none; stroke: #8cb6c8; stroke-linecap: round; stroke-linejoin: round; stroke-width: .62px;"/>
            <path d="M115.79,5.37s-.07-.03-.11-.05c-1.31-.57-5.34-2.77-12.63-.94" style="fill: none; stroke: #8cb6c8; stroke-linecap: round; stroke-linejoin: round; stroke-width: .62px;"/>
            <path d="M117.98,4.11s-.07-.03-.11-.05c-1.31-.57-5.33-2.78-12.69-.93" style="fill: none; stroke: #8cb6c8; stroke-linecap: round; stroke-linejoin: round; stroke-width: .62px;"/>
          </g>
          <g style="opacity: .3;">
            <path d="M134.26,43.15l-46.58,26.75c0-.29,0-6.31-.24-9.13-.1-1.18-.22-2.38-.36-3.72-.05-.44-.15-.9-.22-1.34-.09-.54-.19-1.07-.3-1.6,0-.03-.01-.05-.01-.08-.1-.47-.18-.93-.29-1.4-.04-.23-.1-.47-.15-.7-.15-.62-.3-1.23-.47-1.85,0-.04-.01-.08-.03-.11-.05-.25-.12-.48-.19-.71-.12-.48-.28-.93-.41-1.42-.08-.29-.18-.59-.27-.88-.01-.01-.01-.03-.01-.03,0-.03-.01-.04-.01-.05-.05-.18-.12-.34-.18-.51h0v-.04c-.18-.51-.37-1.03-.56-1.52h0c-.05-.18-.12-.33-.18-.48-.1-.23-.18-.47-.27-.68-.1-.23-.19-.47-.29-.68-.23-.53-.47-1.05-.71-1.56-.19-.37-.37-.74-.57-1.11-.26-.51-.55-1-.83-1.49-.25-.41-.51-.82-.78-1.22-.22-.33-.45-.64-.68-.97-.29-.38-.57-.75-.89-1.11-.15-.18-.3-.37-.45-.53-.04-.04-.07-.08-.1-.11h-.01s-.03-.04-.04-.05c-.03-.03-.03-.04-.04-.05-.26-.29-.52-.55-.78-.81-.18-.16-.34-.33-.52-.48-.16-.16-.34-.31-.52-.47-.07-.07-.15-.14-.22-.19-1.22-1-2.9-1.75-4.39-2.4l25.65-14.79,20.9-11.63s2.53,1.37,3.75,2.42c.73.6,2.02,2.02,2.57,2.81,2.21,3.16,3.68,6.14,5.11,9.79.83,2.12,2.53,7.51,3.03,10.38,1.03,5.96,1.56,13.78,1.56,13.78Z" style="fill: #467dab;"/>
            <g>
              <path d="M89.78,68.69c0-.3-.02-3.17-.18-6.54-.21-4.28-.9-7.9-.94-8.22-.12-1.22-2.6-9.84-5.84-16.18-1.8-2.82-6.23-7.8-9.03-8.44" style="fill: none; stroke: #8cb6c8; stroke-miterlimit: 10; stroke-width: .62px;"/>
              <path d="M91.98,67.43c0-.23-.03-2.07-.1-4.28-.01-.3-.02-.65-.04-.99,0-.21-.02-.42-.03-.63-.01-.24-.02-.49-.04-.75-.05-1.01-.13-2-.23-2.92-.04-.36-.08-.72-.12-1.06-.05-.45-.11-.88-.16-1.28,0-.03,0-.07-.01-.1-.05-.38-.1-.73-.15-1.06-.03-.19-.06-.38-.08-.54-.12-.75-.21-1.25-.23-1.38,0-.03,0-.06-.01-.1-.03-.19-.09-.48-.18-.86-.12-.48-.28-1.08-.48-1.78-.1-.34-.21-.71-.33-1.1,0-.01,0-.02,0-.03,0-.02-.01-.04-.02-.06-.06-.21-.13-.42-.2-.63,0,0,0,0,0-.01,0,0,0-.02,0-.03-.19-.61-.41-1.26-.64-1.93,0,0,0-.01,0-.02-.06-.18-.13-.37-.19-.56-.1-.28-.2-.56-.3-.84-.1-.29-.21-.57-.32-.87-.25-.67-.51-1.35-.79-2.04-.2-.5-.41-1-.62-1.49-.29-.68-.59-1.35-.9-2.01-.26-.56-.53-1.1-.8-1.63-.21-.33-.45-.68-.72-1.06-.29-.39-.6-.81-.94-1.23-.16-.19-.32-.39-.48-.58-.04-.04-.07-.09-.11-.13,0,0,0,0-.01-.01-.02-.02-.04-.04-.05-.06-.02-.02-.04-.04-.05-.06-.29-.33-.58-.67-.89-1-.63-.67-1.35-1.39-2.01-1.98-1.26-1.12-2.61-2.03-3.71-2.3" style="fill: none; stroke: #8cb6c8; stroke-miterlimit: 10; stroke-width: .62px;"/>
              <path d="M94.18,66.17c0-.23-.04-2.2-.12-4.34-.01-.29-.03-.66-.04-1,0-.21-.02-.42-.03-.64-.01-.25-.02-.5-.04-.75-.06-1.02-.14-2.02-.24-2.96-.04-.37-.08-.73-.12-1.08-.05-.46-.11-.89-.17-1.3,0-.03,0-.07-.01-.1-.05-.38-.11-.74-.16-1.07-.03-.2-.06-.38-.09-.55-.12-.75-.21-1.24-.24-1.4,0-.03,0-.06-.01-.1-.03-.19-.09-.48-.18-.85-.12-.48-.28-1.07-.48-1.76-.1-.34-.21-.7-.32-1.09,0-.01,0-.02,0-.03,0-.02-.01-.04-.02-.06-.06-.2-.13-.41-.2-.62,0,0,0,0,0-.01,0,0,0-.02,0-.03-.19-.6-.4-1.24-.63-1.91,0,0,0-.01,0-.02-.06-.18-.13-.37-.19-.55-.1-.28-.2-.55-.3-.83-.1-.28-.21-.57-.31-.86-.25-.66-.51-1.34-.78-2.01-.2-.49-.4-.98-.62-1.47-.29-.67-.59-1.33-.9-1.98-.26-.55-.53-1.09-.8-1.61-.21-.33-.45-.68-.72-1.05-.29-.39-.6-.8-.94-1.22-.16-.19-.32-.39-.48-.58-.04-.04-.07-.09-.11-.13,0,0,0,0-.01-.01-.02-.02-.03-.04-.05-.06-.02-.02-.04-.04-.05-.06-.28-.33-.58-.67-.88-.99-.6-.65-1.36-1.41-2-1.97-1.2-1.07-2.57-2-3.69-2.29" style="fill: none; stroke: #8cb6c8; stroke-miterlimit: 10; stroke-width: .62px;"/>
              <path d="M96.38,64.91c0-.23-.06-2.34-.13-4.4-.01-.27-.03-.67-.05-1.02,0-.21-.02-.43-.03-.65-.01-.25-.03-.5-.04-.76-.06-1.03-.15-2.04-.25-3-.04-.37-.08-.74-.13-1.09-.06-.46-.11-.9-.17-1.31,0-.03,0-.07-.01-.1-.06-.39-.11-.75-.17-1.09-.03-.2-.06-.38-.09-.56-.12-.74-.22-1.24-.25-1.43,0-.03,0-.06-.01-.1-.03-.2-.09-.48-.18-.85-.12-.48-.28-1.07-.47-1.74-.1-.34-.21-.7-.32-1.07,0-.01,0-.02-.01-.03,0-.02-.01-.04-.02-.06-.06-.2-.13-.41-.19-.62,0,0,0-.01,0-.01,0-.01,0-.02,0-.03-.19-.6-.4-1.23-.63-1.88,0,0,0-.01,0-.02-.06-.18-.13-.36-.19-.55-.1-.27-.19-.55-.3-.83-.1-.28-.21-.56-.31-.85-.25-.66-.51-1.32-.78-1.99-.2-.48-.4-.97-.61-1.45-.29-.66-.58-1.31-.89-1.96-.26-.54-.53-1.07-.8-1.59-.21-.33-.45-.68-.72-1.05-.29-.39-.6-.8-.93-1.21-.16-.19-.31-.39-.48-.58-.04-.04-.07-.09-.11-.13,0,0,0,0-.01-.01-.02-.02-.03-.04-.05-.06-.02-.02-.04-.04-.05-.06-.28-.33-.57-.67-.87-.99-.58-.62-1.38-1.42-1.99-1.96-1.15-1.02-2.54-1.97-3.67-2.28" style="fill: none; stroke: #8cb6c8; stroke-miterlimit: 10; stroke-width: .62px;"/>
              <path d="M98.58,63.64c0-.24-.08-2.47-.15-4.47-.01-.26-.03-.69-.05-1.04,0-.22-.02-.43-.03-.66-.01-.25-.03-.51-.04-.77-.06-1.04-.16-2.06-.26-3.04-.04-.38-.08-.75-.13-1.1-.06-.46-.12-.91-.18-1.33,0-.03-.01-.07-.01-.1-.06-.39-.11-.76-.17-1.11-.03-.2-.06-.39-.09-.57-.13-.73-.22-1.24-.26-1.45,0-.03,0-.06-.01-.1-.03-.2-.1-.48-.18-.84-.12-.48-.27-1.06-.47-1.72-.1-.33-.2-.69-.32-1.06,0-.01,0-.02-.01-.03,0-.02-.01-.04-.02-.06-.06-.2-.13-.4-.19-.61,0,0,0-.01,0-.01,0-.01,0-.02,0-.03-.19-.59-.4-1.22-.62-1.86,0,0,0-.01,0-.01-.06-.18-.13-.36-.19-.54-.1-.27-.19-.54-.29-.82-.1-.28-.2-.56-.31-.84-.25-.65-.5-1.31-.77-1.96-.2-.48-.4-.95-.61-1.43-.29-.65-.58-1.3-.88-1.93-.26-.53-.52-1.06-.8-1.57-.21-.33-.45-.68-.71-1.04-.28-.39-.59-.8-.93-1.21-.15-.19-.31-.39-.47-.58-.04-.04-.07-.09-.11-.13,0,0,0,0-.01-.01-.02-.02-.03-.04-.05-.06-.02-.02-.03-.04-.05-.06-.28-.32-.57-.67-.87-.99-.55-.59-1.39-1.43-1.98-1.95-1.09-.97-2.5-1.95-3.65-2.27" style="fill: none; stroke: #8cb6c8; stroke-miterlimit: 10; stroke-width: .62px;"/>
              <path d="M100.79,62.38c0-.24-.09-2.61-.16-4.53-.01-.25-.03-.7-.05-1.05,0-.22-.02-.44-.04-.67-.01-.25-.03-.51-.05-.78-.07-1.05-.16-2.08-.28-3.08-.04-.38-.09-.75-.14-1.12-.06-.47-.12-.92-.19-1.34,0-.03-.01-.07-.01-.1-.06-.4-.12-.77-.18-1.13-.03-.2-.07-.39-.1-.58-.13-.72-.23-1.24-.28-1.47,0-.03,0-.07-.02-.1-.03-.2-.1-.48-.18-.83-.12-.48-.27-1.05-.47-1.71-.1-.33-.2-.68-.31-1.05,0-.01,0-.02-.01-.03,0-.02-.01-.04-.02-.06-.06-.2-.13-.4-.19-.6,0,0,0-.01,0-.01,0-.01,0-.02,0-.03-.19-.59-.4-1.21-.62-1.84,0,0,0-.01,0-.01-.06-.18-.13-.36-.19-.54-.1-.27-.19-.54-.29-.81s-.2-.55-.31-.83c-.24-.64-.5-1.29-.77-1.93-.2-.47-.4-.94-.6-1.41-.28-.64-.58-1.28-.88-1.9-.26-.53-.52-1.04-.79-1.54-.21-.33-.45-.67-.71-1.04-.28-.39-.59-.79-.92-1.2-.15-.19-.31-.38-.47-.57-.04-.04-.07-.09-.11-.13,0,0,0,0-.01,0-.02-.02-.03-.04-.05-.06-.02-.02-.03-.04-.05-.06-.28-.32-.57-.67-.86-.98-.53-.57-1.41-1.45-1.97-1.94-1.03-.91-2.46-1.92-3.63-2.26" style="fill: none; stroke: #8cb6c8; stroke-miterlimit: 10; stroke-width: .62px;"/>
              <path d="M102.99,61.12c0-.24-.11-2.75-.18-4.59-.01-.23-.04-.71-.06-1.07,0-.22-.02-.45-.04-.68-.02-.26-.03-.52-.05-.79-.07-1.05-.17-2.11-.29-3.13-.04-.38-.09-.76-.14-1.13-.06-.47-.13-.93-.19-1.36,0-.03-.01-.06-.01-.1-.06-.4-.12-.78-.18-1.14-.03-.2-.07-.4-.1-.58-.13-.71-.23-1.24-.29-1.5,0-.03,0-.07-.02-.1-.04-.21-.1-.48-.18-.82-.12-.48-.27-1.04-.46-1.69-.1-.33-.2-.68-.31-1.04,0-.01,0-.02-.01-.03,0-.02-.01-.04-.02-.06-.06-.2-.13-.39-.19-.6,0,0,0-.01,0-.01,0-.01,0-.02,0-.03-.19-.58-.39-1.19-.61-1.82,0,0,0-.01,0-.01-.06-.18-.13-.35-.19-.53-.1-.27-.19-.53-.29-.8s-.2-.54-.31-.82c-.24-.63-.49-1.27-.76-1.91-.19-.46-.39-.93-.6-1.39-.28-.63-.57-1.26-.87-1.87-.26-.52-.52-1.03-.79-1.52-.21-.33-.45-.67-.71-1.03-.28-.39-.59-.79-.92-1.19-.15-.19-.31-.38-.47-.57-.04-.04-.07-.09-.11-.13,0,0,0,0-.01,0-.02-.02-.03-.04-.05-.06-.02-.02-.03-.04-.05-.06-.28-.32-.56-.67-.85-.98-.51-.54-1.42-1.46-1.95-1.93-.97-.86-2.43-1.89-3.61-2.26" style="fill: none; stroke: #8cb6c8; stroke-miterlimit: 10; stroke-width: .61px;"/>
              <path d="M105.19,59.85c0-.25-.12-2.88-.19-4.66-.01-.22-.04-.72-.06-1.09,0-.23-.02-.45-.04-.69-.02-.26-.03-.52-.05-.79-.07-1.06-.18-2.13-.3-3.17-.05-.39-.09-.77-.15-1.15-.06-.48-.13-.94-.2-1.38,0-.03-.01-.06-.01-.1-.06-.41-.12-.79-.19-1.16-.03-.21-.07-.4-.1-.59-.13-.71-.23-1.24-.3-1.52,0-.03,0-.07-.02-.1-.04-.21-.1-.48-.18-.81-.12-.48-.27-1.04-.46-1.67-.1-.33-.2-.67-.31-1.03,0-.01,0-.02-.01-.03,0-.02-.01-.04-.02-.06-.06-.2-.13-.39-.19-.59,0,0,0-.01,0-.01,0-.01,0-.02,0-.03-.19-.58-.39-1.18-.61-1.79,0,0,0-.01,0-.01-.06-.18-.12-.35-.19-.53-.1-.26-.19-.53-.29-.79s-.2-.54-.3-.81c-.24-.63-.49-1.26-.75-1.88-.19-.46-.39-.91-.6-1.37-.28-.62-.57-1.24-.87-1.84-.25-.51-.52-1.01-.79-1.5-.21-.33-.45-.67-.7-1.03-.28-.39-.59-.79-.91-1.19-.15-.19-.31-.38-.47-.57-.04-.04-.07-.09-.11-.12,0,0,0,0-.01,0-.02-.02-.03-.04-.05-.06-.02-.02-.03-.04-.05-.06-.27-.32-.56-.67-.85-.98-.48-.51-1.44-1.47-1.94-1.92-.91-.81-2.39-1.86-3.6-2.25" style="fill: none; stroke: #8cb6c8; stroke-miterlimit: 10; stroke-width: .61px;"/>
              <path d="M107.39,58.59c0-.25-.14-3.02-.2-4.72-.01-.2-.04-.74-.06-1.1,0-.23-.03-.46-.04-.7-.02-.26-.03-.53-.06-.8-.08-1.07-.19-2.15-.32-3.21-.05-.39-.1-.78-.15-1.16-.07-.48-.14-.95-.21-1.39,0-.03-.01-.06-.01-.09-.07-.41-.13-.8-.2-1.18-.03-.21-.07-.41-.11-.6-.13-.7-.24-1.24-.31-1.55,0-.03,0-.07-.02-.1-.04-.21-.1-.48-.18-.8-.12-.47-.27-1.03-.45-1.65-.1-.32-.2-.66-.3-1.01,0-.01,0-.02-.01-.03,0-.02-.01-.04-.02-.06-.06-.19-.13-.39-.19-.58,0,0,0-.01,0-.01,0-.01,0-.02,0-.03-.19-.57-.39-1.17-.6-1.77,0,0,0-.01,0-.01-.06-.18-.12-.35-.18-.52-.1-.26-.19-.52-.29-.78s-.2-.53-.3-.8c-.24-.62-.49-1.24-.75-1.86-.19-.45-.39-.9-.59-1.35-.28-.61-.57-1.22-.86-1.82-.25-.5-.51-1-.78-1.48-.21-.33-.44-.67-.7-1.02-.28-.39-.59-.78-.91-1.18-.15-.19-.31-.38-.46-.56-.04-.04-.07-.09-.1-.12,0,0,0,0-.01,0-.02-.02-.03-.04-.05-.06-.02-.02-.03-.04-.05-.06-.27-.31-.56-.67-.84-.97-.46-.49-1.45-1.49-1.93-1.91-.86-.76-2.35-1.83-3.58-2.24" style="fill: none; stroke: #8cb6c8; stroke-miterlimit: 10; stroke-width: .61px;"/>
              <path d="M109.59,57.33c0-.25-.15-3.15-.22-4.78-.01-.19-.04-.75-.07-1.12-.01-.23-.03-.46-.04-.71-.02-.26-.04-.53-.06-.81-.08-1.08-.19-2.17-.33-3.25-.05-.39-.1-.79-.16-1.17-.07-.48-.14-.95-.21-1.41,0-.03-.01-.06-.01-.09-.07-.41-.13-.81-.2-1.19-.03-.21-.07-.41-.11-.61-.13-.69-.24-1.23-.32-1.57,0-.03,0-.07-.02-.1-.04-.21-.1-.48-.18-.8-.12-.47-.26-1.02-.45-1.63-.1-.32-.19-.66-.3-1,0-.01,0-.02-.01-.03,0-.02-.01-.04-.02-.06-.06-.19-.12-.38-.19-.58,0,0,0-.01,0-.01,0-.01,0-.02,0-.03-.18-.56-.39-1.16-.6-1.75,0,0,0-.01,0-.01-.06-.18-.12-.35-.18-.52-.1-.26-.19-.52-.28-.77s-.2-.53-.3-.79c-.24-.61-.48-1.22-.74-1.83-.19-.44-.39-.88-.59-1.33-.28-.6-.56-1.2-.86-1.79-.25-.49-.51-.98-.78-1.45-.21-.33-.44-.67-.7-1.02-.28-.39-.58-.78-.91-1.17-.15-.19-.31-.38-.46-.56-.04-.04-.07-.09-.1-.12,0,0-.01,0-.01,0-.02-.02-.03-.04-.05-.06-.02-.02-.03-.04-.05-.06-.27-.31-.55-.67-.83-.97-.43-.46-1.47-1.5-1.92-1.9-.8-.71-2.32-1.81-3.56-2.23" style="fill: none; stroke: #8cb6c8; stroke-miterlimit: 10; stroke-width: .61px;"/>
              <path d="M111.79,56.07c0-.25-.17-3.29-.23-4.84-.01-.18-.04-.76-.07-1.14-.01-.24-.03-.47-.05-.72-.02-.26-.04-.54-.06-.82-.08-1.09-.2-2.19-.34-3.29-.05-.4-.1-.8-.16-1.19-.07-.49-.14-.96-.22-1.43,0-.03-.01-.06-.01-.09-.07-.42-.14-.82-.21-1.21-.03-.21-.07-.42-.11-.61-.13-.68-.25-1.23-.33-1.59,0-.03,0-.07-.02-.1-.04-.22-.11-.48-.18-.79-.12-.47-.26-1.01-.44-1.61-.1-.32-.19-.65-.3-.99,0-.01,0-.02-.01-.03,0-.02-.01-.04-.02-.06-.06-.19-.12-.38-.18-.57,0,0,0-.01,0-.01,0-.01,0-.02,0-.03-.18-.56-.38-1.14-.59-1.73,0,0,0-.01,0-.01-.06-.17-.12-.34-.18-.51-.09-.26-.19-.51-.28-.76s-.2-.52-.3-.78c-.24-.6-.48-1.21-.74-1.8-.19-.44-.39-.87-.59-1.31-.28-.59-.56-1.18-.85-1.76-.25-.49-.51-.97-.78-1.43-.21-.33-.44-.66-.69-1.01-.28-.39-.58-.78-.9-1.17-.15-.18-.3-.38-.46-.56-.04-.04-.07-.08-.1-.12,0,0-.01,0-.01,0-.02-.02-.03-.04-.05-.06-.02-.02-.03-.04-.05-.06-.27-.31-.55-.67-.83-.97-.41-.43-1.48-1.51-1.91-1.89-.74-.66-2.28-1.78-3.54-2.23" style="fill: none; stroke: #8cb6c8; stroke-miterlimit: 10; stroke-width: .61px;"/>
              <path d="M113.99,54.8c0-.26-.18-3.43-.25-4.91-.01-.16-.05-.77-.07-1.15-.01-.24-.03-.48-.05-.73-.02-.27-.04-.54-.07-.82-.09-1.09-.21-2.22-.36-3.34-.05-.4-.1-.8-.17-1.2-.07-.49-.15-.97-.23-1.44,0-.03-.01-.06-.01-.09-.07-.42-.14-.83-.22-1.23-.03-.21-.08-.42-.12-.62-.13-.68-.25-1.23-.34-1.62,0-.04-.01-.07-.02-.1-.04-.22-.11-.48-.18-.78-.12-.47-.26-1-.44-1.59-.09-.31-.19-.64-.29-.98,0-.01-.01-.02-.01-.03,0-.02-.01-.04-.01-.06-.06-.19-.12-.37-.18-.56,0,0,0-.01,0-.01,0-.01,0-.02,0-.03-.18-.55-.38-1.13-.59-1.71,0,0,0-.01,0-.01-.06-.17-.12-.34-.18-.51-.09-.25-.18-.51-.28-.76s-.2-.51-.3-.77c-.24-.6-.47-1.19-.73-1.78-.19-.43-.38-.86-.58-1.28-.27-.58-.56-1.16-.85-1.73-.25-.48-.51-.95-.78-1.41-.21-.33-.44-.66-.69-1.01-.28-.39-.58-.77-.9-1.16-.15-.18-.3-.38-.46-.56-.04-.04-.07-.08-.1-.12,0,0-.01,0-.01,0-.02-.02-.03-.04-.05-.06-.02-.02-.03-.04-.05-.06-.27-.31-.54-.67-.82-.96-.39-.4-1.49-1.53-1.9-1.88-.68-.61-2.24-1.75-3.52-2.22" style="fill: none; stroke: #8cb6c8; stroke-miterlimit: 10; stroke-width: .61px;"/>
              <path d="M116.19,53.54c0-.26-.2-3.56-.26-4.97-.01-.15-.05-.78-.08-1.17-.01-.24-.03-.48-.05-.74-.02-.27-.04-.55-.07-.83-.09-1.1-.22-2.24-.37-3.38-.05-.4-.11-.81-.17-1.22-.08-.5-.15-.98-.24-1.46,0-.03-.01-.06-.01-.09-.08-.43-.14-.84-.22-1.25-.03-.21-.08-.42-.12-.63-.14-.67-.26-1.23-.36-1.64,0-.04-.01-.07-.02-.1-.04-.22-.11-.48-.18-.77-.12-.47-.26-1-.43-1.57-.09-.31-.19-.64-.29-.96,0-.01-.01-.02-.01-.03,0-.02-.01-.04-.01-.06-.06-.19-.12-.37-.18-.56,0,0,0-.01,0-.01,0-.01,0-.02,0-.03-.18-.55-.38-1.12-.58-1.68,0-.01,0-.01,0-.01-.06-.17-.12-.34-.18-.5-.09-.25-.18-.5-.28-.75s-.19-.51-.29-.76c-.23-.59-.47-1.18-.73-1.75-.19-.42-.38-.84-.58-1.26-.27-.57-.55-1.14-.84-1.7-.25-.47-.51-.94-.77-1.39-.21-.33-.44-.66-.69-1-.28-.39-.58-.77-.89-1.15-.15-.18-.3-.38-.45-.55-.04-.04-.07-.08-.1-.12,0,0-.01,0-.01,0-.01-.02-.03-.04-.04-.06-.02-.03-.03-.04-.05-.06-.26-.3-.54-.68-.81-.96-.36-.38-1.51-1.54-1.89-1.87-.62-.56-2.21-1.72-3.5-2.21" style="fill: none; stroke: #8cb6c8; stroke-miterlimit: 10; stroke-width: .61px;"/>
              <path d="M118.39,52.28c0-.26-.21-3.7-.28-5.03-.01-.14-.05-.8-.08-1.19-.01-.25-.03-.49-.05-.75-.02-.27-.04-.55-.07-.84-.09-1.11-.22-2.26-.38-3.42-.06-.41-.11-.82-.18-1.23-.08-.5-.16-.99-.24-1.47,0-.03-.01-.06-.01-.09-.08-.43-.15-.85-.23-1.26-.04-.22-.08-.43-.12-.64-.14-.66-.26-1.23-.37-1.66,0-.04-.01-.07-.02-.1-.04-.22-.11-.48-.18-.76-.12-.47-.26-.99-.43-1.55-.09-.31-.19-.63-.29-.95,0-.01-.01-.02-.01-.03,0-.02-.01-.04-.01-.06-.06-.19-.12-.37-.18-.55,0,0,0-.01,0-.01,0-.01,0-.02,0-.03-.18-.54-.37-1.1-.58-1.66,0-.01,0-.01,0-.01-.06-.17-.12-.33-.18-.5-.09-.25-.18-.5-.28-.74s-.19-.5-.29-.75c-.23-.58-.47-1.16-.72-1.73-.19-.42-.38-.83-.58-1.24-.27-.56-.55-1.12-.84-1.67-.24-.46-.5-.92-.77-1.36-.21-.33-.44-.66-.68-1-.28-.39-.57-.77-.89-1.14-.15-.18-.3-.37-.45-.55-.04-.04-.07-.08-.1-.12,0,0-.01,0-.01,0-.01-.02-.03-.04-.04-.06-.02-.03-.03-.04-.05-.06-.26-.3-.54-.68-.81-.96-.34-.35-1.52-1.56-1.87-1.86-.57-.51-2.17-1.69-3.48-2.2" style="fill: none; stroke: #8cb6c8; stroke-miterlimit: 10; stroke-width: .61px;"/>
              <path d="M120.6,51.01c0-.27-.23-3.83-.29-5.1-.01-.12-.05-.81-.08-1.2-.01-.25-.03-.49-.05-.76-.02-.27-.04-.55-.07-.85-.1-1.12-.23-2.28-.4-3.46-.06-.41-.11-.83-.18-1.24-.08-.5-.16-1-.25-1.49,0-.03-.01-.06-.01-.09-.08-.44-.15-.86-.24-1.28-.04-.22-.08-.43-.13-.64-.14-.66-.26-1.23-.38-1.69,0-.04-.01-.08-.02-.1-.05-.23-.11-.48-.18-.75-.12-.47-.26-.98-.42-1.53-.09-.3-.18-.62-.28-.94-.01-.01-.01-.03-.01-.03,0-.02-.01-.04-.01-.06-.06-.19-.12-.36-.18-.54,0,0,0-.01,0-.01,0-.01,0-.02,0-.03-.18-.54-.37-1.09-.57-1.64,0-.01,0-.01,0-.01-.06-.17-.12-.33-.18-.49-.09-.25-.18-.49-.27-.73s-.19-.5-.29-.74c-.23-.57-.46-1.14-.72-1.7-.19-.41-.38-.81-.57-1.22-.27-.55-.54-1.11-.83-1.65-.24-.46-.5-.91-.77-1.34-.21-.33-.44-.65-.68-.99-.28-.39-.57-.76-.88-1.14-.15-.18-.3-.37-.45-.55-.04-.04-.07-.08-.1-.12,0,0-.01,0-.01,0-.01-.03-.03-.04-.04-.06-.02-.03-.03-.04-.04-.06-.26-.3-.53-.68-.8-.96-.31-.32-1.54-1.57-1.86-1.85-.51-.46-2.13-1.67-3.46-2.19" style="fill: none; stroke: #8cb6c8; stroke-miterlimit: 10; stroke-width: .61px;"/>
              <path d="M122.8,49.75c0-.27-.25-3.97-.3-5.16-.01-.11-.06-.82-.09-1.22-.01-.25-.03-.5-.06-.76-.02-.27-.04-.56-.08-.86-.1-1.13-.24-2.3-.41-3.5-.06-.42-.12-.84-.19-1.26-.08-.51-.16-1.01-.26-1.51,0-.03-.01-.06-.01-.09-.08-.44-.15-.87-.24-1.3-.04-.22-.08-.44-.13-.65-.14-.65-.27-1.23-.39-1.71,0-.04-.01-.08-.02-.11-.05-.23-.11-.48-.18-.75-.12-.47-.25-.97-.42-1.51-.09-.3-.18-.62-.28-.93-.01-.01-.01-.03-.01-.03,0-.03-.01-.04-.01-.05-.06-.18-.12-.36-.18-.54,0,0,0-.01,0-.01,0-.01,0-.01,0-.03-.18-.53-.37-1.08-.57-1.62,0-.01,0-.01,0-.01-.06-.17-.12-.33-.18-.49-.09-.24-.18-.49-.27-.72s-.19-.49-.29-.73c-.23-.57-.46-1.13-.71-1.68-.19-.4-.37-.8-.57-1.2-.27-.55-.54-1.09-.83-1.62-.24-.45-.5-.89-.76-1.32-.21-.33-.44-.65-.68-.99-.28-.39-.57-.76-.88-1.13-.15-.18-.3-.37-.45-.54-.04-.04-.07-.08-.1-.11,0,0-.01,0-.01,0-.01-.03-.03-.04-.04-.06-.02-.03-.03-.04-.04-.06-.26-.3-.53-.68-.79-.95-.29-.3-1.55-1.58-1.85-1.85-.45-.41-2.1-1.64-3.44-2.19" style="fill: none; stroke: #8cb6c8; stroke-miterlimit: 10; stroke-width: .61px;"/>
              <path d="M125,48.49c0-.27-.26-4.11-.32-5.22-.01-.1-.06-.83-.09-1.24-.01-.26-.04-.5-.06-.77-.02-.28-.05-.56-.08-.86-.1-1.13-.25-2.33-.42-3.55-.06-.42-.12-.85-.19-1.27-.08-.51-.17-1.02-.26-1.52,0-.03-.01-.06-.01-.09-.08-.44-.16-.88-.25-1.31-.04-.22-.08-.44-.13-.66-.14-.64-.27-1.23-.4-1.74,0-.04-.01-.08-.02-.11-.05-.23-.12-.48-.18-.74-.12-.47-.25-.97-.41-1.49-.09-.3-.18-.61-.28-.92-.01-.01-.01-.03-.01-.03,0-.03-.01-.04-.01-.05-.05-.18-.12-.35-.18-.53,0,0,0-.01,0-.01,0-.01,0-.01,0-.03-.18-.52-.37-1.07-.56-1.59,0-.01,0-.01,0-.01-.05-.17-.12-.32-.18-.48-.09-.24-.18-.48-.27-.71s-.19-.48-.28-.72c-.23-.56-.46-1.11-.71-1.65-.18-.4-.37-.79-.57-1.18-.26-.54-.54-1.07-.82-1.59-.24-.44-.5-.87-.76-1.3-.21-.33-.43-.65-.67-.98-.27-.39-.57-.76-.87-1.12-.15-.18-.3-.37-.44-.54-.04-.04-.07-.08-.1-.11,0,0-.01,0-.01,0-.01-.03-.03-.04-.04-.06-.02-.03-.03-.04-.04-.06-.26-.29-.52-.68-.79-.95-.27-.27-1.57-1.6-1.84-1.84-.39-.36-2.06-1.61-3.43-2.18" style="fill: none; stroke: #8cb6c8; stroke-miterlimit: 10; stroke-width: .6px;"/>
              <path d="M127.2,47.23c0-.28-.28-4.24-.33-5.29-.01-.08-.06-.84-.09-1.25-.01-.26-.04-.51-.06-.78-.02-.28-.05-.57-.08-.87-.11-1.14-.25-2.35-.43-3.59-.06-.42-.12-.86-.2-1.29-.09-.52-.17-1.03-.27-1.54,0-.03-.01-.06-.01-.08-.09-.45-.16-.89-.26-1.33-.04-.22-.09-.45-.14-.67-.14-.63-.28-1.22-.41-1.76,0-.04-.01-.08-.02-.11-.05-.24-.12-.48-.18-.73-.12-.47-.25-.96-.41-1.47-.09-.29-.18-.6-.27-.9-.01-.01-.01-.03-.01-.03,0-.03-.01-.04-.01-.05-.05-.18-.12-.35-.18-.52,0,0,0-.01,0-.01,0-.01,0-.01,0-.03-.18-.52-.36-1.05-.55-1.57,0-.01,0-.01,0-.01-.05-.17-.12-.32-.17-.48-.09-.24-.18-.48-.27-.7s-.19-.48-.28-.71c-.23-.55-.45-1.1-.7-1.62-.18-.39-.37-.77-.56-1.16-.26-.53-.53-1.05-.82-1.56-.24-.43-.49-.86-.76-1.27-.21-.33-.43-.65-.67-.98-.27-.38-.56-.75-.87-1.12-.15-.18-.29-.37-.44-.54-.04-.04-.07-.08-.09-.11,0,0-.01,0-.01,0-.01-.03-.03-.04-.04-.06-.02-.03-.03-.04-.04-.06-.26-.29-.52-.68-.78-.95-.24-.24-1.58-1.61-1.83-1.83-.33-.31-2.03-1.58-3.41-2.17" style="fill: none; stroke: #8cb6c8; stroke-miterlimit: 10; stroke-width: .6px;"/>
              <path d="M129.4,45.96c0-.28-.29-4.38-.35-5.35-.01-.07-.06-.86-.1-1.27-.01-.26-.04-.52-.06-.79-.03-.28-.05-.57-.09-.88-.11-1.15-.26-2.37-.45-3.63-.06-.43-.13-.86-.2-1.3-.09-.52-.18-1.04-.28-1.55,0-.03-.01-.06-.01-.08-.09-.45-.16-.9-.26-1.35-.04-.23-.09-.45-.14-.68-.14-.62-.28-1.22-.42-1.78,0-.04-.01-.08-.02-.11-.05-.24-.12-.47-.18-.72-.12-.47-.25-.95-.4-1.45-.09-.29-.17-.6-.27-.89-.01-.01-.01-.03-.01-.03,0-.03-.01-.04-.01-.05-.05-.18-.12-.35-.17-.51,0,0,0-.01,0-.01,0-.01,0-.01,0-.03-.17-.51-.36-1.04-.55-1.55,0-.01,0-.01,0-.01-.05-.16-.12-.32-.17-.47-.09-.24-.18-.47-.27-.7s-.19-.47-.28-.7c-.23-.54-.45-1.08-.7-1.6-.18-.38-.37-.76-.56-1.14-.26-.52-.53-1.03-.81-1.53-.24-.42-.49-.84-.76-1.25-.21-.33-.43-.64-.66-.97-.27-.38-.56-.75-.86-1.11-.15-.18-.29-.37-.44-.53-.04-.04-.07-.08-.09-.11,0,0-.01,0-.01,0-.01-.03-.03-.04-.04-.06-.03-.03-.03-.04-.04-.06-.25-.29-.52-.68-.77-.94-.22-.22-1.59-1.62-1.82-1.82-.27-.26-1.99-1.55-3.39-2.16" style="fill: none; stroke: #8cb6c8; stroke-miterlimit: 10; stroke-width: .6px;"/>
              <path d="M131.6,44.7c0-.28-.31-4.51-.36-5.41-.01-.05-.06-.87-.1-1.28-.01-.27-.04-.52-.06-.8-.03-.28-.05-.58-.09-.89-.11-1.16-.27-2.39-.46-3.67-.06-.43-.13-.87-.21-1.31-.09-.52-.18-1.05-.28-1.57,0-.03-.01-.05-.01-.08-.09-.46-.17-.91-.27-1.37-.04-.23-.09-.46-.14-.68-.14-.62-.29-1.22-.44-1.81,0-.04-.01-.08-.03-.11-.05-.24-.12-.47-.18-.71-.13-.47-.25-.94-.4-1.43-.09-.29-.17-.59-.27-.88-.01-.01-.01-.03-.01-.03,0-.03-.01-.04-.01-.05-.05-.18-.12-.34-.17-.51,0,0,0-.01,0-.01,0-.01,0-.01,0-.03-.17-.51-.36-1.03-.54-1.53,0-.01,0-.01,0-.01-.05-.16-.12-.31-.17-.47-.09-.23-.17-.46-.27-.69-.1-.23-.19-.47-.28-.69-.22-.54-.44-1.06-.69-1.57-.18-.38-.36-.74-.56-1.12-.26-.51-.53-1.01-.81-1.51-.24-.42-.49-.83-.75-1.23-.21-.33-.43-.64-.66-.97-.27-.38-.56-.75-.86-1.1-.15-.18-.29-.37-.44-.53-.04-.04-.07-.08-.09-.11,0,0-.01,0-.01,0-.01-.03-.03-.04-.04-.05-.03-.03-.03-.04-.04-.05-.25-.29-.51-.68-.77-.94-.19-.19-1.61-1.64-1.81-1.81-.22-.21-1.95-1.53-3.37-2.16" style="fill: none; stroke: #8cb6c8; stroke-miterlimit: 10; stroke-width: .6px;"/>
              <path d="M133.8,43.44c0-.28-.32-4.65-.38-5.48-.01-.04-.07-.88-.11-1.3-.01-.27-.04-.53-.07-.81-.03-.28-.05-.58-.09-.89-.12-1.17-.28-2.41-.47-3.71-.07-.43-.13-.88-.21-1.33-.09-.53-.18-1.06-.29-1.59,0-.03-.01-.05-.01-.08-.09-.46-.17-.92-.28-1.38-.04-.23-.09-.46-.14-.69-.14-.61-.29-1.22-.45-1.83,0-.04-.01-.08-.03-.11-.05-.24-.12-.47-.18-.7-.12-.47-.25-.94-.4-1.41-.09-.28-.17-.58-.26-.87-.01-.01-.01-.03-.01-.03,0-.03-.01-.04-.01-.05-.05-.18-.12-.34-.17-.5h0v-.04c-.17-.5-.36-1.02-.54-1.5h0c-.05-.18-.12-.33-.17-.47-.09-.23-.17-.46-.26-.68-.09-.23-.18-.46-.28-.68-.22-.53-.45-1.04-.68-1.55-.18-.37-.36-.73-.55-1.1-.25-.5-.53-.99-.8-1.48-.24-.41-.49-.81-.75-1.21-.21-.33-.43-.64-.66-.96-.28-.38-.55-.75-.86-1.1-.14-.18-.29-.37-.43-.53-.04-.04-.07-.08-.09-.11h-.01s-.03-.04-.04-.05c-.03-.03-.03-.04-.04-.05-.25-.28-.51-.68-.76-.94-.17-.16-1.62-1.65-1.79-1.8-.16-.16-1.92-1.5-3.35-2.15" style="fill: none; stroke: #8cb6c8; stroke-miterlimit: 10; stroke-width: .6px;"/>
            </g>
          </g>
          <g style="opacity: .3;">
            <path d="M88.04,69.65l-45.28,26.03c0-.29-.34-4.7-.39-5.53-.01-.04-.07-.89-.11-1.31-.01-.27-.04-.53-.07-.82-.03-.29-.05-.59-.1-.9-.12-1.18-.29-2.44-.49-3.75-.07-.44-.14-.89-.22-1.34-.1-.53-.19-1.07-.3-1.6,0-.03-.01-.05-.01-.08-.1-.47-.18-.93-.29-1.4-.04-.23-.1-.47-.15-.7-.15-.62-.3-1.23-.47-1.85,0-.04-.01-.08-.03-.11-.05-.25-.12-.48-.19-.71-.12-.48-.26-.94-.41-1.42-.1-.29-.18-.59-.27-.88-.01-.01-.01-.03-.01-.03,0-.03-.01-.04-.01-.05-.05-.18-.12-.34-.18-.51h0v-.04c-.18-.51-.37-1.03-.56-1.52h0c-.05-.18-.12-.33-.18-.48-.1-.23-.18-.47-.27-.68-.1-.23-.19-.47-.29-.68-.23-.53-.47-1.05-.71-1.56-.19-.37-.37-.74-.57-1.11-.26-.51-.55-1-.83-1.49-.25-.41-.51-.82-.78-1.22-.22-.33-.45-.64-.68-.97-.29-.38-.57-.75-.89-1.11-.15-.18-.3-.37-.45-.53-.04-.04-.07-.08-.1-.11h-.01s-.03-.04-.04-.05c-.03-.03-.03-.04-.04-.05-.26-.29-.52-.55-.78-.81-.18-.16-.34-.33-.52-.48-.16-.16-.34-.31-.52-.47-.07-.07-.15-.14-.22-.19-1.22-1-2.59-1.86-4.08-2.51l25.34-14.68,20.9-11.63s2.53,1.37,3.75,2.42c.73.6,1.36,1.3,1.99,2.03,2.48,2.79,4.04,4.96,6.59,11.77,0,0,.7,2.53,1.02,3.54.41,1.34,1.25,5.36,1.3,5.89.56,6.24.64,13.72.64,13.72Z" style="fill: #467dab;"/>
            <g>
              <path d="M42.21,95.82c0-.29-.34-4.7-.39-5.53-.01-.04-.07-.89-.11-1.31-.01-.27-.04-.53-.07-.82-.03-.29-.05-.59-.1-.9-.12-1.18-.29-2.44-.49-3.75-.07-.44-.14-.89-.22-1.34-.1-.53-.19-1.07-.3-1.6,0-.03-.01-.05-.01-.08-.1-.47-.18-.93-.29-1.4-.04-.23-.1-.47-.15-.7-.15-.62-.3-1.23-.47-1.85,0-.04-.01-.08-.03-.11-.05-.25-.12-.48-.19-.71-.12-.48-.26-.94-.41-1.42-.1-.29-.18-.59-.27-.88-.01-.01-.01-.03-.01-.03,0-.03-.01-.04-.01-.05-.05-.18-.12-.34-.18-.51h0v-.04c-.18-.51-.37-1.03-.56-1.52h0c-.05-.18-.12-.33-.18-.48-.1-.23-.18-.47-.27-.68-.1-.23-.19-.47-.29-.68-.23-.53-.47-1.05-.71-1.56-.19-.37-.37-.74-.57-1.11-.26-.51-.55-1-.83-1.49-.25-.41-.51-.82-.78-1.22-.22-.33-.45-.64-.68-.97-.29-.38-.57-.75-.89-1.11-.15-.18-.3-.37-.45-.53-.04-.04-.07-.08-.1-.11h-.01s-.03-.04-.04-.05c-.03-.03-.03-.04-.04-.05-.26-.29-.52-.55-.78-.81-.18-.16-.34-.33-.52-.48-.16-.16-.34-.31-.52-.47-.07-.07-.15-.14-.22-.19-1.22-1-2.59-1.86-4.08-2.51" style="fill: none; stroke: #8cb6c8; stroke-miterlimit: 10; stroke-width: .62px;"/>
              <path d="M44.38,94.56c0-.28-.32-4.6-.38-5.53-.01-.06-.07-.89-.11-1.31-.01-.27-.04-.54-.07-.82-.03-.29-.06-.59-.09-.9-.14-1.21-.28-2.48-.48-3.75-.07-.44-.14-.89-.22-1.34-.1-.53-.19-1.07-.3-1.6,0-.03-.01-.05-.01-.08-.1-.47-.18-.93-.29-1.4-.04-.23-.09-.47-.15-.7-.15-.62-.3-1.23-.47-1.85,0-.04-.01-.08-.03-.11-.05-.2-.1-.4-.16-.59-.01-.04-.03-.09-.04-.13-.1-.35-.19-.69-.29-1.03-.04-.13-.08-.27-.12-.4-.03-.1-.07-.21-.1-.31,0,0,0-.02,0-.03,0-.02,0-.03-.01-.05-.04-.14-.09-.28-.13-.42,0,0,0,0,0-.01,0,0,0-.01,0-.02,0-.02-.01-.03-.02-.05-.01-.01-.01-.03-.01-.03,0-.03-.01-.04-.01-.06-.06-.18-.12-.35-.18-.51,0,0,0-.01,0-.01,0-.01,0-.01,0-.03-.07-.19-.14-.38-.2-.57,0,0,0,0,0-.01-.05-.13-.1-.26-.14-.39-.07-.19-.14-.38-.22-.57,0-.01,0-.01,0-.01-.06-.17-.12-.32-.18-.47-.01-.03-.02-.06-.03-.08-.08-.21-.16-.41-.24-.61-.1-.23-.19-.47-.29-.69-.23-.53-.45-1.04-.71-1.54-.18-.37-.37-.73-.57-1.09-.18-.33-.35-.66-.54-.98-.09-.16-.19-.33-.28-.49-.24-.41-.5-.81-.77-1.2-.22-.33-.45-.65-.68-.97-.28-.39-.58-.75-.89-1.11-.15-.18-.3-.37-.45-.53-.04-.04-.07-.08-.1-.11h-.01s-.03-.04-.04-.05c-.03-.03-.03-.04-.04-.05-.26-.29-.52-.55-.78-.81-.18-.16-.34-.33-.52-.48-.16-.16-.34-.31-.52-.47-.07-.07-.15-.14-.22-.19-1.22-.99-2.59-1.86-4.08-2.51" style="fill: none; stroke: #8cb6c8; stroke-miterlimit: 10; stroke-width: .62px;"/>
              <path d="M46.54,93.31c0-.27-.31-4.51-.36-5.53-.01-.08-.06-.89-.1-1.32-.01-.27-.04-.54-.06-.82-.03-.29-.06-.59-.09-.91-.13-1.24-.27-2.52-.46-3.76-.07-.44-.14-.89-.22-1.34-.1-.53-.19-1.07-.3-1.6,0-.03-.01-.05-.01-.08-.1-.47-.18-.93-.29-1.4-.04-.23-.09-.47-.15-.7-.15-.62-.3-1.23-.47-1.85,0-.04-.01-.08-.03-.11-.05-.2-.1-.4-.16-.59-.01-.04-.03-.09-.04-.13-.1-.35-.19-.7-.3-1.05-.04-.14-.08-.27-.13-.41-.03-.11-.07-.21-.1-.32,0,0,0-.02,0-.03,0-.02,0-.03-.01-.05-.04-.14-.09-.29-.13-.43,0,0,0,0,0-.01,0,0,0-.01,0-.02,0-.02-.01-.03-.02-.05-.01-.01-.01-.03-.01-.03,0-.03-.01-.04-.01-.06-.06-.18-.13-.35-.18-.52,0,0,0-.01,0-.01,0-.01,0-.01,0-.03-.07-.19-.14-.38-.21-.58,0,0,0,0,0-.01-.05-.13-.1-.26-.14-.39-.07-.19-.15-.39-.22-.57,0-.01,0-.01,0-.01-.06-.17-.13-.32-.18-.48-.01-.03-.02-.06-.03-.08-.08-.21-.16-.42-.25-.61-.1-.24-.2-.47-.3-.7-.23-.52-.45-1.03-.7-1.52-.18-.36-.37-.72-.56-1.08-.17-.32-.35-.65-.53-.97-.09-.16-.19-.32-.28-.48-.24-.4-.5-.8-.76-1.19-.22-.33-.45-.65-.68-.97-.28-.39-.58-.75-.89-1.11-.15-.18-.3-.37-.45-.53-.04-.04-.07-.08-.1-.11h-.01s-.03-.04-.04-.05c-.03-.03-.03-.04-.04-.05-.26-.29-.52-.55-.78-.81-.18-.16-.34-.33-.52-.48-.16-.16-.34-.31-.52-.47-.07-.07-.15-.14-.22-.19-1.22-.99-2.59-1.86-4.08-2.51" style="fill: none; stroke: #8cb6c8; stroke-miterlimit: 10; stroke-width: .62px;"/>
              <path d="M48.71,92.06c0-.27-.29-4.42-.35-5.53-.01-.1-.06-.89-.1-1.32-.01-.27-.04-.54-.06-.82-.03-.29-.05-.59-.09-.91-.13-1.27-.26-2.57-.45-3.76-.07-.44-.14-.89-.22-1.34-.1-.53-.19-1.07-.3-1.6,0-.03-.01-.05-.01-.08-.1-.47-.18-.93-.29-1.4-.04-.23-.09-.47-.15-.7-.15-.62-.3-1.23-.47-1.85,0-.04-.01-.08-.03-.11-.05-.21-.1-.4-.16-.6-.01-.05-.03-.09-.04-.14-.1-.35-.19-.7-.3-1.06-.04-.14-.08-.27-.13-.41-.03-.11-.07-.21-.1-.32,0,0,0-.02,0-.03,0-.02,0-.03-.01-.05-.04-.15-.09-.29-.14-.43,0,0,0,0,0-.01,0,0,0-.01,0-.02,0-.02-.01-.03-.02-.05-.01-.01-.01-.03-.01-.03,0-.03-.01-.04-.01-.06-.06-.18-.13-.35-.18-.52,0,0,0-.01,0-.01,0-.01,0-.01,0-.03-.07-.19-.14-.39-.21-.58,0,0,0,0,0-.01-.05-.13-.1-.26-.15-.39-.07-.2-.15-.39-.22-.58,0-.01,0-.01,0-.01-.06-.17-.13-.32-.19-.48-.01-.03-.02-.06-.03-.08-.09-.21-.17-.42-.25-.62-.1-.24-.2-.48-.3-.7-.23-.51-.45-1.01-.69-1.5-.18-.36-.36-.71-.55-1.06-.17-.32-.35-.64-.53-.96-.09-.16-.18-.32-.28-.47-.24-.4-.49-.79-.75-1.17-.22-.33-.45-.65-.68-.97-.28-.39-.58-.75-.89-1.11-.15-.18-.3-.37-.45-.53-.04-.04-.07-.08-.1-.11h-.01s-.03-.04-.04-.05c-.03-.03-.03-.04-.04-.05-.26-.29-.52-.55-.78-.81-.18-.16-.34-.33-.52-.48-.16-.16-.34-.31-.52-.47-.07-.07-.15-.14-.22-.19-1.22-.99-2.59-1.86-4.08-2.51" style="fill: none; stroke: #8cb6c8; stroke-miterlimit: 10; stroke-width: .62px;"/>
              <path d="M50.87,90.81c0-.26-.28-4.32-.34-5.53-.01-.12-.06-.89-.1-1.32-.01-.27-.04-.54-.06-.82-.02-.29-.05-.59-.08-.91-.13-1.3-.26-2.61-.44-3.76-.07-.44-.14-.89-.22-1.34-.1-.53-.19-1.07-.3-1.6,0-.03-.01-.05-.01-.08-.1-.47-.18-.93-.29-1.4-.04-.23-.09-.47-.15-.7-.15-.62-.3-1.23-.47-1.85,0-.04-.01-.08-.03-.11-.05-.21-.1-.41-.16-.61-.01-.05-.03-.09-.04-.14-.1-.36-.19-.71-.3-1.07-.04-.14-.08-.28-.13-.42-.03-.11-.07-.22-.1-.32,0,0,0-.02,0-.03,0-.02,0-.03-.01-.05-.04-.15-.09-.29-.14-.43,0,0,0,0,0-.01,0,0,0-.01,0-.02,0-.02-.01-.03-.02-.05-.01-.01-.01-.03-.01-.03,0-.03-.01-.04-.02-.06-.06-.18-.13-.36-.19-.53,0,0,0-.01,0-.01,0-.01,0-.02,0-.03-.07-.2-.14-.39-.21-.59,0,0,0,0,0-.01-.05-.13-.1-.27-.15-.4-.08-.2-.15-.39-.23-.59,0-.01,0-.01,0-.01-.06-.17-.13-.33-.19-.49-.01-.03-.02-.06-.04-.09-.09-.21-.17-.42-.26-.63-.1-.24-.2-.48-.31-.71-.22-.5-.44-1-.69-1.47-.18-.35-.36-.7-.55-1.05-.17-.32-.34-.63-.52-.94-.09-.16-.18-.31-.27-.47-.23-.39-.48-.77-.74-1.15-.22-.33-.45-.65-.68-.97-.28-.39-.58-.75-.89-1.11-.15-.18-.3-.37-.45-.53-.04-.04-.07-.08-.1-.11h-.01s-.03-.04-.04-.05c-.03-.03-.03-.04-.04-.05-.26-.29-.52-.55-.78-.81-.18-.16-.34-.33-.52-.48-.16-.16-.34-.31-.52-.47-.07-.07-.15-.14-.22-.19-1.22-.99-2.59-1.86-4.08-2.51" style="fill: none; stroke: #8cb6c8; stroke-miterlimit: 10; stroke-width: .62px;"/>
              <path d="M53.04,89.55c0-.25-.27-4.23-.32-5.53-.01-.14-.06-.89-.09-1.32-.01-.28-.04-.54-.06-.82-.02-.29-.05-.6-.08-.91-.13-1.33-.25-2.66-.42-3.76-.07-.44-.14-.89-.22-1.34-.1-.53-.19-1.07-.3-1.6,0-.03-.01-.05-.01-.08-.1-.47-.18-.93-.29-1.4-.04-.23-.09-.47-.15-.7-.15-.62-.3-1.23-.47-1.85,0-.04-.01-.08-.03-.11-.05-.21-.11-.41-.16-.61-.01-.05-.03-.09-.04-.14-.1-.36-.2-.72-.31-1.08-.04-.14-.09-.28-.13-.42-.03-.11-.07-.22-.1-.33,0,0,0-.02,0-.03,0-.02-.01-.03-.01-.05-.05-.15-.09-.29-.14-.44,0,0,0,0,0-.01,0,0,0-.01,0-.02,0-.02-.01-.03-.02-.05-.01-.01-.01-.03-.01-.03,0-.03-.01-.04-.02-.06-.06-.19-.13-.36-.19-.53,0,0,0-.01,0-.01,0-.01,0-.02,0-.03-.07-.2-.14-.4-.22-.59,0,0,0,0,0-.01-.05-.14-.1-.27-.15-.4-.08-.2-.15-.4-.23-.59,0-.01,0-.01,0-.01-.06-.17-.13-.33-.19-.49-.01-.03-.02-.06-.04-.09-.09-.22-.17-.43-.26-.63-.1-.24-.21-.49-.31-.72-.22-.49-.44-.98-.68-1.45-.18-.35-.35-.69-.54-1.03-.17-.31-.34-.62-.51-.93-.09-.15-.18-.31-.27-.46-.23-.38-.48-.76-.73-1.14-.22-.33-.45-.65-.68-.97-.28-.39-.58-.75-.89-1.11-.15-.18-.3-.37-.45-.53-.04-.04-.07-.08-.1-.11h-.01s-.03-.04-.04-.05c-.03-.03-.03-.04-.04-.05-.26-.29-.52-.55-.78-.81-.18-.16-.34-.33-.52-.48-.16-.16-.34-.31-.52-.47-.07-.07-.15-.14-.22-.19-1.22-.99-2.59-1.86-4.08-2.51" style="fill: none; stroke: #8cb6c8; stroke-miterlimit: 10; stroke-width: .62px;"/>
              <path d="M55.2,88.3c0-.24-.25-4.13-.31-5.53-.01-.16-.06-.89-.09-1.32-.01-.28-.03-.54-.06-.82-.02-.29-.05-.6-.08-.91-.12-1.36-.24-2.7-.41-3.77-.07-.44-.14-.89-.22-1.34-.1-.53-.19-1.07-.3-1.6,0-.03-.01-.05-.01-.08-.1-.47-.18-.93-.29-1.4-.04-.23-.09-.47-.15-.7-.15-.62-.3-1.23-.47-1.85,0-.04-.01-.08-.03-.11-.05-.21-.11-.42-.16-.62-.01-.05-.03-.09-.04-.14-.1-.37-.2-.73-.31-1.09-.04-.14-.09-.28-.13-.43-.03-.11-.07-.22-.1-.33,0,0,0-.02,0-.03,0-.02-.01-.03-.01-.05-.05-.15-.1-.3-.14-.44,0,0,0,0,0-.01,0,0,0-.01,0-.02,0-.02-.01-.03-.02-.05-.01-.01-.01-.03-.01-.03,0-.03-.01-.04-.02-.06-.06-.19-.13-.36-.19-.54,0,0,0-.01,0-.01,0-.01,0-.02,0-.03-.07-.2-.14-.4-.22-.6,0,0,0,0,0-.01-.05-.14-.1-.27-.15-.41-.08-.2-.15-.4-.23-.6,0-.01,0-.01,0-.01-.06-.17-.13-.34-.2-.5-.01-.03-.02-.06-.04-.09-.09-.22-.17-.43-.27-.64-.11-.24-.21-.49-.32-.72-.22-.49-.44-.97-.67-1.43-.17-.34-.35-.68-.53-1.02-.17-.31-.33-.61-.51-.91-.09-.15-.18-.3-.27-.45-.23-.38-.47-.75-.72-1.12-.22-.33-.45-.65-.68-.97-.28-.39-.58-.75-.89-1.11-.15-.18-.3-.37-.45-.53-.04-.04-.07-.08-.1-.11h-.01s-.03-.04-.04-.05c-.03-.03-.03-.04-.04-.05-.26-.29-.52-.55-.78-.81-.18-.16-.34-.33-.52-.48-.16-.16-.34-.31-.52-.47-.07-.07-.15-.14-.22-.19-1.22-.99-2.59-1.86-4.08-2.51" style="fill: none; stroke: #8cb6c8; stroke-miterlimit: 10; stroke-width: .62px;"/>
              <path d="M57.37,87.05c0-.24-.24-4.04-.3-5.53-.01-.17-.05-.89-.08-1.32-.01-.28-.03-.54-.05-.82-.02-.3-.05-.6-.07-.91-.12-1.4-.23-2.75-.39-3.77-.07-.44-.14-.89-.22-1.34-.1-.53-.19-1.07-.3-1.6,0-.03-.01-.05-.01-.08-.1-.47-.18-.93-.29-1.4-.04-.23-.09-.47-.15-.7-.15-.62-.3-1.23-.47-1.85,0-.04-.01-.08-.03-.11-.05-.22-.11-.42-.17-.62-.01-.05-.03-.09-.04-.14-.1-.37-.2-.73-.31-1.1-.04-.14-.09-.29-.13-.43-.04-.11-.07-.22-.11-.34,0-.01,0-.02,0-.03,0-.02-.01-.03-.01-.05-.05-.15-.1-.3-.14-.45,0,0,0,0,0-.01,0,0,0-.01,0-.02,0-.02-.01-.03-.02-.05-.01-.01-.01-.03-.01-.03,0-.03-.01-.04-.02-.06-.06-.19-.13-.37-.19-.55,0,0,0-.01,0-.01,0-.01,0-.02,0-.03-.07-.2-.15-.4-.22-.61,0,0,0,0,0-.01-.05-.14-.1-.28-.15-.41-.08-.2-.15-.41-.23-.6,0-.01,0-.01,0-.01-.06-.17-.13-.34-.2-.5-.01-.03-.02-.06-.04-.09-.09-.22-.18-.44-.27-.65-.11-.25-.21-.49-.32-.73-.22-.48-.43-.95-.67-1.41-.17-.34-.34-.67-.53-1-.16-.3-.33-.6-.5-.9-.09-.15-.17-.3-.26-.45-.22-.37-.46-.74-.71-1.1-.22-.33-.45-.65-.68-.97-.28-.39-.58-.75-.89-1.11-.15-.18-.3-.37-.45-.53-.04-.04-.07-.08-.1-.11h-.01s-.03-.04-.04-.05c-.03-.03-.03-.04-.04-.05-.26-.29-.52-.55-.78-.81-.18-.16-.34-.33-.52-.48-.16-.16-.34-.31-.52-.47-.07-.07-.15-.14-.22-.19-1.22-.99-2.59-1.86-4.08-2.51" style="fill: none; stroke: #8cb6c8; stroke-miterlimit: 10; stroke-width: .62px;"/>
              <path d="M59.53,85.79c0-.23-.23-3.95-.29-5.53-.01-.19-.05-.89-.08-1.32-.01-.28-.03-.54-.05-.82-.02-.3-.05-.6-.07-.91-.12-1.43-.23-2.79-.38-3.77-.07-.44-.14-.89-.22-1.34-.1-.53-.19-1.07-.3-1.6,0-.03-.01-.05-.01-.08-.1-.47-.18-.93-.29-1.4-.04-.23-.09-.47-.15-.7-.15-.62-.3-1.23-.47-1.85,0-.04-.01-.08-.03-.11-.05-.22-.11-.42-.17-.63-.01-.05-.03-.1-.04-.14-.1-.37-.2-.74-.32-1.11-.04-.14-.09-.29-.13-.44-.04-.11-.07-.23-.11-.34,0-.01,0-.02-.01-.03,0-.02-.01-.03-.01-.05-.05-.15-.1-.3-.15-.45,0,0,0,0,0-.01,0,0,0-.01,0-.02,0-.02-.01-.03-.02-.05-.01-.01-.01-.03-.01-.03,0-.03-.01-.04-.02-.06-.06-.19-.13-.37-.2-.55,0,0,0-.01,0-.01,0-.01,0-.02,0-.03-.07-.2-.15-.41-.22-.61,0,0,0,0,0-.01-.05-.14-.1-.28-.16-.41-.08-.21-.16-.41-.24-.61,0-.01,0-.01,0-.01-.06-.18-.14-.34-.2-.51-.01-.03-.02-.06-.04-.09-.09-.22-.18-.44-.27-.65-.11-.25-.22-.5-.32-.74-.22-.47-.43-.94-.66-1.39-.17-.33-.34-.66-.52-.99-.16-.3-.32-.59-.49-.89-.09-.15-.17-.29-.26-.44-.22-.37-.46-.73-.7-1.09-.22-.33-.45-.65-.68-.97-.28-.39-.58-.75-.89-1.11-.15-.18-.3-.37-.45-.53-.04-.04-.07-.08-.1-.11h-.01s-.03-.04-.04-.05c-.03-.03-.03-.04-.04-.05-.26-.29-.52-.55-.78-.81-.18-.16-.34-.33-.52-.48-.16-.16-.34-.31-.52-.47-.07-.07-.15-.14-.22-.19-1.22-.99-2.59-1.86-4.08-2.51" style="fill: none; stroke: #8cb6c8; stroke-miterlimit: 10; stroke-width: .62px;"/>
              <path d="M61.7,84.54c0-.22-.21-3.85-.27-5.53-.01-.21-.05-.89-.08-1.32-.01-.28-.03-.54-.05-.83-.02-.3-.04-.6-.07-.91-.11-1.46-.22-2.83-.37-3.78-.07-.44-.14-.89-.22-1.34-.1-.53-.19-1.07-.3-1.6,0-.03-.01-.05-.01-.08-.1-.47-.18-.93-.29-1.4-.04-.23-.09-.47-.15-.7-.15-.62-.3-1.23-.47-1.85,0-.04-.01-.08-.03-.11-.05-.22-.11-.43-.17-.64-.01-.05-.03-.1-.04-.14-.1-.38-.2-.75-.32-1.13-.05-.15-.09-.29-.14-.44-.04-.11-.07-.23-.11-.34,0-.01,0-.02-.01-.03,0-.02-.01-.03-.01-.05-.05-.16-.1-.31-.15-.46,0,0,0,0,0-.01,0,0,0-.01,0-.02,0-.02-.01-.03-.02-.05,0-.01-.01-.03-.01-.03,0-.03-.01-.04-.02-.06-.06-.19-.13-.37-.2-.56,0,0,0-.01,0-.01,0-.01,0-.02,0-.03-.07-.21-.15-.41-.23-.62,0,0,0,0,0-.01-.05-.14-.11-.28-.16-.42-.08-.21-.16-.42-.24-.61,0-.01,0-.01,0-.01-.07-.18-.14-.35-.2-.51-.01-.03-.03-.06-.04-.09-.09-.22-.18-.45-.28-.66-.11-.25-.22-.5-.33-.74-.22-.46-.42-.92-.65-1.37-.17-.33-.33-.65-.51-.97-.16-.29-.32-.58-.49-.87-.08-.14-.17-.29-.26-.43-.22-.36-.45-.72-.69-1.07-.22-.33-.45-.65-.68-.97-.28-.39-.58-.75-.89-1.11-.15-.18-.3-.37-.45-.53-.04-.04-.07-.08-.1-.11h-.01s-.03-.04-.04-.05c-.03-.03-.03-.04-.04-.05-.26-.29-.52-.55-.78-.81-.18-.16-.34-.33-.52-.48-.16-.16-.34-.31-.52-.47-.07-.07-.15-.14-.22-.19-1.22-.99-2.59-1.86-4.08-2.51" style="fill: none; stroke: #8cb6c8; stroke-miterlimit: 10; stroke-width: .62px;"/>
              <path d="M63.86,83.29c0-.22-.2-3.76-.26-5.53-.01-.23-.05-.89-.07-1.32-.01-.28-.03-.54-.05-.83-.02-.3-.04-.6-.06-.91-.11-1.49-.21-2.88-.35-3.78-.07-.44-.14-.89-.22-1.34-.1-.53-.19-1.07-.3-1.6,0-.03-.01-.05-.01-.08-.1-.47-.18-.93-.29-1.4-.04-.23-.09-.47-.15-.7-.15-.62-.3-1.23-.47-1.85,0-.04-.01-.08-.03-.11-.05-.22-.11-.43-.17-.64-.01-.05-.03-.1-.04-.15-.1-.38-.21-.76-.33-1.14-.05-.15-.09-.3-.14-.44-.04-.12-.07-.23-.11-.35,0-.01,0-.02-.01-.03,0-.02-.01-.04-.01-.05-.05-.16-.1-.31-.15-.46,0,0,0-.01,0-.01,0-.01,0-.01,0-.02,0-.02-.01-.03-.02-.05,0-.01-.01-.03-.01-.03,0-.03-.01-.04-.02-.06-.06-.19-.14-.38-.2-.56,0,0,0-.01,0-.01,0-.01,0-.02,0-.03-.08-.21-.15-.42-.23-.62,0,0,0-.01,0-.01-.05-.15-.11-.28-.16-.42-.08-.21-.16-.42-.24-.62,0,0,0-.01,0-.01-.07-.18-.14-.35-.21-.52-.01-.03-.03-.06-.04-.09-.09-.23-.19-.45-.28-.67-.11-.25-.22-.51-.33-.75-.21-.46-.42-.9-.65-1.35-.17-.32-.33-.64-.5-.96-.16-.29-.32-.57-.48-.86-.08-.14-.17-.28-.25-.43-.21-.36-.44-.71-.68-1.05-.22-.33-.45-.65-.68-.97-.28-.39-.58-.75-.89-1.11-.15-.18-.3-.37-.45-.53-.04-.04-.07-.08-.1-.11h-.01s-.03-.04-.04-.05c-.03-.03-.03-.04-.04-.05-.26-.29-.52-.55-.78-.81-.18-.16-.34-.33-.52-.48-.16-.16-.34-.31-.52-.47-.07-.07-.15-.14-.22-.19-1.22-.99-2.59-1.86-4.08-2.51" style="fill: none; stroke: #8cb6c8; stroke-miterlimit: 10; stroke-width: .62px;"/>
              <path d="M66.03,82.04c0-.21-.18-3.67-.25-5.53-.01-.25-.04-.89-.07-1.32-.01-.28-.03-.55-.04-.83-.02-.3-.04-.61-.06-.91-.11-1.52-.2-2.92-.34-3.78-.07-.44-.14-.89-.22-1.34-.1-.53-.19-1.07-.3-1.6,0-.03-.01-.05-.01-.08-.1-.47-.18-.93-.29-1.4-.04-.23-.09-.47-.15-.7-.15-.62-.3-1.23-.47-1.85,0-.04-.01-.08-.03-.11-.05-.22-.11-.44-.17-.65-.01-.05-.03-.1-.04-.15-.1-.38-.21-.76-.33-1.15-.05-.15-.09-.3-.14-.45-.04-.12-.07-.23-.11-.35,0-.01,0-.02-.01-.03,0-.02-.01-.04-.01-.05-.05-.16-.1-.31-.15-.46,0,0,0-.01,0-.01,0-.01,0-.01,0-.02,0-.02-.01-.03-.02-.05,0-.01-.01-.03-.01-.03,0-.02-.01-.04-.02-.06-.06-.19-.14-.38-.2-.57,0,0,0-.01,0-.01,0-.01,0-.02,0-.03-.08-.21-.15-.42-.23-.63,0,0,0-.01,0-.01-.05-.15-.11-.29-.16-.43-.08-.21-.16-.42-.25-.63,0,0,0-.01,0-.01-.07-.18-.14-.35-.21-.52-.01-.03-.03-.06-.04-.09-.1-.23-.19-.45-.29-.67-.11-.26-.22-.51-.34-.76-.21-.45-.42-.89-.64-1.32-.16-.31-.33-.63-.5-.94-.16-.28-.31-.57-.47-.84-.08-.14-.16-.28-.25-.42-.21-.35-.44-.7-.67-1.04s-.45-.65-.68-.97c-.28-.39-.58-.75-.89-1.11-.15-.18-.3-.37-.45-.53-.04-.04-.07-.08-.1-.11h-.01s-.03-.04-.04-.05c-.03-.03-.03-.04-.04-.05-.26-.29-.52-.55-.78-.81-.18-.16-.34-.33-.52-.48-.16-.16-.34-.31-.52-.47-.07-.07-.15-.14-.22-.19-1.22-.99-2.59-1.86-4.08-2.51" style="fill: none; stroke: #8cb6c8; stroke-miterlimit: 10; stroke-width: .62px;"/>
              <path d="M68.19,80.78c0-.2-.17-3.57-.23-5.53-.01-.27-.04-.89-.07-1.32-.01-.28-.03-.55-.04-.83-.02-.3-.04-.61-.06-.91-.1-1.55-.2-2.97-.32-3.78-.07-.44-.14-.89-.22-1.34-.1-.53-.19-1.07-.3-1.6,0-.03-.01-.05-.01-.08-.1-.47-.18-.93-.29-1.4-.04-.23-.09-.47-.15-.7-.15-.62-.3-1.23-.47-1.85,0-.04-.01-.08-.03-.11-.05-.23-.11-.44-.18-.66-.01-.05-.03-.1-.04-.15-.1-.39-.21-.77-.33-1.16-.05-.15-.09-.3-.14-.45-.04-.12-.07-.24-.11-.35,0-.01-.01-.02-.01-.03,0-.02-.01-.04-.01-.05-.05-.16-.11-.32-.16-.47,0,0,0-.01,0-.01,0-.01,0-.01,0-.02,0-.02-.01-.03-.02-.05,0-.01-.01-.03-.01-.03,0-.02-.01-.04-.02-.06-.07-.19-.14-.38-.21-.57,0,0,0-.01,0-.02,0-.01,0-.02,0-.03-.08-.21-.16-.43-.24-.63,0,0,0-.01,0-.01-.05-.15-.11-.29-.16-.43-.09-.21-.16-.43-.25-.63,0,0,0-.01,0-.01-.07-.18-.14-.36-.21-.53-.01-.03-.03-.06-.04-.09-.1-.23-.19-.46-.29-.68-.11-.26-.23-.52-.34-.76-.21-.44-.41-.87-.63-1.3-.16-.31-.32-.62-.49-.92-.15-.28-.31-.56-.47-.83-.08-.14-.16-.27-.24-.41-.21-.34-.43-.68-.66-1.02s-.45-.65-.68-.97c-.28-.39-.58-.75-.89-1.11-.15-.18-.3-.37-.45-.53-.04-.04-.07-.08-.1-.11h-.01s-.03-.04-.04-.05c-.03-.03-.03-.04-.04-.05-.26-.29-.52-.55-.78-.81-.18-.16-.34-.33-.52-.48-.16-.16-.34-.31-.52-.47-.07-.07-.15-.14-.22-.19-1.22-.99-2.59-1.86-4.08-2.51" style="fill: none; stroke: #8cb6c8; stroke-miterlimit: 10; stroke-width: .62px;"/>
              <path d="M70.36,79.53c0-.2-.16-3.48-.22-5.53-.01-.29-.04-.89-.06-1.32,0-.28-.03-.55-.04-.83-.02-.3-.04-.61-.05-.91-.1-1.59-.19-3.01-.31-3.79-.07-.44-.14-.89-.22-1.34-.1-.53-.19-1.07-.3-1.6,0-.03-.01-.05-.01-.08-.1-.47-.18-.93-.29-1.4-.04-.23-.09-.47-.15-.7-.15-.62-.3-1.23-.47-1.85,0-.04-.01-.08-.03-.11-.05-.23-.12-.45-.18-.66-.01-.05-.03-.1-.04-.15-.11-.39-.21-.78-.34-1.17-.05-.15-.09-.3-.14-.46-.04-.12-.07-.24-.11-.36,0-.01-.01-.02-.01-.03,0-.02-.01-.04-.01-.05-.05-.16-.11-.32-.16-.47,0,0,0-.01,0-.01,0-.01,0-.01,0-.03,0-.02-.01-.03-.02-.05,0-.01-.01-.03-.01-.03,0-.02-.01-.04-.02-.06-.07-.2-.14-.39-.21-.58,0,0,0-.01,0-.02,0-.01,0-.02,0-.03-.08-.21-.16-.43-.24-.64,0,0,0-.01,0-.01-.05-.15-.11-.29-.16-.43-.09-.22-.16-.43-.25-.64,0,0,0-.01,0-.02-.07-.18-.15-.36-.22-.53-.01-.03-.03-.06-.04-.09-.1-.23-.19-.46-.29-.69-.12-.26-.23-.52-.35-.77-.21-.43-.41-.86-.63-1.28-.16-.3-.32-.61-.48-.91-.15-.27-.3-.55-.46-.82-.08-.14-.16-.27-.24-.4-.21-.34-.43-.67-.65-1s-.45-.65-.68-.97c-.28-.39-.58-.75-.89-1.11-.15-.18-.3-.37-.45-.53-.04-.04-.07-.08-.1-.11h-.01s-.03-.04-.04-.05c-.03-.03-.03-.04-.04-.05-.26-.29-.52-.55-.78-.81-.18-.16-.34-.33-.52-.48-.16-.16-.34-.31-.52-.47-.07-.07-.15-.14-.22-.19-1.22-.99-2.59-1.86-4.08-2.51" style="fill: none; stroke: #8cb6c8; stroke-miterlimit: 10; stroke-width: .62px;"/>
              <path d="M72.52,78.28c0-.19-.14-3.39-.21-5.53-.01-.31-.04-.89-.06-1.32,0-.28-.02-.55-.04-.83-.02-.3-.03-.61-.05-.91-.09-1.62-.18-3.05-.3-3.79-.07-.44-.14-.89-.22-1.34-.1-.53-.19-1.07-.3-1.6,0-.03-.01-.05-.01-.08-.1-.47-.18-.93-.29-1.4-.04-.23-.09-.47-.15-.7-.15-.62-.3-1.23-.47-1.85,0-.04-.01-.08-.03-.11-.05-.23-.12-.45-.18-.67-.01-.05-.03-.1-.04-.15-.11-.4-.22-.79-.34-1.18-.05-.15-.1-.31-.14-.46-.04-.12-.07-.24-.11-.36-.01-.01-.01-.02-.01-.03,0-.02-.01-.04-.01-.05-.05-.17-.11-.32-.16-.48,0,0,0-.01,0-.01,0-.01,0-.01,0-.03,0-.02-.01-.03-.02-.05,0-.01-.01-.03-.01-.03,0-.02-.02-.04-.02-.06-.07-.2-.14-.39-.21-.59,0,0,0-.01,0-.02,0-.01,0-.02,0-.03-.08-.22-.16-.43-.24-.65,0-.01,0-.01,0-.01-.05-.15-.11-.3-.17-.44-.09-.22-.17-.44-.25-.64,0,0,0-.01,0-.02-.07-.18-.15-.36-.22-.54-.01-.03-.03-.06-.04-.09-.1-.23-.2-.47-.3-.69-.12-.26-.23-.52-.35-.78-.2-.43-.4-.84-.62-1.26-.16-.3-.31-.6-.48-.89-.15-.27-.3-.54-.45-.8-.08-.13-.16-.27-.24-.4-.2-.33-.42-.66-.64-.99s-.45-.65-.68-.97c-.28-.39-.58-.75-.89-1.11-.15-.18-.3-.37-.45-.53-.04-.04-.07-.08-.1-.11h-.01s-.03-.04-.04-.05c-.03-.03-.03-.04-.04-.05-.26-.29-.52-.55-.78-.81-.18-.16-.34-.33-.52-.48-.16-.16-.34-.31-.52-.47-.07-.07-.15-.14-.22-.19-1.22-.99-2.59-1.86-4.08-2.51" style="fill: none; stroke: #8cb6c8; stroke-miterlimit: 10; stroke-width: .62px;"/>
              <path d="M74.69,77.03c0-.18-.13-3.29-.19-5.53-.01-.33-.04-.89-.06-1.32,0-.28-.02-.55-.04-.83-.01-.31-.03-.61-.05-.92-.09-1.65-.17-3.1-.28-3.79-.07-.44-.14-.89-.22-1.34-.1-.53-.19-1.07-.3-1.6,0-.03-.01-.05-.01-.08-.1-.47-.18-.93-.29-1.4-.04-.23-.09-.47-.15-.7-.15-.62-.3-1.23-.47-1.85,0-.04-.01-.08-.03-.11-.05-.23-.12-.45-.18-.67-.01-.05-.03-.1-.04-.15-.11-.4-.22-.79-.35-1.19-.05-.15-.1-.31-.14-.47-.04-.12-.07-.24-.11-.36-.01-.01-.01-.02-.01-.03,0-.02-.01-.04-.01-.05-.05-.17-.11-.32-.16-.48,0,0,0-.01,0-.01,0-.01,0-.01,0-.03,0-.02-.01-.03-.02-.05,0-.01-.01-.03-.01-.03,0-.02-.02-.04-.02-.06-.07-.2-.14-.4-.21-.59,0,0,0-.01,0-.02,0-.01,0-.02,0-.03-.08-.22-.16-.44-.24-.65,0-.01,0-.01,0-.01-.05-.15-.11-.3-.17-.44-.09-.22-.17-.44-.26-.65,0,0,0-.01,0-.02-.07-.18-.15-.37-.22-.54-.01-.03-.03-.06-.04-.09-.1-.24-.2-.47-.3-.7-.12-.26-.23-.53-.36-.78-.2-.42-.4-.83-.61-1.24-.15-.29-.31-.59-.47-.88-.15-.26-.29-.53-.45-.79-.08-.13-.16-.26-.23-.39-.2-.33-.41-.65-.63-.97s-.45-.65-.68-.97c-.28-.39-.58-.75-.89-1.11-.15-.18-.3-.37-.45-.53-.04-.04-.07-.08-.1-.11h-.01s-.03-.04-.04-.05c-.03-.03-.03-.04-.04-.05-.26-.29-.52-.55-.78-.81-.18-.16-.34-.33-.52-.48-.16-.16-.34-.31-.52-.47-.07-.07-.15-.14-.22-.19-1.22-.99-2.59-1.86-4.08-2.51" style="fill: none; stroke: #8cb6c8; stroke-miterlimit: 10; stroke-width: .62px;"/>
              <path d="M76.85,75.77c0-.17-.11-3.2-.18-5.52-.01-.35-.03-.89-.05-1.32,0-.28-.02-.55-.03-.83-.01-.31-.03-.61-.04-.92-.09-1.68-.17-3.14-.27-3.79-.07-.44-.14-.89-.22-1.34-.1-.53-.19-1.07-.3-1.6,0-.03-.01-.05-.01-.08-.1-.47-.18-.93-.29-1.4-.04-.23-.09-.47-.15-.7-.15-.62-.3-1.23-.47-1.85,0-.04-.01-.08-.03-.11-.05-.24-.12-.46-.18-.68-.01-.05-.03-.1-.04-.16-.11-.4-.22-.8-.35-1.2-.05-.15-.1-.31-.15-.47-.04-.12-.08-.25-.12-.37-.01-.01-.01-.02-.01-.03,0-.02-.01-.04-.01-.05-.05-.17-.11-.33-.17-.49,0,0,0-.01,0-.01,0-.01,0-.01,0-.03,0-.02-.01-.04-.02-.05,0-.01-.01-.03-.01-.03,0-.02-.02-.04-.02-.06-.07-.2-.14-.4-.21-.6,0,0,0-.01,0-.02,0-.01,0-.02,0-.03-.08-.22-.16-.44-.25-.66,0-.01,0-.01,0-.01-.05-.16-.12-.3-.17-.45-.09-.22-.17-.44-.26-.66,0,0,0-.01,0-.02-.07-.19-.15-.37-.22-.55-.01-.03-.03-.06-.04-.09-.1-.24-.2-.47-.31-.71-.12-.27-.24-.53-.36-.79-.2-.41-.4-.81-.61-1.22-.15-.29-.3-.58-.46-.86-.14-.26-.29-.52-.44-.78-.08-.13-.15-.26-.23-.38-.2-.32-.41-.64-.62-.95s-.45-.65-.68-.97c-.28-.39-.58-.75-.89-1.11-.15-.18-.3-.37-.45-.53-.04-.04-.07-.08-.1-.11h-.01s-.03-.04-.04-.05c-.03-.03-.03-.04-.04-.05-.26-.29-.52-.55-.78-.81-.18-.16-.34-.33-.52-.48-.16-.16-.34-.31-.52-.47-.07-.07-.15-.14-.22-.19-1.22-.99-2.59-1.86-4.08-2.51" style="fill: none; stroke: #8cb6c8; stroke-miterlimit: 10; stroke-width: .62px;"/>
              <path d="M79.02,74.52c0-.17-.1-3.11-.17-5.52-.01-.36-.03-.89-.05-1.32,0-.28-.02-.55-.03-.83-.01-.31-.03-.61-.04-.92-.08-1.71-.16-3.19-.25-3.8-.07-.44-.14-.89-.22-1.34-.1-.53-.19-1.07-.3-1.6,0-.03-.01-.05-.01-.08-.1-.47-.18-.93-.29-1.4-.04-.23-.09-.47-.15-.7-.15-.62-.3-1.23-.47-1.85,0-.04-.01-.08-.03-.11-.05-.24-.12-.46-.18-.69-.01-.05-.03-.1-.04-.16-.11-.41-.22-.81-.35-1.22-.05-.16-.1-.32-.15-.47-.04-.12-.08-.25-.12-.37-.01-.01-.01-.03-.01-.03,0-.03-.01-.04-.01-.05-.05-.17-.12-.33-.17-.49,0,0,0-.01,0-.01,0-.01,0-.01,0-.03,0-.02-.01-.04-.02-.05,0-.01,0-.03-.01-.04,0-.02-.02-.04-.02-.07-.07-.2-.14-.4-.22-.6,0,0,0-.01,0-.02,0-.01,0-.02,0-.03-.08-.22-.17-.45-.25-.66,0-.01,0-.01,0-.01-.05-.16-.12-.3-.17-.45-.09-.22-.17-.45-.26-.66,0,0,0-.01,0-.02-.07-.19-.15-.37-.23-.55-.01-.03-.03-.06-.04-.1-.1-.24-.21-.48-.31-.71-.12-.27-.24-.54-.37-.8-.2-.4-.39-.8-.6-1.19-.15-.28-.3-.57-.46-.85-.14-.25-.29-.51-.43-.76-.07-.13-.15-.25-.23-.38-.19-.32-.4-.63-.61-.94-.22-.33-.45-.65-.68-.97-.28-.39-.58-.75-.89-1.11-.15-.18-.3-.37-.45-.53-.04-.04-.07-.08-.1-.11h-.01s-.03-.04-.04-.05c-.03-.03-.03-.04-.04-.05-.26-.29-.52-.55-.78-.81-.18-.16-.34-.33-.52-.48-.16-.16-.34-.31-.52-.47-.07-.07-.15-.14-.22-.19-1.22-.99-2.59-1.86-4.08-2.51" style="fill: none; stroke: #8cb6c8; stroke-miterlimit: 10; stroke-width: .62px;"/>
              <path d="M81.18,73.27c0-.16-.09-3.01-.15-5.52-.01-.38-.03-.89-.05-1.32,0-.28-.02-.55-.03-.83-.01-.31-.03-.62-.04-.92-.08-1.74-.15-3.23-.24-3.8-.07-.44-.14-.89-.22-1.34-.1-.53-.19-1.07-.3-1.6,0-.03-.01-.05-.01-.08-.1-.47-.18-.93-.29-1.4-.04-.23-.09-.47-.15-.7-.15-.62-.3-1.23-.47-1.85,0-.04-.01-.08-.03-.11-.05-.24-.12-.47-.19-.69-.01-.05-.03-.11-.04-.16-.11-.41-.22-.82-.36-1.23-.05-.16-.1-.32-.15-.48-.04-.13-.08-.25-.12-.37-.01-.01-.01-.03-.01-.03,0-.03-.01-.04-.01-.05-.05-.17-.12-.33-.17-.49,0,0,0-.01,0-.01,0-.01,0-.01,0-.03,0-.02-.01-.04-.02-.05,0-.01,0-.03-.01-.04,0-.02-.02-.04-.02-.07-.07-.2-.15-.41-.22-.61,0,0,0-.01,0-.02,0-.01,0-.02-.01-.03-.08-.23-.17-.45-.25-.67,0-.01,0-.01,0-.01-.05-.16-.12-.31-.17-.45-.09-.23-.17-.45-.27-.67,0,0,0-.01,0-.02-.08-.19-.15-.38-.23-.56-.01-.03-.03-.06-.04-.1-.1-.24-.21-.48-.31-.72-.12-.27-.24-.54-.37-.8-.19-.39-.39-.78-.59-1.17-.15-.28-.29-.56-.45-.83-.14-.25-.28-.5-.43-.75-.07-.12-.15-.25-.22-.37-.19-.31-.39-.62-.6-.92-.22-.33-.45-.65-.68-.97-.28-.39-.58-.75-.89-1.11-.15-.18-.3-.37-.45-.53-.04-.04-.07-.08-.1-.11h-.01s-.03-.04-.04-.05c-.03-.03-.03-.04-.04-.05-.26-.29-.52-.55-.78-.81-.18-.16-.34-.33-.52-.48-.16-.16-.34-.31-.52-.47-.07-.07-.15-.14-.22-.19-1.22-.99-2.59-1.86-4.08-2.51" style="fill: none; stroke: #8cb6c8; stroke-miterlimit: 10; stroke-width: .62px;"/>
              <path d="M83.35,72.02c0-.15-.07-2.92-.14-5.52-.01-.4-.03-.89-.04-1.32,0-.28-.02-.55-.03-.83-.01-.31-.02-.62-.03-.92-.07-1.77-.14-3.28-.22-3.8-.07-.44-.14-.89-.22-1.34-.1-.53-.19-1.07-.3-1.6,0-.03-.01-.05-.01-.08-.1-.47-.18-.93-.29-1.4-.04-.23-.09-.47-.15-.7-.15-.62-.3-1.23-.47-1.85,0-.04-.01-.08-.03-.11-.05-.24-.12-.47-.19-.7-.01-.05-.03-.11-.04-.16-.11-.41-.23-.82-.36-1.24-.05-.16-.1-.32-.15-.48-.04-.13-.08-.25-.12-.38-.01-.01-.01-.03-.01-.03,0-.03-.01-.04-.01-.05-.05-.17-.12-.34-.17-.5,0,0,0-.01,0-.01,0-.01,0-.01,0-.03,0-.02-.01-.04-.02-.05,0-.01,0-.02-.01-.04,0-.02-.02-.04-.02-.07-.07-.2-.15-.41-.22-.61,0,0,0-.01,0-.02,0-.01,0-.02-.01-.03-.08-.23-.17-.45-.26-.68,0-.01,0-.01,0-.01-.05-.16-.12-.31-.17-.46-.09-.23-.17-.46-.27-.67,0,0,0-.01,0-.02-.08-.19-.16-.38-.23-.56-.01-.03-.03-.06-.04-.1-.11-.24-.21-.49-.32-.72-.12-.27-.24-.55-.38-.81-.19-.39-.38-.77-.59-1.15-.14-.27-.29-.55-.44-.82-.14-.25-.28-.49-.42-.73-.07-.12-.15-.24-.22-.36-.19-.3-.39-.61-.59-.9-.22-.33-.45-.65-.68-.97-.28-.39-.58-.75-.89-1.11-.15-.18-.3-.37-.45-.53-.04-.04-.07-.08-.1-.11h-.01s-.03-.04-.04-.05c-.03-.03-.03-.04-.04-.05-.26-.29-.52-.55-.78-.81-.18-.16-.34-.33-.52-.48-.16-.16-.34-.31-.52-.47-.07-.07-.15-.14-.22-.19-1.22-.99-2.59-1.86-4.08-2.51" style="fill: none; stroke: #8cb6c8; stroke-miterlimit: 10; stroke-width: .62px;"/>
              <path d="M85.51,70.76c0-.15-.06-2.82-.13-5.52-.01-.42-.02-.89-.04-1.33,0-.28-.02-.56-.03-.83-.01-.31-.02-.62-.03-.92-.06-1.81-.13-3.32-.21-3.8-.07-.44-.14-.89-.22-1.34-.1-.53-.19-1.07-.3-1.6,0-.03-.01-.05-.01-.08-.1-.47-.18-.93-.29-1.4-.04-.23-.09-.47-.15-.7-.15-.62-.3-1.23-.47-1.85,0-.04-.01-.08-.03-.11-.05-.24-.13-.47-.19-.71-.01-.05-.03-.11-.04-.16-.11-.42-.23-.83-.36-1.25-.05-.16-.1-.32-.15-.49-.04-.13-.08-.26-.12-.38-.01-.01-.01-.03-.01-.03,0-.03-.01-.04-.01-.05-.05-.18-.12-.34-.18-.5,0,0,0-.01,0-.01,0-.01,0-.01,0-.03,0-.02-.01-.04-.02-.05,0-.01,0-.02-.01-.04,0-.02-.02-.04-.02-.07-.07-.21-.15-.41-.22-.62,0,0,0-.01,0-.02,0-.01,0-.02-.01-.03-.09-.23-.17-.46-.26-.68,0-.01,0-.01,0-.01-.05-.16-.12-.31-.18-.46-.1-.23-.18-.46-.27-.68,0,0,0-.01,0-.02-.08-.19-.16-.38-.24-.57-.01-.03-.03-.07-.04-.1-.11-.25-.21-.49-.32-.73-.12-.28-.25-.55-.38-.82-.19-.38-.38-.75-.58-1.13-.14-.27-.28-.54-.43-.8-.14-.24-.27-.48-.41-.72-.07-.12-.14-.24-.22-.36-.19-.3-.38-.59-.58-.89-.22-.33-.45-.65-.68-.97-.28-.39-.58-.75-.89-1.11-.15-.18-.3-.37-.45-.53-.04-.04-.07-.08-.1-.11h-.01s-.03-.04-.04-.05c-.03-.03-.03-.04-.04-.05-.26-.29-.52-.55-.78-.81-.18-.16-.34-.33-.52-.48-.16-.16-.34-.31-.52-.47-.07-.07-.15-.14-.22-.19-1.22-.99-2.59-1.86-4.08-2.51" style="fill: none; stroke: #8cb6c8; stroke-miterlimit: 10; stroke-width: .62px;"/>
              <path d="M87.68,69.51c0-.29-.19-11.09-.4-12.41-.07-.44-.14-.89-.22-1.34-.1-.53-.19-1.07-.3-1.6,0-.03-.01-.05-.01-.08-.1-.47-.18-.93-.29-1.4-.04-.23-.1-.47-.15-.7-.15-.62-.3-1.23-.47-1.85,0-.04-.01-.08-.03-.11-.05-.25-.12-.48-.19-.71-.12-.48-.26-.94-.41-1.42-.1-.29-.18-.59-.27-.88-.01-.01-.01-.03-.01-.03,0-.03-.01-.04-.01-.05-.05-.18-.12-.34-.18-.51h0v-.04c-.18-.51-.37-1.03-.56-1.52h0c-.05-.18-.12-.33-.18-.48-.1-.23-.18-.47-.27-.68-.1-.23-.19-.47-.29-.68-.23-.53-.47-1.05-.71-1.56-.19-.37-.37-.74-.57-1.11-.26-.51-.55-1-.83-1.49-.25-.41-.51-.82-.78-1.22-.22-.33-.45-.64-.68-.97-.29-.38-.57-.75-.89-1.11-.15-.18-.3-.37-.45-.53-.04-.04-.07-.08-.1-.11h-.01s-.03-.04-.04-.05c-.03-.03-.03-.04-.04-.05-.26-.29-.52-.55-.78-.81-.18-.16-.34-.33-.52-.48-.16-.16-.34-.31-.52-.47-.07-.07-.15-.14-.22-.19-1.22-1-2.59-1.86-4.08-2.51" style="fill: none; stroke: #8cb6c8; stroke-miterlimit: 10; stroke-width: .62px;"/>
            </g>
          </g>
          <line x1="25.87" y1="56.91" x2="117.98" y2="4.11" style="fill: none; stroke: #8cb6c8; stroke-linecap: round; stroke-linejoin: round; stroke-width: .62px;"/>
        </g>
      </g>
    </g>
  </g>
</svg>