<?xml version="1.0" encoding="UTF-8"?>
<svg xmlns="http://www.w3.org/2000/svg" viewBox="0 0 100 100">
  <g style="isolation: isolate;">
    <g id="uuid-32672f31-ffb1-437b-b08c-8fef6b9a4987" data-name="圖層 1">
      <g>
        <polygon points="37.88 80.53 63.01 93.77 91.4 76.46 69.34 63.29 37.88 80.53" style="fill: #afafaf; mix-blend-mode: multiply; opacity: .5;"/>
        <g>
          <polygon points="83.8 34.18 55.22 50.49 13.89 26.63 43.46 10.9 83.8 34.18" style="fill: #b1aaa5;"/>
          <polygon points="55.22 50.39 55.22 92.4 14.8 68.77 13.89 26.53 55.22 50.39" style="fill: #f2eee0;"/>
          <polygon points="83.8 34.24 55.22 50.39 55.22 92.35 83.8 74.89 83.8 34.24" style="fill: #d3ccbb;"/>
          <polygon points="83.8 34.18 83.8 36.93 55.17 53.18 55.2 50.36 83.8 34.18" style="fill: #8f857b;"/>
          <polygon points="55.22 50.36 55.18 53.18 13.95 29.39 13.89 26.5 55.22 50.36" style="fill: #a29d98;"/>
          <g>
            <polygon points="70.81 48.58 70.81 57.43 60.04 63.73 60.04 54.89 70.81 48.58" style="fill: #b6d7d8;"/>
            <polygon points="70.17 50.14 67.48 51.69 67.48 58 70.17 56.44 70.17 50.14" style="fill: #767787;"/>
            <polygon points="66.81 52.08 64.12 53.64 64.12 59.95 66.81 58.38 66.81 52.08" style="fill: #767787;"/>
            <polygon points="63.4 54.07 60.71 55.63 60.71 61.94 63.4 60.37 63.4 54.07" style="fill: #767787;"/>
            <polygon points="59.41 54.65 60.04 54.89 70.81 48.58 70.05 48.47 59.41 54.65" style="fill: #cee4e6;"/>
            <polygon points="70.17 50.14 70.17 56.44 69.77 56.29 69.77 50.37 70.17 50.14" style="fill: #a6c7c8;"/>
            <polygon points="70.17 56.44 69.77 56.29 67.48 57.56 67.48 58 70.17 56.44" style="fill: #cee4e6;"/>
            <polygon points="66.82 52.1 66.82 58.39 66.42 58.25 66.42 52.33 66.82 52.1" style="fill: #a6c7c8;"/>
            <polygon points="66.81 58.39 66.41 58.25 64.12 59.51 64.12 59.96 66.81 58.39" style="fill: #cee4e6;"/>
            <polygon points="63.41 54.09 63.41 60.38 63.01 60.24 63.01 54.32 63.41 54.09" style="fill: #a6c7c8;"/>
            <polygon points="63.41 60.38 63.01 60.24 60.72 61.5 60.72 61.95 63.41 60.38" style="fill: #cee4e6;"/>
            <polygon points="60.04 54.87 59.41 54.63 59.41 63.3 60.04 63.71 60.04 54.87" style="fill: #a6c7c8;"/>
          </g>
          <g>
            <polygon points="81.53 56.19 81.53 65.04 70.76 71.35 70.76 62.5 81.53 56.19" style="fill: #b6d7d8;"/>
            <polygon points="80.88 57.75 78.19 59.31 78.19 65.62 80.88 64.05 80.88 57.75" style="fill: #767787;"/>
            <polygon points="77.53 59.7 74.84 61.25 74.84 67.56 77.53 66 77.53 59.7" style="fill: #767787;"/>
            <polygon points="74.11 61.69 71.42 63.24 71.42 69.55 74.11 67.98 74.11 61.69" style="fill: #767787;"/>
            <polygon points="70.12 62.26 70.76 62.5 81.53 56.19 80.76 56.08 70.12 62.26" style="fill: #cee4e6;"/>
            <polygon points="80.88 57.75 80.88 64.05 80.49 63.9 80.49 57.98 80.88 57.75" style="fill: #a6c7c8;"/>
            <polygon points="80.88 64.05 80.49 63.9 78.19 65.17 78.19 65.62 80.88 64.05" style="fill: #cee4e6;"/>
            <polygon points="77.53 59.71 77.53 66.01 77.13 65.86 77.13 59.94 77.53 59.71" style="fill: #a6c7c8;"/>
            <polygon points="77.53 66.01 77.13 65.86 74.84 67.12 74.84 67.57 77.53 66.01" style="fill: #cee4e6;"/>
            <polygon points="74.12 61.7 74.12 68 73.72 67.85 73.72 61.93 74.12 61.7" style="fill: #a6c7c8;"/>
            <polygon points="74.12 68 73.72 67.85 71.43 69.12 71.43 69.56 74.12 68" style="fill: #cee4e6;"/>
            <polygon points="70.76 62.48 70.12 62.25 70.12 70.91 70.76 71.33 70.76 62.48" style="fill: #a6c7c8;"/>
          </g>
          <g>
            <polygon points="65.38 27.27 55.19 32.99 38.95 23.74 48.74 17.9 65.38 27.27" style="fill: #c1bfbe;"/>
            <polygon points="48.74 17.9 48.74 20.35 65.23 29.69 65.38 27.27 48.74 17.9" style="fill: #999799;"/>
            <polygon points="65.23 29.69 55.19 35.49 55.19 32.99 65.38 27.27 65.23 29.69" style="fill: #cccdcc;"/>
            <polygon points="48.74 20.35 48.74 17.9 38.95 23.74 38.95 26.36 48.74 20.35" style="fill: #cccdcc;"/>
            <polygon points="55.19 32.99 55.19 35.49 38.95 26.36 38.95 23.74 55.19 32.99" style="fill: #999799;"/>
            <polygon points="65.38 27.27 64.89 27 54.66 32.69 55.19 32.99 65.38 27.27" style="fill: #dfdfdf;"/>
            <polygon points="65.38 27.27 48.74 17.9 48.19 18.23 64.8 27.6 65.38 27.27" style="fill: #dfdfdf;"/>
            <polygon points="48.74 17.9 38.95 23.74 39.49 24.05 49.18 18.14 48.74 17.9" style="fill: #dfdfdf;"/>
            <polygon points="55.19 32.99 38.95 23.74 39.63 23.33 55.73 32.69 55.19 32.99" style="fill: #dfdfdf;"/>
          </g>
          <g>
            <polygon points="35.73 60 35.73 69.54 47.36 76.35 47.36 66.8 35.73 60" style="fill: #b9ddde;"/>
            <polygon points="36.42 61.68 39.33 63.36 39.33 70.17 36.42 68.48 36.42 61.68" style="fill: #787989;"/>
            <polygon points="40.05 63.78 42.95 65.46 42.95 72.27 40.05 70.58 40.05 63.78" style="fill: #787989;"/>
            <polygon points="43.73 65.92 46.64 67.6 46.64 74.41 43.73 72.72 43.73 65.92" style="fill: #787989;"/>
            <polygon points="48.04 66.55 47.36 66.8 35.73 60 36.56 59.88 48.04 66.55" style="fill: #d2e8ea;"/>
            <polygon points="36.42 61.68 36.42 68.48 36.86 68.32 36.86 61.93 36.42 61.68" style="fill: #aacccd;"/>
            <polygon points="36.42 68.48 36.86 68.32 39.33 69.68 39.33 70.17 36.42 68.48" style="fill: #d2e8ea;"/>
            <polygon points="40.05 63.79 40.05 70.59 40.48 70.43 40.48 64.04 40.05 63.79" style="fill: #aacccd;"/>
            <polygon points="40.05 70.59 40.48 70.43 42.95 71.79 42.95 72.28 40.05 70.59" style="fill: #d2e8ea;"/>
            <polygon points="43.73 65.94 43.73 72.74 44.16 72.58 44.16 66.19 43.73 65.94" style="fill: #aacccd;"/>
            <polygon points="43.73 72.74 44.16 72.58 46.63 73.94 46.63 74.43 43.73 72.74" style="fill: #d2e8ea;"/>
            <polygon points="47.36 66.78 48.04 66.53 48.04 75.88 47.36 76.33 47.36 66.78" style="fill: #aacccd;"/>
          </g>
        </g>
      </g>
    </g>
  </g>
</svg>