<?xml version="1.0" encoding="UTF-8"?>
<svg xmlns="http://www.w3.org/2000/svg" viewBox="0 0 100 100">
  <g style="isolation: isolate;">
    <g id="uuid-9425e54c-3471-4e6a-989a-ffd06687725d" data-name="圖層 1">
      <g>
        <polygon points="22.27 82.51 41.25 94.76 81.36 72.33 65.61 63.7 22.27 82.51" style="fill: #afafaf; mix-blend-mode: multiply; opacity: .5;"/>
        <g>
          <g>
            <polygon points="18.64 27.49 37.91 38.62 77.4 15.82 57.18 5.24 18.64 27.49" style="fill: #b2aba7;"/>
            <polygon points="37.91 38.62 37.91 94.25 76.45 72 77.4 15.82 37.91 38.62" style="fill: #d3ccbb;"/>
            <polygon points="18.64 27.54 37.91 38.67 37.91 94.3 18.64 81.93 18.64 27.54" style="fill: #f2eee0;"/>
            <polygon points="18.64 27.49 18.64 30.12 37.94 41.31 37.91 38.62 18.64 27.49" style="fill: #a29d98;"/>
            <polygon points="37.91 38.62 37.94 41.31 77.4 18.6 77.4 15.82 37.91 38.62" style="fill: #8f857b;"/>
            <g>
              <polygon points="22.24 35.89 22.24 44.34 32.53 50.37 32.53 41.92 22.24 35.89" style="fill: #b9ddde;"/>
              <polygon points="22.86 37.38 25.43 38.87 25.43 44.9 22.86 43.4 22.86 37.38" style="fill: #787989;"/>
              <polygon points="26.07 39.24 28.64 40.73 28.64 46.76 26.07 45.26 26.07 39.24" style="fill: #787989;"/>
              <polygon points="29.33 41.14 31.9 42.62 31.9 48.65 29.33 47.16 29.33 41.14" style="fill: #787989;"/>
              <polygon points="33.14 41.69 32.53 41.92 22.24 35.89 22.98 35.79 33.14 41.69" style="fill: #d2e8ea;"/>
              <polygon points="22.86 37.38 22.86 43.4 23.24 43.26 23.24 37.6 22.86 37.38" style="fill: #aacccd;"/>
              <polygon points="22.86 43.4 23.24 43.26 25.43 44.47 25.43 44.9 22.86 43.4" style="fill: #d2e8ea;"/>
              <polygon points="26.06 39.25 26.06 45.27 26.44 45.13 26.44 39.47 26.06 39.25" style="fill: #aacccd;"/>
              <polygon points="26.07 45.27 26.45 45.13 28.64 46.34 28.64 46.77 26.07 45.27" style="fill: #d2e8ea;"/>
              <polygon points="29.32 41.15 29.32 47.17 29.7 47.03 29.7 41.37 29.32 41.15" style="fill: #aacccd;"/>
              <polygon points="29.32 47.17 29.7 47.03 31.89 48.24 31.89 48.67 29.32 47.17" style="fill: #d2e8ea;"/>
              <polygon points="32.53 41.9 33.14 41.68 33.14 49.96 32.53 50.35 32.53 41.9" style="fill: #aacccd;"/>
            </g>
            <g>
              <polygon points="22.24 48.77 22.24 57.23 32.53 63.25 32.53 54.8 22.24 48.77" style="fill: #b9ddde;"/>
              <polygon points="22.86 50.26 25.43 51.75 25.43 57.78 22.86 56.28 22.86 50.26" style="fill: #787989;"/>
              <polygon points="26.07 52.12 28.64 53.61 28.64 59.64 26.07 58.14 26.07 52.12" style="fill: #787989;"/>
              <polygon points="29.33 54.02 31.9 55.51 31.9 61.54 29.33 60.04 29.33 54.02" style="fill: #787989;"/>
              <polygon points="33.14 54.57 32.53 54.8 22.24 48.77 22.98 48.67 33.14 54.57" style="fill: #d2e8ea;"/>
              <polygon points="22.86 50.26 22.86 56.28 23.24 56.14 23.24 50.48 22.86 50.26" style="fill: #aacccd;"/>
              <polygon points="22.86 56.28 23.24 56.14 25.43 57.35 25.43 57.78 22.86 56.28" style="fill: #d2e8ea;"/>
              <polygon points="26.06 52.13 26.06 58.15 26.44 58.01 26.44 52.35 26.06 52.13" style="fill: #aacccd;"/>
              <polygon points="26.07 58.15 26.45 58.01 28.64 59.22 28.64 59.65 26.07 58.15" style="fill: #d2e8ea;"/>
              <polygon points="29.32 54.04 29.32 60.05 29.7 59.91 29.7 54.26 29.32 54.04" style="fill: #aacccd;"/>
              <polygon points="29.32 60.05 29.7 59.91 31.89 61.12 31.89 61.55 29.32 60.05" style="fill: #d2e8ea;"/>
              <polygon points="32.53 54.78 33.14 54.56 33.14 62.84 32.53 63.24 32.53 54.78" style="fill: #aacccd;"/>
            </g>
            <g>
              <polygon points="22.24 62.21 22.24 70.66 32.53 76.69 32.53 68.24 22.24 62.21" style="fill: #b9ddde;"/>
              <polygon points="22.86 63.7 25.43 65.19 25.43 71.22 22.86 69.72 22.86 63.7" style="fill: #787989;"/>
              <polygon points="26.07 65.56 28.64 67.04 28.64 73.07 26.07 71.58 26.07 65.56" style="fill: #787989;"/>
              <polygon points="29.33 67.46 31.9 68.94 31.9 74.97 29.33 73.48 29.33 67.46" style="fill: #787989;"/>
              <polygon points="33.14 68.01 32.53 68.24 22.24 62.21 22.98 62.1 33.14 68.01" style="fill: #d2e8ea;"/>
              <polygon points="22.86 63.7 22.86 69.72 23.24 69.58 23.24 63.92 22.86 63.7" style="fill: #aacccd;"/>
              <polygon points="22.86 69.72 23.24 69.58 25.43 70.79 25.43 71.22 22.86 69.72" style="fill: #d2e8ea;"/>
              <polygon points="26.06 65.57 26.06 71.59 26.44 71.45 26.44 65.79 26.06 65.57" style="fill: #aacccd;"/>
              <polygon points="26.07 71.59 26.45 71.45 28.64 72.66 28.64 73.08 26.07 71.59" style="fill: #d2e8ea;"/>
              <polygon points="29.32 67.47 29.32 73.49 29.7 73.35 29.7 67.69 29.32 67.47" style="fill: #aacccd;"/>
              <polygon points="29.32 73.49 29.7 73.35 31.89 74.56 31.89 74.99 29.32 73.49" style="fill: #d2e8ea;"/>
              <polygon points="32.53 68.22 33.14 67.99 33.14 76.28 32.53 76.67 32.53 68.22" style="fill: #aacccd;"/>
            </g>
          </g>
          <g>
            <polygon points="36.23 20.89 45.97 26.35 61.49 17.51 52.13 11.93 36.23 20.89" style="fill: #c2c0bf;"/>
            <polygon points="52.13 11.93 52.13 14.28 36.37 23.2 36.23 20.89 52.13 11.93" style="fill: #9a999a;"/>
            <polygon points="36.37 23.2 45.97 28.74 45.97 26.35 36.23 20.89 36.37 23.2" style="fill: #cdcecd;"/>
            <polygon points="52.13 14.28 52.13 11.93 61.49 17.51 61.49 20.02 52.13 14.28" style="fill: #cdcecd;"/>
            <polygon points="45.97 26.35 45.97 28.74 61.49 20.02 61.49 17.51 45.97 26.35" style="fill: #9a999a;"/>
          </g>
        </g>
      </g>
    </g>
  </g>
</svg>