<?xml version="1.0" encoding="UTF-8"?>
<svg xmlns="http://www.w3.org/2000/svg" xmlns:xlink="http://www.w3.org/1999/xlink" viewBox="0 0 100 100">
  <defs>
    <clipPath id="uuid-d5926120-c4a2-4e6c-883b-b44b95376948">
      <path d="M62.26,72.06c-.61-2.56-4.82-4.54-9.91-4.54-4.48,0-8.27,1.53-9.53,3.64l4.35-60.82c.6,1.2,2.69,2.08,5.18,2.08s4.62-.9,5.21-2.12l4.7,61.76Z" style="fill: none;"/>
    </clipPath>
    <clipPath id="uuid-ebc60604-cf30-4f9c-8196-a5bcda7d16cb">
      <path d="M62.33,72.71c0,.06,0,.13,0,.19-.19,2.78-4.58,5-9.97,5-4.74,0-8.7-1.72-9.73-4.02-.17-.38-.26-.77-.26-1.17,0-.54.16-1.05.45-1.55,1.27-2.11,5.05-3.64,9.53-3.64,5.09,0,9.3,1.98,9.91,4.54.05.22.07.43.07.65Z" style="fill: none;"/>
    </clipPath>
    <linearGradient id="uuid-cc8ed434-7dd4-4186-a5ac-b38576516b8a" data-name="未命名漸層 192" x1="26.6" y1="60.95" x2="51.13" y2="61.67" gradientUnits="userSpaceOnUse">
      <stop offset="0" stop-color="#d5d5d6"/>
      <stop offset="1" stop-color="#a4a3a4"/>
    </linearGradient>
    <linearGradient id="uuid-cd2d9c11-aa9c-4506-a7d9-5ccf1d7be590" data-name="未命名漸層 192" x1="35.09" y1="66.52" x2="58.35" y2="66.52" xlink:href="#uuid-cc8ed434-7dd4-4186-a5ac-b38576516b8a"/>
    <linearGradient id="uuid-968488dd-b405-4445-a988-e804c881de2c" data-name="未命名漸層 192" x1="45.83" y1="73.15" x2="62.78" y2="69.28" xlink:href="#uuid-cc8ed434-7dd4-4186-a5ac-b38576516b8a"/>
  </defs>
  <g style="isolation: isolate;">
    <g id="uuid-4fcbe9a8-04a9-4081-a04b-d11644e62dca" data-name="圖層 1">
      <g>
        <path d="M22.6,76.84c.43.48,29.15,16.33,29.15,16.33l14.24-9.04-11.18-6.83-32.22-.46Z" style="fill: #afafaf; mix-blend-mode: multiply; opacity: .5;"/>
        <polygon points="76.02 71.07 45.47 71.07 45.47 79.05 79.34 75.06 76.02 71.07" style="fill: #afafaf; mix-blend-mode: multiply; opacity: .5;"/>
        <g>
          <g>
            <path d="M62.33,72.71c0,.06,0,.13,0,.19-.19,2.78-4.58,5-9.97,5-4.74,0-8.7-1.72-9.73-4.02-.17-.38-.26-.77-.26-1.17,0-.54.16-1.05.45-1.55,1.27-2.11,5.05-3.64,9.53-3.64,5.09,0,9.3,1.98,9.91,4.54.05.22.07.43.07.65Z" style="fill: #f2f2f2;"/>
            <path d="M57.72,9.62c0,.23-.06.46-.17.68-.58,1.21-2.69,2.12-5.21,2.12s-4.58-.88-5.18-2.08c-.13-.23-.19-.47-.19-.72,0-.32.1-.64.3-.93.73-1.09,2.72-1.87,5.07-1.87s4.38.8,5.09,1.9c.19.28.29.58.29.89Z" style="fill: #dcdbdb;"/>
            <path d="M62.26,72.06c-.61-2.56-4.82-4.54-9.91-4.54-4.48,0-8.27,1.53-9.53,3.64l4.35-60.82c.6,1.2,2.69,2.08,5.18,2.08s4.62-.9,5.21-2.12l4.7,61.76Z" style="fill: #f2f2f2;"/>
            <g style="clip-path: url(#uuid-d5926120-c4a2-4e6c-883b-b44b95376948);">
              <path d="M63.91,22.47c-6.85,4.35-15.6,4.35-22.46,0,.78-2.64,1.55-5.28,2.33-7.93,5.43,3.45,12.37,3.45,17.8,0,.78,2.64,1.55,5.28,2.33,7.93Z" style="fill: #b83a3a;"/>
              <path d="M63.92,37.78c-6.85,4.35-15.61,4.35-22.46,0,.78-2.64,1.55-5.28,2.33-7.93,5.43,3.45,12.37,3.45,17.8,0,.78,2.64,1.55,5.28,2.33,7.93Z" style="fill: #b83a3a;"/>
              <path d="M63.91,53.08c-6.85,4.35-15.6,4.35-22.46,0,.78-2.64,1.55-5.28,2.33-7.93,5.43,3.45,12.37,3.45,17.8,0,.78,2.64,1.55,5.28,2.33,7.93Z" style="fill: #b83a3a;"/>
              <path d="M63.91,68.39c-6.85,4.35-15.6,4.35-22.46,0,.78-2.64,1.55-5.28,2.33-7.93,5.43,3.45,12.37,3.45,17.8,0,.78,2.64,1.55,5.28,2.33,7.93Z" style="fill: #b83a3a;"/>
            </g>
            <g style="clip-path: url(#uuid-ebc60604-cf30-4f9c-8196-a5bcda7d16cb);">
              <path d="M63.91,68.39c-6.85,4.35-15.6,4.35-22.46,0,.78-2.64,1.55-5.28,2.33-7.93,5.43,3.45,12.37,3.45,17.8,0,.78,2.64,1.55,5.28,2.33,7.93Z" style="fill: #b83a3a;"/>
            </g>
          </g>
          <g style="mix-blend-mode: multiply; opacity: .5;">
            <path d="M53.8,12.45c-.37,0-.72-.11-1.02-.3-1.36,21.68-2.73,43.35-4.09,65.02,3.4.21,6.81.21,10.21,0-1.36-21.68-2.73-43.35-4.09-65.03-.3.19-.64.31-1.02.31Z" style="fill: #afafaf;"/>
          </g>
          <g>
            <g>
              <path d="M20.66,62.32c2.96,1.65,5.43,3.29,8.39,4.94v14.81c-2.96-1.65-5.43-3.29-8.39-4.94v-14.81Z" style="fill: #bcbcbc;"/>
              <path d="M29.05,67.26c4.44-2.47,8.88-4.94,13.33-7.4-2.96-1.65-5.92-3.29-8.88-4.94-4.28,2.47-8.55,4.94-12.83,7.4,2.8,1.65,5.59,3.29,8.39,4.94Z" style="fill: url(#uuid-cc8ed434-7dd4-4186-a5ac-b38576516b8a);"/>
              <path d="M29.05,67.26c4.44-2.47,8.88-4.94,13.33-7.4v14.81c-4.44,2.47-8.88,4.94-13.33,7.4" style="fill: #8e8e8e;"/>
            </g>
            <g>
              <path d="M30.04,67.75c2.96,1.65,5.43,3.29,8.39,4.94v14.81c-2.96-1.65-5.43-3.29-8.39-4.94v-14.81Z" style="fill: #bcbcbc;"/>
              <path d="M38.43,72.69c4.44-2.47,8.88-4.94,13.33-7.4-2.96-1.65-5.92-3.29-8.88-4.94-4.28,2.47-8.55,4.94-12.83,7.4,2.8,1.65,5.59,3.29,8.39,4.94Z" style="fill: url(#uuid-cd2d9c11-aa9c-4506-a7d9-5ccf1d7be590);"/>
              <path d="M38.43,72.69c4.44-2.47,8.88-4.94,13.33-7.4v14.81c-4.44,2.47-8.88,4.94-13.33,7.4" style="fill: #8e8e8e;"/>
            </g>
            <g>
              <path d="M39.42,73.43c2.96,1.65,5.43,3.29,8.39,4.94v14.81c-2.96-1.65-5.43-3.29-8.39-4.94v-14.81Z" style="fill: #bcbcbc;"/>
              <path d="M47.81,78.36c4.44-2.47,8.88-4.94,13.33-7.4-2.96-1.65-5.92-3.29-8.88-4.94-4.28,2.47-8.55,4.94-12.83,7.4,2.8,1.65,5.59,3.29,8.39,4.94Z" style="fill: url(#uuid-968488dd-b405-4445-a988-e804c881de2c);"/>
              <path d="M47.81,78.36c4.44-2.47,8.88-4.94,13.33-7.4v14.38c-4.44,2.47-8.88,5.36-13.33,7.83" style="fill: #8e8e8e;"/>
            </g>
            <g>
              <polygon points="27.91 68.98 21.77 65.45 21.83 64.06 27.94 67.59 27.91 68.98" style="fill: #8e8e8e;"/>
              <polygon points="27.91 71.44 21.77 67.91 21.83 66.52 27.94 70.05 27.91 71.44" style="fill: #8e8e8e;"/>
              <polygon points="27.91 73.9 21.77 70.37 21.83 68.98 27.94 72.5 27.91 73.9" style="fill: #8e8e8e;"/>
            </g>
            <g>
              <polygon points="37.29 74.38 31.15 70.86 31.21 69.47 37.32 72.99 37.29 74.38" style="fill: #979696;"/>
              <polygon points="37.29 76.84 31.15 73.32 31.21 71.92 37.32 75.45 37.29 76.84" style="fill: #979696;"/>
              <polygon points="37.29 79.3 31.15 75.77 31.21 74.38 37.32 77.91 37.29 79.3" style="fill: #979696;"/>
            </g>
            <g>
              <polygon points="46.67 79.76 40.53 76.23 40.59 74.84 46.7 78.37 46.67 79.76" style="fill: #979696;"/>
              <polygon points="46.67 82.22 40.53 78.69 40.59 77.3 46.7 80.83 46.67 82.22" style="fill: #979696;"/>
              <polygon points="46.67 84.68 40.53 81.15 40.59 79.76 46.7 83.29 46.67 84.68" style="fill: #979696;"/>
            </g>
          </g>
        </g>
      </g>
    </g>
  </g>
</svg>