<?xml version="1.0" encoding="UTF-8"?>
<svg xmlns="http://www.w3.org/2000/svg" xmlns:xlink="http://www.w3.org/1999/xlink" viewBox="0 0 100 100">
  <defs>
    <clipPath id="uuid-d0603842-410f-4a15-88ba-f7965f00d52c">
      <path d="M51.73,74.64c-.65-2.72-5.13-4.83-10.53-4.83-4.76,0-8.79,1.63-10.13,3.87l4.63-64.64c.64,1.27,2.86,2.21,5.51,2.21s4.91-.96,5.53-2.25l5,65.65Z" style="fill: none;"/>
    </clipPath>
    <clipPath id="uuid-f5aeef74-d473-4658-b87c-7f269f0308a8">
      <path d="M51.81,75.33c0,.07,0,.14,0,.2-.2,2.95-4.87,5.31-10.6,5.31-5.03,0-9.25-1.82-10.34-4.27-.18-.4-.27-.81-.27-1.25,0-.58.17-1.12.48-1.65,1.35-2.24,5.37-3.87,10.13-3.87,5.41,0,9.88,2.11,10.53,4.83.05.23.08.46.08.69Z" style="fill: none;"/>
    </clipPath>
    <linearGradient id="uuid-d4cbad1d-c92d-45ed-bf89-3aa567dcfcdf" data-name="未命名漸層 49" x1="30.11" y1="78.88" x2="50.28" y2="78.88" gradientUnits="userSpaceOnUse">
      <stop offset="0" stop-color="#e0d196"/>
      <stop offset="1" stop-color="#d5be7c"/>
    </linearGradient>
    <clipPath id="uuid-f45b8360-6fc6-4660-ad0a-6c8b800ce145">
      <path d="M70.46,64.43c-6.73,3.98-13.45,7.95-20.18,11.92-.02-.04-.05-.08-.07-.12-1.11-2.06-3.11-5.34-5.09-8.64-.39-.65-.78-1.31-1.17-1.97-.17-.28-.33-.55-.49-.83-.33-.55-.66-1.11-.98-1.68-.01-.02-.02-.04-.04-.06-.11.02,12.07-7.62,12.07-7.62l7.69-4.75c2.75,4.74,5.5,9.02,8.25,13.76Z" style="fill: none;"/>
    </clipPath>
    <clipPath id="uuid-0bf706c9-0818-4dd0-bdb7-8b24b09af5b4">
      <path d="M62.21,50.67l-7.69,4.75-12.03,7.64c-3.05.53-9.8.77-12.38.92l20.44-10.85.58-.32c3.7-.72,7.38-1.42,11.08-2.13Z" style="fill: none;"/>
    </clipPath>
  </defs>
  <g style="isolation: isolate;">
    <g id="uuid-14c1b450-1863-4201-8edc-d09e1db69581" data-name="圖層 1">
      <g>
        <polygon points="35.38 84.68 52.38 94.7 75.28 82.38 60.57 74.19 35.38 84.68" style="fill: #afafaf; mix-blend-mode: multiply; opacity: .5;"/>
        <polygon points="76.52 67.88 42.1 67.88 42.1 76.36 80.26 72.12 76.52 67.88" style="fill: #afafaf; mix-blend-mode: multiply; opacity: .5;"/>
        <g>
          <g>
            <path d="M51.81,75.33c0,.07,0,.14,0,.2-.2,2.95-4.87,5.31-10.6,5.31-5.03,0-9.25-1.82-10.34-4.27-.18-.4-.27-.81-.27-1.25,0-.58.17-1.12.48-1.65,1.35-2.24,5.37-3.87,10.13-3.87,5.41,0,9.88,2.11,10.53,4.83.05.23.08.46.08.69Z" style="fill: #f2f2f2;"/>
            <path d="M46.91,8.28c0,.25-.06.49-.18.72-.62,1.29-2.86,2.25-5.53,2.25s-4.87-.93-5.51-2.21c-.14-.25-.2-.5-.2-.76,0-.34.11-.68.32-.98.78-1.15,2.89-1.99,5.39-1.99s4.65.85,5.41,2.02c.2.3.31.62.31.95Z" style="fill: #dcdbdb;"/>
            <path d="M51.73,74.64c-.65-2.72-5.13-4.83-10.53-4.83-4.76,0-8.79,1.63-10.13,3.87l4.63-64.64c.64,1.27,2.86,2.21,5.51,2.21s4.91-.96,5.53-2.25l5,65.65Z" style="fill: #f2f2f2;"/>
            <g style="clip-path: url(#uuid-d0603842-410f-4a15-88ba-f7965f00d52c);">
              <path d="M53.49,21.92c-7.29,4.62-16.59,4.62-23.87,0,.82-2.81,1.65-5.62,2.47-8.42,5.78,3.67,13.15,3.67,18.93,0,.82,2.81,1.65,5.62,2.47,8.42Z" style="fill: #b83a3a;"/>
              <path d="M53.49,38.2c-7.29,4.62-16.59,4.62-23.87,0,.82-2.81,1.65-5.62,2.47-8.42,5.78,3.67,13.15,3.67,18.93,0,.82,2.81,1.65,5.62,2.47,8.42Z" style="fill: #b83a3a;"/>
              <path d="M53.49,54.47c-7.29,4.62-16.59,4.62-23.87,0,.82-2.81,1.65-5.62,2.47-8.42,5.78,3.67,13.15,3.67,18.93,0,.82,2.81,1.65,5.62,2.47,8.42Z" style="fill: #b83a3a;"/>
              <path d="M53.49,70.74c-7.29,4.62-16.59,4.62-23.87,0,.82-2.81,1.65-5.62,2.47-8.42,5.78,3.67,13.15,3.67,18.93,0,.82,2.81,1.65,5.62,2.47,8.42Z" style="fill: #b83a3a;"/>
            </g>
            <g style="clip-path: url(#uuid-f5aeef74-d473-4658-b87c-7f269f0308a8);">
              <path d="M53.49,70.74c-7.29,4.62-16.59,4.62-23.87,0,.82-2.81,1.65-5.62,2.47-8.42,5.78,3.67,13.15,3.67,18.93,0,.82,2.81,1.65,5.62,2.47,8.42Z" style="fill: #b83a3a;"/>
            </g>
          </g>
          <g style="mix-blend-mode: multiply; opacity: .5;">
            <path d="M42.51,11.29c-.48,0-.92-.12-1.31-.33-1.45,23.04-2.9,46.08-4.35,69.12,3.77.24,7.55.24,11.32,0-1.45-23.04-2.9-46.08-4.35-69.12-.39.21-.83.33-1.31.33Z" style="fill: #afafaf;"/>
          </g>
        </g>
        <g>
          <polygon points="44.32 77.5 44.32 88.9 36.31 84.45 36.3 84.44 36.3 73.11 36.39 73.07 36.5 73.03 44.32 77.5" style="fill: #aeafaf;"/>
          <line x1="30.34" y1="83" x2="54.18" y2="69.25" style="fill: none; stroke: #979696; stroke-miterlimit: 10; stroke-width: .43px;"/>
          <path d="M70.46,64.43c-6.73,3.98-13.45,7.95-20.18,11.92-.02-.04-.05-.08-.07-.12-1.11-2.06-3.11-5.34-5.09-8.64-.39-.65-.78-1.31-1.17-1.97-.17-.28-.33-.55-.49-.83-.33-.55-.66-1.11-.98-1.68-.01-.02-.02-.04-.04-.06-.11.02,12.07-7.62,12.07-7.62l7.69-4.75c2.75,4.74,5.5,9.02,8.25,13.76Z" style="fill: #717070;"/>
          <path d="M70.46,64.43v18.8c-6.73,3.82-13.45,7.64-20.18,11.46v-18.34c6.73-3.98,13.45-7.95,20.18-11.92Z" style="fill: #afa574;"/>
          <g>
            <polygon points="62.77 74.19 58.36 76.74 58.36 78.91 62.77 76.36 62.77 74.19" style="fill: #b7b7b8;"/>
            <polygon points="62.77 76.64 61.97 76.29 58.36 78.39 58.36 79.2 62.77 76.64" style="fill: #e3e2e2;"/>
            <polygon points="62.77 76.64 61.97 76.29 61.97 74.65 62.77 74.19 62.77 76.64" style="fill: #919192;"/>
          </g>
          <g>
            <polygon points="68.27 70.98 63.86 73.53 63.86 75.7 68.27 73.15 68.27 70.98" style="fill: #b7b7b8;"/>
            <polygon points="68.27 73.43 67.48 73.08 63.86 75.18 63.86 75.99 68.27 73.43" style="fill: #e3e2e2;"/>
            <polygon points="68.27 73.43 67.48 73.08 67.48 71.44 68.27 70.98 68.27 73.43" style="fill: #919192;"/>
          </g>
          <path d="M62.21,50.67l-7.69,4.75-12.03,7.64c-3.05.53-9.8.77-12.38.92l20.44-10.85.58-.32c3.7-.72,7.38-1.42,11.08-2.13Z" style="fill: #ababab;"/>
          <polygon points="36.3 73.11 36.3 84.46 34.46 85.46 34.46 73.9 36.3 73.11" style="fill: #afa574;"/>
          <path d="M50.28,76.35v18.34c-2.06-1.17-4.13-2.34-6.19-3.52v-13.68l-7.6-4.47.04.11-.23-.03-1.83.78v11.56l-.22.12c-1.38-.78-2.76-1.57-4.14-2.35v-19.26c.05.03,8.71-.46,11.98-.87.12-.02.28-.03.4-.05.01.02.65,1.18.98,1.73.16.28.33.55.49.83.39.66.78,1.32,1.17,1.97,1.97,3.3,3.97,6.58,5.09,8.64.02.04.05.08.07.12Z" style="fill: url(#uuid-d4cbad1d-c92d-45ed-bf89-3aa567dcfcdf);"/>
          <polygon points="30.11 65.35 30.11 63.97 42.49 63.06 42.49 64.43 30.11 65.35" style="fill: #fff;"/>
          <polygon points="50.28 78.19 42.49 64.43 42.49 63.06 50.28 76.35 50.28 78.19" style="fill: #fff;"/>
          <polygon points="50.28 78.19 50.28 76.35 70.46 64.43 70.46 66.27 50.28 78.19" style="fill: #cecfcf;"/>
          <g style="clip-path: url(#uuid-f45b8360-6fc6-4660-ad0a-6c8b800ce145);">
            <g>
              <line x1="43.18" y1="62.37" x2="51.43" y2="76.12" style="fill: none; stroke: #bcbcbc; stroke-miterlimit: 10; stroke-width: .22px;"/>
              <line x1="44.05" y1="61.82" x2="52.3" y2="75.58" style="fill: none; stroke: #bcbcbc; stroke-miterlimit: 10; stroke-width: .22px;"/>
              <line x1="44.92" y1="61.28" x2="53.18" y2="75.03" style="fill: none; stroke: #bcbcbc; stroke-miterlimit: 10; stroke-width: .22px;"/>
              <line x1="45.8" y1="60.73" x2="54.05" y2="74.49" style="fill: none; stroke: #bcbcbc; stroke-miterlimit: 10; stroke-width: .22px;"/>
              <line x1="46.67" y1="60.18" x2="54.92" y2="73.94" style="fill: none; stroke: #bcbcbc; stroke-miterlimit: 10; stroke-width: .22px;"/>
              <line x1="47.54" y1="59.64" x2="55.8" y2="73.39" style="fill: none; stroke: #bcbcbc; stroke-miterlimit: 10; stroke-width: .22px;"/>
              <line x1="48.42" y1="59.09" x2="56.67" y2="72.85" style="fill: none; stroke: #bcbcbc; stroke-miterlimit: 10; stroke-width: .22px;"/>
              <line x1="49.29" y1="58.55" x2="57.55" y2="72.3" style="fill: none; stroke: #bcbcbc; stroke-miterlimit: 10; stroke-width: .22px;"/>
              <line x1="50.16" y1="58" x2="58.42" y2="71.76" style="fill: none; stroke: #bcbcbc; stroke-miterlimit: 10; stroke-width: .22px;"/>
              <line x1="51.04" y1="57.45" x2="59.29" y2="71.21" style="fill: none; stroke: #bcbcbc; stroke-miterlimit: 10; stroke-width: .22px;"/>
              <line x1="51.91" y1="56.91" x2="60.17" y2="70.67" style="fill: none; stroke: #bcbcbc; stroke-miterlimit: 10; stroke-width: .22px;"/>
              <line x1="52.78" y1="56.36" x2="61.04" y2="70.12" style="fill: none; stroke: #bcbcbc; stroke-miterlimit: 10; stroke-width: .22px;"/>
              <line x1="53.66" y1="55.82" x2="61.91" y2="69.57" style="fill: none; stroke: #bcbcbc; stroke-miterlimit: 10; stroke-width: .22px;"/>
              <line x1="54.53" y1="55.27" x2="62.79" y2="69.03" style="fill: none; stroke: #bcbcbc; stroke-miterlimit: 10; stroke-width: .22px;"/>
              <line x1="55.41" y1="54.72" x2="63.66" y2="68.48" style="fill: none; stroke: #bcbcbc; stroke-miterlimit: 10; stroke-width: .22px;"/>
              <line x1="56.28" y1="54.18" x2="64.53" y2="67.94" style="fill: none; stroke: #bcbcbc; stroke-miterlimit: 10; stroke-width: .22px;"/>
              <line x1="57.15" y1="53.63" x2="65.41" y2="67.39" style="fill: none; stroke: #bcbcbc; stroke-miterlimit: 10; stroke-width: .22px;"/>
              <line x1="58.03" y1="53.09" x2="66.28" y2="66.84" style="fill: none; stroke: #bcbcbc; stroke-miterlimit: 10; stroke-width: .22px;"/>
              <line x1="58.9" y1="52.54" x2="67.15" y2="66.3" style="fill: none; stroke: #bcbcbc; stroke-miterlimit: 10; stroke-width: .22px;"/>
              <line x1="59.77" y1="52" x2="68.03" y2="65.75" style="fill: none; stroke: #bcbcbc; stroke-miterlimit: 10; stroke-width: .22px;"/>
              <line x1="60.65" y1="51.45" x2="68.9" y2="65.21" style="fill: none; stroke: #bcbcbc; stroke-miterlimit: 10; stroke-width: .22px;"/>
              <line x1="61.52" y1="50.9" x2="69.77" y2="64.66" style="fill: none; stroke: #bcbcbc; stroke-miterlimit: 10; stroke-width: .22px;"/>
            </g>
          </g>
          <g style="clip-path: url(#uuid-0bf706c9-0818-4dd0-bdb7-8b24b09af5b4);">
            <g>
              <line x1="43.41" y1="62.6" x2="28.5" y2="63.74" style="fill: none; stroke: #979696; stroke-miterlimit: 10; stroke-width: .22px;"/>
              <line x1="44.49" y1="61.92" x2="29.58" y2="63.18" style="fill: none; stroke: #979696; stroke-miterlimit: 10; stroke-width: .22px;"/>
              <line x1="45.56" y1="61.25" x2="30.66" y2="62.61" style="fill: none; stroke: #979696; stroke-miterlimit: 10; stroke-width: .22px;"/>
              <line x1="46.64" y1="60.57" x2="31.74" y2="62.04" style="fill: none; stroke: #979696; stroke-miterlimit: 10; stroke-width: .22px;"/>
              <line x1="47.72" y1="59.9" x2="32.82" y2="61.48" style="fill: none; stroke: #979696; stroke-miterlimit: 10; stroke-width: .22px;"/>
              <line x1="48.8" y1="59.22" x2="33.9" y2="60.91" style="fill: none; stroke: #979696; stroke-miterlimit: 10; stroke-width: .22px;"/>
              <line x1="49.88" y1="58.55" x2="34.98" y2="60.34" style="fill: none; stroke: #979696; stroke-miterlimit: 10; stroke-width: .22px;"/>
              <line x1="50.96" y1="57.88" x2="36.06" y2="59.78" style="fill: none; stroke: #979696; stroke-miterlimit: 10; stroke-width: .22px;"/>
              <line x1="52.04" y1="57.2" x2="37.13" y2="59.21" style="fill: none; stroke: #979696; stroke-miterlimit: 10; stroke-width: .22px;"/>
              <line x1="53.12" y1="56.53" x2="38.21" y2="58.64" style="fill: none; stroke: #979696; stroke-miterlimit: 10; stroke-width: .22px;"/>
              <line x1="54.2" y1="55.85" x2="39.29" y2="58.08" style="fill: none; stroke: #979696; stroke-miterlimit: 10; stroke-width: .22px;"/>
              <line x1="55.27" y1="55.18" x2="40.37" y2="57.51" style="fill: none; stroke: #979696; stroke-miterlimit: 10; stroke-width: .22px;"/>
              <line x1="56.35" y1="54.5" x2="41.45" y2="56.95" style="fill: none; stroke: #979696; stroke-miterlimit: 10; stroke-width: .22px;"/>
              <line x1="57.43" y1="53.83" x2="42.53" y2="56.38" style="fill: none; stroke: #979696; stroke-miterlimit: 10; stroke-width: .22px;"/>
              <line x1="58.51" y1="53.16" x2="43.61" y2="55.81" style="fill: none; stroke: #979696; stroke-miterlimit: 10; stroke-width: .22px;"/>
              <line x1="59.59" y1="52.48" x2="44.69" y2="55.25" style="fill: none; stroke: #979696; stroke-miterlimit: 10; stroke-width: .22px;"/>
              <line x1="60.67" y1="51.81" x2="45.77" y2="54.68" style="fill: none; stroke: #979696; stroke-miterlimit: 10; stroke-width: .22px;"/>
              <line x1="61.75" y1="51.13" x2="46.85" y2="54.11" style="fill: none; stroke: #979696; stroke-miterlimit: 10; stroke-width: .22px;"/>
            </g>
          </g>
        </g>
      </g>
    </g>
  </g>
</svg>