<?xml version="1.0" encoding="UTF-8"?>
<svg xmlns="http://www.w3.org/2000/svg" xmlns:xlink="http://www.w3.org/1999/xlink" viewBox="0 0 100 100">
  <defs>
    <linearGradient id="uuid-a49916e6-5325-4b1f-b87f-80e23d6077fe" data-name="未命名漸層 66" x1="16.68" y1="71.33" x2="48.58" y2="71.33" gradientUnits="userSpaceOnUse">
      <stop offset="0" stop-color="#b9dde9"/>
      <stop offset=".34" stop-color="#afd4e1"/>
      <stop offset=".9" stop-color="#96bccc"/>
      <stop offset=".99" stop-color="#91b7c8"/>
    </linearGradient>
  </defs>
  <g style="isolation: isolate;">
    <g id="uuid-92f53959-ff16-4e90-bb96-410e978fb585" data-name="圖層 1">
      <g>
        <polygon points="20.94 74.68 53.11 92.43 88.65 73.68 60.78 63.19 20.94 74.68" style="fill: #afafaf; mix-blend-mode: multiply; opacity: .5;"/>
        <g>
          <polygon points="48.58 93.55 80.51 75.1 80.51 49.11 48.58 66.44 48.58 93.55" style="fill: #83a9b7;"/>
          <polygon points="16.68 47.99 31.64 52.08 63.55 33.64 48.58 29.55 16.68 47.99" style="fill: #717070;"/>
          <polygon points="31.64 52.08 63.55 33.64 80.51 48.01 48.58 66.44 31.64 52.08" style="fill: #4e4d4d;"/>
          <polygon points="22.46 76.51 41.94 87.78 41.94 69.79 22.46 58.54 22.46 76.51" style="fill: #c3c3c3;"/>
          <g>
            <polygon points="71.17 57.52 64.54 61.34 64.54 64.61 71.17 60.78 71.17 57.52" style="fill: #b7b7b8;"/>
            <polygon points="71.17 61.2 69.97 60.68 64.54 63.82 64.54 65.04 71.17 61.2" style="fill: #e3e2e2;"/>
            <polygon points="71.17 61.2 69.97 60.68 69.97 58.21 71.17 57.52 71.17 61.2" style="fill: #919192;"/>
          </g>
          <g>
            <polygon points="79.07 52.95 72.45 56.77 72.45 60.04 79.07 56.21 79.07 52.95" style="fill: #b7b7b8;"/>
            <polygon points="79.07 56.62 77.88 56.11 72.45 59.25 72.45 60.47 79.07 56.62" style="fill: #e3e2e2;"/>
            <polygon points="79.07 56.62 77.88 56.11 77.88 53.64 79.07 52.95 79.07 56.62" style="fill: #919192;"/>
          </g>
          <polygon points="22.61 58.62 20.94 57.65 20.94 77.57 22.61 76.61 22.61 58.62" style="fill: #6aabc7;"/>
          <polygon points="16.68 47.99 16.68 49.18 31.62 53.54 48.58 67.61 48.58 66.44 31.64 52.08 16.68 47.99" style="fill: #d3d3d3;"/>
          <polygon points="48.58 66.44 48.58 67.61 80.51 49.17 80.51 48.01 48.58 66.44" style="fill: #ababab;"/>
          <polygon points="48.58 93.55 48.58 91.62 80.51 73.19 80.51 75.1 48.58 93.55" style="fill: #ababab;"/>
          <polygon points="48.58 91.62 48.58 93.55 41.94 89.72 41.94 87.78 48.58 91.62" style="fill: #d3d3d3;"/>
          <polygon points="20.94 77.57 20.94 75.65 16.68 73.18 16.68 75.11 20.94 77.57" style="fill: #d3d3d3;"/>
          <polygon points="22.61 74.68 20.94 75.65 20.94 77.57 22.61 76.61 22.61 74.68" style="fill: #ababab;"/>
          <g>
            <polygon points="32.67 51.48 17.71 47.4 18.14 47.14 33.1 51.23 32.67 51.48" style="fill: #ababab;"/>
            <polygon points="34.2 50.59 19.24 46.51 19.68 46.26 34.63 50.35 34.2 50.59" style="fill: #ababab;"/>
            <polygon points="35.74 49.71 20.78 45.62 21.21 45.37 36.17 49.46 35.74 49.71" style="fill: #ababab;"/>
            <polygon points="37.27 48.83 22.3 44.74 22.74 44.49 37.7 48.58 37.27 48.83" style="fill: #ababab;"/>
            <polygon points="38.8 47.94 23.84 43.85 24.28 43.6 39.23 47.69 38.8 47.94" style="fill: #ababab;"/>
            <polygon points="40.34 47.05 25.37 42.96 25.81 42.71 40.77 46.8 40.34 47.05" style="fill: #ababab;"/>
            <polygon points="41.87 46.17 26.91 42.08 27.34 41.83 42.3 45.92 41.87 46.17" style="fill: #ababab;"/>
            <polygon points="43.4 45.28 28.44 41.19 28.88 40.94 43.83 45.03 43.4 45.28" style="fill: #ababab;"/>
            <polygon points="44.94 44.39 29.98 40.31 30.41 40.05 45.37 44.14 44.94 44.39" style="fill: #ababab;"/>
            <polygon points="46.47 43.51 31.51 39.42 31.94 39.17 46.9 43.26 46.47 43.51" style="fill: #ababab;"/>
            <polygon points="48 42.62 33.04 38.54 33.48 38.28 48.43 42.37 48 42.62" style="fill: #ababab;"/>
            <polygon points="49.54 41.74 34.58 37.65 35.01 37.4 49.97 41.49 49.54 41.74" style="fill: #ababab;"/>
            <polygon points="51.07 40.85 36.11 36.76 36.55 36.51 51.5 40.6 51.07 40.85" style="fill: #ababab;"/>
            <polygon points="52.61 39.96 37.65 35.88 38.08 35.62 53.04 39.71 52.61 39.96" style="fill: #ababab;"/>
            <polygon points="54.14 39.08 39.18 34.99 39.61 34.74 54.57 38.83 54.14 39.08" style="fill: #ababab;"/>
            <polygon points="55.67 38.19 40.71 34.11 41.15 33.85 56.1 37.95 55.67 38.19" style="fill: #ababab;"/>
            <polygon points="57.21 37.31 42.24 33.22 42.68 32.97 57.64 37.06 57.21 37.31" style="fill: #ababab;"/>
            <polygon points="58.74 36.42 43.78 32.33 44.21 32.08 59.17 36.17 58.74 36.42" style="fill: #ababab;"/>
            <polygon points="60.27 35.54 45.31 31.45 45.75 31.2 60.7 35.29 60.27 35.54" style="fill: #ababab;"/>
            <polygon points="61.81 34.65 46.84 30.56 47.28 30.31 62.24 34.4 61.81 34.65" style="fill: #ababab;"/>
          </g>
          <g>
            <polygon points="32.67 51.48 49.61 65.84 50.04 65.6 33.1 51.23 32.67 51.48" style="fill: #717070;"/>
            <polygon points="34.2 50.6 51.14 64.96 51.57 64.71 34.63 50.35 34.2 50.6" style="fill: #717070;"/>
            <polygon points="35.74 49.71 52.68 64.07 53.11 63.82 36.17 49.46 35.74 49.71" style="fill: #717070;"/>
            <polygon points="37.27 48.82 54.21 63.19 54.64 62.94 37.7 48.58 37.27 48.82" style="fill: #717070;"/>
            <polygon points="38.8 47.94 55.75 62.3 56.17 62.05 39.23 47.69 38.8 47.94" style="fill: #717070;"/>
            <polygon points="40.34 47.05 57.28 61.41 57.71 61.17 40.77 46.8 40.34 47.05" style="fill: #717070;"/>
            <polygon points="41.87 46.17 58.81 60.53 59.24 60.28 42.3 45.92 41.87 46.17" style="fill: #717070;"/>
            <polygon points="43.4 45.28 60.35 59.64 60.78 59.4 43.84 45.03 43.4 45.28" style="fill: #717070;"/>
            <polygon points="44.94 44.4 61.88 58.76 62.31 58.51 45.37 44.15 44.94 44.4" style="fill: #717070;"/>
            <polygon points="46.47 43.51 63.41 57.87 63.84 57.62 46.9 43.26 46.47 43.51" style="fill: #717070;"/>
            <polygon points="48.01 42.62 64.95 56.99 65.38 56.74 48.44 42.38 48.01 42.62" style="fill: #717070;"/>
            <polygon points="49.54 41.74 66.48 56.1 66.91 55.85 49.97 41.49 49.54 41.74" style="fill: #717070;"/>
            <polygon points="51.07 40.85 68.02 55.21 68.44 54.97 51.5 40.6 51.07 40.85" style="fill: #717070;"/>
            <polygon points="52.61 39.97 69.55 54.33 69.98 54.08 53.04 39.72 52.61 39.97" style="fill: #717070;"/>
            <polygon points="54.14 39.08 71.08 53.44 71.51 53.19 54.57 38.83 54.14 39.08" style="fill: #717070;"/>
            <polygon points="55.67 38.2 72.62 52.56 73.05 52.31 56.1 37.95 55.67 38.2" style="fill: #717070;"/>
            <polygon points="57.21 37.31 74.15 51.67 74.58 51.42 57.64 37.06 57.21 37.31" style="fill: #717070;"/>
            <polygon points="58.74 36.42 75.69 50.78 76.12 50.54 59.17 36.18 58.74 36.42" style="fill: #717070;"/>
            <polygon points="60.28 35.53 77.22 49.9 77.65 49.65 60.71 35.28 60.28 35.53" style="fill: #717070;"/>
            <polygon points="61.81 34.65 78.76 49.02 79.19 48.77 62.24 34.4 61.81 34.65" style="fill: #717070;"/>
          </g>
          <line x1="22.64" y1="72" x2="35.18" y2="65.73" style="fill: none; stroke: #ababab; stroke-miterlimit: 10; stroke-width: .59px;"/>
          <path d="M46.66,76.34c-.08,1.63-4.15,2.74-9.07,2.49-4.22-.22-7.7-1.37-8.56-2.72-.18-.28-.17-.6-.01-.87l7.06-12.57c.54-.97,2.52-.93,3.09.06,2.6,4.56,7.51,13.23,7.49,13.61Z" style="fill: #e5e5e5;"/>
          <polygon points="31.92 52.87 16.68 49.12 16.68 75.1 20.94 77.56 22.46 76.5 22.46 58.53 41.94 69.78 41.94 87.77 41.94 89.7 48.58 93.53 48.58 66.42 31.92 52.87" style="fill: url(#uuid-a49916e6-5325-4b1f-b87f-80e23d6077fe);"/>
        </g>
      </g>
    </g>
  </g>
</svg>