<?xml version="1.0" encoding="UTF-8"?>
<svg xmlns="http://www.w3.org/2000/svg" xmlns:xlink="http://www.w3.org/1999/xlink" viewBox="0 0 128 100">
  <defs>
    <clipPath id="uuid-20c446c6-6e93-445f-9d27-2cf86754c0fc">
      <path d="M13.28,62.11v.17c0,.24-.16.49-.48.67-.64.37-1.69.37-2.33,0-.33-.19-.49-.43-.49-.68v-.17c0,.25.16.49.49.68.65.37,1.69.37,2.33,0,.32-.19.48-.43.48-.67Z" style="fill: none;"/>
    </clipPath>
    <clipPath id="uuid-4b4b0502-992c-42e2-96e6-41e7051b9c76">
      <path d="M98.97,6.53v.22c0,.31-.2.61-.61.85-.81.47-2.13.47-2.94,0-.41-.24-.61-.55-.61-.86v-.22c0,.31.2.62.61.86.82.47,2.13.47,2.94,0,.4-.23.6-.54.6-.85Z" style="fill: none;"/>
    </clipPath>
    <clipPath id="uuid-6c138a3a-f8ad-4255-b706-0fb64f8ab866">
      <path d="M28.29,68.4v.63c0,.47-.31.94-.93,1.3-1.25.73-3.28.73-4.53,0-.63-.36-.95-.84-.95-1.32v-.63c0,.48.32.96.95,1.32,1.26.73,3.29.73,4.53,0,.62-.36.93-.83.93-1.3Z" style="fill: none;"/>
    </clipPath>
  </defs>
  <g style="isolation: isolate;">
    <g id="uuid-98c0224f-527e-4e5c-9f11-e82891374c68" data-name="圖層 1">
      <g>
        <path d="M116.57,37.37s0,0,0,0c-1.26-.05-4.08-.13-6.04-.05-4.1.18-6.78.91-6.78.91l-58.25,33.1c-5.96,3.38-13.18,8.35-13.85,12.59,0,.02-.08.9-.18,2.18,0,.03,0,.06,0,.1-.03.4-.07.83-.11,1.28,0,.01,0,.02,0,.03-.02.19-.03.39-.05.59,0,.05,0,.1-.01.15-.11,1.26-.22,2.61-.32,3.81,0,.02,0,.05,0,.07-.11,1.3-.2,2.39-.25,2.96-.02.09-.03.17-.04.24,0,.06,0,.11,0,.17,0,0,0,0,0,0h0c.26,2.39,9.24,1.14,15.06-2.16l4.37-2.48.02-.32,1.43.14h0s.08,0,.14-.04c.11-.06.21-.18.21-.26,0-.04-.02-.06-.06-.07,0,0,0,0,0,0l-1.69-.34.11-1.71,58.76-33.35,4.08-2.31,2.05.31,1.88-1.07-.06.87,1.85.72,2.07-1.17.23-3.52,1.41.21c-.1.17-.17.34-.18.48-.01.22.1.34.29.37l.13.02h0c.19.03.46-.04.76-.21.23-.13.44-.3.62-.48l1.24.12h0s.06,0,.1-.03c.08-.05.15-.13.15-.18,0-.03-.01-.05-.04-.05,0,0,0,0,0,0l-1.15-.23c.13-.19.21-.38.22-.55.01-.23-.11-.36-.33-.37.01,0,.03,0,.04,0l-.13-.02s-.1,0-.16,0c-.17.02-.37.08-.6.21-.21.12-.4.27-.57.43l-1.77-.26.3-4.69-1.91.16-1.29.73-1.3-.2.42-6.53c.01-.16-.07-.26-.2-.3h0s0,0-.02,0c-.05,0-.1-.01-.16,0,0,0,0,0-.01,0,0,0-.02,0-.03,0-.01,0-.03,0-.05,0,0,0,0,0-.02,0-.02,0-.04,0-.07,0,0,0-.02,0-.03,0-.02,0-.04,0-.06,0,0,0,0,0-.01,0-.06,0-.13,0-.2,0ZM51.78,90.35s0,0-.01,0c0,0,0,0,.01,0ZM51.63,90.43s0,0-.01.01c0,0,0,0,.01-.01ZM51.57,90.5s0,.01-.01.02c0,0,0-.01.01-.02,0,0,0,0,0,0ZM51.6,90.46s0,0-.01.01c0,0,0,0,.01-.01ZM125.57,49.03s0,0,0,0c0,0,0,0,0,0ZM125.42,49.13s-.02.02-.02.03c0-.01.01-.02.02-.03,0,0,0,0,0,0ZM124.25,47.87s-.03,0-.05,0c.02,0,.03,0,.05,0ZM124.07,47.9s-.04.01-.06.02c.02,0,.04-.01.06-.02ZM124.17,47.88s-.04,0-.05.01c.02,0,.04,0,.05-.01ZM124.34,47.87s-.03,0-.04,0c.01,0,.03,0,.04,0ZM123.91,47.96s.04-.02.06-.02c-.02,0-.04.02-.06.02ZM123.65,48.08s.07-.04.11-.06c-.04.02-.07.04-.11.06ZM123.8,48s.05-.02.07-.03c-.02.01-.05.02-.07.03ZM125.6,49.02s0,0,0,0c0,0,0,0,0,0,0,0,0,0,0,0ZM125.47,49.09s-.01.01-.02.02c0,0,.01-.01.02-.02ZM125.38,49.23s0-.03.01-.05c0,.02-.01.03-.01.05ZM125.38,49.25s0,0,0,0c0,0,0,0,0,0ZM125.4,49.28s0,0,0,0c0,0,0,0,0,0ZM125.39,49.27s0,0,0,0c0,0,0,0,0,0ZM122.54,49.68s0,.01.01.02c0,0,0-.01-.01-.02ZM122.73,49.83s.02,0,.03,0c-.01,0-.02,0-.03,0ZM122.67,49.81s.02,0,.03.01c0,0-.02,0-.03-.01ZM122.62,49.77s.02.01.02.02c0,0-.02,0-.02-.02ZM122.58,49.73s.01.01.02.02c0,0-.01-.01-.02-.02ZM122.51,49.58s0-.02,0-.02c0,0,0,.02,0,.02ZM122.53,49.64s0-.02,0-.02c0,0,0,.02,0,.02ZM51.82,90.33s0,0-.01,0c0,0,0,0,0,0,0,0,0,0,0,0ZM51.67,90.4s0,0-.01.01c0,0,0,0,.01-.01ZM51.5,90.63s0-.02,0-.03c0,.01,0,.02,0,.03ZM51.53,90.55s0-.01.01-.02c0,0,0,.01-.01.02ZM51.51,90.59s0-.01,0-.02c0,0,0,.01,0,.02ZM51.51,90.66s0,0,0,0c0,0,0,0,0,0ZM51.54,90.69s0,0,0,0c0,0,0,0,0,0ZM51.52,90.68s0,0,0,0c0,0,0,0,0,0Z" style="fill: #4b819f; mix-blend-mode: multiply; opacity: .5;"/>
        <g>
          <path d="M26.19,68.04c-2.4,1.39-4.93,3.85-6.96,6.51l-15.56,1.48s17.59,9.88,17.69,9.92c6.54,3.27,15.67-.39,22.11-4.11l63.08-36.25s1.71-2.43,2.91-7.03c.75-2.9,1.4-7.86,1.4-7.86L26.19,68.04Z" style="fill: #0e3d5c;"/>
          <path d="M26.19,68.04c-2.4,1.39-4.93,3.85-6.96,6.51l-15.56,1.48s12,6.74,16.23,9.11c5.05-1.09,10.15-3.48,14.32-5.88l75.85-43.59c.46-2.48.78-4.96.78-4.96L26.19,68.04Z" style="fill: #bb4a1f;"/>
          <path d="M10.34,60.56c-6.44,3.72-10.4,13.34-6.4,15.65,4,2.31,20.67.03,27.11-3.69l4.73-2.72-20.72-11.96-4.73,2.72Z" style="fill: #ef8d24;"/>
          <path d="M9.73,76.15c-3.4,0-4.77-.5-5.29-.8-.74-.43-1.12-1.26-1.12-2.48,0-1.73.77-3.94,2.11-6.07,1.44-2.29,3.36-4.2,5.4-5.38l5.25-3,18.73,10.82-4.25,2.43c-4.65,2.69-14.53,4.49-20.83,4.49h0Z" style="fill: #f2f2f2;"/>
          <path d="M6.2,73.95c0-1.73.77-3.94,2.11-6.07,1.44-2.29,3.36-4.2,5.41-5.38l4.74-2.71-2.37-1.37-5.25,3c-2.04,1.18-3.96,3.09-5.4,5.38-1.34,2.13-2.11,4.34-2.11,6.07,0,1.22.38,2.05,1.12,2.48.33.19,1.01.46,2.34.63-.39-.47-.59-1.15-.59-2.03Z" style="fill: #dddcdc; mix-blend-mode: multiply;"/>
          <path d="M110.46,30.2l-18.75-10.82c-.54-.31-1.42-.31-1.97,0l-7.16,4.13L19,60.11l16.79,9.69,1.36,3.66,3.2-1.75,62.96-36.24,3.59-2.07,3.57-2.06c.54-.31.54-.82,0-1.14Z" style="fill: #ef8d24;"/>
          <path d="M109.46,30.77l-6.65,3.84-65.99,37.95-.42-1.13-.09-.25-.18-.48-.33-.9-.08-.04-.26-.15-.51-.29-14.98-8.58,63.13-36.36,7.16-4.13c.09-.05.26-.1.49-.1s.4.05.49.1l18.25,10.54Z" style="fill: #dddcdc;"/>
          <path d="M83.75,26.67l7.16-4.13c.09-.05.26-.1.49-.1s.4.05.49.1l15.92,9.19,1.66-.96-18.25-10.53c-.09-.05-.26-.1-.49-.1s-.4.05-.49.1l-7.16,4.13L19.95,60.72l2.34,1.34,61.45-35.4Z" style="fill: #dddcdc; mix-blend-mode: multiply;"/>
          <g>
            <g style="isolation: isolate;">
              <polygon points="44.46 60.63 44.46 62.01 34.59 67.74 34.59 66.37 44.46 60.63" style="fill: #b4b3b3;"/>
              <polygon points="34.59 66.37 34.59 67.74 27.45 63.62 27.46 62.25 34.59 66.37" style="fill: #c3c2c2;"/>
              <polygon points="44.46 60.63 34.59 66.37 27.46 62.25 37.33 56.51 44.46 60.63" style="fill: #ededec;"/>
            </g>
            <g style="isolation: isolate;">
              <polygon points="58.78 52.31 58.78 53.69 48.91 59.42 48.91 58.05 58.78 52.31" style="fill: #b4b3b3;"/>
              <polygon points="48.91 58.05 48.91 59.42 41.77 55.3 41.78 53.93 48.91 58.05" style="fill: #c3c2c2;"/>
              <polygon points="58.78 52.31 48.91 58.05 41.78 53.93 51.65 48.19 58.78 52.31" style="fill: #fafafb;"/>
            </g>
            <g style="isolation: isolate;">
              <polygon points="72.95 44.12 72.94 45.5 63.08 51.23 63.08 49.86 72.95 44.12" style="fill: #b4b3b3;"/>
              <polygon points="63.08 49.86 63.08 51.23 55.94 47.11 55.95 45.74 63.08 49.86" style="fill: #c3c2c2;"/>
              <polygon points="72.95 44.12 63.08 49.86 55.95 45.74 65.81 40 72.95 44.12" style="fill: #fafafb;"/>
            </g>
            <g style="isolation: isolate;">
              <polygon points="87.09 36.01 87.08 37.38 77.22 43.12 77.22 41.74 87.09 36.01" style="fill: #b4b3b3;"/>
              <polygon points="77.22 41.74 77.22 43.12 70.08 39 70.08 37.62 77.22 41.74" style="fill: #c3c2c2;"/>
              <polygon points="87.09 36.01 77.22 41.74 70.08 37.62 79.95 31.89 87.09 36.01" style="fill: #fafafb;"/>
            </g>
          </g>
          <g>
            <g style="isolation: isolate;">
              <polygon points="97.76 20.26 86.86 13.92 92.8 10.5 103.7 16.83 97.76 20.26" style="fill: #fff;"/>
              <polygon points="97.78 34.27 86.88 27.94 86.86 13.92 97.76 20.26 97.78 34.27" style="fill: #c3c2c2;"/>
              <g>
                <g>
                  <g>
                    <polygon points="88.34 16.39 87.53 15.93 87.53 14.66 88.34 15.12 88.34 16.39" style="fill: #064e70;"/>
                    <polygon points="88.34 18.46 87.53 17.99 87.53 16.72 88.34 17.19 88.34 18.46" style="fill: #064e70;"/>
                    <polygon points="88.34 20.52 87.53 20.06 87.53 18.79 88.34 19.25 88.34 20.52" style="fill: #064e70;"/>
                    <polygon points="88.34 22.59 87.53 22.12 87.53 20.85 88.34 21.32 88.34 22.59" style="fill: #064e70;"/>
                  </g>
                  <g>
                    <polygon points="90.16 17.42 89.35 16.96 89.35 15.69 90.16 16.16 90.16 17.42" style="fill: #064e70;"/>
                    <polygon points="90.16 19.49 89.35 19.02 89.35 17.76 90.16 18.22 90.16 19.49" style="fill: #064e70;"/>
                    <polygon points="90.16 21.55 89.35 21.09 89.35 19.82 90.16 20.29 90.16 21.55" style="fill: #064e70;"/>
                    <polygon points="90.16 23.62 89.35 23.15 89.35 21.89 90.16 22.35 90.16 23.62" style="fill: #064e70;"/>
                  </g>
                  <g>
                    <polygon points="91.94 18.46 91.14 17.99 91.14 16.72 91.94 17.19 91.94 18.46" style="fill: #064e70;"/>
                    <polygon points="91.94 20.52 91.14 20.06 91.14 18.79 91.94 19.25 91.94 20.52" style="fill: #064e70;"/>
                    <polygon points="91.94 22.59 91.14 22.12 91.14 20.85 91.94 21.32 91.94 22.59" style="fill: #064e70;"/>
                    <polygon points="91.94 24.65 91.14 24.19 91.14 22.92 91.94 23.38 91.94 24.65" style="fill: #064e70;"/>
                  </g>
                </g>
                <g>
                  <g>
                    <polygon points="93.5 19.42 92.7 18.95 92.7 17.68 93.5 18.15 93.5 19.42" style="fill: #064e70;"/>
                    <polygon points="93.5 21.48 92.7 21.01 92.7 19.75 93.5 20.21 93.5 21.48" style="fill: #064e70;"/>
                    <polygon points="93.5 23.55 92.7 23.08 92.7 21.81 93.5 22.28 93.5 23.55" style="fill: #064e70;"/>
                    <polygon points="93.5 25.61 92.7 25.14 92.7 23.88 93.5 24.34 93.5 25.61" style="fill: #064e70;"/>
                  </g>
                  <g>
                    <polygon points="95.33 20.45 94.52 19.98 94.52 18.71 95.33 19.18 95.33 20.45" style="fill: #064e70;"/>
                    <polygon points="95.33 22.51 94.52 22.05 94.52 20.78 95.33 21.24 95.33 22.51" style="fill: #064e70;"/>
                    <polygon points="95.33 24.58 94.52 24.11 94.52 22.84 95.33 23.31 95.33 24.58" style="fill: #064e70;"/>
                    <polygon points="95.33 26.64 94.52 26.18 94.52 24.91 95.33 25.37 95.33 26.64" style="fill: #064e70;"/>
                  </g>
                  <g>
                    <polygon points="97.11 21.48 96.31 21.01 96.31 19.75 97.11 20.21 97.11 21.48" style="fill: #064e70;"/>
                    <polygon points="97.11 23.55 96.31 23.08 96.31 21.81 97.11 22.28 97.11 23.55" style="fill: #064e70;"/>
                    <polygon points="97.11 25.61 96.31 25.14 96.31 23.88 97.11 24.34 97.11 25.61" style="fill: #064e70;"/>
                    <polygon points="97.11 27.67 96.31 27.21 96.31 25.94 97.11 26.41 97.11 27.67" style="fill: #064e70;"/>
                    <polygon points="88.34 24.65 87.53 24.19 87.53 22.92 88.34 23.38 88.34 24.65" style="fill: #064e70;"/>
                    <polygon points="90.16 25.68 89.35 25.22 89.35 23.95 90.16 24.42 90.16 25.68" style="fill: #064e70;"/>
                    <polygon points="91.94 26.72 91.14 26.25 91.14 24.98 91.94 25.45 91.94 26.72" style="fill: #064e70;"/>
                    <polygon points="93.5 27.67 92.7 27.21 92.7 25.94 93.5 26.41 93.5 27.67" style="fill: #064e70;"/>
                    <polygon points="95.33 28.71 94.52 28.24 94.52 26.97 95.33 27.44 95.33 28.71" style="fill: #064e70;"/>
                    <polygon points="97.11 29.74 96.31 29.27 96.31 28.01 97.11 28.47 97.11 29.74" style="fill: #064e70;"/>
                  </g>
                </g>
              </g>
            </g>
            <polygon points="97.76 20.26 97.78 34.27 103.7 30.86 103.7 16.83 97.76 20.26" style="fill: #b4b3b3;"/>
            <g>
              <g>
                <g>
                  <polygon points="99.33 26.81 98.52 27.27 98.52 28.54 99.33 28.08 99.33 26.81" style="fill: #134561;"/>
                  <polygon points="99.33 24.74 98.52 25.21 98.52 26.48 99.33 26.01 99.33 24.74" style="fill: #134561;"/>
                  <polygon points="99.33 22.68 98.52 23.14 98.52 24.41 99.33 23.95 99.33 22.68" style="fill: #134561;"/>
                  <polygon points="99.33 20.61 98.52 21.08 98.52 22.35 99.33 21.88 99.33 20.61" style="fill: #134561;"/>
                </g>
                <g>
                  <polygon points="101.15 25.78 100.34 26.24 100.34 27.51 101.15 27.04 101.15 25.78" style="fill: #134561;"/>
                  <polygon points="101.15 23.71 100.34 24.18 100.34 25.44 101.15 24.98 101.15 23.71" style="fill: #134561;"/>
                  <polygon points="101.15 21.65 100.34 22.11 100.34 23.38 101.15 22.91 101.15 21.65" style="fill: #134561;"/>
                  <polygon points="101.15 19.58 100.34 20.05 100.34 21.32 101.15 20.85 101.15 19.58" style="fill: #134561;"/>
                </g>
                <g>
                  <polygon points="102.93 24.74 102.13 25.21 102.13 26.48 102.93 26.01 102.93 24.74" style="fill: #134561;"/>
                  <polygon points="102.93 22.68 102.13 23.14 102.13 24.41 102.93 23.95 102.93 22.68" style="fill: #134561;"/>
                  <polygon points="102.93 20.61 102.13 21.08 102.13 22.35 102.93 21.88 102.93 20.61" style="fill: #134561;"/>
                  <polygon points="102.93 18.55 102.13 19.01 102.13 20.28 102.93 19.82 102.93 18.55" style="fill: #134561;"/>
                </g>
              </g>
              <g>
                <g>
                  <polygon points="99.33 30.94 98.52 31.4 98.52 32.67 99.33 32.21 99.33 30.94" style="fill: #134561;"/>
                  <polygon points="99.33 28.87 98.52 29.34 98.52 30.61 99.33 30.14 99.33 28.87" style="fill: #134561;"/>
                  <polygon points="99.33 26.81 98.52 27.27 98.52 28.54 99.33 28.08 99.33 26.81" style="fill: #134561;"/>
                </g>
                <g>
                  <polygon points="101.15 29.9 100.34 30.37 100.34 31.64 101.15 31.17 101.15 29.9" style="fill: #134561;"/>
                  <polygon points="101.15 27.84 100.34 28.31 100.34 29.57 101.15 29.11 101.15 27.84" style="fill: #134561;"/>
                  <polygon points="101.15 25.78 100.34 26.24 100.34 27.51 101.15 27.04 101.15 25.78" style="fill: #134561;"/>
                </g>
                <g>
                  <polygon points="102.93 28.87 102.13 29.34 102.13 30.61 102.93 30.14 102.93 28.87" style="fill: #134561;"/>
                  <polygon points="102.93 26.81 102.13 27.27 102.13 28.54 102.93 28.08 102.93 26.81" style="fill: #134561;"/>
                  <polygon points="102.93 24.74 102.13 25.21 102.13 26.48 102.93 26.01 102.93 24.74" style="fill: #134561;"/>
                </g>
              </g>
            </g>
          </g>
          <g>
            <g style="isolation: isolate;">
              <polygon points="92.1 33.83 81.21 27.5 86.88 24.22 97.78 30.55 92.1 33.83" style="fill: #ededec;"/>
              <polygon points="92.12 37.54 81.23 31.21 81.21 27.5 92.1 33.83 92.12 37.54" style="fill: #c3c2c2;"/>
              <g>
                <g>
                  <polygon points="82.46 29.77 81.77 29.37 81.77 28.29 82.46 28.69 82.46 29.77" style="fill: #064e70;"/>
                  <polygon points="82.46 31.53 81.77 31.14 81.77 30.05 82.46 30.45 82.46 31.53" style="fill: #064e70;"/>
                  <polygon points="84.02 30.65 83.33 30.25 83.33 29.17 84.02 29.57 84.02 30.65" style="fill: #064e70;"/>
                  <polygon points="84.02 32.42 83.33 32.02 83.33 30.94 84.02 31.33 84.02 32.42" style="fill: #064e70;"/>
                  <polygon points="85.54 31.53 84.85 31.14 84.85 30.05 85.54 30.45 85.54 31.53" style="fill: #064e70;"/>
                  <polygon points="85.54 33.3 84.85 32.9 84.85 31.82 85.54 32.22 85.54 33.3" style="fill: #064e70;"/>
                </g>
                <g>
                  <polygon points="86.94 32.42 86.25 32.02 86.25 30.94 86.94 31.33 86.94 32.42" style="fill: #064e70;"/>
                  <polygon points="86.94 34.18 86.25 33.78 86.25 32.7 86.94 33.1 86.94 34.18" style="fill: #064e70;"/>
                  <polygon points="88.5 33.3 87.81 32.9 87.81 31.82 88.5 32.22 88.5 33.3" style="fill: #064e70;"/>
                  <polygon points="88.5 35.06 87.81 34.67 87.81 33.58 88.5 33.98 88.5 35.06" style="fill: #064e70;"/>
                  <polygon points="90.03 34.18 89.34 33.78 89.34 32.7 90.03 33.1 90.03 34.18" style="fill: #064e70;"/>
                  <polygon points="90.03 35.95 89.34 35.55 89.34 34.47 90.03 34.86 90.03 35.95" style="fill: #064e70;"/>
                  <polygon points="91.49 35.03 90.8 34.63 90.8 33.54 91.49 33.94 91.49 35.03" style="fill: #064e70;"/>
                  <polygon points="91.49 36.79 90.8 36.39 90.8 35.31 91.49 35.71 91.49 36.79" style="fill: #064e70;"/>
                </g>
              </g>
            </g>
            <polygon points="92.1 33.83 92.12 37.54 97.78 34.28 97.78 30.55 92.1 33.83" style="fill: #b4b3b3;"/>
            <polygon points="93.76 35.11 93.04 35.52 93.04 36.64 93.76 36.23 93.76 35.11" style="fill: #134561;"/>
            <polygon points="93.76 33.28 93.04 33.69 93.04 34.81 93.76 34.4 93.76 33.28" style="fill: #134561;"/>
            <polygon points="95.37 34.19 94.65 34.61 94.65 35.73 95.37 35.32 95.37 34.19" style="fill: #134561;"/>
            <polygon points="95.37 32.37 94.65 32.78 94.65 33.9 95.37 33.49 95.37 32.37" style="fill: #134561;"/>
            <polygon points="96.95 33.28 96.24 33.69 96.24 34.81 96.95 34.4 96.95 33.28" style="fill: #134561;"/>
            <polygon points="96.95 31.45 96.24 31.87 96.24 32.99 96.95 32.58 96.95 31.45" style="fill: #134561;"/>
          </g>
          <g style="isolation: isolate;">
            <polygon points="103.49 17.54 106.26 15.92 105.43 18.5 102.65 20.12 103.49 17.54" style="fill: #7f7f7f;"/>
            <polygon points="86.92 7.97 89.7 6.36 106.26 15.92 103.49 17.54 86.92 7.97" style="fill: #e2e1e1;"/>
            <polygon points="103.49 17.54 102.65 20.12 87.74 11.51 86.92 7.97 103.49 17.54" style="fill: #c3c2c2;"/>
            <g>
              <polygon points="89.09 11.55 88.04 10.94 88.04 9.29 89.09 9.9 89.09 11.55" style="fill: #064e70;"/>
              <polygon points="90.99 12.65 89.94 12.04 89.94 10.39 90.99 11 90.99 12.65" style="fill: #064e70;"/>
              <polygon points="92.89 13.75 91.84 13.15 91.84 11.49 92.89 12.1 92.89 13.75" style="fill: #064e70;"/>
              <polygon points="94.79 14.85 93.74 14.25 93.74 12.59 94.79 13.2 94.79 14.85" style="fill: #064e70;"/>
              <polygon points="96.69 15.96 95.64 15.35 95.64 13.69 96.69 14.3 96.69 15.96" style="fill: #064e70;"/>
              <polygon points="98.59 17.06 97.54 16.45 97.54 14.8 98.59 15.4 98.59 17.06" style="fill: #064e70;"/>
              <polygon points="100.49 18.16 99.43 17.55 99.43 15.9 100.49 16.5 100.49 18.16" style="fill: #064e70;"/>
              <polygon points="102.39 19.26 101.33 18.65 101.33 17 102.39 17.6 102.39 19.26" style="fill: #064e70;"/>
            </g>
          </g>
          <g>
            <g style="isolation: isolate;">
              <polygon points="90.77 37.94 35.71 69.75 35.45 69.6 90.77 37.63 90.77 37.94" style="fill: #585959;"/>
              <polygon points="90.77 37.63 35.45 69.6 34.94 69.3 90.26 37.34 90.77 37.63" style="fill: #989898;"/>
            </g>
            <g style="isolation: isolate;">
              <polygon points="92.62 38.94 36.39 71.42 36.3 71.17 92.62 38.63 92.62 38.94" style="fill: #585959;"/>
              <polygon points="92.62 38.63 36.3 71.17 36.12 70.69 92.11 38.34 92.62 38.63" style="fill: #989898;"/>
            </g>
          </g>
          <g>
            <g style="isolation: isolate;">
              <polygon points="38.34 64.23 38.34 64.63 37.72 65 37.72 64.59 38.34 64.23" style="fill: #7e7e7e;"/>
              <polygon points="37.72 64.59 37.72 65 30.09 60.59 30.09 60.19 37.72 64.59" style="fill: #7f8080;"/>
              <polygon points="38.34 64.23 37.72 64.59 30.09 60.19 30.72 59.83 38.34 64.23" style="fill: #f5f5f5;"/>
            </g>
            <g style="isolation: isolate;">
              <polygon points="42.15 62.01 42.15 62.41 41.53 62.77 41.53 62.37 42.15 62.01" style="fill: #7e7e7e;"/>
              <polygon points="41.53 62.37 41.53 62.77 33.9 58.37 33.9 57.97 41.53 62.37" style="fill: #7f8080;"/>
              <polygon points="42.15 62.01 41.53 62.37 33.9 57.97 34.53 57.61 42.15 62.01" style="fill: #f5f5f5;"/>
            </g>
          </g>
          <g>
            <g style="isolation: isolate;">
              <polygon points="52.5 56.05 52.5 56.45 51.87 56.82 51.87 56.41 52.5 56.05" style="fill: #7e7e7e;"/>
              <polygon points="51.87 56.41 51.87 56.82 44.25 52.41 44.25 52.01 51.87 56.41" style="fill: #7f8080;"/>
              <polygon points="52.5 56.05 51.87 56.41 44.25 52.01 44.87 51.65 52.5 56.05" style="fill: #f5f5f5;"/>
            </g>
            <g style="isolation: isolate;">
              <polygon points="56.31 53.83 56.31 54.23 55.69 54.6 55.69 54.19 56.31 53.83" style="fill: #7e7e7e;"/>
              <polygon points="55.69 54.19 55.69 54.6 48.06 50.19 48.06 49.79 55.69 54.19" style="fill: #7f8080;"/>
              <polygon points="56.31 53.83 55.69 54.19 48.06 49.79 48.69 49.43 56.31 53.83" style="fill: #f5f5f5;"/>
            </g>
          </g>
          <g>
            <g style="isolation: isolate;">
              <polygon points="66.68 47.72 66.68 48.12 66.06 48.48 66.06 48.08 66.68 47.72" style="fill: #7e7e7e;"/>
              <polygon points="66.06 48.08 66.06 48.48 58.43 44.08 58.43 43.68 66.06 48.08" style="fill: #7f8080;"/>
              <polygon points="66.68 47.72 66.06 48.08 58.43 43.68 59.06 43.32 66.68 47.72" style="fill: #f5f5f5;"/>
            </g>
            <g style="isolation: isolate;">
              <polygon points="70.49 45.5 70.49 45.9 69.87 46.26 69.87 45.86 70.49 45.5" style="fill: #7e7e7e;"/>
              <polygon points="69.87 45.86 69.87 46.26 62.24 41.86 62.24 41.46 69.87 45.86" style="fill: #7f8080;"/>
              <polygon points="70.49 45.5 69.87 45.86 62.24 41.46 62.87 41.09 70.49 45.5" style="fill: #f5f5f5;"/>
            </g>
          </g>
          <g>
            <g style="isolation: isolate;">
              <polygon points="80.99 39.57 80.99 39.98 80.37 40.34 80.37 39.94 80.99 39.57" style="fill: #7e7e7e;"/>
              <polygon points="80.37 39.94 80.37 40.34 72.74 35.94 72.74 35.53 80.37 39.94" style="fill: #7f8080;"/>
              <polygon points="80.99 39.57 80.37 39.94 72.74 35.53 73.37 35.17 80.99 39.57" style="fill: #f5f5f5;"/>
            </g>
            <g style="isolation: isolate;">
              <polygon points="84.81 37.35 84.81 37.76 84.18 38.12 84.18 37.72 84.81 37.35" style="fill: #7e7e7e;"/>
              <polygon points="84.18 37.72 84.18 38.12 76.56 33.72 76.56 33.31 84.18 37.72" style="fill: #7f8080;"/>
              <polygon points="84.81 37.35 84.18 37.72 76.56 33.31 77.18 32.95 84.81 37.35" style="fill: #f5f5f5;"/>
            </g>
          </g>
          <g>
            <g style="isolation: isolate;">
              <g style="isolation: isolate;">
                <g style="isolation: isolate;">
                  <path d="M28.41,59.2v1.01s-.01.07-.02.1v-1.01s.02-.07.02-.1h0Z" style="fill: #bb4a1f;"/>
                  <path d="M28.39,59.3v1.01c-.03.08-.1.15-.21.21-.04.02-.08.04-.12.06v-1.01s.08-.03.12-.06c.1-.06.17-.13.2-.21h0Z" style="fill: #bb4a1f;"/>
                  <path d="M28.07,59.57v1.01s-.03.01-.05.02v-1.01s.03-.01.05-.02h0Z" style="fill: #bb4a1f;"/>
                  <path d="M28.03,59.58v1.01c-.17.06-.37.07-.56.05v-1.01c.19.03.39.01.56-.05h0Z" style="fill: #cf5217;"/>
                  <path d="M27.48,59.63v1.01c-.14-.02-.26-.06-.37-.12-.15-.09-.23-.2-.22-.31v-1.01c0,.11.08.23.23.31.1.06.23.1.36.12h0Z" style="fill: #bb4a1f;"/>
                </g>
              </g>
              <path d="M28.19,58.89c.3.17.3.45,0,.62-.3.17-.78.17-1.08,0-.3-.17-.3-.45,0-.62.3-.17.78-.17,1.08,0Z" style="fill: #ef8d24;"/>
            </g>
            <g style="isolation: isolate;">
              <g style="isolation: isolate;">
                <g style="isolation: isolate;">
                  <path d="M30.03,58.25v1.01s-.01.07-.02.1v-1.01s.02-.07.02-.1h0Z" style="fill: #bb4a1f;"/>
                  <path d="M30.02,58.35v1.01c-.03.08-.1.15-.21.21-.04.02-.08.04-.12.06v-1.01s.08-.03.12-.06c.1-.06.17-.13.2-.21h0Z" style="fill: #bb4a1f;"/>
                  <path d="M29.7,58.62v1.01s-.03.01-.05.02v-1.01s.03-.01.05-.02h0Z" style="fill: #bb4a1f;"/>
                  <path d="M29.65,58.64v1.01c-.17.06-.37.07-.56.05v-1.01c.19.03.39.01.56-.05h0Z" style="fill: #cf5217;"/>
                  <path d="M29.1,58.68v1.01c-.14-.02-.26-.06-.37-.12-.15-.09-.23-.2-.22-.31v-1.01c0,.11.08.23.23.31.1.06.23.1.36.12h0Z" style="fill: #bb4a1f;"/>
                </g>
              </g>
              <path d="M29.81,57.94c.3.17.3.45,0,.62-.3.17-.78.17-1.08,0-.3-.17-.3-.45,0-.62.3-.17.78-.17,1.08,0Z" style="fill: #ef8d24;"/>
            </g>
          </g>
          <g>
            <g style="isolation: isolate;">
              <g style="isolation: isolate;">
                <g style="isolation: isolate;">
                  <path d="M40.64,52.16v1.01s-.01.07-.02.1v-1.01s.02-.07.02-.1h0Z" style="fill: #bb4a1f;"/>
                  <path d="M40.62,52.26v1.01c-.03.08-.1.15-.21.21-.04.02-.08.04-.12.06v-1.01s.08-.03.12-.06c.1-.06.17-.13.2-.21h0Z" style="fill: #bb4a1f;"/>
                  <path d="M40.3,52.53v1.01s-.03.01-.05.02v-1.01s.03-.01.05-.02h0Z" style="fill: #bb4a1f;"/>
                  <path d="M40.26,52.54v1.01c-.17.06-.37.07-.56.05v-1.01c.19.03.39.01.56-.05h0Z" style="fill: #cf5217;"/>
                  <path d="M39.71,52.59v1.01c-.14-.02-.26-.06-.37-.12-.15-.09-.23-.2-.22-.31v-1.01c0,.11.08.23.23.31.1.06.23.1.36.12h0Z" style="fill: #bb4a1f;"/>
                </g>
              </g>
              <path d="M40.42,51.85c.3.17.3.45,0,.62-.3.17-.78.17-1.08,0-.3-.17-.3-.45,0-.62.3-.17.78-.17,1.08,0Z" style="fill: #ef8d24;"/>
            </g>
            <g style="isolation: isolate;">
              <g style="isolation: isolate;">
                <g style="isolation: isolate;">
                  <path d="M42.27,51.21v1.01s-.01.07-.02.1v-1.01s.02-.07.02-.1h0Z" style="fill: #bb4a1f;"/>
                  <path d="M42.25,51.31v1.01c-.03.08-.1.15-.21.21-.04.02-.08.04-.12.06v-1.01s.08-.03.12-.06c.1-.06.17-.13.2-.21h0Z" style="fill: #bb4a1f;"/>
                  <path d="M41.93,51.58v1.01s-.03.01-.05.02v-1.01s.03-.01.05-.02h0Z" style="fill: #bb4a1f;"/>
                  <path d="M41.88,51.59v1.01c-.17.06-.37.07-.56.05v-1.01c.19.03.39.01.56-.05h0Z" style="fill: #cf5217;"/>
                  <path d="M41.33,51.64v1.01c-.14-.02-.26-.06-.37-.12-.15-.09-.23-.2-.22-.31v-1.01c0,.11.08.23.23.31.1.06.23.1.36.12h0Z" style="fill: #bb4a1f;"/>
                </g>
              </g>
              <path d="M42.04,50.9c.3.17.3.45,0,.62-.3.17-.78.17-1.08,0-.3-.17-.3-.45,0-.62.3-.17.78-.17,1.08,0Z" style="fill: #ef8d24;"/>
            </g>
          </g>
          <g>
            <g style="isolation: isolate;">
              <g style="isolation: isolate;">
                <g style="isolation: isolate;">
                  <path d="M49.52,46.97v1.01s-.01.07-.02.1v-1.01s.02-.07.02-.1h0Z" style="fill: #bb4a1f;"/>
                  <path d="M49.5,47.07v1.01c-.03.08-.1.15-.21.21-.04.02-.08.04-.12.06v-1.01s.08-.03.12-.06c.1-.06.17-.13.2-.21h0Z" style="fill: #bb4a1f;"/>
                  <path d="M49.18,47.33v1.01s-.03.01-.05.02v-1.01s.03-.01.05-.02h0Z" style="fill: #bb4a1f;"/>
                  <path d="M49.14,47.35v1.01c-.17.06-.37.07-.56.05v-1.01c.19.03.39.01.56-.05h0Z" style="fill: #cf5217;"/>
                  <path d="M48.59,47.39v1.01c-.14-.02-.26-.06-.37-.12-.15-.09-.23-.2-.22-.31v-1.01c0,.11.08.23.23.31.1.06.23.1.36.12h0Z" style="fill: #bb4a1f;"/>
                </g>
              </g>
              <path d="M49.3,46.65c.3.17.3.45,0,.62-.3.17-.78.17-1.08,0-.3-.17-.3-.45,0-.62.3-.17.78-.17,1.08,0Z" style="fill: #ef8d24;"/>
            </g>
            <g style="isolation: isolate;">
              <g style="isolation: isolate;">
                <g style="isolation: isolate;">
                  <path d="M51.15,46.02v1.01s-.01.07-.02.1v-1.01s.02-.07.02-.1h0Z" style="fill: #bb4a1f;"/>
                  <path d="M51.13,46.12v1.01c-.03.08-.1.15-.21.21-.04.02-.08.04-.12.06v-1.01s.08-.03.12-.06c.1-.06.17-.13.2-.21h0Z" style="fill: #bb4a1f;"/>
                  <path d="M50.81,46.38v1.01s-.03.01-.05.02v-1.01s.03-.01.05-.02h0Z" style="fill: #bb4a1f;"/>
                  <path d="M50.76,46.4v1.01c-.17.06-.37.07-.56.05v-1.01c.19.03.39.01.56-.05h0Z" style="fill: #cf5217;"/>
                  <path d="M50.21,46.45v1.01c-.14-.02-.26-.06-.37-.12-.15-.09-.23-.2-.22-.31v-1.01c0,.11.08.23.23.31.1.06.23.1.36.12h0Z" style="fill: #bb4a1f;"/>
                </g>
              </g>
              <path d="M50.92,45.7c.3.17.3.45,0,.62-.3.17-.78.17-1.08,0-.3-.17-.3-.45,0-.62.3-.17.78-.17,1.08,0Z" style="fill: #ef8d24;"/>
            </g>
          </g>
          <g>
            <g style="isolation: isolate;">
              <g style="isolation: isolate;">
                <g style="isolation: isolate;">
                  <path d="M61.75,39.93v1.01s-.01.07-.02.1v-1.01s.02-.07.02-.1h0Z" style="fill: #bb4a1f;"/>
                  <path d="M61.73,40.03v1.01c-.03.08-.1.15-.21.21-.04.02-.08.04-.12.06v-1.01s.08-.03.12-.06c.1-.06.17-.13.2-.21h0Z" style="fill: #bb4a1f;"/>
                  <path d="M61.42,40.29v1.01s-.03.01-.05.02v-1.01s.03-.01.05-.02h0Z" style="fill: #bb4a1f;"/>
                  <path d="M61.37,40.31v1.01c-.17.06-.37.07-.56.05v-1.01c.19.03.39.01.56-.05h0Z" style="fill: #cf5217;"/>
                  <path d="M60.82,40.35v1.01c-.14-.02-.26-.06-.37-.12-.15-.09-.23-.2-.22-.31v-1.01c0,.11.08.23.23.31.1.06.23.1.36.12h0Z" style="fill: #bb4a1f;"/>
                </g>
              </g>
              <path d="M61.53,39.61c.3.17.3.45,0,.62-.3.17-.78.17-1.08,0-.3-.17-.3-.45,0-.62.3-.17.78-.17,1.08,0Z" style="fill: #ef8d24;"/>
            </g>
            <g style="isolation: isolate;">
              <g style="isolation: isolate;">
                <g style="isolation: isolate;">
                  <path d="M63.38,38.98v1.01s-.01.07-.02.1v-1.01s.02-.07.02-.1h0Z" style="fill: #bb4a1f;"/>
                  <path d="M63.36,39.08v1.01c-.03.08-.1.15-.21.21-.04.02-.08.04-.12.06v-1.01s.08-.03.12-.06c.1-.06.17-.13.2-.21h0Z" style="fill: #bb4a1f;"/>
                  <path d="M63.04,39.34v1.01s-.03.01-.05.02v-1.01s.03-.01.05-.02h0Z" style="fill: #bb4a1f;"/>
                  <path d="M62.99,39.36v1.01c-.17.06-.37.07-.56.05v-1.01c.19.03.39.01.56-.05h0Z" style="fill: #cf5217;"/>
                  <path d="M62.44,39.41v1.01c-.14-.02-.26-.06-.37-.12-.15-.09-.23-.2-.22-.31v-1.01c0,.11.08.23.23.31.1.06.23.1.36.12h0Z" style="fill: #bb4a1f;"/>
                </g>
              </g>
              <path d="M63.15,38.66c.3.17.3.45,0,.62-.3.17-.78.17-1.08,0-.3-.17-.3-.45,0-.62.3-.17.78-.17,1.08,0Z" style="fill: #ef8d24;"/>
            </g>
          </g>
          <g>
            <g style="isolation: isolate;">
              <g style="isolation: isolate;">
                <g style="isolation: isolate;">
                  <path d="M75.17,32.19v1.01s-.01.07-.02.1v-1.01s.02-.07.02-.1h0Z" style="fill: #bb4a1f;"/>
                  <path d="M75.15,32.28v1.01c-.03.08-.1.15-.21.21-.04.02-.08.04-.12.06v-1.01s.08-.03.12-.06c.1-.06.17-.13.2-.21h0Z" style="fill: #bb4a1f;"/>
                  <path d="M74.83,32.55v1.01s-.03.01-.05.02v-1.01s.03-.01.05-.02h0Z" style="fill: #bb4a1f;"/>
                  <path d="M74.78,32.57v1.01c-.17.06-.37.07-.56.05v-1.01c.19.03.39.01.56-.05h0Z" style="fill: #cf5217;"/>
                  <path d="M74.23,32.61v1.01c-.14-.02-.26-.06-.37-.12-.15-.09-.23-.2-.22-.31v-1.01c0,.11.08.23.23.31.1.06.23.1.36.12h0Z" style="fill: #bb4a1f;"/>
                </g>
              </g>
              <path d="M74.94,31.87c.3.17.3.45,0,.62-.3.17-.78.17-1.08,0s-.3-.45,0-.62c.3-.17.78-.17,1.08,0Z" style="fill: #ef8d24;"/>
            </g>
            <g style="isolation: isolate;">
              <g style="isolation: isolate;">
                <g style="isolation: isolate;">
                  <path d="M76.79,31.24v1.01s-.01.07-.02.1v-1.01s.02-.07.02-.1h0Z" style="fill: #bb4a1f;"/>
                  <path d="M76.77,31.34v1.01c-.03.08-.1.15-.21.21-.04.02-.08.04-.12.06v-1.01s.08-.03.12-.06c.1-.06.17-.13.2-.21h0Z" style="fill: #bb4a1f;"/>
                  <path d="M76.45,31.6v1.01s-.03.01-.05.02v-1.01s.03-.01.05-.02h0Z" style="fill: #bb4a1f;"/>
                  <path d="M76.41,31.62v1.01c-.17.06-.37.07-.56.05v-1.01c.19.03.39.01.56-.05h0Z" style="fill: #cf5217;"/>
                  <path d="M75.85,31.66v1.01c-.14-.02-.26-.06-.37-.12-.15-.09-.23-.2-.22-.31v-1.01c0,.11.08.23.23.31.1.06.23.1.36.12h0Z" style="fill: #bb4a1f;"/>
                </g>
              </g>
              <path d="M76.56,30.92c.3.17.3.45,0,.62-.3.17-.78.17-1.08,0-.3-.17-.3-.45,0-.62.3-.17.78-.17,1.08,0Z" style="fill: #ef8d24;"/>
            </g>
          </g>
          <g style="isolation: isolate;">
            <polygon points="87.99 26.04 87.98 26.92 86.25 27.92 86.27 27.04 87.99 26.04" style="fill: #afafaf;"/>
            <polygon points="86.27 27.04 86.25 27.92 84.51 26.92 84.53 26.04 86.27 27.04" style="fill: #dddcdc;"/>
            <polygon points="87.99 26.04 86.27 27.04 84.53 26.04 86.26 25.03 87.99 26.04" style="fill: #d0d0d0;"/>
          </g>
          <g>
            <g style="isolation: isolate;">
              <polygon points="15.22 65.09 19.56 62.57 17.19 61.21 12.85 63.73 15.22 65.09" style="fill: #fff;"/>
              <polygon points="15.21 65.95 19.55 63.43 19.56 62.57 15.22 65.09 15.21 65.95" style="fill: #9c9c9c;"/>
            </g>
            <polygon points="15.22 65.09 15.21 65.95 12.85 64.59 12.85 63.73 15.22 65.09" style="fill: #c8c7c7;"/>
          </g>
          <g>
            <g>
              <g style="isolation: isolate;">
                <polygon points="12.59 73.25 8.33 70.77 10.66 69.43 14.92 71.91 12.59 73.25" style="fill: #fff;"/>
                <polygon points="12.6 74.86 8.34 72.38 8.33 70.77 12.59 73.25 12.6 74.86" style="fill: #c8c7c7;"/>
              </g>
              <polygon points="12.59 73.25 12.6 74.86 14.92 73.52 14.92 71.91 12.59 73.25" style="fill: #9c9c9c;"/>
            </g>
            <g>
              <g style="isolation: isolate;">
                <g style="isolation: isolate;">
                  <g style="isolation: isolate;">
                    <path d="M12.2,62.44v8.85s-.02.05-.03.08v-8.85s.03-.05.03-.08h0Z" style="fill: #959494;"/>
                    <path d="M12.19,62.52v8.85c-.04.06-.09.11-.16.15-.11.07-.26.1-.41.1v-8.85c.16,0,.31-.03.43-.1.08-.04.13-.1.15-.15h0Z" style="fill: #b4b3b3;"/>
                    <path d="M11.63,62.77v8.85c-.16,0-.3-.03-.41-.1-.11-.06-.17-.15-.17-.23v-8.85c.01.09.07.17.18.23.11.06.25.1.39.1h0Z" style="fill: #dddcdc;"/>
                  </g>
                </g>
                <path d="M12.04,62.2c.22.13.22.34,0,.47-.22.13-.58.13-.81,0-.22-.13-.22-.34,0-.47.22-.13.58-.13.81,0Z" style="fill: #ccc;"/>
              </g>
              <g style="isolation: isolate;">
                <g style="isolation: isolate;">
                  <g style="clip-path: url(#uuid-20c446c6-6e93-445f-9d27-2cf86754c0fc);">
                    <path d="M13.28,62.11v.17c0,.24-.16.49-.48.67-.64.37-1.69.37-2.33,0-.33-.19-.49-.43-.49-.68v-.17c0,.25.16.49.49.68.65.37,1.69.37,2.33,0,.32-.19.48-.43.48-.67h0Z" style="fill: #c3c3c3;"/>
                  </g>
                </g>
                <path d="M12.8,61.43c.65.37.65.98,0,1.35-.64.37-1.69.37-2.33,0-.65-.37-.65-.98,0-1.35.64-.37,1.69-.37,2.33,0Z" style="fill: #fff;"/>
              </g>
              <g style="isolation: isolate;">
                <g style="isolation: isolate;">
                  <g style="isolation: isolate;">
                    <path d="M11.94,58.59l.19,3.55s0,.05-.01.07l-.19-3.58s0-.03,0-.04h0Z" style="fill: #959494;"/>
                    <path d="M11.93,58.63l.19,3.58c-.02.05-.07.1-.13.14-.1.06-.24.09-.37.09v-3.67c.1,0,.18-.02.24-.05.04-.02.07-.05.08-.08h0Z" style="fill: #c3c3c3;"/>
                    <path d="M11.63,58.77v3.67c-.14,0-.27-.03-.37-.09-.1-.06-.15-.13-.15-.21l.22-3.55s.03.09.09.13c.06.03.14.05.21.05h0Z" style="fill: #dddcdc;"/>
                  </g>
                </g>
                <path d="M11.85,58.46c.12.07.12.18,0,.25-.12.07-.31.07-.43,0-.12-.07-.12-.18,0-.25.12-.07.31-.07.43,0Z" style="fill: #fff;"/>
              </g>
            </g>
          </g>
          <g>
            <g style="isolation: isolate;">
              <g style="isolation: isolate;">
                <g style="isolation: isolate;">
                  <path d="M97.4,6.26v5.91s-.02.05-.03.07v-5.91s.03-.05.03-.07h0Z" style="fill: #959494;"/>
                  <path d="M97.38,6.33v5.91c-.03.05-.08.1-.15.14-.1.06-.24.09-.37.09v-5.91c.15,0,.28-.03.38-.09.07-.04.11-.09.13-.14h0Z" style="fill: #b4b3b3;"/>
                  <path d="M96.88,6.55v5.91c-.14,0-.27-.03-.36-.09-.1-.06-.15-.13-.15-.21v-5.91c.01.08.06.15.16.21.1.06.22.09.35.09h0Z" style="fill: #dddcdc;"/>
                </g>
              </g>
              <path d="M97.25,6.05c.2.12.2.3,0,.42-.2.12-.52.12-.72,0-.2-.12-.2-.3,0-.42.2-.12.52-.12.72,0Z" style="fill: #ccc;"/>
            </g>
            <g style="isolation: isolate;">
              <g style="isolation: isolate;">
                <g style="clip-path: url(#uuid-4b4b0502-992c-42e2-96e6-41e7051b9c76);">
                  <path d="M98.97,6.53v.22c0,.31-.2.61-.61.85-.81.47-2.13.47-2.94,0-.41-.24-.61-.55-.61-.86v-.22c0,.31.2.62.61.86.82.47,2.13.47,2.94,0,.4-.23.6-.54.6-.85h0Z" style="fill: #c3c3c3;"/>
                </g>
              </g>
              <path d="M98.35,5.68c.82.47.82,1.23,0,1.7-.81.47-2.13.47-2.94,0-.82-.47-.82-1.23,0-1.7.81-.47,2.13-.47,2.94,0Z" style="fill: #fff;"/>
            </g>
            <g style="isolation: isolate;">
              <g style="isolation: isolate;">
                <g style="isolation: isolate;">
                  <path d="M97.16,3.41l.17,3.19s0,.04-.01.06l-.17-3.21s0-.02,0-.04h0Z" style="fill: #959494;"/>
                  <path d="M97.15,3.45l.17,3.21s-.06.09-.12.12c-.09.05-.21.08-.33.08v-3.29c.09,0,.16-.01.21-.05.04-.02.06-.05.07-.07h0Z" style="fill: #c3c3c3;"/>
                  <path d="M96.88,3.57v3.29c-.13,0-.24-.03-.33-.08-.09-.05-.14-.12-.14-.19l.19-3.18s.03.08.08.11c.05.03.12.05.19.05h0Z" style="fill: #dddcdc;"/>
                </g>
              </g>
              <path d="M97.08,3.29c.11.06.11.16,0,.23-.11.06-.28.06-.39,0-.11-.06-.11-.16,0-.23.11-.06.28-.06.39,0Z" style="fill: #fff;"/>
            </g>
          </g>
          <g style="isolation: isolate;">
            <g style="isolation: isolate;">
              <g style="clip-path: url(#uuid-6c138a3a-f8ad-4255-b706-0fb64f8ab866);">
                <g style="isolation: isolate;">
                  <path d="M28.29,68.4v.63c0,.47-.31.94-.93,1.3-.07.04-.15.08-.22.12v-.63c.08-.04.15-.08.23-.12.62-.36.93-.83.93-1.3h0Z" style="fill: #ababab;"/>
                  <path d="M27.14,69.83v.63c-.63.3-1.41.44-2.19.42v-.63c.78.02,1.56-.12,2.19-.42h0Z" style="fill: #d4d4d4;"/>
                  <path d="M24.95,70.25v.63c-.77-.02-1.53-.2-2.12-.54-.63-.36-.95-.84-.95-1.32v-.63c0,.48.32.96.95,1.32.59.34,1.35.52,2.12.54h0Z" style="fill: #ababab;"/>
                </g>
              </g>
            </g>
            <path d="M27.35,67.08c1.26.73,1.26,1.9.01,2.63-1.25.73-3.28.73-4.53,0-1.26-.73-1.26-1.9-.01-2.63,1.25-.73,3.28-.73,4.53,0Z" style="fill: #fff;"/>
          </g>
        </g>
      </g>
    </g>
  </g>
</svg>