<?xml version="1.0" encoding="UTF-8"?>
<svg xmlns="http://www.w3.org/2000/svg" xmlns:xlink="http://www.w3.org/1999/xlink" viewBox="0 0 100 100">
  <defs>
    <linearGradient id="uuid-018080fe-03a5-4072-aef6-24410a1733c1" x1="41.92" y1="66.1" x2="68.39" y2="66.1" gradientUnits="userSpaceOnUse">
      <stop offset="0" stop-color="#3e3d43"/>
      <stop offset=".18" stop-color="#3e3d43"/>
      <stop offset=".59" stop-color="#4f4d54"/>
      <stop offset=".6" stop-color="#514f56"/>
      <stop offset=".69" stop-color="#535158"/>
      <stop offset=".8" stop-color="#514f56"/>
      <stop offset=".81" stop-color="#4f4d54"/>
      <stop offset=".94" stop-color="#49484e"/>
      <stop offset="1" stop-color="#44444a"/>
    </linearGradient>
    <linearGradient id="uuid-ae94abac-613a-49a2-9003-980fd9ca52f7" x1="51.68" y1="73.2" x2="68.38" y2="73.2" xlink:href="#uuid-018080fe-03a5-4072-aef6-24410a1733c1"/>
    <linearGradient id="uuid-16ddc2cf-e609-48f2-87c2-ab5612cd98e7" x1="37.87" y1="58.91" x2="64.83" y2="49.63" gradientUnits="userSpaceOnUse">
      <stop offset="0" stop-color="#44444a"/>
      <stop offset=".06" stop-color="#49484e"/>
      <stop offset=".19" stop-color="#4f4d54"/>
      <stop offset=".2" stop-color="#514f56"/>
      <stop offset=".31" stop-color="#535158"/>
      <stop offset=".4" stop-color="#514f56"/>
      <stop offset=".41" stop-color="#4f4d54"/>
      <stop offset=".82" stop-color="#3e3d43"/>
      <stop offset=".99" stop-color="#3e3d43"/>
    </linearGradient>
    <linearGradient id="uuid-e1528e6f-c640-4247-82e2-6a2874f918a0" x1="37.21" y1="57.75" x2="64.66" y2="57.75" gradientUnits="userSpaceOnUse">
      <stop offset=".21" stop-color="#f5c620"/>
      <stop offset=".34" stop-color="#f5bf1e"/>
      <stop offset=".5" stop-color="#f5ae1a"/>
      <stop offset=".56" stop-color="#f5a819"/>
      <stop offset=".63" stop-color="#f39f19"/>
      <stop offset=".75" stop-color="#f08819"/>
      <stop offset=".9" stop-color="#eb621b"/>
      <stop offset="1" stop-color="#e8471c"/>
    </linearGradient>
    <linearGradient id="uuid-6ff40fc6-de78-49df-8fd7-ca4eb6c54715" x1="38.09" y1="65.25" x2="68.54" y2="54.76" gradientUnits="userSpaceOnUse">
      <stop offset="0" stop-color="#4a484f"/>
      <stop offset=".18" stop-color="#4a484f"/>
      <stop offset=".59" stop-color="#5b5960"/>
      <stop offset=".6" stop-color="#5c5b62"/>
      <stop offset=".69" stop-color="#5e5d64"/>
      <stop offset=".8" stop-color="#5c5b62"/>
      <stop offset=".81" stop-color="#5b5960"/>
      <stop offset=".95" stop-color="#55535a"/>
      <stop offset="1" stop-color="#514f56"/>
    </linearGradient>
    <linearGradient id="uuid-bde51d1f-b5d8-4e4c-9ef4-53c93b8a4b36" x1="1817.32" y1="750.53" x2="1829.09" y2="754.21" gradientTransform="translate(-892.54 -1195.06) rotate(30) scale(1 .86) skewX(-26.42)" gradientUnits="userSpaceOnUse">
      <stop offset=".21" stop-color="#f5c620"/>
      <stop offset=".31" stop-color="#f4bf1f"/>
      <stop offset=".43" stop-color="#f4ae1d"/>
      <stop offset=".56" stop-color="#f3961a"/>
      <stop offset=".61" stop-color="#f18d1a"/>
      <stop offset=".7" stop-color="#ee761b"/>
      <stop offset=".71" stop-color="#ee741c"/>
      <stop offset="1" stop-color="#e8471c"/>
    </linearGradient>
    <linearGradient id="uuid-4afd863f-0c1f-45a4-ac02-3fa96d71c916" x1="38.15" y1="65.09" x2="43.4" y2="96.58" xlink:href="#uuid-e1528e6f-c640-4247-82e2-6a2874f918a0"/>
    <linearGradient id="uuid-8836553c-351e-494c-9fd5-b15c51c68fe6" x1="52.27" y1="16.1" x2="53.93" y2="13.21" xlink:href="#uuid-6ff40fc6-de78-49df-8fd7-ca4eb6c54715"/>
    <linearGradient id="uuid-bd368ea8-a04a-4e57-bf43-183e3085a043" data-name="鍊踑臇 蜸馯鳺艜 162" x1="65.79" y1="65.05" x2="66.78" y2="63.33" gradientUnits="userSpaceOnUse">
      <stop offset=".12" stop-color="#a4a6b1"/>
      <stop offset=".13" stop-color="#b2b3bd"/>
      <stop offset=".47" stop-color="#c3c3c9"/>
      <stop offset=".57" stop-color="#e4e3e3"/>
      <stop offset=".58" stop-color="#e6e6e8"/>
      <stop offset=".63" stop-color="#eceff3"/>
      <stop offset=".67" stop-color="#eef2f7"/>
      <stop offset=".74" stop-color="#ecf0f4"/>
      <stop offset=".78" stop-color="#e8e9ec"/>
      <stop offset=".81" stop-color="#e3e2e2"/>
      <stop offset="1" stop-color="#d7d7d9"/>
    </linearGradient>
  </defs>
  <g style="isolation: isolate;">
    <g id="uuid-647978e4-0452-4f2f-8564-7157800d3635" data-name="圖層 1">
      <g>
        <path d="M64.76,76.1c-8.66-.71-20.95,3.33-27.44,9.02-6.5,5.69-4.74,10.88,3.92,11.59,8.66.71,20.95-3.33,27.44-9.02,6.5-5.69,4.74-10.88-3.92-11.59Z" style="fill: #afafaf; mix-blend-mode: multiply; opacity: .5;"/>
        <path d="M68.17,54.92l-26.25,12.55,9.95,8.01h0c.26.22.54.42.85.61,3.64,2.19,9.47,1.29,13.03-2.01,1.85-1.72,2.72-3.75,2.62-5.61,0-.04.01-.06.01-.06l-.22-13.49Z" style="fill: url(#uuid-018080fe-03a5-4072-aef6-24410a1733c1);"/>
        <path d="M65.7,72.78c-3.79,3.2-9.83,4.23-14.02,2.54l.2.16c.26.22.54.42.85.61,3.64,2.19,9.47,1.29,13.03-2.01,1.64-1.52,2.51-3.29,2.62-4.96-.45,1.27-1.34,2.53-2.68,3.66Z" style="fill: url(#uuid-ae94abac-613a-49a2-9003-980fd9ca52f7);"/>
        <g>
          <g style="isolation: isolate;">
            <polygon points="42.86 57.88 42.05 57.41 41.92 12.03 42.74 12.5 42.86 57.88" style="fill: #8f94a2;"/>
            <polygon points="42.74 12.5 41.92 12.03 45.23 10.12 46.04 10.59 42.74 12.5" style="fill: #d6d9dd;"/>
            <polygon points="46.04 10.59 46.17 55.98 42.86 57.88 42.74 12.5 46.04 10.59" style="fill: #babcc1;"/>
          </g>
          <g>
            <g>
              <polygon points="40.3 14.66 36.09 12.23 36.09 8.66 40.3 11.09 40.3 14.66" style="fill: #4a4950;"/>
              <polygon points="50.05 5.46 40.3 11.09 36.09 8.66 45.85 3.03 50.05 5.46" style="fill: #7f7e83;"/>
              <polygon points="41.68 17.43 37.47 15 36.09 12.23 40.3 14.66 41.68 17.43" style="fill: #3e3c44;"/>
            </g>
            <g>
              <polygon points="50.05 9.02 40.3 14.66 40.3 11.09 50.05 5.46 50.05 9.02" style="fill: #5b5960;"/>
              <g>
                <polygon points="40.82 9.58 39.05 8.56 39.75 5.86 41.52 6.87 40.82 9.58" style="fill: #4a4950;"/>
                <polygon points="46.4 4.05 41.52 6.87 39.75 5.86 44.64 3.04 46.4 4.05" style="fill: #7f7e83;"/>
                <polygon points="47.1 5.95 40.82 9.58 41.52 6.87 46.4 4.05 47.1 5.95" style="fill: #5b5960;"/>
              </g>
              <polygon points="48.67 13.39 41.68 17.43 40.3 14.66 50.05 9.02 48.67 13.39" style="fill: #514f56;"/>
            </g>
          </g>
        </g>
        <path d="M67.56,51.27c-.74-1.87-2.13-3.52-4.19-4.76-6.31-3.8-16.43-2.24-22.61,3.49-3.31,3.07-4.82,6.72-4.53,10.03.2,2.26,1.23,4.36,3.1,6.02.5.44,1.05.85,1.67,1.22,1.75,1.06,3.8,1.7,5.98,1.95,5.06.59,10.82-.93,15.17-4.22.51-.38.99-.79,1.46-1.22,1.86-1.73,3.15-3.63,3.87-5.56.9-2.39.92-4.81.08-6.94ZM62.97,63.17h0c-.44.41-.91.8-1.39,1.16-4.14,3.14-9.61,4.58-14.43,4.02-2.07-.24-4.02-.85-5.69-1.86-.59-.35-1.11-.74-1.59-1.16-1.78-1.57-2.76-3.57-2.95-5.73-.27-3.15,1.16-6.62,4.31-9.55,5.88-5.46,15.51-6.94,21.51-3.33,1.95,1.18,3.28,2.75,3.98,4.53.8,2.04.78,4.34-.07,6.61-.69,1.83-1.92,3.65-3.69,5.29Z" style="fill: #5b5960;"/>
        <path d="M64.25,48.1c-.46-2.07-1.77-3.92-3.93-5.24-.02-.01-.04-.02-.06-.03-1.3-.78-2.78-1.3-4.35-1.58-4.88-.85-10.67.66-14.76,4.12-.19.16-.38.33-.57.5-1.1,1.02-1.97,2.11-2.61,3.23-1.55,2.7-1.78,5.57-.69,7.99.42.94.84,1.87,1.26,2.81.42.93.84,1.85,1.25,2.78.19.43.23.53.68.68.47.16.93.35,1.42.42.46.07.96.05,1.42.02.39-.03.42-.1.62-.46.58-1,1.36-1.98,2.34-2.89.17-.15.34-.3.51-.45,3.66-3.1,8.86-4.45,13.22-3.69,1.41.25,2.74.71,3.9,1.41.02.01.03.02.05.03,1.93,1.18,3.11,2.84,3.52,4.7l-3.2-14.34Z" style="fill: url(#uuid-16ddc2cf-e609-48f2-87c2-ab5612cd98e7);"/>
        <path d="M64.66,57.79c-.66,1.35-1.92,2.62-3.78,3.67-5.65,3.17-14.67,3.08-20.16-.2-1.72-1.03-2.89-2.25-3.51-3.54.63-1.32,1.84-2.57,3.63-3.6,5.54-3.2,14.56-3.18,20.13.04,1.82,1.05,3.05,2.31,3.68,3.64Z" style="fill: url(#uuid-e1528e6f-c640-4247-82e2-6a2874f918a0);"/>
        <path d="M67.13,52.63l-1.02-4.91c.6,2.87-.25,6.09-2.53,9-.52.66-1.12,1.31-1.79,1.93-1.27,1.18-2.71,2.18-4.25,2.99-2.77,1.46-5.87,2.31-8.88,2.48-2.63.15-5.19-.22-7.43-1.14-.61-.25-1.2-.55-1.75-.88-1.85-1.11-3.15-2.57-3.92-4.21l2.12,4.54c.74,1.58,2,2.98,3.78,4.06.54.32,1.1.61,1.69.85,2.16.89,4.63,1.24,7.16,1.1,2.9-.16,5.89-.98,8.56-2.39,1.49-.78,2.87-1.75,4.1-2.88h0c.65-.6,1.22-1.22,1.72-1.86,2.21-2.81,3.02-5.91,2.44-8.68Z" style="fill: url(#uuid-6ff40fc6-de78-49df-8fd7-ca4eb6c54715);"/>
        <path d="M61.79,58.66c-6.1,5.66-16.09,7.2-22.31,3.45-6.23-3.75-6.33-11.39-.23-17.05s16.09-7.2,22.31-3.45c6.23,3.75,6.33,11.39.23,17.05ZM60.46,57.86c5.38-4.99,5.29-11.72-.2-15.04-5.49-3.31-14.3-1.95-19.68,3.04-5.38,4.99-5.29,11.72.2,15.04,5.49,3.31,14.3,1.95,19.68-3.04h0Z" style="fill: #5b5960;"/>
        <g>
          <path d="M43.88,93.12c-2.93,1.69-7.7,1.68-10.64-.02-2.95-1.7-2.96-4.45-.03-6.15s7.7-1.68,10.64.02c2.95,1.7,2.96,4.45.03,6.15Z" style="fill: url(#uuid-bde51d1f-b5d8-4e4c-9ef4-53c93b8a4b36);"/>
          <path d="M46.04,60.29c-2.94-1.78-6.86-2.23-8.09,1.83-.59,1.96-.2,4.06.08,6.08.55,3.99.66,8.08-.1,12.04-.76,3.96-1.16,3.34-3.86,6.33.09,0,.17,0,.25.01-1.85,1.41-1.65,3.43.58,4.72,2.44,1.41,6.39,1.42,8.81.02,1.18-.68,1.78-1.57,1.81-2.47,0,0,0,0,0-.01.16-1.82-.02-5.68-.86-7.3-1.33-2.57-1.56-5.56-1.62-8.46-.04-1.97-.01-3.93.08-5.89.04-.9.1-1.82.38-2.68.42-1.3,1.34-2.42,2.52-3.09.2-.11.42-.24.46-.46.06-.28-.22-.51-.47-.66Z" style="fill: url(#uuid-4afd863f-0c1f-45a4-ac02-3fa96d71c916);"/>
          <rect x="34.61" y="81.41" width=".42" height="1.01" transform="translate(-48.25 49.95) rotate(-45.93)" style="fill: #f4a118;"/>
          <rect x="29.82" y="88.78" width=".42" height=".81" transform="translate(-62.06 108.55) rotate(-83.27)" style="fill: #f4a118;"/>
          <rect x="46.37" y="86.09" width=".87" height=".42" transform="translate(-48.05 60.97) rotate(-46.57)" style="fill: #f4a118;"/>
          <rect x="45.36" y="81.88" width=".96" height=".42" transform="translate(-26.89 22.51) rotate(-21.5)" style="fill: #f4a118;"/>
          <rect x="32.51" y="85.05" width=".42" height=".82" transform="translate(-56.27 64.15) rotate(-55.58)" style="fill: #f4a118;"/>
          <rect x="39.11" y="94.76" width=".42" height=".7" transform="translate(-42.77 33.05) rotate(-30.45)" style="fill: #f4a118;"/>
          <polygon points="45.36 79.31 44.99 79.11 45.61 77.89 45.98 78.08 45.36 79.31" style="fill: #f4a118;"/>
          <rect x="28.74" y="85.69" width=".42" height=".9" transform="translate(-61.87 83.02) rotate(-69.45)" style="fill: #f4a118;"/>
          <path d="M34.65,84.41c0,.11-.09.19-.19.19s-.19-.09-.19-.19.09-.19.19-.19.19.09.19.19Z" style="fill: #f4a118;"/>
          <path d="M32.96,80.27c-.1.02-.21-.04-.23-.15s.04-.21.15-.23c.1-.02.21.04.23.15.02.1-.04.21-.15.23Z" style="fill: #f4a118;"/>
          <path d="M26.09,86.62c0,.11-.09.19-.19.19s-.19-.09-.19-.19.09-.19.19-.19.19.09.19.19Z" style="fill: #f4a118;"/>
          <path d="M31.97,94.19c0,.11-.09.19-.19.19s-.19-.09-.19-.19.09-.19.19-.19.19.09.19.19Z" style="fill: #f4a118;"/>
          <path d="M48.22,88.71c0,.11-.09.19-.19.19s-.19-.09-.19-.19.09-.19.19-.19.19.09.19.19Z" style="fill: #f4a118;"/>
          <circle cx="46.09" cy="85.43" r=".19" style="fill: #f4a118;"/>
          <circle cx="44.36" cy="78.4" r=".19" style="fill: #f4a118;"/>
          <path d="M47,81.35c0,.11-.09.19-.19.19s-.19-.09-.19-.19.09-.19.19-.19.19.09.19.19Z" style="fill: #f4a118;"/>
        </g>
        <path d="M61.79,58.66c-6.1,5.66-16.09,7.2-22.31,3.45-6.23-3.75-6.33-11.39-.23-17.05s16.09-7.2,22.31-3.45c6.23,3.75,6.33,11.39.23,17.05ZM60.46,57.86c5.38-4.99,5.29-11.72-.2-15.04-5.49-3.31-14.3-1.95-19.68,3.04-5.38,4.99-5.29,11.72.2,15.04,5.49,3.31,14.3,1.95,19.68-3.04h0Z" style="fill: #5b5960;"/>
        <g>
          <g style="isolation: isolate;">
            <polygon points="64.03 70.11 63.22 69.63 63.09 24.25 63.91 24.72 64.03 70.11" style="fill: #8f94a2;"/>
            <polygon points="63.91 24.72 63.09 24.25 66.4 22.34 67.21 22.82 63.91 24.72" style="fill: #d6d9dd;"/>
            <polygon points="67.34 68.2 64.03 70.11 64.02 65.73 64.02 64.5 63.91 24.72 67.21 22.82 67.34 68.2" style="fill: #babcc1;"/>
          </g>
          <path d="M61.9,17.81h0s0,0,0,0c0,0,0,0,0,0l-15.93-9.19h0c-.21-.13-.51-.11-.83.08-.65.37-1.18,1.29-1.18,2.05,0,.38.13.64.35.77h0s15.92,9.19,15.92,9.19h0c.21.13.51.11.83-.08.65-.38,1.18-1.29,1.18-2.05,0-.38-.13-.64-.34-.77Z" style="fill: url(#uuid-8836553c-351e-494c-9fd5-b15c51c68fe6);"/>
          <g>
            <g>
              <polygon points="61.27 26.77 57.07 24.34 57.07 20.77 61.27 23.2 61.27 26.77" style="fill: #4a4950;"/>
              <polygon points="71.03 17.57 61.27 23.2 57.07 20.77 66.82 15.14 71.03 17.57" style="fill: #7f7e83;"/>
              <polygon points="62.66 29.54 58.45 27.11 57.07 24.34 61.27 26.77 62.66 29.54" style="fill: #3e3c44;"/>
            </g>
            <g>
              <polygon points="71.03 21.14 61.27 26.77 61.27 23.2 71.03 17.57 71.03 21.14" style="fill: #5b5960;"/>
              <g>
                <polygon points="61.79 21.69 60.03 20.67 60.73 17.97 62.49 18.99 61.79 21.69" style="fill: #4a4950;"/>
                <polygon points="67.38 16.17 62.49 18.99 60.73 17.97 65.61 15.15 67.38 16.17" style="fill: #7f7e83;"/>
                <polygon points="68.08 18.06 61.79 21.69 62.49 18.99 67.38 16.17 68.08 18.06" style="fill: #5b5960;"/>
              </g>
              <polygon points="69.65 25.5 62.66 29.54 61.27 26.77 71.03 21.14 69.65 25.5" style="fill: #514f56;"/>
            </g>
          </g>
          <g>
            <path d="M67.23,62.58l-.57-.33h0c-.24-.14-.58-.12-.95.09-.73.42-1.32,1.45-1.32,2.29,0,.42.15.71.38.85h0s0,0,0,0h0s.58.34.58.34l.21-.36s.1-.05.15-.07c.73-.42,1.32-1.45,1.32-2.29,0-.06,0-.11,0-.17l.2-.35Z" style="fill: #424048;"/>
            <path d="M67.61,63.42c0,.84-.59,1.86-1.32,2.29-.73.42-1.32.08-1.32-.76s.59-1.86,1.32-2.29c.73-.42,1.32-.08,1.32.76Z" style="fill: #5b5960;"/>
            <path d="M66.98,63.86l.18-.31-.37-.21s0,0-.01,0h0s0,0,0,0c-.13-.06-.29-.05-.48.06-.39.22-.7.77-.7,1.21,0,.2.07.35.18.43h0s.01,0,.01,0c.01,0,.02.01.04.02l.39.22.2-.35c.32-.24.57-.68.6-1.07Z" style="fill: url(#uuid-bd368ea8-a04a-4e57-bf43-183e3085a043);"/>
            <path d="M67.37,64c0,.45-.32.99-.7,1.21s-.7.04-.7-.4.32-.99.7-1.21.7-.04.7.4Z" style="fill: #d3d3d5;"/>
          </g>
        </g>
      </g>
    </g>
  </g>
</svg>