<?xml version="1.0" encoding="UTF-8"?>
<svg xmlns="http://www.w3.org/2000/svg" xmlns:xlink="http://www.w3.org/1999/xlink" viewBox="0 0 100 100">
  <defs>
    <linearGradient id="uuid-04b63dd2-c2b9-47df-84c7-a632d0e06c60" x1="65.24" y1="82.95" x2="37.37" y2="82.95" gradientUnits="userSpaceOnUse">
      <stop offset="0" stop-color="#4a484f"/>
      <stop offset=".18" stop-color="#4a484f"/>
      <stop offset=".59" stop-color="#5b5960"/>
      <stop offset=".6" stop-color="#5c5b62"/>
      <stop offset=".69" stop-color="#5e5d64"/>
      <stop offset=".8" stop-color="#5c5b62"/>
      <stop offset=".81" stop-color="#5b5960"/>
      <stop offset=".95" stop-color="#55535a"/>
      <stop offset="1" stop-color="#514f56"/>
    </linearGradient>
    <linearGradient id="uuid-5a0653af-28c0-4223-be06-c1eea765c3b4" x1="60.91" y1="89.06" x2="40.61" y2="89.06" gradientUnits="userSpaceOnUse">
      <stop offset="0" stop-color="#3e3d43"/>
      <stop offset=".18" stop-color="#3e3d43"/>
      <stop offset=".59" stop-color="#4f4d54"/>
      <stop offset=".6" stop-color="#514f56"/>
      <stop offset=".69" stop-color="#535158"/>
      <stop offset=".8" stop-color="#514f56"/>
      <stop offset=".81" stop-color="#4f4d54"/>
      <stop offset=".94" stop-color="#49484e"/>
      <stop offset="1" stop-color="#44444a"/>
    </linearGradient>
    <linearGradient id="uuid-86a6a827-5842-4aea-afbc-2d1945b5b96d" x1="71" y1="73.13" x2="31.62" y2="70.87" xlink:href="#uuid-5a0653af-28c0-4223-be06-c1eea765c3b4"/>
    <linearGradient id="uuid-76bad566-9143-4c34-b3e1-7007bcccaca3" x1="35.15" y1="58.88" x2="66.39" y2="58.88" gradientUnits="userSpaceOnUse">
      <stop offset="0" stop-color="#44444a"/>
      <stop offset=".06" stop-color="#49484e"/>
      <stop offset=".19" stop-color="#4f4d54"/>
      <stop offset=".2" stop-color="#514f56"/>
      <stop offset=".31" stop-color="#535158"/>
      <stop offset=".4" stop-color="#514f56"/>
      <stop offset=".41" stop-color="#4f4d54"/>
      <stop offset=".82" stop-color="#3e3d43"/>
      <stop offset=".99" stop-color="#3e3d43"/>
    </linearGradient>
    <linearGradient id="uuid-1db62020-7fb0-42f4-ba6f-34a1ab601e34" x1="66.82" y1="65.18" x2="34.12" y2="65.07" xlink:href="#uuid-04b63dd2-c2b9-47df-84c7-a632d0e06c60"/>
    <linearGradient id="uuid-4fcc83e3-a957-4dac-847d-6d80e77be521" x1="35.73" y1="59.06" x2="65.8" y2="59.06" gradientUnits="userSpaceOnUse">
      <stop offset="0" stop-color="#e8471c"/>
      <stop offset=".1" stop-color="#eb621b"/>
      <stop offset=".25" stop-color="#f08819"/>
      <stop offset=".37" stop-color="#f39f19"/>
      <stop offset=".44" stop-color="#f5a819"/>
      <stop offset=".5" stop-color="#f5ae1a"/>
      <stop offset=".66" stop-color="#f5bf1e"/>
      <stop offset=".79" stop-color="#f5c620"/>
    </linearGradient>
    <linearGradient id="uuid-e4f6ff4c-ee4d-48f9-b959-9a65b10f515d" data-name="鍊踑臇 蜸馯鳺艜 162" x1="64.73" y1="74.67" x2="63.18" y2="76.16" gradientUnits="userSpaceOnUse">
      <stop offset=".12" stop-color="#a4a6b1"/>
      <stop offset=".13" stop-color="#b2b3bd"/>
      <stop offset=".47" stop-color="#c3c3c9"/>
      <stop offset=".57" stop-color="#e4e3e3"/>
      <stop offset=".58" stop-color="#e6e6e8"/>
      <stop offset=".63" stop-color="#eceff3"/>
      <stop offset=".67" stop-color="#eef2f7"/>
      <stop offset=".74" stop-color="#ecf0f4"/>
      <stop offset=".78" stop-color="#e8e9ec"/>
      <stop offset=".81" stop-color="#e3e2e2"/>
      <stop offset="1" stop-color="#d7d7d9"/>
    </linearGradient>
    <linearGradient id="uuid-5eb77d3d-819b-4db8-a707-b264d566bdbd" x1="48.59" y1="22.65" x2="50.42" y2="19.48" xlink:href="#uuid-04b63dd2-c2b9-47df-84c7-a632d0e06c60"/>
  </defs>
  <g style="isolation: isolate;">
    <g id="uuid-d6b642e0-4d49-4fc3-85d4-b9a1182c5347" data-name="圖層 1">
      <g>
        <path d="M74.71,80.75c-8.9-3.89-23.28-3.91-32.12-.04-8.84,3.86-8.8,10.15.1,14.04,8.9,3.89,23.28,3.91,32.12.04,8.84-3.86,8.8-10.15-.1-14.04Z" style="fill: #afafaf; mix-blend-mode: multiply; opacity: .5;"/>
        <path d="M67.42,73.95s-.02.04-.04.06c-.03.04-.05.08-.08.12-.01.02-.03.04-.04.06-.03.05-.07.1-.1.14-.01.01-.02.03-.03.04-.05.06-.09.12-.14.18-.01.02-.03.03-.04.05-.04.05-.07.09-.11.14-.02.02-.04.04-.05.06-.03.04-.07.08-.1.12-.02.02-.04.04-.06.07-.04.04-.07.08-.11.12-.02.02-.04.04-.06.06-.05.05-.1.1-.15.15,0,0-.02.02-.03.03-.06.06-.12.12-.18.17-.02.02-.04.03-.05.05-.05.04-.09.08-.14.12-.02.02-.05.04-.07.06-.04.04-.09.07-.13.11-.02.02-.05.04-.08.06-.05.04-.09.08-.14.12-.02.02-.05.04-.07.05-.07.05-.14.1-.21.16,0,0,0,0-.01,0-.07.06-.15.11-.23.16-.02.02-.05.03-.07.05-.05.04-.11.07-.16.11-.03.02-.06.04-.09.06-.03.02-.05.03-.08.05h0c-.49.32-1.02.62-1.6.91-.81.4-1.67.76-2.58,1.06h0s-.06.02-.09.03c-.08.03-.16.05-.25.08-.05.02-.11.03-.16.05-.09.03-.17.05-.26.08-.05.01-.1.03-.15.04-.1.03-.21.06-.31.09-.03,0-.07.02-.1.03-.14.04-.28.07-.41.11-.04,0-.07.02-.11.03-.1.03-.21.05-.31.08-.05.01-.1.02-.15.04-.09.02-.18.04-.27.06-.06.01-.11.02-.17.04-.09.02-.18.04-.26.06-.06.01-.11.02-.17.04-.09.02-.18.04-.27.05-.05.01-.11.02-.16.03-.1.02-.2.04-.3.05-.04,0-.09.02-.13.02-.15.02-.29.05-.44.07-.02,0-.03,0-.05,0-.13.02-.26.04-.39.06-.05,0-.1.01-.15.02-.1.01-.2.03-.29.04-.06,0-.11.01-.17.02-.09.01-.18.02-.28.03-.06,0-.12.01-.18.02-.09,0-.19.02-.28.03-.06,0-.12.01-.17.02-.1,0-.2.02-.3.03-.05,0-.1,0-.15.01-.13.01-.25.02-.38.03-.02,0-.04,0-.06,0,0,0,0,0,0,0-.03,0-.05,0-.08,0-.11,0-.21.01-.32.02-.05,0-.09,0-.14,0-.09,0-.17,0-.26.01-.05,0-.11,0-.16,0-.08,0-.16,0-.24,0-.06,0-.11,0-.17,0-.08,0-.16,0-.24,0-.06,0-.11,0-.17,0-.08,0-.16,0-.24,0-.06,0-.11,0-.17,0-.08,0-.16,0-.24,0-.05,0-.11,0-.16,0-.09,0-.17,0-.26,0-.05,0-.09,0-.14,0-.11,0-.22,0-.33,0-.02,0-.04,0-.07,0-.13,0-.27,0-.4-.02-.04,0-.08,0-.12,0-.09,0-.19,0-.28-.01-.05,0-.1,0-.15,0-.08,0-.17-.01-.25-.02-.05,0-.11,0-.16-.01-.08,0-.16-.01-.24-.02-.06,0-.11,0-.17-.01-.08,0-.15-.01-.23-.02-.06,0-.11-.01-.17-.02-.08,0-.16-.02-.23-.02-.05,0-.11-.01-.16-.02-.02,0-.04,0-.07,0-.04,0-.08,0-.11-.01-.09-.01-.19-.02-.28-.03-.06,0-.12-.01-.18-.02-.09-.01-.18-.02-.27-.04-.06,0-.12-.02-.17-.02-.09-.01-.19-.03-.28-.04-.05,0-.11-.02-.16-.02-.11-.02-.22-.04-.33-.06-.04,0-.07-.01-.11-.02-.15-.03-.29-.05-.43-.08-.04,0-.07-.01-.11-.02-.11-.02-.22-.04-.32-.06-.05-.01-.1-.02-.16-.03-.09-.02-.18-.04-.27-.06-.06-.01-.11-.03-.17-.04-.09-.02-.17-.04-.26-.06-.06-.01-.11-.03-.17-.04-.09-.02-.18-.04-.26-.07-.05-.01-.11-.03-.16-.04-.1-.02-.19-.05-.28-.08-.04-.01-.09-.02-.13-.04-.14-.04-.27-.08-.41-.12-.01,0-.02,0-.03,0-.12-.04-.25-.08-.37-.11-.04-.01-.09-.03-.13-.04-.09-.03-.18-.06-.27-.09-.05-.02-.1-.03-.15-.05-.08-.03-.16-.06-.24-.09-.05-.02-.1-.04-.15-.06-.08-.03-.16-.06-.24-.09-.05-.02-.1-.04-.15-.06-.08-.03-.17-.07-.25-.1-.03-.01-.07-.03-.1-.04,0,0-.02,0-.03-.01-.14-.06-.27-.11-.4-.17-.02-.01-.05-.02-.07-.03-.11-.05-.22-.1-.32-.15-.04-.02-.08-.04-.13-.06-.09-.04-.19-.09-.28-.13-.04-.02-.08-.04-.12-.06-.13-.06-.25-.13-.38-.19-.1-.05-.2-.11-.29-.16-.03-.02-.06-.04-.09-.05-.06-.04-.13-.07-.19-.11-.04-.02-.08-.05-.11-.07-.05-.03-.11-.06-.16-.1-.04-.02-.08-.05-.11-.07-.05-.03-.1-.06-.15-.1-.04-.02-.08-.05-.11-.07-.05-.03-.1-.06-.14-.1-.04-.03-.08-.05-.11-.08-.05-.03-.09-.06-.14-.09-.04-.03-.07-.05-.11-.08-.04-.03-.09-.06-.13-.09-.04-.03-.07-.05-.11-.08-.04-.03-.08-.06-.12-.1,0,0,0,0-.01,0-.06-.05-.12-.1-.18-.15-.02-.01-.03-.03-.05-.04-.05-.04-.1-.08-.15-.12-.02-.02-.04-.03-.06-.05-.05-.04-.1-.09-.15-.13-.01-.01-.02-.02-.04-.03-.06-.05-.12-.11-.17-.16-.01-.01-.03-.03-.04-.04-.04-.04-.09-.08-.13-.13-.02-.02-.03-.03-.05-.05-.04-.05-.09-.09-.13-.14,0,0-.02-.02-.03-.03-.05-.06-.1-.11-.15-.17-.01-.02-.03-.03-.04-.05-.04-.04-.07-.09-.11-.13-.01-.02-.03-.04-.04-.05-.04-.05-.08-.1-.11-.15,0,0-.01-.02-.02-.03-.04-.06-.09-.11-.13-.17-.01-.02-.02-.03-.03-.05-.03-.04-.06-.09-.09-.13-.01-.02-.02-.04-.04-.05,0-.01-.02-.03-.03-.04h0s5.92,12.22,5.92,12.22c-.01,0-.02,0-.03-.01l.63,1.29s0,0,0,0c.29,1.06,1.22,2.09,2.78,2.92,3.93,2.08,10.38,2.14,14.42.13,1.61-.8,2.59-1.81,2.94-2.86h.01s.02,0,.02,0l6.59-13.68Z" style="fill: url(#uuid-04b63dd2-c2b9-47df-84c7-a632d0e06c60);"/>
        <path d="M60.36,86.58s-.06.02-.09.03c-.08.03-.16.05-.24.08-.05.02-.11.03-.16.05-.09.03-.17.05-.26.08-.05.01-.1.03-.15.04-.1.03-.21.06-.31.09-.03,0-.06.02-.1.03-.14.04-.28.07-.42.11-.03,0-.07.02-.1.03-.1.03-.21.05-.31.08l-.15.04c-.09.02-.18.04-.27.06-.06.01-.11.03-.17.04-.09.02-.17.04-.26.06-.06.01-.11.02-.17.03-.05.01-.11.02-.16.03-.03,0-.07.01-.11.02-.06,0-.11.02-.16.03-.1.02-.2.04-.3.05-.05,0-.09.01-.13.02-.15.02-.29.05-.44.07-.02,0-.03,0-.05,0-.13.02-.26.04-.39.06-.05,0-.1.01-.15.02-.1.01-.2.03-.29.04-.06,0-.12.01-.17.02-.09.01-.18.02-.28.03-.06,0-.12.01-.18.02-.09,0-.19.02-.28.03-.06,0-.12.01-.17.02-.1,0-.2.02-.3.03-.05,0-.1,0-.16.01-.13,0-.26.02-.38.03-.02,0-.04,0-.06,0h0s-.05,0-.08,0c-.11,0-.21.01-.32.02-.05,0-.09,0-.14,0-.09,0-.17,0-.26.01-.05,0-.1,0-.16,0-.08,0-.16,0-.24,0-.05,0-.11,0-.17,0-.08,0-.16,0-.23,0-.06,0-.11,0-.17,0-.08,0-.16,0-.24,0h-.41c-.05,0-.1,0-.16,0-.09,0-.17,0-.26,0-.05,0-.09,0-.14,0-.11,0-.22,0-.34,0-.02,0-.04,0-.06,0-.13,0-.27,0-.4-.02-.04,0-.08,0-.12,0-.09,0-.19,0-.28-.01-.05,0-.1,0-.15,0-.08,0-.16,0-.25-.02-.05,0-.11,0-.16-.01-.08,0-.16-.01-.24-.02-.06,0-.11,0-.17-.01-.08,0-.16-.01-.23-.02-.06,0-.11,0-.17-.02-.08,0-.16-.01-.23-.02-.05,0-.11,0-.16-.02-.02,0-.05,0-.07,0h-.11c-.09-.02-.19-.04-.28-.05-.06,0-.12-.01-.18-.02-.09-.01-.18-.02-.27-.04-.06,0-.12-.02-.17-.02-.09-.01-.19-.03-.28-.04-.05,0-.11-.02-.16-.02-.11-.02-.22-.04-.33-.05-.03,0-.07-.01-.11-.02-.15-.03-.29-.05-.43-.08-.04,0-.07-.01-.11-.02-.11-.02-.22-.04-.32-.06-.03,0-.06-.01-.09-.02-.02,0-.05,0-.07-.01-.09-.02-.18-.04-.27-.06-.06-.01-.11-.02-.17-.04-.09-.02-.17-.04-.26-.06-.06-.01-.11-.03-.17-.04-.09-.02-.18-.04-.26-.07-.05-.01-.1-.03-.16-.04-.09-.02-.19-.05-.28-.08-.04-.01-.09-.02-.13-.04-.14-.04-.27-.08-.41-.12-.01,0-.02,0-.03,0-.13-.04-.25-.08-.37-.11-.05-.01-.09-.03-.13-.04-.09-.03-.18-.06-.27-.09-.05-.02-.1-.04-.15-.05-.08-.03-.16-.06-.24-.09-.05-.02-.1-.04-.16-.05-.08-.03-.16-.06-.24-.09-.05-.02-.1-.04-.15-.06-.07-.03-.15-.06-.22-.09l.63,1.29s0,0,0,0c.29,1.06,1.22,2.09,2.78,2.92,1.96,1.04,4.56,1.57,7.17,1.6,2.61.02,5.23-.46,7.25-1.47,1.61-.8,2.59-1.81,2.94-2.86h.01l.71-1.48c-.38.15-.77.3-1.16.43Z" style="fill: url(#uuid-5a0653af-28c0-4223-be06-c1eea765c3b4);"/>
        <g style="isolation: isolate;">
          <polygon points="38.29 68.43 37.4 67.91 37.26 18.19 38.15 18.7 38.29 68.43" style="fill: #babcc1;"/>
          <polygon points="38.15 18.7 37.26 18.19 40.88 16.1 41.77 16.61 38.15 18.7" style="fill: #d6d9dd;"/>
          <polygon points="41.77 16.61 41.91 66.34 38.29 68.43 38.15 18.7 41.77 16.61" style="fill: #8f94a2;"/>
        </g>
        <path d="M68.64,64.52s0-.02,0-.04v-.09c.01-.15.02-.31.03-.44,0,.07-.01.15-.02.22,0,.02,0,.05,0,.07,0,.05-.01.1-.02.15,0,.03,0,.05-.01.08,0,.05-.02.1-.02.15,0,.03,0,.05-.01.08,0,.05-.02.1-.03.16,0,.02,0,.04-.01.07-.02.07-.03.15-.05.22,0,0,0,.02,0,.03-.02.06-.04.13-.05.19,0,.02-.02.05-.02.07-.02.05-.03.1-.05.15,0,.03-.02.05-.03.08-.02.05-.03.1-.05.14,0,.03-.02.05-.03.08-.02.05-.04.11-.07.16,0,.02-.02.04-.02.06-.03.07-.06.15-.1.22,0,.02-.01.03-.02.05-.03.06-.06.11-.09.17-.01.02-.03.05-.04.07-.03.05-.05.1-.08.14-.01.03-.03.05-.05.08-.03.05-.05.09-.08.14-.01.02-.03.05-.04.07-.03.06-.07.11-.1.16-.01.02-.02.03-.03.05-.05.07-.09.14-.14.21-.01.02-.03.04-.04.05-.04.05-.07.1-.11.16-.02.02-.04.05-.06.07-.03.05-.07.09-.11.14-.02.03-.04.05-.06.08-.04.05-.08.09-.11.14-.02.02-.04.05-.06.07-.05.06-.1.11-.15.17,0,.01-.02.02-.03.03-.06.07-.12.13-.19.2-.02.02-.04.04-.06.06-.05.05-.09.1-.14.14-.02.02-.05.05-.07.07-.04.04-.09.09-.13.13-.03.02-.05.05-.08.07-.05.04-.1.09-.15.13-.02.02-.05.04-.07.06-.07.06-.14.12-.21.18,0,0,0,0-.01.01-.08.06-.15.13-.23.19-.02.02-.05.04-.07.06-.06.04-.11.09-.17.13-.03.02-.06.05-.09.07-.52.39-1.09.76-1.72,1.11h0c-.85.48-1.77.9-2.73,1.26-.08.03-.17.06-.25.09-.05.02-.11.04-.16.06-.09.03-.18.06-.27.09-.05.02-.1.03-.15.05-.11.04-.21.07-.32.1-.03.01-.07.02-.1.03-.14.04-.28.09-.42.13-.04.01-.07.02-.11.03-.11.03-.21.06-.32.09-.05.01-.11.03-.16.04-.09.02-.18.05-.28.07-.06.01-.11.03-.17.04-.09.02-.18.04-.27.06-.06.01-.12.03-.17.04-.09.02-.19.04-.28.06-.06.01-.11.02-.17.04-.1.02-.21.04-.31.06-.05,0-.09.02-.14.03-.15.03-.3.06-.45.08-.02,0-.04,0-.05,0-.13.02-.27.05-.4.07-.05,0-.1.02-.15.02-.1.02-.2.03-.3.05-.06,0-.12.02-.18.02-.09.01-.19.03-.28.04-.06,0-.12.02-.18.02-.09.01-.19.02-.28.03-.06,0-.12.01-.18.02-.1.01-.2.02-.3.03-.05,0-.11.01-.16.02-.13.01-.26.02-.39.03-.02,0-.05,0-.07,0-.03,0-.05,0-.08,0-.11,0-.22.02-.33.02-.05,0-.1,0-.15,0-.09,0-.17,0-.26.01-.05,0-.11,0-.16,0-.08,0-.16,0-.25,0-.06,0-.11,0-.17,0-.08,0-.16,0-.24,0-.06,0-.12,0-.17,0-.08,0-.16,0-.24,0-.06,0-.11,0-.17,0-.08,0-.16,0-.25,0-.05,0-.11,0-.16,0-.09,0-.18,0-.26,0-.05,0-.1,0-.15,0-.11,0-.23,0-.34-.01-.02,0-.05,0-.07,0-.14,0-.27-.01-.41-.02-.04,0-.08,0-.12,0-.1,0-.19-.01-.29-.02-.05,0-.1,0-.16-.01-.08,0-.17-.01-.25-.02-.06,0-.11,0-.17-.01-.08,0-.16-.01-.24-.02-.06,0-.11-.01-.17-.02-.08,0-.16-.02-.24-.02-.06,0-.11-.01-.17-.02-.08,0-.16-.02-.24-.03-.06,0-.11-.01-.17-.02-.06,0-.12-.02-.18-.02-.1-.01-.19-.03-.29-.04-.06,0-.12-.02-.18-.03-.09-.01-.19-.03-.28-.04-.06,0-.12-.02-.18-.03-.1-.02-.19-.03-.29-.05-.05,0-.11-.02-.16-.03-.11-.02-.23-.04-.34-.06-.04,0-.07-.01-.11-.02-.15-.03-.3-.06-.44-.09-.04,0-.07-.02-.11-.02-.11-.02-.22-.05-.33-.07-.05-.01-.11-.03-.16-.04-.09-.02-.19-.04-.28-.07-.06-.01-.11-.03-.17-.04-.09-.02-.18-.05-.27-.07-.06-.02-.11-.03-.17-.05-.09-.02-.18-.05-.27-.08-.05-.02-.11-.03-.16-.05-.1-.03-.19-.06-.29-.09-.04-.01-.09-.03-.13-.04-.14-.04-.28-.09-.42-.14-.01,0-.02,0-.03-.01-.13-.04-.25-.09-.38-.13-.05-.02-.09-.03-.14-.05-.09-.03-.18-.07-.27-.1-.05-.02-.1-.04-.15-.06-.08-.03-.17-.07-.25-.1-.05-.02-.11-.04-.16-.06-.08-.03-.16-.07-.24-.1-.05-.02-.1-.04-.15-.07-.09-.04-.17-.07-.25-.11-.04-.02-.09-.04-.13-.06-.14-.06-.28-.13-.41-.2-.03-.01-.05-.03-.08-.04-.11-.06-.22-.11-.33-.17-.04-.02-.09-.04-.13-.07-.1-.05-.19-.1-.29-.15-.04-.02-.08-.04-.12-.07-.13-.07-.26-.15-.39-.22-.1-.06-.2-.12-.3-.18-.03-.02-.06-.04-.09-.06-.07-.04-.13-.09-.2-.13-.04-.03-.08-.05-.11-.08-.06-.04-.11-.08-.17-.11-.04-.03-.08-.06-.12-.08-.05-.04-.1-.07-.16-.11-.04-.03-.08-.06-.12-.09-.05-.04-.1-.07-.15-.11-.04-.03-.08-.06-.12-.09-.05-.04-.09-.07-.14-.11-.04-.03-.08-.06-.11-.09-.04-.04-.09-.07-.13-.11-.04-.03-.07-.06-.11-.1-.04-.04-.08-.07-.13-.11-.07-.06-.13-.12-.2-.18-.02-.02-.03-.03-.05-.05-.05-.05-.1-.1-.15-.14-.02-.02-.04-.04-.06-.06-.05-.05-.1-.1-.15-.15-.01-.01-.02-.02-.04-.04-.06-.06-.12-.13-.18-.19-.01-.02-.03-.03-.04-.05-.04-.05-.09-.1-.13-.15-.02-.02-.03-.04-.05-.06-.05-.05-.09-.11-.14-.16,0-.01-.02-.02-.03-.03-.05-.06-.1-.13-.15-.19-.01-.02-.03-.03-.04-.05-.04-.05-.07-.1-.11-.15-.01-.02-.03-.04-.04-.06-.04-.06-.08-.11-.12-.17,0-.01-.01-.02-.02-.03-.04-.07-.09-.13-.13-.2-.01-.02-.02-.04-.03-.05-.03-.05-.06-.1-.09-.15-.01-.02-.02-.04-.04-.06-.03-.06-.07-.12-.1-.18,0,0-.01-.02-.02-.03-.04-.07-.07-.14-.11-.2,0-.02-.02-.04-.03-.06-.02-.05-.05-.1-.07-.15,0-.02-.02-.04-.03-.06-.03-.06-.05-.12-.08-.18,0,0,0-.02,0-.02-.03-.07-.05-.14-.08-.21,0-.02-.01-.04-.02-.06-.02-.05-.04-.1-.05-.15,0-.02-.01-.04-.02-.06-.02-.06-.04-.13-.06-.19,0,0,0-.01,0-.02-.02-.07-.04-.14-.06-.21,0-.02,0-.04-.01-.06-.01-.05-.02-.1-.04-.16,0-.02,0-.04-.01-.06-.01-.07-.03-.13-.04-.2,0,0,0,0,0,0-.01-.07-.02-.14-.03-.21,0-.02,0-.04,0-.06,0-.05-.01-.1-.02-.16,0-.02,0-.04,0-.06,0-.07-.01-.14-.02-.21.13,2.42.27,4.84.41,7.26,0,.07,0,.14.02.21,0,.02,0,.04,0,.06,0,.05.01.1.02.15,0,.02,0,.04,0,.06,0,.07.02.14.03.2,0,0,0,0,0,0,.01.07.02.13.04.2,0,.02,0,.04.01.06.01.05.02.1.04.15,0,.02,0,.04.01.06.02.07.04.14.06.2,0,0,0,.01,0,.02.02.06.04.12.06.19,0,.02.01.04.02.06.02.05.03.1.05.15,0,.02.01.04.02.06.03.07.05.13.08.2,0,0,0,.02,0,.02.02.06.05.12.08.18,0,.02.02.04.03.06.02.05.05.1.07.15,0,.02.02.04.03.06.03.07.07.13.1.2,0,0,.01.02.01.03.03.06.06.11.1.17.01.02.02.04.04.06.03.05.06.1.09.15.01.02.02.04.03.05.04.07.08.13.13.19,0,.01.01.02.02.03.04.05.08.11.11.16.01.02.03.04.04.06.04.05.07.1.11.15.01.02.03.03.04.05.05.06.1.13.15.19,0,.01.02.02.03.03.04.05.09.11.13.16.02.02.03.04.05.06.04.05.08.1.13.14.01.02.03.03.04.05.06.06.11.12.17.19.01.01.02.02.04.04.05.05.1.1.15.15.02.02.04.04.06.06.05.05.1.09.15.14.02.02.03.03.05.05.06.06.12.11.18.17,0,0,0,0,.01,0,.04.04.08.07.12.11.04.03.07.06.11.09.04.04.09.07.13.11.04.03.07.06.11.09.04.04.09.07.14.11.04.03.07.06.11.09.05.04.1.07.14.11.04.03.08.06.11.08.05.04.1.07.15.11.04.03.08.05.11.08.05.04.11.07.16.11.04.03.07.05.11.08.06.04.13.08.19.12.03.02.06.04.09.06.1.06.19.12.29.18.12.07.25.15.38.22.04.02.08.04.12.06.09.05.18.1.28.15.04.02.08.04.13.07.11.06.21.11.32.16.02.01.05.02.07.04.13.07.27.13.4.19,0,0,.02,0,.03.01.03.02.07.03.1.04.08.04.17.07.25.11.05.02.1.04.15.06.08.03.16.07.24.1.05.02.1.04.15.06.08.03.16.06.24.1.05.02.1.04.15.06.09.03.18.07.27.1.04.02.09.03.13.05.12.04.25.09.37.13.01,0,.02,0,.03.01.14.05.27.09.41.13.04.01.09.03.13.04.09.03.19.06.28.09.05.02.11.03.16.05.09.03.17.05.26.07.06.02.11.03.17.05.09.02.17.05.26.07.06.01.11.03.17.04.09.02.18.04.27.07.05.01.1.03.16.04.11.03.22.05.32.07.04,0,.07.02.11.02.14.03.29.06.43.09.04,0,.07.01.11.02.11.02.22.04.33.06.05,0,.11.02.16.03.09.02.19.03.28.05.06,0,.12.02.17.03.09.01.18.03.27.04.06,0,.12.02.18.03.09.01.19.03.28.04.04,0,.08.01.11.02.02,0,.04,0,.07,0,.05,0,.11.01.16.02.08,0,.16.02.23.03.06,0,.11.01.17.02.08,0,.15.02.23.02.06,0,.11.01.17.02.08,0,.16.01.24.02.05,0,.11,0,.16.01.08,0,.16.01.25.02.05,0,.1,0,.15.01.09,0,.19.01.28.02.04,0,.08,0,.12,0,.13,0,.27.01.4.02.02,0,.04,0,.07,0,.11,0,.22,0,.33.01.05,0,.09,0,.14,0,.09,0,.17,0,.26,0,.05,0,.11,0,.16,0,.08,0,.16,0,.24,0,.06,0,.11,0,.17,0,.08,0,.16,0,.24,0,.06,0,.11,0,.17,0,.08,0,.16,0,.24,0,.06,0,.11,0,.17,0,.08,0,.16,0,.24,0,.05,0,.11,0,.16,0,.09,0,.17,0,.26-.01.05,0,.09,0,.14,0,.11,0,.21-.01.32-.02.03,0,.05,0,.08,0h0s.04,0,.06,0c.13,0,.26-.02.38-.03.05,0,.1,0,.15-.01.1,0,.2-.02.3-.03.06,0,.12-.01.17-.02.09-.01.19-.02.28-.03.06,0,.12-.01.18-.02.09-.01.18-.02.28-.04.06,0,.11-.02.17-.02.1-.01.2-.03.29-.04.05,0,.1-.02.15-.02.13-.02.26-.04.39-.06.02,0,.03,0,.05,0,.15-.03.29-.05.44-.08.04,0,.09-.02.13-.03.1-.02.2-.04.3-.06.05-.01.11-.02.16-.04.09-.02.18-.04.27-.06.06-.01.11-.03.17-.04.09-.02.18-.04.26-.06.06-.01.11-.03.17-.04.09-.02.18-.05.27-.07.05-.01.1-.03.15-.04.1-.03.21-.06.31-.09.04-.01.07-.02.11-.03.14-.04.28-.08.41-.12.03-.01.07-.02.1-.03.1-.03.21-.07.31-.1.05-.02.1-.03.15-.05.09-.03.17-.06.26-.09.05-.02.11-.04.16-.06.08-.03.16-.06.25-.09.03-.01.06-.02.09-.03h0c.91-.35,1.77-.74,2.58-1.2.58-.33,1.11-.67,1.6-1.03h0s.05-.04.08-.06c.03-.02.06-.04.09-.07.06-.04.11-.08.16-.13.02-.02.05-.04.07-.06.08-.06.15-.12.23-.19,0,0,0,0,.01-.01.07-.06.14-.12.21-.18.02-.02.05-.04.07-.06.05-.04.1-.09.14-.13.03-.02.05-.05.08-.07.04-.04.09-.08.13-.13.02-.02.05-.05.07-.07.05-.05.09-.09.14-.14.02-.02.04-.04.05-.06.06-.07.12-.13.18-.2,0-.01.02-.02.03-.03.05-.06.1-.11.15-.17.02-.02.04-.05.06-.07.04-.04.07-.09.11-.13.02-.02.04-.05.06-.07.04-.04.07-.09.1-.13.02-.02.04-.05.05-.07.04-.05.07-.1.11-.15.01-.02.03-.03.04-.05.05-.07.09-.14.14-.21.01-.02.02-.03.03-.05.03-.05.07-.11.1-.16.01-.02.03-.05.04-.07.03-.05.05-.09.08-.14.01-.03.03-.05.04-.08.03-.05.05-.09.08-.14.01-.02.03-.05.04-.07.03-.06.06-.11.08-.17,0-.01.01-.03.02-.04.03-.07.07-.14.1-.21,0-.02.02-.04.02-.06.02-.05.04-.1.06-.16.01-.03.02-.05.03-.08.02-.05.04-.09.05-.14,0-.03.02-.05.03-.08.02-.05.03-.1.05-.14,0-.02.02-.05.02-.07.02-.06.04-.12.05-.19,0,0,0-.02,0-.03.02-.07.04-.14.05-.22,0-.02,0-.04.01-.06.01-.05.02-.1.03-.15,0-.03,0-.05.01-.08,0-.05.02-.09.02-.14,0-.03,0-.05.01-.08,0-.05.01-.1.02-.15,0-.02,0-.05,0-.07,0-.07.01-.15.02-.22l.02-.31c0-.07,0-.14.01-.21v-.05s0-.06,0-.09v-.1c.01-.1.02-.23.03-.32,0-.01,0-.03,0-.04v-.12s0-.02,0-.04v-.09c.01-.15.02-.31.03-.44l.02-.31c0-.07,0-.14.01-.21v-.05s0-.06,0-.09v-.1c.01-.1.02-.23.03-.32,0-.01,0-.03,0-.04v-.12s0-.02,0-.04v-.09c.02-.15.02-.31.03-.44l.02-.31c0-.07,0-.14.01-.21v-.05s0-.06,0-.09v-.1c.01-.1.02-.23.03-.32,0-.01,0-.03,0-.04v-.12s0-.02,0-.04v-.09c.01-.15.02-.31.03-.44l.02-.31c0-.07,0-.14.01-.21v-.05s0-.06,0-.09v-.1c.01-.1.02-.23.03-.32,0-.01,0-.03,0-.04v-.12Z" style="fill: url(#uuid-86a6a827-5842-4aea-afbc-2d1945b5b96d);"/>
        <path d="M68.55,62.3c-.46-2.17-2.11-4.27-4.94-5.97-6.9-4.13-18.26-4.24-25.36-.26-2.65,1.49-4.33,3.33-5.05,5.28-.61,1.66-.51,3.4.31,5.04.7,1.41,1.93,2.76,3.68,3.93.22.15.45.29.69.44,3.09,1.85,7.08,2.89,11.18,3.12.57.03,1.13.05,1.7.05,4.5,0,9-.96,12.48-2.91l-.61-.74c-3.31,1.86-7.59,2.78-11.87,2.77-.54,0-1.08-.02-1.62-.05-3.9-.22-7.69-1.21-10.64-2.97-.23-.14-.45-.27-.66-.42-1.67-1.12-2.84-2.4-3.5-3.74-.78-1.56-.87-3.22-.3-4.8.68-1.85,2.28-3.61,4.8-5.03,6.76-3.79,17.56-3.68,24.13.24,2.69,1.61,4.26,3.61,4.7,5.68.34,1.6,0,3.24-1,4.76-.86,1.3-2.21,2.51-4.05,3.54l.61.74c1.93-1.08,3.35-2.36,4.25-3.72,1.06-1.6,1.41-3.32,1.05-5Z" style="fill: #5b5960;"/>
        <path d="M66.37,57.11l-.93,10.59c-.69.43-1.38.85-2.08,1.27l1.26-16.51c1.3,1.45,1.88,3.06,1.75,4.65ZM44.68,48.28c-1.46.36-2.85.85-4.11,1.47-.23.12-.46.24-.69.36-.89.5-1.66,1.05-2.3,1.63-1.76,1.6-2.56,3.45-2.41,5.28l.5,6.1c.89-.08,1.77-.2,2.65-.36l.38,5.73c.78.46,1.54.96,2.3,1.48.19-.11.38-.21.58-.31,1.13-.56,2.37-1,3.68-1.32,3.85-.94,8.27-.82,11.99.32,1.26.39,2.43.89,3.48,1.51l1.22-19.86c-1.17-.69-2.48-1.26-3.88-1.69-4.15-1.28-9.09-1.4-13.38-.36Z" style="fill: url(#uuid-76bad566-9143-4c34-b3e1-7007bcccaca3);"/>
        <path d="M68.45,57.25l-.66,6.53c-.21,2.05-1.51,4.07-3.9,5.73l.51-6.31c2.48-1.72,3.83-3.82,4.05-5.94ZM40.42,64.92c-.82-.35-1.61-.74-2.34-1.18-.68-.41-1.29-.84-1.84-1.29-1.92-1.6-2.97-3.44-3.15-5.3l.62,6.53c.17,1.79,1.18,3.57,3.03,5.11.52.44,1.11.85,1.77,1.24.71.42,1.46.8,2.26,1.14,5.53,2.33,12.95,2.5,18.75.5,1.11-.38,2.16-.85,3.12-1.39l.46-6.28c-1,.56-2.09,1.04-3.24,1.44-6.02,2.08-13.71,1.9-19.45-.51Z" style="fill: url(#uuid-1db62020-7fb0-42f4-ba6f-34a1ab601e34);"/>
        <path d="M63.11,64c-7.01,3.93-18.22,3.82-25.04-.25-6.82-4.07-6.66-10.57.36-14.5,7.01-3.93,18.22-3.82,25.04.25,6.82,4.07,6.66,10.57-.36,14.5ZM61.66,63.13c6.19-3.47,6.33-9.2.31-12.79-6.01-3.59-15.9-3.69-22.09-.22-6.19,3.47-6.33,9.2-.31,12.79,6.01,3.59,15.9,3.69,22.09.22h0Z" style="fill: #5b5960;"/>
        <path d="M65.8,59.11c-.72,1.48-2.1,2.87-4.15,4.02-6.19,3.47-16.07,3.37-22.09-.22-1.89-1.13-3.17-2.47-3.85-3.88.69-1.45,2.01-2.81,3.98-3.95,6.07-3.51,15.95-3.49,22.06.04,1.99,1.15,3.34,2.53,4.04,3.99Z" style="fill: url(#uuid-4fcc83e3-a957-4dac-847d-6d80e77be521);"/>
        <g style="isolation: isolate;">
          <polygon points="61.48 81.82 60.59 81.3 60.45 31.58 61.34 32.09 61.48 81.82" style="fill: #babcc1;"/>
          <polygon points="61.34 32.09 60.45 31.58 64.07 29.49 64.96 30 61.34 32.09" style="fill: #d6d9dd;"/>
          <polygon points="65.1 79.73 61.48 81.82 61.47 77.03 61.47 75.68 61.34 32.09 64.96 30 65.1 79.73" style="fill: #8f94a2;"/>
        </g>
        <g>
          <g>
            <polygon points="35.46 20.78 30.85 18.12 30.85 14.21 35.46 16.87 35.46 20.78" style="fill: #5b5960;"/>
            <polygon points="46.15 10.7 35.46 16.87 30.85 14.21 41.54 8.04 46.15 10.7" style="fill: #7f7e83;"/>
            <polygon points="36.97 23.81 32.37 21.15 30.85 18.12 35.46 20.78 36.97 23.81" style="fill: #514f56;"/>
          </g>
          <g>
            <polygon points="46.15 14.61 35.46 20.78 35.46 16.87 46.15 10.7 46.15 14.61" style="fill: #4a4950;"/>
            <g>
              <polygon points="36.03 15.21 34.09 14.1 34.86 11.13 36.8 12.25 36.03 15.21" style="fill: #5b5960;"/>
              <polygon points="42.15 9.16 36.8 12.25 34.86 11.13 40.22 8.04 42.15 9.16" style="fill: #7f7e83;"/>
              <polygon points="42.92 11.24 36.03 15.21 36.8 12.25 42.15 9.16 42.92 11.24" style="fill: #4a4950;"/>
            </g>
            <polygon points="44.63 19.39 36.97 23.81 35.46 20.78 46.15 14.61 44.63 19.39" style="fill: #3e3c44;"/>
          </g>
        </g>
        <path d="M65.28,74.74c0,.92-.65,2.04-1.45,2.5-.59.34-1.1.23-1.32-.22v-1.35c.22-.72.73-1.42,1.32-1.76.8-.46,1.45-.09,1.45.83Z" style="fill: #6f7171;"/>
        <g>
          <path d="M64.98,73.57l-.63-.36h0c-.26-.16-.63-.14-1.04.1-.8.46-1.45,1.58-1.45,2.5,0,.46.16.78.42.93h0s0,0,0,0c0,0,0,0,0,0l.64.37.23-.39c.05-.02.11-.05.16-.08.8-.46,1.45-1.58,1.45-2.5,0-.06,0-.12,0-.18l.22-.38Z" style="fill: #424048;"/>
          <path d="M65.4,74.5c0,.92-.65,2.04-1.45,2.5-.8.46-1.45.09-1.45-.83s.65-2.04,1.45-2.5c.8-.46,1.45-.09,1.45.83Z" style="fill: #5b5960;"/>
          <path d="M64.71,74.98l.19-.34-.41-.23s-.01,0-.02,0h-.01s0,0,0,0c-.14-.07-.32-.05-.53.06-.43.25-.77.84-.77,1.33,0,.22.07.39.19.47h0s.01,0,.01,0c.01,0,.03.02.04.02l.42.25.22-.39c.35-.26.62-.74.65-1.17Z" style="fill: url(#uuid-e4f6ff4c-ee4d-48f9-b959-9a65b10f515d);"/>
          <path d="M65.14,75.14c0,.49-.35,1.08-.77,1.33-.43.25-.77.05-.77-.44s.35-1.08.77-1.33c.43-.25.77-.05.77.44Z" style="fill: #d3d3d5;"/>
        </g>
        <path d="M59.14,24.52h0s0,0,0,0h0s-17.45-10.07-17.45-10.07h0c-.23-.14-.56-.12-.91.09-.71.41-1.29,1.41-1.29,2.24,0,.42.15.71.38.84h0s17.45,10.07,17.45,10.07h0c.23.14.56.12.91-.09.71-.41,1.29-1.41,1.29-2.24,0-.41-.14-.7-.37-.84Z" style="fill: url(#uuid-5eb77d3d-819b-4db8-a707-b264d566bdbd);"/>
        <g>
          <g>
            <polygon points="58.46 34.33 53.85 31.67 53.85 27.77 58.46 30.43 58.46 34.33" style="fill: #5b5960;"/>
            <polygon points="69.15 24.25 58.46 30.43 53.85 27.77 64.54 21.59 69.15 24.25" style="fill: #7f7e83;"/>
            <polygon points="59.97 37.37 55.37 34.71 53.85 31.67 58.46 34.33 59.97 37.37" style="fill: #514f56;"/>
          </g>
          <g>
            <polygon points="69.15 28.16 58.46 34.33 58.46 30.43 69.15 24.25 69.15 28.16" style="fill: #4a4950;"/>
            <g>
              <polygon points="59.03 28.77 57.09 27.65 57.86 24.69 59.8 25.81 59.03 28.77" style="fill: #5b5960;"/>
              <polygon points="65.15 22.72 59.8 25.81 57.86 24.69 63.21 21.6 65.15 22.72" style="fill: #7f7e83;"/>
              <polygon points="65.92 24.79 59.03 28.77 59.8 25.81 65.15 22.72 65.92 24.79" style="fill: #4a4950;"/>
            </g>
            <polygon points="67.63 32.95 59.97 37.37 58.46 34.33 69.15 28.16 67.63 32.95" style="fill: #3e3c44;"/>
          </g>
        </g>
      </g>
    </g>
  </g>
</svg>