<?xml version="1.0" encoding="UTF-8"?>
<svg xmlns="http://www.w3.org/2000/svg" xmlns:xlink="http://www.w3.org/1999/xlink" viewBox="0 0 100 100">
  <defs>
    <linearGradient id="uuid-98aa2dd2-b011-4a2a-8c07-ba1eefcbe577" x1="65.77" y1="72.25" x2="35.38" y2="83.86" gradientUnits="userSpaceOnUse">
      <stop offset="0" stop-color="#3e3d43"/>
      <stop offset=".18" stop-color="#3e3d43"/>
      <stop offset=".59" stop-color="#4f4d54"/>
      <stop offset=".6" stop-color="#514f56"/>
      <stop offset=".69" stop-color="#535158"/>
      <stop offset=".8" stop-color="#514f56"/>
      <stop offset=".81" stop-color="#4f4d54"/>
      <stop offset=".94" stop-color="#49484e"/>
      <stop offset="1" stop-color="#44444a"/>
    </linearGradient>
    <linearGradient id="uuid-f42aa58d-a209-441e-9644-4cf02cb8ad21" x1="64.03" y1="75.11" x2="35.37" y2="74.13" gradientUnits="userSpaceOnUse">
      <stop offset="0" stop-color="#4a484f"/>
      <stop offset=".18" stop-color="#4a484f"/>
      <stop offset=".59" stop-color="#5b5960"/>
      <stop offset=".6" stop-color="#5c5b62"/>
      <stop offset=".69" stop-color="#5e5d64"/>
      <stop offset=".8" stop-color="#5c5b62"/>
      <stop offset=".81" stop-color="#5b5960"/>
      <stop offset=".95" stop-color="#55535a"/>
      <stop offset="1" stop-color="#514f56"/>
    </linearGradient>
    <linearGradient id="uuid-8328e8e8-4a0a-4efa-84fd-dddecb8fa6ad" x1="69.45" y1="67.75" x2="31.67" y2="65.58" xlink:href="#uuid-98aa2dd2-b011-4a2a-8c07-ba1eefcbe577"/>
    <linearGradient id="uuid-61572910-225c-486a-aa1f-c20093f89ef9" x1="35.05" y1="54.07" x2="65.02" y2="54.07" gradientUnits="userSpaceOnUse">
      <stop offset="0" stop-color="#44444a"/>
      <stop offset=".06" stop-color="#49484e"/>
      <stop offset=".19" stop-color="#4f4d54"/>
      <stop offset=".2" stop-color="#514f56"/>
      <stop offset=".31" stop-color="#535158"/>
      <stop offset=".4" stop-color="#514f56"/>
      <stop offset=".41" stop-color="#4f4d54"/>
      <stop offset=".82" stop-color="#3e3d43"/>
      <stop offset=".99" stop-color="#3e3d43"/>
    </linearGradient>
    <linearGradient id="uuid-c4ca17b5-72a9-45d4-b98a-b82bf6d03bb6" x1="65.44" y1="60.12" x2="34.07" y2="60.01" xlink:href="#uuid-f42aa58d-a209-441e-9644-4cf02cb8ad21"/>
    <linearGradient id="uuid-d9a47d15-62cb-4dca-b954-5d90e1a13a40" x1="35.6" y1="54.25" x2="64.46" y2="54.25" gradientUnits="userSpaceOnUse">
      <stop offset="0" stop-color="#e8471c"/>
      <stop offset=".1" stop-color="#eb621b"/>
      <stop offset=".25" stop-color="#f08819"/>
      <stop offset=".37" stop-color="#f39f19"/>
      <stop offset=".44" stop-color="#f5a819"/>
      <stop offset=".5" stop-color="#f5ae1a"/>
      <stop offset=".66" stop-color="#f5bf1e"/>
      <stop offset=".79" stop-color="#f5c620"/>
    </linearGradient>
    <linearGradient id="uuid-851ad8e6-7873-4b33-8692-72bb4133005e" data-name="鍊踑臇 蜸馯鳺艜 162" x1="63.43" y1="69.23" x2="61.94" y2="70.65" gradientUnits="userSpaceOnUse">
      <stop offset=".12" stop-color="#a4a6b1"/>
      <stop offset=".13" stop-color="#b2b3bd"/>
      <stop offset=".47" stop-color="#c3c3c9"/>
      <stop offset=".57" stop-color="#e4e3e3"/>
      <stop offset=".58" stop-color="#e6e6e8"/>
      <stop offset=".63" stop-color="#eceff3"/>
      <stop offset=".67" stop-color="#eef2f7"/>
      <stop offset=".74" stop-color="#ecf0f4"/>
      <stop offset=".78" stop-color="#e8e9ec"/>
      <stop offset=".81" stop-color="#e3e2e2"/>
      <stop offset="1" stop-color="#d7d7d9"/>
    </linearGradient>
    <linearGradient id="uuid-361438a9-102e-451a-834b-09142888a497" x1="47.94" y1="19.31" x2="49.7" y2="16.27" xlink:href="#uuid-f42aa58d-a209-441e-9644-4cf02cb8ad21"/>
  </defs>
  <g style="isolation: isolate;">
    <g id="uuid-1b674884-a690-485a-9d02-d60ac0cefb95" data-name="圖層 1">
      <g>
        <path d="M74.71,80.75c-8.9-3.89-23.28-3.91-32.12-.04-8.84,3.86-8.8,10.15.1,14.04,8.9,3.89,23.28,3.91,32.12.04,8.84-3.86,8.8-10.15-.1-14.04Z" style="fill: #afafaf; mix-blend-mode: multiply; opacity: .5;"/>
        <g>
          <g style="isolation: isolate;">
            <polygon points="38.06 63.24 37.21 62.74 37.07 15.03 37.93 15.53 38.06 63.24" style="fill: #babcc1;"/>
            <polygon points="37.93 15.53 37.07 15.03 40.55 13.02 41.4 13.52 37.93 15.53" style="fill: #d6d9dd;"/>
            <polygon points="41.4 13.52 41.53 61.23 38.06 63.24 37.93 15.53 41.4 13.52" style="fill: #8f94a2;"/>
          </g>
          <g>
            <path d="M60.73,80.87c-6.11,3.43-15.87,3.33-21.81-.22-2.6-1.56-4.04-3.52-4.31-5.52.04.35.08.74.16,1.04.22.96.39,1.35.56,1.77.59,1.41,1.45,2.43,1.74,2.77,1.38,1.63,3.59,3.09,5.91,3.91,3.6,1.28,6.58,1.28,8.77,1.13,1.55-.1,4.61-.53,7.67-2.22.23-.14.55-.33.78-.47.95-.66,1.01-.7,1.52-1.14l.6-.56c.33-.35.75-.84,1.06-1.21l.44-.63c.2-.33.46-.78.63-1.13l.3-.68c.11-.33.26-.77.36-1.1l.16-.72c.03-.2.06-.44.09-.68-.3,2.07-1.84,4.1-4.62,5.66Z" style="fill: url(#uuid-98aa2dd2-b011-4a2a-8c07-ba1eefcbe577);"/>
            <path d="M65.35,75.21c.02-.14.03-.28.04-.42-.01.13-.03.27-.04.42Z" style="fill: #8c9493;"/>
            <path d="M34.6,75.13c-.02-.15-.03-.29-.04-.43,0,.14.02.28.04.43Z" style="fill: #8c9493;"/>
          </g>
          <path d="M62.54,71.75c-.44.33-.92.64-1.45.93-.73.41-1.52.77-2.34,1.09-2.05.78-4.33,1.25-6.67,1.42-1.81.13-3.66.09-5.45-.14-2.31-.29-4.53-.89-6.47-1.78-.55-.25-1.07-.52-1.57-.82-.73-.44-1.37-.9-1.92-1.39-1.63-1.44-2.48-3.09-2.57-4.74l.47,8.38c.09,1.6.92,3.2,2.5,4.6.53.47,1.15.93,1.86,1.35.48.29.99.55,1.52.8,1.88.86,4.03,1.44,6.27,1.72,1.74.22,3.53.27,5.28.14,2.27-.17,4.48-.63,6.47-1.38.8-.3,1.56-.66,2.27-1.05.51-.29.98-.59,1.41-.9,2.06-1.52,3.14-3.34,3.26-5.17l.51-8.37c-.12,1.9-1.24,3.77-3.36,5.34Z" style="fill: url(#uuid-f42aa58d-a209-441e-9644-4cf02cb8ad21);"/>
          <path d="M67.19,59.49s0-.02,0-.03v-.09c.01-.15.02-.3.03-.42,0,.07-.01.14-.02.21,0,.02,0,.05,0,.07,0,.05-.01.1-.02.15,0,.03,0,.05-.01.08,0,.05-.01.09-.02.14,0,.03,0,.05-.01.08,0,.05-.02.1-.03.15,0,.02,0,.04-.01.06-.02.07-.03.14-.05.21,0,0,0,.02,0,.03-.02.06-.03.12-.05.18,0,.02-.01.05-.02.07-.01.05-.03.09-.05.14,0,.03-.02.05-.03.08-.02.05-.03.09-.05.14,0,.03-.02.05-.03.08-.02.05-.04.1-.06.15,0,.02-.02.04-.02.06-.03.07-.06.14-.09.21,0,.01-.01.03-.02.04-.03.06-.05.11-.08.16-.01.02-.03.05-.04.07-.02.05-.05.09-.07.14-.01.03-.03.05-.04.08-.03.05-.05.09-.08.14-.01.02-.03.05-.04.07-.03.05-.07.11-.1.16,0,.02-.02.03-.03.05-.04.07-.09.13-.14.2-.01.02-.02.03-.04.05-.04.05-.07.1-.11.15-.02.02-.04.05-.05.07-.03.04-.07.09-.1.13-.02.02-.04.05-.06.07-.04.04-.07.09-.11.13-.02.02-.04.04-.06.07-.05.05-.1.11-.14.16,0,.01-.02.02-.03.03-.06.06-.12.13-.18.19-.02.02-.04.04-.05.06-.04.05-.09.09-.13.14-.02.02-.05.05-.07.07-.04.04-.09.08-.13.12-.02.02-.05.05-.07.07-.05.04-.09.09-.14.13-.02.02-.04.04-.07.06-.07.06-.13.12-.2.17,0,0,0,0-.01.01-.07.06-.15.12-.22.18-.02.02-.05.04-.07.06-.05.04-.11.08-.16.12-.03.02-.06.04-.09.07-.5.37-1.05.73-1.65,1.07h0c-.82.46-1.7.86-2.62,1.21-.08.03-.16.06-.24.09-.05.02-.1.04-.15.06-.08.03-.17.06-.26.09-.05.02-.1.03-.14.05-.1.03-.21.07-.31.1-.03.01-.06.02-.09.03-.13.04-.27.08-.41.12-.04.01-.07.02-.11.03-.1.03-.2.06-.31.09-.05.01-.1.03-.15.04-.09.02-.18.05-.27.07-.06.01-.11.03-.17.04-.09.02-.17.04-.26.06-.06.01-.11.03-.17.04-.09.02-.18.04-.27.06-.05.01-.11.02-.16.03-.1.02-.2.04-.3.06-.04,0-.09.02-.13.03-.14.03-.29.05-.43.08-.02,0-.03,0-.05,0-.13.02-.26.04-.38.06-.05,0-.1.02-.15.02-.1.01-.19.03-.29.04-.06,0-.11.02-.17.02-.09.01-.18.02-.27.04-.06,0-.12.01-.18.02-.09.01-.18.02-.27.03-.06,0-.11.01-.17.02-.1.01-.19.02-.29.03-.05,0-.1,0-.15.01-.13.01-.25.02-.38.03-.02,0-.05,0-.07,0-.03,0-.05,0-.08,0-.1,0-.21.01-.31.02-.05,0-.09,0-.14,0-.08,0-.17,0-.25.01-.05,0-.11,0-.16,0-.08,0-.16,0-.24,0-.05,0-.11,0-.16,0-.08,0-.15,0-.23,0-.06,0-.11,0-.17,0-.08,0-.15,0-.23,0-.05,0-.11,0-.16,0-.08,0-.16,0-.24,0-.05,0-.1,0-.16,0-.08,0-.17,0-.25,0-.05,0-.09,0-.14,0-.11,0-.22,0-.32-.01-.02,0-.05,0-.07,0-.13,0-.26-.01-.39-.02-.04,0-.08,0-.12,0-.09,0-.18-.01-.27-.02-.05,0-.1,0-.15-.01-.08,0-.16-.01-.24-.02-.05,0-.11,0-.16-.01-.08,0-.15-.01-.23-.02-.05,0-.11-.01-.16-.02-.08,0-.15-.02-.23-.02-.05,0-.11-.01-.16-.02-.08,0-.15-.02-.23-.03-.05,0-.11-.01-.16-.02-.06,0-.12-.02-.18-.02-.09-.01-.18-.02-.28-.04-.06,0-.12-.02-.17-.03-.09-.01-.18-.03-.27-.04-.06,0-.11-.02-.17-.03-.09-.02-.19-.03-.28-.05-.05,0-.1-.02-.16-.03-.11-.02-.22-.04-.33-.06-.03,0-.07-.01-.1-.02-.14-.03-.29-.06-.43-.09-.04,0-.07-.02-.11-.02-.11-.02-.21-.05-.32-.07-.05-.01-.1-.02-.15-.04-.09-.02-.18-.04-.27-.07-.05-.01-.11-.03-.16-.04-.09-.02-.17-.04-.26-.07-.05-.01-.11-.03-.16-.04-.09-.02-.17-.05-.26-.07-.05-.01-.1-.03-.16-.05-.09-.03-.19-.06-.28-.09-.04-.01-.08-.03-.13-.04-.13-.04-.27-.09-.4-.13-.01,0-.02,0-.03-.01-.12-.04-.24-.08-.36-.13-.04-.02-.09-.03-.13-.05-.09-.03-.17-.06-.26-.1-.05-.02-.1-.04-.15-.06-.08-.03-.16-.06-.24-.09-.05-.02-.1-.04-.15-.06-.08-.03-.16-.07-.23-.1-.05-.02-.1-.04-.15-.06-.08-.04-.16-.07-.24-.11-.04-.02-.09-.04-.13-.06-.13-.06-.27-.12-.4-.19-.02-.01-.05-.02-.07-.04-.11-.05-.21-.11-.32-.16-.04-.02-.08-.04-.12-.06-.09-.05-.18-.1-.27-.15-.04-.02-.08-.04-.11-.06-.12-.07-.25-.14-.37-.21-.1-.06-.19-.12-.29-.18-.03-.02-.06-.04-.09-.06-.06-.04-.13-.08-.19-.12-.04-.02-.07-.05-.11-.07-.05-.04-.11-.07-.16-.11-.04-.03-.08-.05-.11-.08-.05-.04-.1-.07-.15-.11-.04-.03-.07-.06-.11-.08-.05-.04-.1-.07-.14-.11-.04-.03-.07-.06-.11-.09-.04-.03-.09-.07-.13-.1-.04-.03-.07-.06-.11-.09-.04-.03-.09-.07-.13-.1-.04-.03-.07-.06-.11-.09-.04-.03-.08-.07-.12-.1-.07-.06-.13-.12-.19-.17-.02-.01-.03-.03-.05-.04-.05-.05-.1-.09-.14-.14-.02-.02-.04-.04-.06-.06-.05-.05-.1-.1-.15-.15-.01-.01-.02-.02-.03-.04-.06-.06-.12-.12-.17-.18-.01-.02-.03-.03-.04-.05-.04-.05-.08-.09-.13-.14-.02-.02-.03-.04-.05-.06-.04-.05-.09-.1-.13-.15,0-.01-.02-.02-.03-.03-.05-.06-.1-.12-.15-.19-.01-.02-.03-.03-.04-.05-.04-.05-.07-.1-.11-.14-.01-.02-.03-.04-.04-.06-.04-.05-.08-.11-.11-.16,0-.01-.01-.02-.02-.03-.04-.06-.08-.13-.12-.19-.01-.02-.02-.04-.03-.05-.03-.05-.06-.1-.09-.15-.01-.02-.02-.04-.03-.06-.03-.06-.06-.11-.09-.17,0,0,0-.02-.01-.03-.03-.06-.07-.13-.1-.19,0-.02-.02-.04-.03-.05-.02-.05-.05-.1-.07-.15,0-.02-.02-.04-.03-.06-.03-.06-.05-.12-.08-.18,0,0,0-.01,0-.02-.03-.07-.05-.13-.08-.2,0-.02-.01-.04-.02-.06-.02-.05-.04-.1-.05-.15,0-.02-.01-.04-.02-.06-.02-.06-.04-.12-.06-.18,0,0,0-.01,0-.02-.02-.07-.04-.13-.05-.2,0-.02,0-.04-.01-.06-.01-.05-.02-.1-.03-.15,0-.02,0-.04-.01-.06-.01-.06-.03-.13-.04-.19,0,0,0,0,0,0-.01-.07-.02-.13-.03-.2,0-.02,0-.04,0-.06,0-.05-.01-.1-.02-.15,0-.02,0-.04,0-.06,0-.07-.01-.13-.02-.2.13,2.32.26,4.65.39,6.97,0,.07,0,.13.01.2,0,.02,0,.04,0,.06,0,.05.01.1.02.15,0,.02,0,.04,0,.06,0,.07.02.13.03.2,0,0,0,0,0,0,.01.06.02.13.04.19,0,.02,0,.04.01.06.01.05.02.1.03.15,0,.02,0,.04.01.06.02.07.03.13.05.2,0,0,0,.01,0,.02.02.06.04.12.06.18,0,.02.01.04.02.06.02.05.03.1.05.14,0,.02.01.04.02.05.02.06.05.13.08.19,0,0,0,.01,0,.02.02.06.05.11.07.17,0,.02.02.04.03.06.02.05.04.1.07.14,0,.02.02.04.03.05.03.06.06.13.1.19,0,0,0,.02.01.03.03.06.06.11.09.16.01.02.02.04.03.06.03.05.06.09.09.14.01.02.02.03.03.05.04.06.08.12.12.19,0,0,.01.02.02.03.04.05.07.11.11.16.01.02.03.04.04.06.03.05.07.09.1.14.01.02.02.03.04.05.05.06.09.12.14.18,0,.01.02.02.03.03.04.05.08.1.13.15.02.02.03.04.05.06.04.05.08.09.12.14.01.02.03.03.04.05.05.06.11.12.17.18.01.01.02.02.03.03.05.05.09.1.14.14.02.02.04.04.06.05.05.04.09.09.14.13.02.01.03.03.05.04.06.05.12.11.18.16,0,0,0,0,.01,0,.04.03.08.07.12.1.03.03.07.06.1.09.04.03.08.07.12.1.04.03.07.06.11.09.04.03.09.07.13.1.04.03.07.06.11.08.05.03.09.07.14.1.04.03.07.05.11.08.05.03.1.07.15.1.04.03.07.05.11.08.05.04.1.07.16.11.04.02.07.05.11.07.06.04.12.08.18.12.03.02.06.04.09.06.09.06.19.12.28.17.12.07.24.14.36.21.04.02.07.04.11.06.09.05.18.1.27.14.04.02.08.04.12.06.1.05.21.11.31.16.02.01.05.02.07.04.13.06.26.12.39.18,0,0,.02,0,.03.01.03.01.06.03.1.04.08.04.16.07.24.11.05.02.1.04.14.06.08.03.15.06.23.1.05.02.1.04.15.06.08.03.16.06.23.09.05.02.1.04.15.06.08.03.17.06.26.09.04.02.08.03.13.05.12.04.24.08.36.12.01,0,.02,0,.03.01.13.04.26.09.39.13.04.01.08.03.12.04.09.03.18.06.27.08.05.01.1.03.15.04.08.02.17.05.25.07.05.01.11.03.16.04.08.02.17.04.25.07.05.01.11.03.16.04.09.02.17.04.26.06.05.01.1.02.15.04.1.02.21.05.31.07.03,0,.07.02.1.02.14.03.28.06.42.09.03,0,.07.01.1.02.11.02.21.04.32.06.05,0,.1.02.15.03.09.02.18.03.27.05.06,0,.11.02.17.03.09.01.17.03.26.04.06,0,.11.02.17.02.09.01.18.02.27.04.04,0,.07.01.11.01.02,0,.04,0,.06,0,.05,0,.1.01.15.02.07,0,.15.02.22.03.05,0,.11.01.16.02.07,0,.15.02.22.02.05,0,.11.01.16.02.08,0,.15.01.23.02.05,0,.1,0,.16.01.08,0,.16.01.24.02.05,0,.1,0,.14.01.09,0,.18.01.27.02.04,0,.07,0,.11,0,.13,0,.26.01.38.02.02,0,.04,0,.06,0,.11,0,.21,0,.32,0,.04,0,.09,0,.13,0,.08,0,.17,0,.25,0,.05,0,.1,0,.15,0,.08,0,.16,0,.23,0,.05,0,.11,0,.16,0,.08,0,.15,0,.23,0,.05,0,.11,0,.16,0,.08,0,.15,0,.23,0,.05,0,.11,0,.16,0,.08,0,.15,0,.23,0,.05,0,.1,0,.15,0,.08,0,.16,0,.25-.01.05,0,.09,0,.14,0,.1,0,.2-.01.31-.02.03,0,.05,0,.08,0h0s.04,0,.06,0c.12,0,.24-.02.37-.03.05,0,.1,0,.15-.01.1,0,.19-.02.29-.03.06,0,.11-.01.17-.02.09,0,.18-.02.27-.03.06,0,.11-.01.17-.02.09-.01.18-.02.27-.04.06,0,.11-.02.17-.02.09-.01.19-.03.28-.04.05,0,.1-.01.15-.02.12-.02.25-.04.37-.06.02,0,.03,0,.05,0,.14-.02.28-.05.42-.08.04,0,.09-.02.13-.03.1-.02.19-.04.29-.06.05-.01.1-.02.16-.03.09-.02.17-.04.26-.06.05-.01.11-.03.16-.04.08-.02.17-.04.25-.06.05-.01.11-.03.16-.04.09-.02.17-.04.26-.07.05-.01.1-.03.15-.04.1-.03.2-.06.3-.08.03,0,.07-.02.1-.03.13-.04.27-.08.4-.12.03,0,.06-.02.09-.03.1-.03.2-.06.3-.1.05-.02.09-.03.14-.05.08-.03.17-.06.25-.09.05-.02.1-.04.15-.05.08-.03.16-.06.24-.09.03-.01.05-.02.08-.03h0c.87-.33,1.7-.71,2.48-1.15.56-.31,1.07-.64,1.53-.99h0s.05-.04.07-.05c.03-.02.06-.04.08-.06.05-.04.1-.08.16-.12.02-.02.05-.04.07-.06.07-.06.15-.12.22-.18,0,0,0,0,.01-.01.07-.06.13-.11.2-.17.02-.02.04-.04.07-.06.05-.04.09-.08.14-.12.02-.02.05-.05.07-.07.04-.04.08-.08.13-.12.02-.02.05-.04.07-.07.04-.04.09-.09.13-.13.02-.02.04-.04.05-.05.06-.06.12-.13.18-.19,0-.01.02-.02.03-.03.05-.05.09-.11.14-.16.02-.02.04-.04.06-.07.04-.04.07-.09.11-.13.02-.02.04-.05.06-.07.03-.04.07-.08.1-.13.02-.02.04-.05.05-.07.04-.05.07-.1.11-.15.01-.02.02-.03.04-.05.05-.07.09-.13.13-.2,0-.02.02-.03.03-.05.03-.05.07-.1.1-.15.01-.02.03-.05.04-.07.03-.04.05-.09.08-.13.01-.02.03-.05.04-.07.02-.04.05-.09.07-.13.01-.02.02-.05.04-.07.03-.05.05-.11.08-.16,0-.01.01-.03.02-.04.03-.07.06-.14.09-.2,0-.02.02-.04.02-.05.02-.05.04-.1.06-.15,0-.02.02-.05.03-.07.02-.04.03-.09.05-.13,0-.03.02-.05.03-.08.02-.05.03-.09.05-.14,0-.02.01-.05.02-.07.02-.06.04-.12.05-.18,0,0,0-.02,0-.03.02-.07.03-.14.05-.21,0-.02,0-.04.01-.06.01-.05.02-.1.03-.15,0-.03,0-.05.01-.08,0-.05.02-.09.02-.14,0-.03,0-.05.01-.08,0-.05.01-.1.02-.14,0-.02,0-.04,0-.07,0-.07.01-.14.02-.21l.02-.3c0-.07,0-.14.01-.2v-.05s0-.06,0-.09v-.1c.01-.1.02-.22.02-.31,0-.01,0-.03,0-.04v-.11s0-.02,0-.03v-.09c.01-.15.02-.3.03-.42l.02-.3c0-.07,0-.14.01-.2v-.05s0-.06,0-.09v-.1c.01-.1.02-.22.02-.31,0-.01,0-.03,0-.04v-.11s0-.02,0-.03v-.09c.01-.15.02-.3.03-.42l.02-.3c0-.07,0-.14.01-.2v-.05s0-.06,0-.09v-.1c.01-.1.02-.22.02-.31,0-.01,0-.03,0-.04v-.11s0-.02,0-.03v-.09c.01-.15.02-.3.03-.42l.02-.3c0-.07,0-.14.01-.2v-.05s0-.06,0-.09v-.1c.01-.1.02-.22.02-.31,0-.01,0-.03,0-.04v-.11Z" style="fill: url(#uuid-8328e8e8-4a0a-4efa-84fd-dddecb8fa6ad);"/>
          <path d="M67.1,57.36c-.44-2.08-2.02-4.1-4.74-5.73-6.62-3.96-17.52-4.07-24.34-.25-2.54,1.43-4.16,3.2-4.84,5.07-.58,1.6-.48,3.26.3,4.84.67,1.35,1.85,2.64,3.53,3.77.21.14.43.28.66.42,2.97,1.77,6.79,2.78,10.73,3,.54.03,1.09.05,1.63.05,4.32,0,8.63-.92,11.97-2.8l-.58-.71c-3.18,1.78-7.29,2.67-11.39,2.66-.52,0-1.04-.02-1.56-.04-3.74-.21-7.38-1.16-10.21-2.85-.22-.13-.43-.26-.63-.4-1.6-1.07-2.72-2.3-3.36-3.59-.75-1.5-.84-3.09-.28-4.6.65-1.78,2.19-3.46,4.61-4.82,6.48-3.64,16.85-3.53,23.16.23,2.59,1.55,4.09,3.47,4.51,5.45.33,1.54,0,3.11-.96,4.56-.82,1.25-2.12,2.41-3.88,3.4l.58.71c1.85-1.04,3.21-2.26,4.08-3.57,1.01-1.53,1.35-3.18,1-4.8Z" style="fill: #5b5960;"/>
          <path d="M65.01,52.38l-.89,10.16c-.66.41-1.33.82-1.99,1.22l1.21-15.84c1.25,1.39,1.81,2.94,1.67,4.46ZM44.2,43.9c-1.4.34-2.73.81-3.94,1.41-.23.11-.45.23-.66.35-.86.48-1.59,1.01-2.21,1.57-1.69,1.53-2.46,3.31-2.31,5.06l.48,5.85c.85-.08,1.7-.19,2.54-.35l.37,5.5c.75.44,1.48.92,2.2,1.42.18-.1.37-.2.56-.3,1.08-.54,2.27-.96,3.53-1.27,3.69-.9,7.94-.79,11.5.31,1.2.37,2.33.86,3.34,1.45l1.17-19.05c-1.12-.67-2.38-1.21-3.72-1.62-3.98-1.23-8.72-1.34-12.84-.34Z" style="fill: url(#uuid-61572910-225c-486a-aa1f-c20093f89ef9);"/>
          <path d="M67,52.51l-.63,6.26c-.2,1.97-1.45,3.9-3.74,5.5l.49-6.06c2.38-1.65,3.68-3.66,3.88-5.7ZM40.11,59.87c-.79-.33-1.54-.71-2.25-1.13-.65-.39-1.24-.81-1.76-1.24-1.84-1.53-2.85-3.3-3.02-5.08l.59,6.26c.16,1.72,1.13,3.42,2.91,4.9.5.42,1.07.82,1.7,1.19.68.41,1.4.77,2.17,1.09,5.31,2.23,12.42,2.4,17.99.48,1.06-.37,2.07-.81,3-1.33l.45-6.03c-.96.54-2.01,1-3.11,1.38-5.78,2-13.16,1.82-18.67-.49Z" style="fill: url(#uuid-c4ca17b5-72a9-45d4-b98a-b82bf6d03bb6);"/>
          <path d="M61.88,58.99c-6.73,3.78-17.48,3.67-24.02-.24-6.54-3.91-6.39-10.14.34-13.91,6.73-3.78,17.48-3.67,24.02.24,6.54,3.91,6.39,10.14-.34,13.91ZM60.48,58.15c5.93-3.33,6.07-8.83.3-12.27-5.77-3.45-15.26-3.54-21.19-.21-5.93,3.33-6.07,8.83-.3,12.27,5.77,3.45,15.26,3.54,21.19.21h0Z" style="fill: #5b5960;"/>
          <path d="M64.46,54.3c-.69,1.42-2.02,2.75-3.98,3.85-5.93,3.33-15.42,3.23-21.19-.21-1.81-1.08-3.04-2.37-3.69-3.72.66-1.39,1.93-2.7,3.82-3.79,5.83-3.36,15.3-3.35,21.17.04,1.91,1.1,3.2,2.43,3.87,3.83Z" style="fill: url(#uuid-d9a47d15-62cb-4dca-b954-5d90e1a13a40);"/>
          <g style="isolation: isolate;">
            <polygon points="60.32 76.09 59.46 75.59 59.33 27.88 60.18 28.38 60.32 76.09" style="fill: #babcc1;"/>
            <polygon points="60.18 28.38 59.33 27.88 62.8 25.87 63.65 26.37 60.18 28.38" style="fill: #d6d9dd;"/>
            <polygon points="63.79 74.08 60.32 76.09 60.3 71.49 60.3 70.19 60.18 28.38 63.66 26.37 63.79 74.08" style="fill: #8f94a2;"/>
          </g>
          <g>
            <g>
              <polygon points="35.35 17.52 30.93 14.96 30.93 11.21 35.35 13.77 35.35 17.52" style="fill: #5b5960;"/>
              <polygon points="45.6 7.85 35.35 13.77 30.93 11.21 41.18 5.29 45.6 7.85" style="fill: #7f7e83;"/>
              <polygon points="36.8 20.43 32.38 17.88 30.93 14.96 35.35 17.52 36.8 20.43" style="fill: #514f56;"/>
            </g>
            <g>
              <polygon points="45.6 11.6 35.35 17.52 35.35 13.77 45.6 7.85 45.6 11.6" style="fill: #4a4950;"/>
              <g>
                <polygon points="35.89 12.18 34.04 11.11 34.78 8.26 36.63 9.34 35.89 12.18" style="fill: #5b5960;"/>
                <polygon points="41.77 6.37 36.63 9.34 34.78 8.26 39.91 5.3 41.77 6.37" style="fill: #7f7e83;"/>
                <polygon points="42.51 8.36 35.89 12.18 36.63 9.34 41.77 6.37 42.51 8.36" style="fill: #4a4950;"/>
              </g>
              <polygon points="44.15 16.19 36.8 20.43 35.35 17.52 45.6 11.6 44.15 16.19" style="fill: #3e3c44;"/>
            </g>
          </g>
          <path d="M63.96,69.29c0,.88-.62,1.96-1.39,2.4-.57.33-1.05.22-1.27-.21v-1.3c.21-.69.7-1.36,1.27-1.69.77-.44,1.39-.09,1.39.79Z" style="fill: #6f7171;"/>
          <g>
            <path d="M63.67,68.17l-.6-.35h0c-.25-.15-.61-.13-1,.09-.77.44-1.39,1.52-1.39,2.4,0,.44.15.75.4.89h0s0,0,0,0c0,0,0,0,0,0l.61.35.22-.38c.05-.02.1-.05.15-.08.77-.44,1.39-1.52,1.39-2.4,0-.06,0-.12,0-.17l.21-.37Z" style="fill: #424048;"/>
            <path d="M64.07,69.06c0,.88-.62,1.96-1.39,2.4-.77.44-1.39.09-1.39-.79s.62-1.96,1.39-2.4c.77-.44,1.39-.09,1.39.79Z" style="fill: #5b5960;"/>
            <path d="M63.42,69.52l.18-.33-.39-.22s-.01,0-.02,0h-.01s0,0,0,0c-.13-.07-.31-.05-.5.06-.41.24-.74.81-.74,1.28,0,.22.07.37.19.45h0s.01,0,.01,0c.01,0,.03.02.04.02l.41.24.21-.37c.33-.25.6-.71.63-1.12Z" style="fill: url(#uuid-851ad8e6-7873-4b33-8692-72bb4133005e);"/>
            <path d="M63.82,69.67c0,.47-.33,1.04-.74,1.28-.41.24-.74.05-.74-.42s.33-1.04.74-1.28c.41-.24.74-.05.74.42Z" style="fill: #d3d3d5;"/>
          </g>
          <path d="M58.07,21.11h0s0,0,0,0h0s-16.74-9.67-16.74-9.67h0c-.22-.13-.53-.12-.88.08-.68.39-1.24,1.36-1.24,2.15,0,.4.14.68.37.81h0s16.74,9.66,16.74,9.66h0c.22.13.53.12.88-.08.68-.39,1.24-1.36,1.24-2.15,0-.4-.14-.67-.36-.8Z" style="fill: url(#uuid-361438a9-102e-451a-834b-09142888a497);"/>
          <g>
            <g>
              <polygon points="57.42 30.52 52.99 27.97 52.99 24.22 57.42 26.77 57.42 30.52" style="fill: #5b5960;"/>
              <polygon points="67.67 20.85 57.42 26.77 52.99 24.22 63.25 18.3 67.67 20.85" style="fill: #7f7e83;"/>
              <polygon points="58.87 33.44 54.45 30.88 52.99 27.97 57.42 30.52 58.87 33.44" style="fill: #514f56;"/>
            </g>
            <g>
              <polygon points="67.67 24.6 57.42 30.52 57.42 26.77 67.67 20.85 67.67 24.6" style="fill: #4a4950;"/>
              <g>
                <polygon points="57.96 25.19 56.11 24.12 56.84 21.27 58.7 22.34 57.96 25.19" style="fill: #5b5960;"/>
                <polygon points="63.83 19.38 58.7 22.34 56.84 21.27 61.98 18.31 63.83 19.38" style="fill: #7f7e83;"/>
                <polygon points="64.57 21.37 57.96 25.19 58.7 22.34 63.83 19.38 64.57 21.37" style="fill: #4a4950;"/>
              </g>
              <polygon points="66.22 29.19 58.87 33.44 57.42 30.52 67.67 24.6 66.22 29.19" style="fill: #3e3c44;"/>
            </g>
          </g>
        </g>
      </g>
    </g>
  </g>
</svg>