<?xml version="1.0" encoding="UTF-8"?>
<svg xmlns="http://www.w3.org/2000/svg" xmlns:xlink="http://www.w3.org/1999/xlink" viewBox="0 0 100 100">
  <defs>
    <linearGradient id="uuid-6d03056a-cc11-4bb8-bf53-1969529d59ba" x1="37.78" y1="59.87" x2="64.73" y2="50.59" gradientUnits="userSpaceOnUse">
      <stop offset="0" stop-color="#44444a"/>
      <stop offset=".06" stop-color="#49484e"/>
      <stop offset=".19" stop-color="#4f4d54"/>
      <stop offset=".2" stop-color="#514f56"/>
      <stop offset=".31" stop-color="#535158"/>
      <stop offset=".4" stop-color="#514f56"/>
      <stop offset=".41" stop-color="#4f4d54"/>
      <stop offset=".82" stop-color="#3e3d43"/>
      <stop offset=".99" stop-color="#3e3d43"/>
    </linearGradient>
    <linearGradient id="uuid-de1038f3-ccbc-4867-abf6-ff2eb6641967" x1="37.12" y1="58.7" x2="64.56" y2="58.7" gradientUnits="userSpaceOnUse">
      <stop offset=".21" stop-color="#f5c620"/>
      <stop offset=".34" stop-color="#f5bf1e"/>
      <stop offset=".5" stop-color="#f5ae1a"/>
      <stop offset=".56" stop-color="#f5a819"/>
      <stop offset=".63" stop-color="#f39f19"/>
      <stop offset=".75" stop-color="#f08819"/>
      <stop offset=".9" stop-color="#eb621b"/>
      <stop offset="1" stop-color="#e8471c"/>
    </linearGradient>
    <linearGradient id="uuid-10c28158-d332-432b-863c-3e7a2690eaab" x1="42.58" y1="76.87" x2="71.17" y2="67.02" gradientUnits="userSpaceOnUse">
      <stop offset="0" stop-color="#4a484f"/>
      <stop offset=".18" stop-color="#4a484f"/>
      <stop offset=".59" stop-color="#5b5960"/>
      <stop offset=".6" stop-color="#5c5b62"/>
      <stop offset=".69" stop-color="#5e5d64"/>
      <stop offset=".8" stop-color="#5c5b62"/>
      <stop offset=".81" stop-color="#5b5960"/>
      <stop offset=".95" stop-color="#55535a"/>
      <stop offset="1" stop-color="#514f56"/>
    </linearGradient>
    <linearGradient id="uuid-e426b1e1-2526-490e-ac7c-b74a8342ea8a" x1="39.51" y1="71.53" x2="70.43" y2="60.88" gradientUnits="userSpaceOnUse">
      <stop offset="0" stop-color="#3e3d43"/>
      <stop offset=".18" stop-color="#3e3d43"/>
      <stop offset=".59" stop-color="#4f4d54"/>
      <stop offset=".6" stop-color="#514f56"/>
      <stop offset=".69" stop-color="#535158"/>
      <stop offset=".8" stop-color="#514f56"/>
      <stop offset=".81" stop-color="#4f4d54"/>
      <stop offset=".94" stop-color="#49484e"/>
      <stop offset="1" stop-color="#44444a"/>
    </linearGradient>
    <linearGradient id="uuid-8d5b1683-e333-4fec-9cc8-76fe2fe906ae" x1="37.99" y1="66.2" x2="68.44" y2="55.72" xlink:href="#uuid-10c28158-d332-432b-863c-3e7a2690eaab"/>
    <linearGradient id="uuid-1be7ad98-fdb5-452d-be37-dd444d22f4c0" x1="42.71" y1="74.03" x2="70.5" y2="74.03" xlink:href="#uuid-e426b1e1-2526-490e-ac7c-b74a8342ea8a"/>
    <linearGradient id="uuid-a8727d29-8d2b-4c2d-9864-2bbf66dbb708" x1="52.17" y1="17.06" x2="53.84" y2="14.17" xlink:href="#uuid-10c28158-d332-432b-863c-3e7a2690eaab"/>
    <linearGradient id="uuid-c0cfc562-3db6-4e7d-bcee-657432bbeaa5" data-name="鍊踑臇 蜸馯鳺艜 162" x1="65.69" y1="66" x2="66.68" y2="64.29" gradientUnits="userSpaceOnUse">
      <stop offset=".12" stop-color="#a4a6b1"/>
      <stop offset=".13" stop-color="#b2b3bd"/>
      <stop offset=".47" stop-color="#c3c3c9"/>
      <stop offset=".57" stop-color="#e4e3e3"/>
      <stop offset=".58" stop-color="#e6e6e8"/>
      <stop offset=".63" stop-color="#eceff3"/>
      <stop offset=".67" stop-color="#eef2f7"/>
      <stop offset=".74" stop-color="#ecf0f4"/>
      <stop offset=".78" stop-color="#e8e9ec"/>
      <stop offset=".81" stop-color="#e3e2e2"/>
      <stop offset="1" stop-color="#d7d7d9"/>
    </linearGradient>
    <linearGradient id="uuid-f382f3f6-3ee3-4f47-8bb3-39f1391d09a1" x1="1590.61" y1="750.12" x2="1602.38" y2="753.8" gradientTransform="translate(-696.65 -1080.55) rotate(30) scale(1 .86) skewX(-26.42)" gradientUnits="userSpaceOnUse">
      <stop offset=".21" stop-color="#f5c620"/>
      <stop offset=".31" stop-color="#f4bf1f"/>
      <stop offset=".43" stop-color="#f4ae1d"/>
      <stop offset=".56" stop-color="#f3961a"/>
      <stop offset=".61" stop-color="#f18d1a"/>
      <stop offset=".7" stop-color="#ee761b"/>
      <stop offset=".71" stop-color="#ee741c"/>
      <stop offset="1" stop-color="#e8471c"/>
    </linearGradient>
    <linearGradient id="uuid-345f4ea0-0de8-4050-91fa-5b6509320902" x1="38.06" y1="66.04" x2="43.31" y2="97.53" xlink:href="#uuid-de1038f3-ccbc-4867-abf6-ff2eb6641967"/>
  </defs>
  <g style="isolation: isolate;">
    <g id="uuid-4d2232d1-4eca-4e41-98e3-4844951da4ae" data-name="圖層 1">
      <g>
        <path d="M64.76,76.1c-8.66-.71-20.95,3.33-27.44,9.02-6.5,5.69-4.74,10.88,3.92,11.59,8.66.71,20.95-3.33,27.44-9.02,6.5-5.69,4.74-10.88-3.92-11.59Z" style="fill: #afafaf; mix-blend-mode: multiply; opacity: .5;"/>
        <g>
          <g>
            <g style="isolation: isolate;">
              <polygon points="42.77 58.84 41.96 58.37 41.83 12.99 42.64 13.46 42.77 58.84" style="fill: #8f94a2;"/>
              <polygon points="42.64 13.46 41.83 12.99 45.13 11.08 45.94 11.55 42.64 13.46" style="fill: #d6d9dd;"/>
              <polygon points="45.94 11.55 46.07 56.93 42.77 58.84 42.64 13.46 45.94 11.55" style="fill: #babcc1;"/>
            </g>
            <g>
              <g>
                <polygon points="40.2 15.62 36 13.19 36 9.62 40.2 12.05 40.2 15.62" style="fill: #4a4950;"/>
                <polygon points="49.96 6.42 40.2 12.05 36 9.62 45.75 3.99 49.96 6.42" style="fill: #7f7e83;"/>
                <polygon points="41.58 18.39 37.38 15.96 36 13.19 40.2 15.62 41.58 18.39" style="fill: #3e3c44;"/>
              </g>
              <g>
                <polygon points="49.96 9.98 40.2 15.62 40.2 12.05 49.96 6.42 49.96 9.98" style="fill: #5b5960;"/>
                <g>
                  <polygon points="40.72 10.54 38.96 9.52 39.66 6.82 41.42 7.84 40.72 10.54" style="fill: #4a4950;"/>
                  <polygon points="46.31 5.02 41.42 7.84 39.66 6.82 44.54 4 46.31 5.02" style="fill: #7f7e83;"/>
                  <polygon points="47.01 6.91 40.72 10.54 41.42 7.84 46.31 5.02 47.01 6.91" style="fill: #5b5960;"/>
                </g>
                <polygon points="48.57 14.35 41.58 18.39 40.2 15.62 49.96 9.98 48.57 14.35" style="fill: #514f56;"/>
              </g>
            </g>
          </g>
          <path d="M67.47,52.23c-.74-1.87-2.13-3.52-4.19-4.76-6.31-3.8-16.43-2.24-22.6,3.49-3.31,3.07-4.82,6.72-4.53,10.03.2,2.26,1.23,4.36,3.1,6.02.5.44,1.05.85,1.67,1.22,1.75,1.06,3.8,1.7,5.98,1.95,5.06.59,10.81-.93,15.16-4.22.51-.38.99-.79,1.46-1.22,1.86-1.73,3.15-3.63,3.87-5.56.9-2.39.92-4.8.08-6.94ZM62.87,64.12h0c-.44.41-.91.8-1.39,1.16-4.14,3.14-9.61,4.58-14.43,4.02-2.07-.24-4.02-.85-5.69-1.86-.59-.35-1.11-.74-1.59-1.16-1.78-1.57-2.76-3.57-2.95-5.73-.27-3.15,1.16-6.62,4.31-9.54,5.88-5.45,15.51-6.94,21.51-3.32,1.95,1.18,3.28,2.75,3.98,4.53.8,2.04.78,4.34-.07,6.61-.69,1.83-1.92,3.65-3.69,5.29Z" style="fill: #5b5960;"/>
          <path d="M64.15,49.05c-.46-2.07-1.77-3.92-3.93-5.24-.02-.01-.04-.02-.06-.03-1.3-.78-2.78-1.3-4.35-1.58-4.87-.85-10.67.66-14.76,4.12-.19.16-.38.33-.57.5-1.1,1.02-1.97,2.11-2.61,3.23-1.55,2.7-1.78,5.57-.69,7.99.42.94.84,1.87,1.26,2.81.42.93.84,1.85,1.25,2.78.19.43.23.53.68.68.47.16.93.35,1.42.42.46.07.96.05,1.42.02.39-.03.42-.1.62-.46.58-1,1.36-1.98,2.34-2.89.17-.15.34-.3.51-.45,3.66-3.1,8.85-4.45,13.22-3.69,1.41.25,2.74.71,3.9,1.41.02.01.03.02.05.03,1.93,1.18,3.11,2.84,3.52,4.69l-3.2-14.33Z" style="fill: url(#uuid-6d03056a-cc11-4bb8-bf53-1969529d59ba);"/>
          <path d="M64.56,58.75c-.66,1.35-1.92,2.62-3.78,3.67-5.64,3.17-14.67,3.08-20.15-.2-1.72-1.03-2.89-2.25-3.51-3.54.63-1.32,1.84-2.57,3.63-3.6,5.54-3.2,14.56-3.18,20.13.04,1.82,1.05,3.05,2.31,3.68,3.64Z" style="fill: url(#uuid-de1038f3-ccbc-4867-abf6-ff2eb6641967);"/>
          <path d="M70.17,65.76l-1.66-6.48c.68,2.66.02,5.67-2,8.43-.55.75-1.21,1.48-1.96,2.18h0c-.9.83-1.88,1.57-2.93,2.21-3.21,1.95-6.99,2.97-10.56,2.94-2.2-.02-4.32-.43-6.18-1.28-.42-.19-.83-.41-1.23-.64-1.86-1.12-3.13-2.61-3.82-4.29l2.55,6.18c.67,1.63,1.91,3.07,3.71,4.16.38.23.78.44,1.19.62,1.8.82,3.85,1.22,5.99,1.24,3.46.03,7.13-.96,10.24-2.85,1.02-.62,1.97-1.33,2.84-2.14h0c.73-.68,1.36-1.39,1.9-2.12,1.96-2.67,2.6-5.59,1.94-8.17Z" style="fill: url(#uuid-10c28158-d332-432b-863c-3e7a2690eaab);"/>
          <path d="M69.18,58.65l-1.38-5.39c.74,2.88.02,6.14-2.17,9.11-.6.81-1.3,1.61-2.12,2.36-.97.9-2.04,1.7-3.17,2.39-3.47,2.11-7.56,3.21-11.42,3.18-2.38-.02-4.68-.47-6.68-1.38-.46-.21-.9-.44-1.33-.7-2.01-1.21-3.39-2.82-4.13-4.64l2.12,5.14c.73,1.77,2.08,3.34,4.04,4.53.42.25.85.48,1.29.68,1.96.89,4.2,1.33,6.52,1.35,3.77.03,7.77-1.05,11.15-3.11,1.11-.67,2.15-1.45,3.1-2.33h0c.8-.74,1.49-1.51,2.07-2.31,2.13-2.91,2.84-6.09,2.12-8.9Z" style="fill: url(#uuid-e426b1e1-2526-490e-ac7c-b74a8342ea8a);"/>
          <path d="M67.03,53.58l-1.02-4.9c.6,2.87-.25,6.09-2.53,9-.52.66-1.12,1.31-1.79,1.93-1.27,1.18-2.71,2.18-4.25,2.99-2.77,1.46-5.86,2.31-8.88,2.48-2.63.15-5.19-.22-7.43-1.14-.61-.25-1.2-.55-1.75-.88-1.85-1.11-3.15-2.57-3.92-4.21l2.12,4.54c.74,1.58,2,2.98,3.78,4.06.54.32,1.1.61,1.69.85,2.15.89,4.63,1.24,7.16,1.1,2.9-.16,5.89-.98,8.56-2.39,1.48-.78,2.87-1.75,4.1-2.88h0c.65-.6,1.22-1.22,1.72-1.86,2.21-2.81,3.02-5.91,2.44-8.68Z" style="fill: url(#uuid-8d5b1683-e333-4fec-9cc8-76fe2fe906ae);"/>
          <path d="M61.7,59.61c-6.1,5.66-16.09,7.2-22.31,3.45-6.22-3.75-6.33-11.39-.23-17.04,6.1-5.66,16.09-7.2,22.31-3.45,6.22,3.75,6.33,11.39.23,17.04ZM60.37,58.81c5.38-4.99,5.29-11.72-.2-15.03-5.49-3.31-14.3-1.95-19.68,3.04-5.38,4.99-5.29,11.72.2,15.03,5.49,3.31,14.3,1.95,19.68-3.04h0Z" style="fill: #5b5960;"/>
          <g>
            <path d="M70.46,67.48c-.14-1.08-.14-1.12-.29-1.72.84,3.28-.43,7.12-3.84,10.28h0c-5.54,5.14-14.61,6.54-20.26,3.13-1.52-.92-2.64-2.09-3.36-3.42.13.27.28.54.41.76.22.37.56.84.83,1.18.94,1.17,1.94,1.91,2.33,2.17,1.33.91,2.34,1.32,2.71,1.45,1.36.49,2.02.7,3.93.92.83.1,2.29.09,3.12,0,.99-.12,2.23-.27,3.93-.83,1.72-.58,2.71-1.16,3.67-1.71.54-.31,1.2-.82,1.69-1.2.25-.19.55-.47.78-.67.38-.35.46-.93.22-1.75.24.82.16,1.4-.16,1.7.22-.21.5-.5.72-.71.23-.25.53-.59.75-.85l.58-.76c.19-.29.45-.68.63-.98l.43-.8c.15-.33.35-.77.48-1.11l.28-.83c.1-.37.22-.86.3-1.24l.12-.84c.03-.4.06-.93.06-1.33l-.04-.83Z" style="fill: url(#uuid-1be7ad98-fdb5-452d-be37-dd444d22f4c0);"/>
            <path d="M42.71,75.75c-.13-.25-.25-.51-.35-.73.1.25.22.49.35.73Z" style="fill: #6c7474;"/>
          </g>
          <g>
            <g style="isolation: isolate;">
              <polygon points="63.94 71.06 63.12 70.59 63 25.21 63.81 25.68 63.94 71.06" style="fill: #8f94a2;"/>
              <polygon points="63.81 25.68 63 25.21 66.3 23.3 67.11 23.77 63.81 25.68" style="fill: #d6d9dd;"/>
              <polygon points="67.24 69.15 63.94 71.06 63.92 66.69 63.92 65.45 63.81 25.68 67.11 23.78 67.24 69.15" style="fill: #babcc1;"/>
            </g>
            <path d="M61.8,18.77h0s0,0,0,0c0,0,0,0,0,0l-15.92-9.19h0c-.21-.13-.51-.11-.83.08-.65.37-1.18,1.29-1.18,2.04,0,.38.13.64.35.77h0s15.92,9.19,15.92,9.19h0c.21.13.51.11.83-.08.65-.37,1.18-1.29,1.18-2.04,0-.38-.13-.64-.34-.77Z" style="fill: url(#uuid-a8727d29-8d2b-4c2d-9864-2bbf66dbb708);"/>
            <g>
              <g>
                <polygon points="61.18 27.73 56.97 25.3 56.97 21.73 61.18 24.16 61.18 27.73" style="fill: #4a4950;"/>
                <polygon points="70.93 18.53 61.18 24.16 56.97 21.73 66.73 16.1 70.93 18.53" style="fill: #7f7e83;"/>
                <polygon points="62.56 30.5 58.36 28.07 56.97 25.3 61.18 27.73 62.56 30.5" style="fill: #3e3c44;"/>
              </g>
              <g>
                <polygon points="70.93 22.1 61.18 27.73 61.18 24.16 70.93 18.53 70.93 22.1" style="fill: #5b5960;"/>
                <g>
                  <polygon points="61.7 22.65 59.93 21.63 60.63 18.93 62.4 19.95 61.7 22.65" style="fill: #4a4950;"/>
                  <polygon points="67.28 17.13 62.4 19.95 60.63 18.93 65.52 16.11 67.28 17.13" style="fill: #7f7e83;"/>
                  <polygon points="67.98 19.02 61.7 22.65 62.4 19.95 67.28 17.13 67.98 19.02" style="fill: #5b5960;"/>
                </g>
                <polygon points="69.55 26.46 62.56 30.5 61.18 27.73 70.93 22.1 69.55 26.46" style="fill: #514f56;"/>
              </g>
            </g>
            <g>
              <path d="M67.13,63.53l-.57-.33h0c-.24-.14-.58-.12-.95.09-.73.42-1.32,1.45-1.32,2.29,0,.42.15.71.38.85h0s0,0,0,0h0s.58.34.58.34l.21-.36s.1-.05.15-.07c.73-.42,1.32-1.45,1.32-2.29,0-.06,0-.11,0-.17l.2-.35Z" style="fill: #424048;"/>
              <path d="M67.51,64.38c0,.84-.59,1.86-1.32,2.29-.73.42-1.32.08-1.32-.76s.59-1.86,1.32-2.29c.73-.42,1.32-.08,1.32.76Z" style="fill: #5b5960;"/>
              <path d="M66.88,64.82l.18-.31-.37-.21s0,0-.01,0h0s0,0,0,0c-.13-.06-.29-.05-.48.06-.39.22-.7.77-.7,1.21,0,.2.07.35.18.43h0s.01,0,.01,0c.01,0,.02.01.04.02l.39.22.2-.35c.32-.24.57-.68.6-1.07Z" style="fill: url(#uuid-c0cfc562-3db6-4e7d-bcee-657432bbeaa5);"/>
              <path d="M67.27,64.96c0,.45-.32.99-.7,1.21s-.7.04-.7-.4.32-.99.7-1.21.7-.04.7.4Z" style="fill: #d3d3d5;"/>
            </g>
          </g>
          <g>
            <path d="M43.79,94.07c-2.93,1.69-7.69,1.68-10.64-.02-2.95-1.7-2.96-4.45-.03-6.14s7.69-1.68,10.64.02c2.95,1.7,2.96,4.45.03,6.14Z" style="fill: url(#uuid-f382f3f6-3ee3-4f47-8bb3-39f1391d09a1);"/>
            <path d="M45.94,61.25c-2.94-1.78-6.86-2.23-8.09,1.83-.59,1.96-.2,4.06.08,6.08.55,3.99.66,8.08-.1,12.04-.76,3.96-1.16,3.34-3.86,6.33.09,0,.17,0,.25.01-1.85,1.41-1.65,3.43.58,4.72,2.44,1.41,6.39,1.42,8.81.02,1.18-.68,1.78-1.57,1.81-2.47,0,0,0,0,0-.01.16-1.82-.02-5.68-.86-7.3-1.33-2.57-1.56-5.56-1.62-8.46-.04-1.96-.01-3.93.08-5.89.04-.9.1-1.82.38-2.68.42-1.3,1.34-2.42,2.52-3.09.2-.11.42-.24.46-.46.06-.28-.22-.51-.47-.66Z" style="fill: url(#uuid-345f4ea0-0de8-4050-91fa-5b6509320902);"/>
            <rect x="34.51" y="82.36" width=".42" height="1.01" transform="translate(-48.97 50.18) rotate(-45.93)" style="fill: #f4a118;"/>
            <rect x="29.73" y="89.73" width=".42" height=".81" transform="translate(-63.08 109.3) rotate(-83.27)" style="fill: #f4a118;"/>
            <rect x="46.28" y="87.04" width=".87" height=".42" transform="translate(-48.77 61.2) rotate(-46.57)" style="fill: #f4a118;"/>
            <rect x="45.26" y="82.83" width=".96" height=".42" transform="translate(-27.25 22.54) rotate(-21.5)" style="fill: #f4a118;"/>
            <rect x="32.42" y="86.01" width=".42" height=".82" transform="translate(-57.1 64.48) rotate(-55.58)" style="fill: #f4a118;"/>
            <rect x="39.02" y="95.71" width=".42" height=".7" transform="translate(-43.27 33.13) rotate(-30.45)" style="fill: #f4a118;"/>
            <polygon points="45.27 80.26 44.89 80.07 45.51 78.84 45.89 79.04 45.27 80.26" style="fill: #f4a118;"/>
            <rect x="28.65" y="86.64" width=".42" height=".9" transform="translate(-62.83 83.55) rotate(-69.45)" style="fill: #f4a118;"/>
            <path d="M34.56,85.36c0,.11-.09.19-.19.19s-.19-.09-.19-.19.09-.19.19-.19.19.09.19.19Z" style="fill: #f4a118;"/>
            <path d="M32.87,81.23c-.1.02-.21-.04-.23-.15s.04-.21.15-.23c.1-.02.21.04.23.15.02.1-.04.21-.15.23Z" style="fill: #f4a118;"/>
            <path d="M26,87.57c0,.11-.09.19-.19.19s-.19-.09-.19-.19.09-.19.19-.19.19.09.19.19Z" style="fill: #f4a118;"/>
            <path d="M31.87,95.14c0,.11-.09.19-.19.19s-.19-.09-.19-.19.09-.19.19-.19.19.09.19.19Z" style="fill: #f4a118;"/>
            <path d="M48.13,89.66c0,.11-.09.19-.19.19s-.19-.09-.19-.19.09-.19.19-.19.19.09.19.19Z" style="fill: #f4a118;"/>
            <circle cx="46" cy="86.38" r=".19" style="fill: #f4a118;"/>
            <circle cx="44.26" cy="79.36" r=".19" style="fill: #f4a118;"/>
            <path d="M46.91,82.31c0,.11-.09.19-.19.19s-.19-.09-.19-.19.09-.19.19-.19.19.09.19.19Z" style="fill: #f4a118;"/>
          </g>
        </g>
      </g>
    </g>
  </g>
</svg>