<?xml version="1.0" encoding="UTF-8"?>
<svg id="uuid-0e99be16-7d90-47fa-a020-1b0a29d30a8d" data-name="圖層 1" xmlns="http://www.w3.org/2000/svg" viewBox="0 0 141.73 141.73">
  <path d="M67.94,133.92c-1.92-.37-3.9-.58-5.76-1.15-2.42-.75-4.84-1.59-7.09-2.73-4.91-2.48-10-4.07-15.53-4.16-5.57-.09-7.7-6.05-5.69-10.03.69-1.37,1.73-2.41,3.16-2.96.71-.27.86-.67.87-1.37.04-3.81-.08-7.64.24-11.44.76-9.01,4.22-16.96,10.04-23.86.76-.9,1.09-1.78,1.1-2.96.03-9.27.11-18.55.18-27.82,0-.59.14-1.16-.74-1.41-7.44-2.15-11.52-7.45-10.52-16.28.84-7.37,4.11-13.58,9.78-18.47.31-.27.62-.61.99-.72.78-.23,1.78-.67,2.34-.38.57.3,1.02,1.39,1.03,2.14.08,4.64.01,9.27,0,13.91,0,1.91.22,2.16,2.09,2.2,2.13.04,4.27.05,6.4.05,1.46,0,1.91-.44,1.92-1.9.02-4.64-.03-9.28.07-13.91.02-.84.39-1.94,1-2.43.85-.69,1.85-.05,2.66.59,5.51,4.38,8.65,10.19,10.07,16.98.6,2.84.67,5.71-.05,8.54-1.31,5.16-4.87,8.08-9.75,9.65-.39.13-.79.23-1.32.39v21.56c2.01-.68,4.04-1.37,6.16-2.09-.36-1.93.76-2.78,2.38-3.43,5.41-2.2,10.76-2.16,16.15.05,1.55.63,2.53,1.51,2.22,3.32,2.01.72,4.01,1.31,5.9,2.16,2.2.99,4.27,2.25,6.43,3.33.45.22,1.06.33,1.54.23,1.28-.26,2.44-.15,3.48.7,8.78,7.24,14.31,16.41,15.83,27.72.59,4.41.42,8.92.54,13.38.02.84.22,1.27,1.05,1.64,2.9,1.27,4.27,4.27,3.61,7.57-.61,3.04-3.01,5.23-6.1,5.3-5.57.12-10.74,1.59-15.64,4.2-3.88,2.07-8.01,3.32-12.4,3.71-.19.02-.37.13-.56.2h-28.07ZM81.95,115.94c-13.94,0-27.89,0-41.83,0-2.07,0-3.42,1.32-3.38,3.24.04,1.9,1.33,2.99,3.43,3.02,1.47.02,2.96.07,4.41.28,4.19.59,8.06,2.14,11.78,4.1,4.78,2.52,9.85,3.7,15.25,3.66,7.18-.06,14.35-.02,21.53-.02,4.37,0,8.55-.88,12.52-2.69,1.34-.61,2.64-1.32,3.97-1.94,4.55-2.11,9.32-3.32,14.36-3.44,2.03-.05,3.35-1.29,3.33-3.01-.02-1.67-1.47-3.09-3.28-3.2-.37-.02-.74,0-1.11,0-13.66,0-27.32,0-40.97,0ZM92.45,67.77v44.4h11.51c0-.51,0-.95,0-1.39,0-1.97-.03-3.94.02-5.91.03-1.24.84-2.01,1.91-1.96,1.02.04,1.7.8,1.75,1.98.02.49,0,.98,0,1.48,0,1.92,0,3.84,0,5.81h14.68c.18-7.23.32-14.39-2.25-21.28-2.56-6.89-6.58-12.7-12.45-17.58,0,2.64,0,4.94,0,7.23,0,4.72.01,9.44,0,14.16,0,1.27-.72,2.03-1.8,2.04-1.08,0-1.79-.75-1.87-2.01-.02-.33,0-.66,0-.98,0-6.44-.02-12.89.01-19.33,0-.89-.23-1.46-1.03-1.86-2.45-1.23-4.87-2.52-7.34-3.71-.98-.47-2.06-.72-3.15-1.08ZM66.47,13.71c0,.73,0,1.13,0,1.52,0,3.2,0,6.4-.02,9.6-.03,3.08-2.21,5.31-5.25,5.34-2.46.02-4.92,0-7.38-.07-3.14-.09-5.12-2.09-5.15-5.22-.03-3.24.01-6.48.02-9.72,0-.39-.03-.77-.05-1.19-.18.05-.28.05-.33.09-4.48,5.17-7.03,11.06-6.4,18.01.29,3.18,1.95,5.65,4.81,7.14,1.33.69,2.79,1.18,4.24,1.59,1.89.54,2.23.84,2.22,2.77-.06,8.74-.13,17.48-.19,26.22,0,.42,0,.83,0,1.45.4-.3.58-.4.73-.54,1.26-1.22,2.68-1.66,4.39-1.03.24.09.62-.03.88-.17.58-.31,1.09-.74,1.68-1.01.75-.34.93-.85.94-1.65.04-7.63.12-15.26.19-22.89.02-2.35.21-2.59,2.54-3.12,6.34-1.43,9.53-5.67,8.95-11.85-.46-4.99-2.27-9.45-5.27-13.44-.41-.54-.87-1.04-1.53-1.83ZM88.6,112.19c.02-.32.05-.56.05-.8,0-15.55-.01-31.09,0-46.64,0-.79-.35-1.05-.99-1.27-3.69-1.29-7.37-1.31-11.1-.12-.98.31-1.3.76-1.3,1.81.04,15.26.03,30.52.04,45.77,0,.4.03.8.05,1.25h13.22ZM71.56,112.19v-44.34c-.52.13-.98.17-1.37.35-3.06,1.45-6.11,2.92-9.17,4.38-.79.38-1.04.96-1.04,1.85.04,12.18.03,24.35.04,36.53,0,.39.04.79.07,1.23h11.46ZM56.26,73.66c-.12-.02-.17-.05-.19-.03-.2.14-.4.27-.59.43-3.84,3.3-6.87,7.22-9.3,11.66-4.53,8.26-4.92,17.2-4.54,26.29,0,.06.1.12.12.15h14.5v-38.5Z"/>
  <path d="M34.64,73.82c-.33-2.88-2.46-5.15-5.25-5.57-.56-.09-1.13-.08-1.83-.13v-1.23c0-2.44.01-15.68,0-19.36v-.02c.02-2.92.03-5.84-.02-8.76-.02-1.19.21-2.22.85-3.24,1.12-1.76,2.17-3.58,3.15-5.42.37-.69.64-1.53.64-2.31.05-5.79.03-11.57.02-17.36,0-1.94-.64-2.57-2.59-2.57-5.62,0-11.24.02-16.86.03-1.91,0-2.55.61-2.55,2.47,0,5.87-.02,11.74.03,17.6,0,.7.24,1.46.58,2.08,1.1,2.01,2.33,3.95,3.43,5.97.34.61.58,1.37.58,2.06.05,9.56.05,19.12.06,28.68,0,.44-.04.88-.06,1.42-.38,0-.66,0-.94,0-2.91.09-4.95,1.71-5.7,4.52-.08.31-.2.61-.3.91v1.72c.64,2.65,2.02,4.64,4.93,5.2v1.53c0,11.94-.05,23.88,0,35.82.02,4.31,3.12,7.39,7.62,7.86,4.21.44,8.08-2.17,8.99-6.18.24-1.03.28-2.12.28-3.18.04-11.53.06-23.06.05-34.59,0-.86.11-1.36,1.07-1.71,2.55-.93,4.14-3.66,3.84-6.25ZM14,11.62h14.47v2.88h-14.47v-2.88ZM13.86,21.5c.13-1.07.02-2.17.02-3.22h14.62c0,3.18.02,6.26-.02,9.33,0,.38-.23.78-.42,1.12-1.22,2.13-2.49,4.25-3.68,6.4-.29.51-.5,1.14-.5,1.73-.05,4.06-.03,8.12-.05,12.18,0,.11,0,.2.02.3,0,5.03.01,15.59.02,17.76,0,.35-.05.7-.07,1h-5.24v-1.53c-.01-9.32-.06-18.63,0-27.95.01-1.84-.25-3.5-1.39-4.95-2.83-3.6-3.85-7.66-3.3-12.18ZM25.99,116.73c0,2.7-1.15,4.56-3.21,5.3-2.8,1.01-5.97-1.05-6.3-4.1-.04-.33-.03-.65-.03-.98,0-11.78.02-23.55.04-35.33,0-.28.02-.57.05-1h9.46c.02.37.06.76.06,1.15-.02,11.66-.03,23.31-.06,34.96ZM28.24,76.83c-4.67.03-9.34.05-14,.06-1.7,0-2.66-.94-2.64-2.53.02-1.6.96-2.49,2.68-2.5,2.29,0,4.59,0,6.88,0v.02c2.34,0,4.67-.01,7,0,1.75,0,2.65.88,2.64,2.51,0,1.59-.86,2.43-2.56,2.44Z"/>
  <path d="M126.36,52.46c-.96-.32-2.38-.86-3.83-1.25-.5-.13-1.17,0-1.63.24-1.27.66-2.49,1.41-3.68,2.21-.41.28-.82.77-.95,1.24-.33,1.18-.45,2.42-.73,3.61-.44,1.86-1.63,2.99-3.5,3.09-2.21.12-4.43.12-6.64,0-1.85-.1-3.3-1.3-3.42-3.13-.21-2.98-1.46-4.81-4.28-6.02-1.5-.64-2.59-.96-4.15-.36-4.46,1.71-5.35,1.31-7.7-2.79-.65-1.14-1.33-2.26-1.94-3.42-.93-1.77-.74-3.75.88-4.88,2.4-1.68,3.37-3.59,3.05-6.63-.18-1.73-.43-2.93-1.85-3.96-3.14-2.29-3.93-4.08-1.35-8.01.72-1.09,1.29-2.28,1.99-3.39,1.07-1.71,2.75-2.35,4.67-1.75,1.29.4,2.6,1.34,3.81,1.21,1.2-.12,2.23-1.45,3.46-1.93,1.64-.64,2.22-1.72,2.43-3.38.48-3.82,1.26-5.59,6.26-5.33,1.31.07,2.63-.02,3.94.02,1.94.05,3.36,1.19,3.8,3.07.33,1.39.19,3.08.95,4.14.73,1.01,2.46,1.23,3.54,2.07,1.24.97,2.34,1.02,3.67.36.73-.36,1.53-.57,2.32-.81,1.88-.56,3.54.02,4.57,1.7,1.07,1.75,2.09,3.53,3.06,5.33.9,1.68.54,3.5-.88,4.82-1.02.95-2.5,1.66-3.02,2.82-.49,1.1.22,2.68-.02,3.98-.32,1.75.37,2.78,1.69,3.66.24.16.44.37.66.56,2.78,2.42,3,3.73,1.17,6.9-.78,1.35-1.55,2.7-2.35,4.04-.78,1.3-1.93,1.97-3.98,1.97ZM126.79,20.11c-1.78.63-3.41,1.17-5.01,1.78-.95.36-1.67.11-2.51-.41-1.73-1.08-3.52-2.07-5.35-2.95-.92-.44-1.45-.99-1.62-1.96-.24-1.37-.54-2.74-.73-4.11-.1-.75-.43-.94-1.13-.92-1.48.04-2.96.05-4.43,0-.79-.03-1.06.26-1.17,1.02-.2,1.42-.52,2.82-.78,4.23-.17.91-.64,1.49-1.49,1.95-1.86,1.01-3.68,2.12-5.44,3.29-.8.53-1.51.72-2.4.37-1.34-.51-2.68-1.02-4.06-1.41-.32-.09-.95.14-1.13.42-.85,1.3-1.56,2.7-2.38,4.02-.39.63-.26,1,.28,1.44,1.12.9,2.16,1.89,3.28,2.8.78.64.96,1.39.93,2.38-.05,2.12.15,4.24.09,6.36-.02.7-.31,1.54-.78,2.04-.97,1.05-2.11,1.95-3.24,2.83-.64.49-.64.9-.25,1.54.78,1.25,1.51,2.54,2.2,3.84.34.65.73.74,1.38.49,1.37-.53,2.78-.99,4.16-1.49.89-.33,1.62-.11,2.42.39,1.74,1.06,3.52,2.06,5.34,2.96.94.46,1.52,1.02,1.67,2.07.2,1.38.44,2.75.77,4.1.08.34.58.8.91.82,1.6.09,3.2.08,4.8,0,.32-.02.8-.49.88-.83.37-1.47.64-2.96.89-4.46.16-.96.71-1.45,1.53-1.9,1.79-.98,3.55-2.01,5.23-3.16.87-.59,1.64-.81,2.62-.43,1.3.5,2.61.98,3.95,1.36.33.09.97-.1,1.14-.38.87-1.34,1.67-2.73,2.39-4.15.15-.3.04-.95-.2-1.18-.96-.95-1.98-1.85-3.06-2.66-1.09-.82-1.29-1.8-1.2-3.11.12-1.87.06-3.76-.12-5.62-.11-1.07.09-1.83.9-2.49,1.07-.89,2.15-1.79,3.16-2.74.25-.24.49-.84.36-1.08-.87-1.66-1.84-3.28-2.83-5Z"/>
  <path d="M81.95,115.94c13.66,0,27.32,0,40.97,0,.37,0,.74-.01,1.11,0,1.81.11,3.26,1.53,3.28,3.2.02,1.72-1.3,2.96-3.33,3.01-5.04.12-9.8,1.33-14.36,3.44-1.34.62-2.63,1.33-3.97,1.94-3.97,1.81-8.15,2.69-12.52,2.69-7.18,0-14.36-.04-21.53.02-5.4.04-10.47-1.14-15.25-3.66-3.72-1.96-7.59-3.5-11.78-4.1-1.45-.21-2.94-.26-4.41-.28-2.1-.03-3.39-1.13-3.43-3.02-.04-1.92,1.31-3.24,3.38-3.24,13.94,0,27.89,0,41.83,0Z" style="fill: #fff;"/>
  <path d="M92.45,67.77c1.09.37,2.17.62,3.15,1.08,2.47,1.19,4.88,2.48,7.34,3.71.8.4,1.04.97,1.03,1.86-.04,6.44-.02,12.89-.01,19.33,0,.33-.01.66,0,.98.08,1.26.79,2.01,1.87,2.01,1.08,0,1.8-.77,1.8-2.04.02-4.72,0-9.44,0-14.16,0-2.3,0-4.59,0-7.23,5.87,4.88,9.89,10.69,12.45,17.58,2.56,6.9,2.43,14.05,2.25,21.28h-14.68c0-1.98,0-3.9,0-5.81,0-.49.01-.99,0-1.48-.05-1.18-.74-1.94-1.75-1.98-1.07-.04-1.88.73-1.91,1.96-.05,1.97-.02,3.94-.02,5.91,0,.44,0,.88,0,1.39h-11.51v-44.4Z" style="fill: #fff;"/>
  <path d="M66.47,13.71c.66.78,1.13,1.28,1.53,1.83,3,3.99,4.81,8.44,5.27,13.44.57,6.18-2.62,10.42-8.95,11.85-2.33.53-2.52.77-2.54,3.12-.06,7.63-.15,15.26-.19,22.89,0,.79-.19,1.31-.94,1.65-.59.27-1.1.71-1.68,1.01-.26.14-.64.26-.88.17-1.71-.63-3.13-.19-4.39,1.03-.14.14-.32.24-.73.54,0-.62,0-1.03,0-1.45.06-8.74.13-17.48.19-26.22.01-1.93-.32-2.23-2.22-2.77-1.45-.41-2.91-.9-4.24-1.59-2.86-1.49-4.53-3.96-4.81-7.14-.62-6.95,1.93-12.84,6.4-18.01.04-.05.14-.04.33-.09.02.41.05.8.05,1.19,0,3.24-.05,6.48-.02,9.72.03,3.14,2.01,5.14,5.15,5.22,2.46.07,4.92.09,7.38.07,3.04-.03,5.22-2.27,5.25-5.34.03-3.2.02-6.4.02-9.6,0-.39,0-.78,0-1.52Z" style="fill: #fff;"/>
  <path d="M88.6,112.19h-13.22c-.02-.45-.05-.85-.05-1.25,0-15.26,0-30.52-.04-45.77,0-1.05.32-1.5,1.3-1.81,3.73-1.19,7.41-1.17,11.1.12.64.22.99.48.99,1.27-.02,15.55-.01,31.09,0,46.64,0,.24-.03.48-.05.8Z" style="fill: #fff;"/>
  <path d="M71.56,112.19h-11.46c-.02-.44-.07-.83-.07-1.23,0-12.18,0-24.35-.04-36.53,0-.9.24-1.48,1.04-1.85,3.06-1.46,6.11-2.94,9.17-4.38.39-.18.85-.22,1.37-.35v44.34Z" style="fill: #fff;"/>
  <path d="M56.26,73.66v38.5h-14.5s-.12-.09-.12-.15c-.38-9.09.01-18.04,4.54-26.29,2.43-4.43,5.46-8.36,9.3-11.66.18-.16.39-.29.59-.43.02-.02.07.01.19.03Z" style="fill: #fff;"/>
  <path d="M16.53,80.62h9.46c.02.38.06.76.06,1.15-.02,11.65-.03,23.31-.06,34.96,0,2.7-1.15,4.55-3.21,5.3-2.8,1.01-5.97-1.05-6.3-4.1-.04-.33-.03-.66-.03-.98,0-11.78.02-23.55.03-35.33,0-.29.03-.57.05-1Z" style="fill: #fff;"/>
  <path d="M21.16,71.88c2.33,0,4.67-.01,7,0,1.75.01,2.65.88,2.64,2.51,0,1.59-.86,2.43-2.56,2.44-4.67.03-9.34.05-14.01.06-1.7,0-2.66-.94-2.64-2.53.02-1.59.96-2.49,2.68-2.5,2.29-.01,4.59,0,6.88,0v.02Z" style="fill: #fff;"/>
  <path d="M28.47,11.62v2.87c-2.43,0-4.83,0-7.23,0s-4.75,0-7.25,0v-2.87h14.47Z" style="fill: #fff;"/>
  <path d="M126.79,20.11c.99,1.72,1.96,3.33,2.83,5,.13.24-.11.84-.36,1.08-1.01.96-2.08,1.85-3.16,2.74-.8.67-1,1.43-.9,2.49.19,1.86.25,3.76.12,5.62-.09,1.31.11,2.29,1.2,3.11,1.08.81,2.1,1.71,3.06,2.66.24.24.35.89.2,1.18-.73,1.42-1.53,2.81-2.39,4.15-.18.27-.81.47-1.14.38-1.34-.38-2.65-.86-3.95-1.36-.98-.38-1.76-.16-2.62.43-1.68,1.14-3.45,2.18-5.23,3.16-.82.45-1.38.95-1.53,1.9-.25,1.5-.52,2.99-.89,4.46-.09.34-.56.82-.88.83-1.6.09-3.2.09-4.8,0-.33-.02-.83-.48-.91-.82-.33-1.35-.57-2.73-.77-4.1-.15-1.05-.73-1.61-1.67-2.07-1.83-.9-3.61-1.9-5.34-2.96-.8-.49-1.53-.71-2.42-.39-1.38.51-2.79.96-4.16,1.49-.65.25-1.04.16-1.38-.49-.69-1.3-1.42-2.59-2.2-3.84-.39-.64-.39-1.05.25-1.54,1.13-.88,2.27-1.78,3.24-2.83.46-.5.76-1.34.78-2.04.05-2.12-.14-4.24-.09-6.36.02-.99-.15-1.74-.93-2.38-1.11-.91-2.16-1.9-3.28-2.8-.54-.44-.68-.81-.28-1.44.82-1.32,1.53-2.71,2.38-4.02.18-.28.81-.51,1.13-.42,1.37.4,2.72.9,4.06,1.41.9.34,1.61.15,2.4-.37,1.77-1.17,3.58-2.28,5.44-3.29.85-.46,1.32-1.04,1.49-1.95.26-1.41.58-2.81.78-4.23.11-.76.38-1.05,1.17-1.02,1.47.06,2.95.05,4.43,0,.7-.02,1.03.17,1.13.92.18,1.38.49,2.74.73,4.11.17.97.7,1.53,1.62,1.96,1.84.88,3.63,1.87,5.35,2.95.84.53,1.56.77,2.51.41,1.61-.61,3.24-1.15,5.01-1.78ZM108.5,24.08c-5.89,0-10.71,4.82-10.7,10.73,0,5.83,4.82,10.65,10.65,10.67,5.85.01,10.69-4.86,10.69-10.76,0-5.86-4.76-10.62-10.64-10.63Z" style="fill: #fff;"/>
  <path d="M108.5,24.08c5.88,0,10.64,4.77,10.64,10.63,0,5.9-4.84,10.78-10.69,10.76-5.83-.01-10.64-4.83-10.65-10.67,0-5.91,4.81-10.74,10.7-10.73ZM108.47,27.77c-3.82,0-6.95,3.12-6.98,6.97-.04,3.8,3.11,7,6.92,7.04,3.82.03,7.05-3.2,7.04-7.06,0-3.85-3.12-6.95-6.98-6.94Z"/>
  <path d="M108.47,27.77c3.86,0,6.97,3.09,6.98,6.94,0,3.86-3.21,7.1-7.04,7.06-3.81-.03-6.96-3.24-6.92-7.04.04-3.85,3.16-6.96,6.98-6.97Z" style="fill: #fff;"/>
  <path d="M28.49,27.61c.04-3.07.02-6.14.02-9.33h-14.62c0,1.05.11,2.14-.02,3.22-.54,4.52.48,8.58,3.3,12.18,1.14,1.45,1.4,3.12,1.39,4.95-.06,9.32,0,18.63,0,27.95v1.53h5.24c.02-.3.07-.65.07-1,0-2.18,0-12.73-.02-17.76-.01-.1-.02-.19-.02-.3.02-4.06,0-8.13.05-12.18,0-.58.22-1.21.5-1.73,1.19-2.15,2.46-4.26,3.68-6.4.2-.35.42-.74.42-1.12Z" style="fill: #fff;"/>
</svg>