<?xml version="1.0" encoding="UTF-8"?>
<svg id="uuid-a56b1369-9925-4f0a-a732-833f13bd43eb" data-name="圖層 1" xmlns="http://www.w3.org/2000/svg" viewBox="0 0 141.73 141.73">
  <path d="M137.59,74.52v56.82c-.54,1.7-1.21,3.38-2.75,4.39-1.16.76-2.5,1.25-3.77,1.87H5.46c-1.05-.74-1.32-1.75-1.32-3.02.03-42.47.02-84.95.02-127.42,0-2.4.6-3.01,2.98-3.01,29.53,0,59.05,0,88.58,0,2.46,0,3.03.59,3.03,3.09,0,17.89,0,35.79,0,53.68v1.5c3.18.75,4.27,2.89,4.19,5.77h10.48c.02-.41.04-.71.06-1.01.18-2.99,1.93-4.67,4.93-4.73.82-.02,1.65-.02,2.47,0,2.79.11,4.6,1.93,4.7,4.7.01.33,0,.67,0,1.14.98,0,1.84,0,2.7,0,5.23,0,7.39,1.45,9.3,6.22ZM90.74,68.23c-.15-2.93.98-4.96,3.74-5.76V8.38H8.42v124.97h49.27c-.16-1.39-.43-2.71-.43-4.03-.03-17.59.05-35.19-.06-52.78-.03-5.07,3.78-8.3,8.26-8.25.85,0,1.7,0,2.53,0,.29-4.5,1.74-5.85,6.05-5.85,4.5,0,5.52.93,6.29,5.79h10.43ZM61.39,87.61v1.34c0,13.46,0,26.93,0,40.39,0,2.7,1.36,4.07,4.08,4.08,21.28,0,42.55,0,63.83,0,2.8,0,4.12-1.36,4.12-4.17,0-13.42,0-26.84,0-40.26v-1.38H61.39ZM80.23,72.51c-.17,2,.28,4.03-1.12,5.7-1.47,1.76-3.45,1.76-5.48,1.74-1.42-.01-2.76-.18-3.91-1.12-2.06-1.66-1.62-4.04-1.74-6.46-1.42.1-2.76.09-4.06.33-1.22.22-2.3,1.04-2.38,2.29-.16,2.75-.05,5.51-.05,8.3h71.92c0-2.44.01-4.81,0-7.19-.01-1.88-.97-3.21-2.84-3.46-1.6-.21-3.25-.04-4.71-.04-.28,1.66-.33,3.34-.89,4.84-.63,1.67-2.2,2.44-3.97,2.47-1.93.03-3.91.35-5.66-.92-2.26-1.65-1.76-4.14-1.93-6.42h-10.26c-.28,1.7-.31,3.35-.85,4.81-.61,1.66-2.16,2.49-3.93,2.53-1.93.05-3.91.37-5.67-.87-2.32-1.64-1.86-4.17-2.02-6.52h-10.44ZM76.01,71.28c0-.69.01-1.39,0-2.08-.06-2.89.56-2.56-2.78-2.6-.8,0-1.05.33-1.03,1.1.04,1.82-.01,3.64.02,5.46.04,2.86-.61,2.59,2.77,2.62.82,0,1.06-.37,1.04-1.12-.03-1.13,0-2.25,0-3.38ZM98.73,71.21c0-.69.01-1.39,0-2.08-.05-2.77.5-2.47-2.59-2.53-1.01-.02-1.26.4-1.23,1.32.05,1.78,0,3.55.02,5.33.02,2.8-.41,2.49,2.6,2.54.88.01,1.27-.27,1.23-1.19-.06-1.12-.01-2.25-.01-3.38ZM121.43,71.23c0-.69.01-1.39,0-2.08-.07-2.81.62-2.5-2.68-2.56-.87-.01-1.13.34-1.11,1.15.04,1.82.01,3.64,0,5.46,0,2.79,0,2.77,2.82,2.57.73-.05.99-.33.97-1.04-.03-1.17,0-2.34,0-3.51Z"/>
  <path d="M21.14,21.09v18.14h19.94v-6.14c-1.21,1.09-2.29,2.06-3.37,3.03-1.43,1.27-2.34,1.26-3.7-.09-1.39-1.37-2.78-2.75-4.14-4.15-1-1.03-1.05-2.26-.19-3.12.89-.88,2.06-.84,3.1.18,1.02,1,1.99,2.06,3.04,3.16.39-.32.7-.54.97-.79,2.93-2.65,5.85-5.31,8.78-7.97,1.27-1.15,2.4-1.23,3.32-.27.94.98.88,2.38-.56,3.34-2.62,1.75-3.36,4.06-3.06,7.08.24,2.45.06,4.95.05,7.42-.01,1.85-.75,2.59-2.63,2.59-7.69,0-15.37,0-23.06,0-1.95,0-2.69-.73-2.69-2.66,0-7.08,0-14.16,0-21.24,0-1.94.73-2.67,2.69-2.67,7.69,0,15.37,0,23.06,0,1.65,0,2.61.78,2.62,2.07.01,1.3-.94,2.1-2.58,2.1-6.69,0-13.38,0-20.07,0-.47,0-.94,0-1.53,0Z"/>
  <path d="M21.16,61.75v18.14h19.9v-6.14c-1.09.99-2.09,1.89-3.08,2.79-1.75,1.59-2.52,1.58-4.17-.08-1.29-1.29-2.59-2.57-3.87-3.87-1.06-1.09-1.13-2.33-.22-3.21.9-.87,2.05-.81,3.1.24,1.02,1,1.98,2.07,3.05,3.19,1.86-1.68,3.59-3.24,5.31-4.8,1.51-1.37,3.01-2.76,4.53-4.12,1.17-1.05,2.35-1.08,3.22-.14.87.94.73,2.12-.39,3.2-.03.03-.06.06-.1.09-2.81,1.66-3.47,4.17-3.16,7.27.24,2.41.06,4.86.04,7.29-.01,1.78-.76,2.55-2.54,2.55-7.77.01-15.55.01-23.32,0-1.76,0-2.52-.78-2.52-2.57-.01-7.17-.01-14.33,0-21.5,0-1.7.78-2.49,2.46-2.49,7.82-.01,15.63-.01,23.45,0,1.52,0,2.47.84,2.46,2.09,0,1.26-.94,2.06-2.48,2.07-6.73,0-13.46,0-20.19,0-.47,0-.93,0-1.49,0Z"/>
  <path d="M21.15,102.42v18.12h19.92v-6.15c-1.2,1.09-2.27,2.06-3.35,3.03-1.45,1.3-2.34,1.28-3.7-.07-1.39-1.37-2.78-2.75-4.14-4.15-1.01-1.03-1.07-2.24-.22-3.11.87-.89,2.06-.86,3.1.15,1.05,1.02,2.05,2.1,3.12,3.22,3.19-2.9,6.24-5.66,9.3-8.42.29-.26.56-.55.88-.78,1.01-.76,2.15-.67,2.91.22.72.84.72,1.96-.12,2.82-.88.9-1.9,1.66-2.75,2.58-.39.42-.72,1.08-.73,1.64-.07,3.52-.03,7.04-.04,10.55,0,2.03-.71,2.74-2.74,2.74-7.64,0-15.29,0-22.93,0-2.01,0-2.71-.73-2.72-2.77,0-7.04,0-14.07,0-21.11,0-1.96.72-2.68,2.67-2.68,7.69,0,15.37,0,23.06,0,1.66,0,2.62.75,2.65,2.04.03,1.33-.95,2.13-2.68,2.13-6.64,0-13.29,0-19.93,0h-1.55Z"/>
  <path d="M72.84,21.09c-4.34,0-8.68,0-13.02,0-1.66,0-2.57-.75-2.57-2.08,0-1.32.92-2.08,2.57-2.08,8.68,0,17.35,0,26.03,0,1.64,0,2.58.78,2.58,2.09,0,1.31-.93,2.07-2.58,2.07-4.34,0-8.68,0-13.02,0Z"/>
  <path d="M72.97,28.12c4.34,0,8.68,0,13.02,0,1.49,0,2.37.73,2.44,1.95.08,1.33-.86,2.2-2.45,2.21-4.08.01-8.16,0-12.23,0-4.69,0-9.37,0-14.06,0-1.5,0-2.37-.73-2.44-1.95-.07-1.35.85-2.2,2.44-2.21,4.43-.01,8.85,0,13.28,0Z"/>
  <path d="M77.55,93.92c1.61,0,3.21-.02,4.82,0,1.81.03,2.56.76,2.56,2.53.02,3.26.02,6.51,0,9.77,0,1.78-.74,2.53-2.54,2.54-3.26.03-6.51.03-9.77,0-1.83-.01-2.53-.73-2.54-2.52-.01-3.26-.01-6.51,0-9.77,0-1.81.71-2.52,2.52-2.55,1.65-.02,3.3,0,4.95,0ZM74.31,98.14v6.37h6.38v-6.37h-6.38Z"/>
  <path d="M109.91,101.29c0-1.69-.02-3.39,0-5.08.03-1.5.74-2.26,2.24-2.28,3.43-.04,6.86-.04,10.29,0,1.54.02,2.29.81,2.31,2.39.03,3.34.03,6.69,0,10.03-.01,1.63-.77,2.39-2.41,2.41-3.34.03-6.69.04-10.03,0-1.72-.02-2.39-.75-2.41-2.52-.02-1.65,0-3.3,0-4.95ZM114.18,98.15v6.36h6.35v-6.36h-6.35Z"/>
  <path d="M97.12,108.77c-1.61,0-3.21.02-4.82,0-1.76-.03-2.48-.72-2.49-2.44-.03-3.34-.03-6.69,0-10.03.01-1.6.72-2.35,2.29-2.37,3.38-.04,6.77-.04,10.16,0,1.63.02,2.37.77,2.39,2.43.03,3.3.03,6.6,0,9.9-.02,1.79-.75,2.48-2.58,2.51-1.65.03-3.3,0-4.95,0ZM93.98,104.6c2.03,0,3.92.02,5.81-.03.24,0,.66-.43.67-.67.06-1.68.07-3.37,0-5.06-.01-.27-.47-.73-.73-.74-1.68-.07-3.37-.06-5.06,0-.24,0-.66.43-.66.68-.06,1.89-.03,3.78-.03,5.82Z"/>
  <path d="M109.91,119.6c0-1.65-.02-3.3,0-4.95.02-1.68.69-2.44,2.33-2.46,3.39-.04,6.77-.04,10.16,0,1.61.02,2.34.82,2.36,2.48.03,3.3.03,6.6,0,9.9-.01,1.71-.77,2.44-2.5,2.45-3.3.02-6.6.02-9.9,0-1.74-.01-2.43-.73-2.45-2.47-.02-1.65,0-3.3,0-4.95ZM120.52,122.81v-6.37h-6.37v6.37h6.37Z"/>
  <path d="M70.08,119.61c0-1.65-.01-3.3,0-4.95.02-1.68.7-2.45,2.33-2.48,3.39-.04,6.77-.05,10.16,0,1.63.02,2.35.81,2.36,2.46.02,3.3.02,6.6,0,9.9,0,1.7-.76,2.45-2.48,2.47-3.3.02-6.6.02-9.9,0-1.79-.01-2.46-.74-2.47-2.58,0-1.61,0-3.21,0-4.82ZM74.32,116.42v6.37h6.4v-6.37h-6.4Z"/>
  <path d="M97.17,127.02c-1.65,0-3.3.02-4.95,0-1.67-.03-2.39-.73-2.4-2.39-.03-3.34-.03-6.69,0-10.03.01-1.66.72-2.4,2.38-2.42,3.34-.04,6.68-.04,10.03,0,1.65.02,2.41.77,2.43,2.4.04,3.34.04,6.69,0,10.03-.02,1.65-.76,2.37-2.41,2.41-1.69.03-3.39,0-5.08,0ZM94.05,122.76h6.35v-6.35h-6.35v6.35Z"/>
</svg>