<?xml version="1.0" encoding="UTF-8"?>
<svg id="uuid-6a1e0afc-f143-48ff-b298-46248d2e1d10" data-name="圖層 1" xmlns="http://www.w3.org/2000/svg" viewBox="0 0 141.73 141.73">
  <path d="M31.25,22.19c0-1.04-.02-1.92,0-2.79.04-1.5.67-2.12,2.18-2.13,2.8-.02,5.6,0,8.44,0,1.56-5.45,4.98-8.71,10.75-8.5,5.29.19,8.4,3.42,9.8,8.5,2.7,0,5.42,0,8.13,0,1.96,0,2.5.56,2.51,2.56,0,.74,0,1.49,0,2.36.59,0,1.04,0,1.49,0,4.73,0,9.45,0,14.18,0,4.52,0,6.71,2.18,6.71,6.68,0,11.07.01,22.13-.02,33.2,0,.87.24,1.31,1.07,1.67,13.71,5.98,19.08,22.66,11.42,35.5-.52.87-.47,1.39.29,1.98.46.36.87.79,1.24,1.24.83.99,1.74,1.55,3.16,1.58.97.02,2.11.65,2.83,1.36,5.35,5.24,10.64,10.56,15.91,15.89,2.02,2.04,2,4.76.02,6.85-1.09,1.15-2.22,2.29-3.37,3.38-2.08,1.97-4.8,1.96-6.84-.08-5.28-5.26-10.53-10.55-15.8-15.82-1.03-1.03-1.51-2.26-1.52-3.73,0-.47-.21-1.05-.52-1.4-.89-1-1.76-2.45-2.86-2.7-1.02-.23-2.29,1-3.52,1.38-1.29.39-1.55,1.13-1.53,2.38.07,5.07.04,10.14.03,15.22,0,3.8-2.4,6.18-6.22,6.18-24.72,0-49.44,0-74.16,0-3.86,0-6.23-2.4-6.23-6.3,0-32.74,0-65.47,0-98.21,0-3.9,2.33-6.23,6.26-6.25,4.85-.02,9.7,0,14.56,0,.45,0,.91,0,1.58,0ZM20.44,121.3h63.42v-9.89c-.21-.04-.36-.08-.52-.11-8.26-1.28-14.49-5.53-18.61-12.82-.4-.71-.91-.71-1.55-.71-6.15,0-12.3,0-18.45,0-.38,0-.76.02-1.13-.02-.97-.11-1.52-.7-1.58-1.65-.06-.9.45-1.52,1.31-1.76.39-.11.83-.09,1.24-.09,5.61,0,11.21,0,16.82,0h1.47c-1.27-4-1.49-7.93-.86-12.04h-1.5c-5.23,0-10.46,0-15.69,0-.38,0-.75,0-1.13-.02-1.04-.08-1.63-.69-1.66-1.69-.03-.96.54-1.57,1.48-1.74.41-.08.83-.06,1.25-.06,5.65,0,11.3-.03,16.94.02.95,0,1.33-.3,1.69-1.19,3.22-7.89,8.99-12.94,17.2-15.18,1.07-.29,2.19-.43,3.26-.64v-27.84H20.44v87.44ZM31.17,25.74c-5.63,0-11.15-.03-16.66.02-1.43.01-2.14,1.01-2.14,2.69,0,32.74,0,65.47,0,98.21,0,1.95.81,2.78,2.73,2.78,24.72,0,49.44,0,74.16,0,1.87,0,2.68-.82,2.69-2.68.01-3.65,0-7.29,0-10.94,0-1.58,0-3.17,0-4.81-1.56.2-3,.38-4.52.57,0,3.59,0,7.11,0,10.62,0,2.28-.44,2.72-2.68,2.72-21.71,0-43.42,0-65.12,0-2.33,0-2.74-.42-2.74-2.8,0-22.13,0-44.26,0-66.4,0-7.71,0-15.43,0-23.14,0-1.78.54-2.32,2.32-2.33,1.97-.01,3.93,0,5.9,0,2,0,4,0,6.07,0v-4.5ZM34.83,30.12h34.64v-9.33c-2.59,0-5.09,0-7.6,0-2.44,0-2.61-.14-2.95-2.51-.53-3.6-3.35-6.1-6.86-6.06-3.43.04-6.2,2.58-6.66,6.13-.29,2.2-.55,2.44-2.78,2.44-2.58,0-5.16,0-7.8,0v9.33ZM86.5,65.11c-11.77.04-21.38,9.72-21.35,21.49.04,11.79,9.7,21.43,21.44,21.4,11.75-.03,21.39-9.73,21.35-21.49-.03-11.78-9.71-21.43-21.45-21.4ZM73.12,30.24c.59,0,1.04,0,1.49,0,3.34,0,6.69,0,10.03,0,2.41,0,2.79.37,2.79,2.74,0,9.05,0,18.1,0,27.15v1.43c1.53.19,2.96.37,4.46.56.02-.43.05-.8.05-1.17,0-10.77,0-21.53,0-32.3,0-2.2-.72-2.92-2.94-2.92-4.89,0-9.78,0-14.67,0-.4,0-.79.04-1.21.06v4.47ZM129.46,124.72c-.23-.37-.37-.73-.61-.98-5.25-5.28-10.51-10.54-15.76-15.81-.65-.65-1.34-.66-1.98-.03-1.08,1.05-2.14,2.12-3.19,3.19-.68.69-.67,1.39.02,2.08,5.23,5.24,10.46,10.48,15.68,15.72.69.7,1.37.71,2.07.02,1.06-1.06,2.14-2.12,3.18-3.2.25-.26.38-.62.61-.99ZM107.76,106.12c-.87-.99-1.72-1.96-2.53-2.89-.71.7-1.36,1.33-2.06,2,.94.9,1.86,1.79,2.85,2.75.59-.63,1.21-1.3,1.74-1.87Z"/>
  <path d="M52.13,37.81c9.61-.02,17.42,7.79,17.4,17.39-.02,9.53-7.83,17.36-17.34,17.37-9.57.01-17.42-7.85-17.4-17.43.03-9.57,7.77-17.32,17.33-17.34ZM38.32,55.32c.17,7.74,6.45,13.85,14.09,13.72,7.58-.13,13.82-6.6,13.6-14.08-.23-7.79-6.47-13.79-14.15-13.62-7.58.17-13.7,6.49-13.54,13.98Z"/>
  <path d="M59.74,109.82c5.06,0,10.11-.02,15.17.02.62,0,1.39.18,1.81.58.36.35.53,1.19.37,1.68-.16.49-.79.88-1.29,1.18-.29.17-.74.06-1.11.06-10.03,0-20.06,0-30.08,0-.29,0-.59.01-.88-.01-1.02-.08-1.61-.66-1.71-1.67-.09-.93.65-1.74,1.68-1.82.87-.06,1.75-.02,2.63-.02,4.47,0,8.94,0,13.41,0Z"/>
  <path d="M32.71,117.35c-1.17,0-2.34.01-3.51,0-1.47-.02-2.1-.59-2.12-2.03-.04-2.47-.03-4.94,0-7.41.02-1.46.63-2.07,2.07-2.09,2.46-.02,4.93-.03,7.39,0,1.35.02,1.97.65,1.99,2.03.03,2.47.02,4.94,0,7.41-.01,1.45-.63,2.05-2.06,2.08-1.25.02-2.51,0-3.76,0ZM34.92,113.77v-4.36h-4.23v4.36h4.23Z"/>
  <path d="M32.76,101.77c-1.25,0-2.51.02-3.76,0-1.24-.03-1.89-.6-1.91-1.83-.05-2.59-.05-5.19,0-7.78.02-1.23.65-1.86,1.88-1.88,2.55-.04,5.09-.04,7.64,0,1.29.02,1.9.66,1.91,1.97.03,2.51.03,5.02,0,7.53-.01,1.38-.63,1.97-2,1.99-1.25.02-2.51,0-3.76,0ZM30.65,98.17h4.3v-4.3h-4.3v4.3Z"/>
  <path d="M32.69,86.2c-1.25,0-2.51.01-3.76,0-1.16-.01-1.82-.63-1.83-1.77-.04-2.64-.03-5.27,0-7.91.01-1.16.72-1.78,1.83-1.8,2.59-.04,5.18-.05,7.76,0,1.23.03,1.82.68,1.84,1.92.03,2.55.03,5.1,0,7.66-.02,1.31-.63,1.88-1.95,1.91-1.29.02-2.59,0-3.88,0ZM34.95,82.61v-4.4c-1.27,0-2.48-.03-3.68.03-.23.01-.63.34-.64.53-.06,1.27-.03,2.55-.03,3.85h4.35Z"/>
  <path d="M54.4,19c.02,1.24-.93,2.24-2.17,2.27-1.25.03-2.24-.9-2.29-2.14-.05-1.28.97-2.36,2.22-2.36,1.2,0,2.22,1.02,2.24,2.23Z"/>
  <path d="M105.45,86.51c.02,10.41-8.51,18.98-18.89,18.98-10.38,0-18.92-8.56-18.91-18.97.02-10.37,8.48-18.87,18.83-18.91,10.39-.04,18.95,8.49,18.97,18.9ZM86.54,101.97c8.39,0,15.35-6.93,15.39-15.35.04-8.46-6.93-15.48-15.38-15.48-8.45,0-15.43,7.01-15.39,15.47.03,8.42,6.98,15.36,15.38,15.36Z"/>
  <path d="M46.71,60.4c-1.02,0-2.1.03-3.18,0-1.45-.04-2.04-.65-2.05-2.1-.02-2.09-.02-4.19,0-6.28.01-1.41.66-2.03,2.1-2.06,1.08-.02,2.16,0,3.39,0,0-1.22-.02-2.34,0-3.45.03-1.37.63-2.01,1.99-2.04,2.13-.04,4.26-.04,6.39,0,1.35.02,1.96.67,1.99,2.03.03,1.08,0,2.17,0,3.46,1.18,0,2.29-.02,3.39,0,1.44.03,2.07.64,2.08,2.06.02,2.14.02,4.27,0,6.41-.02,1.31-.61,1.91-1.92,1.97-1.12.04-2.24,0-3.56,0,0,1.24.02,2.35,0,3.47-.03,1.39-.6,1.98-2,2-2.13.03-4.26.04-6.39,0-1.39-.02-1.95-.62-1.98-2.02-.03-1.05-.03-2.09-.05-3.14,0-.03-.05-.07-.21-.31ZM59.26,53.47c-1.09,0-2.12,0-3.16,0-1.65-.02-2.24-.61-2.26-2.29-.02-1.03,0-2.06,0-3.14h-3.36c0,.61,0,1.14,0,1.67,0,.59.02,1.17,0,1.76-.06,1.35-.69,1.97-2.05,1.99-1.11.02-2.23,0-3.34,0v3.42c1.17,0,2.25-.03,3.33,0,1.43.05,2.02.67,2.06,2.11.03,1.08,0,2.15,0,3.28h3.36c0-1.1-.02-2.13,0-3.17.03-1.61.6-2.19,2.2-2.23,1.07-.02,2.14,0,3.22,0v-3.41Z"/>
</svg>