<?xml version="1.0" encoding="UTF-8"?>
<svg id="uuid-de2455a3-ea7d-4bbf-959f-5491260a1506" data-name="圖層 1" xmlns="http://www.w3.org/2000/svg" viewBox="0 0 141.73 141.73">
  <path d="M53.09,120.11c-1.63,1.75-3.3,3.53-4.96,5.31-3.52,3.78-7.01,7.59-10.59,11.31-.5.52-1.47.93-2.17.86-1.25-.13-1.69-1.57-1.01-2.86,1.19-2.24,2.43-4.45,3.65-6.67,1.79-3.27,3.58-6.53,5.49-10.01-2.31.42-4.04,1.41-5.58,2.78-3.62,3.21-6.59,3.13-10-.28-2.58-2.58-5.16-5.16-7.74-7.75-3.01-3.01-3.07-6.26-.23-9.42,3.21-3.58,4.21-7.7,2.67-12.26-1.55-4.59-4.79-7.39-9.59-8.28-.74-.14-1.5-.12-2.26-.17-3.43-.24-5.86-2.77-5.89-6.21-.03-4.05-.01-8.1,0-12.16,0-4.04,2.36-6.49,6.39-6.67,5.76-.26,10.19-3.76,11.61-9.29,1.08-4.19.11-7.94-2.74-11.18-3.12-3.55-3.06-6.55.3-9.91,2.61-2.61,5.22-5.24,7.84-7.84,2.96-2.94,6.25-3.01,9.33-.22,3.56,3.23,7.68,4.25,12.25,2.73,4.59-1.53,7.41-4.76,8.33-9.55.14-.74.13-1.5.18-2.26.24-3.52,2.76-5.93,6.29-5.95,3.96-.02,7.92,0,11.89,0,4.25,0,6.62,2.24,6.86,6.47.01.18.03.35.07.73.46,0,.93,0,1.39,0,5.7,0,11.4,0,17.1,0,2.62,0,3.33,1.23,2.06,3.57-1.15,2.13-2.31,4.26-3.46,6.39.09.09.18.19.26.28,1.06-.76,2.18-1.45,3.15-2.3,3.36-2.94,6.49-2.89,9.63.25,2.68,2.67,5.36,5.35,8.03,8.03,2.92,2.94,2.97,6.24.18,9.33-3.23,3.57-4.23,7.68-2.7,12.25,1.52,4.54,4.7,7.34,9.44,8.28.69.14,1.41.14,2.12.18,3.78.21,6.18,2.69,6.19,6.46.02,4.05.02,8.1,0,12.16-.02,3.74-2.48,6.28-6.23,6.42-5.28.2-9.08,2.67-11.15,7.52-2.07,4.85-1.17,9.31,2.35,13.24,2.78,3.1,2.71,6.38-.22,9.33-2.7,2.71-5.41,5.42-8.12,8.12-2.99,2.98-6.26,3.03-9.43.18-3.53-3.18-7.62-4.17-12.14-2.68-4.6,1.52-7.43,4.73-8.35,9.53-.15.78-.13,1.59-.19,2.39-.27,3.45-2.78,5.83-6.25,5.85-4.1.03-8.19.02-12.29,0-3.85-.01-6.36-2.43-6.48-6.29-.12-3.84-1.61-6.97-4.58-9.39-.1-.08-.21-.16-.33-.23-.07-.04-.16-.06-.35-.12ZM88.94,42.68c.09.2.1.25.13.27.31.24.63.49.95.72,4.25,3.09,7.81,6.88,9.88,11.7,1.19,2.77,2.59,4.1,5.64,3.56.57-.1,1.67.52,1.86,1.05.23.61-.08,1.63-.51,2.23-.79,1.12-1.9,2-2.74,3.09-.41.53-.75,1.32-.71,1.96,1.41,19.67-13.53,35.66-33.23,35.57-.6,0-1.36.38-1.78.83-4.02,4.23-7.98,8.51-11.95,12.79-.23.25-.42.53-.66.83,4.07,3.3,6.16,7.48,6.27,12.66.03,1.6.96,2.45,2.57,2.46,4.14.02,8.28.03,12.42,0,1.53,0,2.39-.85,2.54-2.36.08-.8.04-1.61.17-2.39,1.1-6.36,4.73-10.69,10.79-12.76,5.98-2.04,11.4-.74,16.09,3.5,1.51,1.36,2.61,1.36,4.05-.06,2.72-2.7,5.42-5.41,8.13-8.12,1.67-1.68,1.67-2.65.05-4.43-2.61-2.87-4.09-6.25-4.2-10.14-.26-9.13,6.47-16.28,15.65-16.7,1.93-.09,2.76-.91,2.76-2.83.01-3.96.01-7.93,0-11.89,0-1.92-.82-2.72-2.74-2.87-1.15-.09-2.32-.15-3.43-.42-11.8-2.86-16.22-17.41-8.05-26.39,1.68-1.84,1.66-2.76-.11-4.53-2.67-2.68-5.35-5.36-8.03-8.03-1.45-1.44-2.56-1.47-4.04-.09-2.3,2.15-4.97,3.55-8.07,4.16-.38.07-.84.36-1.02.69-2.92,5.3-5.79,10.62-8.68,15.92ZM79.56,11.35c.19-2.34-.63-3.44-2.55-3.46-4.1-.03-8.19-.02-12.29,0-1.66,0-2.51.87-2.63,2.55-.06.75-.04,1.52-.17,2.26-1.1,6.3-4.69,10.61-10.69,12.68-6.03,2.09-11.48.78-16.21-3.5-1.5-1.35-2.59-1.33-4.04.12-2.71,2.7-5.42,5.41-8.12,8.12-1.63,1.64-1.65,2.62-.08,4.33,4.61,5.03,5.63,12.01,2.49,18.1-2.84,5.52-7.43,8.46-13.65,8.8-2.05.11-2.98.85-2.99,2.61-.03,4.14-.03,8.28,0,12.42.01,1.58.89,2.42,2.49,2.55.75.06,1.52.04,2.26.17,6.31,1.07,10.61,4.65,12.71,10.65,2.11,6.03.82,11.47-3.45,16.22-1.4,1.55-1.37,2.62.14,4.14,2.7,2.71,5.41,5.42,8.12,8.12,1.56,1.55,2.61,1.57,4.24.06,2.71-2.51,5.9-3.95,9.57-4.24.84-.07,1.24-.41,1.61-1.1,2.46-4.54,4.96-9.05,7.43-13.57.18-.34.33-.69.5-1.06-7.29-4.51-12.25-10.73-14.73-18.89-.09-.28-.5-.61-.81-.66-2.36-.41-2.93-1.43-1.69-3.44.92-1.5,1.23-3,1.24-4.76.08-12.95,5.87-22.61,17.01-29.15.65-.38,1.27-.98,1.64-1.63,4.97-8.78,9.92-17.58,14.81-26.42.81-1.46,1.74-2.22,3.47-2.06,1.45.13,2.92.03,4.36.03ZM41.54,75.01h1.61c8.01,0,16.03,0,24.04,0,2.84,0,3.55,1.19,2.19,3.67-7.75,14.11-15.5,28.23-23.24,42.34-.25.45-.48.9-.72,1.35.09.06.18.12.26.18,18.53-19.9,37.06-39.81,55.81-59.95h-1.8c-7.21,0-14.43,0-21.64,0-2.86,0-3.57-1.17-2.21-3.66,7.64-14.07,15.29-28.14,22.93-42.21.27-.49.52-.99.86-1.64h-1.4c-7.3,0-14.6.02-21.91-.02-.93,0-1.41.29-1.86,1.1-10.73,19.18-21.49,38.34-32.24,57.5-.21.38-.39.77-.69,1.35ZM72.83,98.9c13.43.61,29.41-16.6,26.72-28.69-8.89,9.55-17.73,19.04-26.72,28.69ZM43.25,78.84c2.36,7.05,6.57,12.39,12.89,16.21,2.99-5.45,5.91-10.77,8.89-16.21h-21.78ZM87.03,46.18c-2.3,4.25-4.55,8.38-6.81,12.56h17.22c-2.31-5.26-5.71-9.35-10.41-12.56ZM42.59,65.38c3.13-5.58,6.25-11.15,9.38-16.73-5.29,4.38-8.4,9.98-9.38,16.73Z"/>
  <path d="M88.94,42.68c2.88-5.31,5.76-10.63,8.68-15.92.18-.32.64-.61,1.02-.69,3.1-.61,5.77-2.01,8.07-4.16,1.48-1.39,2.6-1.35,4.04.09,2.68,2.67,5.36,5.35,8.03,8.03,1.77,1.77,1.79,2.69.11,4.53-8.17,8.98-3.74,23.53,8.05,26.39,1.11.27,2.28.33,3.43.42,1.92.15,2.74.94,2.74,2.87.01,3.96.01,7.93,0,11.89,0,1.92-.83,2.74-2.76,2.83-9.18.42-15.91,7.57-15.65,16.7.11,3.89,1.59,7.26,4.2,10.14,1.63,1.79,1.63,2.76-.05,4.43-2.7,2.71-5.41,5.42-8.13,8.12-1.43,1.42-2.54,1.42-4.05.06-4.69-4.24-10.11-5.55-16.09-3.5-6.06,2.07-9.69,6.4-10.79,12.76-.14.78-.09,1.6-.17,2.39-.15,1.51-1.01,2.35-2.54,2.36-4.14.03-8.28.03-12.42,0-1.6,0-2.53-.85-2.57-2.46-.11-5.18-2.2-9.36-6.27-12.66.23-.3.43-.58.66-.83,3.97-4.27,7.93-8.55,11.95-12.79.43-.45,1.18-.84,1.78-.83,19.7.09,34.64-15.9,33.23-35.57-.05-.64.3-1.43.71-1.96.84-1.09,1.95-1.97,2.74-3.09.42-.6.73-1.62.51-2.23-.2-.53-1.29-1.15-1.86-1.05-3.06.54-4.45-.79-5.64-3.56-2.07-4.82-5.63-8.6-9.88-11.7-.32-.23-.64-.48-.95-.72-.03-.02-.04-.08-.13-.27Z" style="fill: #fff;"/>
  <path d="M79.56,11.35c-1.45,0-2.91.11-4.36-.03-1.73-.16-2.66.6-3.47,2.06-4.89,8.83-9.84,17.63-14.81,26.42-.37.65-.99,1.25-1.64,1.63-11.13,6.54-16.93,16.19-17.01,29.15-.01,1.76-.31,3.27-1.24,4.76-1.25,2.02-.67,3.03,1.69,3.44.31.05.72.38.81.66,2.48,8.16,7.44,14.37,14.73,18.89-.17.36-.31.72-.5,1.06-2.48,4.52-4.98,9.04-7.43,13.57-.37.69-.77,1.03-1.61,1.1-3.67.29-6.86,1.73-9.57,4.24-1.63,1.51-2.68,1.49-4.24-.06-2.71-2.7-5.42-5.41-8.12-8.12-1.52-1.52-1.54-2.59-.14-4.14,4.27-4.74,5.56-10.19,3.45-16.22-2.1-6-6.4-9.58-12.71-10.65-.74-.13-1.51-.11-2.26-.17-1.61-.12-2.48-.97-2.49-2.55-.03-4.14-.03-8.28,0-12.42.01-1.76.94-2.5,2.99-2.61,6.22-.33,10.81-3.27,13.65-8.8,3.13-6.09,2.12-13.07-2.49-18.1-1.56-1.7-1.55-2.69.08-4.33,2.7-2.71,5.41-5.42,8.12-8.12,1.45-1.45,2.55-1.47,4.04-.12,4.73,4.28,10.18,5.59,16.21,3.5,6-2.08,9.6-6.38,10.69-12.68.13-.74.12-1.51.17-2.26.12-1.69.97-2.54,2.63-2.55,4.1-.02,8.19-.03,12.29,0,1.93.01,2.75,1.12,2.55,3.46Z" style="fill: #fff;"/>
  <path d="M41.54,75.01c.3-.58.48-.97.69-1.35,10.75-19.16,21.51-38.32,32.24-57.5.45-.8.93-1.1,1.86-1.1,7.3.04,14.6.02,21.91.02h1.4c-.34.65-.6,1.15-.86,1.64-7.64,14.07-15.29,28.14-22.93,42.21-1.35,2.49-.65,3.66,2.21,3.66,7.21,0,14.43,0,21.64,0h1.8c-18.76,20.15-37.29,40.05-55.81,59.95-.09-.06-.18-.12-.26-.18.24-.45.47-.91.72-1.35,7.75-14.11,15.5-28.23,23.24-42.34,1.36-2.48.65-3.67-2.19-3.67-8.01,0-16.03,0-24.04,0h-1.61Z" style="fill: #fff;"/>
</svg>