<?xml version="1.0" encoding="UTF-8"?>
<svg id="uuid-98b6a74d-5816-4f97-a4ae-4537d0a0b020" data-name="圖層 1" xmlns="http://www.w3.org/2000/svg" viewBox="0 0 141.73 141.73">
  <path d="M49.87,117.25v-10.51c-.52-.02-1.01-.06-1.5-.06-9.29,0-18.59.02-27.88,0-5.93-.02-10.46-3.55-11.63-9.04-.2-.94-.23-1.94-.23-2.9-.01-20.76-.02-41.52,0-62.28,0-6.25,3.68-10.77,9.56-11.78.79-.14,1.61-.13,2.41-.13,11.29,0,22.58,0,33.87,0,.5,0,1,0,1.67,0,0-1.31,0-2.52,0-3.74.03-4.26,2.75-6.97,7.03-6.97.97,0,1.97-.03,2.91.18,2.94.67,4.94,3.21,5.02,6.25.04,1.38,0,2.77,0,4.22.34.03.54.05.74.05,1.78,0,3.56,0,5.45,0-.1-.36-.16-.63-.26-.88-.93-2.21-.88-2.44.78-4.1.93-.93,1.88-1.84,2.78-2.79.88-.93,1.95-1.25,2.96-.52,2.12,1.52,3.74-.16,5.53-.69.28-.08.44-.68.59-1.07,1.03-2.61,1.06-2.64,3.89-2.64,1.23,0,2.46.02,3.69,0,1.22-.03,2.17.47,2.37,1.66.41,2.54,2.69,2.61,4.38,3.42.35.17,1.03-.23,1.52-.44,2.12-.92,2.42-.87,4.02.72.87.87,1.74,1.74,2.61,2.61,1.39,1.4,1.45,1.75.67,3.58-.15.34-.27.69-.45,1.15,3.04,0,5.96,0,8.88,0,6.99.01,11.83,4.71,11.84,11.67.04,20.93.04,41.86,0,62.79-.01,6.93-4.86,11.66-11.86,11.69-9.25.03-18.5,0-27.76,0h-1.59v10.49c.45.03.89.09,1.34.09,3.35,0,6.71-.12,10.06.05,1.83.09,3.75.39,5.42,1.09,3.38,1.43,5.18,4.11,5.14,7.88-.02,1.69.01,3.39,0,5.08-.02,1.83-.74,2.56-2.54,2.56-26.95,0-53.9,0-80.85,0-1.8,0-2.52-.73-2.54-2.57-.02-1.57,0-3.14,0-4.7,0-5.1,3.27-8.86,8.39-9.22,3.93-.28,7.89-.13,11.83-.17.54,0,1.09,0,1.75,0ZM117.4,32.34c.12,1.83-.95,2.58-2.42,3.02-.47.14-1.19.33-1.3.66-.59,1.77-2.24,3.39-.74,5.5.78,1.1.38,2.15-.58,3.05-1.02.96-1.99,1.97-2.98,2.96-1.38,1.38-1.79,1.44-3.6.66-.57-.25-1.34-.77-1.73-.58-1.68.82-3.97.88-4.4,3.41-.22,1.26-1.22,1.73-2.48,1.71-1.49-.02-2.97-.05-4.46,0-1.43.05-2.33-.54-2.76-1.92-.2-.63-.41-1.59-.85-1.76-1.74-.66-3.39-2.25-5.49-.77-1.1.78-2.15.39-3.06-.57-.99-1.05-2.03-2.04-3.05-3.07-1.26-1.27-1.33-1.73-.63-3.38.26-.61.79-1.42.59-1.86-.76-1.7-.85-3.98-3.4-4.39-1.13-.18-1.7-1.04-1.68-2.22,0-.15-.08-.31-.14-.54-.4.05-.75.08-1.13.13v1.52c0,9.15.02,18.3-.03,27.46,0,.88-.28,1.84-.7,2.62-1.49,2.75-3.09,5.45-4.68,8.16-1.23,2.1-2.92,2.09-4.15-.03-1.56-2.67-3.15-5.32-4.61-8.04-.46-.85-.76-1.9-.76-2.87-.06-9.11-.03-18.22-.03-27.33v-1.51H20.53v54.54h100.68v-54.58h-3.81ZM117.36,28.22c1.37,0,2.59,0,3.82,0,2.99,0,4.19,1.19,4.19,4.13,0,18.6,0,37.2,0,55.8,0,2.34-.57,2.91-2.94,2.91-34.38,0-68.76,0-103.14,0-2.37,0-2.94-.57-2.94-2.91,0-18.56,0-37.11,0-55.67,0-3.12,1.15-4.26,4.31-4.26,11.29,0,22.58,0,33.87,0h1.52v-3.63h-1.44c-11.33,0-22.67,0-34,0-4.99,0-7.92,2.89-7.92,7.87,0,20.76,0,41.52,0,62.28,0,.84.05,1.71.26,2.51.92,3.44,3.74,5.35,7.83,5.35,33.36,0,66.72,0,100.08,0,.38,0,.76,0,1.15-.02,2.38-.16,4.31-1.15,5.71-3.11,1.06-1.49,1.3-3.17,1.3-4.94-.01-20.63,0-41.27-.01-61.9,0-.47,0-.93-.04-1.4-.27-3.67-3.27-6.56-6.95-6.63-2.42-.05-4.84-.01-7.26,0-.25,0-.5.05-.97.11,1.76.83,3.86.93,3.56,3.52ZM32.01,129.77h77.75c0-1.09,0-2.1,0-3.11,0-2.75-1.08-4.26-3.74-4.99-.97-.26-2.01-.34-3.02-.34-21.43-.02-42.86-.02-64.29,0-.76,0-1.53.03-2.28.15-2.34.36-4.22,1.92-4.39,3.81-.13,1.46-.03,2.94-.03,4.49ZM85.67,43.05c.54.23,1,.42,1.46.62,1.09.47,2.13,1.1,3.27,1.37,1.45.35,2.36,1.09,2.67,2.53.22,1.03.89,1.13,1.79,1.12.87-.01,1.57-.03,1.79-1.09.31-1.49,1.3-2.25,2.78-2.58.93-.21,1.88-.6,2.68-1.12,1.29-.83,2.53-.95,3.79-.1.94.64,1.41.03,2.02-.53.64-.6,1.08-1.12.48-2.02-.81-1.22-.71-2.41.09-3.67.56-.88.98-1.9,1.21-2.92.32-1.42,1.09-2.29,2.46-2.58,1.12-.24,1.14-.96,1.17-1.87.03-.94-.18-1.54-1.16-1.76-1.38-.31-2.14-1.15-2.47-2.57-.24-1.05-.7-2.1-1.27-3.03-.72-1.18-.84-2.3-.09-3.44.59-.9.3-1.45-.39-2.15-.73-.74-1.34-1.02-2.28-.42-1.11.71-2.19.58-3.34-.1-.94-.55-1.98-1.02-3.03-1.27-1.39-.34-2.32-1.05-2.6-2.44-.22-1.09-.9-1.17-1.84-1.19-.98-.02-1.61.17-1.84,1.22-.29,1.33-1.15,2.05-2.49,2.39-1.05.26-2.11.69-3.04,1.25-1.23.74-2.38.83-3.57.07-.86-.55-1.42-.22-2.06.44-.64.67-1.11,1.22-.5,2.15.77,1.19.65,2.35-.1,3.56-.53.85-.97,1.82-1.18,2.79-.33,1.5-1.1,2.46-2.59,2.76-1.09.22-1.03.97-1.05,1.81-.02.88.04,1.54,1.1,1.76,1.43.29,2.22,1.22,2.52,2.68.18.85.51,1.74.99,2.46.99,1.47,1.11,2.88.16,4.37-.63,1,.34,1.32.78,1.85.4.49.8.97,1.58.51.65-.37,1.39-.59,2.1-.87ZM54.05,117.16h33.57v-10.41h-33.57v10.41ZM67.03,60.16c0-.6,0-1.06,0-1.53,0-7.49,0-14.99,0-22.48,0-6.43.04-12.87-.04-19.3-.01-.83-.39-1.95-1-2.42-1.28-.99-2.92-.78-4.36-.26-1.31.48-1.42,1.74-1.42,2.99,0,13.88,0,27.77,0,41.65v1.35h6.82ZM75.87,24.65h-4.67v3.5h1.06q.28-1.83,3.61-3.5ZM63.63,67.59c.68-1.18,1.24-2.15,1.86-3.24h-3.73c.64,1.11,1.2,2.09,1.87,3.24Z"/>
  <path d="M48.52,81.99c-6.66,0-13.31,0-19.97,0-.38,0-.77.02-1.14-.02-1.28-.12-2.14-1-2.1-2.1.04-1.14.9-1.93,2.23-1.94,2.8-.03,5.6,0,8.39,0,10.9,0,21.79,0,32.69,0,.42,0,.85-.01,1.27.02,1.15.08,1.81.77,1.88,1.86.07,1.1-.52,1.86-1.63,2.09-.45.09-.93.09-1.39.09-6.74,0-13.48,0-20.22,0Z"/>
  <path d="M82.97,70.6c1.92,1.61,3.69,3.1,5.47,4.6.45.38.92.75,1.33,1.18.78.83.82,1.97.08,2.74-.77.81-1.78,1.01-2.63.32-2.99-2.43-5.94-4.9-8.84-7.44-.97-.85-.86-2.1.18-3,2.79-2.4,5.61-4.76,8.46-7.1.94-.77,2.14-.64,2.85.18.76.88.69,2.08-.29,2.93-2.14,1.86-4.32,3.66-6.61,5.6Z"/>
  <path d="M38.31,53.31c3.48,0,6.96,0,10.44,0,1.62,0,2.52.75,2.5,2.04-.02,1.27-.94,2.02-2.56,2.02-7,0-14.01,0-21.01,0-1.6,0-2.51-.78-2.49-2.07.01-1.29.9-1.99,2.55-1.99,3.52,0,7.05,0,10.57,0Z"/>
  <path d="M38.25,40.93c-3.47,0-6.95,0-10.42,0-1.61,0-2.54-.77-2.53-2.02,0-1.23.97-2.04,2.55-2.04,7.03-.01,14.06-.02,21.09,0,1.83,0,2.87,1.27,2.32,2.73-.38,1.03-1.19,1.33-2.22,1.33-3.6-.01-7.2,0-10.8,0Z"/>
  <path d="M38.25,65.55c-3.52,0-7.05,0-10.57,0-1.62,0-2.51-.75-2.49-2.05.02-1.28.92-2.01,2.55-2.01,7,0,14.01,0,21.01,0,1.77,0,2.86,1.16,2.43,2.57-.33,1.08-1.13,1.5-2.24,1.5-3.57-.02-7.13,0-10.7,0Z"/>
  <path d="M38.31,45.11c3.61,0,7.21-.02,10.82,0,1.36.01,2.16.79,2.18,1.97.02,1.18-.77,1.96-2.1,2.07-.34.03-.68.01-1.02.01-5.43,0-10.86,0-16.29,0-1.53,0-3.06.04-4.58-.03-1.31-.06-2.1-.94-2.05-2.11.05-1.12.83-1.84,2.11-1.92.34-.02.68-.01,1.02-.01,3.31,0,6.62,0,9.93,0h0Z"/>
  <path d="M109.22,70.57c-1.97-1.67-3.87-3.27-5.77-4.87-.26-.22-.53-.42-.78-.65-.93-.87-1.06-2.08-.33-2.94.74-.87,1.95-.98,2.95-.15,2.23,1.83,4.42,3.7,6.63,5.55.58.49,1.19.96,1.74,1.49,1.07,1.01,1.12,2.25.01,3.2-2.79,2.41-5.62,4.78-8.47,7.12-.95.78-2.11.64-2.85-.2-.75-.85-.66-2.1.3-2.93,1.82-1.58,3.69-3.12,5.54-4.68.32-.27.62-.55,1.03-.92Z"/>
  <path d="M38.24,73.75c-3.48,0-6.96,0-10.44,0-1.67,0-2.54-.71-2.54-2,0-1.29.89-2.05,2.51-2.05,7.04-.01,14.09,0,21.13,0,1.11,0,2.04.34,2.34,1.53.24.96-.05,1.81-.97,2.25-.47.22-1.06.27-1.6.28-3.48.02-6.96.01-10.44.01Z"/>
  <path d="M100.73,61.25c-.49,1.81-1.03,3.81-1.56,5.81-1.19,4.45-2.38,8.9-3.58,13.35-.42,1.56-1.35,2.22-2.62,1.9-1.21-.3-1.7-1.41-1.28-2.97,1.64-6.17,3.29-12.33,4.94-18.5.07-.24.13-.49.23-.72.45-1.04,1.26-1.47,2.35-1.23,1.13.25,1.56,1.06,1.53,2.37Z"/>
  <path d="M106.54,30.37c-.04,6.43-5.27,11.57-11.74,11.55-6.42-.02-11.66-5.29-11.63-11.68.03-6.4,5.31-11.65,11.7-11.64,6.47,0,11.71,5.29,11.67,11.77ZM102.46,30.31c.01-4.21-3.34-7.61-7.55-7.65-4.15-.04-7.64,3.39-7.67,7.57-.03,4.17,3.38,7.61,7.58,7.62,4.23.01,7.63-3.33,7.64-7.53Z"/>
</svg>