<?xml version="1.0" encoding="UTF-8"?>
<svg id="uuid-c043fd8a-505b-48a0-be9e-74b0a449d8d7" data-name="圖層 1" xmlns="http://www.w3.org/2000/svg" viewBox="0 0 141.73 141.73">
  <rect x="21.53" y="53.26" width="99.48" height="60.77" rx="6.72" ry="6.72" style="fill: #fff;"/>
  <path d="M22.7,107.04h96.4c0-.51,0-1,0-1.48,0-14.51-.1-29.02.06-43.52.05-4.69-3.02-8-7.67-7.59-.38.03-.77,0-1.35,0,0,.51,0,.96,0,1.41,0,2.86,0,5.72,0,8.58,0,1.45-.46,1.9-1.92,1.93-1.07.02-2.14.01-3.21,0-1.03,0-1.82-.43-1.78-1.55.04-1.03.76-1.44,1.77-1.42.68.02,1.35,0,2.11,0v-8.95c-.54,0-1.08,0-1.61,0-2.78,0-10.34-.01-13.12,0-1.02,0-1.79-.3-1.92-1.42-.1-.94.64-1.57,1.89-1.58,2.82-.03,10.43,0,13.25,0,.47,0,.93,0,1.59,0,0-.85,0-1.6,0-2.35,0-2.52-.01-5.03,0-7.55.01-1.54.45-1.95,2.01-1.96,1.67-.01,3.33-.03,5,.01.74.02,1.09-.17,1.36-.94,1.29-3.68,4.94-5.69,8.66-4.87,3.52.78,6.1,4.2,5.82,7.71-.3,3.84-3.22,6.73-7.08,7-3.14.23-6.24-1.79-7.35-4.92-.3-.86-.71-1.1-1.56-1.06-1.27.06-2.54.02-3.87.02v8.91c.64,0,1.26,0,1.88,0,6.05.07,10.03,4.05,10.03,10.08.01,16.81.01,33.62,0,50.43,0,6.02-4.04,10.03-10.06,10.04-6.75,0-13.51,0-20.26,0-.46,0-.92,0-1.44,0v8.94c1.8,0,3.54,0,5.28,0,.47,0,1.04-.13,1.38.08.48.3,1.13.88,1.11,1.3-.03.52-.61,1.09-1.09,1.46-.28.21-.83.09-1.25.09-16.63,0-33.25,0-49.88,0-1.65,0-2.38-.46-2.39-1.47,0-1.01.73-1.47,2.38-1.48,1.79,0,3.57,0,5.46,0v-8.94c-.47,0-.97,0-1.46,0-6.67,0-13.34,0-20,0-6.29,0-10.27-3.95-10.27-10.22,0-16.68,0-33.37,0-50.05,0-6.34,3.95-10.26,10.34-10.29.5,0,1,0,1.57,0v-8.9c-1.55,0-3.11-.05-4.67.05-.26.02-.56.64-.72,1.04-1.14,2.94-3.95,4.9-7.03,4.88-3.05-.02-5.85-1.96-6.94-4.81-1.46-3.81.45-8.09,4.27-9.58,3.82-1.49,8.15.35,9.58,4.22.4,1.09.93,1.3,1.94,1.25,1.49-.07,2.99-.02,4.49-.02,1.7.01,2.09.4,2.1,2.13.01,2.73,0,5.46,0,8.19,0,.46,0,.92,0,1.54,1.57,0,3.01,0,4.45,0,1.84,0,8.46,0,10.3,0,1.04,0,1.9.29,1.98,1.51.06.94-.68,1.49-1.96,1.49-2.86.01-10.51,0-13.38,0-.42,0-.83,0-1.32,0v8.95c.75,0,1.46,0,2.17,0,1.01-.02,1.71.44,1.72,1.46.01,1.04-.72,1.49-1.7,1.5-1.15.02-2.31.04-3.46,0-1.28-.04-1.73-.52-1.74-1.85-.02-3.28,0-6.56,0-9.83-4.63-1.35-8.94,1.72-8.95,6.37-.02,14.98,0,29.95,0,44.93,0,.33.05.66.08,1.05ZM119.19,110.14H22.72c0,1.28-.17,2.5.03,3.65.58,3.25,3.24,5.21,6.9,5.21,26.75,0,53.5,0,80.24,0,.98,0,1.97.02,2.95-.01,2.86-.09,5.31-1.95,5.97-4.73.31-1.3.26-2.68.37-4.11ZM87.2,130.88v-8.79h-32.67v8.79h32.67ZM127.05,41.1c.02-2.46-1.95-4.5-4.4-4.54-2.42-.04-4.5,1.98-4.55,4.42-.04,2.43,1.97,4.48,4.43,4.51,2.47.03,4.49-1.93,4.52-4.39ZM19.07,45.5c2.47.02,4.5-1.95,4.54-4.4.04-2.41-1.99-4.49-4.43-4.53-2.44-.04-4.49,1.97-4.51,4.42-.02,2.48,1.94,4.49,4.4,4.51Z"/>
  <path d="M50.33,52.71c-.98-1.27-1.92-2.49-2.87-3.69-.64-.81-.61-1.53.13-2.26,1.7-1.68,3.39-3.37,5.08-5.07.76-.77,1.54-.81,2.39-.15,1.08.84,2.12,1.74,3.26,2.48.39.25,1.09.29,1.55.13,1.41-.48,2.74-1.19,4.16-1.63.76-.24,1.02-.62,1.1-1.32.15-1.36.34-2.71.49-4.06.12-1.09.74-1.57,1.8-1.57,2.31,0,4.62,0,6.92,0,1.2,0,1.79.6,1.9,1.77.13,1.36.28,2.72.53,4.06.07.38.48.84.85,1.01,1.43.65,2.94,1.15,4.36,1.82.66.31,1.07.23,1.59-.21,1.01-.85,2.09-1.62,3.13-2.44.89-.7,1.7-.67,2.5.14,1.63,1.64,3.26,3.27,4.9,4.89.81.8.83,1.61.13,2.49-.95,1.2-1.88,2.42-2.71,3.48.86,2.02,1.63,3.91,2.48,5.76.15.33.61.66.98.73,1.17.23,2.36.37,3.55.49,1.13.11,1.71.69,1.71,1.82,0,2.35,0,4.69,0,7.04,0,.99-.47,1.61-1.5,1.73-1.02.12-2.03.33-3.05.39-.74.05-1.07.28-1.31,1.05-.57,1.82-1.38,3.57-2,5.37-.15.42-.1,1.06.13,1.44.5.84,1.17,1.57,1.78,2.34.63.8.61,1.56-.11,2.28-1.69,1.69-3.38,3.38-5.08,5.07-.72.72-1.59.88-2.26.13-1.84-2.05-3.68-2.12-5.9-.54-1,.71-2.39.87-3.56,1.39-.37.16-.74.63-.85,1.03-.21.78-.23,1.6-.32,2.4-.13,1.1-.7,1.67-1.86,1.66-2.31-.03-4.62-.03-6.92,0-1.17.02-1.89-.58-1.84-1.65.12-2.54-1.02-3.79-3.48-4.28-1.21-.24-2.36-.98-3.45-1.64-.72-.43-1.2-.39-1.79.15-.6.54-1.27,1.01-1.91,1.5-.8.62-1.57.58-2.29-.14-1.69-1.69-3.39-3.38-5.08-5.07-.72-.72-.76-1.47-.13-2.28.76-.98,1.97-1.91,2.1-2.98.13-1.05-.85-2.23-1.32-3.36-.24-.59-.58-1.2-.61-1.81-.08-1.8-1.19-2.17-2.68-2.25-4.07-.23-3.38-.85-3.42-3.83-.02-1.71,0-3.41,0-5.12,0-1.13.52-1.73,1.66-1.85,1.36-.14,2.98.05,3.99-.64.91-.63,1.13-2.25,1.69-3.42.44-.92.95-1.81,1.47-2.81ZM97.22,62.45c-1.36-.19-2.62-.43-3.88-.52-1.11-.08-1.59-.64-1.99-1.64-.86-2.17-1.81-4.3-2.88-6.37-.5-.98-.56-1.71.14-2.55.89-1.08,1.72-2.2,2.39-3.08-1.21-1.27-2.31-2.43-3.44-3.62-1.08.84-2.22,1.67-3.3,2.57-.88.73-1.66.69-2.69.21-1.96-.92-3.98-1.72-6.03-2.41-1.04-.35-1.56-.86-1.66-1.95-.13-1.47-.38-2.94-.58-4.42h-4.94c-.2,1.55-.43,3.02-.57,4.5-.1,1.03-.61,1.52-1.6,1.86-2.09.72-4.14,1.54-6.15,2.46-.98.45-1.74.48-2.58-.21-1.11-.92-2.27-1.78-3.39-2.64-1.19,1.21-2.31,2.34-3.49,3.55.81,1.04,1.65,2.17,2.53,3.26.62.76.61,1.44.16,2.34-1.08,2.16-2.06,4.37-2.99,6.6-.36.87-.81,1.44-1.8,1.54-1.31.13-2.61.34-3.94.52v4.92c1.22.15,2.35.31,3.49.44,1.06.12,1.56.65,1.91,1.72.79,2.46,1.74,4.87,2.75,7.25.38.89.45,1.59-.17,2.35-.69.85-1.35,1.73-1.88,2.42,1.23,1.26,2.35,2.4,3.49,3.58.64-.49,1.39-1,2.05-1.6.95-.86,1.79-.75,2.88-.14,1.85,1.03,3.75,2.23,5.77,2.65,2.52.52,3.49,1.77,3.4,4.14-.03.86.38,1.13,1.17,1.04.3-.03.6,0,.9,0,2.97,0,2.99,0,3.36-2.91.13-1.04.65-1.6,1.67-1.8,2.67-.53,5.14-1.58,7.37-3.13,1.02-.71,1.86-.64,2.76.14.7.61,1.46,1.15,2.06,1.61,1.23-1.2,2.37-2.33,3.56-3.5-.62-.81-1.29-1.69-1.98-2.56-.54-.68-.65-1.36-.18-2.12,1.46-2.35,2.39-4.89,2.89-7.6.17-.95.75-1.39,1.65-1.5.98-.11,1.96-.17,2.92-.36.31-.06.77-.46.78-.72.08-1.4.04-2.8.04-4.28Z"/>
  <path d="M100.82,23.68c1.16-1.6,1.94-3.12,3.12-4.21,2.37-2.19,5.96-2.32,8.69-.62,2.72,1.7,4.06,5.01,3.27,8.11-.81,3.17-3.48,5.36-6.84,5.63-3.04.24-6.16-1.68-7.25-4.66-.4-1.1-.92-1.41-2.01-1.33-1.45.1-2.91.07-4.36,0-.89-.04-1.18.26-1.17,1.16.04,3.41.02,6.83.02,10.24,0,.38,0,.77-.03,1.15-.07.86-.61,1.35-1.42,1.36-.87,0-1.46-.5-1.48-1.43-.03-1.88-.02-3.75-.02-5.63,0-2.6,0-5.21,0-7.81,0-1.53.44-1.96,2-1.96,2.65-.01,5.29,0,7.48,0ZM108.64,29.62c2.45,0,4.49-2,4.51-4.44.01-2.42-2.03-4.48-4.46-4.5-2.45-.01-4.48,2-4.49,4.45,0,2.46,1.99,4.48,4.44,4.48Z"/>
  <path d="M40.43,23.68c2.62,0,5.22,0,7.83,0,1.71,0,2.12.41,2.12,2.11,0,4.35,0,8.7,0,13.06,0,1.02-.49,1.68-1.51,1.67-.95-.02-1.43-.66-1.43-1.62,0-.34,0-.68,0-1.02,0-3.29-.05-6.57.03-9.86.03-1.17-.35-1.47-1.46-1.4-1.45.09-2.91.07-4.36,0-.87-.04-1.32.18-1.64,1.1-1.17,3.35-4.54,5.31-8,4.79-3.59-.54-6.18-3.35-6.39-6.94-.2-3.52,2.04-6.63,5.45-7.59,3.64-1.01,7.49.9,8.9,4.44.16.39.29.8.45,1.26ZM37.52,25.22c.03-2.46-1.96-4.5-4.41-4.53-2.43-.04-4.5,1.98-4.54,4.41-.04,2.43,1.98,4.49,4.42,4.52,2.46.03,4.5-1.95,4.53-4.4Z"/>
  <path d="M72.37,22.59c0,2.68,0,5.27,0,7.87,0,1.37-.54,2.12-1.49,2.13-.96.01-1.52-.74-1.52-2.1,0-2.64,0-5.28,0-7.88-4.53-1.83-6.6-4.98-5.82-8.77.75-3.65,3.79-6.1,7.5-6.04,3.6.06,6.6,2.66,7.2,6.25.63,3.75-1.5,6.89-5.86,8.53ZM75.31,15.19c-.02-2.47-2.08-4.49-4.52-4.44-2.47.05-4.43,2.1-4.38,4.58.05,2.45,1.99,4.34,4.45,4.34,2.51,0,4.47-1.97,4.45-4.48Z"/>
  <path d="M119.19,110.14c-.12,1.43-.06,2.82-.37,4.11-.66,2.78-3.11,4.64-5.97,4.73-.98.03-1.97.01-2.95.01-26.75,0-53.5,0-80.24,0-3.66,0-6.32-1.95-6.9-5.21-.21-1.15-.03-2.37-.03-3.65h96.47Z" style="fill: #fff;"/>
  <path d="M87.2,130.88h-32.67v-8.79h32.67v8.79Z" style="fill: #fff;"/>
  <path d="M127.05,41.1c-.02,2.46-2.04,4.42-4.52,4.39-2.45-.03-4.47-2.09-4.43-4.51.04-2.44,2.12-4.45,4.55-4.42,2.45.04,4.42,2.07,4.4,4.54Z" style="fill: #fff;"/>
  <path d="M19.07,45.5c-2.46-.02-4.42-2.03-4.4-4.51.02-2.45,2.08-4.46,4.51-4.42,2.44.04,4.47,2.12,4.43,4.53-.04,2.45-2.07,4.42-4.54,4.4Z" style="fill: #fff;"/>
  <path d="M97.22,62.45c0,1.48.04,2.88-.04,4.28-.01.26-.47.66-.78.72-.96.19-1.95.24-2.92.36-.9.11-1.48.55-1.65,1.5-.49,2.71-1.43,5.26-2.89,7.6-.47.76-.36,1.44.18,2.12.69.87,1.35,1.75,1.98,2.56-1.19,1.17-2.34,2.29-3.56,3.5-.59-.46-1.35-1-2.06-1.61-.91-.78-1.75-.84-2.76-.14-2.23,1.55-4.7,2.6-7.37,3.13-1.02.2-1.54.76-1.67,1.8-.37,2.91-.39,2.91-3.36,2.91-.3,0-.6-.03-.9,0-.79.09-1.2-.18-1.17-1.04.09-2.37-.88-3.62-3.4-4.14-2.02-.42-3.92-1.62-5.77-2.65-1.09-.61-1.93-.71-2.88.14-.66.6-1.41,1.1-2.05,1.6-1.15-1.18-2.27-2.32-3.49-3.58.53-.69,1.18-1.57,1.88-2.42.62-.76.55-1.46.17-2.35-1.01-2.38-1.96-4.79-2.75-7.25-.34-1.06-.84-1.6-1.91-1.72-1.14-.12-2.28-.28-3.49-.44v-4.92c1.33-.18,2.63-.39,3.94-.52,1-.1,1.44-.67,1.8-1.54.93-2.23,1.91-4.44,2.99-6.6.45-.89.46-1.57-.16-2.34-.88-1.09-1.73-2.21-2.53-3.26,1.18-1.2,2.31-2.34,3.49-3.55,1.11.86,2.27,1.72,3.39,2.64.84.69,1.6.66,2.58.21,2.01-.92,4.06-1.74,6.15-2.46.99-.34,1.5-.83,1.6-1.86.15-1.48.37-2.95.57-4.5h4.94c.2,1.49.45,2.95.58,4.42.1,1.09.61,1.6,1.66,1.95,2.05.69,4.07,1.5,6.03,2.41,1.03.48,1.81.52,2.69-.21,1.08-.9,2.22-1.73,3.3-2.57,1.13,1.19,2.23,2.35,3.44,3.62-.68.88-1.51,2-2.39,3.08-.7.85-.64,1.57-.14,2.55,1.07,2.07,2.02,4.21,2.88,6.37.39,1,.87,1.56,1.99,1.64,1.27.09,2.52.33,3.88.52ZM70.88,52.42c-7.3-.01-13.31,5.95-13.34,13.23-.03,7.27,5.94,13.3,13.23,13.35,7.33.06,13.41-5.98,13.41-13.3,0-7.29-5.99-13.27-13.29-13.28Z" style="fill: #fff;"/>
  <path d="M108.64,29.62c-2.46,0-4.45-2.02-4.44-4.48,0-2.45,2.04-4.47,4.49-4.45,2.43.01,4.48,2.07,4.46,4.5-.01,2.44-2.06,4.45-4.51,4.44Z" style="fill: #fff;"/>
  <path d="M37.52,25.22c-.03,2.45-2.07,4.43-4.53,4.4-2.45-.03-4.46-2.09-4.42-4.52.04-2.44,2.11-4.45,4.54-4.41,2.45.04,4.43,2.08,4.41,4.53Z" style="fill: #fff;"/>
  <path d="M75.31,15.19c.02,2.5-1.94,4.48-4.45,4.48-2.46,0-4.41-1.89-4.45-4.34-.05-2.48,1.91-4.53,4.38-4.58,2.44-.05,4.5,1.97,4.52,4.44Z" style="fill: #fff;"/>
  <path d="M70.88,52.42c7.3.01,13.29,6,13.29,13.28,0,7.33-6.07,13.36-13.41,13.3-7.29-.06-13.26-6.08-13.23-13.35.03-7.28,6.05-13.25,13.34-13.23ZM70.92,55.44c-5.7-.03-10.31,4.49-10.36,10.15-.05,5.75,4.5,10.38,10.24,10.4,5.7.02,10.31-4.49,10.36-10.16.05-5.75-4.5-10.38-10.24-10.4Z"/>
  <path d="M70.92,55.44c5.74.03,10.29,4.65,10.24,10.4-.05,5.66-4.65,10.18-10.36,10.16-5.73-.02-10.29-4.65-10.24-10.4.05-5.66,4.66-10.18,10.36-10.15Z" style="fill: #fff;"/>
</svg>