<?xml version="1.0" encoding="UTF-8"?>
<svg id="uuid-635f65ef-3e8b-44b6-b21b-6dd173d99228" data-name="圖層 1" xmlns="http://www.w3.org/2000/svg" viewBox="0 0 141.73 141.73">
  <path d="M121.13,32.99l-20.97-21.6c-.82-2.09-2.86-3.58-5.23-3.58H25.62c-4.6,0-8.35,3.92-8.35,8.73v108.66c0,4.81,3.74,8.73,8.35,8.73h90.5c4.6,0,8.35-3.92,8.35-8.73V38.12c0-2.28-1.37-4.25-3.33-5.13ZM100.56,17.53l14.53,14.97h-10.19c-2.4,0-4.34-2.12-4.34-4.72v-10.24ZM120.46,125.19c0,2.6-1.95,4.72-4.34,4.72H25.62c-2.4,0-4.34-2.12-4.34-4.72V16.54c0-2.6,1.95-4.72,4.34-4.72h69.32c.89,0,1.61.72,1.61,1.61v14.35c0,4.81,3.74,8.73,8.34,8.73h13.95s.09,0,.13,0c.03,0,.07,0,.1.01.78.11,1.39.78,1.39,1.59v87.08Z" style="fill: #040000;"/>
  <path d="M119.07,36.52l-.05.04-.05-.05s.07,0,.1.01Z" style="fill: #040000;"/>
  <g>
    <path d="M99.18,120.58h-57.06c-6.18,0-11.21-5.03-11.21-11.21v-39.63c0-6.18,5.03-11.21,11.21-11.21h57.06c6.18,0,11.21,5.03,11.21,11.21v39.63c0,6.18-5.03,11.21-11.21,11.21ZM42.12,62.53c-3.98,0-7.21,3.23-7.21,7.21v39.63c0,3.98,3.23,7.21,7.21,7.21h57.06c3.98,0,7.21-3.23,7.21-7.21v-39.63c0-3.98-3.23-7.21-7.21-7.21h-57.06Z" style="fill: #040000;"/>
    <g>
      <path d="M51.53,107.02c-2.8,0-3.77-1.35-2.92-4.05l9.14-28.46c.25-.72.67-1.3,1.25-1.72.58-.42,1.25-.64,2-.64h3.2c.75,0,1.42.22,2,.66.58.44,1,1.02,1.25,1.74l9.33,29.03c.35,1.07.29,1.91-.16,2.52-.46.61-1.23.92-2.33.92h-1.08c-.79,0-1.48-.23-2.07-.68-.6-.46-1.01-1.06-1.22-1.81l-1.74-6.46h-11.31l-1.7,6.13c-.5,1.88-1.71,2.83-3.63,2.83ZM58.36,92.65h8.29l-1.04-3.82c-.44-1.48-1.07-3.77-1.88-6.88-.5-2.01-.9-3.52-1.18-4.52h-.19c-.88,3.77-1.87,7.57-2.97,11.4l-1.04,3.82Z" style="fill: #040000;"/>
      <path d="M85.5,107.02c-2.33,0-3.49-1.16-3.49-3.49v-27.9c0-2.32,1.16-3.49,3.49-3.49s3.49,1.16,3.49,3.49v27.9c0,2.33-1.16,3.49-3.49,3.49Z" style="fill: #040000;"/>
    </g>
  </g>
  <path d="M65.74,32.5h-30.69c-1.47,0-2.67-1.2-2.67-2.67s1.2-2.67,2.67-2.67h30.69c1.47,0,2.67,1.2,2.67,2.67s-1.2,2.67-2.67,2.67Z" style="fill: #040000;"/>
  <path d="M95.77,49.85h-60.72c-1.47,0-2.67-1.2-2.67-2.67s1.2-2.67,2.67-2.67h60.72c1.47,0,2.67,1.2,2.67,2.67s-1.2,2.67-2.67,2.67Z" style="fill: #040000;"/>
</svg>