<?xml version="1.0" encoding="UTF-8"?>
<svg id="uuid-41a49415-85f3-4224-8363-b4669a60ed02" data-name="圖層 1" xmlns="http://www.w3.org/2000/svg" viewBox="0 0 141.73 141.73">
  <path d="M109.94,135.46l-4.09-.02c-.31-.05-.62-.1-.93-.15-.71-.11-1.44-.22-2.17-.39-11.08-2.57-18.18-9.33-21.12-20.08-1.52-5.57-.53-11.09.35-14.76.04-.15.04-.22.04-.25,0,0-.04-.06-.13-.14-13.12-13.09-26.5-26.48-39.77-39.8-.1-.1-.15-.13-.17-.14,0,0-.07,0-.21.04-4.76,1.15-8.71,1.4-12.44.78-10.12-1.68-17.22-7.47-21.12-17.23-.73-1.84-1.07-3.78-1.4-5.66-.15-.85-.29-1.65-.46-2.45l-.04-.16.02-2.63.23-1.44c.18-1.1.35-2.19.54-3.29.41-2.48,1.68-4.06,3.75-4.7,3.05-.95,5.07,1.09,5.73,1.75,3.05,3.08,6.04,6.1,9.13,9.13,1.42,1.39,3.18,2.1,4.94,1.97,1.64-.12,3.13-.95,4.2-2.35,1.62-2.11,1.56-5.14-.14-7.03-1.64-1.83-3.44-3.61-5.18-5.33-.76-.75-1.52-1.51-2.27-2.27-.32-.32-.64-.64-.96-.95-.65-.63-1.32-1.29-1.95-1.99-1.35-1.5-1.82-3.37-1.3-5.13.52-1.74,1.99-3.09,3.93-3.61,13.67-3.66,27.97,3.97,32.55,17.37,1.88,5.51,2.03,11.23.42,17q-.11.38.17.65c14.56,14.52,27.4,27.38,39.26,39.31.44.44.61.49,1.23.34,5.4-1.32,10.07-1.4,14.29-.25,10.79,2.94,17.54,10.06,20.06,21.15.81,3.58.72,7.43-.28,11.79-.64,2.76-2.39,3.81-3.76,4.2-1.35.39-3.36.44-5.32-1.51-1.11-1.11-2.22-2.22-3.33-3.34-2.02-2.02-4.04-4.05-6.07-6.06-2.46-2.43-5.79-2.67-8.28-.58-1.18.99-1.92,2.45-2.04,4.01-.11,1.45.33,2.82,1.23,3.86,1.63,1.87,3.45,3.66,5.2,5.4.77.76,1.54,1.52,2.3,2.29.34.34.68.68,1.03,1.02.62.61,1.27,1.24,1.88,1.91,1.35,1.48,1.84,3.42,1.31,5.18-.53,1.75-2,3.09-3.93,3.57-1.11.28-2.24.47-3.33.66-.48.08-.96.17-1.44.26l-.14.03ZM106.23,132.4h3.43c.45-.08.89-.16,1.34-.24,1.08-.19,2.1-.36,3.11-.62.89-.22,1.52-.76,1.74-1.49.22-.73-.01-1.55-.64-2.24-.55-.61-1.14-1.18-1.76-1.79-.36-.35-.71-.7-1.07-1.06-.75-.76-1.51-1.51-2.27-2.27-1.79-1.78-3.65-3.61-5.35-5.56-1.45-1.66-2.16-3.83-1.98-6.11.18-2.37,1.32-4.6,3.13-6.12,3.7-3.11,8.8-2.8,12.39.75,2.04,2.01,4.07,4.04,6.09,6.07,1.11,1.11,2.22,2.22,3.33,3.33.96.96,1.74.9,2.31.73.62-.18,1.3-.55,1.62-1.95.9-3.89.99-7.3.28-10.42-2.25-9.9-8.27-16.25-17.88-18.88-3.75-1.02-7.81-.94-12.76.27-1.66.4-2.93.05-4.12-1.16-11.85-11.93-24.69-24.78-39.25-39.3-1.07-1.06-1.36-2.19-.96-3.64,1.46-5.23,1.33-10.2-.37-15.19-4.06-11.88-16.74-18.65-28.86-15.4-.92.25-1.57.8-1.78,1.53-.21.71.02,1.52.64,2.21.56.63,1.17,1.22,1.81,1.84.34.33.67.66,1,.99.74.75,1.5,1.5,2.25,2.24,1.77,1.75,3.6,3.56,5.3,5.46,2.67,2.97,2.79,7.68.29,10.94-1.61,2.1-3.89,3.36-6.41,3.54-2.64.19-5.24-.82-7.29-2.84-3.1-3.04-6.11-6.07-9.16-9.16-1.13-1.15-1.88-1.22-2.64-.98-.69.21-1.36.64-1.63,2.29-.18,1.09-.36,2.18-.53,3.27l-.21,1.32v1.93c.17.81.31,1.62.45,2.41.31,1.8.61,3.51,1.23,5.05,3.47,8.69,9.79,13.85,18.77,15.34,3.31.55,6.87.32,11.22-.74,1.3-.31,2.34-.02,3.27.92,13.27,13.32,26.65,26.71,39.77,39.8.93.93,1.22,1.97.91,3.27-1.29,5.38-1.4,9.46-.37,13.24,2.62,9.58,8.97,15.61,18.86,17.91.62.14,1.26.24,1.94.35.28.04.57.09.85.13Z" style="fill: #040000;"/>
  <path d="M25.17,132.84h-3.46l-.23-.07c-.08-.03-.17-.06-.25-.09-.06-.02-.11-.04-.17-.06-4.01-.67-7.29-2.75-9.75-6.18-1.46-2.03-2.11-4.35-2.6-6.55l-.04-.16v-3.44l.04-.16c.53-2.38,1.25-4.87,2.94-7,.44-.55.96-1.19,1.56-1.79,9.4-9.41,18.8-18.81,28.21-28.22l2.82-2.82c.12-.12.25-.24.32-.31l1.08-.97,1.07.99,20.33,20.33-1.62,1.02c-.08.05-.19.11-.31.17-.11.06-.3.16-.36.22l-6,5.99c-7.34,7.32-14.94,14.89-22.34,22.39-2.97,3.01-6.28,6-11.13,6.7l-.11.02ZM22.22,129.78h2.73c3.86-.59,6.59-3.08,9.28-5.8,7.41-7.51,15.01-15.08,22.36-22.41l5.69-5.67-16.65-16.65-2.03,2.03c-9.4,9.4-18.81,18.81-28.21,28.21-.44.44-.85.94-1.34,1.54-1.21,1.51-1.8,3.33-2.31,5.58v2.77c.47,2.1,1.02,3.81,2.06,5.27,2,2.78,4.55,4.4,7.79,4.95.25.04.46.12.63.18ZM26.28,122.69s-.08,0-.12,0c-2.52-.07-4.15-.94-5.13-2.76-.97-1.79-.86-3.73.3-5.45.32-.48.71-.86,1.05-1.2l8-7.97c4.57-4.55,9.14-9.11,13.71-13.66,1.07-1.07,2.78-2.43,5.25-1.92,1.82.38,3.28,1.6,3.91,3.29.63,1.68.35,3.55-.76,5.03-.29.39-.61.71-.89.99l-8.84,8.8c-4.31,4.29-8.61,8.58-12.92,12.87-1.36,1.35-2.5,1.99-3.56,1.99ZM25.69,119.63h0,0ZM47.67,92.67c-.56,0-1.16.26-2.03,1.13-4.57,4.56-9.14,9.11-13.71,13.66l-8,7.97c-.26.26-.51.51-.67.74-.53.78-.57,1.49-.14,2.29.3.56.74,1.11,2.52,1.15.09-.03.53-.2,1.43-1.1,4.31-4.29,8.61-8.58,12.92-12.87l8.84-8.8c.21-.21.44-.44.61-.67.48-.64.61-1.41.34-2.11-.27-.71-.88-1.21-1.67-1.37-.15-.03-.29-.05-.44-.05Z" style="fill: #040000;"/>
  <path d="M91.17,61.66l-11.48-11.47,22.08-22.35s-.02-.02-.03-.03c-1.28-1.3-1.88-2.85-1.7-4.34.18-1.49,1.13-2.82,2.67-3.76,1.73-1.06,3.46-2.09,5.2-3.13l4.8-2.88c2.24-1.34,4.47-2.69,6.72-4.03,2.68-1.6,4.78-1.34,7,.88,1.63,1.62,3.25,3.24,4.87,4.87,2.07,2.09,2.33,4.23.84,6.74-3.47,5.82-6.87,11.47-10.08,16.8-.95,1.57-2.29,2.54-3.78,2.73-1.5.19-3.06-.43-4.39-1.74-.21-.21-.42-.42-.63-.64l-22.07,22.34ZM84,50.17l7.15,7.14,22.12-22.39,1.71,1.79c.37.39.69.73,1.03,1.06.65.64,1.31.95,1.87.88.69-.09,1.22-.74,1.54-1.27,3.21-5.33,6.6-10.98,10.08-16.79.78-1.31.71-1.9-.39-3.02-1.6-1.63-3.22-3.24-4.84-4.85-1.24-1.23-1.79-1.3-3.28-.42-2.24,1.34-4.47,2.68-6.71,4.02l-4.8,2.88c-1.73,1.03-3.46,2.07-5.17,3.12-.51.31-1.14.83-1.23,1.52-.07.55.23,1.2.85,1.82.16.16.37.33.62.52.15.12.3.24.46.37l1.28,1.07-22.27,22.54Z" style="fill: #040000;"/>
  <path d="M43.34,81.15c-9.4,9.4-18.81,18.81-28.21,28.21-.44.44-.85.94-1.34,1.54-1.21,1.51-1.8,3.33-2.31,5.58v2.77c.47,2.1,1.02,3.81,2.06,5.27,2,2.78,4.55,4.4,7.79,4.95.25.04.46.12.63.18h2.73c3.86-.59,6.59-3.08,9.28-5.8,7.41-7.51,15.01-15.08,22.36-22.41l5.69-5.67-16.65-16.65-2.03,2.03ZM49.09,89.58c1.82.38,3.28,1.6,3.91,3.29.63,1.68.35,3.55-.76,5.03-.29.39-.61.71-.89.99l-8.84,8.8c-4.31,4.29-8.61,8.58-12.92,12.87-1.36,1.35-2.5,1.99-3.56,1.99-.04,0-.08,0-.12,0-2.52-.07-4.15-.94-5.13-2.76-.97-1.79-.86-3.73.3-5.45.32-.48.71-.86,1.05-1.2l8-7.97c4.57-4.55,9.14-9.11,13.71-13.66,1.07-1.07,2.78-2.43,5.25-1.92Z" style="fill: #040000; stroke: #040000; stroke-miterlimit: 10; stroke-width: 1.84px;"/>
</svg>