<?xml version="1.0" encoding="UTF-8"?>
<svg id="uuid-861c1753-0b5a-47ec-9d70-534bbfe4c77f" data-name="圖層 1" xmlns="http://www.w3.org/2000/svg" viewBox="0 0 226.77 226.77">
  <g>
    <line x1="185.74" y1="96.79" x2="185.74" y2="224.62" style="fill: none; stroke: #637579; stroke-linecap: round; stroke-linejoin: round; stroke-width: 4.29px;"/>
    <line x1="207.4" y1="95.42" x2="207.4" y2="224.47" style="fill: none; stroke: #637579; stroke-linecap: round; stroke-linejoin: round; stroke-width: 4.28px;"/>
    <line x1="166.32" y1="162.64" x2="166.32" y2="224.23" style="fill: none; stroke: #94b0b5; stroke-linecap: round; stroke-linejoin: round; stroke-width: 4.29px;"/>
    <line x1="224.38" y1="162.47" x2="224.38" y2="224.61" style="fill: none; stroke: #94b0b5; stroke-linecap: round; stroke-linejoin: round; stroke-width: 4.28px;"/>
    <polygon points="191.88 206.73 165.28 162.79 225.46 162.79 200.24 206.73 191.88 206.73" style="fill: #c6d3d4;"/>
    <rect x="165.28" y="95.43" width="60.24" height="67.56" style="fill: #c6d3d4;"/>
    <g>
      <polygon points="225.41 95.28 200.19 81.27 191.84 81.27 165.24 95.28 165.24 162.84 165.35 162.84 191.84 206.58 200.12 206.58 200.12 95.57 215 95.57 215 180.77 225.3 162.84 225.47 162.84 225.47 95.28 225.41 95.28" style="fill: none;"/>
      <polygon points="200.12 95.57 192.13 206.03 199.75 206.03 219.9 172.67 219.9 95.57 200.12 95.57" style="fill: #afc2c6;"/>
    </g>
    <polygon points="191.88 81.42 165.28 95.43 225.46 95.43 200.24 81.42 191.88 81.42" style="fill: #c6d3d4;"/>
    <line x1="192.24" y1="81.42" x2="185.22" y2="95.43" style="fill: none; stroke: #94b0b5; stroke-linecap: round; stroke-linejoin: round; stroke-width: .86px;"/>
    <line x1="206.95" y1="96.1" x2="199.93" y2="82.09" style="fill: none; stroke: #94b0b5; stroke-linecap: round; stroke-linejoin: round; stroke-width: .86px;"/>
    <line x1="165.28" y1="130.46" x2="165.28" y2="161.95" style="fill: none; stroke: #94b0b5; stroke-linecap: round; stroke-linejoin: round; stroke-width: 1.41px;"/>
    <line x1="225.46" y1="130.46" x2="225.46" y2="161.95" style="fill: none; stroke: #94b0b5; stroke-linecap: round; stroke-linejoin: round; stroke-width: 1.41px;"/>
    <polygon points="225.49 95.43 225.42 95.43 200.2 81.42 191.85 81.42 165.25 95.43 165.25 162.99 165.37 162.99 191.85 206.73 200.2 206.73 225.31 162.99 225.49 162.99 225.49 95.43" style="fill: none; stroke: #94b0b5; stroke-linecap: round; stroke-linejoin: round; stroke-width: 1.95px;"/>
    <line x1="177.09" y1="94.97" x2="177.09" y2="162.48" style="fill: none; stroke: #94b0b5; stroke-linecap: round; stroke-linejoin: round; stroke-width: 1.41px;"/>
    <line x1="215.98" y1="94.97" x2="215.98" y2="162.48" style="fill: none; stroke: #94b0b5; stroke-linecap: round; stroke-linejoin: round; stroke-width: 1.41px;"/>
    <line x1="165.25" y1="162.99" x2="225.46" y2="162.99" style="fill: none; stroke: #94b0b5; stroke-linecap: round; stroke-linejoin: round; stroke-width: 1.95px;"/>
    <line x1="166.31" y1="95.43" x2="225.46" y2="95.43" style="fill: none; stroke: #94b0b5; stroke-linecap: round; stroke-linejoin: round; stroke-width: 1.95px;"/>
    <line x1="176.38" y1="163.69" x2="176.38" y2="224.28" style="fill: none; stroke: #94b0b5; stroke-linecap: round; stroke-linejoin: round; stroke-width: 4.25px;"/>
    <line x1="215.89" y1="163.52" x2="215.89" y2="224.65" style="fill: none; stroke: #94b0b5; stroke-linecap: round; stroke-linejoin: round; stroke-width: 4.25px;"/>
  </g>
  <g>
    <polygon points="76.27 153.7 12.06 197.11 12.06 222.31 189.16 222.31 189.16 153.77 76.27 153.77 76.27 153.7" style="fill: #e8e7e6;"/>
    <polygon points="76.27 149.56 12.06 192.8 12.06 197.11 76.27 153.7 76.27 153.77 189.16 153.77 189.16 149.56 76.27 149.56" style="fill: #cecfcf;"/>
  </g>
  <rect y="214.7" width="201.23" height="12.06" style="fill: #b8b8b9;"/>
  <g>
    <rect x="138.57" y="178.4" width="24.85" height="5.35" style="fill: #da5050;"/>
    <rect x="138.57" y="183.76" width="24.85" height="30.94" style="fill: #5c5c5c;"/>
    <rect x="144.45" y="163.51" width="13.09" height="2.67" style="fill: #5c5c5c;"/>
  </g>
  <g>
    <rect x="74.71" y="178.4" width="24.85" height="5.35" style="fill: #da5050;"/>
    <rect x="74.71" y="183.76" width="24.85" height="30.94" style="fill: #5c5c5c;"/>
    <rect x="80.59" y="163.51" width="13.09" height="2.67" style="fill: #5c5c5c;"/>
  </g>
  <rect x="74.71" y="220.73" width="24.85" height="6.03" style="fill: #e8e7e6;"/>
  <rect x="138.57" y="220.73" width="24.85" height="6.03" style="fill: #e8e7e6;"/>
  <polygon points="189.16 214.7 163.42 214.7 163.42 178.4 189.16 204.15 189.16 214.7" style="fill: #cecfcf;"/>
  <polygon points="99.57 214.7 99.57 178.4 135.83 214.66 99.57 214.7" style="fill: #cecfcf;"/>
  <rect x="112.82" y="165.81" width="12.87" height="12.87" style="fill: #5c5c5c;"/>
  <rect x="112.82" y="185.93" width="12.87" height="12.87" style="fill: #5c5c5c;"/>
  <polygon points="74.53 144.21 7.36 189.61 7.36 196.07 76.27 149.49 76.27 149.56 195.38 149.56 195.38 144.21 74.53 144.21" style="fill: #da5050;"/>
  <polygon points="105.6 226.76 99.57 226.76 99.57 220.73 105.6 226.76" style="fill: #8b8b8a;"/>
  <polygon points="169.45 226.76 163.42 226.76 163.42 220.73 169.45 226.76" style="fill: #8b8b8a;"/>
</svg>