<?xml version="1.0" encoding="UTF-8"?>
<svg id="uuid-771d7f8e-b8de-40f9-8dd5-784a5ce5f123" data-name="圖層 1" xmlns="http://www.w3.org/2000/svg" viewBox="0 0 226.77 226.77">
  <rect x="112.96" y="90.52" width="92.4" height="3.66" style="fill: #49586c;"/>
  <rect x="1.97" y="122.44" width="223.91" height="10.37" style="fill: none; stroke: #505f75; stroke-miterlimit: 10; stroke-width: 3.94px;"/>
  <rect x="1.97" y="122.44" width="223.91" height="10.37" style="fill: #6a768d;"/>
  <rect x="2.38" y="135.75" width="223.21" height="89.05" style="fill: none; stroke: #acbfce; stroke-miterlimit: 10; stroke-width: 3.94px;"/>
  <rect x="2.38" y="135.75" width="223.21" height="89.05" style="fill: #d0dae4;"/>
  <g>
    <g>
      <rect x="157.22" y="149.48" width="12.1" height="24.4" style="fill: #49586c;"/>
      <rect x="157.22" y="173.87" width="12.1" height="1.32" style="fill: #253b50;"/>
    </g>
    <g>
      <rect x="175.24" y="149.48" width="12.1" height="24.4" style="fill: #49586c;"/>
      <rect x="175.24" y="173.87" width="12.1" height="1.32" style="fill: #253b50;"/>
    </g>
    <g>
      <rect x="193.26" y="149.48" width="12.1" height="24.4" style="fill: #49586c;"/>
      <rect x="193.26" y="173.87" width="12.1" height="1.32" style="fill: #253b50;"/>
    </g>
    <rect x="157.22" y="149.48" width="48.14" height="26.33" style="fill: none; stroke: #fff; stroke-miterlimit: 10; stroke-width: 1.59px;"/>
  </g>
  <g>
    <g>
      <rect x="24.64" y="149.48" width="12.1" height="24.4" style="fill: #49586c;"/>
      <rect x="24.64" y="173.87" width="12.1" height="1.32" style="fill: #253b50;"/>
    </g>
    <g>
      <rect x="42.66" y="149.48" width="12.1" height="24.4" style="fill: #49586c;"/>
      <rect x="42.66" y="173.87" width="12.1" height="1.32" style="fill: #253b50;"/>
    </g>
    <g>
      <rect x="60.68" y="149.48" width="12.1" height="24.4" style="fill: #49586c;"/>
      <rect x="60.68" y="173.87" width="12.1" height="1.32" style="fill: #253b50;"/>
    </g>
    <rect x="24.64" y="149.48" width="48.14" height="26.33" style="fill: none; stroke: #fff; stroke-miterlimit: 10; stroke-width: 1.59px;"/>
  </g>
  <g>
    <g>
      <rect x="157.22" y="184.45" width="12.1" height="24.4" style="fill: #49586c;"/>
      <rect x="157.22" y="208.84" width="12.1" height="1.32" style="fill: #253b50;"/>
    </g>
    <g>
      <rect x="175.24" y="184.45" width="12.1" height="24.4" style="fill: #49586c;"/>
      <rect x="175.24" y="208.84" width="12.1" height="1.32" style="fill: #253b50;"/>
    </g>
    <g>
      <rect x="193.26" y="184.45" width="12.1" height="24.4" style="fill: #49586c;"/>
      <rect x="193.26" y="208.84" width="12.1" height="1.32" style="fill: #253b50;"/>
    </g>
    <rect x="157.22" y="184.45" width="48.14" height="26.33" style="fill: none; stroke: #fff; stroke-miterlimit: 10; stroke-width: 1.59px;"/>
  </g>
  <g>
    <g>
      <rect x="24.64" y="184.45" width="12.1" height="24.4" style="fill: #49586c;"/>
      <rect x="24.64" y="208.84" width="12.1" height="1.32" style="fill: #253b50;"/>
    </g>
    <g>
      <rect x="42.66" y="184.45" width="12.1" height="24.4" style="fill: #49586c;"/>
      <rect x="42.66" y="208.84" width="12.1" height="1.32" style="fill: #253b50;"/>
    </g>
    <g>
      <rect x="60.68" y="184.45" width="12.1" height="24.4" style="fill: #49586c;"/>
      <rect x="60.68" y="208.84" width="12.1" height="1.32" style="fill: #253b50;"/>
    </g>
    <rect x="24.64" y="184.45" width="48.14" height="26.33" style="fill: none; stroke: #fff; stroke-miterlimit: 10; stroke-width: 1.59px;"/>
  </g>
  <rect x=".39" y="132.8" width="227.22" height="3.66" style="fill: #49586c;"/>
  <rect x="113.18" y="80.15" width="92.56" height="10.37" style="fill: none; stroke: #49586c; stroke-miterlimit: 10; stroke-width: 3.15px;"/>
  <rect x="113.18" y="80.15" width="92.56" height="10.37" style="fill: #6a768d;"/>
  <rect x="113.67" y="94.18" width="91.69" height="28.26" style="fill: none; stroke: #acbfce; stroke-miterlimit: 10; stroke-width: 3.94px;"/>
  <rect x="113.67" y="94.18" width="91.69" height="28.26" style="fill: #d0dae4;"/>
  <g>
    <rect x="120.84" y="99.72" width="4.8" height="4.8" style="fill: #49586c;"/>
    <rect x="120.84" y="103.91" width="4.8" height="1.22" style="fill: #253b50;"/>
  </g>
  <g>
    <rect x="127.58" y="99.72" width="4.8" height="4.8" style="fill: #49586c;"/>
    <rect x="127.58" y="103.91" width="4.8" height="1.22" style="fill: #253b50;"/>
  </g>
  <g>
    <rect x="134.75" y="99.72" width="4.8" height="4.8" style="fill: #49586c;"/>
    <rect x="134.75" y="103.91" width="4.8" height="1.22" style="fill: #253b50;"/>
  </g>
  <g>
    <rect x="141.69" y="99.72" width="4.8" height="4.8" style="fill: #49586c;"/>
    <rect x="141.69" y="103.91" width="4.8" height="1.22" style="fill: #253b50;"/>
  </g>
  <g>
    <rect x="148.25" y="99.72" width="4.8" height="4.8" style="fill: #49586c;"/>
    <rect x="148.25" y="103.91" width="4.8" height="1.22" style="fill: #253b50;"/>
  </g>
  <g>
    <rect x="120.84" y="106.58" width="4.8" height="4.8" style="fill: #49586c;"/>
    <rect x="120.84" y="110.77" width="4.8" height="1.22" style="fill: #253b50;"/>
  </g>
  <g>
    <rect x="127.58" y="106.58" width="4.8" height="4.8" style="fill: #49586c;"/>
    <rect x="127.58" y="110.77" width="4.8" height="1.22" style="fill: #253b50;"/>
  </g>
  <g>
    <rect x="134.75" y="106.58" width="4.8" height="4.8" style="fill: #49586c;"/>
    <rect x="134.75" y="110.77" width="4.8" height="1.22" style="fill: #253b50;"/>
  </g>
  <g>
    <rect x="141.69" y="106.58" width="4.8" height="4.8" style="fill: #49586c;"/>
    <rect x="141.69" y="110.77" width="4.8" height="1.22" style="fill: #253b50;"/>
  </g>
  <g>
    <rect x="148.25" y="106.58" width="4.8" height="4.8" style="fill: #49586c;"/>
    <rect x="148.25" y="110.77" width="4.8" height="1.22" style="fill: #253b50;"/>
  </g>
  <g>
    <rect x="188.96" y="99.72" width="4.8" height="4.8" style="fill: #49586c;"/>
    <rect x="188.96" y="103.91" width="4.8" height="1.22" style="fill: #253b50;"/>
  </g>
  <g>
    <rect x="195.51" y="99.72" width="4.8" height="4.8" style="fill: #49586c;"/>
    <rect x="195.51" y="103.91" width="4.8" height="1.22" style="fill: #253b50;"/>
  </g>
  <g>
    <rect x="188.96" y="106.58" width="4.8" height="4.8" style="fill: #49586c;"/>
    <rect x="188.96" y="110.77" width="4.8" height="1.22" style="fill: #253b50;"/>
  </g>
  <g>
    <rect x="195.51" y="106.58" width="4.8" height="4.8" style="fill: #49586c;"/>
    <rect x="195.51" y="110.77" width="4.8" height="1.22" style="fill: #253b50;"/>
  </g>
  <rect x="120.84" y="99.72" width="32.21" height="12.27" style="fill: none; stroke: #fff; stroke-miterlimit: 10; stroke-width: .79px;"/>
  <rect x="188.96" y="99.72" width="11.36" height="12.27" style="fill: none; stroke: #fff; stroke-miterlimit: 10; stroke-width: .79px;"/>
</svg>