<?xml version="1.0" encoding="UTF-8"?>
<svg id="uuid-ed19c91d-49fa-42dd-b084-a87efdd59826" data-name="圖層 1" xmlns="http://www.w3.org/2000/svg" viewBox="0 0 226.77 226.77">
  <rect x="52.88" y="90.45" width="133.46" height="133.46" style="fill: none; stroke: #d7ba93; stroke-miterlimit: 10; stroke-width: 4.59px;"/>
  <rect x="52.88" y="90.45" width="133.46" height="133.46" style="fill: #fbe1bd;"/>
  <rect x="186.34" y="63.58" width="36.7" height="159.92" style="fill: none; stroke: #406e85; stroke-linecap: round; stroke-linejoin: round; stroke-width: 5.59px;"/>
  <rect x="186.34" y="63.58" width="36.7" height="159.92" style="fill: #5488a7;"/>
  <g>
    <rect x="160.12" y="102.97" width="12.27" height="20.41" style="fill: none; stroke: #b5b5b5; stroke-miterlimit: 10; stroke-width: 3.28px;"/>
    <rect x="160.12" y="102.97" width="12.27" height="20.41" style="fill: #ccc;"/>
  </g>
  <g>
    <rect x="128.59" y="102.97" width="12.27" height="20.41" style="fill: none; stroke: #b5b5b5; stroke-miterlimit: 10; stroke-width: 3.28px;"/>
    <rect x="128.59" y="102.97" width="12.27" height="20.41" style="fill: #ccc;"/>
  </g>
  <g>
    <rect x="97.07" y="102.97" width="12.27" height="20.41" style="fill: none; stroke: #b5b5b5; stroke-miterlimit: 10; stroke-width: 3.28px;"/>
    <rect x="97.07" y="102.97" width="12.27" height="20.41" style="fill: #ccc;"/>
  </g>
  <g>
    <rect x="65.54" y="101" width="12.27" height="22.24" style="fill: none; stroke: #b5b5b5; stroke-miterlimit: 10; stroke-width: 3.43px;"/>
    <rect x="65.54" y="101" width="12.27" height="22.24" style="fill: #ccc;"/>
  </g>
  <rect x="11.85" y="128.88" width="155.93" height="24.45" transform="translate(140.1 -18.43) rotate(49.97)" style="fill: none; stroke: #e4b38b; stroke-miterlimit: 10; stroke-width: 4.45px;"/>
  <rect x="8.71" y="123.16" width="152.62" height="24.45" transform="translate(134 -16.79) rotate(49.97)" style="fill: #fad1ab;"/>
  <g>
    <polygon points="49.7 112.35 48.88 111.37 54.43 79.97 55.26 80.95 49.7 112.35" style="fill: #e4b38b;"/>
    <polygon points="58.21 122.47 57.38 121.49 62.94 90.09 63.77 91.07 58.21 122.47" style="fill: #e4b38b;"/>
    <polygon points="66.71 132.59 65.88 131.61 71.44 100.21 72.27 101.19 66.71 132.59" style="fill: #e4b38b;"/>
    <polygon points="75.21 142.72 74.38 141.74 79.94 110.34 80.77 111.32 75.21 142.72" style="fill: #e4b38b;"/>
    <polygon points="83.71 152.84 82.89 151.86 88.44 120.46 89.27 121.44 83.71 152.84" style="fill: #e4b38b;"/>
    <polygon points="92.22 162.96 91.39 161.98 96.95 130.58 97.78 131.56 92.22 162.96" style="fill: #e4b38b;"/>
    <polygon points="100.72 173.09 99.89 172.1 105.45 140.7 106.28 141.69 100.72 173.09" style="fill: #e4b38b;"/>
    <polygon points="109.22 183.21 108.39 182.23 113.95 150.83 114.78 151.81 109.22 183.21" style="fill: #e4b38b;"/>
    <polygon points="117.72 193.33 116.9 192.35 122.45 160.95 123.28 161.93 117.72 193.33" style="fill: #e4b38b;"/>
    <polygon points="126.23 203.45 125.4 202.47 130.96 171.07 131.79 172.05 126.23 203.45" style="fill: #e4b38b;"/>
  </g>
  <rect x="2.87" y="22.6" width="48.56" height="157.6" style="fill: none; stroke: #35708a; stroke-linecap: round; stroke-linejoin: round; stroke-width: 5.73px;"/>
  <rect x="2.87" y="22.6" width="48.56" height="157.6" style="fill: #5488a6;"/>
  <rect x="2.87" y="66.31" width="48.56" height="157.6" style="fill: none; stroke: #35708a; stroke-linecap: round; stroke-linejoin: round; stroke-width: 5.73px;"/>
  <rect x="2.87" y="66.31" width="48.56" height="157.6" style="fill: #5e8daa;"/>
  <g>
    <rect x="11.82" y="75.48" width="30.66" height="18.02" style="fill: none; stroke: #416a7c; stroke-miterlimit: 10; stroke-width: 4.28px;"/>
    <rect x="11.82" y="75.48" width="30.66" height="18.02" style="fill: #395463;"/>
  </g>
  <g>
    <rect x="11.82" y="32.86" width="30.66" height="18.02" style="fill: none; stroke: #416a7c; stroke-miterlimit: 10; stroke-width: 4.28px;"/>
    <rect x="11.82" y="32.86" width="30.66" height="18.02" style="fill: #395463;"/>
  </g>
  <g>
    <rect x="11.82" y="110.79" width="30.66" height="18.02" style="fill: none; stroke: #416a7c; stroke-miterlimit: 10; stroke-width: 4.28px;"/>
    <rect x="11.82" y="110.79" width="30.66" height="18.02" style="fill: #395463;"/>
  </g>
  <g>
    <rect x="11.82" y="146.09" width="30.66" height="18.02" style="fill: none; stroke: #416a7c; stroke-miterlimit: 10; stroke-width: 4.28px;"/>
    <rect x="11.82" y="146.09" width="30.66" height="18.02" style="fill: #395463;"/>
  </g>
  <g>
    <rect x="11.82" y="181.4" width="30.66" height="18.02" style="fill: none; stroke: #416a7c; stroke-miterlimit: 10; stroke-width: 4.28px;"/>
    <rect x="11.82" y="181.4" width="30.66" height="18.02" style="fill: #395463;"/>
  </g>
  <g>
    <rect x="127.15" y="166.12" width="24.05" height="57.69" style="fill: none; stroke: #35708a; stroke-linecap: round; stroke-linejoin: round; stroke-width: 4.1px;"/>
    <rect x="127.15" y="166.12" width="24.05" height="57.69" style="fill: #5e8daa;"/>
    <g>
      <rect x="131.05" y="172.22" width="16.26" height="10.83" style="fill: none; stroke: #416a7c; stroke-miterlimit: 10; stroke-width: 3.06px;"/>
      <rect x="131.05" y="172.22" width="16.26" height="10.83" style="fill: none; stroke: #416a7c; stroke-miterlimit: 10; stroke-width: 3.06px;"/>
    </g>
    <g>
      <rect x="131.05" y="190.41" width="16.26" height="10.83" style="fill: none; stroke: #416a7c; stroke-miterlimit: 10; stroke-width: 3.06px;"/>
      <rect x="131.05" y="190.41" width="16.26" height="10.83" style="fill: none; stroke: #416a7c; stroke-miterlimit: 10; stroke-width: 3.06px;"/>
    </g>
    <g>
      <rect x="131.05" y="172.22" width="16.26" height="10.83" style="fill: #395463;"/>
      <rect x="131.05" y="172.22" width="16.26" height="10.83" style="fill: #395463;"/>
    </g>
    <g>
      <rect x="131.05" y="190.41" width="16.26" height="10.83" style="fill: #395463;"/>
      <rect x="131.05" y="190.41" width="16.26" height="10.83" style="fill: #395463;"/>
    </g>
  </g>
  <line x1="185.6" y1="87.85" x2="224.22" y2="87.85" style="fill: none; stroke: #406e85; stroke-linejoin: round; stroke-width: 5.59px;"/>
</svg>