<?xml version="1.0" encoding="UTF-8"?>
<svg id="uuid-b8f94499-34cc-4abc-9c90-ec38256529b0" data-name="圖層 1" xmlns="http://www.w3.org/2000/svg" viewBox="0 0 226.77 226.77">
  <path d="M147.06,22.6c-5.29,0-10.06,2.19-13.47,5.72-2.89-1.82-6.31-2.89-9.98-2.89-10.34,0-18.73,8.39-18.73,18.73,0,.09,0,.17,0,.26-10.7,1.63-18.89,10.87-18.89,22.02,0,12.3,9.97,22.27,22.27,22.27s22.27-9.97,22.27-22.27c0-1.6-.17-3.17-.5-4.67,2.69-.98,5.08-2.57,7.03-4.59,2.89,1.83,6.31,2.89,9.99,2.89,10.34,0,18.73-8.39,18.73-18.73s-8.39-18.73-18.73-18.73Z" style="fill: #fff;"/>
  <polygon points="130.75 66.43 85.77 66.43 75.88 226.77 140.64 226.77 130.75 66.43" style="fill: #c14d1f;"/>
  <path d="M132.26,90.97h-48.01l-.93,15.04h49.86l-.93-15.04Z" style="fill: #fff;"/>
  <path d="M134.66,130.59h-52.69l-.93,15.04h54.54l-.93-15.04Z" style="fill: #fff;"/>
</svg>