<?xml version="1.0" encoding="UTF-8"?>
<svg id="uuid-a45ac7f8-0d0a-4353-9eba-ffe948bac180" data-name="圖層 1" xmlns="http://www.w3.org/2000/svg" viewBox="0 0 226.77 226.77">
  <rect x="151.67" y="174.6" width="48.87" height="42.64" style="fill: #cbbf9a;"/>
  <rect x="156.21" y="188.41" width="20.95" height="10.08" style="fill: #040000; isolation: isolate; opacity: .1;"/>
  <rect x="179.58" y="201.83" width="20.95" height="10.08" style="fill: #040000; isolation: isolate; opacity: .1;"/>
  <rect x="151.67" y="174.6" width="48.87" height="11.45" style="fill: #040000; isolation: isolate; opacity: .1;"/>
  <path d="M204.88,170.58c0-1.33-1.09-2.42-2.42-2.42h-52.71c-1.33,0-2.42,1.09-2.42,2.42v8.03c0,1.33,1.09,2.42,2.42,2.42h52.71c1.33,0,2.42-1.09,2.42-2.42v-8.03Z" style="fill: #ab9c6d;"/>
  <path d="M170.82,8.12c-5.42,0-10.3,2.25-13.79,5.86-2.96-1.87-6.47-2.95-10.23-2.95-10.59,0-19.18,8.59-19.18,19.18,0,.09,0,.18,0,.26-10.96,1.67-19.35,11.13-19.35,22.55,0,12.6,10.21,22.81,22.81,22.81s22.81-10.21,22.81-22.81c0-1.64-.18-3.24-.51-4.79,2.75-1.01,5.21-2.63,7.21-4.7,2.96,1.87,6.47,2.96,10.23,2.96,10.59,0,19.18-8.59,19.18-19.18s-8.59-19.18-19.18-19.18Z" style="fill: #dcd7c5;"/>
  <polygon points="154.11 53.01 108.05 53.01 97.92 217.23 164.24 217.23 154.11 53.01" style="fill: #4b4a4a;"/>
  <path d="M156.57,92.88h-50.99l-.45,7.25h51.88l-.45-7.25ZM155.66,78.15h-49.17l-.45,7.25h50.06l-.45-7.25Z" style="fill: #ab9c6d;"/>
  <rect x="16.26" y="126.43" width="124.98" height="90.8" style="fill: #cbbf9a;"/>
  <rect x="120.28" y="184.06" width="20.95" height="10.08" style="fill: #040000; isolation: isolate; opacity: .1;"/>
  <rect x="16.2" y="171.83" width="20.95" height="10.08" style="fill: #040000; isolation: isolate; opacity: .1;"/>
  <rect x="87.44" y="133.92" width="20.95" height="10.08" style="fill: #040000; isolation: isolate; opacity: .1;"/>
  <rect x="42.16" y="126.43" width="20.95" height="10.08" style="fill: #040000; isolation: isolate; opacity: .1;"/>
  <rect x="34.18" y="198.49" width="20.95" height="10.08" style="fill: #040000; isolation: isolate; opacity: .1;"/>
  <path d="M128.83,156.33c0-2.66-2.18-4.84-4.84-4.84H33.49c-2.66,0-4.84,2.18-4.84,4.84v8.88c0,2.66,2.18,4.83,4.84,4.83h90.51c2.66,0,4.84-2.18,4.84-4.83v-8.88Z" style="fill: #040000; isolation: isolate; opacity: .1;"/>
  <path d="M128.83,148.84c0-2.66-2.18-4.84-4.84-4.84H33.49c-2.66,0-4.84,2.18-4.84,4.84v8.88c0,2.66,2.18,4.84,4.84,4.84h90.51c2.66,0,4.84-2.18,4.84-4.84v-8.88Z" style="fill: #fff;"/>
  <path d="M124,144H33.49c-2.66,0-4.84,2.18-4.84,4.83v6.17c0-2.66,2.18-4.84,4.84-4.84h90.51c2.66,0,4.84,2.18,4.84,4.84v-6.17c0-2.66-2.18-4.83-4.84-4.83Z" style="fill: #040000; isolation: isolate; opacity: .1;"/>
  <g>
    <path d="M16.26,107.55v18.88h20.83s-18.33-18.33-18.92-18.92c-.75-.75-1.91-1.16-1.91.04Z" style="fill: #dcd7c5;"/>
    <path d="M37.09,107.55v18.88h20.83s-18.33-18.33-18.92-18.92c-.75-.75-1.91-1.16-1.91.04Z" style="fill: #dcd7c5;"/>
    <path d="M57.92,107.55v18.88h20.83s-18.33-18.33-18.92-18.92c-.76-.75-1.91-1.16-1.91.04Z" style="fill: #dcd7c5;"/>
    <path d="M78.75,107.55v18.88h20.83s-18.33-18.33-18.92-18.92c-.75-.75-1.91-1.16-1.91.04Z" style="fill: #dcd7c5;"/>
    <path d="M99.57,107.55v18.88h20.83s-18.33-18.33-18.92-18.92c-.76-.75-1.91-1.16-1.91.04Z" style="fill: #dcd7c5;"/>
    <path d="M120.4,107.55v18.88h20.83s-18.33-18.33-18.92-18.92c-.75-.75-1.91-1.16-1.91.04Z" style="fill: #dcd7c5;"/>
    <rect x="49.77" y="179.75" width="57.95" height="37.48" style="fill: #dcd7c5;"/>
  </g>
  <g style="opacity: .1;">
    <rect x="49.77" y="187.49" width="57.95" height="7.25" style="fill: #040000;"/>
  </g>
  <g style="opacity: .1;">
    <rect x="49.77" y="201.27" width="57.95" height="7.25" style="fill: #040000;"/>
  </g>
  <g>
    <rect x="49.02" y="144" width="7.25" height="18.55" style="fill: #cbbf9a;"/>
    <rect x="75.12" y="144" width="7.25" height="18.55" style="fill: #cbbf9a;"/>
    <rect x="101.22" y="144" width="7.25" height="18.55" style="fill: #cbbf9a;"/>
  </g>
  <path d="M124,166.18H33.49c-4.67,0-8.46-3.8-8.46-8.46v-8.88c0-4.67,3.8-8.46,8.46-8.46h90.51c4.67,0,8.46,3.8,8.46,8.46v8.88c0,4.67-3.8,8.46-8.46,8.46ZM33.49,147.63c-.66,0-1.21.55-1.21,1.21v8.88c0,.66.55,1.21,1.21,1.21h90.51c.66,0,1.21-.55,1.21-1.21v-8.88c0-.66-.55-1.21-1.21-1.21H33.49Z" style="fill: #ab9c6d;"/>
  <path d="M226.66,224.82c0,1.07-.88,1.95-1.95,1.95H1.95c-1.07,0-1.95-.88-1.95-1.95v-6.99c0-1.07.88-1.95,1.95-1.95h222.76c1.07,0,1.95.88,1.95,1.95v6.99h0Z" style="fill: #4b4a4a;"/>
</svg>