<?xml version="1.0" encoding="UTF-8"?>
<svg id="_圖層_2" data-name="圖層_2" xmlns="http://www.w3.org/2000/svg" viewBox="0 0 137.39 44.92">
  <g id="_圖層_8" data-name="圖層_8">
    <g>
      <g>
        <g>
          <polygon points="94.5 19.1 41.68 19.1 67.2 12.26 94.5 19.1 94.5 19.1" style="fill: #8b8a8c; fill-rule: evenodd;"/>
          <polygon points="70.16 16.65 68.69 15.49 66.96 16.23 67.78 18.21 70.08 18.04 70.16 16.65 70.16 16.65" style="fill: #8b8a8c; fill-rule: evenodd;"/>
          <polygon points="45.49 15.81 43.81 16.65 43.74 18.53 45.87 18.64 46.71 16.49 45.49 15.81 45.49 15.81" style="fill: #8b8a8c; fill-rule: evenodd;"/>
          <polygon points="49.97 16.08 46.33 16.08 44.56 17.75 48.17 18.83 51.51 17.26 49.97 16.08 49.97 16.08" style="fill: #8b8a8c; fill-rule: evenodd;"/>
          <polygon points="51.45 15.81 49.77 16.65 49.7 18.53 51.83 18.64 52.67 16.49 51.45 15.81 51.45 15.81" style="fill: #8b8a8c; fill-rule: evenodd;"/>
          <polygon points="55.53 17.68 54.62 15.91 51.81 15.57 51.19 17.67 54.24 18.8 55.53 17.68 55.53 17.68" style="fill: #8b8a8c; fill-rule: evenodd;"/>
          <polygon points="57.24 15.81 55.34 16.65 55.25 18.53 57.68 18.64 58.63 16.49 57.24 15.81 57.24 15.81" style="fill: #8b8a8c; fill-rule: evenodd;"/>
          <polygon points="61.26 16.01 59.15 15.24 57.45 16.71 59.12 18.67 61.68 17.63 61.26 16.01 61.26 16.01" style="fill: #8b8a8c; fill-rule: evenodd;"/>
          <polygon points="59.74 16 58.39 17.63 61.07 18.92 64.55 17.63 62.65 15.66 59.74 16 59.74 16" style="fill: #8b8a8c; fill-rule: evenodd;"/>
          <polygon points="65.96 15.66 64.46 16.91 64.82 18.83 67.02 18.44 67.37 16.06 65.96 15.66 65.96 15.66" style="fill: #8b8a8c; fill-rule: evenodd;"/>
          <polygon points="67.29 14.97 65.81 13.82 64.08 14.56 64.9 16.53 67.21 16.37 67.29 14.97 67.29 14.97" style="fill: #8b8a8c; fill-rule: evenodd;"/>
          <polygon points="52.65 16.01 51.74 14.23 48.93 13.89 48.31 15.99 51.37 17.13 52.65 16.01 52.65 16.01" style="fill: #8b8a8c; fill-rule: evenodd;"/>
          <polygon points="54.36 14.14 52.46 14.98 52.38 16.85 54.8 16.96 55.75 14.82 54.36 14.14 54.36 14.14" style="fill: #8b8a8c; fill-rule: evenodd;"/>
          <polygon points="58.38 14.33 56.27 13.56 54.57 15.04 56.24 16.99 58.8 15.96 58.38 14.33 58.38 14.33" style="fill: #8b8a8c; fill-rule: evenodd;"/>
          <polygon points="59.43 14.35 58.81 16.12 60.05 17.52 61.67 16.12 60.79 13.99 59.43 14.35 59.43 14.35" style="fill: #8b8a8c; fill-rule: evenodd;"/>
          <polygon points="63.08 13.99 61.58 15.23 61.95 17.16 64.14 16.77 64.49 14.39 63.08 13.99 63.08 13.99" style="fill: #8b8a8c; fill-rule: evenodd;"/>
          <polygon points="51.62 11.99 49.72 12.83 49.63 14.71 52.05 14.82 53.01 12.67 51.62 11.99 51.62 11.99" style="fill: #e2dfdf; fill-rule: evenodd;"/>
          <polygon points="55.64 12.19 53.53 11.41 51.83 12.89 53.49 14.84 56.06 13.81 55.64 12.19 55.64 12.19" style="fill: #8b8a8c; fill-rule: evenodd;"/>
          <polygon points="56.69 12.21 56.06 13.97 57.31 15.38 58.92 13.98 58.04 11.84 56.69 12.21 56.69 12.21" style="fill: #8b8a8c; fill-rule: evenodd;"/>
          <polygon points="47.59 13.91 46.09 15.16 46.45 17.08 48.65 16.69 49 14.31 47.59 13.91 47.59 13.91" style="fill: #d4d1d0; fill-rule: evenodd;"/>
          <polygon points="58.8 12.4 58.18 14.17 59.42 15.57 61.04 14.17 60.16 12.04 58.8 12.4 58.8 12.4" style="fill: #8b8a8c; fill-rule: evenodd;"/>
          <polygon points="62.45 12.04 60.95 13.28 61.31 15.21 63.51 14.81 63.86 12.44 62.45 12.04 62.45 12.04" style="fill: #e2dfdf; fill-rule: evenodd;"/>
          <polygon points="56.37 10.07 54.46 10.91 54.38 12.78 56.8 12.89 57.76 10.75 56.37 10.07 56.37 10.07" style="fill: #8b8a8c; fill-rule: evenodd;"/>
          <polygon points="62.8 15.41 61.32 14.26 59.59 15 60.41 16.98 62.71 16.81 62.8 15.41 62.8 15.41" style="fill: #8b8a8c; fill-rule: evenodd;"/>
          <polygon points="54.94 14.8 54.32 16.56 55.56 17.97 57.18 16.57 56.3 14.43 54.94 14.8 54.94 14.8" style="fill: #8b8a8c; fill-rule: evenodd;"/>
          <polygon points="52.2 12.65 51.57 14.42 52.82 15.82 54.43 14.42 53.55 12.29 52.2 12.65 52.2 12.65" style="fill: #8b8a8c; fill-rule: evenodd;"/>
          <polygon points="54.31 12.85 53.69 14.61 54.93 16.02 56.55 14.61 55.67 12.48 54.31 12.85 54.31 12.85" style="fill: #8b8a8c; fill-rule: evenodd;"/>
          <polygon points="57.96 12.48 56.46 13.73 56.82 15.65 59.02 15.26 59.37 12.88 57.96 12.48 57.96 12.48" style="fill: #d4d1d0; fill-rule: evenodd;"/>
          <polygon points="68.56 17.59 67.18 15.62 62.9 15.25 61.95 17.57 66.61 18.83 68.56 17.59 68.56 17.59" style="fill: #8b8a8c; fill-rule: evenodd;"/>
          <polygon points="57.59 14.79 56.96 17.02 58.21 18.8 59.82 17.03 58.94 14.33 57.59 14.79 57.59 14.79" style="fill: #8b8a8c; fill-rule: evenodd;"/>
          <polygon points="70.16 16.21 68.69 14.89 66.96 15.74 67.78 18.01 70.08 17.82 70.16 16.21 70.16 16.21" style="fill: #8b8a8c; fill-rule: evenodd;"/>
          <polygon points="43.29 16.22 41.69 17.2 41.82 19.15 43.99 19.12 44.6 16.84 43.29 16.22 43.29 16.22" style="fill: #8b8a8c; fill-rule: evenodd;"/>
          <polygon points="45.49 15.26 43.81 16.22 43.74 18.37 45.87 18.5 46.71 16.03 45.49 15.26 45.49 15.26" style="fill: #8b8a8c; fill-rule: evenodd;"/>
          <polygon points="51.45 15.26 49.77 16.22 49.7 18.37 51.83 18.5 52.67 16.03 51.45 15.26 51.45 15.26" style="fill: #8b8a8c; fill-rule: evenodd;"/>
          <polygon points="55.53 17.4 54.62 15.36 51.81 14.97 51.19 17.39 54.24 18.69 55.53 17.4 55.53 17.4" style="fill: #8b8a8c; fill-rule: evenodd;"/>
          <polygon points="57.24 15.26 55.34 16.22 55.25 18.37 57.68 18.5 58.63 16.03 57.24 15.26 57.24 15.26" style="fill: #8b8a8c; fill-rule: evenodd;"/>
          <polygon points="61.26 15.48 59.15 14.59 57.45 16.29 59.12 18.53 61.68 17.35 61.26 15.48 61.26 15.48" style="fill: #8b8a8c; fill-rule: evenodd;"/>
          <polygon points="59.78 15.19 58.43 17.21 61.11 18.83 64.59 17.22 62.69 14.77 59.78 15.19 59.78 15.19" style="fill: #8b8a8c; fill-rule: evenodd;"/>
          <polygon points="72.63 7.8 71.13 9.23 71.49 11.44 73.68 10.99 74.04 8.26 72.63 7.8 72.63 7.8" style="fill: #8b8a8c; fill-rule: evenodd;"/>
          <polygon points="67.29 14.29 65.81 12.96 64.08 13.81 64.9 16.08 67.21 15.89 67.29 14.29 67.29 14.29" style="fill: #8b8a8c; fill-rule: evenodd;"/>
          <polygon points="52.65 15.48 51.74 13.44 48.93 13.05 48.31 15.46 51.37 16.77 52.65 15.48 52.65 15.48" style="fill: #8b8a8c; fill-rule: evenodd;"/>
          <polygon points="54.36 13.33 52.46 14.29 52.38 16.45 54.8 16.58 55.75 14.11 54.36 13.33 54.36 13.33" style="fill: #8b8a8c; fill-rule: evenodd;"/>
          <polygon points="58.38 13.55 56.27 12.67 54.57 14.36 56.24 16.61 58.8 15.42 58.38 13.55 58.38 13.55" style="fill: #8b8a8c; fill-rule: evenodd;"/>
          <polygon points="59.43 13.57 58.81 15.6 60.05 17.22 61.67 15.61 60.79 13.16 59.43 13.57 59.43 13.57" style="fill: #8b8a8c; fill-rule: evenodd;"/>
          <polygon points="63.08 13.16 61.58 14.59 61.95 16.8 64.14 16.35 64.49 13.62 63.08 13.16 63.08 13.16" style="fill: #8b8a8c; fill-rule: evenodd;"/>
          <polygon points="51.62 10.87 49.72 11.83 49.63 13.99 52.05 14.11 53.01 11.65 51.62 10.87 51.62 10.87" style="fill: #e2dfdf; fill-rule: evenodd;"/>
          <polygon points="55.64 11.09 53.53 10.2 51.83 11.9 53.49 14.14 56.06 12.96 55.64 11.09 55.64 11.09" style="fill: #8b8a8c; fill-rule: evenodd;"/>
          <polygon points="56.69 11.11 56.06 13.14 57.31 14.75 58.92 13.15 58.04 10.7 56.69 11.11 56.69 11.11" style="fill: #8b8a8c; fill-rule: evenodd;"/>
          <polygon points="47.59 13.07 46.09 14.5 46.45 16.71 48.65 16.26 49 13.53 47.59 13.07 47.59 13.07" style="fill: #d4d1d0; fill-rule: evenodd;"/>
          <polygon points="58.8 11.33 58.18 13.36 59.42 14.98 61.04 13.37 60.16 10.92 58.8 11.33 58.8 11.33" style="fill: #8b8a8c; fill-rule: evenodd;"/>
          <polygon points="56.37 8.66 54.46 9.62 54.38 11.78 56.8 11.9 57.76 9.43 56.37 8.66 56.37 8.66" style="fill: #8b8a8c; fill-rule: evenodd;"/>
          <polygon points="62.8 14.8 61.32 13.48 59.59 14.32 60.41 16.59 62.71 16.4 62.8 14.8 62.8 14.8" style="fill: #8b8a8c; fill-rule: evenodd;"/>
          <polygon points="54.94 14.09 54.32 16.12 55.56 17.73 57.18 16.12 56.3 13.67 54.94 14.09 54.94 14.09" style="fill: #8b8a8c; fill-rule: evenodd;"/>
          <polygon points="52.2 11.62 51.57 13.65 52.82 15.26 54.43 13.66 53.55 11.21 52.2 11.62 52.2 11.62" style="fill: #8b8a8c; fill-rule: evenodd;"/>
          <polygon points="54.31 11.85 53.69 13.87 54.93 15.49 56.55 13.88 55.67 11.43 54.31 11.85 54.31 11.85" style="fill: #8b8a8c; fill-rule: evenodd;"/>
          <polygon points="68.36 16.61 66.75 13.42 61.74 12.82 60.64 16.58 66.08 18.62 68.36 16.61 68.36 16.61" style="fill: #8b8a8c; fill-rule: evenodd;"/>
          <polygon points="57.59 14.08 56.96 16.64 58.21 18.69 59.82 16.65 58.94 13.55 57.59 14.08 57.59 14.08" style="fill: #8b8a8c; fill-rule: evenodd;"/>
          <polygon points="94.75 17.54 93.38 16.1 91.59 16.81 92.22 19.14 94.53 19.14 94.75 17.54 94.75 17.54" style="fill: #8b8a8c; fill-rule: evenodd;"/>
          <polygon points="68.45 16.1 66.58 16 65.6 17.84 67.41 19.14 69.19 17.46 68.45 16.1 68.45 16.1" style="fill: #8b8a8c; fill-rule: evenodd;"/>
          <polygon points="69.87 15.03 68.19 16 68.12 18.15 70.25 18.28 71.1 15.81 69.87 15.03 69.87 15.03" style="fill: #8b8a8c; fill-rule: evenodd;"/>
          <polygon points="73.59 15.34 70.46 15.34 68.94 17.57 72.04 19.01 74.91 16.92 73.59 15.34 73.59 15.34" style="fill: #8b8a8c; fill-rule: evenodd;"/>
          <polygon points="75.83 15.03 74.15 16 74.08 18.15 76.21 18.28 77.05 15.81 75.83 15.03 75.83 15.03" style="fill: #8b8a8c; fill-rule: evenodd;"/>
          <polygon points="79.91 17.18 79 15.14 76.19 14.75 75.57 17.16 78.62 18.47 79.91 17.18 79.91 17.18" style="fill: #8b8a8c; fill-rule: evenodd;"/>
          <polygon points="81.62 15.03 79.72 16 79.63 18.15 82.06 18.28 83.01 15.81 81.62 15.03 81.62 15.03" style="fill: #8b8a8c; fill-rule: evenodd;"/>
          <polygon points="85.64 15.26 83.53 14.37 81.83 16.07 83.49 18.31 86.06 17.12 85.64 15.26 85.64 15.26" style="fill: #8b8a8c; fill-rule: evenodd;"/>
          <polygon points="84.12 15.28 82.77 17.31 85.45 18.92 88.92 17.31 87.03 14.86 84.12 15.28 84.12 15.28" style="fill: #8b8a8c; fill-rule: evenodd;"/>
          <polygon points="90.34 14.86 88.84 16.29 89.2 18.5 91.4 18.05 91.75 15.32 90.34 14.86 90.34 14.86" style="fill: #8b8a8c; fill-rule: evenodd;"/>
          <polygon points="91.67 14.06 90.19 12.74 88.46 13.59 89.28 15.86 91.58 15.67 91.67 14.06 91.67 14.06" style="fill: #8b8a8c; fill-rule: evenodd;"/>
          <polygon points="78.45 15.06 77.24 12.71 73.51 12.27 72.69 15.04 76.74 16.54 78.45 15.06 78.45 15.06" style="fill: #8b8a8c; fill-rule: evenodd;"/>
          <polygon points="78.74 13.11 76.84 14.07 76.76 16.23 79.18 16.35 80.13 13.89 78.74 13.11 78.74 13.11" style="fill: #8b8a8c; fill-rule: evenodd;"/>
          <polygon points="82.76 13.33 80.65 12.44 78.95 14.14 80.62 16.38 83.18 15.2 82.76 13.33 82.76 13.33" style="fill: #8b8a8c; fill-rule: evenodd;"/>
          <polygon points="83.82 13.35 83.19 15.38 84.43 16.99 86.05 15.39 85.17 12.94 83.82 13.35 83.82 13.35" style="fill: #8b8a8c; fill-rule: evenodd;"/>
          <polygon points="87.46 12.94 85.96 14.37 86.32 16.58 88.52 16.13 88.87 13.4 87.46 12.94 87.46 12.94" style="fill: #8b8a8c; fill-rule: evenodd;"/>
          <polygon points="80.02 10.87 77.91 9.98 76.21 11.68 77.87 13.92 80.44 12.73 80.02 10.87 80.02 10.87" style="fill: #8b8a8c; fill-rule: evenodd;"/>
          <polygon points="81.07 10.89 80.44 12.92 81.69 14.53 83.3 12.92 82.42 10.48 81.07 10.89 81.07 10.89" style="fill: #8b8a8c; fill-rule: evenodd;"/>
          <polygon points="68.32 13.27 67.7 15.3 68.94 16.91 70.56 15.3 69.68 12.85 68.32 13.27 68.32 13.27" style="fill: #8b8a8c; fill-rule: evenodd;"/>
          <polygon points="83.63 11.11 82.56 13.14 84.69 14.75 87.46 13.15 85.96 10.7 83.63 11.11 83.63 11.11" style="fill: #8b8a8c; fill-rule: evenodd;"/>
          <polygon points="86.83 10.7 85.33 12.13 85.7 14.33 87.89 13.88 88.24 11.15 86.83 10.7 86.83 10.7" style="fill: #e2dfdf; fill-rule: evenodd;"/>
          <polygon points="80.75 8.44 78.84 9.4 78.76 11.55 81.18 11.68 82.14 9.21 80.75 8.44 80.75 8.44" style="fill: #8b8a8c; fill-rule: evenodd;"/>
          <polygon points="87.18 14.57 85.7 13.25 83.97 14.1 84.79 16.37 87.09 16.18 87.18 14.57 87.18 14.57" style="fill: #8b8a8c; fill-rule: evenodd;"/>
          <polygon points="79.33 13.86 78.7 15.89 79.94 17.51 81.56 15.9 80.68 13.45 79.33 13.86 79.33 13.86" style="fill: #8b8a8c; fill-rule: evenodd;"/>
          <polygon points="76.58 11.4 75.95 13.43 77.2 15.05 78.81 13.44 77.93 10.99 76.58 11.4 76.58 11.4" style="fill: #8b8a8c; fill-rule: evenodd;"/>
          <polygon points="78.7 11.62 78.07 13.65 79.31 15.26 80.93 13.66 80.05 11.21 78.7 11.62 78.7 11.62" style="fill: #8b8a8c; fill-rule: evenodd;"/>
          <polygon points="93.6 17.4 92.22 15.28 87.93 14.88 86.99 17.38 91.64 18.73 93.6 17.4 93.6 17.4" style="fill: #8b8a8c; fill-rule: evenodd;"/>
          <polygon points="82.06 13.86 81.34 16.42 82.78 18.46 84.64 16.43 83.3 12.92 82.06 13.86 82.06 13.86" style="fill: #8b8a8c; fill-rule: evenodd;"/>
          <polygon points="54.91 11.13 56.39 12.28 58.12 11.54 57.3 9.56 54.99 9.73 54.91 11.13 54.91 11.13" style="fill: #8b8a8c; fill-rule: evenodd;"/>
          <polygon points="81.01 11.03 82.88 11.12 83.86 9.52 82.05 8.38 80.27 9.85 81.01 11.03 81.01 11.03" style="fill: #8b8a8c; fill-rule: evenodd;"/>
          <polygon points="79.59 11.96 81.26 11.12 81.34 9.24 79.21 9.14 78.36 11.28 79.59 11.96 79.59 11.96" style="fill: #8b8a8c; fill-rule: evenodd;"/>
          <polygon points="75.87 11.69 79 11.69 80.52 9.75 77.41 8.5 74.55 10.32 75.87 11.69 75.87 11.69" style="fill: #8b8a8c; fill-rule: evenodd;"/>
          <polygon points="74.62 14.24 77.65 12.72 77.79 9.33 73.93 9.14 72.4 13.02 74.62 14.24 74.62 14.24" style="fill: #8b8a8c; fill-rule: evenodd;"/>
          <polygon points="69.55 10.09 70.46 11.87 73.27 12.2 73.89 10.1 70.83 8.97 69.55 10.09 69.55 10.09" style="fill: #8b8a8c; fill-rule: evenodd;"/>
          <polygon points="67.84 11.96 69.74 11.12 69.83 9.24 67.4 9.14 66.45 11.28 67.84 11.96 67.84 11.96" style="fill: #8b8a8c; fill-rule: evenodd;"/>
          <polygon points="63.82 11.77 65.93 12.54 67.63 11.06 65.96 9.11 63.4 10.14 63.82 11.77 63.82 11.77" style="fill: #8b8a8c; fill-rule: evenodd;"/>
          <polygon points="65.33 11.75 66.69 9.98 64.01 8.58 60.53 9.98 62.43 12.11 65.33 11.75 65.33 11.75" style="fill: #8b8a8c; fill-rule: evenodd;"/>
          <polygon points="59.12 12.11 60.62 10.86 60.25 8.94 58.06 9.33 57.71 11.71 59.12 12.11 59.12 12.11" style="fill: #8b8a8c; fill-rule: evenodd;"/>
          <polygon points="57.79 12.8 59.27 13.95 61 13.21 60.17 11.24 57.87 11.41 57.79 12.8 57.79 12.8" style="fill: #8b8a8c; fill-rule: evenodd;"/>
          <polygon points="70.72 13.63 72.62 12.8 72.7 10.92 70.28 10.81 69.32 12.96 70.72 13.63 70.72 13.63" style="fill: #8b8a8c; fill-rule: evenodd;"/>
          <polygon points="66.7 13.44 68.81 14.21 70.5 12.73 68.84 10.78 66.27 11.82 66.7 13.44 66.7 13.44" style="fill: #8b8a8c; fill-rule: evenodd;"/>
          <polygon points="65.64 13.42 66.27 11.66 65.03 10.25 63.41 11.65 64.29 13.78 65.64 13.42 65.64 13.42" style="fill: #8b8a8c; fill-rule: evenodd;"/>
          <polygon points="61.81 14.17 63.5 12.77 63.09 10.62 60.63 11.06 60.24 13.72 61.81 14.17 61.81 14.17" style="fill: #8b8a8c; fill-rule: evenodd;"/>
          <polygon points="69.44 15.59 71.55 16.36 73.25 14.88 71.59 12.93 69.02 13.96 69.44 15.59 69.44 15.59" style="fill: #8b8a8c; fill-rule: evenodd;"/>
          <polygon points="68.39 15.57 69.02 13.8 67.77 12.4 66.16 13.8 67.03 15.93 68.39 15.57 68.39 15.57" style="fill: #8b8a8c; fill-rule: evenodd;"/>
          <polygon points="81.13 13.5 81.76 11.73 80.52 10.33 78.9 11.73 79.78 13.86 81.13 13.5 81.13 13.5" style="fill: #8b8a8c; fill-rule: evenodd;"/>
          <polygon points="78.64 12.63 80.15 11.39 79.78 9.46 77.59 9.85 77.24 12.23 78.64 12.63 78.64 12.63" style="fill: #d4d1d0; fill-rule: evenodd;"/>
          <polygon points="66.27 15.37 66.9 13.61 65.66 12.2 64.04 13.6 64.92 15.73 66.27 15.37 66.27 15.37" style="fill: #8b8a8c; fill-rule: evenodd;"/>
          <polygon points="68.71 17.7 70.61 16.87 70.7 14.99 68.28 14.88 67.32 17.03 68.71 17.7 68.71 17.7" style="fill: #8b8a8c; fill-rule: evenodd;"/>
          <polygon points="62.28 12.36 63.76 13.51 65.49 12.77 64.66 10.8 62.36 10.96 62.28 12.36 62.28 12.36" style="fill: #8b8a8c; fill-rule: evenodd;"/>
          <polygon points="70.13 12.98 70.76 11.21 69.51 9.81 67.9 11.21 68.78 13.34 70.13 12.98 70.13 12.98" style="fill: #8b8a8c; fill-rule: evenodd;"/>
          <polygon points="72.88 14.98 73.51 12.53 72.26 10.59 70.65 12.53 71.52 15.48 72.88 14.98 72.88 14.98" style="fill: #8b8a8c; fill-rule: evenodd;"/>
          <polygon points="56.52 9.7 57.9 12.07 62.18 12.52 63.12 9.72 58.47 8.2 56.52 9.7 56.52 9.7" style="fill: #8b8a8c; fill-rule: evenodd;"/>
          <polygon points="67.49 12.98 68.12 10.75 66.87 8.97 65.26 10.74 66.14 13.44 67.49 12.98 67.49 12.98" style="fill: #8b8a8c; fill-rule: evenodd;"/>
          <polygon points="55.68 7.55 57.16 6.23 58.89 7.08 58.07 9.35 55.77 9.16 55.68 7.55 55.68 7.55" style="fill: #8b8a8c; fill-rule: evenodd;"/>
          <polygon points="81.78 7.66 83.65 7.57 84.63 9.41 82.82 10.71 81.04 9.03 81.78 7.66 81.78 7.66" style="fill: #8b8a8c; fill-rule: evenodd;"/>
          <polygon points="80.36 6.6 82.04 7.56 82.11 9.72 79.98 9.84 79.13 7.38 80.36 6.6 80.36 6.6" style="fill: #8b8a8c; fill-rule: evenodd;"/>
          <polygon points="76.64 6.91 79.77 6.9 81.29 9.14 78.19 10.58 75.32 8.48 76.64 6.91 76.64 6.91" style="fill: #8b8a8c; fill-rule: evenodd;"/>
          <polygon points="74.4 6.6 76.08 7.56 76.15 9.72 74.02 9.84 73.17 7.38 74.4 6.6 74.4 6.6" style="fill: #8b8a8c; fill-rule: evenodd;"/>
          <polygon points="70.32 8.75 71.23 6.71 74.04 6.32 74.66 8.73 71.61 10.03 70.32 8.75 70.32 8.75" style="fill: #8b8a8c; fill-rule: evenodd;"/>
          <polygon points="68.61 6.6 70.51 7.56 70.6 9.72 68.17 9.84 67.22 7.38 68.61 6.6 68.61 6.6" style="fill: #8b8a8c; fill-rule: evenodd;"/>
          <polygon points="64.59 6.82 66.7 5.93 68.4 7.63 66.73 9.87 64.17 8.69 64.59 6.82 64.59 6.82" style="fill: #8b8a8c; fill-rule: evenodd;"/>
          <polygon points="66.11 6.84 67.46 8.87 64.78 10.48 61.31 8.88 63.2 6.43 66.11 6.84 66.11 6.84" style="fill: #8b8a8c; fill-rule: evenodd;"/>
          <polygon points="59.89 6.43 61.39 7.86 61.03 10.06 58.83 9.61 58.48 6.88 59.89 6.43 59.89 6.43" style="fill: #8b8a8c; fill-rule: evenodd;"/>
          <polygon points="58.56 5.63 60.04 4.31 61.77 5.16 60.95 7.42 58.65 7.23 58.56 5.63 58.56 5.63" style="fill: #8b8a8c; fill-rule: evenodd;"/>
          <polygon points="73.2 6.82 74.11 4.78 76.92 4.39 77.54 6.81 74.48 8.11 73.2 6.82 73.2 6.82" style="fill: #8b8a8c; fill-rule: evenodd;"/>
          <polygon points="71.49 4.67 73.39 5.64 73.48 7.79 71.05 7.92 70.09 5.45 71.49 4.67 71.49 4.67" style="fill: #8b8a8c; fill-rule: evenodd;"/>
          <polygon points="67.47 4.9 69.58 4.01 71.28 5.71 69.61 7.95 67.05 6.76 67.47 4.9 67.47 4.9" style="fill: #8b8a8c; fill-rule: evenodd;"/>
          <polygon points="66.41 4.92 67.04 6.95 65.8 8.56 64.18 6.95 65.06 4.5 66.41 4.92 66.41 4.92" style="fill: #8b8a8c; fill-rule: evenodd;"/>
          <polygon points="62.76 4.5 64.27 5.93 63.9 8.14 60.47 7.69 61.36 4.96 62.76 4.5 62.76 4.5" style="fill: #8b8a8c; fill-rule: evenodd;"/>
          <polygon points="74.23 2.21 76.13 3.17 76.22 5.33 73.8 5.46 72.84 2.99 74.23 2.21 74.23 2.21" style="fill: #e2dfdf; fill-rule: evenodd;"/>
          <polygon points="70.21 2.43 72.32 1.55 74.02 3.24 72.36 5.49 69.79 4.3 70.21 2.43 70.21 2.43" style="fill: #8b8a8c; fill-rule: evenodd;"/>
          <polygon points="69.9 2.45 70.73 4.48 69.08 6.1 66.93 4.49 68.1 2.04 69.9 2.45 69.9 2.45" style="fill: #8b8a8c; fill-rule: evenodd;"/>
          <polygon points="80.88 6.07 81.51 8.1 80.27 9.71 78.65 8.1 79.53 5.65 80.88 6.07 80.88 6.07" style="fill: #8b8a8c; fill-rule: evenodd;"/>
          <polygon points="78.26 4.42 79.76 5.85 79.4 8.05 77.2 7.61 76.85 4.87 78.26 4.42 78.26 4.42" style="fill: #d4d1d0; fill-rule: evenodd;"/>
          <polygon points="67.04 2.68 68.97 4.26 66.43 6.32 64.81 4.71 65.69 2.26 67.04 2.68 67.04 2.68" style="fill: #8b8a8c; fill-rule: evenodd;"/>
          <polygon points="63.4 2.26 64.9 3.69 64.54 5.9 62.34 5.45 61.99 2.72 63.4 2.26 63.4 2.26" style="fill: #e2dfdf; fill-rule: evenodd;"/>
          <polygon points="69.48 0 71.39 .96 71.47 3.12 69.05 3.24 68.09 .78 69.48 0 69.48 0" style="fill: #8b8a8c; fill-rule: evenodd;"/>
          <polygon points="63.05 6.14 65.25 3.49 66.26 5.67 65.44 7.94 63.14 7.75 63.05 6.14 63.05 6.14" style="fill: #8b8a8c; fill-rule: evenodd;"/>
          <polygon points="70.91 5.58 71.53 8.32 70.29 10.51 68.67 8.33 69.55 5.01 70.91 5.58 70.91 5.58" style="fill: #8b8a8c; fill-rule: evenodd;"/>
          <polygon points="73.91 3.01 74.61 5.28 73.22 7.08 71.42 5.28 72.4 2.55 73.91 3.01 73.91 3.01" style="fill: #8b8a8c; fill-rule: evenodd;"/>
          <polygon points="71.53 3.19 72.16 5.22 70.92 6.83 69.3 5.22 70.18 2.77 71.53 3.19 71.53 3.19" style="fill: #8b8a8c; fill-rule: evenodd;"/>
          <polygon points="65.41 6.16 66.91 7.59 66.55 9.8 64.35 9.35 64 6.62 65.41 6.16 65.41 6.16" style="fill: #d4d1d0; fill-rule: evenodd;"/>
          <polygon points="57.29 9.2 58.67 6.47 62.95 5.95 63.9 9.17 59.24 10.92 57.29 9.2 57.29 9.2" style="fill: #8b8a8c; fill-rule: evenodd;"/>
          <polygon points="68.26 5.42 68.89 7.99 67.64 10.03 66.03 7.99 66.91 4.9 68.26 5.42 68.26 5.42" style="fill: #8b8a8c; fill-rule: evenodd;"/>
          <polygon points="73.79 8.17 75.23 6.68 76.27 7.35 76.97 9.26 74.23 9.58 73.79 8.17 73.79 8.17" style="fill: #d4d1d0; fill-rule: evenodd;"/>
          <polygon points="82.04 10.95 83.48 9.46 85.69 9.84 85.22 12.03 82.48 12.35 82.04 10.95 82.04 10.95" style="fill: #8b8a8c; fill-rule: evenodd;"/>
          <polygon points="66.16 2.46 67.59 .96 69.8 1.33 69.35 3.52 66.39 3.17 66.16 2.46 66.16 2.46" style="fill: #e2dfdf; fill-rule: evenodd;"/>
          <polygon points="70.24 3.97 68.74 5.4 69.51 7.11 71.3 7.16 70.96 5.44 70.24 3.97 70.24 3.97" style="fill: #d4d1d0; fill-rule: evenodd;"/>
          <polygon points="66.09 12.94 66.09 11.92 67.18 10.54 64.99 10.93 64.64 13.31 66.09 12.94 66.09 12.94" style="fill: #d4d1d0; fill-rule: evenodd;"/>
          <polygon points="82.34 11.21 80.84 12.64 81.2 14.84 82.71 12.85 83.75 11.66 82.34 11.21 82.34 11.21" style="fill: #d4d1d0; fill-rule: evenodd;"/>
          <polygon points="61.5 8.11 59.47 7.69 57.87 9.26 59.49 10.8 61.93 9.53 61.5 8.11 61.5 8.11" style="fill: #d4d1d0; fill-rule: evenodd;"/>
          <polygon points="60.44 13.03 61.94 11.79 61.58 9.87 59.38 10.26 59.03 12.64 60.44 13.03 60.44 13.03" style="fill: #e2dfdf; fill-rule: evenodd;"/>
          <polygon points="56.1 10.3 55.12 11.23 55.36 12.66 56.78 12.37 57.01 10.6 56.1 10.3 56.1 10.3" style="fill: #e2dfdf; fill-rule: evenodd;"/>
          <polygon points="71.62 12.29 72.03 11.11 71.21 10.18 70.13 11.11 70.72 12.53 71.62 12.29 71.62 12.29" style="fill: #e2dfdf; fill-rule: evenodd;"/>
          <polygon points="71.36 4.02 72.48 3.53 72.53 2.42 71.1 2.36 70.54 3.62 71.36 4.02 71.36 4.02" style="fill: #e2dfdf; fill-rule: evenodd;"/>
          <polygon points="57.94 14.53 58.11 13.32 57.2 12.7 56.4 13.87 57.17 15.02 57.94 14.53 57.94 14.53" style="fill: #e2dfdf; fill-rule: evenodd;"/>
          <polygon points="74.49 15.5 75.51 16.18 76.47 15.63 75.75 14.39 74.39 14.6 74.49 15.5 74.49 15.5" style="fill: #e2dfdf; fill-rule: evenodd;"/>
          <polygon points="81.85 10.35 83.42 9.66 83.49 8.11 81.49 8.02 80.7 9.8 81.85 10.35 81.85 10.35" style="fill: #e2dfdf; fill-rule: evenodd;"/>
        </g>
        <g>
          <polygon points="67.79 21.67 31.39 21.67 48.98 16.96 67.79 21.67 67.79 21.67" style="fill: #8b8a8c; fill-rule: evenodd;"/>
          <polygon points="51.03 19.98 50.01 19.19 48.82 19.7 49.38 21.06 50.97 20.94 51.03 19.98 51.03 19.98" style="fill: #8b8a8c; fill-rule: evenodd;"/>
          <polygon points="34.02 19.41 32.86 19.98 32.81 21.28 34.28 21.35 34.86 19.87 34.02 19.41 34.02 19.41" style="fill: #8b8a8c; fill-rule: evenodd;"/>
          <polygon points="37.1 19.59 34.6 19.59 33.38 20.74 35.87 21.48 38.17 20.4 37.1 19.59 37.1 19.59" style="fill: #8b8a8c; fill-rule: evenodd;"/>
          <polygon points="38.13 19.41 36.97 19.98 36.92 21.28 38.39 21.35 38.97 19.87 38.13 19.41 38.13 19.41" style="fill: #8b8a8c; fill-rule: evenodd;"/>
          <polygon points="40.94 20.7 40.31 19.47 38.37 19.24 37.94 20.68 40.05 21.47 40.94 20.7 40.94 20.7" style="fill: #8b8a8c; fill-rule: evenodd;"/>
          <polygon points="42.12 19.41 40.81 19.98 40.75 21.28 42.42 21.35 43.08 19.87 42.12 19.41 42.12 19.41" style="fill: #8b8a8c; fill-rule: evenodd;"/>
          <polygon points="44.89 19.54 43.43 19.01 42.26 20.03 43.41 21.37 45.18 20.66 44.89 19.54 44.89 19.54" style="fill: #8b8a8c; fill-rule: evenodd;"/>
          <polygon points="43.84 19.53 42.91 20.66 44.76 21.55 47.15 20.66 45.85 19.3 43.84 19.53 43.84 19.53" style="fill: #8b8a8c; fill-rule: evenodd;"/>
          <polygon points="48.13 19.3 47.09 20.16 47.34 21.49 48.85 21.22 49.1 19.58 48.13 19.3 48.13 19.3" style="fill: #8b8a8c; fill-rule: evenodd;"/>
          <polygon points="49.04 18.82 48.02 18.03 46.83 18.54 47.4 19.9 48.99 19.79 49.04 18.82 49.04 18.82" style="fill: #8b8a8c; fill-rule: evenodd;"/>
          <polygon points="38.95 19.54 38.33 18.32 36.39 18.08 35.96 19.53 38.07 20.31 38.95 19.54 38.95 19.54" style="fill: #8b8a8c; fill-rule: evenodd;"/>
          <polygon points="40.13 18.25 38.82 18.83 38.76 20.12 40.43 20.2 41.09 18.72 40.13 18.25 40.13 18.25" style="fill: #8b8a8c; fill-rule: evenodd;"/>
          <polygon points="42.91 18.39 41.45 17.85 40.28 18.87 41.43 20.22 43.19 19.51 42.91 18.39 42.91 18.39" style="fill: #8b8a8c; fill-rule: evenodd;"/>
          <polygon points="43.63 18.4 43.2 19.62 44.06 20.58 45.17 19.62 44.56 18.15 43.63 18.4 43.63 18.4" style="fill: #8b8a8c; fill-rule: evenodd;"/>
          <polygon points="46.15 18.15 45.11 19.01 45.36 20.33 46.87 20.06 47.11 18.42 46.15 18.15 46.15 18.15" style="fill: #8b8a8c; fill-rule: evenodd;"/>
          <polygon points="38.24 16.77 36.93 17.35 36.87 18.64 38.54 18.72 39.2 17.24 38.24 16.77 38.24 16.77" style="fill: #e2dfdf; fill-rule: evenodd;"/>
          <polygon points="41.01 16.91 39.56 16.37 38.39 17.39 39.53 18.74 41.3 18.03 41.01 16.91 41.01 16.91" style="fill: #8b8a8c; fill-rule: evenodd;"/>
          <polygon points="41.74 16.92 41.31 18.14 42.16 19.11 43.28 18.14 42.67 16.67 41.74 16.92 41.74 16.92" style="fill: #8b8a8c; fill-rule: evenodd;"/>
          <polygon points="35.47 18.1 34.43 18.96 34.68 20.28 36.19 20.01 36.44 18.37 35.47 18.1 35.47 18.1" style="fill: #d4d1d0; fill-rule: evenodd;"/>
          <polygon points="43.2 17.05 42.76 18.27 43.62 19.24 44.73 18.27 44.13 16.8 43.2 17.05 43.2 17.05" style="fill: #8b8a8c; fill-rule: evenodd;"/>
          <polygon points="45.71 16.8 44.67 17.66 44.93 18.99 46.44 18.72 46.68 17.08 45.71 16.8 45.71 16.8" style="fill: #e2dfdf; fill-rule: evenodd;"/>
          <polygon points="41.51 15.45 40.2 16.03 40.14 17.32 41.82 17.39 42.47 15.91 41.51 15.45 41.51 15.45" style="fill: #8b8a8c; fill-rule: evenodd;"/>
          <polygon points="45.95 19.13 44.93 18.34 43.74 18.85 44.3 20.21 45.89 20.1 45.95 19.13 45.95 19.13" style="fill: #8b8a8c; fill-rule: evenodd;"/>
          <polygon points="40.54 18.7 40.1 19.92 40.96 20.89 42.07 19.93 41.47 18.46 40.54 18.7 40.54 18.7" style="fill: #8b8a8c; fill-rule: evenodd;"/>
          <polygon points="38.64 17.23 38.21 18.44 39.07 19.41 40.18 18.45 39.58 16.98 38.64 17.23 38.64 17.23" style="fill: #8b8a8c; fill-rule: evenodd;"/>
          <polygon points="40.1 17.36 39.67 18.58 40.53 19.55 41.64 18.58 41.03 17.11 40.1 17.36 40.1 17.36" style="fill: #8b8a8c; fill-rule: evenodd;"/>
          <polygon points="42.62 17.11 41.58 17.97 41.83 19.29 43.34 19.02 43.58 17.39 42.62 17.11 42.62 17.11" style="fill: #d4d1d0; fill-rule: evenodd;"/>
          <polygon points="49.92 20.63 48.97 19.28 46.02 19.02 45.37 20.62 48.58 21.49 49.92 20.63 49.92 20.63" style="fill: #8b8a8c; fill-rule: evenodd;"/>
          <polygon points="42.36 18.7 41.92 20.24 42.78 21.47 43.9 20.24 43.29 18.39 42.36 18.7 42.36 18.7" style="fill: #8b8a8c; fill-rule: evenodd;"/>
          <polygon points="51.03 19.68 50.01 18.77 48.82 19.35 49.38 20.92 50.97 20.79 51.03 19.68 51.03 19.68" style="fill: #8b8a8c; fill-rule: evenodd;"/>
          <polygon points="32.5 19.69 31.4 20.36 31.49 21.7 32.98 21.68 33.41 20.12 32.5 19.69 32.5 19.69" style="fill: #8b8a8c; fill-rule: evenodd;"/>
          <polygon points="34.02 19.02 32.86 19.69 32.81 21.17 34.28 21.26 34.86 19.56 34.02 19.02 34.02 19.02" style="fill: #8b8a8c; fill-rule: evenodd;"/>
          <polygon points="38.13 19.02 36.97 19.69 36.92 21.17 38.39 21.26 38.97 19.56 38.13 19.02 38.13 19.02" style="fill: #8b8a8c; fill-rule: evenodd;"/>
          <polygon points="40.94 20.5 40.31 19.1 38.37 18.83 37.94 20.49 40.05 21.39 40.94 20.5 40.94 20.5" style="fill: #8b8a8c; fill-rule: evenodd;"/>
          <polygon points="42.12 19.02 40.81 19.69 40.75 21.17 42.42 21.26 43.08 19.56 42.12 19.02 42.12 19.02" style="fill: #8b8a8c; fill-rule: evenodd;"/>
          <polygon points="44.89 19.17 43.43 18.56 42.26 19.73 43.41 21.28 45.18 20.46 44.89 19.17 44.89 19.17" style="fill: #8b8a8c; fill-rule: evenodd;"/>
          <polygon points="43.87 18.97 42.94 20.37 44.78 21.49 47.18 20.38 45.88 18.69 43.87 18.97 43.87 18.97" style="fill: #8b8a8c; fill-rule: evenodd;"/>
          <polygon points="52.73 13.88 51.69 14.87 51.94 16.39 53.45 16.08 53.69 14.2 52.73 13.88 52.73 13.88" style="fill: #8b8a8c; fill-rule: evenodd;"/>
          <polygon points="49.04 18.35 48.02 17.44 46.83 18.03 47.4 19.59 48.99 19.46 49.04 18.35 49.04 18.35" style="fill: #8b8a8c; fill-rule: evenodd;"/>
          <polygon points="38.95 19.18 38.33 17.77 36.39 17.5 35.96 19.16 38.07 20.06 38.95 19.18 38.95 19.18" style="fill: #8b8a8c; fill-rule: evenodd;"/>
          <polygon points="40.13 17.69 38.82 18.36 38.76 19.84 40.43 19.93 41.09 18.23 40.13 17.69 40.13 17.69" style="fill: #8b8a8c; fill-rule: evenodd;"/>
          <polygon points="42.91 17.85 41.45 17.24 40.28 18.41 41.43 19.95 43.19 19.14 42.91 17.85 42.91 17.85" style="fill: #8b8a8c; fill-rule: evenodd;"/>
          <polygon points="43.63 17.86 43.2 19.26 44.06 20.37 45.17 19.26 44.56 17.58 43.63 17.86 43.63 17.86" style="fill: #8b8a8c; fill-rule: evenodd;"/>
          <polygon points="46.15 17.58 45.11 18.56 45.36 20.08 46.87 19.77 47.11 17.89 46.15 17.58 46.15 17.58" style="fill: #8b8a8c; fill-rule: evenodd;"/>
          <polygon points="38.24 16 36.93 16.66 36.87 18.15 38.54 18.23 39.2 16.53 38.24 16 38.24 16" style="fill: #e2dfdf; fill-rule: evenodd;"/>
          <polygon points="41.01 16.15 39.56 15.54 38.39 16.71 39.53 18.25 41.3 17.44 41.01 16.15 41.01 16.15" style="fill: #8b8a8c; fill-rule: evenodd;"/>
          <polygon points="41.74 16.17 41.31 17.56 42.16 18.68 43.28 17.57 42.67 15.88 41.74 16.17 41.74 16.17" style="fill: #8b8a8c; fill-rule: evenodd;"/>
          <polygon points="35.47 17.52 34.43 18.5 34.68 20.02 36.19 19.72 36.44 17.83 35.47 17.52 35.47 17.52" style="fill: #d4d1d0; fill-rule: evenodd;"/>
          <polygon points="43.2 16.32 42.76 17.72 43.62 18.83 44.73 17.72 44.13 16.03 43.2 16.32 43.2 16.32" style="fill: #8b8a8c; fill-rule: evenodd;"/>
          <polygon points="41.51 14.47 40.2 15.14 40.14 16.62 41.82 16.71 42.47 15.01 41.51 14.47 41.51 14.47" style="fill: #8b8a8c; fill-rule: evenodd;"/>
          <polygon points="45.95 18.71 44.93 17.79 43.74 18.38 44.3 19.94 45.89 19.81 45.95 18.71 45.95 18.71" style="fill: #8b8a8c; fill-rule: evenodd;"/>
          <polygon points="40.54 18.22 40.1 19.61 40.96 20.73 42.07 19.62 41.47 17.93 40.54 18.22 40.54 18.22" style="fill: #8b8a8c; fill-rule: evenodd;"/>
          <polygon points="38.64 16.52 38.21 17.92 39.07 19.03 40.18 17.92 39.58 16.23 38.64 16.52 38.64 16.52" style="fill: #8b8a8c; fill-rule: evenodd;"/>
          <polygon points="40.1 16.67 39.67 18.07 40.53 19.18 41.64 18.07 41.03 16.38 40.1 16.67 40.1 16.67" style="fill: #8b8a8c; fill-rule: evenodd;"/>
          <polygon points="49.78 19.96 48.67 17.76 45.22 17.34 44.46 19.94 48.21 21.34 49.78 19.96 49.78 19.96" style="fill: #8b8a8c; fill-rule: evenodd;"/>
          <polygon points="42.36 18.21 41.92 19.98 42.78 21.39 43.9 19.98 43.29 17.85 42.36 18.21 42.36 18.21" style="fill: #8b8a8c; fill-rule: evenodd;"/>
          <polygon points="67.97 20.6 67.03 19.61 65.79 20.09 66.23 21.7 67.82 21.7 67.97 20.6 67.97 20.6" style="fill: #8b8a8c; fill-rule: evenodd;"/>
          <polygon points="49.84 19.6 48.55 19.53 47.88 20.8 49.13 21.7 50.35 20.54 49.84 19.6 49.84 19.6" style="fill: #8b8a8c; fill-rule: evenodd;"/>
          <polygon points="50.82 18.87 49.67 19.53 49.61 21.02 51.09 21.1 51.67 19.4 50.82 18.87 50.82 18.87" style="fill: #8b8a8c; fill-rule: evenodd;"/>
          <polygon points="53.38 19.08 51.23 19.08 50.18 20.62 52.32 21.61 54.29 20.17 53.38 19.08 53.38 19.08" style="fill: #8b8a8c; fill-rule: evenodd;"/>
          <polygon points="54.93 18.87 53.77 19.53 53.72 21.02 55.19 21.1 55.77 19.4 54.93 18.87 54.93 18.87" style="fill: #8b8a8c; fill-rule: evenodd;"/>
          <polygon points="57.74 20.35 57.11 18.94 55.18 18.68 54.75 20.34 56.85 21.24 57.74 20.35 57.74 20.35" style="fill: #8b8a8c; fill-rule: evenodd;"/>
          <polygon points="58.92 18.87 57.61 19.53 57.55 21.02 59.22 21.1 59.88 19.4 58.92 18.87 58.92 18.87" style="fill: #8b8a8c; fill-rule: evenodd;"/>
          <polygon points="61.69 19.02 60.24 18.41 59.07 19.58 60.21 21.12 61.98 20.31 61.69 19.02 61.69 19.02" style="fill: #8b8a8c; fill-rule: evenodd;"/>
          <polygon points="60.64 19.04 59.71 20.43 61.56 21.55 63.95 20.44 62.65 18.75 60.64 19.04 60.64 19.04" style="fill: #8b8a8c; fill-rule: evenodd;"/>
          <polygon points="64.93 18.75 63.9 19.74 64.15 21.26 65.66 20.95 65.9 19.07 64.93 18.75 64.93 18.75" style="fill: #8b8a8c; fill-rule: evenodd;"/>
          <polygon points="65.84 18.2 64.82 17.29 63.64 17.87 64.2 19.44 65.79 19.31 65.84 18.2 65.84 18.2" style="fill: #8b8a8c; fill-rule: evenodd;"/>
          <polygon points="56.73 18.89 55.9 17.27 53.33 16.96 52.76 18.87 55.56 19.91 56.73 18.89 56.73 18.89" style="fill: #8b8a8c; fill-rule: evenodd;"/>
          <polygon points="56.94 17.54 55.63 18.21 55.57 19.69 57.24 19.78 57.9 18.08 56.94 17.54 56.94 17.54" style="fill: #8b8a8c; fill-rule: evenodd;"/>
          <polygon points="59.71 17.69 58.25 17.08 57.08 18.25 58.23 19.8 60 18.98 59.71 17.69 59.71 17.69" style="fill: #8b8a8c; fill-rule: evenodd;"/>
          <polygon points="60.43 17.71 60 19.11 60.86 20.22 61.97 19.11 61.37 17.42 60.43 17.71 60.43 17.71" style="fill: #8b8a8c; fill-rule: evenodd;"/>
          <polygon points="62.95 17.42 61.91 18.41 62.16 19.93 63.67 19.62 63.92 17.74 62.95 17.42 62.95 17.42" style="fill: #8b8a8c; fill-rule: evenodd;"/>
          <polygon points="57.82 16 56.36 15.39 55.19 16.56 56.34 18.1 58.1 17.28 57.82 16 57.82 16" style="fill: #8b8a8c; fill-rule: evenodd;"/>
          <polygon points="58.54 16.01 58.11 17.41 58.97 18.52 60.08 17.41 59.47 15.73 58.54 16.01 58.54 16.01" style="fill: #8b8a8c; fill-rule: evenodd;"/>
          <polygon points="49.76 17.65 49.32 19.05 50.18 20.16 51.3 19.05 50.69 17.36 49.76 17.65 49.76 17.65" style="fill: #8b8a8c; fill-rule: evenodd;"/>
          <polygon points="60.31 16.17 59.57 17.56 61.04 18.68 62.95 17.57 61.91 15.88 60.31 16.17 60.31 16.17" style="fill: #8b8a8c; fill-rule: evenodd;"/>
          <polygon points="62.51 15.88 61.48 16.87 61.73 18.39 63.24 18.08 63.48 16.19 62.51 15.88 62.51 15.88" style="fill: #e2dfdf; fill-rule: evenodd;"/>
          <polygon points="58.32 14.32 57.01 14.99 56.95 16.47 58.62 16.56 59.28 14.86 58.32 14.32 58.32 14.32" style="fill: #8b8a8c; fill-rule: evenodd;"/>
          <polygon points="62.75 18.55 61.73 17.64 60.54 18.23 61.11 19.79 62.69 19.66 62.75 18.55 62.75 18.55" style="fill: #8b8a8c; fill-rule: evenodd;"/>
          <polygon points="57.34 18.06 56.9 19.46 57.76 20.57 58.88 19.46 58.27 17.78 57.34 18.06 57.34 18.06" style="fill: #8b8a8c; fill-rule: evenodd;"/>
          <polygon points="55.45 16.37 55.01 17.76 55.87 18.88 56.99 17.77 56.38 16.08 55.45 16.37 55.45 16.37" style="fill: #8b8a8c; fill-rule: evenodd;"/>
          <polygon points="56.9 16.52 56.47 17.92 57.33 19.03 58.44 17.92 57.84 16.23 56.9 16.52 56.9 16.52" style="fill: #8b8a8c; fill-rule: evenodd;"/>
          <polygon points="67.17 20.5 66.22 19.04 63.27 18.76 62.62 20.48 65.83 21.41 67.17 20.5 67.17 20.5" style="fill: #8b8a8c; fill-rule: evenodd;"/>
          <polygon points="59.23 18.06 58.73 19.83 59.72 21.23 61 19.83 60.08 17.41 59.23 18.06 59.23 18.06" style="fill: #8b8a8c; fill-rule: evenodd;"/>
          <polygon points="40.51 16.18 41.53 16.97 42.72 16.46 42.16 15.1 40.57 15.21 40.51 16.18 40.51 16.18" style="fill: #8b8a8c; fill-rule: evenodd;"/>
          <polygon points="58.5 16.11 59.79 16.17 60.46 15.07 59.22 14.28 57.99 15.29 58.5 16.11 58.5 16.11" style="fill: #8b8a8c; fill-rule: evenodd;"/>
          <polygon points="57.52 16.75 58.68 16.17 58.73 14.88 57.26 14.8 56.67 16.28 57.52 16.75 57.52 16.75" style="fill: #8b8a8c; fill-rule: evenodd;"/>
          <polygon points="54.96 16.56 57.12 16.57 58.16 15.22 56.02 14.36 54.05 15.62 54.96 16.56 54.96 16.56" style="fill: #8b8a8c; fill-rule: evenodd;"/>
          <polygon points="54.1 18.32 56.18 17.28 56.28 14.94 53.62 14.8 52.57 17.48 54.1 18.32 54.1 18.32" style="fill: #8b8a8c; fill-rule: evenodd;"/>
          <polygon points="50.6 15.46 51.23 16.68 53.17 16.92 53.59 15.47 51.49 14.69 50.6 15.46 50.6 15.46" style="fill: #8b8a8c; fill-rule: evenodd;"/>
          <polygon points="49.42 16.75 50.73 16.17 50.79 14.88 49.12 14.8 48.46 16.28 49.42 16.75 49.42 16.75" style="fill: #8b8a8c; fill-rule: evenodd;"/>
          <polygon points="46.65 16.62 48.11 17.15 49.27 16.13 48.13 14.78 46.36 15.5 46.65 16.62 46.65 16.62" style="fill: #8b8a8c; fill-rule: evenodd;"/>
          <polygon points="47.7 16.6 48.63 15.39 46.78 14.42 44.39 15.38 45.69 16.85 47.7 16.6 47.7 16.6" style="fill: #8b8a8c; fill-rule: evenodd;"/>
          <polygon points="43.41 16.85 44.45 15.99 44.19 14.67 42.68 14.94 42.44 16.58 43.41 16.85 43.41 16.85" style="fill: #8b8a8c; fill-rule: evenodd;"/>
          <polygon points="42.5 17.33 43.52 18.12 44.71 17.61 44.14 16.25 42.55 16.37 42.5 17.33 42.5 17.33" style="fill: #8b8a8c; fill-rule: evenodd;"/>
          <polygon points="51.4 17.9 52.72 17.33 52.78 16.03 51.1 15.96 50.44 17.44 51.4 17.9 51.4 17.9" style="fill: #8b8a8c; fill-rule: evenodd;"/>
          <polygon points="48.63 17.77 50.09 18.3 51.26 17.28 50.11 15.94 48.34 16.65 48.63 17.77 48.63 17.77" style="fill: #8b8a8c; fill-rule: evenodd;"/>
          <polygon points="47.91 17.76 48.34 16.54 47.48 15.57 46.37 16.54 46.98 18.01 47.91 17.76 47.91 17.76" style="fill: #8b8a8c; fill-rule: evenodd;"/>
          <polygon points="45.27 18.27 46.43 17.31 46.15 15.82 44.45 16.13 44.18 17.97 45.27 18.27 45.27 18.27" style="fill: #8b8a8c; fill-rule: evenodd;"/>
          <polygon points="50.53 19.25 51.98 19.78 53.15 18.76 52.01 17.42 50.24 18.13 50.53 19.25 50.53 19.25" style="fill: #8b8a8c; fill-rule: evenodd;"/>
          <polygon points="49.8 19.24 50.23 18.02 49.38 17.05 48.26 18.02 48.87 19.49 49.8 19.24 49.8 19.24" style="fill: #8b8a8c; fill-rule: evenodd;"/>
          <polygon points="58.59 17.81 59.02 16.59 58.16 15.62 57.05 16.59 57.65 18.06 58.59 17.81 58.59 17.81" style="fill: #8b8a8c; fill-rule: evenodd;"/>
          <polygon points="56.87 17.21 57.9 16.35 57.65 15.03 56.14 15.3 55.9 16.94 56.87 17.21 56.87 17.21" style="fill: #d4d1d0; fill-rule: evenodd;"/>
          <polygon points="48.34 19.1 48.78 17.89 47.92 16.92 46.8 17.88 47.41 19.35 48.34 19.1 48.34 19.1" style="fill: #8b8a8c; fill-rule: evenodd;"/>
          <polygon points="50.02 20.71 51.33 20.13 51.39 18.84 49.72 18.76 49.07 20.24 50.02 20.71 50.02 20.71" style="fill: #8b8a8c; fill-rule: evenodd;"/>
          <polygon points="45.59 17.02 46.61 17.82 47.8 17.31 47.23 15.95 45.65 16.06 45.59 17.02 45.59 17.02" style="fill: #8b8a8c; fill-rule: evenodd;"/>
          <polygon points="51 17.45 51.44 16.23 50.58 15.27 49.46 16.23 50.07 17.7 51 17.45 51 17.45" style="fill: #8b8a8c; fill-rule: evenodd;"/>
          <polygon points="52.89 18.83 53.33 17.15 52.47 15.8 51.36 17.14 51.96 19.18 52.89 18.83 52.89 18.83" style="fill: #8b8a8c; fill-rule: evenodd;"/>
          <polygon points="41.62 15.19 42.57 16.83 45.52 17.14 46.17 15.2 42.96 14.16 41.62 15.19 41.62 15.19" style="fill: #8b8a8c; fill-rule: evenodd;"/>
          <polygon points="49.18 17.46 49.61 15.92 48.76 14.69 47.64 15.91 48.25 17.77 49.18 17.46 49.18 17.46" style="fill: #8b8a8c; fill-rule: evenodd;"/>
          <polygon points="41.04 13.71 42.06 12.8 43.25 13.39 42.69 14.95 41.1 14.82 41.04 13.71 41.04 13.71" style="fill: #8b8a8c; fill-rule: evenodd;"/>
          <polygon points="59.03 13.79 60.32 13.72 61 14.99 59.75 15.89 58.52 14.73 59.03 13.79 59.03 13.79" style="fill: #8b8a8c; fill-rule: evenodd;"/>
          <polygon points="58.05 13.06 59.21 13.72 59.26 15.2 57.79 15.29 57.21 13.59 58.05 13.06 58.05 13.06" style="fill: #8b8a8c; fill-rule: evenodd;"/>
          <polygon points="55.49 13.27 57.65 13.27 58.69 14.81 56.55 15.8 54.58 14.35 55.49 13.27 55.49 13.27" style="fill: #8b8a8c; fill-rule: evenodd;"/>
          <polygon points="53.94 13.06 55.1 13.72 55.15 15.2 53.68 15.29 53.1 13.59 53.94 13.06 53.94 13.06" style="fill: #8b8a8c; fill-rule: evenodd;"/>
          <polygon points="51.13 14.54 51.76 13.13 53.7 12.86 54.13 14.52 52.02 15.42 51.13 14.54 51.13 14.54" style="fill: #8b8a8c; fill-rule: evenodd;"/>
          <polygon points="49.95 13.06 51.26 13.72 51.32 15.2 49.65 15.29 48.99 13.59 49.95 13.06 49.95 13.06" style="fill: #8b8a8c; fill-rule: evenodd;"/>
          <polygon points="47.18 13.21 48.64 12.6 49.81 13.77 48.66 15.31 46.89 14.5 47.18 13.21 47.18 13.21" style="fill: #8b8a8c; fill-rule: evenodd;"/>
          <polygon points="48.23 13.22 49.16 14.62 47.31 15.73 44.92 14.62 46.22 12.94 48.23 13.22 48.23 13.22" style="fill: #8b8a8c; fill-rule: evenodd;"/>
          <polygon points="43.94 12.94 44.98 13.92 44.73 15.44 43.22 15.13 42.97 13.25 43.94 12.94 43.94 12.94" style="fill: #8b8a8c; fill-rule: evenodd;"/>
          <polygon points="43.03 12.39 44.05 11.48 45.24 12.06 44.67 13.62 43.09 13.49 43.03 12.39 43.03 12.39" style="fill: #8b8a8c; fill-rule: evenodd;"/>
          <polygon points="53.12 13.21 53.74 11.8 55.68 11.54 56.11 13.2 54 14.1 53.12 13.21 53.12 13.21" style="fill: #8b8a8c; fill-rule: evenodd;"/>
          <polygon points="51.94 11.73 53.25 12.39 53.31 13.88 51.64 13.96 50.98 12.27 51.94 11.73 51.94 11.73" style="fill: #8b8a8c; fill-rule: evenodd;"/>
          <polygon points="49.17 11.88 50.62 11.27 51.79 12.44 50.65 13.99 48.88 13.17 49.17 11.88 49.17 11.88" style="fill: #8b8a8c; fill-rule: evenodd;"/>
          <polygon points="48.44 11.9 48.87 13.29 48.01 14.41 46.9 13.3 47.51 11.61 48.44 11.9 48.44 11.9" style="fill: #8b8a8c; fill-rule: evenodd;"/>
          <polygon points="45.92 11.61 46.96 12.6 46.71 14.12 44.34 13.81 44.96 11.93 45.92 11.61 45.92 11.61" style="fill: #8b8a8c; fill-rule: evenodd;"/>
          <polygon points="53.83 10.03 55.14 10.69 55.2 12.18 53.53 12.27 52.87 10.57 53.83 10.03 53.83 10.03" style="fill: #e2dfdf; fill-rule: evenodd;"/>
          <polygon points="51.06 10.18 52.51 9.57 53.68 10.74 52.54 12.29 50.77 11.47 51.06 10.18 51.06 10.18" style="fill: #8b8a8c; fill-rule: evenodd;"/>
          <polygon points="50.84 10.2 51.42 11.6 50.28 12.71 48.79 11.6 49.6 9.91 50.84 10.2 50.84 10.2" style="fill: #8b8a8c; fill-rule: evenodd;"/>
          <polygon points="58.41 12.69 58.85 14.09 57.99 15.2 56.87 14.09 57.48 12.4 58.41 12.69 58.41 12.69" style="fill: #8b8a8c; fill-rule: evenodd;"/>
          <polygon points="56.6 11.55 57.64 12.54 57.39 14.06 55.88 13.75 55.64 11.87 56.6 11.55 56.6 11.55" style="fill: #d4d1d0; fill-rule: evenodd;"/>
          <polygon points="48.87 10.35 50.2 11.45 48.45 12.86 47.34 11.75 47.94 10.07 48.87 10.35 48.87 10.35" style="fill: #8b8a8c; fill-rule: evenodd;"/>
          <polygon points="46.36 10.07 47.4 11.05 47.15 12.57 45.63 12.26 45.39 10.38 46.36 10.07 46.36 10.07" style="fill: #e2dfdf; fill-rule: evenodd;"/>
          <polygon points="50.56 8.51 51.87 9.17 51.93 10.66 50.26 10.74 49.6 9.04 50.56 8.51 50.56 8.51" style="fill: #8b8a8c; fill-rule: evenodd;"/>
          <polygon points="46.12 12.74 47.64 10.91 48.33 12.41 47.77 13.98 46.18 13.85 46.12 12.74 46.12 12.74" style="fill: #8b8a8c; fill-rule: evenodd;"/>
          <polygon points="51.54 12.35 51.97 14.24 51.11 15.75 50 14.25 50.6 11.96 51.54 12.35 51.54 12.35" style="fill: #8b8a8c; fill-rule: evenodd;"/>
          <polygon points="53.61 10.59 54.09 12.15 53.13 13.39 51.89 12.15 52.56 10.27 53.61 10.59 53.61 10.59" style="fill: #8b8a8c; fill-rule: evenodd;"/>
          <polygon points="51.97 10.7 52.4 12.1 51.54 13.22 50.43 12.11 51.04 10.42 51.97 10.7 51.97 10.7" style="fill: #8b8a8c; fill-rule: evenodd;"/>
          <polygon points="47.75 12.75 48.78 13.74 48.53 15.26 47.02 14.95 46.78 13.07 47.75 12.75 47.75 12.75" style="fill: #d4d1d0; fill-rule: evenodd;"/>
          <polygon points="42.15 14.85 43.1 12.97 46.05 12.61 46.7 14.83 43.49 16.03 42.15 14.85 42.15 14.85" style="fill: #8b8a8c; fill-rule: evenodd;"/>
          <polygon points="49.71 12.24 50.15 14.01 49.29 15.42 48.17 14.02 48.78 11.88 49.71 12.24 49.71 12.24" style="fill: #8b8a8c; fill-rule: evenodd;"/>
          <polygon points="53.52 14.14 54.52 13.11 55.24 13.57 55.71 14.89 53.83 15.11 53.52 14.14 53.52 14.14" style="fill: #d4d1d0; fill-rule: evenodd;"/>
          <polygon points="59.21 16.05 60.2 15.02 61.72 15.29 61.4 16.8 59.51 17.02 59.21 16.05 59.21 16.05" style="fill: #8b8a8c; fill-rule: evenodd;"/>
          <polygon points="48.26 10.21 49.25 9.17 50.77 9.42 50.46 10.93 48.42 10.69 48.26 10.21 48.26 10.21" style="fill: #e2dfdf; fill-rule: evenodd;"/>
          <polygon points="51.08 11.24 50.04 12.23 50.57 13.41 51.81 13.44 51.57 12.26 51.08 11.24 51.08 11.24" style="fill: #d4d1d0; fill-rule: evenodd;"/>
          <polygon points="48.21 17.43 48.22 16.72 48.97 15.77 47.46 16.04 47.21 17.68 48.21 17.43 48.21 17.43" style="fill: #d4d1d0; fill-rule: evenodd;"/>
          <polygon points="59.42 16.23 58.38 17.22 58.63 18.74 59.67 17.36 60.39 16.55 59.42 16.23 59.42 16.23" style="fill: #d4d1d0; fill-rule: evenodd;"/>
          <polygon points="45.05 14.1 43.65 13.81 42.55 14.89 43.66 15.95 45.35 15.07 45.05 14.1 45.05 14.1" style="fill: #d4d1d0; fill-rule: evenodd;"/>
          <polygon points="44.32 17.49 45.36 16.63 45.11 15.31 43.6 15.58 43.35 17.22 44.32 17.49 44.32 17.49" style="fill: #e2dfdf; fill-rule: evenodd;"/>
          <polygon points="41.33 15.61 40.66 16.25 40.82 17.24 41.8 17.03 41.96 15.81 41.33 15.61 41.33 15.61" style="fill: #e2dfdf; fill-rule: evenodd;"/>
          <polygon points="52.03 16.98 52.31 16.17 51.74 15.52 51 16.16 51.41 17.14 52.03 16.98 52.03 16.98" style="fill: #e2dfdf; fill-rule: evenodd;"/>
          <polygon points="51.85 11.28 52.62 10.94 52.65 10.18 51.67 10.13 51.28 11 51.85 11.28 51.85 11.28" style="fill: #e2dfdf; fill-rule: evenodd;"/>
          <polygon points="42.6 18.52 42.72 17.69 42.09 17.26 41.53 18.07 42.07 18.86 42.6 18.52 42.6 18.52" style="fill: #e2dfdf; fill-rule: evenodd;"/>
          <polygon points="54.01 19.19 54.71 19.66 55.37 19.28 54.88 18.43 53.93 18.57 54.01 19.19 54.01 19.19" style="fill: #e2dfdf; fill-rule: evenodd;"/>
          <polygon points="59.08 15.64 60.16 15.17 60.21 14.1 58.83 14.04 58.28 15.26 59.08 15.64 59.08 15.64" style="fill: #e2dfdf; fill-rule: evenodd;"/>
        </g>
      </g>
      <rect x="92.03" y="4.65" width="34.03" height="14.61" style="fill: #bec9ce;"/>
      <rect x="92.03" y="4.65" width="9.36" height="14.64" style="fill: #dae1e5;"/>
      <path d="M134.49,21.56c-.18,2.37-.48,5.08-.94,7.71-.29,1.61-.64,3.2-1.08,4.65-.6,2.01-1.37,3.77-2.33,5.02H23.16c-2.74,0-7.23-4.43-11.59-9.67-2.09-2.52-4.16-5.22-5.98-7.71C3.22,18.3,1.24,15.41.15,13.78c-.4-.6.03-1.4.75-1.4h22.9c1.29,0,2.55.43,3.57,1.23,2.35,1.83,4.97,3.25,7.75,4.21,2.78.96,5.71,1.46,8.69,1.46h52.5c1.05,0,2.05-.46,2.73-1.25l2.37-2.75c.41-.47,1-.75,1.63-.75h31.76s0,3.03-.3,7.03Z" style="fill: #1f63b5;"/>
      <path d="M134.86,38.94c0,.75-.3,1.42-.79,1.91-.49.49-1.17.79-1.91.79H22.43c-1.49,0-2.71-1.21-2.71-2.71,0-.46.11-.88.31-1.26.13-.24.29-.46.48-.65.49-.49,1.17-.79,1.91-.79h109.72c1.5,0,2.71,1.21,2.71,2.71Z" style="fill: #173b84;"/>
      <path d="M134.16,25.03l-125.48.63C6.3,22.4,1.24,15.41.15,13.78c-.4-.6.03-1.4.75-1.4h22.9c1.29,0,2.55.43,3.57,1.23,2.35,1.83,4.97,3.25,7.75,4.21,2.78.96,5.71,1.46,8.69,1.46h52.5c.75,0,1.48-.24,2.08-.66.02-.01.04-.03.05-.04.08-.06.16-.13.24-.19.07-.06.14-.13.21-.2.05-.05.1-.1.14-.16l.57-.65.17-.19.87-1.01.17-.19.6-.69c.41-.47,1-.75,1.63-.75h31.76s-.33,6.5-.63,10.5Z" style="fill: #dae1e5;"/>
      <g>
        <path d="M10.58,17.03v.39c0,.53-.19.96-.43.96h-1.93s-.09-.01-.13-.04c-.17-.12-.3-.49-.3-.92v-.39c0-.53.19-.96.43-.96h1.93c.16,0,.31.21.38.51.03.13.05.29.05.45Z" style="fill: #145c82;"/>
        <path d="M10.58,17.03v.39c0,.53-.19.96-.43.96h-1.93s-.09-.01-.13-.04c-.03-.13-.05-.29-.05-.45v-.39c0-.53.19-.96.43-.96h1.93s.09.01.13.04c.03.13.05.29.05.45Z" style="fill: #0b3043; opacity: .25;"/>
      </g>
      <g>
        <path d="M95.23,3.93h2.64c.29,0,.52.23.52.52v7.32c0,.29-.23.52-.52.52h-2.64c-.29,0-.52-.23-.52-.52v-7.32c0-.29.23-.52.52-.52Z" transform="translate(104.66 -88.44) rotate(90)" style="fill: #fde0d0;"/>
        <rect x="92.54" y="6.44" width="8.02" height="3.34" rx=".35" ry=".35" style="fill: #77a1b6;"/>
        <rect x="93.5" y="6.44" width=".22" height="3.34" style="fill: #fde0d0;"/>
        <rect x="95.86" y="6.44" width=".22" height="3.34" style="fill: #fde0d0;"/>
        <rect x="98.21" y="6.44" width=".22" height="3.34" style="fill: #fde0d0;"/>
      </g>
      <g>
        <path d="M95.23,8.51h2.64c.29,0,.52.23.52.52v7.32c0,.29-.23.52-.52.52h-2.64c-.29,0-.52-.23-.52-.52v-7.32c0-.29.23-.52.52-.52Z" transform="translate(109.25 -83.86) rotate(90)" style="fill: #fde0d0;"/>
        <rect x="92.54" y="11.02" width="8.02" height="3.34" rx=".35" ry=".35" style="fill: #77a1b6;"/>
        <rect x="93.5" y="11.02" width=".22" height="3.34" style="fill: #fde0d0;"/>
        <rect x="95.86" y="11.02" width=".22" height="3.34" style="fill: #fde0d0;"/>
        <rect x="98.21" y="11.02" width=".22" height="3.34" style="fill: #fde0d0;"/>
      </g>
      <g>
        <path d="M104.06,6.51h.61c.23,0,.42.19.42.42v2.36c0,.23-.19.42-.42.42h-.61c-.23,0-.42-.19-.42-.42v-2.36c0-.23.19-.41.41-.41Z" style="fill: #1d6385;"/>
        <rect x="111.39" y="6.51" width="1.44" height="3.19" rx=".42" ry=".42" style="fill: #1d6385;"/>
        <path d="M119.55,6.51h.61c.23,0,.42.19.42.42v2.36c0,.23-.19.42-.42.42h-.61c-.23,0-.42-.19-.42-.42v-2.36c0-.23.19-.42.42-.42Z" style="fill: #1d6385;"/>
      </g>
      <g>
        <rect x="103.64" y="11.1" width="1.44" height="3.19" rx=".41" ry=".41" style="fill: #1d6385;"/>
        <path d="M111.8,11.1h.61c.23,0,.42.19.42.42v2.36c0,.23-.19.42-.42.42h-.61c-.23,0-.42-.19-.42-.42v-2.36c0-.23.19-.42.42-.42Z" style="fill: #1d6385;"/>
        <path d="M119.55,11.1h.61c.23,0,.42.19.42.42v2.36c0,.23-.19.42-.42.42h-.61c-.23,0-.42-.19-.42-.42v-2.36c0-.23.19-.42.42-.42Z" style="fill: #1d6385;"/>
      </g>
      <g>
        <path d="M104.06,6.51h.28c.23,0,.42.19.42.42v2.36c0,.23-.19.41-.41.41h-.28c-.23,0-.42-.19-.42-.42v-2.36c0-.23.19-.42.42-.42Z" style="fill: #77a1b6;"/>
        <rect x="111.39" y="6.51" width="1.11" height="3.19" rx=".42" ry=".42" style="fill: #77a1b6;"/>
        <rect x="119.13" y="6.51" width="1.11" height="3.19" rx=".42" ry=".42" style="fill: #77a1b6;"/>
      </g>
      <g>
        <path d="M104.06,11.1h.28c.23,0,.42.19.42.42v2.36c0,.23-.19.41-.41.41h-.28c-.23,0-.41-.19-.41-.41v-2.36c0-.23.19-.42.42-.42Z" style="fill: #77a1b6;"/>
        <path d="M111.8,11.1h.28c.23,0,.42.19.42.42v2.36c0,.23-.19.42-.42.42h-.28c-.23,0-.42-.19-.42-.42v-2.36c0-.23.19-.42.42-.42Z" style="fill: #77a1b6;"/>
        <path d="M119.55,11.1h.28c.23,0,.42.19.42.42v2.36c0,.23-.19.42-.42.42h-.28c-.23,0-.42-.19-.42-.42v-2.36c0-.23.19-.42.42-.42Z" style="fill: #77a1b6;"/>
      </g>
      <path d="M126.7,5.08c0,.12-.05.23-.13.31-.08.08-.19.13-.31.13h-34.44c-.24,0-.44-.2-.44-.44,0-.12.05-.23.13-.31.08-.08.19-.13.31-.13h34.44c.24,0,.44.2.44.44Z" style="fill: #9bacb2;"/>
      <path d="M102.08,5.08c0,.12-.05.23-.13.31-.08.08-.19.13-.31.13h-9.87c-.24,0-.44-.2-.44-.44,0-.12.05-.23.13-.31.08-.08.19-.13.31-.13h9.87c.24,0,.44.2.44.44Z" style="fill: #e9eff2;"/>
      <path d="M133.55,29.27c-.45,2.52-1.06,4.97-1.9,6.96H22.43c-.75,0-1.42.3-1.91.79-.19.19-.36.41-.48.65-2.49-1.68-5.5-4.86-8.46-8.41h121.98Z" style="fill: #0b3043; opacity: .25;"/>
      <path d="M134.86,38.94H19.72c0-.46.11-.88.31-1.26.13-.24.29-.46.48-.65.49-.49,1.17-.79,1.91-.79h109.72c1.5,0,2.71,1.21,2.71,2.71Z" style="fill: #284299;"/>
      <path d="M134.49,21.56c-.18,2.37-.48,5.08-.94,7.71-.45,2.53-1.06,4.97-1.9,6.96h-20.56c5.39-7.98,6.32-16.93,6.38-21.7h17.33s0,3.03-.3,7.03Z" style="fill: #0b3043; opacity: .25;"/>
      <path d="M134.86,38.94c0,.75-.3,1.42-.79,1.91-.49.49-1.17.79-1.91.79h-21.55c2.01-2.83.49-5.41.49-5.41h21.06c1.5,0,2.71,1.21,2.71,2.71Z" style="fill: #21324f; opacity: .25;"/>
      <path d="M132.47,33.91c-.25.82-.52,1.6-.82,2.31H22.43c-.75,0-1.42.3-1.91.79-.19.19-.35.41-.48.65-2.49-1.68-5.5-4.86-8.46-8.41-2.09-2.52-4.16-5.22-5.98-7.71C3.22,18.3,1.24,15.41.15,13.78c-.4-.6.03-1.4.75-1.4h7.51c1.17,3.02,3.52,7.43,8.1,11.42,5.21,4.53,11.82,7.13,18.72,7.47,44.36,2.2,85.23,2.58,97.24,2.65Z" style="fill: #fff; opacity: .15;"/>
      <path d="M101.39,6.09h15.81c4.69,0,8.53,3.75,8.63,8.45h.23V5.52h-24.67v.57Z" style="fill: #a1b1b7;"/>
      <g>
        <polygon points="100.81 15.97 100.64 16.16 43.01 16.16 43.01 15.97 100.81 15.97" style="fill: #145c82;"/>
        <polygon points="99.77 17.17 99.6 17.37 43.01 17.37 43.01 17.17 99.77 17.17" style="fill: #145c82;"/>
        <path d="M98.68,18.38c-.08.07-.16.13-.24.19h-55.43v-.19h55.67Z" style="fill: #145c82;"/>
        <g>
          <rect x="43.01" y="15.09" width=".5" height="4.17" style="fill: #145c82;"/>
          <rect x="54.08" y="15.09" width=".5" height="4.17" style="fill: #145c82;"/>
          <rect x="65.16" y="15.09" width=".5" height="4.17" style="fill: #145c82;"/>
          <rect x="76.24" y="15.09" width=".5" height="4.17" style="fill: #145c82;"/>
          <rect x="87.31" y="15.09" width=".5" height="4.17" style="fill: #145c82;"/>
          <path d="M98.89,15.09v3.09c-.07.07-.14.14-.21.2-.08.07-.16.13-.24.19-.02.01-.03.03-.05.04v-3.52h.5Z" style="fill: #145c82;"/>
        </g>
      </g>
      <g style="opacity: .8;">
        <g>
          <path d="M17.93,17.1s-.07.02-.1.02c-.21-.04-.32-.18-.54-.17-.14,0-.22.04-.24.19-.04.27-.02.53-.11.79,0,0,0,.02,0,.02-.04.04-.17.11-.22.15-.03,0-.05,0-.08,0-.09-.34.04-.67.02-1,.01-.07-.02-.09-.08-.09-.21.02-.43.03-.61.19-.07.06-.15.15-.25.05-.1-.1-.09-.23,0-.32.11-.11.1-.22.11-.37,0-.07,0-.12-.03-.18-.14-.18,0-.23.14-.24.18-.01.37,0,.55.01.21.02.3-.06.28-.27,0-.07,0-.14,0-.22,0-.1-.01-.22.12-.26.14-.04.27-.02.38.09.1.1.06.2,0,.3-.02.03-.04.07-.05.11-.08.21-.03.28.18.23.21-.05.45-.06.62-.23.05-.06.13-.05.2-.06.01,0,.02.01.04,0,.05.09.06.18.05.28-.1.12-.27.17-.3.35-.12.11-.16.23-.07.37.05.08.04.16,0,.24ZM17.26,16.79c.26,0,.42-.14.42-.36,0-.1-.08-.08-.14-.08-.35,0-.52.1-.51.3,0,.19.15.12.23.14ZM16.45,16.41c-.22,0-.4.15-.39.32,0,.11.08.1.16.1.32,0,.49-.09.49-.27,0-.2-.17-.12-.25-.15Z" style="fill: #131214;"/>
          <path d="M22.95,16.22s-.05.08-.08.12c-.26.32-.15.83-.14,1.22,0,.19-.04.28-.24.3-.08-.14-.52-.06-.6-.05-.07-.02-.33-.06-.42,0-.04.03-.14.03-.18.06-.04,0-.08,0-.12,0,0-.13-.01-.24.03-.37.13-.42.11-.84-.03-1.3.05-.04.1-.06.16-.07.21.09.36,0,.48-.17.07-.03.11-.07.06-.15-.12-.19-.09-.25.13-.28.03,0,.06,0,.09,0,.05.01.1.03.15.04.04.12.21.2.15.36-.07.06-.16.09-.17.21.16,0,.29-.05.41-.13.05,0,.1,0,.14-.01.03,0,.07.02.1.03.02.06.05.11.07.17ZM22.32,17.49c.16-.13.06-.46.03-.61-.02-.09-.2.02-.3,0-.05,0-.11,0-.17,0-.09,0-.19,0-.28.03-.07.02-.15.06-.13.15.02.08.1.06.16.05.14,0,.27-.01.41-.01.08,0,.17,0,.13.13-.24.04-.3.08-.54.09-.09,0-.16.05-.16.14,0,.09.1.18.15.17.27-.04.45-.03.7-.16ZM21.95,16.69h0c.13,0,.26,0,.38,0,.1,0,.14-.07.16-.15.01-.07-.02-.12-.08-.12-.27-.02-.54,0-.8.12-.04.02-.08.06-.07.11.02.06.07.05.12.05.1,0,.19,0,.29,0Z" style="fill: #131214;"/>
          <g>
            <path d="M24.01,15.71s.04-.06.06-.09c.05-.01.1-.03.15-.04.05,0,.1,0,.15,0,.03.01.07.02.1.03,0,.03.02.05.03.08-.04.06-.04.12-.04.19h0c-.15.08-.08.22-.09.34-.02.05.05.08.03.12-.07.04-.06.07,0,.11.07.02.14,0,.22-.02.05,0,.09,0,.14,0,.08.03.03-.12.07-.16.06-.03.11-.1.19-.06.05.09.02.17,0,.26,0,.02,0,.03-.02.04-.1.04-.05.21-.04.31-.01.02-.02.04-.03.07-.22.22-.22.67-.23.97-.03,0-.1,0-.13.01-.07-.06-.14-.11-.24-.07-.42,0-.72-.08-1.1.11-.11-.17-.03-.33.02-.49.07-.06.02-.12.03-.22.07-.06.06-.14.07-.22.04-.18-.09-.31-.1-.48.09-.06.18-.08.28-.08.02.01.03.02.05.03.01.05.03.1.1.09.13-.04.26-.09.39-.13.06-.03-.02-.06-.04-.12,0-.02,0-.04,0-.06.1-.11.17-.22.03-.35h-.01c-.03-.06-.05-.11-.08-.16ZM24.48,17.42v-.02s.06-.03.09-.05h0s0,0,0,0c0-.06.02-.13.03-.19.06-.02.06-.06.02-.1.03-.08.05-.17.08-.25.02-.04.07-.09.03-.13-.04-.06-.1-.02-.16,0-.06,0-.11.02-.16.04-.09.03-.15.1-.16.19,0,.12.11.08.18.11,0,.05,0,.1,0,.15,0,.01,0,.02,0,.04-.05,0-.09,0-.14.02-.07.02-.15.04-.13.13.01.08.1.05.16.06.02,0,.04.01.07.02.05.06.08.04.11-.02ZM23.89,17.4l.03-.04s0-.04,0-.05c.06-.08,0-.09-.06-.09-.1.02-.2.04-.3.07-.07.02-.16.06-.15.14.01.1.12.04.18.05.11.01.2-.02.29-.08ZM23.7,17.08c.13-.03.29-.01.32-.21,0-.06-.02-.1-.08-.08-.14.04-.28.09-.34.23-.03.07.05.05.1.06Z" style="fill: #131214;"/>
            <path d="M24.71,17.83c.05-.29.08-.75.23-.97-.1.27-.13.7-.19.98-.01,0-.03,0-.04,0Z" style="fill: #2e2720;"/>
            <path d="M24.34,17.78c.1-.04.17,0,.24.07-.03,0-.06.01-.09.02-.05-.03-.1-.06-.15-.09Z" style="fill: #2e2720;"/>
            <path d="M25.03,16.46c0-.09.05-.17,0-.26.17.06.17.08,0,.26Z" style="fill: #2e2720;"/>
            <path d="M24.47,16.11s-.06.07-.09.1c.02-.12-.05-.26.09-.34,0,.06,0,.13.01.19,0,.01-.01.03-.01.04Z" style="fill: #2e2720;"/>
            <path d="M24.97,16.8c0-.1-.06-.27.04-.31-.02.08.03.25-.04.31Z" style="fill: #2e2720;"/>
            <path d="M24.07,16.22c.01-.12.02-.23.03-.35.14.13.07.24-.03.35Z" style="fill: #2e2720;"/>
            <path d="M24.42,17.02c.06.02.13.03.19.05.04.04.04.07-.02.1-.06,0-.11,0-.17,0,0-.05,0-.1,0-.15Z" style="fill: #2e2720;"/>
            <path d="M24.37,17.43s.07-.01.11-.02c-.03.06-.06.08-.11.02Z" style="fill: #2e2720;"/>
            <path d="M23.61,16.44s.08.04.1.09c-.07.01-.08-.04-.1-.09Z" style="fill: #736e6c;"/>
            <path d="M24.4,16.34s0,.07,0,.11c-.06-.03-.07-.07,0-.11Z" style="fill: #2e2720;"/>
            <path d="M24.1,16.4c0-.05-.08-.08-.04-.12.01.06.1.09.04.12Z" style="fill: #2e2720;"/>
            <path d="M23.94,17.31s-.04-.06-.06-.09c.06,0,.12,0,.06.09Z" style="fill: #2e2720;"/>
            <path d="M23.89,17.4s.02-.03.03-.04c-.01.01-.02.03-.03.04Z" style="fill: #2e2720;"/>
            <polygon points="24.57 17.35 24.58 17.36 24.57 17.35 24.57 17.35" style="fill: #7f7774;"/>
          </g>
          <g>
            <path d="M19.49,16.09s.04-.02.06-.03c.08.03.16.06.24.1.14.03.29.04.43.02.11.02.2-.04.3-.09.06-.02.11-.05.17-.07.25.05.17.22.1.35-.14.27-.16.56-.19.86-.01.17.06.33,0,.5-.01.01-.03.03-.04.04-.05-.02-.11-.04-.13-.1-.04-.21-.18-.21-.35-.18-.15.03-.29.05-.44.08-.13-.17,0-.22.12-.28.06-.01.11-.05.13-.11.05-.03.11-.07.16-.1.01.07-.01.13-.04.18,0,.03,0,.07.04.07.02,0,.03-.03.05-.04.05-.02.08-.06.1-.11.09-.03.21-.03.23-.16.03-.13-.05-.18-.16-.18-.12,0-.15.07-.13.17-.02.01-.05.02-.07.03-.09,0-.06-.15-.16-.15-.11.03-.21.08-.33.05,0,0-.01,0-.01,0h0c.02.1-.03.18-.03.27-.04.02-.08.05-.12.07-.01-.04-.03-.09-.08-.1,0-.03,0-.06.01-.09.09-.15.06-.33.08-.49,0-.05-.04-.13-.07-.09-.17.18-.43.02-.6.19-.04.03-.04.07-.03.12.02,0,.03,0,.05,0,0,.01.02.02.03.03.03.1.11.09.19.1.08.01.18,0,.19.13-.05,0-.11,0-.16,0-.05,0-.13.02-.12.08,0,.1.09.05.14.06.02,0,.05,0,.07,0,.07.2-.17.15-.22.24.26.21.32-.11.47-.16.06.13-.03.24-.04.37-.01.01-.03.03-.04.04-.28-.09-.56-.07-.84-.02-.09.02-.2.09-.26-.07.02-.01.03-.03.05-.04.13.03.19-.09.29-.13.1-.04.16-.12.14-.22-.03-.11-.14-.07-.22-.07-.08-.08-.03-.14.03-.2.1-.06.12-.14.09-.24-.07-.11-.15-.05-.22-.01-.09.05-.2.16-.27.05-.06-.1.05-.28.14-.29.37-.05.51-.31.63-.59.06,0,.12,0,.18,0,.02.03.06.07.06.1,0,.1,0,.16.12.18.11.01.21.05.25-.09ZM20.2,16.66c.13.06.25.16.36-.03,0-.05,0-.11.03-.16.1-.22,0-.23-.18-.18-.14.04-.28.13-.41.11-.28-.04-.23.2-.34.3.05,0,.07,0,.09-.03.09-.1.17-.3.29-.01.02.05.1.02.16,0ZM19.16,16.4c-.12-.04-.24-.04-.36,0-.01,0-.02.06-.01.06.12.05.24.05.36-.02,0,0,0-.01.01-.04Z" style="fill: #131214;"/>
            <path d="M18.24,17.63c.05.15.16.08.26.07.28-.05.56-.07.84.02-.03.04-.07.09-.11.07-.34-.12-.66-.03-.98.05-.04,0-.08,0-.12,0,0-.01,0-.02,0-.03,0-.03,0-.06.01-.09.04-.02.07-.05.11-.07Z" style="fill: #2e2720;"/>
            <path d="M18.48,17.18c.08,0,.19-.04.22.07.03.1-.04.17-.14.22-.1.04-.16.16-.29.13-.03-.19.09-.3.2-.41Z" style="fill: #2e2720;"/>
            <path d="M18.6,16.74c.03.1,0,.18-.09.24,0-.09.03-.17.09-.24Z" style="fill: #2e2720;"/>
            <path d="M19.45,17.27s.08-.05.12-.07c.08.02.17,0,.22.08-.12.06-.25.11-.12.28-.1.04-.22.03-.3.12.01-.12.1-.24.04-.37.01-.01.02-.02.04-.03Z" style="fill: #2e2720;"/>
            <path d="M20.11,17.47c.16-.03.3-.02.35.18.01.06.07.08.13.1-.03.06-.1.05-.15.06-.06-.16-.15-.29-.32-.34Z" style="fill: #2e2720;"/>
            <path d="M18.12,17.79s0,.02,0,.03c-.02.01-.05.05-.06.01-.01-.03.03-.04.06-.04Z" style="fill: #736e6c;"/>
            <path d="M20.79,15.93s.07,0,.11.01c.07.04.07.11.08.18-.1.27-.25.53-.26.83-.01.17-.06.35.04.51-.01.1-.03.2-.13.25.05-.17-.02-.33,0-.5.02-.29.05-.59.19-.86.07-.13.14-.3-.1-.35,0-.02.02-.04.03-.06.02,0,.05-.02.07-.02Z" style="fill: #2e2720;"/>
            <path d="M18.79,16.69c.1.07.21.04.32.04.04,0,.11,0,.11.05,0,.06-.05.07-.1.08-.09.03-.19,0-.28-.02-.01,0-.02-.02-.03-.03-.02,0-.03,0-.05-.01-.02-.05-.01-.09.03-.12Z" style="fill: #2e2720;"/>
            <path d="M20.2,16.66s.01-.04.02-.07c.05,0,.1,0,.15,0,.05.05.12.05.19.04-.1.19-.23.09-.36.03Z" style="fill: #2e2720;"/>
            <path d="M20.1,17.04s0,.02,0,.03c-.05.03-.11.07-.16.1,0-.09,0-.19,0-.28.1,0,.07.15.16.15Z" style="fill: #2e2720;"/>
            <path d="M20.23,17.17s0-.06,0-.09c.08-.02.15-.04.23-.06-.02.13-.14.13-.23.16Z" style="fill: #2e2720;"/>
            <path d="M20.04,17.25s.06.02.09.03c-.02.02-.03.04-.05.04-.04,0-.04-.04-.04-.07Z" style="fill: #2e2720;"/>
            <path d="M18.77,16.81s.03,0,.05.01c-.02,0-.03,0-.05-.01Z" style="fill: #656363;"/>
            <polygon points="19.61 16.94 19.6 16.93 19.61 16.94 19.61 16.94" style="fill: #2e2720;"/>
            <path d="M20.37,16.59s-.1,0-.15,0c0-.07.03-.13.11-.12.06.01.05.07.04.11Z" style="fill: #131214;"/>
          </g>
        </g>
        <text transform="translate(15.65 19.27)" style="fill: #2e2720; font-family: Bahnschrift-Bold, Bahnschrift; font-size: .9px; font-variation-settings: &apos;wght&apos; 700, &apos;wdth&apos; 100; font-weight: 700;"><tspan x="0" y="0" style="letter-spacing: 0em;">C</tspan><tspan x=".55" y="0" style="letter-spacing: 0em;">HI</tspan><tspan x="1.4" y="0" style="letter-spacing: 0em;">N</tspan><tspan x="2.02" y="0">A S</tspan><tspan x="3.39" y="0" style="letter-spacing: .02em;">T</tspan><tspan x="3.84" y="0">EEL LIBER</tspan><tspan x="8.12" y="0" style="letter-spacing: .06em;">T</tspan><tspan x="8.61" y="0">Y</tspan></text>
      </g>
      <rect x="16.19" y="40.18" width="121.2" height="4.75" rx="2.33" ry="2.33" style="opacity: .2;"/>
    </g>
  </g>
</svg>