<?xml version="1.0" encoding="UTF-8"?>
<svg xmlns="http://www.w3.org/2000/svg" viewBox="0 0 139.89 39.62">
  <g style="isolation: isolate;">
    <g id="_圖層_2" data-name="圖層_2">
      <g id="_圖層_2-2" data-name="圖層_2">
        <g>
          <g>
            <g>
              <g>
                <path d="M116.15,13.91c-3.19-3-6.61-5.75-10.38-8.01-4.12-2.48-8.6-4.45-13.39-5.19-11.28-1.73-21.76,8.04-30.41,17.58-6.07,6.69-11.78,14.05-17.81,20.81h95.22c-1.74,0-6.5-6.79-7.69-8.14-2.71-3.08-5.34-6.23-8.08-9.3-2.38-2.67-4.84-5.3-7.45-7.76Z" style="fill: #936360;"/>
                <path d="M139.38,39.62H44.15c-.2,0-.39-.12-.47-.31-.08-.19-.05-.4.09-.55,2.83-3.17,5.64-6.54,8.35-9.79,3.07-3.67,6.24-7.47,9.46-11.02C69.63,9.07,79.28,0,89.74,0c.91,0,1.82.07,2.71.21,4.37.67,8.81,2.39,13.58,5.25,3.5,2.1,6.92,4.75,10.47,8.08,2.29,2.15,4.67,4.63,7.49,7.79,1.51,1.7,2.99,3.42,4.48,5.15,1.2,1.39,2.39,2.78,3.6,4.16.27.31.72.89,1.27,1.6,1.35,1.74,4.93,6.36,6.03,6.36.29,0,.52.23.52.52s-.23.52-.52.52ZM45.3,38.59h92.16c-1.23-1.09-2.83-3.03-4.92-5.73-.54-.69-.98-1.26-1.23-1.55-1.22-1.38-2.41-2.78-3.61-4.17-1.48-1.72-2.96-3.44-4.46-5.13-2.8-3.14-5.16-5.6-7.43-7.73-3.49-3.28-6.86-5.88-10.29-7.94-4.66-2.79-8.98-4.47-13.2-5.11-.84-.13-1.7-.19-2.56-.19-10.07,0-19.5,8.9-27.4,17.61-3.21,3.53-6.37,7.32-9.43,10.99-2.48,2.97-5.03,6.02-7.61,8.95Z" style="fill: #546177;"/>
              </g>
              <path d="M131.69,30.96c-2.71-3.08-5.34-6.23-8.08-9.3-2.38-2.67-4.84-5.3-7.45-7.76-3.19-3-6.61-5.75-10.38-8.01-4.12-2.48-8.6-4.45-13.39-5.19-3.16-.48-6.26-.06-9.26,1,7.42.36,1.75,33.84-1.22,34.15-6.42.66-13.03.92-19.45.11-3.02-.38-6.46-1.58-7-4.98-.38-2.46.69-5.1,1.94-7.48-4.42,5.18-8.74,10.55-13.23,15.59h95.22c-1.74,0-6.5-6.79-7.69-8.14Z" style="fill: #9d817c; mix-blend-mode: multiply; opacity: .4;"/>
            </g>
            <g style="opacity: .3;">
              <path d="M111.37,34.17c-.19-.09-.37.01-.54.2-.35.38-.55,1.04-.22,1.49.44.63,1.12-.23,1.29-.65.15-.38.11-1.28-.52-1.04Z" style="fill: #c79189; mix-blend-mode: multiply;"/>
              <path d="M115.35,34.85s-.08-.02-.11-.03c-.06-.02-.13.04-.2.11-.09.07-.17.2-.19.31-.03.09-.01.19.08.22.13.05.31-.19.37-.27.06-.07.2-.29.05-.33Z" style="fill: #c79189; mix-blend-mode: multiply;"/>
              <path d="M112.12,27.96c-.06.03-.11.08-.15.12-.05-.01-.1-.03-.16-.01-.27.08-.45.34-.53.59-.25.77.03,1.54.72,1.97.83.52,1.54-.39,1.6-1.13.07-.75-.59-2.01-1.48-1.53Z" style="fill: #c79189; mix-blend-mode: multiply;"/>
              <path d="M120.46,33.69h0c-.1-.06-.22-.08-.34,0-.26.17-.29.44-.42.66-.4.63-.12,1.58.57,1.87.37.16.8-.14,1.03-.41.26-.3.41-.66.41-1.06,0-.66-.58-1.32-1.25-1.07Z" style="fill: #c79189; mix-blend-mode: multiply;"/>
              <path d="M107.35,32.4c-.24-.46-.68-.39-1.06-.19-.33-.02-.68.24-.84.48-.37.54-.36,1.11.08,1.6.4.45,1.07-.11,1.4-.4.36-.32.66-1.04.43-1.49Z" style="fill: #c79189; mix-blend-mode: multiply;"/>
            </g>
            <g style="opacity: .3;">
              <path d="M88.79,34.16c-.19-.08-.37.02-.54.2-.35.38-.55,1.04-.22,1.49.44.64,1.12-.23,1.29-.64.15-.38.1-1.29-.53-1.04Z" style="fill: #c79189; mix-blend-mode: multiply;"/>
              <path d="M92.77,34.85s-.07-.02-.1-.03c-.07-.02-.14.03-.2.1-.1.07-.17.21-.2.31-.02.09,0,.2.09.22.13.04.31-.19.37-.27.05-.07.19-.28.04-.33Z" style="fill: #c79189; mix-blend-mode: multiply;"/>
              <path d="M89.55,27.96c-.05.03-.11.07-.15.12-.05-.02-.1-.03-.16-.01-.27.07-.45.33-.53.59-.26.77.02,1.53.71,1.97.83.52,1.54-.39,1.6-1.13.07-.75-.59-2.01-1.48-1.52Z" style="fill: #c79189; mix-blend-mode: multiply;"/>
              <path d="M97.88,33.69h0c-.1-.06-.22-.08-.34,0-.26.17-.29.44-.42.66-.4.63-.11,1.59.57,1.87.37.15.8-.14,1.04-.41.26-.3.41-.66.41-1.06,0-.66-.58-1.32-1.25-1.06Z" style="fill: #c79189; mix-blend-mode: multiply;"/>
              <path d="M84.78,32.4c-.23-.46-.68-.39-1.05-.19-.34-.02-.68.24-.85.49-.37.54-.36,1.1.08,1.59.4.45,1.07-.1,1.4-.4.36-.32.66-1.03.43-1.49Z" style="fill: #c79189; mix-blend-mode: multiply;"/>
            </g>
            <g style="opacity: .3;">
              <path d="M102.19,29.1c-.19-.08-.37.02-.54.2-.36.38-.55,1.04-.23,1.49.45.63,1.12-.24,1.29-.65.16-.38.11-1.28-.52-1.04Z" style="fill: #c79189; mix-blend-mode: multiply;"/>
              <path d="M106.17,29.79s-.07-.02-.11-.04c-.07-.01-.14.04-.2.11-.1.08-.17.21-.2.3-.03.09,0,.2.09.23.13.04.31-.19.37-.27.05-.07.19-.29.04-.33Z" style="fill: #c79189; mix-blend-mode: multiply;"/>
              <path d="M102.95,22.9c-.06.03-.11.07-.16.12-.04-.02-.1-.03-.15-.01-.27.08-.44.33-.53.59-.26.77.02,1.53.71,1.97.82.52,1.54-.39,1.61-1.13.06-.76-.59-2.01-1.48-1.53Z" style="fill: #c79189; mix-blend-mode: multiply;"/>
              <path d="M106.35,27.28h0c-.07-.04-.16-.06-.25,0-.19.12-.21.33-.31.48-.3.46-.08,1.17.42,1.37.27.11.59-.1.76-.3.19-.22.3-.49.3-.78,0-.48-.43-.97-.92-.78Z" style="fill: #c79189; mix-blend-mode: multiply;"/>
              <path d="M98.17,27.34c-.23-.46-.68-.39-1.05-.18-.34-.03-.68.24-.85.48-.37.54-.36,1.1.08,1.6.4.45,1.07-.1,1.4-.4.36-.32.65-1.03.42-1.49Z" style="fill: #c79189; mix-blend-mode: multiply;"/>
            </g>
            <g style="opacity: .3;">
              <path d="M76.18,34.17c-.19-.09-.37.01-.54.2-.36.38-.55,1.04-.23,1.49.44.63,1.12-.23,1.29-.65.15-.38.11-1.28-.52-1.04Z" style="fill: #c79189; mix-blend-mode: multiply;"/>
              <path d="M80.17,34.85s-.07-.02-.11-.03c-.07-.02-.14.04-.2.11-.09.07-.17.2-.2.31-.02.09,0,.19.09.22.13.05.31-.19.37-.27.05-.07.19-.29.04-.33Z" style="fill: #c79189; mix-blend-mode: multiply;"/>
              <path d="M76.94,27.96c-.06.03-.11.08-.16.12-.05-.01-.1-.03-.15-.01-.27.08-.44.34-.53.59-.25.77.03,1.54.72,1.97.82.52,1.54-.39,1.6-1.13.06-.75-.59-2.01-1.48-1.53Z" style="fill: #c79189; mix-blend-mode: multiply;"/>
              <path d="M82,35h0c-.1-.06-.22-.07-.34,0-.26.17-.29.44-.42.66-.4.63-.11,1.59.57,1.87.37.16.8-.14,1.03-.4.26-.3.41-.66.41-1.06,0-.66-.58-1.32-1.25-1.07Z" style="fill: #c79189; mix-blend-mode: multiply;"/>
              <path d="M72.17,32.4c-.23-.46-.68-.39-1.05-.19-.33-.02-.68.24-.85.48-.36.54-.36,1.11.08,1.6.4.45,1.07-.11,1.4-.4.36-.32.66-1.04.42-1.49Z" style="fill: #c79189; mix-blend-mode: multiply;"/>
            </g>
            <g style="opacity: .3;">
              <path d="M53.61,34.16c-.19-.08-.37.02-.54.2-.35.38-.55,1.04-.23,1.49.45.64,1.13-.23,1.29-.64.16-.38.11-1.29-.52-1.04Z" style="fill: #c79189; mix-blend-mode: multiply;"/>
              <path d="M57.59,34.85s-.08-.02-.11-.03c-.07-.02-.14.03-.2.1-.09.07-.17.21-.2.31-.02.09,0,.2.09.22.13.04.31-.19.37-.27.05-.07.19-.28.04-.33Z" style="fill: #c79189; mix-blend-mode: multiply;"/>
              <path d="M54.36,27.96c-.06.03-.11.07-.16.12-.05-.02-.1-.03-.15-.01-.27.07-.44.33-.53.59-.26.77.02,1.53.71,1.97.83.52,1.54-.39,1.6-1.13.07-.75-.59-2.01-1.48-1.52Z" style="fill: #c79189; mix-blend-mode: multiply;"/>
              <path d="M62.69,33.69h0c-.1-.06-.22-.08-.34,0-.26.17-.29.44-.42.66-.4.63-.11,1.59.57,1.87.37.15.8-.14,1.03-.41.26-.3.41-.66.41-1.06,0-.66-.57-1.32-1.25-1.06Z" style="fill: #c79189; mix-blend-mode: multiply;"/>
              <path d="M58.69,31.35c-.23-.46-.68-.39-1.05-.19-.33-.02-.67.24-.84.48-.37.54-.36,1.11.08,1.6.4.45,1.06-.11,1.4-.4.36-.32.65-1.03.42-1.49Z" style="fill: #c79189; mix-blend-mode: multiply;"/>
            </g>
            <g style="opacity: .3;">
              <path d="M67.01,29.1c-.19-.08-.37.02-.54.2-.36.38-.55,1.04-.23,1.49.45.63,1.12-.24,1.29-.65.15-.38.11-1.28-.52-1.04Z" style="fill: #c79189; mix-blend-mode: multiply;"/>
              <path d="M70.99,29.79s-.08-.02-.11-.04c-.07-.01-.14.04-.2.11-.09.08-.17.21-.2.3-.03.09-.01.2.09.23.13.04.31-.19.37-.27.05-.07.19-.29.04-.33Z" style="fill: #c79189; mix-blend-mode: multiply;"/>
              <path d="M67.76,22.9c-.06.03-.1.07-.16.12-.05-.02-.1-.03-.16-.01-.27.08-.44.33-.53.59-.26.77.02,1.53.72,1.97.82.52,1.54-.39,1.6-1.13.06-.76-.59-2.01-1.48-1.53Z" style="fill: #c79189; mix-blend-mode: multiply;"/>
              <path d="M71.17,27.28h0c-.08-.04-.16-.06-.25,0-.2.12-.22.33-.31.48-.29.46-.08,1.17.42,1.37.27.11.59-.1.76-.3.19-.22.3-.49.3-.78,0-.48-.42-.97-.92-.78Z" style="fill: #c79189; mix-blend-mode: multiply;"/>
              <path d="M62.99,27.34c-.23-.46-.68-.39-1.05-.18-.33-.03-.68.24-.85.48-.37.54-.36,1.1.08,1.6.4.45,1.06-.1,1.4-.4.36-.32.65-1.03.42-1.49Z" style="fill: #c79189; mix-blend-mode: multiply;"/>
            </g>
            <g style="opacity: .3;">
              <path d="M120.34,29.26c-.12-.05-.25.01-.36.13-.24.25-.37.7-.16,1,.3.43.76-.16.87-.44.11-.25.07-.86-.35-.7Z" style="fill: #c79189; mix-blend-mode: multiply;"/>
              <path d="M123.01,29.73s-.05-.01-.07-.02c-.05-.01-.1.02-.13.07-.06.05-.11.14-.13.21-.02.06,0,.13.05.15.1.02.21-.12.25-.18.04-.05.13-.19.03-.22Z" style="fill: #c79189; mix-blend-mode: multiply;"/>
              <path d="M120.85,25.11s-.07.05-.11.08c-.03-.01-.06-.02-.1,0-.18.05-.3.22-.35.39-.17.51.01,1.03.48,1.32.56.34,1.03-.26,1.07-.76.04-.5-.39-1.35-.99-1.02Z" style="fill: #c79189; mix-blend-mode: multiply;"/>
              <path d="M126.43,28.95h0c-.07-.04-.15-.05-.23,0-.17.11-.2.3-.28.44-.27.42-.07,1.06.38,1.25.25.1.54-.1.69-.27.18-.2.27-.44.27-.71,0-.44-.38-.88-.84-.71Z" style="fill: #c79189; mix-blend-mode: multiply;"/>
              <path d="M117.65,28.08c-.16-.31-.45-.26-.7-.13-.22,0-.45.17-.56.33-.25.36-.24.74.05,1.07.27.31.71-.07.93-.27.24-.21.44-.69.28-1Z" style="fill: #c79189; mix-blend-mode: multiply;"/>
            </g>
            <g style="opacity: .3;">
              <path d="M129.27,34.16c-.19-.08-.37.02-.55.2-.35.38-.54,1.04-.22,1.49.45.64,1.12-.23,1.29-.64.15-.38.11-1.29-.52-1.04Z" style="fill: #c79189; mix-blend-mode: multiply;"/>
              <path d="M133.24,34.85s-.07-.02-.11-.03c-.07-.02-.14.03-.2.1-.09.07-.17.21-.2.31-.03.09,0,.2.08.22.14.04.32-.19.38-.27.05-.07.19-.28.04-.33Z" style="fill: #c79189; mix-blend-mode: multiply;"/>
              <path d="M132.46,34.91c-.06.03-.11.08-.16.11-.05-.02-.1-.03-.16-.01-.27.08-.44.33-.53.59-.26.77.03,1.54.72,1.97.82.52,1.54-.39,1.6-1.13.06-.75-.59-2.01-1.48-1.53Z" style="fill: #c79189; mix-blend-mode: multiply;"/>
              <path d="M124.21,25.23h0c-.1-.06-.22-.08-.34,0-.26.17-.29.44-.42.66-.4.63-.12,1.58.57,1.87.37.16.8-.14,1.03-.4.26-.3.41-.66.41-1.06,0-.66-.58-1.32-1.25-1.07Z" style="fill: #c79189; mix-blend-mode: multiply;"/>
              <path d="M125.25,32.4c-.23-.46-.68-.39-1.05-.19-.33-.02-.68.24-.84.49-.37.54-.36,1.1.07,1.59.4.45,1.07-.1,1.4-.4.36-.32.65-1.03.42-1.49Z" style="fill: #c79189; mix-blend-mode: multiply;"/>
            </g>
            <g style="opacity: .3;">
              <path d="M113.78,22.87c-.19-.08-.37.02-.54.2-.35.38-.55,1.04-.23,1.49.45.64,1.12-.23,1.29-.65.16-.38.11-1.28-.52-1.04Z" style="fill: #c79189; mix-blend-mode: multiply;"/>
              <path d="M117.76,23.57s-.08-.03-.11-.04c-.07-.02-.14.04-.19.11-.1.08-.17.21-.21.31-.02.1,0,.2.09.22.13.04.31-.19.37-.27.06-.07.19-.29.04-.33Z" style="fill: #c79189; mix-blend-mode: multiply;"/>
              <path d="M114.53,16.68c-.06.03-.1.07-.16.11-.05-.02-.1-.02-.15-.01-.27.08-.45.33-.53.59-.26.77.02,1.54.72,1.97.82.52,1.54-.39,1.6-1.13.07-.75-.59-2.01-1.48-1.52Z" style="fill: #c79189; mix-blend-mode: multiply;"/>
              <path d="M117.94,21.05h0c-.07-.04-.16-.05-.25,0-.19.12-.21.33-.31.48-.29.47-.09,1.17.42,1.37.27.11.59-.1.77-.29.19-.22.3-.49.3-.78,0-.48-.42-.97-.92-.78Z" style="fill: #c79189; mix-blend-mode: multiply;"/>
              <path d="M109.76,21.12c-.23-.46-.68-.39-1.05-.19-.33-.03-.68.24-.84.48-.37.54-.36,1.11.08,1.59.4.45,1.07-.11,1.4-.4.36-.32.65-1.03.42-1.49Z" style="fill: #c79189; mix-blend-mode: multiply;"/>
            </g>
            <g style="opacity: .3;">
              <path d="M77.2,21.36c-.19-.09-.37.01-.54.2-.36.38-.55,1.04-.23,1.49.45.63,1.13-.24,1.29-.65.15-.38.11-1.28-.52-1.04Z" style="fill: #c79189; mix-blend-mode: multiply;"/>
              <path d="M81.18,22.05s-.08-.02-.11-.03c-.06-.02-.13.03-.2.11-.09.08-.17.21-.2.31-.03.09,0,.2.09.22.13.04.31-.19.37-.27.06-.07.19-.29.04-.34Z" style="fill: #c79189; mix-blend-mode: multiply;"/>
              <path d="M77.96,15.17c-.06.03-.11.07-.16.12-.05-.02-.1-.03-.15-.02-.27.08-.44.33-.53.59-.26.77.02,1.54.72,1.97.83.52,1.54-.39,1.6-1.13.07-.75-.59-2.01-1.48-1.52Z" style="fill: #c79189; mix-blend-mode: multiply;"/>
              <path d="M86.29,20.89h0c-.1-.06-.22-.08-.34,0-.26.17-.29.45-.42.66-.4.63-.11,1.58.57,1.87.37.16.8-.14,1.04-.41.26-.3.41-.66.41-1.06,0-.67-.58-1.32-1.25-1.07Z" style="fill: #c79189; mix-blend-mode: multiply;"/>
              <path d="M73.18,19.6c-.23-.45-.68-.39-1.05-.18-.33-.02-.68.24-.85.48-.36.54-.36,1.1.08,1.59.4.45,1.07-.1,1.4-.4.36-.32.65-1.04.42-1.5Z" style="fill: #c79189; mix-blend-mode: multiply;"/>
            </g>
            <g style="opacity: .3;">
              <path d="M104.16,15.79c-.19-.08-.37.01-.54.2-.36.38-.55,1.04-.23,1.49.45.64,1.13-.24,1.3-.65.15-.38.11-1.28-.52-1.04Z" style="fill: #c79189; mix-blend-mode: multiply;"/>
              <path d="M108.14,16.48s-.08-.03-.11-.04c-.06-.02-.13.04-.19.11-.1.08-.17.21-.2.31-.03.1-.01.2.09.22.13.05.31-.19.37-.27.05-.07.19-.29.04-.33Z" style="fill: #c79189; mix-blend-mode: multiply;"/>
              <path d="M104.92,9.59c-.06.03-.11.08-.16.11-.05-.02-.1-.03-.16-.01-.27.08-.44.33-.53.59-.26.77.02,1.54.72,1.97.82.52,1.54-.39,1.6-1.13.06-.75-.59-2.01-1.48-1.53Z" style="fill: #c79189; mix-blend-mode: multiply;"/>
              <path d="M113.25,15.31h0c-.1-.06-.22-.08-.34,0-.26.17-.29.44-.42.65-.4.64-.11,1.59.57,1.87.37.16.8-.14,1.04-.4.26-.3.41-.67.41-1.07,0-.66-.58-1.32-1.25-1.06Z" style="fill: #c79189; mix-blend-mode: multiply;"/>
              <path d="M100.14,14.03c-.23-.46-.68-.39-1.05-.19-.33-.02-.68.24-.84.48-.37.54-.36,1.1.07,1.59.4.45,1.07-.1,1.4-.4.36-.32.65-1.03.42-1.49Z" style="fill: #c79189; mix-blend-mode: multiply;"/>
            </g>
            <g style="opacity: .3;">
              <path d="M90.71,7.79c-.14-.06-.29.01-.42.15-.28.3-.43.81-.18,1.16.35.49.88-.18,1-.5.12-.3.08-1-.41-.81Z" style="fill: #c79189; mix-blend-mode: multiply;"/>
              <path d="M93.81,8.33s-.06-.02-.09-.03c-.05-.01-.11.03-.15.09-.07.06-.13.16-.15.23-.02.07,0,.15.07.18.1.03.24-.15.29-.21.04-.06.15-.22.03-.26Z" style="fill: #c79189; mix-blend-mode: multiply;"/>
              <path d="M91.3,2.98s-.08.06-.12.09c-.04-.01-.08-.02-.12,0-.21.06-.34.25-.41.45-.21.6.02,1.19.56,1.53.64.41,1.2-.3,1.25-.88.05-.58-.46-1.56-1.15-1.19Z" style="fill: #c79189; mix-blend-mode: multiply;"/>
              <path d="M97.78,7.43h0c-.08-.05-.17-.06-.26,0-.21.13-.22.34-.33.51-.31.49-.09,1.23.44,1.45.29.11.63-.12.8-.32.21-.23.32-.52.32-.83,0-.51-.45-1.03-.98-.83Z" style="fill: #c79189; mix-blend-mode: multiply;"/>
              <path d="M87.59,6.43c-.18-.36-.53-.31-.82-.15-.26-.01-.53.19-.66.38-.28.42-.28.86.06,1.24.31.35.83-.08,1.09-.31.28-.25.51-.8.33-1.16Z" style="fill: #c79189; mix-blend-mode: multiply;"/>
            </g>
            <g style="opacity: .3;">
              <path d="M68.15,21.45c-.19-.08-.37.01-.54.2-.35.38-.55,1.04-.23,1.49.45.64,1.12-.23,1.29-.65.15-.38.11-1.28-.52-1.04Z" style="fill: #c79189; mix-blend-mode: multiply;"/>
              <path d="M72.13,22.14s-.07-.02-.11-.03c-.07-.02-.14.04-.19.11-.1.08-.17.21-.2.31-.02.09,0,.2.09.22.13.04.31-.19.37-.27.06-.07.19-.28.04-.33Z" style="fill: #c79189; mix-blend-mode: multiply;"/>
              <path d="M68.91,15.26c-.06.03-.1.07-.16.11-.05-.02-.1-.03-.15-.01-.27.07-.45.33-.53.59-.26.77.02,1.53.72,1.97.82.52,1.54-.39,1.61-1.13.06-.75-.59-2.01-1.48-1.52Z" style="fill: #c79189; mix-blend-mode: multiply;"/>
              <path d="M72.31,19.63h0c-.07-.04-.16-.05-.25,0-.19.12-.21.33-.31.48-.29.46-.08,1.17.42,1.38.27.11.59-.1.77-.3.19-.22.3-.48.3-.78,0-.48-.42-.97-.92-.78Z" style="fill: #c79189; mix-blend-mode: multiply;"/>
              <path d="M64.13,19.69c-.23-.46-.68-.39-1.05-.19-.34-.03-.68.24-.85.48-.37.54-.36,1.11.08,1.6.4.45,1.06-.11,1.4-.4.36-.32.65-1.04.42-1.49Z" style="fill: #c79189; mix-blend-mode: multiply;"/>
            </g>
            <g style="opacity: .3;">
              <path d="M86.17,16.46c-.12-.05-.25.01-.36.13-.24.25-.36.69-.15,1,.3.43.75-.16.87-.44.1-.25.07-.86-.35-.7Z" style="fill: #c79189; mix-blend-mode: multiply;"/>
              <path d="M88.84,16.93s-.05-.02-.08-.02c-.04-.02-.09.02-.13.07-.06.05-.12.14-.13.21-.01.06,0,.13.06.15.09.03.21-.13.25-.18.03-.05.12-.19.03-.22Z" style="fill: #c79189; mix-blend-mode: multiply;"/>
              <path d="M86.68,12.31s-.07.05-.11.08c-.03,0-.07-.01-.11,0-.18.05-.3.22-.35.39-.17.52.02,1.03.48,1.33.55.34,1.03-.26,1.07-.76.04-.5-.4-1.35-.99-1.02Z" style="fill: #c79189; mix-blend-mode: multiply;"/>
              <path d="M92.26,16.14h0c-.07-.04-.14-.05-.23,0-.17.12-.19.3-.28.44-.26.43-.07,1.07.38,1.25.24.11.54-.09.69-.27.18-.2.27-.44.27-.71,0-.44-.39-.88-.84-.72Z" style="fill: #c79189; mix-blend-mode: multiply;"/>
              <path d="M83.48,15.28c-.16-.31-.45-.26-.7-.13-.22-.01-.46.16-.56.33-.25.36-.24.74.05,1.07.26.31.71-.07.94-.27.24-.22.44-.69.28-1Z" style="fill: #c79189; mix-blend-mode: multiply;"/>
            </g>
            <g style="opacity: .3;">
              <path d="M95.1,21.36c-.19-.08-.38.01-.54.2-.36.38-.55,1.04-.23,1.49.45.64,1.13-.23,1.29-.65.16-.38.11-1.28-.52-1.04Z" style="fill: #c79189; mix-blend-mode: multiply;"/>
              <path d="M99.08,22.05s-.08-.03-.11-.04c-.07-.02-.14.04-.2.11-.1.07-.17.21-.2.31-.02.09,0,.2.09.22.14.04.31-.19.37-.27.06-.07.19-.29.05-.33Z" style="fill: #c79189; mix-blend-mode: multiply;"/>
              <path d="M98.29,22.11c-.05.03-.1.08-.15.12-.05-.02-.1-.03-.16-.01-.27.08-.44.34-.53.59-.26.77.02,1.53.71,1.97.83.52,1.54-.39,1.61-1.13.07-.76-.59-2.01-1.48-1.53Z" style="fill: #c79189; mix-blend-mode: multiply;"/>
              <path d="M90.04,12.43h0c-.1-.06-.22-.08-.34,0-.26.17-.29.44-.42.66-.4.63-.11,1.59.57,1.87.37.15.8-.14,1.03-.41.26-.3.41-.66.41-1.06,0-.66-.57-1.32-1.25-1.07Z" style="fill: #c79189; mix-blend-mode: multiply;"/>
              <path d="M91.08,19.6c-.23-.45-.68-.39-1.05-.19-.33-.02-.68.24-.85.48-.37.54-.36,1.11.08,1.6.4.45,1.07-.1,1.4-.4.36-.32.65-1.03.42-1.49Z" style="fill: #c79189; mix-blend-mode: multiply;"/>
            </g>
            <g style="opacity: .3;">
              <path d="M79.61,10.08c-.19-.08-.37.01-.55.2-.35.38-.55,1.04-.23,1.49.45.63,1.13-.24,1.3-.65.15-.38.1-1.28-.52-1.04Z" style="fill: #c79189; mix-blend-mode: multiply;"/>
              <path d="M83.59,10.77s-.08-.02-.11-.03c-.07-.02-.14.03-.2.1-.1.08-.17.21-.2.31-.02.09-.01.2.08.22.14.04.32-.19.37-.27.06-.07.2-.29.05-.34Z" style="fill: #c79189; mix-blend-mode: multiply;"/>
              <path d="M80.37,3.88c-.06.03-.11.08-.16.12-.05-.02-.1-.03-.15-.01-.27.08-.44.33-.53.59-.26.77.02,1.53.71,1.97.83.52,1.54-.39,1.61-1.13.07-.75-.59-2.01-1.48-1.53Z" style="fill: #c79189; mix-blend-mode: multiply;"/>
              <path d="M83.77,8.25h0c-.07-.04-.16-.05-.25,0-.19.12-.22.33-.31.48-.3.46-.09,1.17.42,1.37.27.11.59-.1.76-.3.2-.22.3-.48.3-.78,0-.49-.43-.97-.92-.78Z" style="fill: #c79189; mix-blend-mode: multiply;"/>
              <path d="M75.59,8.31c-.23-.45-.68-.39-1.05-.18-.33-.02-.68.24-.85.48-.37.54-.36,1.1.08,1.59.4.45,1.07-.1,1.4-.4.36-.32.65-1.03.42-1.49Z" style="fill: #c79189; mix-blend-mode: multiply;"/>
            </g>
            <path d="M82.61,3.27s-14.45,6.18-24.6,22.16c0,0,7.66-11.15,24.6-22.16Z" style="fill: #9d817c; mix-blend-mode: screen;"/>
          </g>
          <g>
            <g>
              <g>
                <path d="M58.92,18.66c-2.59-2.43-5.36-4.66-8.42-6.5-3.34-2.01-6.98-3.61-10.86-4.21-9.15-1.4-17.65,6.53-24.67,14.26-4.92,5.43-9.55,11.4-14.45,16.88h77.24c-1.41,0-5.28-5.51-6.23-6.6-2.21-2.5-4.34-5.06-6.56-7.54-1.92-2.17-3.92-4.31-6.05-6.3Z" style="fill: #936360;"/>
                <path d="M77.76,39.62H.51c-.2,0-.39-.12-.47-.31-.09-.19-.05-.4.09-.55,2.3-2.58,4.59-5.32,6.8-7.96,2.48-2.98,5.04-6.05,7.65-8.92,6.55-7.22,14.39-14.59,22.92-14.59.74,0,1.48.05,2.22.17,3.56.55,7.18,1.94,11.05,4.27,2.83,1.7,5.62,3.85,8.51,6.56,1.9,1.78,3.83,3.79,6.08,6.32,1.22,1.37,2.43,2.77,3.63,4.17.98,1.13,1.95,2.26,2.93,3.38.22.25.58.71,1.02,1.29.99,1.27,3.98,5.14,4.82,5.14.29,0,.52.23.52.52s-.23.52-.52.52ZM1.66,38.59h74.29c-.99-.92-2.23-2.44-3.84-4.51-.43-.55-.78-1-.98-1.23-.99-1.12-1.96-2.25-2.94-3.39-1.2-1.39-2.4-2.78-3.62-4.15-2.23-2.51-4.14-4.5-6.02-6.26-2.83-2.66-5.56-4.77-8.33-6.43-3.76-2.26-7.25-3.61-10.67-4.13-.68-.11-1.37-.16-2.06-.16-8.12,0-15.75,7.21-22.15,14.25-2.59,2.86-5.15,5.92-7.63,8.88-1.97,2.36-4,4.8-6.06,7.13Z" style="fill: #546177;"/>
              </g>
              <path d="M71.52,32.5c-2.21-2.5-4.34-5.06-6.56-7.54-1.92-2.17-3.92-4.31-6.05-6.3-2.59-2.43-5.36-4.66-8.42-6.5-3.34-2.01-6.98-3.61-10.86-4.21-2.56-.39-5.07-.05-7.51.81,6.01.3,1.42,27.45-.99,27.7-5.21.54-10.57.75-15.78.09-2.45-.31-5.25-1.28-5.68-4.03-.31-1.99.56-4.14,1.57-6.06-3.59,4.2-7.09,8.56-10.74,12.65h77.24c-1.41,0-5.28-5.51-6.23-6.6Z" style="fill: #9d817c; mix-blend-mode: multiply; opacity: .4;"/>
            </g>
            <g style="mix-blend-mode: multiply; opacity: .3;">
              <path d="M55.04,35.1c-.15-.07-.31.01-.44.16-.29.31-.44.84-.19,1.21.36.52.91-.19,1.05-.52.13-.31.09-1.04-.42-.84Z" style="fill: #c79189; mix-blend-mode: multiply;"/>
              <path d="M58.27,35.66s-.06-.02-.09-.03c-.06-.01-.11.03-.16.09-.08.06-.14.17-.16.25-.02.07,0,.16.07.18.11.03.25-.15.31-.22.04-.05.15-.23.03-.27Z" style="fill: #c79189; mix-blend-mode: multiply;"/>
              <path d="M55.65,30.07s-.08.06-.12.1c-.04-.02-.08-.03-.12-.01-.22.06-.36.27-.43.47-.21.63.02,1.25.58,1.6.67.42,1.25-.31,1.3-.91.05-.62-.48-1.63-1.2-1.24Z" style="fill: #c79189; mix-blend-mode: multiply;"/>
              <path d="M62.41,34.72h0c-.08-.05-.18-.06-.28,0-.21.14-.23.36-.34.53-.32.51-.09,1.29.46,1.52.3.12.66-.11.84-.33.21-.24.33-.54.33-.86,0-.54-.47-1.07-1.01-.87Z" style="fill: #c79189; mix-blend-mode: multiply;"/>
              <path d="M51.78,33.67c-.19-.37-.55-.32-.85-.15-.27-.02-.56.2-.69.39-.3.43-.29.89.07,1.29.33.37.87-.08,1.13-.33.3-.25.53-.84.34-1.21Z" style="fill: #c79189; mix-blend-mode: multiply;"/>
            </g>
            <g style="mix-blend-mode: multiply; opacity: .3;">
              <path d="M36.73,35.09c-.15-.06-.31.01-.44.16-.29.31-.44.84-.19,1.21.36.51.91-.19,1.05-.52.12-.31.09-1.04-.42-.85Z" style="fill: #c79189; mix-blend-mode: multiply;"/>
              <path d="M39.95,35.65s-.06-.02-.09-.02c-.05-.02-.11.03-.16.09-.08.06-.14.17-.16.25-.02.07,0,.16.07.18.11.03.25-.15.3-.22.04-.06.16-.23.03-.27Z" style="fill: #c79189; mix-blend-mode: multiply;"/>
              <path d="M37.34,30.06s-.09.06-.13.1c-.04-.02-.08-.02-.12-.01-.22.06-.36.27-.43.48-.21.62.02,1.24.58,1.6.67.42,1.24-.32,1.3-.92.06-.61-.48-1.63-1.2-1.24Z" style="fill: #c79189; mix-blend-mode: multiply;"/>
              <path d="M44.1,34.71h0c-.08-.05-.18-.06-.28,0-.21.14-.23.36-.34.54-.32.51-.09,1.29.47,1.52.3.12.65-.11.84-.33.21-.24.34-.54.34-.86,0-.54-.47-1.07-1.02-.87Z" style="fill: #c79189; mix-blend-mode: multiply;"/>
              <path d="M33.47,33.67c-.19-.37-.56-.32-.85-.15-.27-.02-.56.2-.69.39-.3.44-.3.89.06,1.3.33.37.87-.09,1.13-.33.29-.26.53-.84.34-1.21Z" style="fill: #c79189; mix-blend-mode: multiply;"/>
            </g>
            <g style="mix-blend-mode: multiply; opacity: .3;">
              <path d="M47.59,30.99c-.15-.07-.3.01-.44.16-.29.31-.44.84-.18,1.21.36.52.91-.19,1.04-.52.12-.31.09-1.04-.43-.85Z" style="fill: #c79189; mix-blend-mode: multiply;"/>
              <path d="M50.83,31.55s-.06-.02-.09-.03c-.05-.02-.11.03-.16.09-.08.06-.14.17-.16.24-.02.08,0,.16.07.19.11.03.25-.15.3-.22.05-.06.15-.23.04-.27Z" style="fill: #c79189; mix-blend-mode: multiply;"/>
              <path d="M48.21,25.96s-.09.06-.13.09c-.04,0-.08-.02-.12,0-.22.06-.36.27-.43.47-.21.63.02,1.24.58,1.6.67.42,1.24-.32,1.3-.92.05-.61-.48-1.63-1.2-1.24Z" style="fill: #c79189; mix-blend-mode: multiply;"/>
              <path d="M50.98,29.51h0c-.07-.04-.13-.05-.21,0-.16.1-.17.26-.25.39-.23.38-.07.95.34,1.12.22.09.48-.09.62-.24.16-.18.24-.39.24-.64,0-.39-.34-.78-.74-.63Z" style="fill: #c79189; mix-blend-mode: multiply;"/>
              <path d="M44.33,29.56c-.19-.37-.55-.32-.85-.15-.27-.02-.55.2-.68.4-.3.43-.3.89.06,1.29.33.36.87-.09,1.13-.33.29-.26.53-.84.34-1.21Z" style="fill: #c79189; mix-blend-mode: multiply;"/>
            </g>
            <g style="mix-blend-mode: multiply; opacity: .3;">
              <path d="M26.5,35.1c-.15-.07-.31.01-.44.16-.29.31-.44.84-.19,1.21.36.52.91-.19,1.05-.52.12-.31.09-1.04-.42-.84Z" style="fill: #c79189; mix-blend-mode: multiply;"/>
              <path d="M29.73,35.66s-.06-.02-.1-.03c-.05-.01-.1.03-.15.09-.08.06-.14.17-.16.25-.02.07,0,.16.07.18.11.03.25-.15.3-.22.05-.05.16-.23.04-.27Z" style="fill: #c79189; mix-blend-mode: multiply;"/>
              <path d="M27.11,30.07s-.09.06-.13.1c-.04-.02-.08-.03-.12-.01-.22.06-.36.27-.43.47-.21.63.02,1.25.58,1.6.67.42,1.25-.31,1.3-.91.05-.62-.48-1.63-1.2-1.24Z" style="fill: #c79189; mix-blend-mode: multiply;"/>
              <path d="M31.22,35.78h0c-.09-.05-.18-.06-.28,0-.21.14-.23.36-.34.53-.32.52-.09,1.29.46,1.52.3.12.65-.12.84-.33.22-.24.33-.54.33-.86,0-.54-.47-1.07-1.01-.87Z" style="fill: #c79189; mix-blend-mode: multiply;"/>
              <path d="M23.24,33.67c-.19-.37-.56-.32-.86-.15-.27-.02-.55.2-.68.39-.3.43-.29.89.06,1.29.33.37.87-.08,1.14-.33.29-.25.53-.84.34-1.21Z" style="fill: #c79189; mix-blend-mode: multiply;"/>
            </g>
            <g style="mix-blend-mode: multiply; opacity: .3;">
              <path d="M8.18,35.09c-.15-.06-.3.01-.44.16-.29.31-.44.84-.19,1.21.36.51.91-.19,1.04-.52.13-.31.09-1.04-.42-.85Z" style="fill: #c79189; mix-blend-mode: multiply;"/>
              <path d="M11.41,35.65s-.05-.02-.09-.02c-.05-.02-.11.03-.16.09-.08.06-.14.17-.16.25-.02.07-.01.16.07.18.11.03.25-.15.31-.22.04-.06.15-.23.03-.27Z" style="fill: #c79189; mix-blend-mode: multiply;"/>
              <path d="M8.8,30.06s-.09.06-.12.1c-.04-.02-.08-.02-.13-.01-.22.06-.36.27-.43.48-.21.62.02,1.24.58,1.6.67.42,1.25-.32,1.3-.92.05-.61-.48-1.63-1.2-1.24Z" style="fill: #c79189; mix-blend-mode: multiply;"/>
              <path d="M15.56,34.71h0c-.08-.05-.18-.06-.28,0-.21.14-.23.36-.34.54-.32.51-.09,1.29.46,1.52.3.12.65-.11.84-.33.22-.24.33-.54.33-.86,0-.54-.47-1.07-1.01-.87Z" style="fill: #c79189; mix-blend-mode: multiply;"/>
              <path d="M12.31,32.82c-.19-.37-.56-.32-.85-.15-.27-.02-.55.2-.68.4-.3.44-.3.89.06,1.29.33.37.86-.08,1.13-.33.29-.26.53-.84.34-1.21Z" style="fill: #c79189; mix-blend-mode: multiply;"/>
            </g>
            <g style="mix-blend-mode: multiply; opacity: .3;">
              <path d="M19.05,30.99c-.15-.07-.3.01-.44.16-.29.31-.45.84-.19,1.21.36.52.91-.19,1.05-.52.13-.31.09-1.04-.42-.85Z" style="fill: #c79189; mix-blend-mode: multiply;"/>
              <path d="M22.28,31.55s-.06-.02-.09-.03c-.06-.02-.11.03-.16.09-.08.06-.14.17-.16.24-.02.08,0,.16.07.19.11.03.25-.15.31-.22.04-.06.15-.23.03-.27Z" style="fill: #c79189; mix-blend-mode: multiply;"/>
              <path d="M19.67,25.96s-.09.06-.13.09c-.04,0-.08-.02-.12,0-.22.06-.36.27-.43.47-.21.63.02,1.24.58,1.6.67.42,1.25-.32,1.31-.92.05-.61-.48-1.63-1.2-1.24Z" style="fill: #c79189; mix-blend-mode: multiply;"/>
              <path d="M22.43,29.51h0c-.06-.04-.13-.05-.21,0-.15.1-.17.26-.25.39-.23.38-.06.95.34,1.12.22.09.48-.09.62-.24.15-.18.24-.39.24-.64,0-.39-.35-.78-.75-.63Z" style="fill: #c79189; mix-blend-mode: multiply;"/>
              <path d="M15.79,29.56c-.19-.37-.55-.32-.85-.15-.27-.02-.55.2-.68.4-.3.43-.3.89.06,1.29.33.36.87-.09,1.13-.33.29-.26.53-.84.34-1.21Z" style="fill: #c79189; mix-blend-mode: multiply;"/>
            </g>
            <g style="mix-blend-mode: multiply; opacity: .3;">
              <path d="M62.32,31.12c-.11-.05-.21,0-.3.11-.2.21-.3.56-.12.81.24.35.61-.13.7-.35.09-.21.06-.7-.28-.56Z" style="fill: #c79189; mix-blend-mode: multiply;"/>
              <path d="M64.48,31.5s-.04-.01-.06-.02c-.03,0-.07.02-.11.06-.05.04-.09.11-.1.17-.02.05,0,.11.04.12.08.02.17-.1.21-.15.03-.04.11-.15.02-.18Z" style="fill: #c79189; mix-blend-mode: multiply;"/>
              <path d="M62.73,27.75s-.06.04-.09.06c-.02,0-.05-.02-.09,0-.15.04-.24.18-.29.32-.14.42.01.83.39,1.07.45.28.83-.21.87-.62.03-.41-.33-1.1-.8-.83Z" style="fill: #c79189; mix-blend-mode: multiply;"/>
              <path d="M67.26,30.86h0c-.05-.03-.12-.04-.19,0-.14.09-.16.24-.22.35-.22.34-.07.86.31,1.01.21.08.43-.08.56-.22.14-.17.22-.37.22-.58,0-.36-.32-.72-.68-.58Z" style="fill: #c79189; mix-blend-mode: multiply;"/>
              <path d="M60.13,30.17c-.12-.25-.37-.22-.57-.1-.18-.01-.37.13-.46.26-.2.29-.2.6.04.87.22.25.58-.06.77-.22.19-.17.35-.56.22-.81Z" style="fill: #c79189; mix-blend-mode: multiply;"/>
            </g>
            <g style="mix-blend-mode: multiply; opacity: .3;">
              <path d="M69.56,35.09c-.15-.06-.3.01-.44.16-.29.31-.44.84-.19,1.21.36.51.91-.19,1.05-.52.12-.31.08-1.04-.43-.85Z" style="fill: #c79189; mix-blend-mode: multiply;"/>
              <path d="M72.79,35.65s-.06-.02-.09-.02c-.05-.02-.12.03-.16.09-.08.06-.14.17-.16.25-.02.07,0,.16.07.18.11.03.25-.15.3-.22.05-.06.16-.23.04-.27Z" style="fill: #c79189; mix-blend-mode: multiply;"/>
              <path d="M72.15,35.7s-.09.06-.12.1c-.04-.01-.08-.02-.13,0-.22.06-.36.27-.43.47-.21.63.02,1.24.58,1.6.67.42,1.25-.32,1.3-.92.05-.61-.48-1.63-1.2-1.24Z" style="fill: #c79189; mix-blend-mode: multiply;"/>
              <path d="M65.45,27.85h0c-.09-.05-.18-.06-.28,0-.21.14-.23.36-.34.53-.32.51-.09,1.29.46,1.52.3.13.66-.11.84-.33.22-.24.34-.54.34-.86,0-.53-.47-1.07-1.01-.86Z" style="fill: #c79189; mix-blend-mode: multiply;"/>
              <path d="M66.3,33.67c-.19-.37-.55-.32-.85-.15-.27-.02-.55.2-.68.39-.3.44-.29.89.06,1.3.33.37.87-.09,1.13-.33.3-.26.53-.84.34-1.21Z" style="fill: #c79189; mix-blend-mode: multiply;"/>
            </g>
            <g style="mix-blend-mode: multiply; opacity: .3;">
              <path d="M56.99,25.94c-.15-.07-.31.01-.44.16-.29.31-.45.84-.19,1.21.36.51.91-.19,1.05-.52.12-.31.09-1.04-.42-.85Z" style="fill: #c79189; mix-blend-mode: multiply;"/>
              <path d="M60.22,26.5s-.06-.02-.09-.02c-.05-.02-.11.03-.15.08-.08.07-.14.17-.16.25-.02.07,0,.16.07.19.11.03.25-.16.3-.22.04-.06.15-.23.03-.27Z" style="fill: #c79189; mix-blend-mode: multiply;"/>
              <path d="M57.61,20.91s-.09.06-.13.1c-.04-.02-.08-.02-.12-.01-.22.07-.36.27-.43.48-.21.62.02,1.24.58,1.6.67.42,1.25-.32,1.3-.92.05-.61-.48-1.63-1.2-1.24Z" style="fill: #c79189; mix-blend-mode: multiply;"/>
              <path d="M60.37,24.46h0c-.06-.03-.13-.05-.21,0-.15.11-.17.27-.25.4-.24.37-.07.95.34,1.12.22.09.48-.09.62-.24.15-.18.25-.39.25-.64,0-.39-.35-.78-.75-.63Z" style="fill: #c79189; mix-blend-mode: multiply;"/>
              <path d="M53.73,24.52c-.19-.37-.56-.32-.86-.15-.27-.02-.55.2-.68.39-.3.44-.29.9.06,1.3.33.37.87-.09,1.14-.33.29-.26.53-.84.34-1.21Z" style="fill: #c79189; mix-blend-mode: multiply;"/>
            </g>
            <g style="mix-blend-mode: multiply; opacity: .3;">
              <path d="M27.33,24.71c-.15-.07-.31.01-.44.16-.29.31-.44.84-.19,1.21.36.52.91-.19,1.04-.52.13-.31.1-1.04-.42-.84Z" style="fill: #c79189; mix-blend-mode: multiply;"/>
              <path d="M30.56,25.27s-.06-.02-.09-.03c-.05-.01-.11.03-.16.09-.08.06-.14.17-.16.25-.02.07,0,.16.07.18.11.03.25-.15.3-.22.05-.06.16-.23.04-.27Z" style="fill: #c79189; mix-blend-mode: multiply;"/>
              <path d="M27.94,19.68s-.09.06-.13.1c-.04-.02-.08-.02-.12-.01-.22.06-.36.27-.43.47-.21.63.02,1.25.58,1.6.67.42,1.24-.32,1.3-.92.06-.61-.47-1.63-1.2-1.24Z" style="fill: #c79189; mix-blend-mode: multiply;"/>
              <path d="M34.7,24.33h0c-.08-.05-.18-.06-.28,0-.21.14-.23.36-.33.53-.33.51-.09,1.29.46,1.52.3.12.66-.12.84-.34.22-.24.33-.54.33-.86,0-.54-.46-1.07-1.01-.86Z" style="fill: #c79189; mix-blend-mode: multiply;"/>
              <path d="M24.06,23.28c-.19-.37-.55-.32-.85-.15-.27-.01-.55.2-.68.4-.3.44-.29.89.06,1.29.33.37.87-.08,1.14-.33.29-.25.53-.84.34-1.21Z" style="fill: #c79189; mix-blend-mode: multiply;"/>
            </g>
            <g style="mix-blend-mode: multiply; opacity: .3;">
              <path d="M49.19,20.19c-.15-.07-.3.01-.44.16-.29.31-.45.84-.19,1.21.36.51.91-.2,1.05-.53.12-.31.09-1.04-.43-.84Z" style="fill: #c79189; mix-blend-mode: multiply;"/>
              <path d="M52.42,20.75s-.06-.02-.09-.03c-.06-.01-.11.03-.16.09-.07.06-.14.17-.16.25-.02.07,0,.15.07.18.11.04.25-.15.3-.22.05-.06.15-.23.03-.27Z" style="fill: #c79189; mix-blend-mode: multiply;"/>
              <path d="M49.81,15.16s-.09.06-.13.1c-.04-.02-.08-.02-.13-.01-.22.07-.36.27-.43.48-.21.62.02,1.24.58,1.59.66.43,1.24-.31,1.3-.91.05-.61-.48-1.63-1.2-1.24Z" style="fill: #c79189; mix-blend-mode: multiply;"/>
              <path d="M56.56,19.8h0c-.09-.04-.18-.06-.28,0-.21.14-.23.36-.34.53-.32.51-.09,1.29.46,1.52.3.13.65-.11.84-.33.21-.24.33-.54.33-.86,0-.54-.47-1.07-1.01-.87Z" style="fill: #c79189; mix-blend-mode: multiply;"/>
              <path d="M45.93,18.76c-.19-.37-.55-.32-.85-.15-.27-.02-.55.2-.69.39-.3.44-.29.9.07,1.3.33.37.86-.09,1.13-.33.29-.26.53-.84.34-1.22Z" style="fill: #c79189; mix-blend-mode: multiply;"/>
            </g>
            <g style="mix-blend-mode: multiply; opacity: .3;">
              <path d="M38.29,13.71c-.12-.05-.23.01-.34.12-.22.24-.34.66-.14.94.28.4.71-.15.81-.41.1-.24.07-.81-.33-.66Z" style="fill: #c79189; mix-blend-mode: multiply;"/>
              <path d="M40.8,14.14s-.05-.01-.07-.02c-.04,0-.09.02-.12.07-.06.05-.11.13-.12.19-.02.06,0,.12.05.14.09.02.2-.12.24-.17.03-.05.12-.18.03-.22Z" style="fill: #c79189; mix-blend-mode: multiply;"/>
              <path d="M38.76,9.8s-.07.05-.1.07c-.03,0-.06-.02-.1,0-.17.05-.28.21-.34.37-.16.48.02.97.45,1.24.52.33.97-.25,1.01-.72.04-.47-.37-1.27-.93-.96Z" style="fill: #c79189; mix-blend-mode: multiply;"/>
              <path d="M44.02,13.41h0c-.07-.04-.14-.05-.22,0-.17.11-.19.28-.27.41-.25.4-.07,1,.36,1.18.23.1.51-.09.66-.26.16-.19.26-.42.26-.67,0-.41-.36-.83-.79-.67Z" style="fill: #c79189; mix-blend-mode: multiply;"/>
              <path d="M35.75,12.6c-.15-.29-.43-.25-.67-.11-.21-.02-.43.15-.53.31-.23.33-.23.69.05,1,.25.29.67-.07.88-.25.23-.2.41-.65.27-.94Z" style="fill: #c79189; mix-blend-mode: multiply;"/>
            </g>
            <g style="mix-blend-mode: multiply; opacity: .3;">
              <path d="M19.98,24.78c-.15-.07-.31.02-.44.16-.29.31-.45.84-.19,1.21.36.52.92-.19,1.05-.52.12-.31.09-1.04-.42-.85Z" style="fill: #c79189; mix-blend-mode: multiply;"/>
              <path d="M23.21,25.35s-.06-.02-.09-.03c-.05-.01-.11.03-.16.09-.08.06-.14.17-.16.24-.02.08,0,.16.07.19.11.03.25-.15.31-.22.04-.05.15-.23.03-.27Z" style="fill: #c79189; mix-blend-mode: multiply;"/>
              <path d="M20.59,19.76s-.09.06-.12.09c-.04-.01-.08-.02-.13-.01-.22.07-.36.27-.43.48-.21.62.02,1.24.58,1.6.67.42,1.25-.32,1.3-.92.05-.61-.48-1.63-1.2-1.23Z" style="fill: #c79189; mix-blend-mode: multiply;"/>
              <path d="M23.36,23.31h0c-.06-.03-.13-.05-.21,0-.16.1-.17.26-.25.39-.24.38-.07.95.34,1.12.22.09.47-.08.62-.24.15-.18.24-.4.24-.64,0-.4-.34-.79-.74-.64Z" style="fill: #c79189; mix-blend-mode: multiply;"/>
              <path d="M16.72,23.36c-.19-.37-.55-.32-.85-.15-.27-.02-.55.2-.68.39-.3.44-.29.9.06,1.3.33.37.87-.09,1.13-.33.29-.26.53-.84.34-1.21Z" style="fill: #c79189; mix-blend-mode: multiply;"/>
            </g>
            <g style="mix-blend-mode: multiply; opacity: .3;">
              <path d="M34.6,20.74c-.1-.05-.2,0-.29.1-.19.21-.3.56-.12.81.24.34.61-.12.7-.35.09-.21.06-.7-.29-.56Z" style="fill: #c79189; mix-blend-mode: multiply;"/>
              <path d="M36.77,21.11s-.04,0-.06-.01c-.03,0-.07.02-.11.06-.05.04-.09.11-.11.16-.02.05,0,.11.05.12.07.02.17-.1.2-.15.03-.03.1-.15.02-.18Z" style="fill: #c79189; mix-blend-mode: multiply;"/>
              <path d="M35.02,17.37s-.06.04-.09.06c-.02,0-.05-.01-.09,0-.14.04-.24.18-.29.32-.14.42,0,.84.39,1.07.45.28.84-.22.88-.62.03-.41-.33-1.1-.8-.83Z" style="fill: #c79189; mix-blend-mode: multiply;"/>
              <path d="M39.54,20.48h0c-.05-.04-.12-.04-.19,0-.13.1-.15.24-.22.36-.22.34-.06.86.31,1.02.21.08.44-.08.56-.22.14-.16.22-.36.22-.57,0-.36-.31-.72-.68-.58Z" style="fill: #c79189; mix-blend-mode: multiply;"/>
              <path d="M32.42,19.78c-.13-.25-.37-.22-.57-.1-.18-.01-.37.13-.46.26-.2.29-.19.6.04.87.22.25.58-.06.76-.22.2-.18.35-.56.23-.81Z" style="fill: #c79189; mix-blend-mode: multiply;"/>
            </g>
            <g style="mix-blend-mode: multiply; opacity: .3;">
              <path d="M41.84,24.71c-.15-.07-.31,0-.44.16-.29.31-.44.84-.19,1.21.36.52.91-.19,1.05-.52.12-.31.09-1.04-.42-.84Z" style="fill: #c79189; mix-blend-mode: multiply;"/>
              <path d="M45.07,25.27s-.06-.02-.09-.03c-.05-.02-.11.03-.15.09-.08.06-.13.17-.16.25-.02.07,0,.16.07.18.11.04.25-.15.3-.22.05-.05.16-.23.03-.27Z" style="fill: #c79189; mix-blend-mode: multiply;"/>
              <path d="M44.43,25.31s-.09.06-.12.1c-.04-.01-.08-.02-.13,0-.22.06-.36.27-.43.47-.21.63.02,1.25.58,1.6.67.42,1.25-.32,1.3-.92.05-.61-.48-1.63-1.2-1.24Z" style="fill: #c79189; mix-blend-mode: multiply;"/>
              <path d="M37.74,17.46h0c-.08-.05-.18-.06-.28,0-.21.14-.23.36-.34.54-.33.51-.09,1.29.46,1.51.3.12.65-.11.83-.33.22-.24.34-.54.34-.87,0-.53-.47-1.07-1.02-.86Z" style="fill: #c79189; mix-blend-mode: multiply;"/>
              <path d="M38.58,23.28c-.19-.37-.55-.32-.85-.15-.27-.02-.55.2-.68.39-.3.44-.29.9.06,1.3.33.36.87-.08,1.14-.33.29-.26.53-.84.33-1.21Z" style="fill: #c79189; mix-blend-mode: multiply;"/>
            </g>
            <g style="mix-blend-mode: multiply; opacity: .3;">
              <path d="M29.27,15.56c-.15-.07-.3,0-.44.16-.29.31-.44.84-.19,1.21.36.52.91-.19,1.05-.52.12-.31.08-1.04-.43-.84Z" style="fill: #c79189; mix-blend-mode: multiply;"/>
              <path d="M32.5,16.12s-.06-.02-.09-.03c-.06,0-.11.03-.16.09-.08.06-.14.17-.16.24-.02.08,0,.16.07.19.11.03.25-.15.3-.22.04-.06.16-.23.03-.27Z" style="fill: #c79189; mix-blend-mode: multiply;"/>
              <path d="M29.89,10.53s-.08.06-.12.1c-.04-.02-.08-.02-.13,0-.22.06-.36.26-.43.47-.21.63.02,1.24.58,1.6.67.42,1.25-.32,1.3-.92.06-.61-.48-1.63-1.2-1.24Z" style="fill: #c79189; mix-blend-mode: multiply;"/>
              <path d="M32.65,14.08h0c-.06-.04-.13-.05-.21,0-.15.1-.17.26-.25.39-.24.37-.07.95.34,1.12.22.09.48-.09.62-.24.16-.18.24-.39.24-.63,0-.4-.34-.79-.75-.64Z" style="fill: #c79189; mix-blend-mode: multiply;"/>
              <path d="M26.02,14.13c-.19-.37-.56-.32-.85-.15-.27-.02-.56.2-.68.39-.3.44-.3.9.06,1.3.33.37.87-.09,1.14-.33.29-.26.53-.84.34-1.21Z" style="fill: #c79189; mix-blend-mode: multiply;"/>
            </g>
            <path d="M31.71,10.03s-11.72,5.02-19.95,17.98c0,0,6.21-9.05,19.95-17.98Z" style="fill: #9d817c; mix-blend-mode: screen;"/>
          </g>
          <g>
            <g>
              <g>
                <path d="M84.16,23.87c-1.93-1.81-3.99-3.47-6.28-4.84-2.49-1.5-5.2-2.69-8.09-3.13-6.82-1.05-13.16,4.86-18.39,10.63-3.67,4.05-7.12,8.5-10.77,12.58h57.57c-1.05,0-3.93-4.11-4.65-4.92-1.64-1.87-3.23-3.77-4.88-5.62-1.43-1.62-2.93-3.21-4.51-4.69Z" style="fill: #936360;"/>
                <path d="M98.21,39.62h-57.57c-.21,0-.39-.12-.47-.31-.09-.19-.05-.4.09-.55,1.71-1.92,3.41-3.96,5.05-5.92,1.86-2.22,3.77-4.51,5.72-6.66,4.89-5.4,10.76-10.92,17.17-10.92.56,0,1.12.04,1.67.12,2.67.41,5.38,1.46,8.29,3.21,2.12,1.27,4.2,2.88,6.36,4.91,1.42,1.33,2.86,2.83,4.54,4.72.92,1.03,1.81,2.07,2.71,3.12.72.84,1.44,1.67,2.17,2.51.16.19.44.54.78.98.7.91,2.85,3.67,3.49,3.77h.02c.27.01.49.24.49.52s-.23.52-.52.52ZM41.78,38.59h54.75c-.69-.7-1.55-1.74-2.63-3.13-.32-.41-.58-.75-.74-.93-.73-.83-1.46-1.67-2.18-2.52-.89-1.04-1.78-2.08-2.7-3.11-1.66-1.87-3.09-3.34-4.48-4.66-2.11-1.97-4.13-3.53-6.19-4.77-2.79-1.67-5.38-2.68-7.91-3.07-.5-.08-1.01-.12-1.52-.12-6,0-11.66,5.34-16.41,10.58-1.93,2.13-3.84,4.42-5.69,6.63-1.41,1.68-2.86,3.42-4.32,5.09Z" style="fill: #546177;"/>
              </g>
              <path d="M93.56,34.18c-1.64-1.87-3.23-3.77-4.88-5.62-1.43-1.62-2.93-3.21-4.51-4.69-1.93-1.81-3.99-3.47-6.28-4.84-2.49-1.5-5.2-2.69-8.09-3.13-1.91-.29-3.78-.04-5.6.6,4.49.22,5.04,16.79-4.19,19.62-3.73,1.14-4.42,1.58-8.3,1.09-1.83-.23-3.91-.95-4.23-3.01-.23-1.49.42-3.08,1.17-4.52-2.67,3.13-5.28,6.38-8,9.43h57.57c-1.05,0-3.93-4.11-4.65-4.92Z" style="fill: #9d817c; mix-blend-mode: multiply; opacity: .4;"/>
            </g>
            <g style="opacity: .5;">
              <path d="M81.28,36.12c-.12-.05-.22,0-.33.12-.22.22-.33.63-.14.9.27.38.68-.14.78-.39.09-.23.06-.78-.32-.63Z" style="fill: #c79189; mix-blend-mode: multiply;"/>
              <path d="M83.68,36.53s-.05-.01-.07-.02c-.04-.01-.09.02-.12.06-.05.05-.1.13-.12.19-.02.06,0,.12.05.14.08.03.19-.12.22-.16.03-.05.11-.17.03-.21Z" style="fill: #c79189; mix-blend-mode: multiply;"/>
              <path d="M81.73,32.37s-.06.04-.1.07c-.03-.01-.06-.02-.09-.01-.16.05-.27.21-.32.36-.16.46.01.93.43,1.19.5.32.93-.23.97-.69.04-.45-.36-1.21-.89-.92Z" style="fill: #c79189; mix-blend-mode: multiply;"/>
              <path d="M86.77,35.83h0c-.06-.03-.13-.04-.21,0-.16.1-.17.27-.25.39-.24.38-.07.96.35,1.13.22.1.48-.09.62-.24.16-.19.25-.4.25-.65,0-.4-.35-.79-.76-.65Z" style="fill: #c79189; mix-blend-mode: multiply;"/>
              <path d="M78.84,35.05c-.14-.28-.41-.23-.64-.11-.2-.01-.41.15-.51.29-.22.33-.22.67.05.97.24.27.65-.06.85-.24.22-.19.39-.63.25-.9Z" style="fill: #c79189; mix-blend-mode: multiply;"/>
            </g>
            <g style="opacity: .5;">
              <path d="M67.63,36.12c-.11-.05-.22,0-.33.12-.22.22-.33.62-.13.9.27.38.68-.15.78-.39.09-.23.07-.78-.32-.63Z" style="fill: #c79189; mix-blend-mode: multiply;"/>
              <path d="M70.03,36.53s-.04-.01-.07-.02c-.04-.01-.08.02-.12.06-.06.05-.1.13-.11.19-.02.05,0,.12.05.14.08.02.19-.12.23-.16.03-.05.11-.18.02-.21Z" style="fill: #c79189; mix-blend-mode: multiply;"/>
              <path d="M68.08,32.37s-.06.04-.09.07c-.03,0-.06-.02-.1,0-.16.05-.27.21-.32.35-.15.47,0,.93.44,1.2.49.32.93-.24.97-.69.04-.45-.36-1.22-.89-.92Z" style="fill: #c79189; mix-blend-mode: multiply;"/>
              <path d="M73.12,35.83h0c-.06-.04-.13-.05-.21,0-.15.1-.17.27-.25.39-.23.39-.07.96.34,1.13.23.1.49-.09.63-.24.16-.19.24-.4.24-.64,0-.4-.35-.8-.76-.65Z" style="fill: #c79189; mix-blend-mode: multiply;"/>
              <path d="M65.19,35.05c-.14-.28-.41-.23-.64-.11-.2-.02-.41.15-.51.29-.22.33-.22.67.05.96.24.28.65-.06.85-.24.22-.2.39-.63.25-.9Z" style="fill: #c79189; mix-blend-mode: multiply;"/>
            </g>
            <g style="opacity: .5;">
              <path d="M75.73,33.06c-.11-.05-.22,0-.33.12-.22.23-.33.63-.14.9.27.38.68-.14.78-.39.09-.23.07-.78-.32-.63Z" style="fill: #c79189; mix-blend-mode: multiply;"/>
              <path d="M78.13,33.48s-.04-.01-.07-.02c-.04-.01-.08.02-.12.07-.06.04-.1.12-.12.18-.01.05,0,.12.05.14.08.02.18-.12.22-.17.03-.04.11-.17.02-.2Z" style="fill: #c79189; mix-blend-mode: multiply;"/>
              <path d="M76.18,29.31s-.07.05-.1.07c-.03,0-.06-.01-.1,0-.16.04-.27.2-.32.35-.16.46.01.93.44,1.19.5.31.93-.23.97-.68.04-.45-.36-1.22-.89-.92Z" style="fill: #c79189; mix-blend-mode: multiply;"/>
              <path d="M78.24,31.96h0s-.1-.04-.15,0c-.12.08-.13.2-.19.29-.18.28-.05.71.25.83.17.07.36-.06.46-.18.12-.13.19-.29.19-.47,0-.3-.26-.59-.56-.47Z" style="fill: #c79189; mix-blend-mode: multiply;"/>
              <path d="M73.29,31.99c-.14-.28-.41-.24-.64-.11-.2-.01-.41.15-.51.29-.22.33-.22.67.04.97.24.27.65-.06.85-.24.22-.19.39-.62.25-.9Z" style="fill: #c79189; mix-blend-mode: multiply;"/>
            </g>
            <g style="opacity: .5;">
              <path d="M60,36.12c-.11-.05-.22,0-.33.12-.22.22-.33.63-.14.9.27.38.68-.14.78-.39.09-.23.06-.78-.32-.63Z" style="fill: #c79189; mix-blend-mode: multiply;"/>
              <path d="M62.41,36.53s-.04-.01-.07-.02c-.04-.01-.08.02-.11.06-.05.05-.1.13-.12.19-.01.06,0,.12.05.14.08.03.19-.12.22-.16.03-.05.11-.17.02-.21Z" style="fill: #c79189; mix-blend-mode: multiply;"/>
              <path d="M60.46,32.37s-.06.04-.1.07c-.03-.01-.06-.02-.09-.01-.17.05-.27.21-.32.36-.16.46,0,.93.44,1.19.5.32.93-.23.97-.69.04-.45-.36-1.21-.89-.92Z" style="fill: #c79189; mix-blend-mode: multiply;"/>
              <path d="M63.52,36.62h0c-.06-.03-.13-.05-.21,0-.15.1-.17.27-.25.4-.24.38-.07.96.34,1.13.22.1.48-.09.62-.24.16-.18.25-.4.25-.64,0-.4-.35-.8-.76-.65Z" style="fill: #c79189; mix-blend-mode: multiply;"/>
              <path d="M57.57,35.05c-.14-.28-.42-.23-.64-.11-.2-.01-.41.15-.51.29-.22.33-.22.67.04.97.24.27.65-.06.85-.24.22-.19.39-.63.25-.9Z" style="fill: #c79189; mix-blend-mode: multiply;"/>
            </g>
            <g style="opacity: .5;">
              <path d="M46.35,36.12c-.11-.05-.22,0-.33.12-.22.22-.33.62-.14.9.27.38.68-.15.78-.39.09-.23.06-.78-.32-.63Z" style="fill: #c79189; mix-blend-mode: multiply;"/>
              <path d="M48.76,36.53s-.04-.01-.06-.02c-.04-.01-.09.02-.12.06-.06.05-.11.13-.12.19-.01.05,0,.12.05.14.08.02.19-.12.22-.16.03-.05.12-.18.02-.21Z" style="fill: #c79189; mix-blend-mode: multiply;"/>
              <path d="M46.81,32.37s-.06.04-.09.07c-.03,0-.06-.02-.1,0-.16.05-.27.21-.32.35-.16.47.01.93.44,1.2.5.32.93-.24.97-.69.04-.45-.36-1.22-.89-.92Z" style="fill: #c79189; mix-blend-mode: multiply;"/>
              <path d="M51.85,35.83h0c-.06-.04-.13-.05-.21,0-.16.1-.17.27-.25.39-.24.39-.06.96.34,1.13.22.1.49-.09.63-.24.16-.19.25-.4.25-.64,0-.4-.35-.8-.76-.65Z" style="fill: #c79189; mix-blend-mode: multiply;"/>
              <path d="M49.43,34.42c-.14-.28-.42-.24-.64-.11-.2,0-.41.15-.51.3-.22.32-.22.67.05.96.24.28.65-.06.85-.24.22-.19.39-.63.26-.9Z" style="fill: #c79189; mix-blend-mode: multiply;"/>
            </g>
            <g style="opacity: .5;">
              <path d="M54.45,33.06c-.11-.05-.22,0-.33.12-.21.23-.33.63-.13.9.27.38.67-.14.78-.39.1-.23.06-.78-.32-.63Z" style="fill: #c79189; mix-blend-mode: multiply;"/>
              <path d="M56.86,33.48s-.04-.01-.07-.02c-.04-.01-.09.02-.12.07-.06.04-.1.12-.12.18-.02.05,0,.12.05.14.08.02.19-.12.23-.17.03-.04.11-.17.02-.2Z" style="fill: #c79189; mix-blend-mode: multiply;"/>
              <path d="M54.91,29.31s-.07.05-.1.07c-.02,0-.06-.01-.09,0-.16.04-.27.2-.32.35-.15.46.01.93.44,1.19.5.31.93-.23.97-.68.03-.45-.36-1.22-.9-.92Z" style="fill: #c79189; mix-blend-mode: multiply;"/>
              <path d="M56.97,31.96h0s-.1-.04-.15,0c-.12.08-.13.2-.19.29-.18.28-.05.71.25.83.16.07.35-.06.46-.18.12-.13.18-.29.18-.47,0-.3-.26-.59-.56-.47Z" style="fill: #c79189; mix-blend-mode: multiply;"/>
              <path d="M52.02,31.99c-.14-.28-.41-.24-.64-.11-.2-.01-.41.15-.51.29-.22.33-.22.67.04.97.25.27.65-.06.85-.24.22-.19.4-.62.25-.9Z" style="fill: #c79189; mix-blend-mode: multiply;"/>
            </g>
            <g style="opacity: .5;">
              <path d="M86.7,33.16c-.08-.03-.15,0-.22.08-.14.15-.22.42-.09.6.18.25.45-.1.52-.26.07-.15.05-.52-.21-.42Z" style="fill: #c79189; mix-blend-mode: multiply;"/>
              <path d="M88.31,33.43s-.03,0-.05,0c-.03,0-.06,0-.08.04-.04.03-.07.09-.08.13-.01.03,0,.08.03.09.06.01.12-.08.15-.11.02-.03.08-.12.02-.14Z" style="fill: #c79189; mix-blend-mode: multiply;"/>
              <path d="M87.01,30.64s-.05.03-.07.04c-.02,0-.04,0-.06,0-.11.03-.18.14-.22.24-.11.32,0,.62.29.8.34.21.62-.16.65-.46.02-.31-.24-.81-.6-.62Z" style="fill: #c79189; mix-blend-mode: multiply;"/>
              <path d="M90.38,32.96h0s-.09-.03-.14,0c-.11.07-.12.18-.17.27-.16.25-.05.65.23.76.15.06.33-.06.42-.17.11-.12.16-.27.16-.43,0-.27-.23-.54-.5-.44Z" style="fill: #c79189; mix-blend-mode: multiply;"/>
              <path d="M85.07,32.44c-.1-.19-.28-.16-.43-.08-.13,0-.28.1-.34.2-.14.22-.14.44.03.65.16.19.43-.04.57-.16.14-.13.26-.42.17-.6Z" style="fill: #c79189; mix-blend-mode: multiply;"/>
            </g>
            <g style="opacity: .5;">
              <path d="M92.09,36.12c-.11-.05-.22,0-.33.12-.22.22-.33.62-.14.9.27.38.68-.15.78-.39.09-.23.07-.78-.32-.63Z" style="fill: #c79189; mix-blend-mode: multiply;"/>
              <path d="M94.5,36.53s-.04-.01-.07-.02c-.04-.01-.08.02-.11.06-.06.05-.11.13-.12.19-.02.05,0,.12.05.14.08.02.19-.12.22-.16.04-.05.12-.18.03-.21Z" style="fill: #c79189; mix-blend-mode: multiply;"/>
              <path d="M94.02,36.57s-.06.05-.09.07c-.03,0-.06-.02-.1,0-.16.04-.27.2-.32.35-.16.46.01.92.43,1.19.5.32.93-.23.97-.68.04-.45-.35-1.22-.89-.92Z" style="fill: #c79189; mix-blend-mode: multiply;"/>
              <path d="M89.04,30.72h0c-.06-.04-.13-.05-.21,0-.15.11-.17.27-.25.4-.24.38-.07.96.35,1.13.22.09.48-.09.63-.24.15-.18.24-.4.24-.64,0-.4-.35-.8-.76-.65Z" style="fill: #c79189; mix-blend-mode: multiply;"/>
              <path d="M89.66,35.05c-.14-.28-.41-.23-.64-.11-.2-.02-.41.15-.51.29-.22.33-.22.67.05.96.24.28.65-.06.85-.24.22-.2.39-.63.25-.9Z" style="fill: #c79189; mix-blend-mode: multiply;"/>
            </g>
            <g style="opacity: .5;">
              <path d="M82.73,29.29c-.11-.04-.22.01-.33.12-.22.22-.33.63-.13.9.27.38.68-.15.78-.39.09-.23.06-.78-.32-.63Z" style="fill: #c79189; mix-blend-mode: multiply;"/>
              <path d="M85.14,29.71s-.05-.01-.07-.02c-.04-.01-.08.02-.11.06-.06.05-.11.13-.12.19-.01.06,0,.11.05.13.08.03.19-.11.22-.16.03-.04.11-.18.03-.21Z" style="fill: #c79189; mix-blend-mode: multiply;"/>
              <path d="M83.18,25.55s-.06.04-.1.07c-.02-.01-.06-.02-.09,0-.16.04-.27.2-.32.35-.15.47.01.93.43,1.2.5.31.93-.23.97-.69.04-.45-.36-1.22-.89-.92Z" style="fill: #c79189; mix-blend-mode: multiply;"/>
              <path d="M85.24,28.19h0s-.1-.03-.15,0c-.12.08-.13.2-.19.29-.18.28-.05.7.25.83.16.07.35-.06.46-.18.11-.13.18-.29.18-.47,0-.29-.26-.58-.56-.47Z" style="fill: #c79189; mix-blend-mode: multiply;"/>
              <path d="M80.3,28.23c-.14-.28-.41-.23-.64-.11-.2-.01-.41.15-.51.3-.22.33-.22.66.05.96.24.28.65-.06.85-.24.22-.19.39-.62.25-.9Z" style="fill: #c79189; mix-blend-mode: multiply;"/>
            </g>
            <g style="opacity: .5;">
              <path d="M60.62,28.38c-.11-.05-.23,0-.33.12-.22.23-.33.63-.14.9.27.38.68-.14.78-.39.09-.23.07-.78-.31-.63Z" style="fill: #c79189; mix-blend-mode: multiply;"/>
              <path d="M63.02,28.8s-.04-.01-.07-.02c-.04,0-.08.02-.11.07-.06.04-.11.12-.12.18-.02.06,0,.12.05.14.08.02.19-.12.22-.17.03-.04.11-.17.02-.2Z" style="fill: #c79189; mix-blend-mode: multiply;"/>
              <path d="M61.08,24.63s-.07.04-.1.07c-.03,0-.06-.01-.1,0-.16.04-.26.2-.32.35-.16.46.01.93.43,1.19.5.31.93-.23.97-.68.04-.46-.35-1.22-.89-.92Z" style="fill: #c79189; mix-blend-mode: multiply;"/>
              <path d="M66.11,28.09h0c-.06-.04-.13-.04-.21,0-.16.11-.17.27-.25.4-.24.38-.07.96.34,1.13.22.1.49-.09.63-.24.16-.18.25-.4.25-.64,0-.4-.35-.79-.76-.65Z" style="fill: #c79189; mix-blend-mode: multiply;"/>
              <path d="M58.19,27.31c-.14-.28-.42-.24-.64-.11-.2-.01-.41.14-.51.29-.22.33-.22.66.05.97.24.27.64-.06.85-.24.22-.19.39-.62.25-.9Z" style="fill: #c79189; mix-blend-mode: multiply;"/>
            </g>
            <g style="opacity: .5;">
              <path d="M76.92,25.01c-.11-.05-.23,0-.33.12-.22.23-.34.63-.14.9.27.38.68-.14.78-.39.09-.23.06-.78-.32-.63Z" style="fill: #c79189; mix-blend-mode: multiply;"/>
              <path d="M79.32,25.42s-.04-.01-.07-.02c-.04,0-.08.02-.12.07-.05.04-.1.12-.11.18-.02.05,0,.12.05.13.08.03.19-.11.22-.16.04-.04.11-.18.03-.21Z" style="fill: #c79189; mix-blend-mode: multiply;"/>
              <path d="M77.37,21.26s-.06.05-.09.07c-.03-.01-.06-.01-.1,0-.16.05-.27.2-.32.36-.16.46.01.92.44,1.19.5.31.93-.24.97-.68.04-.46-.36-1.22-.89-.93Z" style="fill: #c79189; mix-blend-mode: multiply;"/>
              <path d="M82.41,24.72h0c-.06-.04-.13-.05-.21,0-.15.1-.17.27-.25.4-.24.38-.07.96.34,1.13.22.1.48-.09.62-.24.16-.18.25-.4.25-.64,0-.4-.35-.8-.76-.65Z" style="fill: #c79189; mix-blend-mode: multiply;"/>
              <path d="M74.49,23.95c-.14-.28-.41-.24-.64-.11-.2-.02-.41.14-.51.29-.22.33-.22.67.05.97.24.27.64-.07.85-.24.22-.19.4-.63.25-.9Z" style="fill: #c79189; mix-blend-mode: multiply;"/>
            </g>
            <g style="opacity: .5;">
              <path d="M68.79,20.18c-.09-.04-.18,0-.25.1-.17.18-.26.48-.11.7.21.3.53-.11.61-.31.07-.18.05-.6-.24-.49Z" style="fill: #c79189; mix-blend-mode: multiply;"/>
              <path d="M70.66,20.5s-.03,0-.05-.01c-.03-.01-.06.01-.09.05-.04.04-.08.1-.09.14-.01.04,0,.09.04.11.06.02.15-.09.18-.13.02-.03.09-.14.02-.16Z" style="fill: #c79189; mix-blend-mode: multiply;"/>
              <path d="M69.14,17.26s-.05.03-.08.05c-.02,0-.04,0-.07,0-.12.03-.21.15-.25.27-.12.36.01.72.34.93.39.25.72-.18.76-.53.03-.35-.28-.95-.7-.72Z" style="fill: #c79189; mix-blend-mode: multiply;"/>
              <path d="M73.06,19.96h0s-.11-.04-.16,0c-.12.08-.13.21-.2.31-.18.3-.05.75.27.88.17.07.38-.07.49-.19.12-.14.19-.31.19-.5,0-.31-.27-.62-.59-.5Z" style="fill: #c79189; mix-blend-mode: multiply;"/>
              <path d="M66.9,19.35c-.11-.22-.32-.18-.49-.09-.16,0-.33.12-.4.23-.18.25-.17.52.03.75.19.22.5-.05.66-.19.17-.15.31-.49.2-.7Z" style="fill: #c79189; mix-blend-mode: multiply;"/>
            </g>
            <g style="opacity: .5;">
              <path d="M55.14,28.43c-.11-.05-.22,0-.33.12-.22.23-.33.63-.14.89.27.39.68-.14.78-.39.1-.23.07-.78-.32-.63Z" style="fill: #c79189; mix-blend-mode: multiply;"/>
              <path d="M57.55,28.85s-.04-.01-.07-.02c-.04,0-.08.02-.11.06-.06.04-.1.12-.12.19-.01.05,0,.11.05.13.08.03.19-.11.22-.16.03-.04.11-.17.02-.2Z" style="fill: #c79189; mix-blend-mode: multiply;"/>
              <path d="M55.6,24.68s-.06.05-.1.07c-.03,0-.06-.01-.1,0-.16.05-.27.2-.32.35-.15.46.02.93.44,1.2.5.31.93-.24.97-.68.04-.46-.36-1.22-.89-.93Z" style="fill: #c79189; mix-blend-mode: multiply;"/>
              <path d="M57.66,27.33h0s-.1-.03-.16,0c-.11.07-.12.2-.19.29-.18.28-.05.7.26.83.16.06.35-.06.45-.18.12-.13.19-.3.19-.47,0-.29-.26-.59-.56-.47Z" style="fill: #c79189; mix-blend-mode: multiply;"/>
              <path d="M52.72,27.37c-.14-.28-.41-.24-.64-.11-.2-.02-.41.14-.51.29-.22.33-.22.66.04.96.25.28.65-.06.85-.24.22-.19.39-.63.25-.9Z" style="fill: #c79189; mix-blend-mode: multiply;"/>
            </g>
            <g style="opacity: .5;">
              <path d="M66.04,25.41c-.08-.03-.15,0-.22.08-.14.16-.22.43-.09.61.18.26.45-.1.52-.26.07-.15.04-.52-.21-.42Z" style="fill: #c79189; mix-blend-mode: multiply;"/>
              <path d="M67.65,25.7s-.03-.01-.04-.01c-.03-.01-.06.01-.08.04-.04.03-.07.08-.08.12,0,.04,0,.08.03.1.06.01.13-.08.16-.11.02-.03.08-.12.01-.13Z" style="fill: #c79189; mix-blend-mode: multiply;"/>
              <path d="M66.35,22.9s-.05.03-.07.05c-.02,0-.04-.01-.06,0-.11.03-.18.13-.22.24-.1.32,0,.62.29.8.34.21.63-.16.65-.46.03-.3-.24-.81-.59-.62Z" style="fill: #c79189; mix-blend-mode: multiply;"/>
              <path d="M69.72,25.22h0s-.09-.03-.14,0c-.1.07-.11.18-.17.27-.16.26-.05.65.23.76.15.07.33-.06.42-.16.11-.12.16-.27.16-.43,0-.27-.23-.53-.51-.43Z" style="fill: #c79189; mix-blend-mode: multiply;"/>
              <path d="M64.41,24.7c-.1-.19-.28-.16-.43-.08-.13,0-.27.1-.34.2-.15.22-.14.45.03.65.16.18.43-.04.56-.16.15-.13.26-.42.17-.6Z" style="fill: #c79189; mix-blend-mode: multiply;"/>
            </g>
            <g style="opacity: .5;">
              <path d="M71.43,28.37c-.11-.04-.22.01-.33.12-.22.23-.33.63-.13.9.27.38.68-.14.78-.39.09-.23.06-.78-.32-.63Z" style="fill: #c79189; mix-blend-mode: multiply;"/>
              <path d="M73.85,28.79s-.04-.01-.07-.02c-.04,0-.09.02-.12.06-.06.04-.1.12-.12.18-.01.06,0,.12.05.14.08.03.19-.11.22-.16.03-.04.12-.17.03-.2Z" style="fill: #c79189; mix-blend-mode: multiply;"/>
              <path d="M73.37,28.83s-.06.04-.1.07c-.03,0-.06-.02-.09,0-.16.05-.27.2-.32.36-.16.46.01.93.43,1.19.5.32.93-.23.97-.68.04-.46-.36-1.22-.89-.92Z" style="fill: #c79189; mix-blend-mode: multiply;"/>
              <path d="M68.38,22.97h0c-.06-.04-.13-.04-.21,0-.15.1-.17.27-.25.4-.24.38-.07.96.34,1.13.22.09.48-.09.63-.25.16-.18.25-.4.25-.64,0-.4-.35-.8-.76-.65Z" style="fill: #c79189; mix-blend-mode: multiply;"/>
              <path d="M69.01,27.31c-.14-.28-.41-.23-.64-.11-.2-.02-.41.14-.51.29-.22.33-.22.66.04.97.24.27.64-.06.85-.24.22-.19.4-.63.25-.9Z" style="fill: #c79189; mix-blend-mode: multiply;"/>
            </g>
            <g style="opacity: .5;">
              <path d="M62.08,21.55c-.11-.05-.23,0-.33.12-.22.23-.33.63-.14.9.27.38.68-.14.78-.39.1-.23.07-.78-.31-.63Z" style="fill: #c79189; mix-blend-mode: multiply;"/>
              <path d="M64.48,21.97s-.04-.02-.07-.02c-.04,0-.08.02-.12.06-.06.05-.1.12-.12.19-.01.05,0,.12.05.13.08.03.19-.11.22-.16.03-.04.11-.17.02-.2Z" style="fill: #c79189; mix-blend-mode: multiply;"/>
              <path d="M62.53,17.8s-.06.05-.09.07c-.03,0-.06-.01-.1,0-.16.04-.27.2-.32.35-.16.47,0,.93.43,1.2.5.31.93-.23.97-.68.04-.46-.36-1.22-.9-.93Z" style="fill: #c79189; mix-blend-mode: multiply;"/>
              <path d="M64.59,20.45h0s-.1-.04-.15,0c-.12.08-.13.2-.19.29-.17.28-.05.71.26.83.16.07.35-.07.46-.18.11-.13.18-.29.18-.47,0-.3-.26-.58-.56-.47Z" style="fill: #c79189; mix-blend-mode: multiply;"/>
              <path d="M59.64,20.49c-.14-.28-.41-.23-.63-.11-.2-.01-.41.14-.51.29-.22.33-.22.66.04.97.24.27.65-.06.85-.24.22-.19.4-.62.25-.9Z" style="fill: #c79189; mix-blend-mode: multiply;"/>
            </g>
            <path d="M63.89,17.43s-8.74,3.74-14.87,13.4c0,0,4.63-6.74,14.87-13.4Z" style="fill: #9d817c; mix-blend-mode: screen;"/>
          </g>
        </g>
      </g>
    </g>
  </g>
</svg>