<?xml version="1.0" encoding="UTF-8"?>
<svg xmlns="http://www.w3.org/2000/svg" viewBox="0 0 72.54 24.36">
  <g style="isolation: isolate;">
    <g id="_圖層_2" data-name="圖層_2">
      <g id="_圖層_2-2" data-name="圖層_2">
        <g>
          <g>
            <g>
              <g>
                <path d="M39.21,10.42c-1.72-1.62-3.57-3.1-5.6-4.32-2.23-1.34-4.64-2.4-7.23-2.8-6.09-.93-11.75,4.34-16.42,9.49-3.28,3.61-6.36,7.58-9.62,11.23h51.41c-.94,0-3.51-3.67-4.15-4.39-1.47-1.66-2.89-3.37-4.37-5.02-1.28-1.45-2.61-2.87-4.02-4.19Z" style="fill: #787371;"/>
                <path d="M51.75,24.36H.34c-.13,0-.26-.08-.31-.2-.06-.12-.03-.27.06-.37,1.53-1.72,3.05-3.54,4.52-5.3,1.65-1.98,3.36-4.02,5.09-5.94C14.06,7.75,19.28,2.84,24.96,2.84c.49,0,.99.04,1.47.11,2.37.36,4.78,1.29,7.36,2.84,1.88,1.13,3.74,2.56,5.66,4.37,1.26,1.18,2.55,2.52,4.05,4.21.82.91,1.61,1.84,2.41,2.77.65.75,1.3,1.5,1.95,2.25.14.17.39.47.68.86.66.85,2.65,3.42,3.21,3.42.19,0,.34.16.34.34s-.15.34-.34.34ZM1.11,23.67h49.44c-.66-.61-1.49-1.62-2.55-3-.28-.37-.52-.67-.65-.82-.66-.75-1.31-1.5-1.96-2.26-.8-.92-1.6-1.85-2.41-2.76-1.48-1.67-2.76-2.99-4.01-4.16-1.88-1.77-3.7-3.17-5.55-4.28-2.5-1.5-4.82-2.4-7.1-2.75-.45-.07-.91-.1-1.37-.1-5.41,0-10.49,4.8-14.74,9.49-1.73,1.9-3.43,3.94-5.08,5.91-1.31,1.57-2.67,3.19-4.03,4.75Z" style="fill: #58585c;"/>
              </g>
              <path d="M47.6,19.62c-1.47-1.66-2.89-3.37-4.37-5.02-1.28-1.45-2.61-2.87-4.02-4.19-1.72-1.62-3.57-3.1-5.6-4.32-2.23-1.34-4.64-2.4-7.23-2.8-1.7-.26-3.38-.03-5,.54,4,.2.94,18.27-.66,18.43-3.47.36-7.04.5-10.5.06-1.63-.2-3.49-.85-3.78-2.68-.21-1.33.37-2.75,1.05-4.03-2.39,2.8-4.72,5.7-7.15,8.42h51.41c-.94,0-3.51-3.67-4.15-4.39Z" style="fill: #827f7d; mix-blend-mode: multiply; opacity: .4;"/>
            </g>
            <g style="mix-blend-mode: multiply; opacity: .3;">
              <path d="M36.63,21.35c-.1-.04-.2,0-.29.1-.19.21-.3.56-.12.8.24.34.61-.13.7-.35.09-.21.06-.69-.28-.56Z" style="fill: #aca5a1; mix-blend-mode: multiply;"/>
              <path d="M38.78,21.73s-.04-.01-.06-.02c-.04,0-.08.02-.1.06-.05.04-.09.11-.11.17-.01.05,0,.11.05.12.07.02.17-.1.2-.15.03-.03.1-.15.02-.18Z" style="fill: #aca5a1; mix-blend-mode: multiply;"/>
              <path d="M37.04,18.01s-.05.04-.08.06c-.03-.01-.05-.02-.08,0-.15.04-.24.18-.29.32-.14.42.01.83.39,1.06.45.28.83-.21.87-.61.03-.41-.32-1.09-.8-.82Z" style="fill: #aca5a1; mix-blend-mode: multiply;"/>
              <path d="M41.54,21.1h0c-.05-.04-.12-.04-.19,0-.14.09-.15.24-.23.35-.21.34-.06.86.31,1.01.2.08.44-.08.56-.22.14-.16.22-.36.22-.57,0-.36-.31-.71-.67-.58Z" style="fill: #aca5a1; mix-blend-mode: multiply;"/>
              <path d="M34.46,20.4c-.12-.25-.37-.21-.57-.1-.18-.02-.37.13-.46.26-.2.29-.19.59.04.86.22.25.58-.05.75-.22.2-.17.35-.56.23-.81Z" style="fill: #aca5a1; mix-blend-mode: multiply;"/>
            </g>
            <g style="mix-blend-mode: multiply; opacity: .3;">
              <path d="M24.44,21.35c-.1-.04-.2,0-.29.11-.19.2-.3.56-.12.8.24.34.61-.13.7-.35.08-.21.06-.69-.28-.56Z" style="fill: #aca5a1; mix-blend-mode: multiply;"/>
              <path d="M26.59,21.72s-.04-.01-.06-.02c-.03-.01-.07.02-.1.06-.05.04-.09.11-.11.17-.01.05,0,.11.05.12.07.02.17-.1.2-.15.03-.04.11-.15.02-.18Z" style="fill: #aca5a1; mix-blend-mode: multiply;"/>
              <path d="M24.85,18s-.06.04-.09.06c-.03-.01-.05-.02-.08,0-.15.04-.24.18-.29.32-.14.41.01.83.39,1.06.45.28.83-.21.86-.61.04-.41-.32-1.09-.8-.82Z" style="fill: #aca5a1; mix-blend-mode: multiply;"/>
              <path d="M29.35,21.1h0c-.05-.03-.12-.04-.18,0-.14.09-.16.24-.23.36-.21.34-.06.86.31,1.01.2.08.43-.08.56-.22.14-.16.22-.36.22-.57,0-.36-.31-.71-.68-.58Z" style="fill: #aca5a1; mix-blend-mode: multiply;"/>
              <path d="M22.27,20.4c-.13-.25-.37-.21-.57-.1-.18-.01-.37.13-.46.26-.2.29-.2.6.04.86.22.25.58-.06.75-.22.19-.17.35-.56.23-.81Z" style="fill: #aca5a1; mix-blend-mode: multiply;"/>
            </g>
            <g style="mix-blend-mode: multiply; opacity: .3;">
              <path d="M31.67,18.62c-.1-.04-.2,0-.29.11-.19.2-.29.56-.12.8.24.34.6-.13.69-.35.08-.21.06-.69-.28-.56Z" style="fill: #aca5a1; mix-blend-mode: multiply;"/>
              <path d="M33.83,18.99s-.04-.01-.06-.02c-.04-.01-.07.02-.11.06-.05.04-.09.11-.11.16-.01.05,0,.11.05.12.07.02.17-.1.2-.15.03-.04.1-.15.03-.18Z" style="fill: #aca5a1; mix-blend-mode: multiply;"/>
              <path d="M32.08,15.27s-.06.04-.09.06c-.03,0-.05-.02-.08,0-.15.04-.24.18-.29.32-.14.42.02.83.39,1.06.45.28.83-.21.86-.61.03-.4-.32-1.09-.8-.82Z" style="fill: #aca5a1; mix-blend-mode: multiply;"/>
              <path d="M33.93,17.63h0s-.09-.03-.14,0c-.1.07-.11.18-.17.26-.16.25-.04.63.23.75.15.06.32-.06.41-.16.11-.12.16-.26.16-.42,0-.26-.23-.52-.49-.42Z" style="fill: #aca5a1; mix-blend-mode: multiply;"/>
              <path d="M29.51,17.67c-.12-.25-.37-.21-.57-.1-.18-.01-.37.13-.46.26-.2.29-.2.59.04.86.22.24.58-.06.75-.22.19-.18.35-.56.23-.81Z" style="fill: #aca5a1; mix-blend-mode: multiply;"/>
            </g>
            <g style="mix-blend-mode: multiply; opacity: .3;">
              <path d="M17.64,21.35c-.1-.04-.2,0-.29.1-.19.21-.3.56-.12.8.24.34.61-.13.7-.35.08-.21.06-.69-.28-.56Z" style="fill: #aca5a1; mix-blend-mode: multiply;"/>
              <path d="M19.78,21.73s-.04-.01-.06-.02c-.03,0-.07.02-.1.06-.05.04-.09.11-.11.17-.01.05,0,.11.05.12.07.02.17-.1.2-.15.03-.03.1-.15.03-.18Z" style="fill: #aca5a1; mix-blend-mode: multiply;"/>
              <path d="M18.04,18.01s-.06.04-.09.06c-.03-.01-.05-.02-.08,0-.15.04-.24.18-.29.32-.14.42.02.83.39,1.06.45.28.83-.21.87-.61.03-.41-.32-1.09-.8-.82Z" style="fill: #aca5a1; mix-blend-mode: multiply;"/>
              <path d="M20.78,21.81h0c-.06-.04-.12-.04-.19,0-.14.09-.16.24-.23.35-.21.34-.06.86.31,1.01.2.08.43-.08.56-.22.14-.16.22-.36.22-.57,0-.36-.31-.71-.67-.58Z" style="fill: #aca5a1; mix-blend-mode: multiply;"/>
              <path d="M15.47,20.4c-.13-.25-.37-.21-.57-.1-.18-.02-.37.13-.46.26-.2.29-.19.59.04.86.22.25.58-.05.76-.22.19-.17.35-.56.23-.81Z" style="fill: #aca5a1; mix-blend-mode: multiply;"/>
            </g>
            <g style="mix-blend-mode: multiply; opacity: .3;">
              <path d="M5.45,21.35c-.1-.04-.2,0-.29.11-.19.2-.3.56-.12.8.24.34.6-.13.69-.35.09-.21.06-.69-.28-.56Z" style="fill: #aca5a1; mix-blend-mode: multiply;"/>
              <path d="M7.59,21.72s-.03-.01-.06-.02c-.03-.01-.07.02-.1.06-.05.04-.09.11-.1.17-.02.05,0,.11.04.12.07.02.17-.1.2-.15.03-.04.1-.15.02-.18Z" style="fill: #aca5a1; mix-blend-mode: multiply;"/>
              <path d="M5.85,18s-.06.04-.08.06c-.03-.01-.05-.02-.09,0-.15.04-.24.18-.29.32-.14.41.02.83.39,1.06.45.28.83-.21.87-.61.04-.41-.32-1.09-.8-.82Z" style="fill: #aca5a1; mix-blend-mode: multiply;"/>
              <path d="M10.35,21.1h0c-.05-.03-.12-.04-.18,0-.14.09-.16.24-.23.36-.21.34-.06.86.31,1.01.2.08.43-.08.56-.22.14-.16.22-.36.22-.57,0-.36-.32-.71-.67-.58Z" style="fill: #aca5a1; mix-blend-mode: multiply;"/>
              <path d="M8.19,19.83c-.12-.25-.37-.21-.57-.1-.18-.01-.37.13-.46.26-.2.29-.2.6.04.86.22.25.57-.05.75-.22.19-.17.35-.56.23-.81Z" style="fill: #aca5a1; mix-blend-mode: multiply;"/>
            </g>
            <g style="mix-blend-mode: multiply; opacity: .3;">
              <path d="M12.68,18.62c-.1-.04-.2,0-.29.11-.19.2-.3.56-.13.8.24.34.61-.13.7-.35.09-.21.06-.69-.28-.56Z" style="fill: #aca5a1; mix-blend-mode: multiply;"/>
              <path d="M14.83,18.99s-.04-.01-.06-.02c-.04-.01-.07.02-.1.06-.05.04-.09.11-.11.16-.02.05,0,.11.04.12.07.02.17-.1.2-.15.03-.04.1-.15.02-.18Z" style="fill: #aca5a1; mix-blend-mode: multiply;"/>
              <path d="M13.09,15.27s-.06.04-.09.06c-.03,0-.05-.02-.08,0-.15.04-.24.18-.29.32-.14.42.02.83.39,1.06.45.28.83-.21.87-.61.03-.4-.32-1.09-.8-.82Z" style="fill: #aca5a1; mix-blend-mode: multiply;"/>
              <path d="M14.93,17.63h0s-.09-.03-.14,0c-.1.07-.11.18-.17.26-.16.25-.04.63.23.75.15.06.32-.06.41-.16.1-.12.16-.26.16-.42,0-.26-.23-.52-.5-.42Z" style="fill: #aca5a1; mix-blend-mode: multiply;"/>
              <path d="M10.51,17.67c-.12-.25-.37-.21-.57-.1-.18-.01-.37.13-.46.26-.2.29-.2.59.04.86.22.24.58-.06.75-.22.19-.18.35-.56.23-.81Z" style="fill: #aca5a1; mix-blend-mode: multiply;"/>
            </g>
            <g style="mix-blend-mode: multiply; opacity: .3;">
              <path d="M41.47,18.71c-.07-.03-.14,0-.2.07-.13.14-.2.38-.08.54.16.23.41-.09.47-.23.06-.14.04-.46-.19-.38Z" style="fill: #aca5a1; mix-blend-mode: multiply;"/>
              <path d="M42.91,18.96s-.03,0-.04-.02c-.02,0-.05.02-.07.04-.03.03-.06.08-.07.11-.01.04,0,.07.03.08.05.02.11-.07.14-.1.02-.03.07-.1.02-.12Z" style="fill: #aca5a1; mix-blend-mode: multiply;"/>
              <path d="M41.75,16.47s-.04.03-.06.04c-.02,0-.03-.01-.06,0-.1.03-.16.12-.19.21-.1.28,0,.55.26.71.3.18.55-.14.58-.41.02-.27-.22-.73-.54-.55Z" style="fill: #aca5a1; mix-blend-mode: multiply;"/>
              <path d="M44.76,18.53h0s-.08-.03-.12,0c-.1.06-.1.16-.15.24-.15.23-.04.57.2.67.14.05.29-.05.38-.14.09-.11.15-.25.15-.39,0-.24-.21-.48-.46-.39Z" style="fill: #aca5a1; mix-blend-mode: multiply;"/>
              <path d="M40.02,18.07c-.08-.17-.25-.14-.38-.07-.12,0-.25.09-.31.18-.13.19-.13.4.03.58.15.17.39-.04.51-.15.13-.11.23-.37.15-.54Z" style="fill: #aca5a1; mix-blend-mode: multiply;"/>
            </g>
            <g style="mix-blend-mode: multiply; opacity: .3;">
              <path d="M46.29,21.35c-.1-.04-.2,0-.29.11-.19.2-.29.56-.12.8.24.34.61-.13.7-.35.08-.21.05-.69-.28-.56Z" style="fill: #aca5a1; mix-blend-mode: multiply;"/>
              <path d="M48.44,21.72s-.04-.01-.06-.02c-.04-.01-.08.02-.1.06-.05.04-.09.11-.11.17-.02.05,0,.11.05.12.07.02.17-.1.2-.15.03-.04.1-.15.03-.18Z" style="fill: #aca5a1; mix-blend-mode: multiply;"/>
              <path d="M48.01,21.75s-.06.04-.08.06c-.03,0-.05-.02-.09,0-.15.04-.24.18-.29.32-.14.42.01.83.39,1.06.45.28.83-.21.87-.61.03-.4-.32-1.09-.8-.82Z" style="fill: #aca5a1; mix-blend-mode: multiply;"/>
              <path d="M43.56,16.53h0c-.06-.03-.12-.04-.19,0-.14.09-.15.24-.23.35-.21.34-.06.86.31,1.01.2.09.44-.08.56-.22.15-.16.22-.36.22-.57,0-.35-.31-.71-.67-.57Z" style="fill: #aca5a1; mix-blend-mode: multiply;"/>
              <path d="M44.12,20.4c-.12-.25-.37-.21-.57-.1-.18-.01-.37.13-.46.26-.2.29-.19.6.04.86.22.25.58-.06.75-.22.2-.17.35-.56.23-.81Z" style="fill: #aca5a1; mix-blend-mode: multiply;"/>
            </g>
            <g style="mix-blend-mode: multiply; opacity: .3;">
              <path d="M37.93,15.26c-.1-.04-.2,0-.29.1-.19.21-.3.56-.12.81.24.34.61-.13.7-.35.08-.21.06-.69-.28-.56Z" style="fill: #aca5a1; mix-blend-mode: multiply;"/>
              <path d="M40.08,15.63s-.04-.01-.06-.02c-.03-.01-.07.02-.1.05-.05.04-.09.11-.11.17-.02.05,0,.1.05.12.07.02.17-.1.2-.15.03-.04.1-.15.02-.18Z" style="fill: #aca5a1; mix-blend-mode: multiply;"/>
              <path d="M38.34,11.91s-.06.04-.09.06c-.03-.01-.05-.02-.08,0-.15.04-.24.18-.29.32-.14.41.01.83.39,1.06.45.28.83-.21.87-.61.04-.41-.32-1.09-.8-.82Z" style="fill: #aca5a1; mix-blend-mode: multiply;"/>
              <path d="M40.18,14.27h0s-.09-.03-.14,0c-.1.07-.11.18-.17.26-.16.25-.04.63.23.74.15.06.32-.06.41-.16.1-.12.17-.26.17-.42,0-.26-.23-.52-.5-.42Z" style="fill: #aca5a1; mix-blend-mode: multiply;"/>
              <path d="M35.76,14.31c-.13-.25-.37-.21-.57-.1-.18-.01-.37.13-.46.26-.2.29-.19.6.04.87.22.25.58-.06.76-.22.19-.17.35-.56.23-.81Z" style="fill: #aca5a1; mix-blend-mode: multiply;"/>
            </g>
            <g style="mix-blend-mode: multiply; opacity: .3;">
              <path d="M18.19,14.44c-.1-.04-.2,0-.29.1-.19.21-.3.56-.12.8.24.34.61-.13.69-.35.09-.2.06-.69-.28-.56Z" style="fill: #aca5a1; mix-blend-mode: multiply;"/>
              <path d="M20.34,14.81s-.04-.01-.06-.02c-.04,0-.07.02-.11.06-.05.04-.09.11-.11.17-.01.05,0,.11.05.12.07.02.17-.1.2-.14.03-.04.1-.16.03-.18Z" style="fill: #aca5a1; mix-blend-mode: multiply;"/>
              <path d="M18.59,11.09s-.06.04-.09.06c-.03-.01-.05-.02-.08,0-.15.04-.24.18-.29.32-.14.42.01.83.39,1.07.44.28.83-.21.86-.61.04-.41-.32-1.09-.8-.82Z" style="fill: #aca5a1; mix-blend-mode: multiply;"/>
              <path d="M23.09,14.19h0c-.05-.03-.12-.04-.19,0-.14.09-.15.24-.22.35-.22.34-.06.86.31,1.01.2.08.44-.08.56-.22.14-.16.22-.36.22-.57,0-.36-.31-.71-.67-.57Z" style="fill: #aca5a1; mix-blend-mode: multiply;"/>
              <path d="M16.01,13.49c-.12-.25-.37-.21-.57-.1-.18,0-.37.13-.46.26-.2.29-.19.6.04.86.22.25.58-.05.76-.22.19-.17.35-.56.23-.81Z" style="fill: #aca5a1; mix-blend-mode: multiply;"/>
            </g>
            <g style="mix-blend-mode: multiply; opacity: .3;">
              <path d="M32.74,11.43c-.1-.04-.2,0-.29.1-.19.21-.3.56-.12.81.24.34.61-.13.7-.35.08-.21.06-.69-.28-.56Z" style="fill: #aca5a1; mix-blend-mode: multiply;"/>
              <path d="M34.89,11.8s-.04-.01-.06-.02c-.04,0-.07.02-.11.06-.05.04-.09.11-.1.17-.02.04,0,.1.05.12.07.03.17-.1.2-.14.03-.04.1-.16.02-.18Z" style="fill: #aca5a1; mix-blend-mode: multiply;"/>
              <path d="M33.15,8.08s-.06.04-.09.06c-.03-.01-.05-.02-.09,0-.14.04-.24.18-.28.32-.14.41.02.83.39,1.06.44.28.83-.21.87-.61.03-.41-.32-1.09-.8-.82Z" style="fill: #aca5a1; mix-blend-mode: multiply;"/>
              <path d="M37.64,11.17h0c-.06-.03-.12-.04-.19,0-.14.09-.15.24-.23.35-.21.34-.06.86.31,1.01.2.09.43-.08.56-.22.14-.16.22-.36.22-.57,0-.36-.31-.71-.67-.58Z" style="fill: #aca5a1; mix-blend-mode: multiply;"/>
              <path d="M30.57,10.48c-.13-.25-.37-.21-.57-.1-.18-.02-.37.13-.46.26-.2.29-.19.6.04.86.22.25.57-.06.75-.22.19-.17.35-.56.23-.81Z" style="fill: #aca5a1; mix-blend-mode: multiply;"/>
            </g>
            <g style="mix-blend-mode: multiply; opacity: .3;">
              <path d="M25.48,7.12c-.08-.04-.16,0-.23.08-.15.16-.23.44-.1.62.19.27.47-.1.54-.27.07-.16.04-.54-.22-.44Z" style="fill: #aca5a1; mix-blend-mode: multiply;"/>
              <path d="M27.15,7.41s-.03,0-.05-.02c-.03,0-.06.02-.08.05-.04.03-.07.09-.08.13-.01.04,0,.08.03.1.06.02.13-.08.16-.11.02-.03.08-.12.02-.14Z" style="fill: #aca5a1; mix-blend-mode: multiply;"/>
              <path d="M25.8,4.52s-.04.03-.06.05c-.02,0-.04-.01-.07,0-.11.03-.18.14-.22.25-.11.32.01.64.3.83.34.22.65-.17.67-.48.03-.32-.25-.84-.62-.64Z" style="fill: #aca5a1; mix-blend-mode: multiply;"/>
              <path d="M29.3,6.92h0s-.09-.03-.14,0c-.11.07-.12.19-.18.27-.17.26-.05.67.24.79.16.06.34-.06.44-.17.11-.12.17-.28.17-.45,0-.27-.24-.55-.53-.45Z" style="fill: #aca5a1; mix-blend-mode: multiply;"/>
              <path d="M23.79,6.38c-.1-.19-.29-.17-.44-.08-.14-.01-.28.1-.35.2-.16.22-.15.46.03.67.17.19.45-.04.59-.17.15-.13.27-.43.18-.63Z" style="fill: #aca5a1; mix-blend-mode: multiply;"/>
            </g>
            <g style="mix-blend-mode: multiply; opacity: .3;">
              <path d="M13.3,14.49c-.1-.04-.2.01-.29.11-.19.2-.3.56-.12.8.24.34.61-.13.7-.35.08-.21.06-.69-.28-.56Z" style="fill: #aca5a1; mix-blend-mode: multiply;"/>
              <path d="M15.45,14.86s-.04-.01-.06-.02c-.03,0-.07.02-.1.06-.05.04-.09.11-.1.16-.02.05,0,.11.04.12.07.02.17-.1.2-.15.03-.03.1-.15.02-.18Z" style="fill: #aca5a1; mix-blend-mode: multiply;"/>
              <path d="M13.71,11.14s-.06.04-.08.06c-.03,0-.05-.02-.09,0-.14.04-.24.18-.29.32-.14.41.02.83.39,1.06.45.28.83-.21.87-.61.04-.4-.32-1.09-.8-.82Z" style="fill: #aca5a1; mix-blend-mode: multiply;"/>
              <path d="M15.55,13.5h0s-.09-.03-.14,0c-.11.07-.11.18-.17.26-.16.25-.04.63.23.75.15.06.32-.05.41-.16.1-.12.16-.26.16-.42,0-.26-.23-.53-.49-.42Z" style="fill: #aca5a1; mix-blend-mode: multiply;"/>
              <path d="M11.13,13.54c-.12-.25-.37-.21-.57-.1-.18-.01-.37.13-.46.26-.2.29-.19.6.04.86.22.25.58-.06.75-.22.19-.17.35-.56.23-.81Z" style="fill: #aca5a1; mix-blend-mode: multiply;"/>
            </g>
            <g style="mix-blend-mode: multiply; opacity: .3;">
              <path d="M23.03,11.79c-.06-.03-.13,0-.19.07-.13.14-.2.38-.08.54.16.23.41-.08.47-.23.06-.14.04-.46-.19-.38Z" style="fill: #aca5a1; mix-blend-mode: multiply;"/>
              <path d="M24.47,12.04s-.03,0-.04,0c-.02,0-.05.01-.07.04-.03.03-.06.07-.07.11-.01.04,0,.07.03.08.05.02.11-.07.13-.1.02-.02.07-.1.02-.12Z" style="fill: #aca5a1; mix-blend-mode: multiply;"/>
              <path d="M23.3,9.55s-.04.03-.06.04c-.02,0-.03,0-.06,0-.1.03-.16.12-.19.21-.1.28,0,.56.26.71.3.19.56-.14.58-.41.02-.27-.22-.73-.53-.55Z" style="fill: #aca5a1; mix-blend-mode: multiply;"/>
              <path d="M26.32,11.63h0s-.08-.03-.13,0c-.09.06-.1.16-.15.24-.14.23-.04.57.21.68.14.05.29-.05.38-.15.1-.11.15-.24.15-.38,0-.24-.21-.48-.45-.39Z" style="fill: #aca5a1; mix-blend-mode: multiply;"/>
              <path d="M21.57,11.16c-.09-.17-.25-.14-.38-.07-.12,0-.25.09-.31.18-.13.19-.13.4.03.58.15.17.39-.04.51-.14.13-.12.24-.38.15-.54Z" style="fill: #aca5a1; mix-blend-mode: multiply;"/>
            </g>
            <g style="mix-blend-mode: multiply; opacity: .3;">
              <path d="M27.85,14.44c-.1-.04-.2,0-.29.1-.19.21-.29.56-.12.8.24.34.61-.13.7-.35.08-.21.06-.69-.28-.56Z" style="fill: #aca5a1; mix-blend-mode: multiply;"/>
              <path d="M29.99,14.81s-.04-.01-.06-.02c-.03-.01-.07.02-.1.06-.05.04-.09.11-.1.17-.02.05,0,.11.04.12.07.03.17-.1.2-.14.03-.03.1-.15.02-.18Z" style="fill: #aca5a1; mix-blend-mode: multiply;"/>
              <path d="M29.57,14.84s-.06.04-.08.06c-.03,0-.05-.02-.09,0-.15.04-.24.18-.29.32-.14.42.02.83.39,1.07.45.28.83-.21.87-.61.03-.4-.32-1.08-.8-.82Z" style="fill: #aca5a1; mix-blend-mode: multiply;"/>
              <path d="M25.11,9.62h0c-.05-.03-.12-.04-.18,0-.14.09-.16.24-.23.36-.22.34-.06.86.31,1.01.2.08.43-.07.55-.22.14-.16.23-.36.23-.58,0-.35-.31-.71-.68-.57Z" style="fill: #aca5a1; mix-blend-mode: multiply;"/>
              <path d="M25.68,13.49c-.12-.25-.37-.21-.57-.1-.18-.01-.37.13-.46.26-.2.29-.19.6.04.86.22.24.58-.05.76-.22.19-.17.35-.56.22-.81Z" style="fill: #aca5a1; mix-blend-mode: multiply;"/>
            </g>
            <g style="mix-blend-mode: multiply; opacity: .3;">
              <path d="M19.48,8.35c-.1-.04-.2,0-.29.1-.19.2-.3.56-.12.8.24.34.61-.13.7-.35.08-.21.05-.69-.28-.56Z" style="fill: #aca5a1; mix-blend-mode: multiply;"/>
              <path d="M21.63,8.72s-.04-.02-.06-.02c-.04,0-.08.02-.1.06-.05.04-.09.11-.11.16-.01.05,0,.11.05.12.07.02.17-.1.2-.15.03-.04.11-.16.02-.18Z" style="fill: #aca5a1; mix-blend-mode: multiply;"/>
              <path d="M19.89,5s-.05.04-.08.06c-.03-.01-.05-.02-.09,0-.14.04-.24.18-.28.32-.14.42.01.83.39,1.06.45.28.83-.21.87-.61.04-.41-.32-1.09-.8-.82Z" style="fill: #aca5a1; mix-blend-mode: multiply;"/>
              <path d="M21.73,7.36h0s-.09-.03-.14,0c-.1.07-.11.18-.17.26-.16.25-.04.63.23.74.15.06.32-.06.41-.16.1-.12.16-.26.16-.42,0-.26-.23-.53-.5-.42Z" style="fill: #aca5a1; mix-blend-mode: multiply;"/>
              <path d="M17.31,7.4c-.13-.25-.37-.21-.57-.1-.18-.01-.37.13-.46.26-.2.29-.2.6.04.86.22.25.58-.06.76-.22.19-.17.35-.56.23-.81Z" style="fill: #aca5a1; mix-blend-mode: multiply;"/>
            </g>
            <path d="M21.11,4.67s-7.8,3.34-13.27,11.97c0,0,4.13-6.02,13.27-11.97Z" style="fill: #827f7d; mix-blend-mode: screen;"/>
          </g>
          <g>
            <g>
              <g>
                <path d="M57.98,8.61c-1.93-1.81-3.99-3.47-6.28-4.84-2.49-1.5-5.2-2.69-8.09-3.13-6.82-1.05-13.16,4.86-18.39,10.63-3.67,4.05-7.12,8.5-10.77,12.58h57.57c-1.05,0-3.93-4.11-4.65-4.92-1.64-1.87-3.23-3.77-4.88-5.62-1.43-1.62-2.93-3.21-4.51-4.69Z" style="fill: #787371;"/>
                <path d="M72.03,24.36H14.45c-.21,0-.39-.12-.47-.31-.09-.19-.05-.4.09-.55,1.71-1.92,3.41-3.96,5.05-5.92,1.86-2.22,3.77-4.51,5.72-6.66C29.74,5.52,35.61,0,42.01,0c.56,0,1.12.04,1.67.12,2.67.41,5.38,1.46,8.29,3.21,2.12,1.27,4.2,2.88,6.36,4.91,1.42,1.33,2.86,2.83,4.54,4.72.92,1.03,1.81,2.07,2.71,3.12.72.84,1.44,1.67,2.17,2.51.16.19.44.54.78.98.7.91,2.85,3.67,3.49,3.77h.02c.27.01.49.24.49.52s-.23.52-.52.52ZM15.6,23.33h54.75c-.69-.7-1.55-1.74-2.63-3.13-.32-.41-.58-.75-.74-.93-.73-.83-1.46-1.67-2.18-2.52-.89-1.04-1.78-2.08-2.7-3.11-1.66-1.87-3.09-3.34-4.48-4.66-2.11-1.97-4.13-3.53-6.19-4.77-2.79-1.67-5.38-2.68-7.91-3.07-.5-.08-1.01-.12-1.52-.12-6,0-11.66,5.34-16.41,10.58-1.93,2.13-3.84,4.42-5.69,6.63-1.41,1.68-2.86,3.42-4.32,5.09Z" style="fill: #58585c;"/>
              </g>
              <path d="M67.37,18.93c-1.64-1.87-3.23-3.77-4.88-5.62-1.43-1.62-2.93-3.21-4.51-4.69-1.93-1.81-3.99-3.47-6.28-4.84-2.49-1.5-5.2-2.69-8.09-3.13-1.91-.29-3.78-.04-5.6.6,4.49.22,5.04,16.79-4.19,19.62-3.73,1.14-4.42,1.58-8.3,1.09-1.83-.23-3.91-.95-4.23-3.01-.23-1.49.42-3.08,1.17-4.52-2.67,3.13-5.28,6.38-8,9.43h57.57c-1.05,0-3.93-4.11-4.65-4.92Z" style="fill: #827f7d; mix-blend-mode: multiply; opacity: .4;"/>
            </g>
            <g style="opacity: .5;">
              <path d="M55.09,20.86c-.12-.05-.22,0-.33.12-.22.22-.33.63-.14.9.27.38.68-.14.78-.39.09-.23.06-.78-.32-.63Z" style="fill: #aca5a1; mix-blend-mode: multiply;"/>
              <path d="M57.5,21.28s-.05-.01-.07-.02c-.04-.01-.09.02-.12.06-.05.05-.1.13-.12.19-.02.06,0,.12.05.14.08.03.19-.12.22-.16.03-.05.11-.17.03-.21Z" style="fill: #aca5a1; mix-blend-mode: multiply;"/>
              <path d="M55.55,17.11s-.06.04-.1.07c-.03-.01-.06-.02-.09-.01-.16.05-.27.21-.32.36-.16.46.01.93.43,1.19.5.32.93-.23.97-.69.04-.45-.36-1.21-.89-.92Z" style="fill: #aca5a1; mix-blend-mode: multiply;"/>
              <path d="M60.59,20.57h0c-.06-.03-.13-.04-.21,0-.16.1-.17.27-.25.39-.24.38-.07.96.35,1.13.22.1.48-.09.62-.24.16-.19.25-.4.25-.65,0-.4-.35-.79-.76-.65Z" style="fill: #aca5a1; mix-blend-mode: multiply;"/>
              <path d="M52.66,19.79c-.14-.28-.41-.23-.64-.11-.2-.01-.41.15-.51.29-.22.33-.22.67.05.97.24.27.65-.06.85-.24.22-.19.39-.63.25-.9Z" style="fill: #aca5a1; mix-blend-mode: multiply;"/>
            </g>
            <g style="opacity: .5;">
              <path d="M41.44,20.86c-.11-.05-.22,0-.33.12-.22.22-.33.62-.13.9.27.38.68-.15.78-.39.09-.23.07-.78-.32-.63Z" style="fill: #aca5a1; mix-blend-mode: multiply;"/>
              <path d="M43.85,21.28s-.04-.01-.07-.02c-.04-.01-.08.02-.12.06-.06.05-.1.13-.11.19-.02.05,0,.12.05.14.08.02.19-.12.23-.16.03-.05.11-.18.02-.21Z" style="fill: #aca5a1; mix-blend-mode: multiply;"/>
              <path d="M41.9,17.11s-.06.04-.09.07c-.03,0-.06-.02-.1,0-.16.05-.27.21-.32.35-.15.47,0,.93.44,1.2.49.32.93-.24.97-.69.04-.45-.36-1.22-.89-.92Z" style="fill: #aca5a1; mix-blend-mode: multiply;"/>
              <path d="M46.94,20.57h0c-.06-.04-.13-.05-.21,0-.15.1-.17.27-.25.39-.23.39-.07.96.34,1.13.23.1.49-.09.63-.24.16-.19.24-.4.24-.64,0-.4-.35-.8-.76-.65Z" style="fill: #aca5a1; mix-blend-mode: multiply;"/>
              <path d="M39.01,19.79c-.14-.28-.41-.23-.64-.11-.2-.02-.41.15-.51.29-.22.33-.22.67.05.96.24.28.65-.06.85-.24.22-.2.39-.63.25-.9Z" style="fill: #aca5a1; mix-blend-mode: multiply;"/>
            </g>
            <g style="opacity: .5;">
              <path d="M49.54,17.8c-.11-.05-.22,0-.33.12-.22.23-.33.63-.14.9.27.38.68-.14.78-.39.09-.23.07-.78-.32-.63Z" style="fill: #aca5a1; mix-blend-mode: multiply;"/>
              <path d="M51.95,18.22s-.04-.01-.07-.02c-.04-.01-.08.02-.12.07-.06.04-.1.12-.12.18-.01.05,0,.12.05.14.08.02.18-.12.22-.17.03-.04.11-.17.02-.2Z" style="fill: #aca5a1; mix-blend-mode: multiply;"/>
              <path d="M50,14.05s-.07.05-.1.07c-.03,0-.06-.01-.1,0-.16.04-.27.2-.32.35-.16.46.01.93.44,1.19.5.31.93-.23.97-.68.04-.45-.36-1.22-.89-.92Z" style="fill: #aca5a1; mix-blend-mode: multiply;"/>
              <path d="M52.06,16.7h0s-.1-.04-.15,0c-.12.08-.13.2-.19.29-.18.28-.05.71.25.83.17.07.36-.06.46-.18.12-.13.19-.29.19-.47,0-.3-.26-.59-.56-.47Z" style="fill: #aca5a1; mix-blend-mode: multiply;"/>
              <path d="M47.11,16.74c-.14-.28-.41-.24-.64-.11-.2-.01-.41.15-.51.29-.22.33-.22.67.04.97.24.27.65-.06.85-.24.22-.19.39-.62.25-.9Z" style="fill: #aca5a1; mix-blend-mode: multiply;"/>
            </g>
            <g style="opacity: .5;">
              <path d="M33.82,20.86c-.11-.05-.22,0-.33.12-.22.22-.33.63-.14.9.27.38.68-.14.78-.39.09-.23.06-.78-.32-.63Z" style="fill: #aca5a1; mix-blend-mode: multiply;"/>
              <path d="M36.22,21.28s-.04-.01-.07-.02c-.04-.01-.08.02-.11.06-.05.05-.1.13-.12.19-.01.06,0,.12.05.14.08.03.19-.12.22-.16.03-.05.11-.17.02-.21Z" style="fill: #aca5a1; mix-blend-mode: multiply;"/>
              <path d="M34.28,17.11s-.06.04-.1.07c-.03-.01-.06-.02-.09-.01-.17.05-.27.21-.32.36-.16.46,0,.93.44,1.19.5.32.93-.23.97-.69.04-.45-.36-1.21-.89-.92Z" style="fill: #aca5a1; mix-blend-mode: multiply;"/>
              <path d="M37.33,21.37h0c-.06-.03-.13-.05-.21,0-.15.1-.17.27-.25.4-.24.38-.07.96.34,1.13.22.1.48-.09.62-.24.16-.18.25-.4.25-.64,0-.4-.35-.8-.76-.65Z" style="fill: #aca5a1; mix-blend-mode: multiply;"/>
              <path d="M31.39,19.79c-.14-.28-.42-.23-.64-.11-.2-.01-.41.15-.51.29-.22.33-.22.67.04.97.24.27.65-.06.85-.24.22-.19.39-.63.25-.9Z" style="fill: #aca5a1; mix-blend-mode: multiply;"/>
            </g>
            <g style="opacity: .5;">
              <path d="M20.17,20.86c-.11-.05-.22,0-.33.12-.22.22-.33.62-.14.9.27.38.68-.15.78-.39.09-.23.06-.78-.32-.63Z" style="fill: #aca5a1; mix-blend-mode: multiply;"/>
              <path d="M22.57,21.28s-.04-.01-.06-.02c-.04-.01-.09.02-.12.06-.06.05-.11.13-.12.19-.01.05,0,.12.05.14.08.02.19-.12.22-.16.03-.05.12-.18.02-.21Z" style="fill: #aca5a1; mix-blend-mode: multiply;"/>
              <path d="M20.63,17.11s-.06.04-.09.07c-.03,0-.06-.02-.1,0-.16.05-.27.21-.32.35-.16.47.01.93.44,1.2.5.32.93-.24.97-.69.04-.45-.36-1.22-.89-.92Z" style="fill: #aca5a1; mix-blend-mode: multiply;"/>
              <path d="M25.66,20.57h0c-.06-.04-.13-.05-.21,0-.16.1-.17.27-.25.39-.24.39-.06.96.34,1.13.22.1.49-.09.63-.24.16-.19.25-.4.25-.64,0-.4-.35-.8-.76-.65Z" style="fill: #aca5a1; mix-blend-mode: multiply;"/>
              <path d="M23.25,19.16c-.14-.28-.42-.24-.64-.11-.2,0-.41.15-.51.3-.22.32-.22.67.05.96.24.28.65-.06.85-.24.22-.19.39-.63.26-.9Z" style="fill: #aca5a1; mix-blend-mode: multiply;"/>
            </g>
            <g style="opacity: .5;">
              <path d="M28.27,17.8c-.11-.05-.22,0-.33.12-.21.23-.33.63-.13.9.27.38.67-.14.78-.39.1-.23.06-.78-.32-.63Z" style="fill: #aca5a1; mix-blend-mode: multiply;"/>
              <path d="M30.68,18.22s-.04-.01-.07-.02c-.04-.01-.09.02-.12.07-.06.04-.1.12-.12.18-.02.05,0,.12.05.14.08.02.19-.12.23-.17.03-.04.11-.17.02-.2Z" style="fill: #aca5a1; mix-blend-mode: multiply;"/>
              <path d="M28.73,14.05s-.07.05-.1.07c-.02,0-.06-.01-.09,0-.16.04-.27.2-.32.35-.15.46.01.93.44,1.19.5.31.93-.23.97-.68.03-.45-.36-1.22-.9-.92Z" style="fill: #aca5a1; mix-blend-mode: multiply;"/>
              <path d="M30.79,16.7h0s-.1-.04-.15,0c-.12.08-.13.2-.19.29-.18.28-.05.71.25.83.16.07.35-.06.46-.18.12-.13.18-.29.18-.47,0-.3-.26-.59-.56-.47Z" style="fill: #aca5a1; mix-blend-mode: multiply;"/>
              <path d="M25.84,16.74c-.14-.28-.41-.24-.64-.11-.2-.01-.41.15-.51.29-.22.33-.22.67.04.97.25.27.65-.06.85-.24.22-.19.4-.62.25-.9Z" style="fill: #aca5a1; mix-blend-mode: multiply;"/>
            </g>
            <g style="opacity: .5;">
              <path d="M60.51,17.9c-.08-.03-.15,0-.22.08-.14.15-.22.42-.09.6.18.25.45-.1.52-.26.07-.15.05-.52-.21-.42Z" style="fill: #aca5a1; mix-blend-mode: multiply;"/>
              <path d="M62.13,18.18s-.03,0-.05,0c-.03,0-.06,0-.08.04-.04.03-.07.09-.08.13-.01.03,0,.08.03.09.06.01.12-.08.15-.11.02-.03.08-.12.02-.14Z" style="fill: #aca5a1; mix-blend-mode: multiply;"/>
              <path d="M60.83,15.39s-.05.03-.07.04c-.02,0-.04,0-.06,0-.11.03-.18.14-.22.24-.11.32,0,.62.29.8.34.21.62-.16.65-.46.02-.31-.24-.81-.6-.62Z" style="fill: #aca5a1; mix-blend-mode: multiply;"/>
              <path d="M64.2,17.7h0s-.09-.03-.14,0c-.11.07-.12.18-.17.27-.16.25-.05.65.23.76.15.06.33-.06.42-.17.11-.12.16-.27.16-.43,0-.27-.23-.54-.5-.44Z" style="fill: #aca5a1; mix-blend-mode: multiply;"/>
              <path d="M58.89,17.19c-.1-.19-.28-.16-.43-.08-.13,0-.28.1-.34.2-.14.22-.14.44.03.65.16.19.43-.04.57-.16.14-.13.26-.42.17-.6Z" style="fill: #aca5a1; mix-blend-mode: multiply;"/>
            </g>
            <g style="opacity: .5;">
              <path d="M65.91,20.86c-.11-.05-.22,0-.33.12-.22.22-.33.62-.14.9.27.38.68-.15.78-.39.09-.23.07-.78-.32-.63Z" style="fill: #aca5a1; mix-blend-mode: multiply;"/>
              <path d="M68.32,21.28s-.04-.01-.07-.02c-.04-.01-.08.02-.11.06-.06.05-.11.13-.12.19-.02.05,0,.12.05.14.08.02.19-.12.22-.16.04-.05.12-.18.03-.21Z" style="fill: #aca5a1; mix-blend-mode: multiply;"/>
              <path d="M67.84,21.31s-.06.05-.09.07c-.03,0-.06-.02-.1,0-.16.04-.27.2-.32.35-.16.46.01.92.43,1.19.5.32.93-.23.97-.68.04-.45-.35-1.22-.89-.92Z" style="fill: #aca5a1; mix-blend-mode: multiply;"/>
              <path d="M62.85,15.46h0c-.06-.04-.13-.05-.21,0-.15.11-.17.27-.25.4-.24.38-.07.96.35,1.13.22.09.48-.09.63-.24.15-.18.24-.4.24-.64,0-.4-.35-.8-.76-.65Z" style="fill: #aca5a1; mix-blend-mode: multiply;"/>
              <path d="M63.48,19.79c-.14-.28-.41-.23-.64-.11-.2-.02-.41.15-.51.29-.22.33-.22.67.05.96.24.28.65-.06.85-.24.22-.2.39-.63.25-.9Z" style="fill: #aca5a1; mix-blend-mode: multiply;"/>
            </g>
            <g style="opacity: .5;">
              <path d="M56.55,14.03c-.11-.04-.22.01-.33.12-.22.22-.33.63-.13.9.27.38.68-.15.78-.39.09-.23.06-.78-.32-.63Z" style="fill: #aca5a1; mix-blend-mode: multiply;"/>
              <path d="M58.95,14.45s-.05-.01-.07-.02c-.04-.01-.08.02-.11.06-.06.05-.11.13-.12.19-.01.06,0,.11.05.13.08.03.19-.11.22-.16.03-.04.11-.18.03-.21Z" style="fill: #aca5a1; mix-blend-mode: multiply;"/>
              <path d="M57,10.29s-.06.04-.1.07c-.02-.01-.06-.02-.09,0-.16.04-.27.2-.32.35-.15.47.01.93.43,1.2.5.31.93-.23.97-.69.04-.45-.36-1.22-.89-.92Z" style="fill: #aca5a1; mix-blend-mode: multiply;"/>
              <path d="M59.06,12.93h0s-.1-.03-.15,0c-.12.08-.13.2-.19.29-.18.28-.05.7.25.83.16.07.35-.06.46-.18.11-.13.18-.29.18-.47,0-.29-.26-.58-.56-.47Z" style="fill: #aca5a1; mix-blend-mode: multiply;"/>
              <path d="M54.12,12.97c-.14-.28-.41-.23-.64-.11-.2-.01-.41.15-.51.3-.22.33-.22.66.05.96.24.28.65-.06.85-.24.22-.19.39-.62.25-.9Z" style="fill: #aca5a1; mix-blend-mode: multiply;"/>
            </g>
            <g style="opacity: .5;">
              <path d="M34.44,13.12c-.11-.05-.23,0-.33.12-.22.23-.33.63-.14.9.27.38.68-.14.78-.39.09-.23.07-.78-.31-.63Z" style="fill: #aca5a1; mix-blend-mode: multiply;"/>
              <path d="M36.84,13.54s-.04-.01-.07-.02c-.04,0-.08.02-.11.07-.06.04-.11.12-.12.18-.02.06,0,.12.05.14.08.02.19-.12.22-.17.03-.04.11-.17.02-.2Z" style="fill: #aca5a1; mix-blend-mode: multiply;"/>
              <path d="M34.89,9.37s-.07.04-.1.07c-.03,0-.06-.01-.1,0-.16.04-.26.2-.32.35-.16.46.01.93.43,1.19.5.31.93-.23.97-.68.04-.46-.35-1.22-.89-.92Z" style="fill: #aca5a1; mix-blend-mode: multiply;"/>
              <path d="M39.93,12.83h0c-.06-.04-.13-.04-.21,0-.16.11-.17.27-.25.4-.24.38-.07.96.34,1.13.22.1.49-.09.63-.24.16-.18.25-.4.25-.64,0-.4-.35-.79-.76-.65Z" style="fill: #aca5a1; mix-blend-mode: multiply;"/>
              <path d="M32.01,12.06c-.14-.28-.42-.24-.64-.11-.2-.01-.41.14-.51.29-.22.33-.22.66.05.97.24.27.64-.06.85-.24.22-.19.39-.62.25-.9Z" style="fill: #aca5a1; mix-blend-mode: multiply;"/>
            </g>
            <g style="opacity: .5;">
              <path d="M50.73,9.75c-.11-.05-.23,0-.33.12-.22.23-.34.63-.14.9.27.38.68-.14.78-.39.09-.23.06-.78-.32-.63Z" style="fill: #aca5a1; mix-blend-mode: multiply;"/>
              <path d="M53.14,10.17s-.04-.01-.07-.02c-.04,0-.08.02-.12.07-.05.04-.1.12-.11.18-.02.05,0,.12.05.13.08.03.19-.11.22-.16.04-.04.11-.18.03-.21Z" style="fill: #aca5a1; mix-blend-mode: multiply;"/>
              <path d="M51.19,6s-.06.05-.09.07c-.03-.01-.06-.01-.1,0-.16.05-.27.2-.32.36-.16.46.01.92.44,1.19.5.31.93-.24.97-.68.04-.46-.36-1.22-.89-.93Z" style="fill: #aca5a1; mix-blend-mode: multiply;"/>
              <path d="M56.23,9.46h0c-.06-.04-.13-.05-.21,0-.15.1-.17.27-.25.4-.24.38-.07.96.34,1.13.22.1.48-.09.62-.24.16-.18.25-.4.25-.64,0-.4-.35-.8-.76-.65Z" style="fill: #aca5a1; mix-blend-mode: multiply;"/>
              <path d="M48.3,8.69c-.14-.28-.41-.24-.64-.11-.2-.02-.41.14-.51.29-.22.33-.22.67.05.97.24.27.64-.07.85-.24.22-.19.4-.63.25-.9Z" style="fill: #aca5a1; mix-blend-mode: multiply;"/>
            </g>
            <g style="opacity: .5;">
              <path d="M42.61,4.92c-.09-.04-.18,0-.25.1-.17.18-.26.48-.11.7.21.3.53-.11.61-.31.07-.18.05-.6-.24-.49Z" style="fill: #aca5a1; mix-blend-mode: multiply;"/>
              <path d="M44.48,5.24s-.03,0-.05-.01c-.03-.01-.06.01-.09.05-.04.04-.08.1-.09.14-.01.04,0,.09.04.11.06.02.15-.09.18-.13.02-.03.09-.14.02-.16Z" style="fill: #aca5a1; mix-blend-mode: multiply;"/>
              <path d="M42.96,2s-.05.03-.08.05c-.02,0-.04,0-.07,0-.12.03-.21.15-.25.27-.12.36.01.72.34.93.39.25.72-.18.76-.53.03-.35-.28-.95-.7-.72Z" style="fill: #aca5a1; mix-blend-mode: multiply;"/>
              <path d="M46.88,4.7h0s-.11-.04-.16,0c-.12.08-.13.21-.2.31-.18.3-.05.75.27.88.17.07.38-.07.49-.19.12-.14.19-.31.19-.5,0-.31-.27-.62-.59-.5Z" style="fill: #aca5a1; mix-blend-mode: multiply;"/>
              <path d="M40.72,4.09c-.11-.22-.32-.18-.49-.09-.16,0-.33.12-.4.23-.18.25-.17.52.03.75.19.22.5-.05.66-.19.17-.15.31-.49.2-.7Z" style="fill: #aca5a1; mix-blend-mode: multiply;"/>
            </g>
            <g style="opacity: .5;">
              <path d="M28.96,13.18c-.11-.05-.22,0-.33.12-.22.23-.33.63-.14.89.27.39.68-.14.78-.39.1-.23.07-.78-.32-.63Z" style="fill: #aca5a1; mix-blend-mode: multiply;"/>
              <path d="M31.37,13.59s-.04-.01-.07-.02c-.04,0-.08.02-.11.06-.06.04-.1.12-.12.19-.01.05,0,.11.05.13.08.03.19-.11.22-.16.03-.04.11-.17.02-.2Z" style="fill: #aca5a1; mix-blend-mode: multiply;"/>
              <path d="M29.42,9.43s-.06.05-.1.07c-.03,0-.06-.01-.1,0-.16.05-.27.2-.32.35-.15.46.02.93.44,1.2.5.31.93-.24.97-.68.04-.46-.36-1.22-.89-.93Z" style="fill: #aca5a1; mix-blend-mode: multiply;"/>
              <path d="M31.48,12.07h0s-.1-.03-.16,0c-.11.07-.12.2-.19.29-.18.28-.05.7.26.83.16.06.35-.06.45-.18.12-.13.19-.3.19-.47,0-.29-.26-.59-.56-.47Z" style="fill: #aca5a1; mix-blend-mode: multiply;"/>
              <path d="M26.54,12.11c-.14-.28-.41-.24-.64-.11-.2-.02-.41.14-.51.29-.22.33-.22.66.04.96.25.28.65-.06.85-.24.22-.19.39-.63.25-.9Z" style="fill: #aca5a1; mix-blend-mode: multiply;"/>
            </g>
            <g style="opacity: .5;">
              <path d="M39.86,10.16c-.08-.03-.15,0-.22.08-.14.16-.22.43-.09.61.18.26.45-.1.52-.26.07-.15.04-.52-.21-.42Z" style="fill: #aca5a1; mix-blend-mode: multiply;"/>
              <path d="M41.47,10.44s-.03-.01-.04-.01c-.03-.01-.06.01-.08.04-.04.03-.07.08-.08.12,0,.04,0,.08.03.1.06.01.13-.08.16-.11.02-.03.08-.12.01-.13Z" style="fill: #aca5a1; mix-blend-mode: multiply;"/>
              <path d="M40.17,7.65s-.05.03-.07.05c-.02,0-.04-.01-.06,0-.11.03-.18.13-.22.24-.1.32,0,.62.29.8.34.21.63-.16.65-.46.03-.3-.24-.81-.59-.62Z" style="fill: #aca5a1; mix-blend-mode: multiply;"/>
              <path d="M43.54,9.97h0s-.09-.03-.14,0c-.1.07-.11.18-.17.27-.16.26-.05.65.23.76.15.07.33-.06.42-.16.11-.12.16-.27.16-.43,0-.27-.23-.53-.51-.43Z" style="fill: #aca5a1; mix-blend-mode: multiply;"/>
              <path d="M38.23,9.44c-.1-.19-.28-.16-.43-.08-.13,0-.27.1-.34.2-.15.22-.14.45.03.65.16.18.43-.04.56-.16.15-.13.26-.42.17-.6Z" style="fill: #aca5a1; mix-blend-mode: multiply;"/>
            </g>
            <g style="opacity: .5;">
              <path d="M45.25,13.11c-.11-.04-.22.01-.33.12-.22.23-.33.63-.13.9.27.38.68-.14.78-.39.09-.23.06-.78-.32-.63Z" style="fill: #aca5a1; mix-blend-mode: multiply;"/>
              <path d="M47.66,13.54s-.04-.01-.07-.02c-.04,0-.09.02-.12.06-.06.04-.1.12-.12.18-.01.06,0,.12.05.14.08.03.19-.11.22-.16.03-.04.12-.17.03-.2Z" style="fill: #aca5a1; mix-blend-mode: multiply;"/>
              <path d="M47.18,13.57s-.06.04-.1.07c-.03,0-.06-.02-.09,0-.16.05-.27.2-.32.36-.16.46.01.93.43,1.19.5.32.93-.23.97-.68.04-.46-.36-1.22-.89-.92Z" style="fill: #aca5a1; mix-blend-mode: multiply;"/>
              <path d="M42.19,7.72h0c-.06-.04-.13-.04-.21,0-.15.1-.17.27-.25.4-.24.38-.07.96.34,1.13.22.09.48-.09.63-.25.16-.18.25-.4.25-.64,0-.4-.35-.8-.76-.65Z" style="fill: #aca5a1; mix-blend-mode: multiply;"/>
              <path d="M42.83,12.05c-.14-.28-.41-.23-.64-.11-.2-.02-.41.14-.51.29-.22.33-.22.66.04.97.24.27.64-.06.85-.24.22-.19.4-.63.25-.9Z" style="fill: #aca5a1; mix-blend-mode: multiply;"/>
            </g>
            <g style="opacity: .5;">
              <path d="M35.89,6.3c-.11-.05-.23,0-.33.12-.22.23-.33.63-.14.9.27.38.68-.14.78-.39.1-.23.07-.78-.31-.63Z" style="fill: #aca5a1; mix-blend-mode: multiply;"/>
              <path d="M38.3,6.72s-.04-.02-.07-.02c-.04,0-.08.02-.12.06-.06.05-.1.12-.12.19-.01.05,0,.12.05.13.08.03.19-.11.22-.16.03-.04.11-.17.02-.2Z" style="fill: #aca5a1; mix-blend-mode: multiply;"/>
              <path d="M36.34,2.55s-.06.05-.09.07c-.03,0-.06-.01-.1,0-.16.04-.27.2-.32.35-.16.47,0,.93.43,1.2.5.31.93-.23.97-.68.04-.46-.36-1.22-.9-.93Z" style="fill: #aca5a1; mix-blend-mode: multiply;"/>
              <path d="M38.41,5.2h0s-.1-.04-.15,0c-.12.08-.13.2-.19.29-.17.28-.05.71.26.83.16.07.35-.07.46-.18.11-.13.18-.29.18-.47,0-.3-.26-.58-.56-.47Z" style="fill: #aca5a1; mix-blend-mode: multiply;"/>
              <path d="M33.46,5.23c-.14-.28-.41-.23-.63-.11-.2-.01-.41.14-.51.29-.22.33-.22.66.04.97.24.27.65-.06.85-.24.22-.19.4-.62.25-.9Z" style="fill: #aca5a1; mix-blend-mode: multiply;"/>
            </g>
            <path d="M37.71,2.18s-8.74,3.74-14.87,13.4c0,0,4.63-6.74,14.87-13.4Z" style="fill: #827f7d; mix-blend-mode: screen;"/>
          </g>
        </g>
      </g>
    </g>
  </g>
</svg>