<?xml version="1.0" encoding="UTF-8"?>
<svg id="uuid-34efd2b4-b7f9-4bd3-9030-77d6e64ec8b8" data-name="圖層 1" xmlns="http://www.w3.org/2000/svg" viewBox="0 0 170.08 226.77">
  <polygon points="127.53 68.19 42.55 68.19 35.55 205.93 134.53 205.93 127.53 68.19" style="fill: #b4b3b3;"/>
  <polygon points="127.53 68.19 42.55 68.19 35.55 205.93 134.53 205.93 127.53 68.19" style="fill: none; stroke: #a4a4a3; stroke-miterlimit: 10; stroke-width: 2px;"/>
  <rect x="23.13" y="205.93" width="123.83" height="19.84" style="fill: #e3e2e2;"/>
  <line x1="23.13" y1="219.55" x2="146.95" y2="219.55" style="fill: none; stroke: #b4b3b3; stroke-miterlimit: 10; stroke-width: 2px;"/>
  <path d="M85.04,210.26h0c2.71,0,4.9,2.2,4.9,4.9v10.61h-9.81v-10.61c0-2.71,2.2-4.9,4.9-4.9Z" style="fill: #c9c9c9;"/>
  <path d="M85.04,210.26h0c2.71,0,4.9,2.2,4.9,4.9v10.61h-9.81v-10.61c0-2.71,2.2-4.9,4.9-4.9Z" style="fill: none; stroke: #b4b3b3; stroke-miterlimit: 10; stroke-width: 2px;"/>
  <rect x="23.13" y="205.93" width="123.83" height="19.84" style="fill: none; stroke: #b4b3b3; stroke-miterlimit: 10; stroke-width: 2px;"/>
  <polygon points="114.46 41.2 55.62 41.2 42.55 166.43 42.55 187.28 55.62 205.93 114.46 205.93 127.53 187.28 127.53 166.43 114.46 41.2" style="fill: #e3e2e2;"/>
  <polygon points="114.46 41.2 55.62 41.2 42.55 166.43 42.55 187.28 55.62 205.93 114.46 205.93 127.53 187.28 127.53 166.43 114.46 41.2" style="fill: none; stroke: #b4b3b3; stroke-miterlimit: 10; stroke-width: 2px;"/>
</svg>