<?xml version="1.0" encoding="UTF-8"?>
<svg id="uuid-35be47c8-6d92-48a4-86de-58d0c60cb7b1" data-name="圖層 1" xmlns="http://www.w3.org/2000/svg" viewBox="0 0 226.77 85.04">
  <rect x="154.74" y="22.83" width="57.22" height="24.57" style="fill: #bdc8cc;"/>
  <rect x="154.74" y="22.83" width="15.75" height="24.61" style="fill: #d9e0e4;"/>
  <path d="M226.16,51.27c-.31,3.99-.8,8.55-1.59,12.96-.48,2.71-1.08,5.38-1.81,7.82-1.02,3.38-2.3,6.34-3.91,8.44H38.95c-4.6,0-12.16-7.45-19.49-16.26-3.52-4.23-6.99-8.78-10.05-12.96-4.01-5.47-7.32-10.34-9.16-13.08-.67-1.01.05-2.35,1.26-2.35h38.5c2.17,0,4.29.73,6,2.07,3.95,3.08,8.35,5.46,13.02,7.07,4.67,1.61,9.61,2.45,14.62,2.45h88.28c1.76,0,3.44-.77,4.59-2.1l3.99-4.62c.69-.8,1.68-1.25,2.73-1.25h53.41s0,5.09-.51,11.82Z" style="fill: #245ea8;"/>
  <path d="M226.77,80.49c0,1.25-.51,2.39-1.33,3.22-.82.82-1.96,1.33-3.22,1.33H37.71c-2.51,0-4.55-2.04-4.55-4.55,0-.77.19-1.49.52-2.12.22-.41.49-.78.81-1.1.82-.82,1.96-1.33,3.22-1.33h184.51c2.51,0,4.55,2.04,4.55,4.55Z" style="fill: #143a7c;"/>
  <path d="M225.6,57.11l-211,1.06C10.59,52.69,2.09,40.93.26,38.19c-.67-1.01.05-2.35,1.26-2.35h38.5c2.17,0,4.29.73,6,2.07,3.95,3.08,8.35,5.46,13.02,7.07,4.67,1.61,9.61,2.45,14.62,2.45h88.28c1.27,0,2.49-.4,3.5-1.12.03-.02.06-.04.09-.06.14-.1.27-.21.4-.32.12-.11.24-.22.35-.34.08-.09.17-.17.24-.26l.95-1.1.28-.32,1.47-1.7.28-.33,1.01-1.17c.69-.8,1.68-1.25,2.73-1.25h53.41s-.55,10.93-1.07,17.66Z" style="fill: #d9e0e4;"/>
  <g>
    <path d="M17.79,43.65v.66c0,.89-.32,1.61-.72,1.61h-3.24c-.08,0-.15-.02-.22-.07-.29-.21-.51-.82-.51-1.54v-.66c0-.89.32-1.62.72-1.62h3.24c.28,0,.52.35.64.86.05.23.09.48.09.76Z" style="fill: #16597d;"/>
    <path d="M17.79,43.65v.66c0,.89-.32,1.61-.72,1.61h-3.24c-.08,0-.15-.02-.22-.07-.05-.23-.08-.48-.08-.76v-.66c0-.89.32-1.62.72-1.62h3.24c.08,0,.15.02.22.07.05.23.09.48.09.76Z" style="fill: #092f42; opacity: .25;"/>
  </g>
  <g>
    <rect x="159.26" y="21.62" width="6.2" height="14.07" rx=".88" ry=".88" transform="translate(191.02 -133.7) rotate(90)" style="fill: #fbdecf;"/>
    <path d="M156.2,25.85h12.31c.33,0,.59.26.59.59v4.44c0,.32-.26.59-.59.59h-12.31c-.33,0-.59-.26-.59-.59v-4.44c0-.32.26-.59.59-.59Z" style="fill: #759db1;"/>
    <rect x="157.22" y="25.85" width=".36" height="5.62" style="fill: #fbdecf;"/>
    <rect x="161.19" y="25.85" width=".36" height="5.62" style="fill: #fbdecf;"/>
    <rect x="165.15" y="25.85" width=".36" height="5.62" style="fill: #fbdecf;"/>
  </g>
  <g>
    <path d="M160.14,29.33h4.44c.49,0,.88.39.88.88v12.31c0,.49-.39.88-.88.88h-4.44c-.49,0-.88-.39-.88-.88v-12.31c0-.48.39-.88.88-.88Z" transform="translate(198.73 -125.99) rotate(90)" style="fill: #fbdecf;"/>
    <rect x="155.61" y="33.56" width="13.49" height="5.62" rx=".59" ry=".59" style="fill: #759db1;"/>
    <rect x="157.22" y="33.56" width=".36" height="5.62" style="fill: #fbdecf;"/>
    <rect x="161.19" y="33.56" width=".36" height="5.62" style="fill: #fbdecf;"/>
    <rect x="165.15" y="33.56" width=".36" height="5.62" style="fill: #fbdecf;"/>
  </g>
  <g>
    <path d="M174.97,25.97h1.02c.39,0,.7.31.7.7v3.97c0,.38-.31.7-.7.7h-1.02c-.39,0-.7-.31-.7-.7v-3.97c0-.38.31-.7.7-.7Z" style="fill: #1f6081;"/>
    <path d="M188,25.97h1.02c.39,0,.7.31.7.7v3.97c0,.39-.31.7-.7.7h-1.02c-.39,0-.7-.31-.7-.7v-3.97c0-.39.31-.7.7-.7Z" style="fill: #1f6081;"/>
    <path d="M201.02,25.97h1.02c.39,0,.7.31.7.7v3.97c0,.39-.31.7-.7.7h-1.02c-.39,0-.7-.31-.7-.7v-3.97c0-.39.31-.7.7-.7Z" style="fill: #1f6081;"/>
  </g>
  <g>
    <path d="M174.97,33.68h1.02c.39,0,.7.31.7.7v3.97c0,.38-.31.7-.7.7h-1.02c-.39,0-.7-.31-.7-.7v-3.97c0-.38.31-.7.7-.7Z" style="fill: #1f6081;"/>
    <path d="M188,33.68h1.02c.39,0,.7.31.7.7v3.97c0,.39-.31.7-.7.7h-1.02c-.39,0-.7-.31-.7-.7v-3.97c0-.39.31-.7.7-.7Z" style="fill: #1f6081;"/>
    <path d="M201.02,33.68h1.02c.39,0,.7.31.7.7v3.97c0,.39-.31.7-.7.7h-1.02c-.39,0-.7-.31-.7-.7v-3.97c0-.39.31-.7.7-.7Z" style="fill: #1f6081;"/>
  </g>
  <g>
    <path d="M174.98,25.97h.47c.39,0,.7.31.7.7v3.97c0,.38-.31.7-.7.7h-.47c-.39,0-.7-.31-.7-.7v-3.97c0-.39.31-.7.7-.7Z" style="fill: #759db1;"/>
    <path d="M188,25.97h.47c.39,0,.7.31.7.7v3.97c0,.39-.31.7-.7.7h-.47c-.39,0-.7-.31-.7-.7v-3.97c0-.39.31-.7.7-.7Z" style="fill: #759db1;"/>
    <rect x="200.32" y="25.97" width="1.87" height="5.37" rx=".7" ry=".7" style="fill: #759db1;"/>
  </g>
  <g>
    <path d="M174.98,33.68h.47c.39,0,.7.31.7.7v3.97c0,.38-.31.7-.7.7h-.47c-.39,0-.7-.31-.7-.7v-3.97c0-.39.31-.7.7-.7Z" style="fill: #759db1;"/>
    <path d="M188,33.68h.47c.39,0,.7.31.7.7v3.97c0,.39-.31.7-.7.7h-.47c-.39,0-.7-.31-.7-.7v-3.97c0-.39.31-.7.7-.7Z" style="fill: #759db1;"/>
    <rect x="200.32" y="33.68" width="1.87" height="5.37" rx=".7" ry=".7" style="fill: #759db1;"/>
  </g>
  <path d="M213.05,23.57c0,.2-.08.39-.22.52-.13.13-.32.22-.52.22h-57.91c-.41,0-.74-.33-.74-.74,0-.2.08-.39.22-.52.13-.13.32-.22.52-.22h57.91c.41,0,.74.33.74.74Z" style="fill: #99aab0;"/>
  <path d="M171.65,23.57c0,.2-.08.39-.22.52-.14.13-.32.22-.52.22h-16.59c-.41,0-.74-.33-.74-.74,0-.2.08-.39.22-.52.13-.13.32-.22.52-.22h16.59c.41,0,.74.33.74.74Z" style="fill: #e9eef1;"/>
  <path d="M224.57,64.23c-.76,4.24-1.79,8.36-3.19,11.71H37.71c-1.25,0-2.39.51-3.22,1.33-.32.32-.6.69-.81,1.1-4.18-2.82-9.26-8.17-14.22-14.14h205.11Z" style="fill: #092f42; opacity: .25;"/>
  <path d="M226.77,80.49H33.16c0-.77.19-1.49.52-2.12.22-.41.49-.78.81-1.1.82-.82,1.96-1.33,3.22-1.33h184.51c2.51,0,4.55,2.04,4.55,4.55Z" style="fill: #283f8f;"/>
  <path d="M226.16,51.27c-.31,3.99-.8,8.55-1.59,12.96-.76,4.25-1.79,8.36-3.19,11.71h-34.58c9.06-13.42,10.63-28.47,10.73-36.49h29.14s0,5.09-.51,11.82Z" style="fill: #092f42; opacity: .25;"/>
  <path d="M226.77,80.49c0,1.25-.51,2.39-1.33,3.22-.82.82-1.96,1.33-3.22,1.33h-36.24c3.38-4.77.82-9.1.82-9.1h35.42c2.51,0,4.55,2.04,4.55,4.55Z" style="fill: #1f324e; opacity: .25;"/>
  <path d="M222.76,72.05c-.41,1.38-.87,2.68-1.38,3.89H37.71c-1.25,0-2.39.51-3.22,1.33-.32.32-.6.7-.81,1.1-4.18-2.83-9.26-8.17-14.22-14.14-3.52-4.23-6.99-8.78-10.05-12.96-4.01-5.47-7.32-10.34-9.16-13.08-.67-1.01.05-2.35,1.26-2.35h12.63c1.97,5.08,5.92,12.5,13.63,19.2,8.76,7.61,19.88,11.99,31.48,12.57,74.59,3.7,143.31,4.34,163.51,4.45Z" style="fill: #fff; opacity: .15;"/>
  <path d="M170.49,25.27h26.58c7.89,0,14.34,6.31,14.51,14.2h.39v-15.16h-41.48v.96Z" style="fill: #a0afb5;"/>
  <g>
    <polygon points="169.51 41.87 169.23 42.2 72.32 42.2 72.32 41.87 169.51 41.87" style="fill: #16597d;"/>
    <polygon points="167.76 43.9 167.48 44.22 72.32 44.22 72.32 43.9 167.76 43.9" style="fill: #16597d;"/>
    <path d="M165.94,45.92c-.13.11-.26.22-.4.32h-93.21v-.32h93.62Z" style="fill: #16597d;"/>
    <g>
      <rect x="72.32" y="40.39" width=".84" height="7.02" style="fill: #16597d;"/>
      <rect x="90.94" y="40.39" width=".85" height="7.02" style="fill: #16597d;"/>
      <rect x="109.57" y="40.39" width=".84" height="7.02" style="fill: #16597d;"/>
      <rect x="128.19" y="40.39" width=".85" height="7.02" style="fill: #16597d;"/>
      <rect x="146.82" y="40.39" width=".84" height="7.02" style="fill: #16597d;"/>
      <path d="M166.29,40.39v5.2c-.11.12-.23.23-.35.34-.13.11-.26.22-.4.32-.03.02-.06.04-.09.06v-5.92h.84Z" style="fill: #16597d;"/>
    </g>
  </g>
  <g style="opacity: .8;">
    <g>
      <path d="M30.15,43.77c-.06.01-.11.03-.17.04-.35-.07-.54-.3-.91-.29-.24,0-.38.07-.41.33-.06.45-.04.9-.19,1.32,0,0,0,.03,0,.03-.08.07-.29.19-.37.26-.05,0-.09,0-.14,0-.15-.57.07-1.12.04-1.69.02-.12-.03-.16-.14-.15-.36.04-.73.05-1.02.31-.12.11-.25.25-.41.09-.17-.17-.15-.38,0-.54.18-.18.17-.37.19-.63.01-.11.02-.2-.06-.3-.23-.3,0-.39.23-.4.31-.02.62-.01.92.02.36.04.5-.1.48-.45,0-.12,0-.24,0-.36,0-.17-.03-.37.2-.44.23-.07.46-.03.63.15.16.17.1.34-.01.51-.04.05-.06.12-.09.18-.13.35-.05.46.31.39.36-.08.75-.1,1.04-.39.09-.1.22-.08.34-.1.02.01.04.02.06.02.09.15.1.31.09.47-.16.2-.45.29-.5.59-.2.18-.27.38-.12.63.09.14.06.27,0,.41ZM29.02,43.25c.44,0,.71-.24.7-.61,0-.17-.13-.13-.23-.13-.59,0-.87.17-.86.51,0,.32.25.2.39.23ZM27.67,42.62c-.36,0-.67.26-.66.54,0,.18.14.17.26.17.53,0,.82-.16.82-.46,0-.34-.28-.2-.43-.25Z" style="fill: #131213;"/>
      <path d="M38.59,42.29c-.05.07-.09.13-.14.2-.44.54-.25,1.39-.24,2.05,0,.32-.07.47-.4.51-.14-.23-.88-.09-1.01-.08-.12-.03-.56-.1-.71.01-.06.05-.24.05-.3.1-.07,0-.13,0-.2.01-.01-.21-.02-.41.05-.63.22-.7.19-1.42-.04-2.19.08-.07.17-.1.27-.11.36.16.61.01.81-.28.12-.05.18-.12.1-.24-.2-.32-.16-.41.22-.47.05,0,.11,0,.16,0,.08.02.17.04.25.07.08.21.36.33.25.61-.11.1-.28.15-.29.35.28.02.49-.09.69-.22.08,0,.16-.01.24-.02.06.02.11.03.17.05.04.09.08.19.12.28ZM37.52,44.42c.27-.22.1-.77.05-1.03-.03-.16-.33.03-.51,0-.09-.01-.19,0-.28.01-.16.01-.32.02-.48.05-.11.03-.25.1-.21.25.03.14.17.09.27.09.23,0,.46-.02.68-.02.14,0,.29.01.23.23-.4.07-.51.14-.92.14-.16,0-.27.09-.26.24.01.15.16.31.25.29.45-.06.76-.05,1.17-.27ZM36.9,43.08h0c.21-.01.43,0,.64-.01.16,0,.24-.11.26-.26.02-.11-.03-.19-.14-.2-.46-.04-.91.01-1.34.2-.07.03-.14.1-.11.19.03.1.12.08.2.08.16,0,.32,0,.48,0Z" style="fill: #131213;"/>
      <g>
        <path d="M40.38,41.43c.03-.05.07-.1.1-.15.08-.02.17-.05.25-.07.08,0,.17,0,.25,0,.06.02.12.03.18.05.01.05.03.09.04.14-.07.1-.07.2-.06.31h0c-.25.14-.13.37-.16.57-.04.08.09.13.05.21-.11.06-.1.12,0,.18.12.03.24,0,.36-.03.08,0,.16-.01.24-.02.13.05.05-.2.11-.27.1-.05.18-.17.32-.1.09.14.03.29.01.44,0,.03-.01.05-.03.06-.17.07-.08.35-.07.51-.02.04-.04.08-.05.11-.37.38-.37,1.13-.38,1.63-.05.01-.17,0-.22.02-.12-.1-.24-.18-.4-.11-.71.02-1.2-.13-1.84.18-.19-.28-.05-.55.04-.82.13-.1.03-.2.06-.37.11-.1.09-.24.12-.36.08-.3-.16-.53-.16-.8.14-.1.31-.13.48-.14.03.02.06.03.09.05.02.08.04.17.16.15.22-.07.44-.15.66-.22.1-.04-.04-.09-.06-.2,0-.03.01-.07.02-.1.17-.18.28-.37.05-.58l-.02-.02c-.04-.08-.09-.17-.13-.25ZM41.16,44.31v-.03s.1-.05.15-.08h.01s-.01,0-.01,0c.01-.11.03-.22.04-.32.1-.04.1-.1.03-.16.04-.14.08-.28.13-.42.03-.07.11-.15.06-.22-.07-.09-.17-.03-.26-.02-.09.02-.19.03-.28.06-.15.05-.26.17-.27.33-.01.21.19.14.3.19,0,.09,0,.17,0,.26,0,.02-.01.04-.01.06-.08.01-.16.02-.23.04-.11.03-.25.07-.22.22.02.14.17.08.26.1.04,0,.07.02.11.03.08.1.13.08.18-.03ZM40.18,44.28l.06-.06s0-.06.01-.09c.09-.14,0-.15-.11-.15-.17.04-.34.07-.51.12-.11.04-.27.11-.25.23.02.17.19.07.3.08.18.02.34-.04.5-.13ZM39.85,43.74c.21-.05.49-.02.53-.35.01-.1-.04-.16-.13-.13-.23.07-.47.16-.57.39-.05.12.09.09.17.09Z" style="fill: #131213;"/>
        <path d="M41.55,45.01c.08-.49.13-1.26.38-1.63-.16.45-.23,1.17-.31,1.64-.02,0-.05,0-.07-.02Z" style="fill: #2e271f;"/>
        <path d="M40.93,44.92c.16-.06.29.01.4.11-.05.01-.11.02-.16.03-.08-.05-.16-.1-.24-.15Z" style="fill: #2e271f;"/>
        <path d="M42.08,42.69c.01-.15.08-.29-.01-.44.28.1.28.14.01.44Z" style="fill: #2e271f;"/>
        <path d="M41.14,42.11c-.05.06-.1.11-.16.17.03-.2-.09-.43.16-.57,0,.11.01.22.02.33-.02.02-.02.04-.02.07Z" style="fill: #2e271f;"/>
        <path d="M41.98,43.27c0-.16-.1-.45.07-.51-.03.14.05.42-.07.51Z" style="fill: #2e271f;"/>
        <path d="M40.48,42.29c.02-.19.04-.39.05-.58.23.22.12.4-.05.58Z" style="fill: #2e271f;"/>
        <path d="M41.07,43.63c.11.03.21.05.32.08.07.07.07.12-.03.16-.09,0-.19.01-.28.02,0-.09,0-.17,0-.26Z" style="fill: #2e271f;"/>
        <path d="M40.98,44.33c.06,0,.12-.02.18-.03-.05.1-.1.13-.18.03Z" style="fill: #2e271f;"/>
        <path d="M39.7,42.66c.08.02.13.07.16.15-.12.02-.14-.06-.16-.15Z" style="fill: #736e6c;"/>
        <path d="M41.03,42.5c0,.06,0,.12,0,.18-.1-.06-.12-.12,0-.18Z" style="fill: #2e271f;"/>
        <path d="M40.53,42.59c0-.09-.14-.14-.06-.2.02.1.17.15.06.2Z" style="fill: #2e271f;"/>
        <path d="M40.25,44.12s-.07-.1-.11-.15c.11,0,.2,0,.11.15Z" style="fill: #2e271f;"/>
        <path d="M40.18,44.28s.04-.04.06-.06c-.02.02-.04.04-.06.06Z" style="fill: #2e271f;"/>
        <polygon points="41.32 44.2 41.33 44.21 41.31 44.2 41.32 44.2" style="fill: #7f7775;"/>
      </g>
      <g>
        <path d="M32.78,42.07s.07-.04.1-.06c.14.05.27.11.41.16.24.05.48.07.73.03.19.03.34-.07.5-.15.1-.04.19-.08.29-.12.41.09.29.36.18.59-.23.46-.27.95-.31,1.44-.02.28.09.56.01.84-.02.02-.04.05-.07.07-.09-.03-.19-.07-.21-.17-.07-.35-.31-.36-.58-.31-.25.05-.49.09-.74.14-.21-.28,0-.37.21-.46.11-.02.18-.09.23-.18.09-.06.18-.11.27-.17.02.11-.02.21-.07.31,0,.06,0,.12.07.12.03,0,.05-.05.08-.07.09-.03.14-.1.17-.18.15-.05.35-.04.38-.27.05-.22-.08-.3-.27-.3-.2,0-.25.12-.22.29-.04.02-.08.03-.12.05-.16-.02-.1-.26-.27-.26-.18.04-.35.13-.55.09,0,0-.02-.02-.02-.02l.02.02c.04.15-.05.29-.06.43-.07.04-.14.08-.21.12-.02-.08-.05-.15-.13-.18,0-.05.01-.1.02-.15.14-.26.1-.55.13-.82,0-.08-.06-.21-.12-.15-.28.3-.73.04-1,.33-.07.06-.07.12-.05.2.03,0,.06.01.08.02.02.02.03.03.05.04.04.17.19.15.32.17.14.02.31,0,.32.22-.09,0-.18,0-.27.02-.09.01-.21.04-.21.14,0,.16.15.09.24.1.04,0,.08,0,.12-.01.12.34-.28.26-.37.41.44.35.53-.18.8-.27.11.22-.05.41-.07.61-.02.02-.04.05-.06.07-.47-.15-.94-.12-1.42-.03-.16.03-.34.15-.43-.11.03-.02.05-.04.08-.06.22.05.32-.15.48-.22.17-.07.28-.2.23-.36-.05-.18-.24-.12-.38-.11-.13-.13-.05-.23.04-.33.16-.09.21-.23.15-.4-.12-.19-.24-.09-.37-.02-.15.08-.34.27-.45.09-.11-.17.08-.46.23-.48.62-.08.85-.52,1.07-1,.1,0,.2,0,.3,0,.04.06.1.11.1.17,0,.16,0,.28.21.3.18.02.35.08.42-.16ZM33.97,43.04c.21.11.43.27.6-.05.01-.09,0-.19.04-.27.16-.37-.01-.39-.3-.3-.23.07-.47.21-.69.18-.47-.06-.39.33-.57.51.08.01.13-.01.16-.05.16-.17.29-.51.5-.03.03.08.17.04.26.01ZM32.22,42.6c-.2-.08-.4-.07-.6,0-.02,0-.03.1-.02.1.21.09.41.08.6-.04,0,0,0-.02.02-.06Z" style="fill: #131213;"/>
        <path d="M30.67,44.66c.09.26.27.14.43.11.47-.09.95-.11,1.42.03-.04.08-.11.14-.19.12-.56-.2-1.11-.05-1.65.09-.06.02-.13,0-.2-.01,0-.02,0-.04,0-.05,0-.05.01-.1.02-.16.06-.04.12-.08.18-.13Z" style="fill: #2e271f;"/>
        <path d="M31.08,43.9c.14,0,.33-.06.38.11.05.17-.06.29-.23.36-.16.07-.27.27-.48.22-.05-.31.15-.5.34-.69Z" style="fill: #2e271f;"/>
        <path d="M31.27,43.17c.06.17.01.31-.15.4,0-.15.05-.29.15-.4Z" style="fill: #2e271f;"/>
        <path d="M32.7,44.06c.07-.04.14-.08.21-.12.13.03.29-.01.37.14-.2.1-.42.18-.21.46-.17.07-.37.05-.5.19.02-.2.18-.4.07-.61.02-.02.04-.04.06-.06Z" style="fill: #2e271f;"/>
        <path d="M33.81,44.4c.28-.05.51-.04.58.31.02.1.12.14.21.17-.06.1-.16.09-.26.1-.1-.27-.25-.48-.53-.58Z" style="fill: #2e271f;"/>
        <path d="M30.46,44.94s.01.04,0,.05c-.03.03-.08.09-.11.02-.02-.05.05-.06.1-.08Z" style="fill: #736e6c;"/>
        <path d="M34.96,41.8c.06,0,.12.01.18.02.11.07.12.19.14.3-.18.46-.41.9-.45,1.4-.02.29-.11.58.06.86-.02.17-.06.33-.22.43.08-.28-.03-.56-.01-.84.04-.49.08-.98.31-1.44.11-.22.24-.5-.18-.59.01-.03.03-.07.05-.1.04-.01.08-.03.12-.04Z" style="fill: #2e271f;"/>
        <path d="M31.6,43.08c.17.12.36.06.54.07.07,0,.18-.02.19.09,0,.1-.09.11-.16.13-.16.05-.31,0-.47-.03-.02-.01-.04-.03-.05-.04-.03,0-.06-.01-.08-.02-.03-.08-.02-.15.05-.2Z" style="fill: #2e271f;"/>
        <path d="M33.97,43.04s.02-.07.03-.11c.08,0,.17,0,.25,0,.09.09.2.09.32.07-.17.32-.39.16-.6.05Z" style="fill: #2e271f;"/>
        <path d="M33.8,43.67s0,.04-.02.05c-.09.06-.18.11-.27.17,0-.16,0-.32.01-.48.17,0,.11.24.27.26Z" style="fill: #2e271f;"/>
        <path d="M34.02,43.89c0-.05,0-.11,0-.16.13-.04.25-.07.38-.11-.03.22-.23.21-.38.27Z" style="fill: #2e271f;"/>
        <path d="M33.7,44.03s.1.03.15.04c-.03.03-.05.08-.08.07-.07,0-.07-.06-.07-.12Z" style="fill: #2e271f;"/>
        <path d="M31.56,43.29s.06.01.08.02c-.03,0-.06-.01-.08-.02Z" style="fill: #656363;"/>
        <polygon points="32.97 43.5 32.95 43.48 32.97 43.5 32.97 43.5" style="fill: #2e271f;"/>
        <path d="M34.25,42.92c-.08,0-.17,0-.25,0,.01-.11.04-.22.18-.2.11.02.08.11.06.19Z" style="fill: #131213;"/>
      </g>
    </g>
    <text transform="translate(26.31 47.42)" style="fill: #2e271f; font-family: Bahnschrift-Bold, Bahnschrift; font-size: 1.51px; font-variation-settings: &apos;wght&apos; 700, &apos;wdth&apos; 100; font-weight: 700;"><tspan x="0" y="0" style="letter-spacing: -.01em;">C</tspan><tspan x=".92" y="0">HI</tspan><tspan x="2.35" y="0" style="letter-spacing: 0em;">N</tspan><tspan x="3.39" y="0">A S</tspan><tspan x="5.7" y="0" style="letter-spacing: .02em;">T</tspan><tspan x="6.46" y="0" style="letter-spacing: 0em;">EEL LIBER</tspan><tspan x="13.66" y="0" style="letter-spacing: .06em;">T</tspan><tspan x="14.47" y="0">Y</tspan></text>
  </g>
</svg>