<?xml version="1.0" encoding="UTF-8"?>
<svg id="uuid-509a6dd4-889e-4790-925b-32d37be1656a" data-name="圖層 1" xmlns="http://www.w3.org/2000/svg" viewBox="0 0 226.77 226.77">
  <polygon points="100.46 211.53 92.75 211.53 93.24 28.05 100.46 28.05 100.46 211.53" style="fill: #fff; stroke: #999; stroke-miterlimit: 10; stroke-width: 2.91px;"/>
  <rect x="163.52" y="77.78" width="40.04" height="3.86" style="fill: #fff; stroke: #999; stroke-linejoin: round; stroke-width: 2.91px;"/>
  <rect x="168.74" y="54.6" width="31.23" height="23.18" style="fill: #fff; stroke: #999; stroke-linejoin: round; stroke-width: 2.91px;"/>
  <rect x="177.41" y="89.37" width="7.64" height="122.16" style="fill: #fff; stroke: #999; stroke-linejoin: round; stroke-width: 2.91px;"/>
  <rect x="100.46" y="156" width="76.95" height="7.73" style="fill: #fff; stroke: #999; stroke-linejoin: round; stroke-width: 2.91px;"/>
  <rect x="100.46" y="203.8" width="76.95" height="7.73" style="fill: #fff; stroke: #999; stroke-linejoin: round; stroke-width: 2.91px;"/>
  <polygon points="104.58 225.32 91.99 225.32 92.82 211.53 103.75 211.53 104.58 225.32" style="fill: #fff; stroke: #999; stroke-linejoin: round; stroke-width: 2.91px;"/>
  <polygon points="185.88 225.32 173.28 225.32 174.11 211.53 185.04 211.53 185.88 225.32" style="fill: #fff; stroke: #999; stroke-linejoin: round; stroke-width: 2.91px;"/>
  <rect x="136.39" y="77.26" width="3.74" height="138.65" transform="translate(-58.62 103.67) rotate(-34.38)" style="fill: #fff; stroke: #999; stroke-linejoin: round; stroke-width: 2.91px;"/>
  <rect x="15.92" y="56.35" width="89.91" height="3.74" transform="translate(-22.84 48.88) rotate(-37.35)" style="fill: #fff; stroke: #999; stroke-linejoin: round; stroke-width: 2.91px;"/>
  <rect x="130.98" y="13.27" width="3.74" height="89.91" transform="translate(5.95 128.49) rotate(-52.64)" style="fill: #fff; stroke: #999; stroke-linejoin: round; stroke-width: 2.91px;"/>
  <rect x="213.91" y="62.73" width="11.26" height="18.91" style="fill: #fff; stroke: #999; stroke-linejoin: round; stroke-width: 2.91px;"/>
  <rect x="1.61" y="81.64" width="223.56" height="7.73" style="fill: #fff; stroke: #999; stroke-linejoin: round; stroke-width: 2.91px;"/>
  <rect x="-1.62" y="112.19" width="50.24" height="2.91" transform="translate(-92.46 109.07) rotate(-76.06)" style="fill: #fff; stroke: #999; stroke-linejoin: round; stroke-width: 2.91px;"/>
  <rect x="33.77" y="88.79" width="2.91" height="49.86" transform="translate(-24.98 11.01) rotate(-13.17)" style="fill: #fff; stroke: #999; stroke-linejoin: round; stroke-width: 2.91px;"/>
  <path d="M23.89,134.29c-6.76-.07-12.29,5.34-12.37,12.1h0c-.07,6.76,5.34,12.29,12.1,12.37l5.99.07.27-24.46-5.99-.07Z" style="fill: #fff; stroke: #999; stroke-linejoin: round; stroke-width: 2.91px;"/>
  <path d="M34.78,134.41l-4.9-.06-.28,24.46,4.9.06c6.76.08,12.29-5.34,12.37-12.09h0c.08-6.76-5.34-12.29-12.09-12.37Z" style="fill: #fff; stroke: #999; stroke-linejoin: round; stroke-width: 2.91px;"/>
  <rect x="163.52" y="77.78" width="40.04" height="3.86" style="fill: #fff;"/>
  <rect x="168.74" y="54.6" width="31.23" height="23.18" style="fill: #fff;"/>
  <polygon points="100.46 211.53 92.75 211.53 93.24 28.05 100.46 28.05 100.46 211.53" style="fill: #fff;"/>
  <rect x="177.41" y="89.37" width="7.64" height="122.16" style="fill: #fff;"/>
  <rect x="100.46" y="156" width="76.95" height="7.73" style="fill: #fff;"/>
  <rect x="100.46" y="203.8" width="76.95" height="7.73" style="fill: #fff;"/>
  <polygon points="104.58 225.32 91.99 225.32 92.82 211.53 103.75 211.53 104.58 225.32" style="fill: #fff;"/>
  <polygon points="185.88 225.32 173.28 225.32 174.11 211.53 185.04 211.53 185.88 225.32" style="fill: #fff;"/>
  <rect x="136.39" y="77.26" width="3.74" height="138.65" transform="translate(-58.62 103.67) rotate(-34.38)" style="fill: #fff;"/>
  <rect x="15.92" y="56.35" width="89.91" height="3.74" transform="translate(-22.84 48.88) rotate(-37.35)" style="fill: #fff;"/>
  <rect x="130.98" y="13.27" width="3.74" height="89.91" transform="translate(5.95 128.49) rotate(-52.64)" style="fill: #fff;"/>
  <rect x="213.91" y="62.73" width="11.26" height="18.91" style="fill: #cd3933;"/>
  <rect x="1.61" y="81.64" width="223.56" height="7.73" style="fill: #fff;"/>
  <g>
    <rect x="1.61" y="81.64" width="25.95" height="7.73" style="fill: #cd3933;"/>
    <rect x="51" y="81.64" width="25.95" height="7.73" style="fill: #cd3933;"/>
    <rect x="100.4" y="81.64" width="25.95" height="7.73" style="fill: #cd3933;"/>
    <rect x="149.8" y="81.64" width="25.95" height="7.73" style="fill: #cd3933;"/>
    <rect x="199.2" y="81.64" width="25.95" height="7.73" style="fill: #cd3933;"/>
  </g>
  <g>
    <rect x="93.22" y="28.05" width="7.3" height="20.24" style="fill: #cd3933;"/>
    <rect x="93.11" y="66.58" width="7.41" height="20.24" style="fill: #cd3933;"/>
    <rect x="93" y="105.11" width="7.51" height="20.24" style="fill: #cd3933;"/>
    <rect x="92.9" y="143.64" width="7.62" height="20.24" style="fill: #cd3933;"/>
    <rect x="92.79" y="182.17" width="7.73" height="20.24" style="fill: #cd3933;"/>
  </g>
  <g>
    <rect x="177.41" y="89.37" width="7.68" height="20.76" style="fill: #cd3933;"/>
    <rect x="177.38" y="136.2" width="7.7" height="20.07" style="fill: #cd3933;"/>
    <rect x="177.36" y="183.04" width="7.73" height="19.38" style="fill: #cd3933;"/>
  </g>
  <rect x="-1.62" y="112.19" width="50.24" height="2.91" transform="translate(-92.46 109.07) rotate(-76.06)" style="fill: #fff;"/>
  <rect x="33.77" y="88.79" width="2.91" height="49.86" transform="translate(-24.98 11.01) rotate(-13.17)" style="fill: #fff;"/>
  <path d="M23.89,134.29c-6.76-.07-12.29,5.34-12.37,12.1h0c-.07,6.76,5.34,12.29,12.1,12.37l5.99.07.27-24.46-5.99-.07Z" style="fill: #fff;"/>
  <path d="M34.78,134.41l-4.9-.06-.28,24.46,4.9.06c6.76.08,12.29-5.34,12.37-12.09h0c.08-6.76-5.34-12.29-12.09-12.37Z" style="fill: #fff;"/>
</svg>