<?xml version="1.0" encoding="UTF-8"?>
<svg id="_圖層_1" data-name="圖層_1" xmlns="http://www.w3.org/2000/svg" version="1.1" viewBox="0 0 226.8 226.8">
  <!-- Generator: Adobe Illustrator 29.0.1, SVG Export Plug-In . SVG Version: 2.1.0 Build 192)  -->
  <defs>
    <style>
      .st0 {
        stroke-width: 1.6px;
      }

      .st0, .st1, .st2, .st3, .st4 {
        fill: none;
        stroke: #a33434;
      }

      .st0, .st1, .st3 {
        stroke-miterlimit: 10;
      }

      .st1 {
        stroke-width: 2.1px;
      }

      .st2 {
        stroke-width: 4.3px;
      }

      .st2, .st4 {
        stroke-linecap: round;
        stroke-linejoin: round;
      }

      .st3 {
        stroke-width: 1.2px;
      }

      .st4 {
        stroke-width: 2.5px;
      }

      .st5 {
        fill: #c34d4c;
      }
    </style>
  </defs>
  <g>
    <polygon class="st2" points="138.1 199.6 111.3 199.6 118.5 123.3 127.6 123.3 138.1 199.6"/>
    <polygon class="st2" points="158.8 215.7 111.3 215.7 111.3 199.6 146.7 199.6 158.8 205.8 158.8 215.7"/>
    <rect class="st2" x="26" y="199.6" width="85.3" height="3.7"/>
    <rect class="st2" x="130.5" y="152.7" width="85.3" height="3.7"/>
    <polygon class="st2" points="120.2 125.1 29.4 201.7 27.8 199.9 118.6 123.3 120.2 125.1"/>
    <polygon class="st2" points="126.5 125.5 214.7 154.6 215.9 152.4 127.6 123.3 126.5 125.5"/>
  </g>
  <g>
    <polygon class="st5" points="138.1 199.6 111.3 199.6 118.5 123.3 127.6 123.3 138.1 199.6"/>
    <polygon class="st5" points="158.8 215.7 111.3 215.7 111.3 199.6 146.7 199.6 158.8 205.8 158.8 215.7"/>
    <rect class="st5" x="26" y="199.6" width="85.3" height="3.7"/>
    <rect class="st5" x="130.5" y="152.7" width="85.3" height="3.7"/>
    <polygon class="st5" points="120.2 125.1 29.4 201.7 27.8 199.9 118.6 123.3 120.2 125.1"/>
    <polygon class="st5" points="126.5 125.5 214.7 154.6 215.9 152.4 127.6 123.3 126.5 125.5"/>
  </g>
  <circle class="st5" cx="215.9" cy="154.6" r="9.6"/>
  <g>
    <g>
      <g id="_x3C_放射狀重複_x3E_">
        <g>
          <g>
            <polygon class="st4" points="26.9 182.4 19.1 187.4 15.1 181.2 26.4 173.8 26.9 182.4"/>
            <polygon class="st4" points="26.8 190.9 18.5 193.3 15.1 181.2 25.4 183.3 26.8 190.9"/>
          </g>
          <polygon class="st5" points="26.9 182.4 19.1 187.4 15.1 181.2 26.4 173.8 26.9 182.4"/>
          <polygon class="st5" points="26.8 190.9 18.5 193.3 15.1 181.2 25.4 183.3 26.8 190.9"/>
        </g>
      </g>
      <g id="_x3C_放射狀重複_x3E_1" data-name="_x3C_放射狀重複_x3E_">
        <g>
          <g>
            <polygon class="st4" points="39.2 187.3 30.1 185.4 31.6 178.2 44.9 180.9 39.2 187.3"/>
            <polygon class="st4" points="33.1 193.3 25.6 189.1 31.7 178.2 37.5 186.9 33.1 193.3"/>
          </g>
          <polygon class="st5" points="39.2 187.3 30.1 185.4 31.6 178.2 44.9 180.9 39.2 187.3"/>
          <polygon class="st5" points="33.1 193.3 25.6 189.1 31.7 178.2 37.5 186.9 33.1 193.3"/>
        </g>
      </g>
      <g id="_x3C_放射狀重複_x3E_2" data-name="_x3C_放射狀重複_x3E_">
        <g>
          <g>
            <polygon class="st4" points="44.4 199.5 39.3 191.7 45.5 187.7 52.9 199 44.4 199.5"/>
            <polygon class="st4" points="35.9 199.4 33.5 191.1 45.5 187.7 43.4 198 35.9 199.4"/>
          </g>
          <polygon class="st5" points="44.4 199.5 39.3 191.7 45.5 187.7 52.9 199 44.4 199.5"/>
          <polygon class="st5" points="35.9 199.4 33.5 191.1 45.5 187.7 43.4 198 35.9 199.4"/>
        </g>
      </g>
      <g id="_x3C_放射狀重複_x3E_3" data-name="_x3C_放射狀重複_x3E_">
        <g>
          <g>
            <polygon class="st4" points="39.5 211.8 41.4 202.7 48.6 204.3 45.8 217.5 39.5 211.8"/>
            <polygon class="st4" points="33.5 205.7 37.7 198.2 48.6 204.3 39.8 210.1 33.5 205.7"/>
          </g>
          <polygon class="st5" points="39.5 211.8 41.4 202.7 48.6 204.3 45.8 217.5 39.5 211.8"/>
          <polygon class="st5" points="33.5 205.7 37.7 198.2 48.6 204.3 39.8 210.1 33.5 205.7"/>
        </g>
      </g>
      <g id="_x3C_放射狀重複_x3E_4" data-name="_x3C_放射狀重複_x3E_">
        <g>
          <g>
            <polygon class="st4" points="27.3 217 35 212 39.1 218.1 27.8 225.5 27.3 217"/>
            <polygon class="st4" points="27.4 208.5 35.6 206.1 39.1 218.2 28.8 216.1 27.4 208.5"/>
          </g>
          <polygon class="st5" points="27.3 217 35 212 39.1 218.1 27.8 225.5 27.3 217"/>
          <polygon class="st5" points="27.4 208.5 35.6 206.1 39.1 218.2 28.8 216.1 27.4 208.5"/>
        </g>
      </g>
      <g id="_x3C_放射狀重複_x3E_5" data-name="_x3C_放射狀重複_x3E_">
        <g>
          <g>
            <polygon class="st4" points="15 212.1 24 214 22.5 221.2 9.3 218.5 15 212.1"/>
            <polygon class="st4" points="21.1 206.1 28.6 210.3 22.5 221.2 16.7 212.5 21.1 206.1"/>
          </g>
          <polygon class="st5" points="15 212.1 24 214 22.5 221.2 9.3 218.5 15 212.1"/>
          <polygon class="st5" points="21.1 206.1 28.6 210.3 22.5 221.2 16.7 212.5 21.1 206.1"/>
        </g>
      </g>
      <g id="_x3C_放射狀重複_x3E_6" data-name="_x3C_放射狀重複_x3E_">
        <g>
          <g>
            <polygon class="st4" points="9.8 199.9 14.8 207.6 8.6 211.7 1.2 200.4 9.8 199.9"/>
            <polygon class="st4" points="18.3 200 20.6 208.2 8.6 211.7 10.7 201.4 18.3 200"/>
          </g>
          <polygon class="st5" points="9.8 199.9 14.8 207.6 8.6 211.7 1.2 200.4 9.8 199.9"/>
          <polygon class="st5" points="18.3 200 20.6 208.2 8.6 211.7 10.7 201.4 18.3 200"/>
        </g>
      </g>
      <g id="_x3C_放射狀重複_x3E_7" data-name="_x3C_放射狀重複_x3E_">
        <g>
          <g>
            <polygon class="st4" points="14.7 187.6 12.8 196.6 5.6 195.1 8.3 181.9 14.7 187.6"/>
            <polygon class="st4" points="20.7 193.7 16.5 201.2 5.5 195.1 14.3 189.3 20.7 193.7"/>
          </g>
          <polygon class="st5" points="14.7 187.6 12.8 196.6 5.6 195.1 8.3 181.9 14.7 187.6"/>
          <polygon class="st5" points="20.7 193.7 16.5 201.2 5.5 195.1 14.3 189.3 20.7 193.7"/>
        </g>
      </g>
    </g>
    <circle class="st5" cx="27.1" cy="199.7" r="9.6"/>
    <circle class="st0" cx="27.1" cy="199.7" r="9.6"/>
    <circle class="st3" cx="27.1" cy="199.7" r="6.9"/>
  </g>
  <circle class="st1" cx="215.9" cy="154.6" r="9.6"/>
</svg>