<?xml version="1.0" encoding="UTF-8"?>
<svg id="uuid-20261487-d191-4c02-94c1-733dbdec2b1f" data-name="圖層 1" xmlns="http://www.w3.org/2000/svg" viewBox="0 0 226.77 226.77">
  <g>
    <circle cx="188.53" cy="217.58" r="7.59" style="fill: none; stroke: #5f5f60; stroke-miterlimit: 10; stroke-width: 3.2px;"/>
    <circle cx="188.53" cy="217.58" r="7.59" style="fill: #a7a7a6;"/>
    <circle cx="188.53" cy="217.58" r="2.84" style="fill: #606060;"/>
    <path d="M188.53,209.99c-4.19,0-7.59,3.4-7.59,7.59h15.18c0-4.19-3.4-7.59-7.59-7.59Z" style="fill: #565657; opacity: .8;"/>
  </g>
  <rect x="190.93" y="151.52" width="24.06" height="55.19" style="fill: #eaa925;"/>
  <rect x="35.04" y="179.64" width="5.15" height="10.97" style="fill: none; stroke: #d49122; stroke-linecap: round; stroke-linejoin: round; stroke-width: 2.74px;"/>
  <rect x="35.04" y="179.64" width="5.15" height="10.97" style="fill: #eaa925;"/>
  <rect x="156.9" y="179.64" width="5.15" height="10.97" style="fill: none; stroke: #d49122; stroke-linecap: round; stroke-linejoin: round; stroke-width: 2.74px;"/>
  <rect x="156.9" y="179.64" width="5.15" height="10.97" style="fill: #eaa925;"/>
  <g>
    <rect x="69.57" y="164.25" width="53.22" height="42.46" style="fill: none; stroke: #7c7c7d; stroke-linecap: round; stroke-linejoin: round; stroke-width: 3.2px;"/>
    <polygon points="122.79 206.71 156.9 192.98 156.83 177.41 122.79 164.25 122.79 206.71" style="fill: none; stroke: #7c7c7d; stroke-linecap: round; stroke-linejoin: round; stroke-width: 3.2px;"/>
    <polygon points="69.57 206.71 40.19 193.27 40.19 177.7 69.57 164.25 69.57 206.71" style="fill: none; stroke: #7c7c7d; stroke-linecap: round; stroke-linejoin: round; stroke-width: 3.2px;"/>
  </g>
  <polygon points="156.62 177.08 122.58 163.92 69.35 163.92 39.97 177.37 39.97 192.94 69.35 206.38 122.58 206.38 156.68 192.65 156.62 177.08" style="fill: #a7a7a6;"/>
  <ellipse cx="96.18" cy="163.9" rx="20.44" ry="1.61" style="fill: none; stroke: #7c7c7d; stroke-linecap: round; stroke-linejoin: round; stroke-width: 2.74px;"/>
  <ellipse cx="96.18" cy="163.9" rx="20.44" ry="1.61" style="fill: #949394;"/>
  <rect x="190.93" y="151.52" width="24.06" height="55.19" style="fill: none; stroke: #d49122; stroke-linecap: round; stroke-linejoin: round; stroke-width: 2.74px;"/>
  <rect x="202.99" y="156.4" width="7.61" height="17.12" style="fill: none; stroke: #c7c6c6; stroke-miterlimit: 10; stroke-width: 2.14px;"/>
  <g>
    <rect x="202.99" y="156.4" width="7.61" height="17.12" style="fill: #ddd;"/>
    <polygon points="210.6 169.59 210.6 171.93 202.99 159.3 202.99 156.68 210.6 169.59" style="fill: #f2f2f2;"/>
    <polygon points="210.6 164.96 210.6 168.62 203.36 156.4 205.64 156.4 210.6 164.96" style="fill: #f2f2f2;"/>
  </g>
  <g>
    <rect x="188.12" y="149.63" width="33.7" height="1.89" style="fill: none; stroke: #7c7c7d; stroke-linecap: round; stroke-linejoin: round; stroke-width: 2.74px;"/>
    <rect x="188.12" y="149.63" width="33.7" height="1.89" style="fill: #b5b5b5;"/>
  </g>
  <rect x="10.58" y="168.5" width="24.76" height="38.21" style="fill: none; stroke: #d49122; stroke-linecap: round; stroke-linejoin: round; stroke-width: 2.74px;"/>
  <rect x="10.58" y="168.5" width="24.76" height="38.21" style="fill: #eaa925;"/>
  <rect x="161.44" y="168.5" width="23.5" height="38.21" style="fill: none; stroke: #d49122; stroke-linecap: round; stroke-linejoin: round; stroke-width: 2.86px;"/>
  <rect x="161.44" y="168.5" width="23.5" height="38.21" style="fill: #eaa925;"/>
  <polygon points="184.98 205.35 174.68 205.39 184.94 168.5 184.98 205.35" style="fill: #d49122;"/>
  <g>
    <rect x="191.72" y="186.66" width="23.27" height="2.53" style="fill: #d49122;"/>
    <rect x="186.77" y="195.64" width="16.98" height="2.53" transform="translate(392.16 1.65) rotate(90)" style="fill: #d49122;"/>
    <rect x="198.66" y="195.64" width="16.98" height="2.53" transform="translate(404.05 -10.24) rotate(90)" style="fill: #d49122;"/>
  </g>
  <g>
    <g>
      <rect x="218.73" y="185.01" width="1.65" height="21.7" style="fill: none; stroke: #7f7f7f; stroke-linecap: round; stroke-linejoin: round; stroke-width: 1.37px;"/>
      <rect x="209.45" y="185.01" width="1.65" height="21.7" style="fill: none; stroke: #7f7f7f; stroke-linecap: round; stroke-linejoin: round; stroke-width: 1.37px;"/>
      <rect x="207.58" y="173.95" width="1.65" height="23.78" transform="translate(394.25 -22.57) rotate(90)" style="fill: none; stroke: #7f7f7f; stroke-linecap: round; stroke-linejoin: round; stroke-width: 1.37px;"/>
      <rect x="196.52" y="185.01" width="1.65" height="21.7" style="fill: none; stroke: #7f7f7f; stroke-linecap: round; stroke-linejoin: round; stroke-width: 1.37px;"/>
    </g>
    <g>
      <rect x="218.73" y="185.01" width="1.65" height="21.7" style="fill: #b5b5b5;"/>
      <rect x="209.45" y="185.01" width="1.65" height="21.7" style="fill: #b5b5b5;"/>
      <rect x="207.58" y="173.95" width="1.65" height="23.78" transform="translate(394.25 -22.57) rotate(90)" style="fill: #b5b5b5;"/>
      <rect x="196.52" y="185.01" width="1.65" height="21.7" style="fill: #b5b5b5;"/>
    </g>
  </g>
  <polygon points="35.69 205.7 25.39 205.74 35.65 168.85 35.69 205.7" style="fill: #d49122;"/>
  <polygon points="156.65 185.91 124.67 195.86 65.26 196.61 39.97 185.48 39.97 193.17 66.75 205.19 125.54 205.19 156.68 192.65 156.65 185.91" style="fill: #8e8e8e;"/>
  <g>
    <circle cx="208.24" cy="217.58" r="7.59" style="fill: none; stroke: #5f5f60; stroke-miterlimit: 10; stroke-width: 3.2px;"/>
    <circle cx="208.24" cy="217.58" r="7.59" style="fill: #a7a7a6;"/>
    <circle cx="208.24" cy="217.58" r="2.84" style="fill: #606060;"/>
    <path d="M208.24,209.99c-4.19,0-7.59,3.4-7.59,7.59h15.18c0-4.19-3.4-7.59-7.59-7.59Z" style="fill: #565657; opacity: .8;"/>
  </g>
  <g>
    <rect x="186.8" y="216.62" width="23.05" height="2.14" style="fill: none; stroke: #454444; stroke-linecap: round; stroke-linejoin: round; stroke-width: .7px;"/>
    <rect x="186.8" y="216.62" width="23.05" height="2.14" style="fill: #606060;"/>
    <circle cx="188.38" cy="217.58" r=".54" style="fill: #4c4a4a;"/>
    <circle cx="208.41" cy="217.58" r=".54" style="fill: #4c4a4a;"/>
    <rect x="186.8" y="216.27" width="23.05" height="1.32" style="fill: #4a4949; opacity: .8;"/>
  </g>
  <g>
    <circle cx="147.35" cy="217.58" r="7.59" style="fill: none; stroke: #5f5f60; stroke-miterlimit: 10; stroke-width: 3.2px;"/>
    <circle cx="147.35" cy="217.58" r="7.59" style="fill: #a7a7a6;"/>
    <circle cx="147.35" cy="217.58" r="2.84" style="fill: #606060;"/>
    <path d="M147.35,209.99c-4.19,0-7.59,3.4-7.59,7.59h15.18c0-4.19-3.4-7.59-7.59-7.59Z" style="fill: #565657; opacity: .8;"/>
  </g>
  <g>
    <circle cx="167.06" cy="217.58" r="7.59" style="fill: none; stroke: #5f5f60; stroke-miterlimit: 10; stroke-width: 3.2px;"/>
    <circle cx="167.06" cy="217.58" r="7.59" style="fill: #a7a7a6;"/>
    <circle cx="167.06" cy="217.58" r="2.84" style="fill: #606060;"/>
    <path d="M167.06,209.99c-4.19,0-7.59,3.4-7.59,7.59h15.18c0-4.19-3.4-7.59-7.59-7.59Z" style="fill: #565657; opacity: .8;"/>
  </g>
  <g>
    <circle cx="15.53" cy="217.58" r="7.59" style="fill: none; stroke: #5f5f60; stroke-miterlimit: 10; stroke-width: 3.2px;"/>
    <circle cx="15.53" cy="217.58" r="7.59" style="fill: #a7a7a6;"/>
    <circle cx="15.53" cy="217.58" r="2.84" style="fill: #606060;"/>
    <path d="M15.53,209.99c-4.19,0-7.59,3.4-7.59,7.59h15.18c0-4.19-3.4-7.59-7.59-7.59Z" style="fill: #565657; opacity: .8;"/>
  </g>
  <g>
    <circle cx="35.25" cy="217.58" r="7.59" style="fill: none; stroke: #5f5f60; stroke-miterlimit: 10; stroke-width: 3.2px;"/>
    <circle cx="35.25" cy="217.58" r="7.59" style="fill: #a7a7a6;"/>
    <circle cx="35.25" cy="217.58" r="2.84" style="fill: #606060;"/>
    <path d="M35.25,209.99c-4.19,0-7.59,3.4-7.59,7.59h15.18c0-4.19-3.4-7.59-7.59-7.59Z" style="fill: #565657; opacity: .8;"/>
  </g>
  <g>
    <rect x="145.62" y="216.62" width="23.05" height="2.14" style="fill: none; stroke: #454444; stroke-linecap: round; stroke-linejoin: round; stroke-width: .7px;"/>
    <rect x="145.62" y="216.62" width="23.05" height="2.14" style="fill: #606060;"/>
    <circle cx="147.2" cy="217.58" r=".54" style="fill: #4c4a4a;"/>
    <circle cx="167.23" cy="217.58" r=".54" style="fill: #4c4a4a;"/>
    <rect x="145.62" y="216.27" width="23.05" height="1.32" style="fill: #4a4949; opacity: .8;"/>
  </g>
  <g>
    <rect x="3.72" y="206.71" width="219.34" height="8.49" style="fill: none; stroke: #d49122; stroke-linecap: round; stroke-linejoin: round; stroke-width: 2.78px;"/>
    <rect x="3.72" y="206.71" width="219.34" height="8.49" style="fill: #eaa925;"/>
  </g>
</svg>