<?xml version="1.0" encoding="UTF-8"?>
<svg xmlns="http://www.w3.org/2000/svg" xmlns:xlink="http://www.w3.org/1999/xlink" viewBox="0 0 226.77 226.77">
  <defs>
    <linearGradient id="uuid-b5bc04ef-779e-41d8-93c2-7352a03c9199" x1="93.2" y1="149.4" x2="93.2" y2="207.21" gradientUnits="userSpaceOnUse">
      <stop offset="0" stop-color="#bf453e"/>
      <stop offset=".9" stop-color="#d47f88"/>
    </linearGradient>
    <linearGradient id="uuid-1038ed32-d623-435b-9290-63fce49ccd8c" x1="50.54" x2="50.54" xlink:href="#uuid-b5bc04ef-779e-41d8-93c2-7352a03c9199"/>
    <linearGradient id="uuid-90729384-9961-4ca6-bfa1-ccacb0ccb95b" x1="51.37" y1="287.4" x2="51.37" y2="345.2" gradientTransform="translate(127.17 495) scale(1 -1)" gradientUnits="userSpaceOnUse">
      <stop offset=".1" stop-color="#d47f88"/>
      <stop offset=".99" stop-color="#bf453e"/>
    </linearGradient>
    <linearGradient id="uuid-180816b6-2a85-47d2-bac8-738dbefc1fe2" x1="8.7" x2="8.7" xlink:href="#uuid-90729384-9961-4ca6-bfa1-ccacb0ccb95b"/>
    <linearGradient id="uuid-51bc38d1-cca0-431b-98b4-75baae9a61d8" x1="30.77" y1="156.48" x2="30.77" y2="160.45" gradientUnits="userSpaceOnUse">
      <stop offset=".1" stop-color="#d15965"/>
      <stop offset=".99" stop-color="#bd2820"/>
    </linearGradient>
    <linearGradient id="uuid-aa577349-0611-45b0-9c36-7761e239fad4" y1="169.04" y2="173.01" xlink:href="#uuid-51bc38d1-cca0-431b-98b4-75baae9a61d8"/>
    <linearGradient id="uuid-079cb0d4-1614-4c64-94ac-add230722390" y1="181.59" y2="185.56" xlink:href="#uuid-51bc38d1-cca0-431b-98b4-75baae9a61d8"/>
    <linearGradient id="uuid-e09585e2-d36b-4db5-98f1-6cb60619b83a" y1="194.15" y2="198.11" xlink:href="#uuid-51bc38d1-cca0-431b-98b4-75baae9a61d8"/>
    <linearGradient id="uuid-fe081e3f-94d7-43bf-ac0e-ea3daa196717" x1="72.83" x2="72.83" xlink:href="#uuid-51bc38d1-cca0-431b-98b4-75baae9a61d8"/>
    <linearGradient id="uuid-da7ae097-a05c-4bef-839b-ebf214994408" x1="72.83" y1="169.04" x2="72.83" y2="173.01" xlink:href="#uuid-51bc38d1-cca0-431b-98b4-75baae9a61d8"/>
    <linearGradient id="uuid-9a738964-dcde-498a-9dc7-4c72298efdb8" x1="72.83" y1="181.59" x2="72.83" y2="185.56" xlink:href="#uuid-51bc38d1-cca0-431b-98b4-75baae9a61d8"/>
    <linearGradient id="uuid-e04614a3-07cd-4875-a410-104c55070e18" x1="72.83" y1="194.15" x2="72.83" y2="198.11" xlink:href="#uuid-51bc38d1-cca0-431b-98b4-75baae9a61d8"/>
    <linearGradient id="uuid-e4cd5fe7-3214-428a-890d-b3645ac22d40" x1="114.88" x2="114.88" xlink:href="#uuid-51bc38d1-cca0-431b-98b4-75baae9a61d8"/>
    <linearGradient id="uuid-98002afe-c8c9-4a8d-ac0d-a9dab7d0e4ea" x1="114.88" y1="169.04" x2="114.88" y2="173.01" xlink:href="#uuid-51bc38d1-cca0-431b-98b4-75baae9a61d8"/>
    <linearGradient id="uuid-9840bc30-c459-4efa-8dc3-509f019de86e" x1="114.88" y1="181.59" x2="114.88" y2="185.56" xlink:href="#uuid-51bc38d1-cca0-431b-98b4-75baae9a61d8"/>
    <linearGradient id="uuid-af4de85d-5dd1-4968-a5a6-47337f7bb677" x1="114.88" y1="194.15" x2="114.88" y2="198.11" xlink:href="#uuid-51bc38d1-cca0-431b-98b4-75baae9a61d8"/>
    <linearGradient id="uuid-bda3202a-b6c6-4143-af6f-eed9977670f7" x1="156.94" x2="156.94" xlink:href="#uuid-51bc38d1-cca0-431b-98b4-75baae9a61d8"/>
    <linearGradient id="uuid-f0be54f5-1d4f-4a57-901c-7ede518caea3" x1="156.94" y1="169.04" x2="156.94" y2="173.01" xlink:href="#uuid-51bc38d1-cca0-431b-98b4-75baae9a61d8"/>
    <linearGradient id="uuid-20b7f94b-ff42-4297-bb68-33251fd3df92" x1="156.94" y1="181.59" x2="156.94" y2="185.56" xlink:href="#uuid-51bc38d1-cca0-431b-98b4-75baae9a61d8"/>
    <linearGradient id="uuid-957f681a-5da2-438a-8c36-4196ff22849f" x1="156.94" y1="194.15" x2="156.94" y2="198.11" xlink:href="#uuid-51bc38d1-cca0-431b-98b4-75baae9a61d8"/>
    <linearGradient id="uuid-097dc6df-23a2-4979-9695-8754c3cd6610" x1="199" x2="199" xlink:href="#uuid-51bc38d1-cca0-431b-98b4-75baae9a61d8"/>
    <linearGradient id="uuid-208dc152-d7e6-4f65-b543-362880ab4a35" x1="199" y1="169.04" x2="199" y2="173.01" xlink:href="#uuid-51bc38d1-cca0-431b-98b4-75baae9a61d8"/>
    <linearGradient id="uuid-79ecd1d3-62f0-4796-81b9-89b78e86439b" x1="199" y1="181.59" x2="199" y2="185.56" xlink:href="#uuid-51bc38d1-cca0-431b-98b4-75baae9a61d8"/>
    <linearGradient id="uuid-3b712027-8bf4-41dd-b86d-fdd976155663" x1="199" y1="194.15" x2="199" y2="198.11" xlink:href="#uuid-51bc38d1-cca0-431b-98b4-75baae9a61d8"/>
  </defs>
  <g style="isolation: isolate;">
    <g id="uuid-6674a667-745b-4fdc-96ea-aa0b23c55a77" data-name="圖層 1">
      <g>
        <path d="M209.54,207.45h.2c-.07,0-.14,0-.2,0h0Z" style="fill: #e5e5e5;"/>
        <g>
          <path d="M154.69,152.1c-3.79-.37-8.59,2.88-12.18,4.1-4.37,1.49-8.01,1.89-12.72,1.66-6.23-.3-12.35.91-18.47-.55-8.8-2.1-17.29.18-26.19-.76-1.89-.2-5.77-2.7-8.77-4.15-1.91-.93-3.46-1.43-3.93-.67-3.34-2.93.78-6.5,2.92-8.63,1.08-1.07,1.85-2.28,3.09-3.17,1.24-.9,2.49-1.41,3.77-2.2,2.91-1.81,5.02-3.54,6.52-6.42.81-1.55,2.41-2.16,3.51-3.4.98-1.1,1.82-2.59,2.95-3.72.98-.98,2.2-2.15,3.36-2.93.62-.41,1.29-.53,1.86-1.04.55-.5.76-1.27,1.48-1.62,1.12-.54,3.09-.34,4.36-.61,1.33-.28,2.65-.74,3.97-.99,2.11-.39,5.22-.65,7.31-.16,1.95.47,3.17,1.98,4.81,3.07,2.56,1.7,5.05,3,7.88,4.27,2.13.94,6.2,1.49,7.27,3.76.54,1.15.18,2.17.95,3.33.8,1.2,1.83,1.88,2.87,2.8,2.27,2,4.14,4.21,6.24,6.17,1.85,1.73,3.71,3.26,5.63,4.85.97.8,1.79,2,2.09,3.22.12.45.24,3.88-.61,3.8Z" style="fill: #152a32;"/>
          <path d="M134.2,134.99c.43.58.85,1.17,1.28,1.68.79.94,1.72,2.12,1.82,3.49.21,2.99-4.33,3.92-5.73,6.27-1.26,2.13-2.61,2.94-5.12,3.26-1.61.21-3.16-.19-4.76-.16-1.67.02-3.13,1-4.82.84-.52-.05-1.05-.32-1.6-.34-.92-.03-1.72.33-2.62.43-1.19.13-2.63-.82-3.64-.56-1.67.42-2.04,2.88-3.88,3.36-.97.26-1.72-.05-2.65-.11-1.9-.12-3.72.82-5.65.58-1.48-.19-2.89-.89-4.38-.37-.51.18-1.18.91-1.72.92-.74.01-.33-.15-.89-.57-1.07-.81-1.16-.94-2.61-1.02-1.45-.08-2.84-.65-4.28-.9-2.4-.44-4.43.12-6.58.58-1.03-.51-2.87-1.59-3.94-.71-1.65-1.05-.38-3.2.64-4.16,1.13-1.07,2.02-2.07,2.99-3.24,1.59-1.93,4.15-3.13,6.14-4.67,1.05-.81,1.63-2.07,2.8-2.67,1.93-.98,3.05-.92,4.39-3.03,1.04-1.64,2.05-3.04,3.65-4.34,1.69-1.38,2.32-1.84,3.09-3.78.72-1.8,1.89-3.04,3.47-4.1,1.44-.96,3.29-1.49,4.92-2.07,1.27-.45,3.15-1.19,4.43-1.32,1.89-.19,3.35,1.92,4.99,2.52,1.65.61,2.74-.34,4.35-.33,2.48.03,5.41,3.35,6.83,5.29,1.21,1.66,1.8,3.46,3.57,4.64,1.34.89,3.14,1.83,4.19,2.93.47.49.9,1.06,1.33,1.64Z" style="fill: #1d3842;"/>
          <path d="M80.96,147.59c.46-.03,1.38-.08,1.76-.41.33-.28.2-.73.43-1.05.25-.34.56-.45.87-.76.79-.76,1.57-1.58,2.4-2.25,1.22-.99,2.24-1.25,3.77-1.17.3.02,1.17-.16,1.41,0,.59.4.08.91.36,1.39.13.2,1.02.81,1.26.96.57.33.78.53,1.5.49.12.72-.59,1.95-.07,2.53.55.62,1.6,0,2.19-.3.86-.42,1.35-1.17,2.31-1.42,1.89-.51,2.85.99,3.76,2.35,1.1-1.1,2.43.72,3.52.1.78-.44.51-2.2.95-2.95,1.21-2.06,2.27.07,3.95.03.41-.01.94-.39,1.3-.33.31.05.46.33.7.4.19.05.37.33.61.38.4.09.74-.25,1.14-.22.82.07,1.53.94,2.37.79,2.45-.44,2.74-4.13,2.06-5.86-.48-1.22-1.2-2.42-.38-3.73.6-.95,2.08-1.08,2.51-2.17.45-1.17-.47-1.44-.88-2.34-.38-.82-.1-2.21-.59-2.93-.67-1-2.14-.97-3.21-.72-1.59.37-1.28,1.04-1.86,2.34-.45,1.01-1.36,2.19-2.52,2.33-1.84.22-1.75-1.03-2.05-2.34-.11-.48-.07-1.41-.69-1.65-.84-.32-.68.42-1.32.74-.77.38-2.3.49-3.1,1.34-.85.91-.45,1.81-1.88,2.19-1.32.35-1.67-.38-2.06-1.6-.52-1.65-.21-1.95.84-2.93,1.03-.95,1.93-2.02,3.4-2.48,1.16-.36,2.51-.05,3.65-.44,1.07-.36,2.03-1.34,3.08-1.9.45-.24,1.25-.28,1.59-.69.66-.78.08-.34.04-1.09-.08-1.36-.21-2.08-1.47-2.77-1.28-.72-2.68-.55-4.11-.55-.86,0-1.38-.02-2.11.32-1,.47-1.46,1.58-2.68,1.45-.37,1.04-2.57.54-3.55,1.1-1.59.91-2.87,2.33-3.79,3.86-1,1.68-2.13,3.25-3.17,4.9-.53.84-1.17,1.72-2.08,2.2-.5.26-.92-.1-1.42.36-.78.7-.78,2.13-1.63,2.88-.6.53-1.57.7-2.01,1.46-.3.52-.11,1-.44,1.45-.74,1.02-2.1.95-3.25,1.18-1.94.39-4.5.77-4.88,3.05-.33,1.92,1.33,4.65,3.47,4.48Z" style="fill: #244551;"/>
          <path d="M79.13,142.54c-.11.45-.91,2.42-.38,2.79.3.22,1.01-.18,1.37-.06.34.12.8.62,1.02.88.41-1.26,1.9-1.9,2.68-2.9-.34-.6-1.51-1-2.06-1.48-.38.38-.52.88-1.04.99-.47.11-1.15-.06-1.54-.28-.06.04-.03-.01-.05.06Z" style="fill: #2f596a;"/>
          <path d="M89.19,135.96c-.02.39-.09.8-.14,1.19-.07.5-.33.73.09,1,.27.18.78.14,1.1.28.33.16.67.39.98.58-.08-.48.6-1.5,1-1.74.31-.18,1.2-.39,1.57-.45-.23-.71-.68-1.44-.88-2.17-.83.09-.98,1.56-1.91,1.47-.43-.04-1.77-.79-1.81-.16Z" style="fill: #2f596a;"/>
          <path d="M88.7,144.89c0,.38-.29,1.9.06,2.24.15.16.76.17.98.21.49.1,1.07.18,1.53.39-.12-.55,1.2-1.62,1.64-2.03-.27-.44-.74-.7-.98-1.2-.17-.35-.2-.87-.43-1.13-.14.38-.54.89-.94,1.04-.51.18-1.02-.13-1.53-.05-.05.16-.34.38-.34.54Z" style="fill: #2f596a;"/>
          <path d="M101.01,128.36c-.14.84-.3,1.7-.47,2.51.75.04,1.93.73,2.29,1.41.41-.56.94-1,1.36-1.51-.21-.27-.48-.66-.6-.99-.13-.36,0-.8-.17-1.14-.33.1-.72.34-.99.6-.45-.35-.73-1.03-1.42-.92.02.06-.04,0,0,.04Z" style="fill: #2f596a;"/>
          <path d="M85.26,138.56c-.05.42-.09.85-.16,1.26-.04.25-.34.87-.26,1.08.08.22.69.58.86.78.25.3.46.6.68.92.46-.65,1.47-1.18,2.22-1.54-.27-.53-.11-1.16-.05-1.74.08-.67-.11-.78-.82-.61-.56.14-.69.38-1.26.18-.35-.13-.91-.4-1.2-.34Z" style="fill: #2f596a;"/>
          <path d="M107.48,130c-.28.31-.44.95-.59,1.36.69.08,1.51.57,2.06.98.21-.89,1.36-1.38,1.48-2.16-.45-.27-.81-.57-1.18-.88-.09.27-.17.67-.49.7-.09-.22-.43-.35-.67-.32-.33.04-.34.03-.6.32Z" style="fill: #2f596a;"/>
          <path d="M105.95,120.04c-.07.82-.56,1.63-.59,2.45.88-.36,1.69.28,2.56.22.01-.63.11-1.1.49-1.64.21-.29.51-.49.33-.86-.34-.04-.7-.06-1.03-.18-.45-.15-.44-.26-.61-.76-.35.26-1.09.31-1.14.76Z" style="fill: #2f596a;"/>
          <path d="M116.02,121.24c-.32.45-.77,1.32-.76,1.9.75.19,1.2,1.07,1.85,1.43.17-.63,1.21-1.49,1.86-1.59,0-.34-.34-.55-.42-.87-.06-.23,0-.52-.02-.76-.43-.05-.64.45-1.08.44-.02.07-.04.13-.06.19-.46-.68-.84-1.51-1.37-.74Z" style="fill: #2f596a;"/>
          <path d="M116.34,127.64c-.42.95-1.32,1.92-1.56,2.92.47.26.55,1.02.86,1.45.24.33.54.74.87.98.29-.6.99-.88,1.63-.7-.11-.79.12-1.55.11-2.33-.49-.16-1.19-.28-1.1-.94.06-.49.51-.52.18-.94-.18-.23-.91-.59-.99-.43Z" style="fill: #2f596a;"/>
          <path d="M105.67,135.69c-.12.62-1.14,1.71-.93,2.3.13.38,1.11,1.05,1.42,1.26.3-.72,1.74-1.05,1.81-1.68.01-.2-.44-.89-.5-1.15-.07-.29-.11-.58-.1-.88-.41-.08-.99.35-1.36.52,0-.22-.16-.23-.32-.36Z" style="fill: #2f596a;"/>
          <path d="M102.43,133.23c-.12.63-1.14,1.71-.93,2.3.13.38,1.1,1.05,1.41,1.26.3-.72,1.75-1.05,1.81-1.68.01-.21-.43-.9-.5-1.16-.07-.28-.11-.58-.1-.88-.41-.07-.99.35-1.36.52,0-.22-.16-.22-.32-.36Z" style="fill: #2f596a;"/>
          <path d="M95.77,137.79c-.12.63-1.14,1.71-.94,2.3.14.38,1.11,1.05,1.42,1.25.3-.72,1.74-1.05,1.8-1.68.02-.2-.43-.89-.49-1.15-.07-.29-.11-.58-.1-.88-.41-.07-.99.35-1.36.52-.01-.22-.16-.23-.32-.36Z" style="fill: #2f596a;"/>
          <path d="M114.7,137.55c-.29.52-.72,1.54-.92,2.23.67.21,1.74,1.01,2.04,1.65.15-.44.2-1.05.49-1.47.17-.25.42-.37.53-.67-.37-.13-.77-.44-.99-.76.73-.84-.54-1.04-1.15-.99Z" style="fill: #2f596a;"/>
          <path d="M98.26,127.69c.43-.12.86-.26,1.26-.13.02-.5.18-.95.71-.94.78-1.55-.95-2.21-2-1.42-1.5,1.14-.66,1.42.03,2.49Z" style="fill: #2f596a;"/>
          <path d="M93.12,132.34c-.04.37,0,.78.02,1.15.79-.18,1.69-.45,2.32.24.22-.57.68-1.35.85-1.82.44-1.2.09-1.08-.85-1.32-1.1-.28-.9-.12-1.49.5-.47.49-.76.49-.85,1.25Z" style="fill: #2f596a;"/>
          <path d="M102.21,122.31c-.51.62-1.11,1.3-1.43,2.03.59.19.7.82,1.19,1.07.18-.79.69-.96,1.46-.95.03-.65-.58-1.11-.49-1.84-.18.15-.23.04-.42.11-.06-.25-.08-.36-.3-.43Z" style="fill: #2f596a;"/>
          <path d="M88.67,140.52c.6-.24.9.75,1.5.71.24-.91,1.24-1.28,1.59-2.07-.46-.34-1.03-1.4-1.65-1.19-.26.09-.55.68-.79.87-.34.26-.78.34-1,.65.26.24.17.77.35,1.03Z" style="fill: #2f596a;"/>
          <path d="M101.64,119.2c0,.45-.02,1.33,0,1.94.52,0,1.26-.04,1.71.22.12-.74.6-1.35.8-2-.24,0-.59.03-.79-.1-.25-.18-.01-.52-.29-.64-.21-.09-1.31.45-1.45.58Z" style="fill: #2f596a;"/>
          <path d="M104.38,127.57c.02.36-.38,1.57-.15,1.97.11.2.68.49.86.7.25.27.45.53.66.84.1-.83,1.39-.56,1.59-1.28.11-.42-.3-.79-.21-1.23.07-.4.4-.58.49-.93-.53-.02-1.81.12-2.08.57-.26-.22-1.22-1.64-1.16-.66Z" style="fill: #2f596a;"/>
          <path d="M111.97,116.46c-.21.43-.89.98-.99,1.39-.12.44.01.42.42.76.51.43,1.38.93,1.66,1.51.68-.84,1.6-.86,1.44-2.2-.33-.05-.97.22-1.21-.03-.12-.13-.05-1.06-.02-1.2-.37-.16-.92-.13-1.29-.23Z" style="fill: #2f596a;"/>
          <path d="M98.09,136.41c.1.44.16,1.2.31,1.73.44-.16,1.31-.3,1.71,0,.05-.56.24-2.3-.29-2.57-.52-.27-.36.18-.68.29-.37.12-.56.05-.95.06-.11.19-.13.28-.09.49Z" style="fill: #2f596a;"/>
          <path d="M90.5,140.75c.05.33.24,1.18.45,1.53.26.43,0,.24.49.42.3.11,1.01.13,1.29,0,.04-.63.47-2.71-.42-2.73-.65-.02-.38.58-.86.8-.34.15-1.05-.74-.94,0Z" style="fill: #2f596a;"/>
          <path d="M103.08,140.68c-.43.44-.79,1.85-.86,2.45.51-.06.8-.14,1.21.2.28.24.3.69.65.81.24-1.05.79-.87,1.47-1.43.35-.29.63-1.02.14-1.38-.4-.28-.48.08-.97.16-.83.13-.33-.11-.71-.44-.29-.26-1.02-1.15-.93-.36Z" style="fill: #2f596a;"/>
          <path d="M111.33,123.83c-.27.07-1.15,1.44-1.08,1.94.76.46,1.67.16,2.36.8.18-.54,1.61-1.64,1.12-2.33-.43-.6-1.04.05-1.4.03-.41-.03-.67-.43-1.15-.49-.05.1.11-.04.14.05Z" style="fill: #2f596a;"/>
          <path d="M80.09,141.17c.86.02,1.78.43,2.46.92.13-.84.94-1.26.94-2,0-1.3-.99-.45-1.67-.57-.24-.04-.3-.4-.65-.44-.14-.01-.6.14-.71.24-.41.37-.44,1.48-.38,1.86Z" style="fill: #2f596a;"/>
          <path d="M99.01,123.19c-.1.14-.15.33-.13.5.26.06.51,0,.72-.14.06.05.14.11.2.15.18-.49.22-.95.59-1.37-.66-.12-1.09.46-1.57.8.2-.05.08.02.19.07Z" style="fill: #5e8292;"/>
          <path d="M92.84,129.39c-.38.39-1.15,1.55-.81,2.05.16.23,1.11.22,1.3.21.2-.79,1.67-1.93.9-2.7-.15.13-.54.48-.75.51-.37.06-.23-.48-.64-.06Z" style="fill: #5e8292;"/>
          <path d="M104.34,122.55c-.29-.07-.79.43-.86.8.32.14.5.44.43.79.23-.05.4-.19.65-.28.16-.06.8-.15.88-.22.36-.28.22-.89.51-1.25-.15-.26-.56-.55-.88-.51-.41.05-.33.76-.73.66Z" style="fill: #5e8292;"/>
          <path d="M90.16,133.18c-.17.23-.58.69-.67.97-.13.43-.01.3.08.71.07.32.28,1.13.57,1.23.26-.88,1.06-.86,1.82-.73.01-.85.15-1.58.07-2.39-.48,0-1.41.04-1.88.21Z" style="fill: #5e8292;"/>
          <path d="M99.82,132.17c-.32.04-.86.95-1.14,1.33,1.22-.03.53,1.5,1.07,2.11.54-.86,1.56-.91,2.11-1.49.44-.47.3-1.21.44-1.78-.93.99-2-1.23-2.47-.17Z" style="fill: #5e8292;"/>
          <path d="M109.3,127.5s-.36.82-.57,1.08c.63.06.75.88,1.23.97.63.11.84-1.03,1.59-.96.22-.78-.37-.54-.74-.79-.17-.12-.07-.37-.27-.52-.12-.08-.47.04-.57.07,0-.04-.01-.08-.02-.12-.23-.07-.5.14-.65.28Z" style="fill: #5e8292;"/>
          <path d="M84.62,137.79c.05-.26.05.2.08.32.05.29-.01.8.2,1.05.22.26.56.33.97.23.51-.12.36-.06.53-.74.12-.5.16-1.04.77-.94.49-.88-1.53-1.05-2.1-1-.15.42-.4.64-.45,1.08Z" style="fill: #5e8292;"/>
          <path d="M95.87,135.32c-.55.54-.83,1.72-1.24,2.4,1.14-.09,1.61-.09,2.32.88.33-.95.62-1.84.89-2.75-.76-.17-.64.78-1.22.06-.15-.19.07-.45-.22-.61-.3-.16-.55-.31-.53.02Z" style="fill: #5e8292;"/>
          <path d="M114.93,119.32c-.05.69-.68,1.26-.65,1.96.74.08,1.07,1.03,1.88,1.09,0-1.04,1.61-1.8,1.09-2.6-.46-.7-1.42-.45-2.01-.74-.15.22-.29,0-.3.29Z" style="fill: #5e8292;"/>
          <path d="M108.07,118.59c-.24.36-.57.74-.65,1.15.61.09,1.24.32,1.82.51.12-.58.68-1.31.64-1.87-.5-.07-1.5-.26-1.82.2Z" style="fill: #5e8292;"/>
          <path d="M97.03,145.38c-.05.53.16,1.05.22,1.57.05.36-.01,1.14.16,1.44.37.62,1.82-.08,2.4.32,0-.31-.02-1,.19-1.24.29-.35,1.13-.27,1.5-.57-.19-.48-.39-.98-.54-1.46-.21-.64-.25-.83-.88-.37-.55.4-.58.66-1.19.37-.43-.2-.77-.51-1.15-.77-.26.2-.68.38-.71.72Z" style="fill: #2f596a;"/>
          <path d="M94.17,126.74c-.05.12-.07.26-.07.41.06.82.34.32.88.36.39.03.59.54.74.56.53.05.47-.57.52-.98.03-.19.22-.87.06-1.04-.11-.12-.95-.03-1.18.02-.4.08-.8.3-.96.66Z" style="fill: #5e8292;"/>
          <path d="M98.72,128.89c-.08.46-.23,1.15.15,1.4.3.2.96.05,1.3.19.2-.51.67-.97.8-1.44-.56-.13-1.09-.48-1.65-.65-.18.28-.35.37-.6.5Z" style="fill: #5e8292;"/>
          <path d="M104.13,125.1c-.13.15-.61.81-.65,1.16.32-.01.65,0,.94.14.18.09.36.51.58.52.34,0,1.28-1.24,1.16-1.73-.2.04-.46.04-.63.12-.18-.8-1.26-1.16-1.4-.21Z" style="fill: #5e8292;"/>
          <path d="M89.09,138.75c0,.22.05.9.08,1.3.73-.03,1.53-.11,2.24-.07-.01-.57.52-1.49.36-1.97-.23-.7-.58-.24-1.16-.22-.86.05-1.54-.38-1.53.95Z" style="fill: #5e8292;"/>
          <path d="M110.18,121.88c-.07.6-.9,1.84-.66,2.35.16.33,1.02.41,1.34.49.23.05.99.3,1.21.15.17-.12.58-1.49.66-1.67.51-1.16-.1-.7-.94-.88-.91-.19-1.42-1.87-1.6-.44Z" style="fill: #5e8292;"/>
        </g>
        <g>
          <g>
            <g>
              <circle cx="23.45" cy="217.06" r="8.02" style="fill: none; stroke: #5f5f60; stroke-miterlimit: 10; stroke-width: 3.38px;"/>
              <circle cx="23.45" cy="217.06" r="8.02" style="fill: #a7a7a6;"/>
              <circle cx="23.45" cy="217.06" r="3" style="fill: #606060;"/>
              <path d="M23.45,209.04c-4.43,0-8.02,3.59-8.02,8.02h16.04c0-4.43-3.59-8.02-8.02-8.02Z" style="fill: #565657; opacity: .8;"/>
            </g>
            <g>
              <circle cx="44.28" cy="217.06" r="8.02" style="fill: none; stroke: #5f5f60; stroke-miterlimit: 10; stroke-width: 3.38px;"/>
              <circle cx="44.28" cy="217.06" r="8.02" style="fill: #a7a7a6;"/>
              <circle cx="44.28" cy="217.06" r="3" style="fill: #606060;"/>
              <path d="M44.28,209.04c-4.43,0-8.02,3.59-8.02,8.02h16.04c0-4.43-3.59-8.02-8.02-8.02Z" style="fill: #565657; opacity: .8;"/>
            </g>
            <g>
              <rect x="21.62" y="216.04" width="24.36" height="2.26" style="fill: none; stroke: #454444; stroke-linecap: round; stroke-linejoin: round; stroke-width: .74px;"/>
              <rect x="21.62" y="216.04" width="24.36" height="2.26" style="fill: #606060;"/>
              <circle cx="23.29" cy="217.06" r=".57" style="fill: #4c4a4a;"/>
              <circle cx="44.46" cy="217.06" r=".57" style="fill: #4c4a4a;"/>
              <rect x="21.62" y="215.67" width="24.36" height="1.39" style="fill: #4a4949; opacity: .8;"/>
            </g>
          </g>
          <g>
            <g>
              <circle cx="180.02" cy="217.06" r="8.02" style="fill: none; stroke: #5f5f60; stroke-miterlimit: 10; stroke-width: 3.38px;"/>
              <circle cx="180.02" cy="217.06" r="8.02" style="fill: #a7a7a6;"/>
              <circle cx="180.02" cy="217.06" r="3" style="fill: #606060;"/>
              <path d="M180.02,209.04c-4.43,0-8.02,3.59-8.02,8.02h16.04c0-4.43-3.59-8.02-8.02-8.02Z" style="fill: #565657; opacity: .8;"/>
            </g>
            <g>
              <circle cx="200.85" cy="217.06" r="8.02" style="fill: none; stroke: #5f5f60; stroke-miterlimit: 10; stroke-width: 3.38px;"/>
              <circle cx="200.85" cy="217.06" r="8.02" style="fill: #a7a7a6;"/>
              <circle cx="200.85" cy="217.06" r="3" style="fill: #606060;"/>
              <path d="M200.85,209.04c-4.43,0-8.02,3.59-8.02,8.02h16.04c0-4.43-3.59-8.02-8.02-8.02Z" style="fill: #565657; opacity: .8;"/>
            </g>
            <g>
              <rect x="178.19" y="216.04" width="24.36" height="2.26" style="fill: none; stroke: #454444; stroke-linecap: round; stroke-linejoin: round; stroke-width: .74px;"/>
              <rect x="178.19" y="216.04" width="24.36" height="2.26" style="fill: #606060;"/>
              <circle cx="179.86" cy="217.06" r=".57" style="fill: #4c4a4a;"/>
              <circle cx="201.03" cy="217.06" r=".57" style="fill: #4c4a4a;"/>
              <rect x="178.19" y="215.67" width="24.36" height="1.39" style="fill: #4a4949; opacity: .8;"/>
            </g>
          </g>
          <rect x="1.22" y="207.45" width="225.56" height="4.19" style="fill: #727272;"/>
        </g>
        <g>
          <rect x="8.7" y="145.61" width="210.58" height="61.84" style="fill: #a83029;"/>
          <rect x="8.7" y="145.61" width="210.58" height="5.25" style="fill: #c9aeab; mix-blend-mode: multiply;"/>
          <rect x="7.79" y="145.61" width="212.4" height="3.94" style="fill: #a83029;"/>
          <g>
            <rect x="92.88" y="149.55" width="2.41" height="57.9" style="fill: #c9aeab; mix-blend-mode: multiply;"/>
            <rect x="92" y="149.55" width="2.41" height="57.9" style="fill: url(#uuid-b5bc04ef-779e-41d8-93c2-7352a03c9199);"/>
          </g>
          <g>
            <rect x="50.2" y="149.55" width="2.42" height="57.9" style="fill: #c9aeab; mix-blend-mode: multiply;"/>
            <rect x="49.33" y="149.55" width="2.42" height="57.9" style="fill: url(#uuid-1038ed32-d623-435b-9290-63fce49ccd8c);"/>
          </g>
          <g>
            <rect x="178.21" y="149.55" width="2.41" height="57.9" style="fill: #c9aeab; mix-blend-mode: multiply;"/>
            <rect x="177.33" y="149.55" width="2.41" height="57.9" style="fill: url(#uuid-90729384-9961-4ca6-bfa1-ccacb0ccb95b);"/>
          </g>
          <g>
            <rect x="135.54" y="149.55" width="2.41" height="57.9" style="fill: #c9aeab; mix-blend-mode: multiply;"/>
            <rect x="134.66" y="149.55" width="2.41" height="57.9" style="fill: url(#uuid-180816b6-2a85-47d2-bac8-738dbefc1fe2);"/>
          </g>
          <g>
            <g>
              <path d="M41.91,160.47h-22.28c-1.09,0-1.97-.88-1.97-1.97v-.04c0-1.09.88-1.97,1.97-1.97h22.28c1.09,0,1.97.88,1.97,1.97v.04c0,1.09-.88,1.97-1.97,1.97Z" style="fill: url(#uuid-51bc38d1-cca0-431b-98b4-75baae9a61d8);"/>
              <path d="M42.16,159.45h-22.52c-.94,0-1.73-.61-1.93-1.44-.03.14-.05.29-.05.45v.04c0,1.09.88,1.97,1.97,1.97h22.28c1.08,0,1.95-.86,1.97-1.94-.35.55-.98.93-1.71.93Z" style="fill: #a71f24;"/>
              <path d="M19.01,157.37h23.52c.46,0,.87.14,1.21.37-.28-.73-.99-1.25-1.82-1.25h-22.28c-.83,0-1.54.52-1.83,1.25.34-.23.75-.37,1.21-.37Z" style="fill: #e57680;"/>
            </g>
            <g>
              <path d="M19.63,169.05h22.28c1.08,0,1.97.88,1.97,1.97v.05c0,1.08-.88,1.97-1.97,1.97h-22.28c-1.09,0-1.97-.88-1.97-1.97v-.04c0-1.09.88-1.97,1.97-1.97Z" style="fill: url(#uuid-aa577349-0611-45b0-9c36-7761e239fad4);"/>
              <path d="M42.16,172.01h-22.52c-.94,0-1.73-.61-1.93-1.43-.03.14-.05.28-.05.44v.04c0,1.08.88,1.97,1.97,1.97h22.28c1.08,0,1.95-.87,1.97-1.94-.35.55-.98.92-1.71.92Z" style="fill: #a71f24;"/>
              <path d="M19.01,169.93h23.52c.46,0,.87.14,1.21.37-.28-.73-.99-1.25-1.82-1.25h-22.28c-.83,0-1.54.52-1.83,1.25.34-.23.75-.37,1.21-.37Z" style="fill: #e57680;"/>
            </g>
            <g>
              <path d="M19.63,181.6h22.28c1.08,0,1.97.88,1.97,1.97v.04c0,1.08-.88,1.97-1.97,1.97h-22.28c-1.09,0-1.97-.88-1.97-1.97v-.04c0-1.09.88-1.97,1.97-1.97Z" style="fill: url(#uuid-079cb0d4-1614-4c64-94ac-add230722390);"/>
              <path d="M42.16,184.57h-22.52c-.94,0-1.73-.61-1.93-1.44-.03.14-.05.29-.05.44v.04c0,1.09.88,1.97,1.97,1.97h22.28c1.08,0,1.95-.86,1.97-1.93-.35.55-.98.92-1.71.92Z" style="fill: #a71f24;"/>
              <path d="M19.01,182.48h23.52c.46,0,.87.14,1.21.38-.28-.73-.99-1.26-1.82-1.26h-22.28c-.83,0-1.54.53-1.83,1.26.34-.23.75-.38,1.21-.38Z" style="fill: #e57680;"/>
            </g>
            <g>
              <path d="M19.63,194.16h22.28c1.08,0,1.97.88,1.97,1.97v.04c0,1.08-.88,1.97-1.97,1.97h-22.28c-1.09,0-1.97-.88-1.97-1.97v-.03c0-1.09.88-1.97,1.97-1.97Z" style="fill: url(#uuid-e09585e2-d36b-4db5-98f1-6cb60619b83a);"/>
              <path d="M42.16,197.12h-22.52c-.94,0-1.73-.61-1.93-1.44-.03.14-.05.29-.05.44v.03c0,1.09.88,1.97,1.97,1.97h22.28c1.08,0,1.95-.86,1.97-1.93-.35.55-.98.92-1.71.92Z" style="fill: #a71f24;"/>
              <path d="M19.01,195.03h23.52c.46,0,.87.14,1.21.38-.28-.73-.99-1.25-1.82-1.25h-22.28c-.83,0-1.54.52-1.83,1.25.34-.24.75-.38,1.21-.38Z" style="fill: #e57680;"/>
            </g>
          </g>
          <g>
            <g>
              <rect x="59.72" y="156.49" width="26.22" height="3.98" rx="1.97" ry="1.97" style="fill: url(#uuid-fe081e3f-94d7-43bf-ac0e-ea3daa196717);"/>
              <path d="M84.22,159.45h-22.52c-.94,0-1.73-.61-1.93-1.44-.03.14-.06.29-.06.45v.04c0,1.09.88,1.97,1.97,1.97h22.29c1.07,0,1.94-.86,1.96-1.94-.35.55-.98.93-1.71.93Z" style="fill: #a71f24;"/>
              <path d="M61.07,157.37h23.52c.45,0,.87.14,1.21.37-.29-.73-1-1.25-1.82-1.25h-22.29c-.83,0-1.54.52-1.83,1.25.34-.23.76-.37,1.22-.37Z" style="fill: #e57680;"/>
            </g>
            <g>
              <rect x="59.72" y="169.05" width="26.22" height="3.98" rx="1.97" ry="1.97" style="fill: url(#uuid-da7ae097-a05c-4bef-839b-ebf214994408);"/>
              <path d="M84.22,172.01h-22.52c-.94,0-1.73-.61-1.93-1.43-.03.14-.06.28-.06.44v.04c0,1.08.88,1.97,1.97,1.97h22.29c1.07,0,1.94-.87,1.96-1.94-.35.55-.98.92-1.71.92Z" style="fill: #a71f24;"/>
              <path d="M61.07,169.93h23.52c.45,0,.87.14,1.21.37-.29-.73-1-1.25-1.82-1.25h-22.29c-.83,0-1.54.52-1.83,1.25.34-.23.76-.37,1.22-.37Z" style="fill: #e57680;"/>
            </g>
            <g>
              <rect x="59.72" y="181.6" width="26.22" height="3.97" rx="1.97" ry="1.97" style="fill: url(#uuid-9a738964-dcde-498a-9dc7-4c72298efdb8);"/>
              <path d="M84.22,184.57h-22.52c-.94,0-1.73-.61-1.93-1.44-.03.14-.06.29-.06.44v.04c0,1.09.88,1.97,1.97,1.97h22.29c1.07,0,1.94-.86,1.96-1.93-.35.55-.98.92-1.71.92Z" style="fill: #a71f24;"/>
              <path d="M61.07,182.48h23.52c.45,0,.87.14,1.21.38-.29-.73-1-1.26-1.82-1.26h-22.29c-.83,0-1.54.53-1.83,1.26.34-.23.76-.38,1.22-.38Z" style="fill: #e57680;"/>
            </g>
            <g>
              <rect x="59.72" y="194.16" width="26.22" height="3.97" rx="1.97" ry="1.97" style="fill: url(#uuid-e04614a3-07cd-4875-a410-104c55070e18);"/>
              <path d="M84.22,197.12h-22.52c-.94,0-1.73-.61-1.93-1.44-.03.14-.06.29-.06.44v.03c0,1.09.88,1.97,1.97,1.97h22.29c1.07,0,1.94-.86,1.96-1.93-.35.55-.98.92-1.71.92Z" style="fill: #a71f24;"/>
              <path d="M61.07,195.03h23.52c.45,0,.87.14,1.21.38-.29-.73-1-1.25-1.82-1.25h-22.29c-.83,0-1.54.52-1.83,1.25.34-.24.76-.38,1.22-.38Z" style="fill: #e57680;"/>
            </g>
          </g>
          <g>
            <g>
              <path d="M126.02,160.47h-22.28c-1.09,0-1.96-.88-1.96-1.97v-.04c0-1.09.88-1.97,1.96-1.97h22.28c1.09,0,1.97.88,1.97,1.97v.04c0,1.09-.88,1.97-1.97,1.97Z" style="fill: url(#uuid-e4cd5fe7-3214-428a-890d-b3645ac22d40);"/>
              <path d="M126.28,159.45h-22.51c-.94,0-1.73-.61-1.94-1.44-.03.14-.05.29-.05.45v.04c0,1.09.88,1.97,1.96,1.97h22.28c1.08,0,1.95-.86,1.97-1.94-.35.55-.98.93-1.71.93Z" style="fill: #a71f24;"/>
              <path d="M103.12,157.37h23.52c.45,0,.87.14,1.21.37-.28-.73-1-1.25-1.83-1.25h-22.28c-.83,0-1.54.52-1.82,1.25.34-.23.75-.37,1.21-.37Z" style="fill: #e57680;"/>
            </g>
            <g>
              <path d="M126.02,173.02h-22.28c-1.09,0-1.96-.88-1.96-1.97v-.04c0-1.08.88-1.97,1.96-1.97h22.28c1.09,0,1.97.88,1.97,1.97v.04c0,1.08-.88,1.97-1.97,1.97Z" style="fill: url(#uuid-98002afe-c8c9-4a8d-ac0d-a9dab7d0e4ea);"/>
              <path d="M126.28,172.01h-22.51c-.94,0-1.73-.61-1.94-1.43-.03.14-.05.28-.05.44v.04c0,1.08.88,1.97,1.96,1.97h22.28c1.08,0,1.95-.87,1.97-1.94-.35.55-.98.92-1.71.92Z" style="fill: #a71f24;"/>
              <path d="M103.12,169.93h23.52c.45,0,.87.14,1.21.37-.28-.73-1-1.25-1.83-1.25h-22.28c-.83,0-1.54.52-1.82,1.25.34-.23.75-.37,1.21-.37Z" style="fill: #e57680;"/>
            </g>
            <g>
              <path d="M126.02,185.57h-22.28c-1.09,0-1.96-.88-1.96-1.97v-.04c0-1.08.88-1.97,1.96-1.97h22.28c1.09,0,1.97.89,1.97,1.97v.04c0,1.09-.88,1.97-1.97,1.97Z" style="fill: url(#uuid-9840bc30-c459-4efa-8dc3-509f019de86e);"/>
              <path d="M126.28,184.57h-22.51c-.94,0-1.73-.61-1.94-1.44-.03.14-.05.29-.05.44v.04c0,1.09.88,1.97,1.96,1.97h22.28c1.08,0,1.95-.86,1.97-1.93-.35.55-.98.92-1.71.92Z" style="fill: #a71f24;"/>
              <path d="M103.12,182.48h23.52c.45,0,.87.14,1.21.38-.28-.73-1-1.26-1.83-1.26h-22.28c-.83,0-1.54.53-1.82,1.26.34-.23.75-.38,1.21-.38Z" style="fill: #e57680;"/>
            </g>
            <g>
              <path d="M126.02,198.13h-22.28c-1.09,0-1.96-.88-1.96-1.96v-.04c0-1.09.88-1.97,1.96-1.97h22.28c1.09,0,1.97.88,1.97,1.97v.04c0,1.08-.88,1.96-1.97,1.96Z" style="fill: url(#uuid-af4de85d-5dd1-4968-a5a6-47337f7bb677);"/>
              <path d="M126.28,197.12h-22.51c-.94,0-1.73-.61-1.94-1.44-.03.14-.05.29-.05.44v.03c0,1.09.88,1.97,1.96,1.97h22.28c1.08,0,1.95-.86,1.97-1.93-.35.55-.98.92-1.71.92Z" style="fill: #a71f24;"/>
              <path d="M103.12,195.03h23.52c.45,0,.87.14,1.21.38-.28-.73-1-1.25-1.83-1.25h-22.28c-.83,0-1.54.52-1.82,1.25.34-.24.75-.38,1.21-.38Z" style="fill: #e57680;"/>
            </g>
          </g>
          <g>
            <g>
              <path d="M145.8,156.49h22.28c1.09,0,1.97.88,1.97,1.97v.04c0,1.09-.88,1.97-1.97,1.97h-22.28c-1.09,0-1.97-.88-1.97-1.97v-.04c0-1.09.88-1.97,1.97-1.97Z" style="fill: url(#uuid-bda3202a-b6c6-4143-af6f-eed9977670f7);"/>
              <path d="M168.34,159.45h-22.52c-.94,0-1.73-.61-1.93-1.44-.03.14-.05.29-.05.45v.04c0,1.09.88,1.97,1.97,1.97h22.28c1.07,0,1.94-.86,1.96-1.94-.34.55-.98.93-1.71.93Z" style="fill: #a71f24;"/>
              <path d="M145.18,157.37h23.52c.46,0,.87.14,1.21.37-.28-.73-.99-1.25-1.82-1.25h-22.28c-.83,0-1.55.52-1.83,1.25.35-.23.76-.37,1.21-.37Z" style="fill: #e57680;"/>
            </g>
            <g>
              <path d="M145.8,169.05h22.28c1.09,0,1.97.88,1.97,1.97v.04c0,1.09-.88,1.97-1.97,1.97h-22.28c-1.08,0-1.97-.88-1.97-1.97v-.04c0-1.09.88-1.97,1.97-1.97Z" style="fill: url(#uuid-f0be54f5-1d4f-4a57-901c-7ede518caea3);"/>
              <path d="M168.34,172.01h-22.52c-.94,0-1.73-.61-1.93-1.43-.03.14-.05.28-.05.44v.04c0,1.08.88,1.97,1.97,1.97h22.28c1.07,0,1.94-.87,1.96-1.94-.34.55-.98.92-1.71.92Z" style="fill: #a71f24;"/>
              <path d="M145.18,169.93h23.52c.46,0,.87.14,1.21.37-.28-.73-.99-1.25-1.82-1.25h-22.28c-.83,0-1.55.52-1.83,1.25.35-.23.76-.37,1.21-.37Z" style="fill: #e57680;"/>
            </g>
            <g>
              <path d="M145.8,181.6h22.28c1.09,0,1.97.88,1.97,1.97v.04c0,1.09-.88,1.97-1.97,1.97h-22.28c-1.09,0-1.97-.88-1.97-1.97v-.04c0-1.08.88-1.97,1.97-1.97Z" style="fill: url(#uuid-20b7f94b-ff42-4297-bb68-33251fd3df92);"/>
              <path d="M168.34,184.57h-22.52c-.94,0-1.73-.61-1.93-1.44-.03.14-.05.29-.05.44v.04c0,1.09.88,1.97,1.97,1.97h22.28c1.07,0,1.94-.86,1.96-1.93-.34.55-.98.92-1.71.92Z" style="fill: #a71f24;"/>
              <path d="M145.18,182.48h23.52c.46,0,.87.14,1.21.38-.28-.73-.99-1.26-1.82-1.26h-22.28c-.83,0-1.55.53-1.83,1.26.35-.23.76-.38,1.21-.38Z" style="fill: #e57680;"/>
            </g>
            <g>
              <path d="M168.09,198.13h-22.28c-1.08,0-1.97-.88-1.97-1.96v-.04c0-1.09.88-1.97,1.97-1.97h22.28c1.09,0,1.97.88,1.97,1.97v.04c0,1.08-.88,1.96-1.97,1.96Z" style="fill: url(#uuid-957f681a-5da2-438a-8c36-4196ff22849f);"/>
              <path d="M168.34,197.12h-22.52c-.94,0-1.73-.61-1.93-1.44-.03.14-.05.29-.05.44v.03c0,1.09.88,1.97,1.97,1.97h22.28c1.07,0,1.94-.86,1.96-1.93-.34.55-.98.92-1.71.92Z" style="fill: #a71f24;"/>
              <path d="M145.18,195.03h23.52c.46,0,.87.14,1.21.38-.28-.73-.99-1.25-1.82-1.25h-22.28c-.83,0-1.55.52-1.83,1.25.35-.24.76-.38,1.21-.38Z" style="fill: #e57680;"/>
            </g>
          </g>
          <g>
            <g>
              <path d="M210.14,160.47h-22.28c-1.09,0-1.97-.88-1.97-1.97v-.04c0-1.09.88-1.97,1.97-1.97h22.28c1.09,0,1.96.88,1.96,1.97v.04c0,1.09-.88,1.97-1.96,1.97Z" style="fill: url(#uuid-097dc6df-23a2-4979-9695-8754c3cd6610);"/>
              <path d="M210.39,159.45h-22.51c-.95,0-1.73-.61-1.93-1.44-.03.14-.05.29-.05.45v.04c0,1.09.88,1.97,1.97,1.97h22.28c1.07,0,1.95-.86,1.96-1.94-.34.55-.98.93-1.71.93Z" style="fill: #a71f24;"/>
              <path d="M187.24,157.37h23.52c.45,0,.87.14,1.21.37-.28-.73-.99-1.25-1.82-1.25h-22.28c-.83,0-1.54.52-1.82,1.25.34-.23.76-.37,1.21-.37Z" style="fill: #e57680;"/>
            </g>
            <g>
              <path d="M210.14,173.02h-22.28c-1.09,0-1.97-.88-1.97-1.97v-.04c0-1.08.88-1.97,1.97-1.97h22.28c1.09,0,1.96.88,1.96,1.97v.04c0,1.08-.88,1.97-1.96,1.97Z" style="fill: url(#uuid-208dc152-d7e6-4f65-b543-362880ab4a35);"/>
              <path d="M210.39,172.01h-22.51c-.95,0-1.73-.61-1.93-1.43-.03.14-.05.28-.05.44v.04c0,1.08.88,1.97,1.97,1.97h22.28c1.07,0,1.95-.87,1.96-1.94-.34.55-.98.92-1.71.92Z" style="fill: #a71f24;"/>
              <path d="M187.24,169.93h23.52c.45,0,.87.14,1.21.37-.28-.73-.99-1.25-1.82-1.25h-22.28c-.83,0-1.54.52-1.82,1.25.34-.23.76-.37,1.21-.37Z" style="fill: #e57680;"/>
            </g>
            <g>
              <path d="M210.14,185.57h-22.28c-1.09,0-1.97-.88-1.97-1.97v-.04c0-1.08.88-1.97,1.97-1.97h22.28c1.09,0,1.96.89,1.96,1.97v.04c0,1.09-.88,1.97-1.96,1.97Z" style="fill: url(#uuid-79ecd1d3-62f0-4796-81b9-89b78e86439b);"/>
              <path d="M210.39,184.57h-22.51c-.95,0-1.73-.61-1.93-1.44-.03.14-.05.29-.05.44v.04c0,1.09.88,1.97,1.97,1.97h22.28c1.07,0,1.95-.86,1.96-1.93-.34.55-.98.92-1.71.92Z" style="fill: #a71f24;"/>
              <path d="M187.24,182.48h23.52c.45,0,.87.14,1.21.38-.28-.73-.99-1.26-1.82-1.26h-22.28c-.83,0-1.54.53-1.82,1.26.34-.23.76-.38,1.21-.38Z" style="fill: #e57680;"/>
            </g>
            <g>
              <path d="M210.14,198.13h-22.28c-1.09,0-1.97-.88-1.97-1.96v-.04c0-1.09.88-1.97,1.97-1.97h22.28c1.09,0,1.96.88,1.96,1.97v.04c0,1.08-.88,1.96-1.96,1.96Z" style="fill: url(#uuid-3b712027-8bf4-41dd-b86d-fdd976155663);"/>
              <path d="M210.39,197.12h-22.51c-.95,0-1.73-.61-1.93-1.44-.03.14-.05.29-.05.44v.03c0,1.09.88,1.97,1.97,1.97h22.28c1.07,0,1.95-.86,1.96-1.93-.34.55-.98.92-1.71.92Z" style="fill: #a71f24;"/>
              <path d="M187.24,195.03h23.52c.45,0,.87.14,1.21.38-.28-.73-.99-1.25-1.82-1.25h-22.28c-.83,0-1.54.52-1.82,1.25.34-.24.76-.38,1.21-.38Z" style="fill: #e57680;"/>
            </g>
          </g>
        </g>
      </g>
    </g>
  </g>
</svg>