<?xml version="1.0" encoding="UTF-8"?>
<svg xmlns="http://www.w3.org/2000/svg" xmlns:xlink="http://www.w3.org/1999/xlink" viewBox="0 0 226.77 226.77">
  <defs>
    <linearGradient id="uuid-ba7c491f-54f3-45aa-8b95-700722935736" x1="91.99" y1="149.4" x2="91.99" y2="207.21" gradientUnits="userSpaceOnUse">
      <stop offset="0" stop-color="#bf453e"/>
      <stop offset=".9" stop-color="#d47f88"/>
    </linearGradient>
    <linearGradient id="uuid-1e6afaa9-4773-4776-a4bd-15be20c6bd2d" x1="49.32" x2="49.32" xlink:href="#uuid-ba7c491f-54f3-45aa-8b95-700722935736"/>
    <linearGradient id="uuid-9bef6537-a979-42f2-9d0c-2261e241a16b" x1="50.15" y1="287.4" x2="50.15" y2="345.2" gradientTransform="translate(127.17 495) scale(1 -1)" gradientUnits="userSpaceOnUse">
      <stop offset=".1" stop-color="#d47f88"/>
      <stop offset=".99" stop-color="#bf453e"/>
    </linearGradient>
    <linearGradient id="uuid-19d64fec-9bb2-4b6e-be7b-31d623aae2b2" x1="7.48" x2="7.48" xlink:href="#uuid-9bef6537-a979-42f2-9d0c-2261e241a16b"/>
    <linearGradient id="uuid-0e95fa16-8a1e-41af-b3ed-c25617b5f62b" x1="29.55" y1="156.48" x2="29.55" y2="160.45" gradientUnits="userSpaceOnUse">
      <stop offset=".1" stop-color="#d15965"/>
      <stop offset=".99" stop-color="#bd2820"/>
    </linearGradient>
    <linearGradient id="uuid-36389c1d-ae4f-427b-938c-7b3fd93799aa" y1="169.04" y2="173.01" xlink:href="#uuid-0e95fa16-8a1e-41af-b3ed-c25617b5f62b"/>
    <linearGradient id="uuid-73958d92-5d88-4e04-b3fe-9d651480ddcc" y1="181.59" y2="185.56" xlink:href="#uuid-0e95fa16-8a1e-41af-b3ed-c25617b5f62b"/>
    <linearGradient id="uuid-c8217a23-5f13-4617-bb77-5660bf6d5c81" y1="194.15" y2="198.11" xlink:href="#uuid-0e95fa16-8a1e-41af-b3ed-c25617b5f62b"/>
    <linearGradient id="uuid-85e60d35-a020-4b90-957a-0010149a402f" x1="71.61" x2="71.61" xlink:href="#uuid-0e95fa16-8a1e-41af-b3ed-c25617b5f62b"/>
    <linearGradient id="uuid-6351cff2-ed51-40e2-b483-c08b80e1f771" x1="71.61" y1="169.04" x2="71.61" y2="173.01" xlink:href="#uuid-0e95fa16-8a1e-41af-b3ed-c25617b5f62b"/>
    <linearGradient id="uuid-81174584-0a5f-42e5-af8f-e09d88af67f2" x1="71.61" y1="181.59" x2="71.61" y2="185.56" xlink:href="#uuid-0e95fa16-8a1e-41af-b3ed-c25617b5f62b"/>
    <linearGradient id="uuid-56c80c3b-a319-4f70-895f-0b759b2b1507" x1="71.61" y1="194.15" x2="71.61" y2="198.11" xlink:href="#uuid-0e95fa16-8a1e-41af-b3ed-c25617b5f62b"/>
    <linearGradient id="uuid-a7a667cf-81f0-4641-84d8-a7e4aa96831c" x1="113.67" x2="113.67" xlink:href="#uuid-0e95fa16-8a1e-41af-b3ed-c25617b5f62b"/>
    <linearGradient id="uuid-3e9bf720-0e69-4d39-92a9-794355359155" x1="113.67" y1="169.04" x2="113.67" y2="173.01" xlink:href="#uuid-0e95fa16-8a1e-41af-b3ed-c25617b5f62b"/>
    <linearGradient id="uuid-55f75209-ff8b-43d3-9364-204443e08441" x1="113.67" y1="181.59" x2="113.67" y2="185.56" xlink:href="#uuid-0e95fa16-8a1e-41af-b3ed-c25617b5f62b"/>
    <linearGradient id="uuid-35a3aa56-241f-4efa-9bee-92e0ce1cb062" x1="113.67" y1="194.15" x2="113.67" y2="198.11" xlink:href="#uuid-0e95fa16-8a1e-41af-b3ed-c25617b5f62b"/>
    <linearGradient id="uuid-b7faab73-fede-4f89-864f-d05237fdabea" x1="155.73" x2="155.73" xlink:href="#uuid-0e95fa16-8a1e-41af-b3ed-c25617b5f62b"/>
    <linearGradient id="uuid-c284a700-f6ef-40a3-91ce-2343af7eb1bc" x1="155.73" y1="169.04" x2="155.73" y2="173.01" xlink:href="#uuid-0e95fa16-8a1e-41af-b3ed-c25617b5f62b"/>
    <linearGradient id="uuid-9019f097-c93b-4aa1-8d9c-04b5cd6ea7c8" x1="155.73" y1="181.59" x2="155.73" y2="185.56" xlink:href="#uuid-0e95fa16-8a1e-41af-b3ed-c25617b5f62b"/>
    <linearGradient id="uuid-75b653ea-7297-4d28-ad0e-078760ec7881" x1="155.73" y1="194.15" x2="155.73" y2="198.11" xlink:href="#uuid-0e95fa16-8a1e-41af-b3ed-c25617b5f62b"/>
    <linearGradient id="uuid-9dc655d5-5265-4760-bbaa-dbb0a699370a" x1="197.78" x2="197.78" xlink:href="#uuid-0e95fa16-8a1e-41af-b3ed-c25617b5f62b"/>
    <linearGradient id="uuid-0fb82d10-f786-45f7-b1d7-bf47a0b9751a" x1="197.78" y1="169.04" x2="197.78" y2="173.01" xlink:href="#uuid-0e95fa16-8a1e-41af-b3ed-c25617b5f62b"/>
    <linearGradient id="uuid-34e86b00-1033-4131-8e9f-517475b118a5" x1="197.78" y1="181.59" x2="197.78" y2="185.56" xlink:href="#uuid-0e95fa16-8a1e-41af-b3ed-c25617b5f62b"/>
    <linearGradient id="uuid-f352e5a1-65f7-45e7-8c2d-b81d7f94fd55" x1="197.78" y1="194.15" x2="197.78" y2="198.11" xlink:href="#uuid-0e95fa16-8a1e-41af-b3ed-c25617b5f62b"/>
  </defs>
  <g style="isolation: isolate;">
    <g id="uuid-074849c4-c897-41c8-923f-50defc804f2a" data-name="圖層 1">
      <g>
        <path d="M208.33,207.45h.2c-.07,0-.14,0-.2,0h0Z" style="fill: #e5e5e5;"/>
        <g>
          <g>
            <g>
              <circle cx="22.23" cy="217.06" r="8.02" style="fill: none; stroke: #5f5f60; stroke-miterlimit: 10; stroke-width: 3.38px;"/>
              <circle cx="22.23" cy="217.06" r="8.02" style="fill: #a7a7a6;"/>
              <circle cx="22.23" cy="217.06" r="3" style="fill: #606060;"/>
              <path d="M22.23,209.04c-4.43,0-8.02,3.59-8.02,8.02h16.04c0-4.43-3.59-8.02-8.02-8.02Z" style="fill: #565657; opacity: .8;"/>
            </g>
            <g>
              <circle cx="43.07" cy="217.06" r="8.02" style="fill: none; stroke: #5f5f60; stroke-miterlimit: 10; stroke-width: 3.38px;"/>
              <circle cx="43.07" cy="217.06" r="8.02" style="fill: #a7a7a6;"/>
              <circle cx="43.07" cy="217.06" r="3" style="fill: #606060;"/>
              <path d="M43.07,209.04c-4.43,0-8.02,3.59-8.02,8.02h16.04c0-4.43-3.59-8.02-8.02-8.02Z" style="fill: #565657; opacity: .8;"/>
            </g>
            <g>
              <rect x="20.4" y="216.04" width="24.36" height="2.26" style="fill: none; stroke: #454444; stroke-linecap: round; stroke-linejoin: round; stroke-width: .74px;"/>
              <rect x="20.4" y="216.04" width="24.36" height="2.26" style="fill: #606060;"/>
              <circle cx="22.08" cy="217.06" r=".57" style="fill: #4c4a4a;"/>
              <circle cx="43.24" cy="217.06" r=".57" style="fill: #4c4a4a;"/>
              <rect x="20.4" y="215.67" width="24.36" height="1.39" style="fill: #4a4949; opacity: .8;"/>
            </g>
          </g>
          <g>
            <g>
              <circle cx="178.8" cy="217.06" r="8.02" style="fill: none; stroke: #5f5f60; stroke-miterlimit: 10; stroke-width: 3.38px;"/>
              <circle cx="178.8" cy="217.06" r="8.02" style="fill: #a7a7a6;"/>
              <circle cx="178.8" cy="217.06" r="3" style="fill: #606060;"/>
              <path d="M178.8,209.04c-4.43,0-8.02,3.59-8.02,8.02h16.04c0-4.43-3.59-8.02-8.02-8.02Z" style="fill: #565657; opacity: .8;"/>
            </g>
            <g>
              <circle cx="199.64" cy="217.06" r="8.02" style="fill: none; stroke: #5f5f60; stroke-miterlimit: 10; stroke-width: 3.38px;"/>
              <circle cx="199.64" cy="217.06" r="8.02" style="fill: #a7a7a6;"/>
              <circle cx="199.64" cy="217.06" r="3" style="fill: #606060;"/>
              <path d="M199.64,209.04c-4.43,0-8.02,3.59-8.02,8.02h16.04c0-4.43-3.59-8.02-8.02-8.02Z" style="fill: #565657; opacity: .8;"/>
            </g>
            <g>
              <rect x="176.98" y="216.04" width="24.36" height="2.26" style="fill: none; stroke: #454444; stroke-linecap: round; stroke-linejoin: round; stroke-width: .74px;"/>
              <rect x="176.98" y="216.04" width="24.36" height="2.26" style="fill: #606060;"/>
              <circle cx="178.65" cy="217.06" r=".57" style="fill: #4c4a4a;"/>
              <circle cx="199.82" cy="217.06" r=".57" style="fill: #4c4a4a;"/>
              <rect x="176.98" y="215.67" width="24.36" height="1.39" style="fill: #4a4949; opacity: .8;"/>
            </g>
          </g>
          <rect y="207.45" width="225.56" height="4.19" style="fill: #727272;"/>
        </g>
        <g>
          <rect x="7.48" y="145.61" width="210.58" height="61.84" style="fill: #a83029;"/>
          <rect x="7.48" y="145.61" width="210.58" height="5.25" style="fill: #c9aeab; mix-blend-mode: multiply;"/>
          <rect x="6.58" y="145.61" width="212.4" height="3.94" style="fill: #a83029;"/>
          <g>
            <rect x="91.66" y="149.55" width="2.41" height="57.9" style="fill: #c9aeab; mix-blend-mode: multiply;"/>
            <rect x="90.78" y="149.55" width="2.41" height="57.9" style="fill: url(#uuid-ba7c491f-54f3-45aa-8b95-700722935736);"/>
          </g>
          <g>
            <rect x="48.99" y="149.55" width="2.42" height="57.9" style="fill: #c9aeab; mix-blend-mode: multiply;"/>
            <rect x="48.11" y="149.55" width="2.42" height="57.9" style="fill: url(#uuid-1e6afaa9-4773-4776-a4bd-15be20c6bd2d);"/>
          </g>
          <g>
            <rect x="176.99" y="149.55" width="2.41" height="57.9" style="fill: #c9aeab; mix-blend-mode: multiply;"/>
            <rect x="176.12" y="149.55" width="2.41" height="57.9" style="fill: url(#uuid-9bef6537-a979-42f2-9d0c-2261e241a16b);"/>
          </g>
          <g>
            <rect x="134.32" y="149.55" width="2.41" height="57.9" style="fill: #c9aeab; mix-blend-mode: multiply;"/>
            <rect x="133.45" y="149.55" width="2.41" height="57.9" style="fill: url(#uuid-19d64fec-9bb2-4b6e-be7b-31d623aae2b2);"/>
          </g>
          <g>
            <g>
              <path d="M18.41,156.49h22.28c1.08,0,1.97.88,1.97,1.97v.05c0,1.08-.88,1.97-1.97,1.97h-22.28c-1.09,0-1.97-.88-1.97-1.97v-.04c0-1.09.88-1.97,1.97-1.97Z" style="fill: url(#uuid-0e95fa16-8a1e-41af-b3ed-c25617b5f62b);"/>
              <path d="M40.95,159.45h-22.52c-.94,0-1.73-.61-1.93-1.44-.03.14-.05.29-.05.45v.04c0,1.09.88,1.97,1.97,1.97h22.28c1.08,0,1.95-.86,1.97-1.94-.35.55-.98.93-1.71.93Z" style="fill: #a71f24;"/>
              <path d="M17.79,157.37h23.52c.46,0,.87.14,1.21.37-.28-.73-.99-1.25-1.82-1.25h-22.28c-.83,0-1.54.52-1.83,1.25.34-.23.75-.37,1.21-.37Z" style="fill: #e57680;"/>
            </g>
            <g>
              <path d="M18.41,169.05h22.28c1.08,0,1.97.88,1.97,1.97v.05c0,1.08-.88,1.97-1.97,1.97h-22.28c-1.09,0-1.97-.88-1.97-1.97v-.04c0-1.09.88-1.97,1.97-1.97Z" style="fill: url(#uuid-36389c1d-ae4f-427b-938c-7b3fd93799aa);"/>
              <path d="M40.95,172.01h-22.52c-.94,0-1.73-.61-1.93-1.43-.03.14-.05.28-.05.44v.04c0,1.08.88,1.97,1.97,1.97h22.28c1.08,0,1.95-.87,1.97-1.94-.35.55-.98.92-1.71.92Z" style="fill: #a71f24;"/>
              <path d="M17.79,169.93h23.52c.46,0,.87.14,1.21.37-.28-.73-.99-1.25-1.82-1.25h-22.28c-.83,0-1.54.52-1.83,1.25.34-.23.75-.37,1.21-.37Z" style="fill: #e57680;"/>
            </g>
            <g>
              <path d="M18.41,181.6h22.28c1.08,0,1.97.88,1.97,1.97v.04c0,1.09-.88,1.97-1.97,1.97h-22.28c-1.09,0-1.97-.88-1.97-1.97v-.04c0-1.09.88-1.97,1.97-1.97Z" style="fill: url(#uuid-73958d92-5d88-4e04-b3fe-9d651480ddcc);"/>
              <path d="M40.95,184.57h-22.52c-.94,0-1.73-.61-1.93-1.44-.03.14-.05.29-.05.44v.04c0,1.09.88,1.97,1.97,1.97h22.28c1.08,0,1.95-.86,1.97-1.93-.35.55-.98.92-1.71.92Z" style="fill: #a71f24;"/>
              <path d="M17.79,182.48h23.52c.46,0,.87.14,1.21.38-.28-.73-.99-1.26-1.82-1.26h-22.28c-.83,0-1.54.53-1.83,1.26.34-.23.75-.38,1.21-.38Z" style="fill: #e57680;"/>
            </g>
            <g>
              <path d="M40.69,198.13h-22.28c-1.09,0-1.97-.88-1.97-1.96v-.04c0-1.09.88-1.97,1.97-1.97h22.28c1.09,0,1.97.88,1.97,1.97v.04c0,1.08-.88,1.96-1.97,1.96Z" style="fill: url(#uuid-c8217a23-5f13-4617-bb77-5660bf6d5c81);"/>
              <path d="M40.95,197.12h-22.52c-.94,0-1.73-.61-1.93-1.44-.03.14-.05.29-.05.44v.03c0,1.09.88,1.97,1.97,1.97h22.28c1.08,0,1.95-.86,1.97-1.93-.35.55-.98.92-1.71.92Z" style="fill: #a71f24;"/>
              <path d="M17.79,195.03h23.52c.46,0,.87.14,1.21.38-.28-.73-.99-1.25-1.82-1.25h-22.28c-.83,0-1.54.52-1.83,1.25.34-.24.75-.38,1.21-.38Z" style="fill: #e57680;"/>
            </g>
          </g>
          <g>
            <g>
              <rect x="58.5" y="156.49" width="26.22" height="3.98" rx="1.97" ry="1.97" style="fill: url(#uuid-85e60d35-a020-4b90-957a-0010149a402f);"/>
              <path d="M83.01,159.45h-22.52c-.94,0-1.73-.61-1.93-1.44-.03.14-.06.29-.06.45v.04c0,1.09.88,1.97,1.97,1.97h22.29c1.07,0,1.94-.86,1.96-1.94-.35.55-.98.93-1.71.93Z" style="fill: #a71f24;"/>
              <path d="M59.85,157.37h23.52c.45,0,.87.14,1.21.37-.29-.73-1-1.25-1.82-1.25h-22.29c-.83,0-1.54.52-1.83,1.25.34-.23.76-.37,1.22-.37Z" style="fill: #e57680;"/>
            </g>
            <g>
              <rect x="58.5" y="169.05" width="26.22" height="3.98" rx="1.97" ry="1.97" style="fill: url(#uuid-6351cff2-ed51-40e2-b483-c08b80e1f771);"/>
              <path d="M83.01,172.01h-22.52c-.94,0-1.73-.61-1.93-1.43-.03.14-.06.28-.06.44v.04c0,1.08.88,1.97,1.97,1.97h22.29c1.07,0,1.94-.87,1.96-1.94-.35.55-.98.92-1.71.92Z" style="fill: #a71f24;"/>
              <path d="M59.85,169.93h23.52c.45,0,.87.14,1.21.37-.29-.73-1-1.25-1.82-1.25h-22.29c-.83,0-1.54.52-1.83,1.25.34-.23.76-.37,1.22-.37Z" style="fill: #e57680;"/>
            </g>
            <g>
              <path d="M60.46,181.6h22.29c1.08,0,1.97.88,1.97,1.97v.04c0,1.09-.88,1.97-1.97,1.97h-22.29c-1.08,0-1.97-.88-1.97-1.97v-.04c0-1.08.88-1.97,1.97-1.97Z" style="fill: url(#uuid-81174584-0a5f-42e5-af8f-e09d88af67f2);"/>
              <path d="M83.01,184.57h-22.52c-.94,0-1.73-.61-1.93-1.44-.03.14-.06.29-.06.44v.04c0,1.09.88,1.97,1.97,1.97h22.29c1.07,0,1.94-.86,1.96-1.93-.35.55-.98.92-1.71.92Z" style="fill: #a71f24;"/>
              <path d="M59.85,182.48h23.52c.45,0,.87.14,1.21.38-.29-.73-1-1.26-1.82-1.26h-22.29c-.83,0-1.54.53-1.83,1.26.34-.23.76-.38,1.22-.38Z" style="fill: #e57680;"/>
            </g>
            <g>
              <rect x="58.5" y="194.16" width="26.22" height="3.97" rx="1.97" ry="1.97" style="fill: url(#uuid-56c80c3b-a319-4f70-895f-0b759b2b1507);"/>
              <path d="M83.01,197.12h-22.52c-.94,0-1.73-.61-1.93-1.44-.03.14-.06.29-.06.44v.03c0,1.09.88,1.97,1.97,1.97h22.29c1.07,0,1.94-.86,1.96-1.93-.35.55-.98.92-1.71.92Z" style="fill: #a71f24;"/>
              <path d="M59.85,195.03h23.52c.45,0,.87.14,1.21.38-.29-.73-1-1.25-1.82-1.25h-22.29c-.83,0-1.54.52-1.83,1.25.34-.24.76-.38,1.22-.38Z" style="fill: #e57680;"/>
            </g>
          </g>
          <g>
            <g>
              <path d="M102.53,156.49h22.28c1.08,0,1.96.88,1.96,1.96v.05c0,1.08-.88,1.96-1.96,1.96h-22.28c-1.08,0-1.97-.88-1.97-1.97v-.05c0-1.08.88-1.97,1.97-1.97Z" style="fill: url(#uuid-a7a667cf-81f0-4641-84d8-a7e4aa96831c);"/>
              <path d="M125.06,159.45h-22.51c-.94,0-1.73-.61-1.94-1.44-.03.14-.05.29-.05.45v.04c0,1.09.88,1.97,1.96,1.97h22.28c1.08,0,1.95-.86,1.97-1.94-.35.55-.98.93-1.71.93Z" style="fill: #a71f24;"/>
              <path d="M101.91,157.37h23.52c.45,0,.87.14,1.21.37-.28-.73-1-1.25-1.83-1.25h-22.28c-.83,0-1.54.52-1.82,1.25.34-.23.75-.37,1.21-.37Z" style="fill: #e57680;"/>
            </g>
            <g>
              <path d="M102.53,169.05h22.28c1.08,0,1.96.88,1.96,1.96v.05c0,1.08-.88,1.96-1.96,1.96h-22.28c-1.08,0-1.97-.88-1.97-1.97v-.05c0-1.08.88-1.97,1.97-1.97Z" style="fill: url(#uuid-3e9bf720-0e69-4d39-92a9-794355359155);"/>
              <path d="M125.06,172.01h-22.51c-.94,0-1.73-.61-1.94-1.43-.03.14-.05.28-.05.44v.04c0,1.08.88,1.97,1.96,1.97h22.28c1.08,0,1.95-.87,1.97-1.94-.35.55-.98.92-1.71.92Z" style="fill: #a71f24;"/>
              <path d="M101.91,169.93h23.52c.45,0,.87.14,1.21.37-.28-.73-1-1.25-1.83-1.25h-22.28c-.83,0-1.54.52-1.82,1.25.34-.23.75-.37,1.21-.37Z" style="fill: #e57680;"/>
            </g>
            <g>
              <path d="M124.81,185.57h-22.28c-1.09,0-1.96-.88-1.96-1.97v-.04c0-1.08.88-1.97,1.96-1.97h22.28c1.09,0,1.97.89,1.97,1.97v.04c0,1.09-.88,1.97-1.97,1.97Z" style="fill: url(#uuid-55f75209-ff8b-43d3-9364-204443e08441);"/>
              <path d="M125.06,184.57h-22.51c-.94,0-1.73-.61-1.94-1.44-.03.14-.05.29-.05.44v.04c0,1.09.88,1.97,1.96,1.97h22.28c1.08,0,1.95-.86,1.97-1.93-.35.55-.98.92-1.71.92Z" style="fill: #a71f24;"/>
              <path d="M101.91,182.48h23.52c.45,0,.87.14,1.21.38-.28-.73-1-1.26-1.83-1.26h-22.28c-.83,0-1.54.53-1.82,1.26.34-.23.75-.38,1.21-.38Z" style="fill: #e57680;"/>
            </g>
            <g>
              <path d="M102.53,194.16h22.28c1.08,0,1.96.88,1.96,1.96v.05c0,1.08-.88,1.96-1.96,1.96h-22.28c-1.08,0-1.97-.88-1.97-1.97v-.04c0-1.08.88-1.97,1.97-1.97Z" style="fill: url(#uuid-35a3aa56-241f-4efa-9bee-92e0ce1cb062);"/>
              <path d="M125.06,197.12h-22.51c-.94,0-1.73-.61-1.94-1.44-.03.14-.05.29-.05.44v.03c0,1.09.88,1.97,1.96,1.97h22.28c1.08,0,1.95-.86,1.97-1.93-.35.55-.98.92-1.71.92Z" style="fill: #a71f24;"/>
              <path d="M101.91,195.03h23.52c.45,0,.87.14,1.21.38-.28-.73-1-1.25-1.83-1.25h-22.28c-.83,0-1.54.52-1.82,1.25.34-.24.75-.38,1.21-.38Z" style="fill: #e57680;"/>
            </g>
          </g>
          <g>
            <g>
              <path d="M144.58,156.49h22.28c1.09,0,1.97.88,1.97,1.97v.04c0,1.09-.88,1.97-1.97,1.97h-22.28c-1.08,0-1.97-.88-1.97-1.97v-.05c0-1.08.88-1.97,1.97-1.97Z" style="fill: url(#uuid-b7faab73-fede-4f89-864f-d05237fdabea);"/>
              <path d="M167.12,159.45h-22.52c-.94,0-1.73-.61-1.93-1.44-.03.14-.05.29-.05.45v.04c0,1.09.88,1.97,1.97,1.97h22.28c1.07,0,1.94-.86,1.96-1.94-.34.55-.98.93-1.71.93Z" style="fill: #a71f24;"/>
              <path d="M143.97,157.37h23.52c.46,0,.87.14,1.21.37-.28-.73-.99-1.25-1.82-1.25h-22.28c-.83,0-1.55.52-1.83,1.25.35-.23.76-.37,1.21-.37Z" style="fill: #e57680;"/>
            </g>
            <g>
              <path d="M144.58,169.05h22.28c1.09,0,1.97.88,1.97,1.97v.04c0,1.09-.88,1.97-1.97,1.97h-22.28c-1.08,0-1.97-.88-1.97-1.97v-.05c0-1.08.88-1.97,1.97-1.97Z" style="fill: url(#uuid-c284a700-f6ef-40a3-91ce-2343af7eb1bc);"/>
              <path d="M167.12,172.01h-22.52c-.94,0-1.73-.61-1.93-1.43-.03.14-.05.28-.05.44v.04c0,1.08.88,1.97,1.97,1.97h22.28c1.07,0,1.94-.87,1.96-1.94-.34.55-.98.92-1.71.92Z" style="fill: #a71f24;"/>
              <path d="M143.97,169.93h23.52c.46,0,.87.14,1.21.37-.28-.73-.99-1.25-1.82-1.25h-22.28c-.83,0-1.55.52-1.83,1.25.35-.23.76-.37,1.21-.37Z" style="fill: #e57680;"/>
            </g>
            <g>
              <path d="M144.58,181.6h22.28c1.09,0,1.97.88,1.97,1.97v.04c0,1.09-.88,1.97-1.97,1.97h-22.28c-1.08,0-1.97-.88-1.97-1.97v-.04c0-1.08.88-1.97,1.97-1.97Z" style="fill: url(#uuid-9019f097-c93b-4aa1-8d9c-04b5cd6ea7c8);"/>
              <path d="M167.12,184.57h-22.52c-.94,0-1.73-.61-1.93-1.44-.03.14-.05.29-.05.44v.04c0,1.09.88,1.97,1.97,1.97h22.28c1.07,0,1.94-.86,1.96-1.93-.34.55-.98.92-1.71.92Z" style="fill: #a71f24;"/>
              <path d="M143.97,182.48h23.52c.46,0,.87.14,1.21.38-.28-.73-.99-1.26-1.82-1.26h-22.28c-.83,0-1.55.53-1.83,1.26.35-.23.76-.38,1.21-.38Z" style="fill: #e57680;"/>
            </g>
            <g>
              <path d="M144.58,194.16h22.28c1.09,0,1.97.88,1.97,1.97v.03c0,1.09-.88,1.97-1.97,1.97h-22.28c-1.08,0-1.97-.88-1.97-1.97v-.04c0-1.08.88-1.97,1.97-1.97Z" style="fill: url(#uuid-75b653ea-7297-4d28-ad0e-078760ec7881);"/>
              <path d="M167.12,197.12h-22.52c-.94,0-1.73-.61-1.93-1.44-.03.14-.05.29-.05.44v.03c0,1.09.88,1.97,1.97,1.97h22.28c1.07,0,1.94-.86,1.96-1.93-.34.55-.98.92-1.71.92Z" style="fill: #a71f24;"/>
              <path d="M143.97,195.03h23.52c.46,0,.87.14,1.21.38-.28-.73-.99-1.25-1.82-1.25h-22.28c-.83,0-1.55.52-1.83,1.25.35-.24.76-.38,1.21-.38Z" style="fill: #e57680;"/>
            </g>
          </g>
          <g>
            <g>
              <path d="M208.93,160.47h-22.28c-1.09,0-1.97-.88-1.97-1.97v-.04c0-1.09.88-1.97,1.97-1.97h22.28c1.09,0,1.96.88,1.96,1.97v.04c0,1.09-.88,1.97-1.96,1.97Z" style="fill: url(#uuid-9dc655d5-5265-4760-bbaa-dbb0a699370a);"/>
              <path d="M209.18,159.45h-22.51c-.95,0-1.73-.61-1.93-1.44-.03.14-.05.29-.05.45v.04c0,1.09.88,1.97,1.97,1.97h22.28c1.07,0,1.95-.86,1.96-1.94-.34.55-.98.93-1.71.93Z" style="fill: #a71f24;"/>
              <path d="M186.02,157.37h23.52c.45,0,.87.14,1.21.37-.28-.73-.99-1.25-1.82-1.25h-22.28c-.83,0-1.54.52-1.82,1.25.34-.23.76-.37,1.21-.37Z" style="fill: #e57680;"/>
            </g>
            <g>
              <path d="M208.93,173.02h-22.28c-1.09,0-1.97-.88-1.97-1.97v-.04c0-1.08.88-1.97,1.97-1.97h22.28c1.09,0,1.96.88,1.96,1.97v.04c0,1.08-.88,1.97-1.96,1.97Z" style="fill: url(#uuid-0fb82d10-f786-45f7-b1d7-bf47a0b9751a);"/>
              <path d="M209.18,172.01h-22.51c-.95,0-1.73-.61-1.93-1.43-.03.14-.05.28-.05.44v.04c0,1.08.88,1.97,1.97,1.97h22.28c1.07,0,1.95-.87,1.96-1.94-.34.55-.98.92-1.71.92Z" style="fill: #a71f24;"/>
              <path d="M186.02,169.93h23.52c.45,0,.87.14,1.21.37-.28-.73-.99-1.25-1.82-1.25h-22.28c-.83,0-1.54.52-1.82,1.25.34-.23.76-.37,1.21-.37Z" style="fill: #e57680;"/>
            </g>
            <g>
              <path d="M208.93,185.57h-22.28c-1.09,0-1.97-.88-1.97-1.97v-.04c0-1.08.88-1.97,1.97-1.97h22.28c1.09,0,1.96.89,1.96,1.97v.04c0,1.09-.88,1.97-1.96,1.97Z" style="fill: url(#uuid-34e86b00-1033-4131-8e9f-517475b118a5);"/>
              <path d="M209.18,184.57h-22.51c-.95,0-1.73-.61-1.93-1.44-.03.14-.05.29-.05.44v.04c0,1.09.88,1.97,1.97,1.97h22.28c1.07,0,1.95-.86,1.96-1.93-.34.55-.98.92-1.71.92Z" style="fill: #a71f24;"/>
              <path d="M186.02,182.48h23.52c.45,0,.87.14,1.21.38-.28-.73-.99-1.26-1.82-1.26h-22.28c-.83,0-1.54.53-1.82,1.26.34-.23.76-.38,1.21-.38Z" style="fill: #e57680;"/>
            </g>
            <g>
              <path d="M208.93,198.13h-22.28c-1.09,0-1.97-.88-1.97-1.96v-.04c0-1.09.88-1.97,1.97-1.97h22.28c1.09,0,1.96.88,1.96,1.97v.04c0,1.08-.88,1.96-1.96,1.96Z" style="fill: url(#uuid-f352e5a1-65f7-45e7-8c2d-b81d7f94fd55);"/>
              <path d="M209.18,197.12h-22.51c-.95,0-1.73-.61-1.93-1.44-.03.14-.05.29-.05.44v.03c0,1.09.88,1.97,1.97,1.97h22.28c1.07,0,1.95-.86,1.96-1.93-.34.55-.98.92-1.71.92Z" style="fill: #a71f24;"/>
              <path d="M186.02,195.03h23.52c.45,0,.87.14,1.21.38-.28-.73-.99-1.25-1.82-1.25h-22.28c-.83,0-1.54.52-1.82,1.25.34-.24.76-.38,1.21-.38Z" style="fill: #e57680;"/>
            </g>
          </g>
        </g>
      </g>
    </g>
  </g>
</svg>