<?xml version="1.0" encoding="UTF-8"?>
<svg xmlns="http://www.w3.org/2000/svg" xmlns:xlink="http://www.w3.org/1999/xlink" viewBox="0 0 226.77 226.77">
  <defs>
    <linearGradient id="uuid-ae955e34-1457-4dc6-8cbf-c1295b31a9f6" x1="92.8" y1="149.4" x2="92.8" y2="207.21" gradientUnits="userSpaceOnUse">
      <stop offset="0" stop-color="#bf453e"/>
      <stop offset=".9" stop-color="#d47f88"/>
    </linearGradient>
    <linearGradient id="uuid-5035e0e6-185e-4ac2-a27c-c3dad481a58f" x1="50.13" x2="50.13" xlink:href="#uuid-ae955e34-1457-4dc6-8cbf-c1295b31a9f6"/>
    <linearGradient id="uuid-ee3e57c3-e3bc-4df6-b378-115bc6fe1277" x1="50.96" y1="287.4" x2="50.96" y2="345.2" gradientTransform="translate(127.17 495) scale(1 -1)" gradientUnits="userSpaceOnUse">
      <stop offset=".1" stop-color="#d47f88"/>
      <stop offset=".99" stop-color="#bf453e"/>
    </linearGradient>
    <linearGradient id="uuid-5f81a955-5682-43a0-8a75-a11c75da2687" x1="8.29" x2="8.29" xlink:href="#uuid-ee3e57c3-e3bc-4df6-b378-115bc6fe1277"/>
    <linearGradient id="uuid-1b1ffb56-95f0-4c2d-a2be-f3babacc8196" x1="30.36" y1="156.48" x2="30.36" y2="160.45" gradientUnits="userSpaceOnUse">
      <stop offset=".1" stop-color="#d15965"/>
      <stop offset=".99" stop-color="#bd2820"/>
    </linearGradient>
    <linearGradient id="uuid-9bd446ac-4e34-408d-a397-7246683dc664" y1="169.04" y2="173.01" xlink:href="#uuid-1b1ffb56-95f0-4c2d-a2be-f3babacc8196"/>
    <linearGradient id="uuid-df490f24-0794-424a-be72-f4c35290450f" y1="181.59" y2="185.56" xlink:href="#uuid-1b1ffb56-95f0-4c2d-a2be-f3babacc8196"/>
    <linearGradient id="uuid-a97bedc9-ee18-4d14-afdc-7aecf63b3417" y1="194.15" y2="198.11" xlink:href="#uuid-1b1ffb56-95f0-4c2d-a2be-f3babacc8196"/>
    <linearGradient id="uuid-65b2bc12-82ec-4c4b-af3e-476615897d20" x1="72.42" x2="72.42" xlink:href="#uuid-1b1ffb56-95f0-4c2d-a2be-f3babacc8196"/>
    <linearGradient id="uuid-7aa34a96-bbdd-4c2d-b0ec-a9a928f2ba9a" x1="72.42" y1="169.04" x2="72.42" y2="173.01" xlink:href="#uuid-1b1ffb56-95f0-4c2d-a2be-f3babacc8196"/>
    <linearGradient id="uuid-1d1cee46-cdfc-4411-9176-00ecd4a62840" x1="72.42" y1="181.59" x2="72.42" y2="185.56" xlink:href="#uuid-1b1ffb56-95f0-4c2d-a2be-f3babacc8196"/>
    <linearGradient id="uuid-0697e2c2-edbb-4059-ae8c-115debd40bf5" x1="72.42" y1="194.15" x2="72.42" y2="198.11" xlink:href="#uuid-1b1ffb56-95f0-4c2d-a2be-f3babacc8196"/>
    <linearGradient id="uuid-1bf1b4b2-7234-4943-b2fc-2359226ac7a1" x1="114.48" x2="114.48" xlink:href="#uuid-1b1ffb56-95f0-4c2d-a2be-f3babacc8196"/>
    <linearGradient id="uuid-84138f39-e9c7-4331-88bb-33d24ad71eb3" x1="114.48" y1="169.04" x2="114.48" y2="173.01" xlink:href="#uuid-1b1ffb56-95f0-4c2d-a2be-f3babacc8196"/>
    <linearGradient id="uuid-42020656-cee1-4e76-9dda-dfbf5cceeeda" x1="114.48" y1="181.59" x2="114.48" y2="185.56" xlink:href="#uuid-1b1ffb56-95f0-4c2d-a2be-f3babacc8196"/>
    <linearGradient id="uuid-961203a3-a11b-40ce-a5e9-067698a829a3" x1="114.48" y1="194.15" x2="114.48" y2="198.11" xlink:href="#uuid-1b1ffb56-95f0-4c2d-a2be-f3babacc8196"/>
    <linearGradient id="uuid-d27eabaf-b18f-4aa4-a5aa-c986d65ef057" x1="156.54" x2="156.54" xlink:href="#uuid-1b1ffb56-95f0-4c2d-a2be-f3babacc8196"/>
    <linearGradient id="uuid-9cb68dca-5ba5-458f-b950-903c30f8b909" x1="156.54" y1="169.04" x2="156.54" y2="173.01" xlink:href="#uuid-1b1ffb56-95f0-4c2d-a2be-f3babacc8196"/>
    <linearGradient id="uuid-db31aba3-6dc5-4c2f-ab54-45c21c2eb9ef" x1="156.54" y1="181.59" x2="156.54" y2="185.56" xlink:href="#uuid-1b1ffb56-95f0-4c2d-a2be-f3babacc8196"/>
    <linearGradient id="uuid-f7f50f88-9d52-4a80-9357-54c54acc032c" x1="156.54" y1="194.15" x2="156.54" y2="198.11" xlink:href="#uuid-1b1ffb56-95f0-4c2d-a2be-f3babacc8196"/>
    <linearGradient id="uuid-37580f27-303b-41f7-a489-0c359a81e890" x1="198.59" x2="198.59" xlink:href="#uuid-1b1ffb56-95f0-4c2d-a2be-f3babacc8196"/>
    <linearGradient id="uuid-09e57ae2-a44e-4e61-89a5-7535214a62b9" x1="198.59" y1="169.04" x2="198.59" y2="173.01" xlink:href="#uuid-1b1ffb56-95f0-4c2d-a2be-f3babacc8196"/>
    <linearGradient id="uuid-e0f53aeb-51d6-4ab6-bee3-a66c18e20d4b" x1="198.59" y1="181.59" x2="198.59" y2="185.56" xlink:href="#uuid-1b1ffb56-95f0-4c2d-a2be-f3babacc8196"/>
    <linearGradient id="uuid-81f9fa63-7aee-4610-b968-9fea57035927" x1="198.59" y1="194.15" x2="198.59" y2="198.11" xlink:href="#uuid-1b1ffb56-95f0-4c2d-a2be-f3babacc8196"/>
  </defs>
  <g style="isolation: isolate;">
    <g id="uuid-5d5d6e54-72cd-484d-9088-16856074690f" data-name="圖層 1">
      <g>
        <path d="M209.14,207.45h.2c-.07,0-.14,0-.2,0h0Z" style="fill: #e5e5e5;"/>
        <g>
          <g>
            <path d="M216.38,154.98c-3.79-.36-8.59,2.87-12.18,4.1-4.37,1.49-8.02,1.89-12.72,1.66-6.23-.3-12.36.91-18.46-.55-8.81-2.1-17.29.19-26.19-.76-1.89-.2-5.77-2.69-8.76-4.15-1.91-.93-3.46-1.43-3.93-.66-.18.28-1.22-2.33-1.2-2.7.05-1.31.91-2.55,1.68-3.55,1.65-2.13,3.9-2.91,5.78-4.69,1.53-1.45,2.4-3.44,4.16-4.65,1.32-.9,2.97-1.02,4.09-2.14,1.64-1.64,1.59-3.17,3.72-4.17,4.35-2.04,5.5-7.17,9.61-9.6,1.31-.78,3.3-.85,4.81-1.42,1.47-.54,2.6-1.26,4.19-1.34,3.39-.19,6.47.6,9.82.29,3.39-.32,6.79,1.9,9.73,3.5,2.17,1.18,3.97,2.62,5.77,4.24,1.74,1.56,4.47,2.76,5.66,4.77,1,1.69,1.28,3.88,2.36,5.56,1.96,3.01,6.12,5.23,8.83,7.54,1.32,1.13,2.75,2.4,3.49,4.02.23.5.99,4.84-.26,4.71Z" style="fill: #152a32;"/>
            <path d="M192.67,139.14c-.15,1.12-.34,2.24-.34,3.4,0,2.71.72,7.97-1.93,9.62-1.86,1.16-2.52.62-3.95-.43-1.63-1.2-2.68.04-4.39.77-1.11.48-2.27.87-3.5.76-.53-.05-1.05-.32-1.59-.34-.92-.03-1.71.32-2.62.43-1.19.13-2.63-.81-3.65-.56-1.66.42-2.04,2.88-3.88,3.37-.97.25-1.72-.05-2.66-.11-1.9-.12-3.71.82-5.64.58-1.49-.19-2.9-.9-4.38-.37-.51.18-1.18.91-1.72.92-.75.02-.33-.15-.88-.57-1.07-.81-1.16-.94-2.61-1.01-1.45-.08-2.84-.65-4.28-.9-2.39-.44-4.43.12-6.57.59-1.91-.93-3.46-1.43-3.93-.66-.16.27-1.21-2.23-1.2-2.57,0-1.26.78-2.42,1.49-3.41,1.53-2.18,3.67-3.77,5.67-5.49,2.27-1.96,3.97-4.19,6.74-5.52,1.14-.55,2.42-.8,3.47-1.53,1.27-.88,2.17-2.22,3.2-3.33,1.41-1.52,2.47-3.04,4.16-4.34,3.61-2.76,5.9-7.33,10.91-7.64,1.93-.11,3.95.1,5.86.29,1.98.2,4.09-.12,6.06.15,2.45.32,5.42,3.56,7.14,5.36,1.55,1.62,2.25,3.86,3.4,5.77.83,1.38,1.6,2.41,1.75,4.05.1.93.01,1.83-.09,2.73Z" style="fill: #1d3842;"/>
            <path d="M143.01,150.11c.47-.04,1.38-.08,1.76-.4.34-.29.2-.73.44-1.06.24-.34.55-.45.87-.76.79-.77,1.57-1.59,2.4-2.26,1.22-.98,2.24-1.24,3.77-1.17.3.01,1.18-.16,1.41,0,.6.4.09.91.37,1.39.12.21,1.01.81,1.26.96.58.33.78.53,1.5.49.13.72-.59,1.95-.07,2.53.56.62,1.6,0,2.19-.3.85-.43,1.35-1.17,2.31-1.43,1.9-.51,2.85.99,3.77,2.35,1.09-1.1,2.42.72,3.52.1.78-.44.51-2.2.95-2.95,1.22-2.06,2.28.08,3.95.03.4-.01.94-.39,1.3-.33.31.05.46.33.7.39.19.05.36.33.6.38.4.09.74-.25,1.14-.22.83.06,1.53.93,2.37.79,1.3-.24,2.72-3.08,2.55-4.3-.23-1.74-1.79-3.28-1.3-5.22.1-.42.59-1.45,1.05-1.65.47-.2.84.3,1.37.08.67-.27,1.08-1.11.98-1.82-.18-1.27-.86-.56-1.51-1.31-.66-.75-.61-2.75-.15-3.6-1.1.5-2.31-.02-3.49-.14-2.23-.22-1.82,1.77-1.98,3.54-.19,1.99-.6,1.26-1.97,1.24-.81,0-1.15.6-1.56-.22-.29-.59.57-2.11.94-2.61.55-.74,3.65-4.78.74-4.43-1.61.2-4.11,2.92-5.15,4.1-.35.4-.74,1.45-1.44,1.29-.34-.07-.36-.78-.67-.92-.3.81-.67,1.64-.95,2.45,1.08.86,3.2,2.49,3.38,3.96.26,2.05-2.91,4.1-4.43,2.48-.51-.55-.31-1-1.07-1.09-.58-.07-2.1.82-2.83.92-1.78.23-2.18.05-2.57-1.63-.26-1.1-1.18-3.61-.8-4.68.38-1.07.32-.26,1.08-.43,1.04-.24,1.81-.74,2.58-1.55,1.13-1.2,1.45-3.88,3.25-4.19.6-.1,1.04.13,1.63-.02.68-.18.97-.34,1.63-.45.67-.1.8-.18,1.4-.46.73-.34.55-.33,1.2-.39,1.55-.13,3.19-.17,4.51-1.44,2.59-2.47-3.13-1.97-3.04-3.54-3.03-.93-5.56,1.35-8.13,2.05-1.76.48-4.29,1.55-4.59,3.41-.12.72.17,1.35-.26,2-.4.61-1.24.88-1.73,1.45-1.79,2.1-1.13,6.21-4.32,7.11-.47.13-.91-.14-1.32.05-.56.24-.97,1.1-1.36,1.55-.37.42-1.49,1.71-2.12,1.65-.51-.05-.71-.75-1.03-1.05-.33,2.25-2.73,1.48-4.11,1.43-1.27-.05-3.53,1.72-4.11,2.77-1.1,2,1.01,5.23,3.17,5.06Z" style="fill: #244551;"/>
            <path d="M140.81,145.41c-.12.45-.91,2.42-.39,2.8.3.21,1.01-.18,1.37-.06.33.11.8.62,1.02.88.42-1.26,1.9-1.9,2.68-2.9-.34-.6-1.51-1.01-2.06-1.48-.39.38-.52.88-1.03.99-.47.1-1.15-.07-1.54-.28-.06.05-.03,0-.05.06Z" style="fill: #2f596a;"/>
            <path d="M150.88,138.84c-.02.39-.1.8-.15,1.19-.07.5-.32.74.1,1.01.27.18.78.14,1.09.28.33.15.68.39.97.59-.07-.49.61-1.5,1.01-1.74.31-.18,1.2-.39,1.57-.45-.23-.7-.67-1.43-.88-2.17-.83.09-.98,1.56-1.91,1.47-.43-.04-1.77-.79-1.8-.17Z" style="fill: #2f596a;"/>
            <path d="M150.39,147.77c0,.38-.3,1.9.06,2.24.15.16.76.16.98.21.5.1,1.07.18,1.52.39-.11-.55,1.22-1.62,1.65-2.04-.26-.44-.74-.7-.98-1.2-.16-.36-.2-.88-.43-1.13-.14.39-.54.89-.94,1.04-.51.19-1.02-.13-1.53-.05-.06.16-.34.38-.34.54Z" style="fill: #2f596a;"/>
            <path d="M158.64,134.59c-.47.7-.98,1.42-1.46,2.09.66.35,1.45,1.46,1.51,2.23.6-.34,1.27-.53,1.86-.82-.08-.33-.17-.81-.14-1.14.03-.38.33-.73.3-1.12-.34-.03-.8.02-1.14.14-.27-.51-.25-1.24-.91-1.43-.01.07-.04-.03-.02.04Z" style="fill: #2f596a;"/>
            <path d="M146.94,141.44c-.05.41-.09.84-.16,1.26-.05.25-.35.87-.27,1.09.08.22.69.57.87.78.25.29.45.6.67.92.46-.65,1.48-1.18,2.22-1.54-.28-.53-.11-1.15-.04-1.74.07-.67-.11-.78-.83-.6-.55.14-.69.38-1.26.18-.35-.13-.91-.39-1.2-.34Z" style="fill: #2f596a;"/>
            <path d="M169.16,132.88c-.28.31-.44.96-.59,1.36.69.07,1.51.56,2.07.98.2-.89,1.36-1.38,1.47-2.16-.45-.27-.81-.57-1.19-.88-.08.26-.16.66-.49.69-.1-.22-.44-.34-.67-.31-.34.05-.34.03-.6.32Z" style="fill: #2f596a;"/>
            <path d="M167.63,122.91c-.08.83-.55,1.63-.59,2.46.88-.36,1.69.28,2.55.22.02-.63.11-1.1.49-1.64.21-.29.51-.49.33-.86-.34-.04-.7-.06-1.03-.17-.45-.16-.44-.26-.61-.76-.36.26-1.1.31-1.14.76Z" style="fill: #2f596a;"/>
            <path d="M177.7,124.12c-.31.45-.76,1.32-.76,1.91.74.19,1.19,1.07,1.84,1.43.18-.64,1.22-1.49,1.87-1.59,0-.33-.34-.55-.42-.87-.06-.22-.01-.52-.02-.75-.43-.05-.65.45-1.08.44-.02.07-.05.13-.07.19-.45-.68-.83-1.51-1.37-.75Z" style="fill: #2f596a;"/>
            <path d="M178.03,130.53c-.42.95-1.32,1.92-1.56,2.92.47.26.55,1.03.86,1.45.24.33.54.74.88.98.29-.6.99-.88,1.63-.7-.11-.8.11-1.56.11-2.34-.49-.14-1.19-.27-1.1-.94.06-.49.51-.51.18-.94-.17-.22-.91-.58-.98-.42Z" style="fill: #2f596a;"/>
            <path d="M167.35,138.57c-.11.63-1.14,1.71-.93,2.3.14.38,1.11,1.05,1.42,1.26.3-.72,1.74-1.05,1.8-1.68.02-.2-.44-.89-.5-1.15-.07-.29-.11-.58-.1-.87-.41-.07-.99.35-1.36.51,0-.22-.16-.22-.33-.36Z" style="fill: #2f596a;"/>
            <path d="M166.37,136.71c-.12.63-1.14,1.71-.94,2.3.13.38,1.11,1.05,1.42,1.25.29-.72,1.74-1.05,1.8-1.68.01-.2-.44-.89-.5-1.15-.07-.29-.11-.59-.1-.88-.41-.07-.99.35-1.36.52,0-.22-.16-.22-.33-.36Z" style="fill: #2f596a;"/>
            <path d="M158.41,142.56c-.12.62-1.14,1.71-.93,2.3.13.38,1.1,1.05,1.42,1.25.3-.72,1.75-1.05,1.8-1.68.01-.2-.43-.89-.5-1.15-.07-.29-.11-.58-.1-.88-.41-.07-.99.35-1.36.52,0-.22-.16-.23-.32-.36Z" style="fill: #2f596a;"/>
            <path d="M176.39,140.43c-.3.52-.73,1.54-.92,2.23.67.21,1.74,1.01,2.03,1.65.16-.44.21-1.05.49-1.47.17-.24.41-.37.53-.66-.37-.14-.77-.44-.99-.77.73-.84-.55-1.03-1.15-.99Z" style="fill: #2f596a;"/>
            <path d="M159.94,130.57c.43-.12.86-.25,1.27-.13.02-.5.18-.95.7-.94.79-1.54-.95-2.21-1.99-1.42-1.51,1.14-.66,1.42.03,2.49Z" style="fill: #2f596a;"/>
            <path d="M152.93,134.66c-.05.37,0,.79.02,1.15.8-.18,1.69-.45,2.32.24.23-.58.68-1.35.85-1.82.45-1.2.1-1.08-.86-1.32-1.09-.28-.89-.12-1.48.5-.48.5-.76.5-.86,1.26Z" style="fill: #2f596a;"/>
            <path d="M163.9,125.19c-.51.62-1.11,1.3-1.43,2.03.58.19.7.82,1.19,1.07.18-.78.68-.96,1.45-.94.04-.65-.57-1.11-.49-1.85-.18.15-.23.04-.43.11-.06-.25-.07-.36-.3-.42Z" style="fill: #2f596a;"/>
            <path d="M147.01,139.85c.59-.24.89.75,1.51.71.24-.91,1.24-1.28,1.59-2.07-.47-.34-1.04-1.4-1.66-1.19-.26.08-.55.68-.79.87-.33.26-.78.33-1,.65.26.25.17.77.35,1.03Z" style="fill: #2f596a;"/>
            <path d="M163.32,123.74c0,.45-.02,1.33.01,1.94.52,0,1.26-.04,1.71.22.12-.73.6-1.35.8-2-.24,0-.59.04-.78-.1-.26-.18-.01-.52-.29-.64-.21-.09-1.32.45-1.45.58Z" style="fill: #2f596a;"/>
            <path d="M164.88,130.29c.02.36-.37,1.57-.15,1.97.11.2.68.5.87.7.24.27.44.54.65.84.1-.83,1.39-.55,1.59-1.27.11-.42-.3-.79-.22-1.23.07-.4.41-.59.5-.93-.53-.02-1.81.12-2.09.58-.26-.22-1.22-1.64-1.16-.66Z" style="fill: #2f596a;"/>
            <path d="M174.77,122.41c-.21.44-.89.98-1,1.39-.12.45.02.43.41.76.51.43,1.38.94,1.67,1.51.68-.84,1.59-.86,1.44-2.2-.33-.05-.97.22-1.2-.03-.13-.13-.05-1.07-.02-1.19-.37-.17-.91-.14-1.29-.24Z" style="fill: #2f596a;"/>
            <path d="M159.78,139.29c.09.44.15,1.19.3,1.73.44-.16,1.32-.3,1.71,0,.04-.56.24-2.3-.29-2.57-.52-.27-.36.18-.69.29-.36.12-.55.05-.94.07-.11.18-.13.28-.09.49Z" style="fill: #2f596a;"/>
            <path d="M152.19,143.63c.05.33.24,1.18.45,1.53.26.43,0,.24.49.43.3.11,1.01.12,1.29-.02.05-.63.46-2.71-.42-2.73-.65-.02-.38.58-.87.8-.34.15-1.05-.75-.94,0Z" style="fill: #2f596a;"/>
            <path d="M164.76,143.56c-.43.44-.79,1.85-.86,2.45.51-.06.79-.14,1.2.21.29.24.3.68.65.8.25-1.05.79-.87,1.47-1.43.35-.29.64-1.03.14-1.38-.39-.28-.48.07-.97.16-.82.13-.33-.11-.71-.44-.29-.26-1.02-1.16-.93-.36Z" style="fill: #2f596a;"/>
            <path d="M173,126.71c-.26.08-1.14,1.43-1.07,1.94.76.46,1.67.16,2.36.8.18-.55,1.6-1.64,1.12-2.33-.43-.6-1.04.05-1.4.03-.41-.03-.66-.43-1.14-.48-.05.1.11-.05.13.04Z" style="fill: #2f596a;"/>
            <path d="M141.77,142.84c.86.02,1.78.43,2.46.91.13-.84.94-1.26.93-1.99,0-1.31-.99-.46-1.67-.58-.24-.04-.3-.4-.65-.44-.14-.02-.6.14-.71.24-.41.37-.45,1.47-.38,1.86Z" style="fill: #2f596a;"/>
            <path d="M162.67,126.07c-.1.14-.15.33-.14.5.27.05.51,0,.72-.15.07.05.14.11.2.15.17-.5.22-.95.59-1.37-.67-.12-1.09.46-1.57.8.2-.05.08.02.19.07Z" style="fill: #5e8292;"/>
            <path d="M158.65,128.41c-.38.39-1.14,1.54-.8,2.05.15.23,1.11.22,1.3.21.19-.79,1.66-1.92.89-2.71-.15.14-.54.48-.74.51-.37.06-.23-.49-.65-.06Z" style="fill: #5e8292;"/>
            <path d="M166.02,125.43c-.3-.08-.8.43-.87.8.32.15.5.43.44.78.23-.05.4-.18.65-.27.16-.06.8-.15.88-.22.36-.28.22-.89.51-1.24-.16-.26-.55-.55-.88-.51-.41.05-.33.76-.73.66Z" style="fill: #5e8292;"/>
            <path d="M152.31,134.17c-.17.23-.57.69-.66.97-.13.43-.01.3.08.7.07.32.28,1.13.57,1.23.26-.88,1.06-.86,1.82-.73.02-.85.15-1.58.07-2.38-.49-.01-1.41.03-1.89.21Z" style="fill: #5e8292;"/>
            <path d="M161.81,131.2c-.32.04-.86.95-1.14,1.34,1.22-.04.53,1.5,1.07,2.1.54-.85,1.56-.9,2.11-1.49.44-.47.3-1.22.44-1.78-.92.99-1.99-1.22-2.47-.17Z" style="fill: #5e8292;"/>
            <path d="M170.99,130.38s-.36.82-.58,1.08c.63.06.75.88,1.23.97.63.11.84-1.03,1.6-.96.22-.78-.37-.53-.74-.79-.17-.11-.07-.37-.27-.52-.12-.08-.47.04-.57.07,0-.04-.02-.08-.02-.12-.24-.07-.5.14-.65.28Z" style="fill: #5e8292;"/>
            <path d="M144.86,140.96c.05-.26.05.2.07.33.05.29,0,.79.2,1.05.22.26.57.33.97.23.5-.12.36-.06.53-.74.11-.49.16-1.04.77-.94.49-.88-1.53-1.05-2.09-1-.14.43-.41.65-.45,1.08Z" style="fill: #5e8292;"/>
            <path d="M154.62,137.43c-.55.54-.83,1.71-1.24,2.4,1.14-.09,1.61-.08,2.31.88.33-.94.63-1.84.89-2.75-.75-.17-.65.78-1.22.06-.14-.18.08-.45-.21-.6-.3-.16-.55-.31-.53.02Z" style="fill: #5e8292;"/>
            <path d="M180.34,120.99c-.05.69-.67,1.27-.64,1.96.73.07,1.07,1.03,1.88,1.09,0-1.04,1.61-1.8,1.08-2.61-.45-.7-1.41-.44-2.01-.73-.15.22-.29,0-.31.28Z" style="fill: #5e8292;"/>
            <path d="M171.27,120.07c-.24.36-.58.73-.65,1.16.61.08,1.24.32,1.82.52.12-.59.68-1.32.65-1.88-.51-.06-1.51-.25-1.81.21Z" style="fill: #5e8292;"/>
          </g>
          <path d="M158.71,148.26c-.05.53.14,1.05.21,1.57.05.36-.02,1.14.16,1.43.37.62,1.82-.07,2.4.33.01-.31-.02-1,.19-1.24.29-.35,1.13-.27,1.5-.57-.19-.48-.38-.98-.54-1.47-.21-.63-.25-.83-.88-.38-.55.4-.58.67-1.18.37-.43-.21-.78-.5-1.16-.77-.26.2-.68.38-.71.72Z" style="fill: #2f596a;"/>
        </g>
        <g>
          <path d="M154.29,152.1c-3.79-.37-8.59,2.88-12.18,4.1-4.37,1.49-8.01,1.89-12.72,1.66-6.23-.3-12.35.91-18.47-.55-8.8-2.1-17.29.18-26.19-.76-1.89-.2-5.77-2.7-8.77-4.15-1.91-.93-3.46-1.43-3.93-.67-3.34-2.93.78-6.5,2.92-8.63,1.08-1.07,1.85-2.28,3.09-3.17,1.24-.9,2.49-1.41,3.77-2.2,2.91-1.81,5.02-3.54,6.52-6.42.81-1.55,2.41-2.16,3.51-3.4.98-1.1,1.82-2.59,2.95-3.72.98-.98,2.2-2.15,3.36-2.93.62-.41,1.29-.53,1.86-1.04.55-.5.76-1.27,1.48-1.62,1.12-.54,3.09-.34,4.36-.61,1.33-.28,2.65-.74,3.97-.99,2.11-.39,5.22-.65,7.31-.16,1.95.47,3.17,1.98,4.81,3.07,2.56,1.7,5.05,3,7.88,4.27,2.13.94,6.2,1.49,7.27,3.76.54,1.15.18,2.17.95,3.33.8,1.2,1.83,1.88,2.87,2.8,2.27,2,4.14,4.21,6.24,6.17,1.85,1.73,3.71,3.26,5.63,4.85.97.8,1.79,2,2.09,3.22.12.45.24,3.88-.61,3.8Z" style="fill: #152a32;"/>
          <path d="M133.8,134.99c.43.58.85,1.17,1.28,1.68.79.94,1.72,2.12,1.82,3.49.21,2.99-4.33,3.92-5.73,6.27-1.26,2.13-2.61,2.94-5.12,3.26-1.61.21-3.16-.19-4.76-.16-1.67.02-3.13,1-4.82.84-.52-.05-1.05-.32-1.6-.34-.92-.03-1.72.33-2.62.43-1.19.13-2.63-.82-3.64-.56-1.67.42-2.04,2.88-3.88,3.36-.97.26-1.72-.05-2.65-.11-1.9-.12-3.72.82-5.65.58-1.48-.19-2.89-.89-4.38-.37-.51.18-1.18.91-1.72.92-.74.01-.33-.15-.89-.57-1.07-.81-1.16-.94-2.61-1.02-1.45-.08-2.84-.65-4.28-.9-2.4-.44-4.43.12-6.58.58-1.03-.51-2.87-1.59-3.94-.71-1.65-1.05-.38-3.2.64-4.16,1.13-1.07,2.02-2.07,2.99-3.24,1.59-1.93,4.15-3.13,6.14-4.67,1.05-.81,1.63-2.07,2.8-2.67,1.93-.98,3.05-.92,4.39-3.03,1.04-1.64,2.05-3.04,3.65-4.34,1.69-1.38,2.32-1.84,3.09-3.78.72-1.8,1.89-3.04,3.47-4.1,1.44-.96,3.29-1.49,4.92-2.07,1.27-.45,3.15-1.19,4.43-1.32,1.89-.19,3.35,1.92,4.99,2.52,1.65.61,2.74-.34,4.35-.33,2.48.03,5.41,3.35,6.83,5.29,1.21,1.66,1.8,3.46,3.57,4.64,1.34.89,3.14,1.83,4.19,2.93.47.49.9,1.06,1.33,1.64Z" style="fill: #1d3842;"/>
          <path d="M80.56,147.59c.46-.03,1.38-.08,1.76-.41.33-.28.2-.73.43-1.05.25-.34.56-.45.87-.76.79-.76,1.57-1.58,2.4-2.25,1.22-.99,2.24-1.25,3.77-1.17.3.02,1.17-.16,1.41,0,.59.4.08.91.36,1.39.13.2,1.02.81,1.26.96.57.33.78.53,1.5.49.12.72-.59,1.95-.07,2.53.55.62,1.6,0,2.19-.3.86-.42,1.35-1.17,2.31-1.42,1.89-.51,2.85.99,3.76,2.35,1.1-1.1,2.43.72,3.52.1.78-.44.51-2.2.95-2.95,1.21-2.06,2.27.07,3.95.03.41-.01.94-.39,1.3-.33.31.05.46.33.7.4.19.05.37.33.61.38.4.09.74-.25,1.14-.22.82.07,1.53.94,2.37.79,2.45-.44,2.74-4.13,2.06-5.86-.48-1.22-1.2-2.42-.38-3.73.6-.95,2.08-1.08,2.51-2.17.45-1.17-.47-1.44-.88-2.34-.38-.82-.1-2.21-.59-2.93-.67-1-2.14-.97-3.21-.72-1.59.37-1.28,1.04-1.86,2.34-.45,1.01-1.36,2.19-2.52,2.33-1.84.22-1.75-1.03-2.05-2.34-.11-.48-.07-1.41-.69-1.65-.84-.32-.68.42-1.32.74-.77.38-2.3.49-3.1,1.34-.85.91-.45,1.81-1.88,2.19-1.32.35-1.67-.38-2.06-1.6-.52-1.65-.21-1.95.84-2.93,1.03-.95,1.93-2.02,3.4-2.48,1.16-.36,2.51-.05,3.65-.44,1.07-.36,2.03-1.34,3.08-1.9.45-.24,1.25-.28,1.59-.69.66-.78.08-.34.04-1.09-.08-1.36-.21-2.08-1.47-2.77-1.28-.72-2.68-.55-4.11-.55-.86,0-1.38-.02-2.11.32-1,.47-1.46,1.58-2.68,1.45-.37,1.04-2.57.54-3.55,1.1-1.59.91-2.87,2.33-3.79,3.86-1,1.68-2.13,3.25-3.17,4.9-.53.84-1.17,1.72-2.08,2.2-.5.26-.92-.1-1.42.36-.78.7-.78,2.13-1.63,2.88-.6.53-1.57.7-2.01,1.46-.3.52-.11,1-.44,1.45-.74,1.02-2.1.95-3.25,1.18-1.94.39-4.5.77-4.88,3.05-.33,1.92,1.33,4.65,3.47,4.48Z" style="fill: #244551;"/>
          <path d="M78.72,142.54c-.11.45-.91,2.42-.38,2.79.3.22,1.01-.18,1.37-.06.34.12.8.62,1.02.88.41-1.26,1.9-1.9,2.68-2.9-.34-.6-1.51-1-2.06-1.48-.38.38-.52.88-1.04.99-.47.11-1.15-.06-1.54-.28-.06.04-.03-.01-.05.06Z" style="fill: #2f596a;"/>
          <path d="M88.79,135.96c-.02.39-.09.8-.14,1.19-.07.5-.33.73.09,1,.27.18.78.14,1.1.28.33.16.67.39.98.58-.08-.48.6-1.5,1-1.74.31-.18,1.2-.39,1.57-.45-.23-.71-.68-1.44-.88-2.17-.83.09-.98,1.56-1.91,1.47-.43-.04-1.77-.79-1.81-.16Z" style="fill: #2f596a;"/>
          <path d="M88.3,144.89c0,.38-.29,1.9.06,2.24.15.16.76.17.98.21.49.1,1.07.18,1.53.39-.12-.55,1.2-1.62,1.64-2.03-.27-.44-.74-.7-.98-1.2-.17-.35-.2-.87-.43-1.13-.14.38-.54.89-.94,1.04-.51.18-1.02-.13-1.53-.05-.05.16-.34.38-.34.54Z" style="fill: #2f596a;"/>
          <path d="M100.6,128.36c-.14.84-.3,1.7-.47,2.51.75.04,1.93.73,2.29,1.41.41-.56.94-1,1.36-1.51-.21-.27-.48-.66-.6-.99-.13-.36,0-.8-.17-1.14-.33.1-.72.34-.99.6-.45-.35-.73-1.03-1.42-.92.02.06-.04,0,0,.04Z" style="fill: #2f596a;"/>
          <path d="M84.85,138.56c-.05.42-.09.85-.16,1.26-.04.25-.34.87-.26,1.08.08.22.69.58.86.78.25.3.46.6.68.92.46-.65,1.47-1.18,2.22-1.54-.27-.53-.11-1.16-.05-1.74.08-.67-.11-.78-.82-.61-.56.14-.69.38-1.26.18-.35-.13-.91-.4-1.2-.34Z" style="fill: #2f596a;"/>
          <path d="M107.08,130c-.28.31-.44.95-.59,1.36.69.08,1.51.57,2.06.98.21-.89,1.36-1.38,1.48-2.16-.45-.27-.81-.57-1.18-.88-.09.27-.17.67-.49.7-.09-.22-.43-.35-.67-.32-.33.04-.34.03-.6.32Z" style="fill: #2f596a;"/>
          <path d="M105.54,120.04c-.07.82-.56,1.63-.59,2.45.88-.36,1.69.28,2.56.22.01-.63.11-1.1.49-1.64.21-.29.51-.49.33-.86-.34-.04-.7-.06-1.03-.18-.45-.15-.44-.26-.61-.76-.35.26-1.09.31-1.14.76Z" style="fill: #2f596a;"/>
          <path d="M115.61,121.24c-.32.45-.77,1.32-.76,1.9.75.19,1.2,1.07,1.85,1.43.17-.63,1.21-1.49,1.86-1.59,0-.34-.34-.55-.42-.87-.06-.23,0-.52-.02-.76-.43-.05-.64.45-1.08.44-.02.07-.04.13-.06.19-.46-.68-.84-1.51-1.37-.74Z" style="fill: #2f596a;"/>
          <path d="M115.94,127.64c-.42.95-1.32,1.92-1.56,2.92.47.26.55,1.02.86,1.45.24.33.54.74.87.98.29-.6.99-.88,1.63-.7-.11-.79.12-1.55.11-2.33-.49-.16-1.19-.28-1.1-.94.06-.49.51-.52.18-.94-.18-.23-.91-.59-.99-.43Z" style="fill: #2f596a;"/>
          <path d="M105.27,135.69c-.12.62-1.14,1.71-.93,2.3.13.38,1.11,1.05,1.42,1.26.3-.72,1.74-1.05,1.81-1.68.01-.2-.44-.89-.5-1.15-.07-.29-.11-.58-.1-.88-.41-.08-.99.35-1.36.52,0-.22-.16-.23-.32-.36Z" style="fill: #2f596a;"/>
          <path d="M102.02,133.23c-.12.63-1.14,1.71-.93,2.3.13.38,1.1,1.05,1.41,1.26.3-.72,1.75-1.05,1.81-1.68.01-.21-.43-.9-.5-1.16-.07-.28-.11-.58-.1-.88-.41-.07-.99.35-1.36.52,0-.22-.16-.22-.32-.36Z" style="fill: #2f596a;"/>
          <path d="M95.36,137.79c-.12.63-1.14,1.71-.94,2.3.14.38,1.11,1.05,1.42,1.25.3-.72,1.74-1.05,1.8-1.68.02-.2-.43-.89-.49-1.15-.07-.29-.11-.58-.1-.88-.41-.07-.99.35-1.36.52-.01-.22-.16-.23-.32-.36Z" style="fill: #2f596a;"/>
          <path d="M114.3,137.55c-.29.52-.72,1.54-.92,2.23.67.21,1.74,1.01,2.04,1.65.15-.44.2-1.05.49-1.47.17-.25.42-.37.53-.67-.37-.13-.77-.44-.99-.76.73-.84-.54-1.04-1.15-.99Z" style="fill: #2f596a;"/>
          <path d="M97.85,127.69c.43-.12.86-.26,1.26-.13.02-.5.18-.95.71-.94.78-1.55-.95-2.21-2-1.42-1.5,1.14-.66,1.42.03,2.49Z" style="fill: #2f596a;"/>
          <path d="M92.72,132.34c-.04.37,0,.78.02,1.15.79-.18,1.69-.45,2.32.24.22-.57.68-1.35.85-1.82.44-1.2.09-1.08-.85-1.32-1.1-.28-.9-.12-1.49.5-.47.49-.76.49-.85,1.25Z" style="fill: #2f596a;"/>
          <path d="M101.81,122.31c-.51.62-1.11,1.3-1.43,2.03.59.19.7.82,1.19,1.07.18-.79.69-.96,1.46-.95.03-.65-.58-1.11-.49-1.84-.18.15-.23.04-.42.11-.06-.25-.08-.36-.3-.43Z" style="fill: #2f596a;"/>
          <path d="M88.26,140.52c.6-.24.9.75,1.5.71.24-.91,1.24-1.28,1.59-2.07-.46-.34-1.03-1.4-1.65-1.19-.26.09-.55.68-.79.87-.34.26-.78.34-1,.65.26.24.17.77.35,1.03Z" style="fill: #2f596a;"/>
          <path d="M101.23,119.2c0,.45-.02,1.33,0,1.94.52,0,1.26-.04,1.71.22.12-.74.6-1.35.8-2-.24,0-.59.03-.79-.1-.25-.18-.01-.52-.29-.64-.21-.09-1.31.45-1.45.58Z" style="fill: #2f596a;"/>
          <path d="M103.97,127.57c.02.36-.38,1.57-.15,1.97.11.2.68.49.86.7.25.27.45.53.66.84.1-.83,1.39-.56,1.59-1.28.11-.42-.3-.79-.21-1.23.07-.4.4-.58.49-.93-.53-.02-1.81.12-2.08.57-.26-.22-1.22-1.64-1.16-.66Z" style="fill: #2f596a;"/>
          <path d="M111.57,116.46c-.21.43-.89.98-.99,1.39-.12.44.01.42.42.76.51.43,1.38.93,1.66,1.51.68-.84,1.6-.86,1.44-2.2-.33-.05-.97.22-1.21-.03-.12-.13-.05-1.06-.02-1.2-.37-.16-.92-.13-1.29-.23Z" style="fill: #2f596a;"/>
          <path d="M97.68,136.41c.1.44.16,1.2.31,1.73.44-.16,1.31-.3,1.71,0,.05-.56.24-2.3-.29-2.57-.52-.27-.36.18-.68.29-.37.12-.56.05-.95.06-.11.19-.13.28-.09.49Z" style="fill: #2f596a;"/>
          <path d="M90.1,140.75c.05.33.24,1.18.45,1.53.26.43,0,.24.49.42.3.11,1.01.13,1.29,0,.04-.63.47-2.71-.42-2.73-.65-.02-.38.58-.86.8-.34.15-1.05-.74-.94,0Z" style="fill: #2f596a;"/>
          <path d="M102.68,140.68c-.43.44-.79,1.85-.86,2.45.51-.06.8-.14,1.21.2.28.24.3.69.65.81.24-1.05.79-.87,1.47-1.43.35-.29.63-1.02.14-1.38-.4-.28-.48.08-.97.16-.83.13-.33-.11-.71-.44-.29-.26-1.02-1.15-.93-.36Z" style="fill: #2f596a;"/>
          <path d="M110.92,123.83c-.27.07-1.15,1.44-1.08,1.94.76.46,1.67.16,2.36.8.18-.54,1.61-1.64,1.12-2.33-.43-.6-1.04.05-1.4.03-.41-.03-.67-.43-1.15-.49-.05.1.11-.04.14.05Z" style="fill: #2f596a;"/>
          <path d="M79.68,141.17c.86.02,1.78.43,2.46.92.13-.84.94-1.26.94-2,0-1.3-.99-.45-1.67-.57-.24-.04-.3-.4-.65-.44-.14-.01-.6.14-.71.24-.41.37-.44,1.48-.38,1.86Z" style="fill: #2f596a;"/>
          <path d="M98.61,123.19c-.1.14-.15.33-.13.5.26.06.51,0,.72-.14.06.05.14.11.2.15.18-.49.22-.95.59-1.37-.66-.12-1.09.46-1.57.8.2-.05.08.02.19.07Z" style="fill: #5e8292;"/>
          <path d="M92.44,129.39c-.38.39-1.15,1.55-.81,2.05.16.23,1.11.22,1.3.21.2-.79,1.67-1.93.9-2.7-.15.13-.54.48-.75.51-.37.06-.23-.48-.64-.06Z" style="fill: #5e8292;"/>
          <path d="M103.93,122.55c-.29-.07-.79.43-.86.8.32.14.5.44.43.79.23-.05.4-.19.65-.28.16-.06.8-.15.88-.22.36-.28.22-.89.51-1.25-.15-.26-.56-.55-.88-.51-.41.05-.33.76-.73.66Z" style="fill: #5e8292;"/>
          <path d="M89.75,133.18c-.17.23-.58.69-.67.97-.13.43-.01.3.08.71.07.32.28,1.13.57,1.23.26-.88,1.06-.86,1.82-.73.01-.85.15-1.58.07-2.39-.48,0-1.41.04-1.88.21Z" style="fill: #5e8292;"/>
          <path d="M99.41,132.17c-.32.04-.86.95-1.14,1.33,1.22-.03.53,1.5,1.07,2.11.54-.86,1.56-.91,2.11-1.49.44-.47.3-1.21.44-1.78-.93.99-2-1.23-2.47-.17Z" style="fill: #5e8292;"/>
          <path d="M108.89,127.5s-.36.82-.57,1.08c.63.06.75.88,1.23.97.63.11.84-1.03,1.59-.96.22-.78-.37-.54-.74-.79-.17-.12-.07-.37-.27-.52-.12-.08-.47.04-.57.07,0-.04-.01-.08-.02-.12-.23-.07-.5.14-.65.28Z" style="fill: #5e8292;"/>
          <path d="M84.22,137.79c.05-.26.05.2.08.32.05.29-.01.8.2,1.05.22.26.56.33.97.23.51-.12.36-.06.53-.74.12-.5.16-1.04.77-.94.49-.88-1.53-1.05-2.1-1-.15.42-.4.64-.45,1.08Z" style="fill: #5e8292;"/>
          <path d="M95.46,135.32c-.55.54-.83,1.72-1.24,2.4,1.14-.09,1.61-.09,2.32.88.33-.95.62-1.84.89-2.75-.76-.17-.64.78-1.22.06-.15-.19.07-.45-.22-.61-.3-.16-.55-.31-.53.02Z" style="fill: #5e8292;"/>
          <path d="M114.52,119.32c-.05.69-.68,1.26-.65,1.96.74.08,1.07,1.03,1.88,1.09,0-1.04,1.61-1.8,1.09-2.6-.46-.7-1.42-.45-2.01-.74-.15.22-.29,0-.3.29Z" style="fill: #5e8292;"/>
          <path d="M107.66,118.59c-.24.36-.57.74-.65,1.15.61.09,1.24.32,1.82.51.12-.58.68-1.31.64-1.87-.5-.07-1.5-.26-1.82.2Z" style="fill: #5e8292;"/>
          <path d="M96.62,145.38c-.05.53.16,1.05.22,1.57.05.36-.01,1.14.16,1.44.37.62,1.82-.08,2.4.32,0-.31-.02-1,.19-1.24.29-.35,1.13-.27,1.5-.57-.19-.48-.39-.98-.54-1.46-.21-.64-.25-.83-.88-.37-.55.4-.58.66-1.19.37-.43-.2-.77-.51-1.15-.77-.26.2-.68.38-.71.72Z" style="fill: #2f596a;"/>
          <path d="M93.76,126.74c-.05.12-.07.26-.07.41.06.82.34.32.88.36.39.03.59.54.74.56.53.05.47-.57.52-.98.03-.19.22-.87.06-1.04-.11-.12-.95-.03-1.18.02-.4.08-.8.3-.96.66Z" style="fill: #5e8292;"/>
          <path d="M98.32,128.89c-.08.46-.23,1.15.15,1.4.3.2.96.05,1.3.19.2-.51.67-.97.8-1.44-.56-.13-1.09-.48-1.65-.65-.18.28-.35.37-.6.5Z" style="fill: #5e8292;"/>
          <path d="M103.72,125.1c-.13.15-.61.81-.65,1.16.32-.01.65,0,.94.14.18.09.36.51.58.52.34,0,1.28-1.24,1.16-1.73-.2.04-.46.04-.63.12-.18-.8-1.26-1.16-1.4-.21Z" style="fill: #5e8292;"/>
          <path d="M88.68,138.75c0,.22.05.9.08,1.3.73-.03,1.53-.11,2.24-.07-.01-.57.52-1.49.36-1.97-.23-.7-.58-.24-1.16-.22-.86.05-1.54-.38-1.53.95Z" style="fill: #5e8292;"/>
          <path d="M109.78,121.88c-.07.6-.9,1.84-.66,2.35.16.33,1.02.41,1.34.49.23.05.99.3,1.21.15.17-.12.58-1.49.66-1.67.51-1.16-.1-.7-.94-.88-.91-.19-1.42-1.87-1.6-.44Z" style="fill: #5e8292;"/>
        </g>
        <g>
          <g>
            <g>
              <circle cx="23.04" cy="217.06" r="8.02" style="fill: none; stroke: #5f5f60; stroke-miterlimit: 10; stroke-width: 3.38px;"/>
              <circle cx="23.04" cy="217.06" r="8.02" style="fill: #a7a7a6;"/>
              <circle cx="23.04" cy="217.06" r="3" style="fill: #606060;"/>
              <path d="M23.04,209.04c-4.43,0-8.02,3.59-8.02,8.02h16.04c0-4.43-3.59-8.02-8.02-8.02Z" style="fill: #565657; opacity: .8;"/>
            </g>
            <g>
              <circle cx="43.88" cy="217.06" r="8.02" style="fill: none; stroke: #5f5f60; stroke-miterlimit: 10; stroke-width: 3.38px;"/>
              <circle cx="43.88" cy="217.06" r="8.02" style="fill: #a7a7a6;"/>
              <circle cx="43.88" cy="217.06" r="3" style="fill: #606060;"/>
              <path d="M43.88,209.04c-4.43,0-8.02,3.59-8.02,8.02h16.04c0-4.43-3.59-8.02-8.02-8.02Z" style="fill: #565657; opacity: .8;"/>
            </g>
            <g>
              <rect x="21.21" y="216.04" width="24.36" height="2.26" style="fill: none; stroke: #454444; stroke-linecap: round; stroke-linejoin: round; stroke-width: .74px;"/>
              <rect x="21.21" y="216.04" width="24.36" height="2.26" style="fill: #606060;"/>
              <circle cx="22.89" cy="217.06" r=".57" style="fill: #4c4a4a;"/>
              <circle cx="44.05" cy="217.06" r=".57" style="fill: #4c4a4a;"/>
              <rect x="21.21" y="215.67" width="24.36" height="1.39" style="fill: #4a4949; opacity: .8;"/>
            </g>
          </g>
          <g>
            <g>
              <circle cx="179.62" cy="217.06" r="8.02" style="fill: none; stroke: #5f5f60; stroke-miterlimit: 10; stroke-width: 3.38px;"/>
              <circle cx="179.62" cy="217.06" r="8.02" style="fill: #a7a7a6;"/>
              <circle cx="179.62" cy="217.06" r="3" style="fill: #606060;"/>
              <path d="M179.62,209.04c-4.43,0-8.02,3.59-8.02,8.02h16.04c0-4.43-3.59-8.02-8.02-8.02Z" style="fill: #565657; opacity: .8;"/>
            </g>
            <g>
              <circle cx="200.45" cy="217.06" r="8.02" style="fill: none; stroke: #5f5f60; stroke-miterlimit: 10; stroke-width: 3.38px;"/>
              <circle cx="200.45" cy="217.06" r="8.02" style="fill: #a7a7a6;"/>
              <circle cx="200.45" cy="217.06" r="3" style="fill: #606060;"/>
              <path d="M200.45,209.04c-4.43,0-8.02,3.59-8.02,8.02h16.04c0-4.43-3.59-8.02-8.02-8.02Z" style="fill: #565657; opacity: .8;"/>
            </g>
            <g>
              <rect x="177.79" y="216.04" width="24.36" height="2.26" style="fill: none; stroke: #454444; stroke-linecap: round; stroke-linejoin: round; stroke-width: .74px;"/>
              <rect x="177.79" y="216.04" width="24.36" height="2.26" style="fill: #606060;"/>
              <circle cx="179.46" cy="217.06" r=".57" style="fill: #4c4a4a;"/>
              <circle cx="200.63" cy="217.06" r=".57" style="fill: #4c4a4a;"/>
              <rect x="177.79" y="215.67" width="24.36" height="1.39" style="fill: #4a4949; opacity: .8;"/>
            </g>
          </g>
          <rect x=".81" y="207.45" width="225.56" height="4.19" style="fill: #727272;"/>
        </g>
        <g>
          <rect x="8.29" y="145.61" width="210.58" height="61.84" style="fill: #a83029;"/>
          <rect x="8.29" y="145.61" width="210.58" height="5.25" style="fill: #c9aeab; mix-blend-mode: multiply;"/>
          <rect x="7.39" y="145.61" width="212.4" height="3.94" style="fill: #a83029;"/>
          <g>
            <rect x="92.47" y="149.55" width="2.41" height="57.9" style="fill: #c9aeab; mix-blend-mode: multiply;"/>
            <rect x="91.59" y="149.55" width="2.41" height="57.9" style="fill: url(#uuid-ae955e34-1457-4dc6-8cbf-c1295b31a9f6);"/>
          </g>
          <g>
            <rect x="49.8" y="149.55" width="2.42" height="57.9" style="fill: #c9aeab; mix-blend-mode: multiply;"/>
            <rect x="48.92" y="149.55" width="2.42" height="57.9" style="fill: url(#uuid-5035e0e6-185e-4ac2-a27c-c3dad481a58f);"/>
          </g>
          <g>
            <rect x="177.8" y="149.55" width="2.41" height="57.9" style="fill: #c9aeab; mix-blend-mode: multiply;"/>
            <rect x="176.93" y="149.55" width="2.41" height="57.9" style="fill: url(#uuid-ee3e57c3-e3bc-4df6-b378-115bc6fe1277);"/>
          </g>
          <g>
            <rect x="135.13" y="149.55" width="2.41" height="57.9" style="fill: #c9aeab; mix-blend-mode: multiply;"/>
            <rect x="134.26" y="149.55" width="2.41" height="57.9" style="fill: url(#uuid-5f81a955-5682-43a0-8a75-a11c75da2687);"/>
          </g>
          <g>
            <g>
              <path d="M19.22,156.49h22.28c1.09,0,1.97.88,1.97,1.97v.04c0,1.09-.88,1.97-1.97,1.97h-22.28c-1.09,0-1.97-.88-1.97-1.97v-.04c0-1.09.88-1.97,1.97-1.97Z" style="fill: url(#uuid-1b1ffb56-95f0-4c2d-a2be-f3babacc8196);"/>
              <path d="M41.76,159.45h-22.52c-.94,0-1.73-.61-1.93-1.44-.03.14-.05.29-.05.45v.04c0,1.09.88,1.97,1.97,1.97h22.28c1.08,0,1.95-.86,1.97-1.94-.35.55-.98.93-1.71.93Z" style="fill: #a71f24;"/>
              <path d="M18.6,157.37h23.52c.46,0,.87.14,1.21.37-.28-.73-.99-1.25-1.82-1.25h-22.28c-.83,0-1.54.52-1.83,1.25.34-.23.75-.37,1.21-.37Z" style="fill: #e57680;"/>
            </g>
            <g>
              <path d="M19.22,169.05h22.28c1.09,0,1.97.88,1.97,1.97v.04c0,1.08-.88,1.97-1.97,1.97h-22.28c-1.09,0-1.97-.88-1.97-1.97v-.04c0-1.09.88-1.97,1.97-1.97Z" style="fill: url(#uuid-9bd446ac-4e34-408d-a397-7246683dc664);"/>
              <path d="M41.76,172.01h-22.52c-.94,0-1.73-.61-1.93-1.43-.03.14-.05.28-.05.44v.04c0,1.08.88,1.97,1.97,1.97h22.28c1.08,0,1.95-.87,1.97-1.94-.35.55-.98.92-1.71.92Z" style="fill: #a71f24;"/>
              <path d="M18.6,169.93h23.52c.46,0,.87.14,1.21.37-.28-.73-.99-1.25-1.82-1.25h-22.28c-.83,0-1.54.52-1.83,1.25.34-.23.75-.37,1.21-.37Z" style="fill: #e57680;"/>
            </g>
            <g>
              <path d="M19.22,181.6h22.28c1.08,0,1.97.88,1.97,1.97v.04c0,1.09-.88,1.97-1.97,1.97h-22.28c-1.09,0-1.97-.88-1.97-1.97v-.04c0-1.09.88-1.97,1.97-1.97Z" style="fill: url(#uuid-df490f24-0794-424a-be72-f4c35290450f);"/>
              <path d="M41.76,184.57h-22.52c-.94,0-1.73-.61-1.93-1.44-.03.14-.05.29-.05.44v.04c0,1.09.88,1.97,1.97,1.97h22.28c1.08,0,1.95-.86,1.97-1.93-.35.55-.98.92-1.71.92Z" style="fill: #a71f24;"/>
              <path d="M18.6,182.48h23.52c.46,0,.87.14,1.21.38-.28-.73-.99-1.26-1.82-1.26h-22.28c-.83,0-1.54.53-1.83,1.26.34-.23.75-.38,1.21-.38Z" style="fill: #e57680;"/>
            </g>
            <g>
              <path d="M41.5,198.13h-22.28c-1.09,0-1.97-.88-1.97-1.96v-.04c0-1.09.88-1.97,1.97-1.97h22.28c1.09,0,1.97.88,1.97,1.97v.04c0,1.08-.88,1.96-1.97,1.96Z" style="fill: url(#uuid-a97bedc9-ee18-4d14-afdc-7aecf63b3417);"/>
              <path d="M41.76,197.12h-22.52c-.94,0-1.73-.61-1.93-1.44-.03.14-.05.29-.05.44v.03c0,1.09.88,1.97,1.97,1.97h22.28c1.08,0,1.95-.86,1.97-1.93-.35.55-.98.92-1.71.92Z" style="fill: #a71f24;"/>
              <path d="M18.6,195.03h23.52c.46,0,.87.14,1.21.38-.28-.73-.99-1.25-1.82-1.25h-22.28c-.83,0-1.54.52-1.83,1.25.34-.24.75-.38,1.21-.38Z" style="fill: #e57680;"/>
            </g>
          </g>
          <g>
            <g>
              <path d="M83.56,160.47h-22.29c-1.08,0-1.97-.88-1.97-1.97v-.04c0-1.09.88-1.97,1.97-1.97h22.29c1.08,0,1.97.88,1.97,1.97v.04c0,1.09-.88,1.97-1.97,1.97Z" style="fill: url(#uuid-65b2bc12-82ec-4c4b-af3e-476615897d20);"/>
              <path d="M83.82,159.45h-22.52c-.94,0-1.73-.61-1.93-1.44-.03.14-.06.29-.06.45v.04c0,1.09.88,1.97,1.97,1.97h22.29c1.07,0,1.94-.86,1.96-1.94-.35.55-.98.93-1.71.93Z" style="fill: #a71f24;"/>
              <path d="M60.66,157.37h23.52c.45,0,.87.14,1.21.37-.29-.73-1-1.25-1.82-1.25h-22.29c-.83,0-1.54.52-1.83,1.25.34-.23.76-.37,1.22-.37Z" style="fill: #e57680;"/>
            </g>
            <g>
              <path d="M61.28,169.05h22.29c1.09,0,1.97.88,1.97,1.97v.04c0,1.08-.88,1.97-1.97,1.97h-22.29c-1.08,0-1.97-.88-1.97-1.97v-.05c0-1.08.88-1.97,1.97-1.97Z" style="fill: url(#uuid-7aa34a96-bbdd-4c2d-b0ec-a9a928f2ba9a);"/>
              <path d="M83.82,172.01h-22.52c-.94,0-1.73-.61-1.93-1.43-.03.14-.06.28-.06.44v.04c0,1.08.88,1.97,1.97,1.97h22.29c1.07,0,1.94-.87,1.96-1.94-.35.55-.98.92-1.71.92Z" style="fill: #a71f24;"/>
              <path d="M60.66,169.93h23.52c.45,0,.87.14,1.21.37-.29-.73-1-1.25-1.82-1.25h-22.29c-.83,0-1.54.52-1.83,1.25.34-.23.76-.37,1.22-.37Z" style="fill: #e57680;"/>
            </g>
            <g>
              <path d="M61.28,181.6h22.29c1.08,0,1.97.88,1.97,1.97v.04c0,1.09-.88,1.97-1.97,1.97h-22.29c-1.08,0-1.97-.88-1.97-1.97v-.04c0-1.08.88-1.97,1.97-1.97Z" style="fill: url(#uuid-1d1cee46-cdfc-4411-9176-00ecd4a62840);"/>
              <path d="M83.82,184.57h-22.52c-.94,0-1.73-.61-1.93-1.44-.03.14-.06.29-.06.44v.04c0,1.09.88,1.97,1.97,1.97h22.29c1.07,0,1.94-.86,1.96-1.93-.35.55-.98.92-1.71.92Z" style="fill: #a71f24;"/>
              <path d="M60.66,182.48h23.52c.45,0,.87.14,1.21.38-.29-.73-1-1.26-1.82-1.26h-22.29c-.83,0-1.54.53-1.83,1.26.34-.23.76-.38,1.22-.38Z" style="fill: #e57680;"/>
            </g>
            <g>
              <path d="M83.56,198.13h-22.29c-1.08,0-1.97-.88-1.97-1.96v-.04c0-1.09.88-1.97,1.97-1.97h22.29c1.08,0,1.97.88,1.97,1.97v.04c0,1.08-.88,1.96-1.97,1.96Z" style="fill: url(#uuid-0697e2c2-edbb-4059-ae8c-115debd40bf5);"/>
              <path d="M83.82,197.12h-22.52c-.94,0-1.73-.61-1.93-1.44-.03.14-.06.29-.06.44v.03c0,1.09.88,1.97,1.97,1.97h22.29c1.07,0,1.94-.86,1.96-1.93-.35.55-.98.92-1.71.92Z" style="fill: #a71f24;"/>
              <path d="M60.66,195.03h23.52c.45,0,.87.14,1.21.38-.29-.73-1-1.25-1.82-1.25h-22.29c-.83,0-1.54.52-1.83,1.25.34-.24.76-.38,1.22-.38Z" style="fill: #e57680;"/>
            </g>
          </g>
          <g>
            <g>
              <path d="M125.62,160.47h-22.28c-1.09,0-1.96-.88-1.96-1.97v-.04c0-1.09.88-1.97,1.96-1.97h22.28c1.09,0,1.97.88,1.97,1.97v.04c0,1.09-.88,1.97-1.97,1.97Z" style="fill: url(#uuid-1bf1b4b2-7234-4943-b2fc-2359226ac7a1);"/>
              <path d="M125.87,159.45h-22.51c-.94,0-1.73-.61-1.94-1.44-.03.14-.05.29-.05.45v.04c0,1.09.88,1.97,1.96,1.97h22.28c1.08,0,1.95-.86,1.97-1.94-.35.55-.98.93-1.71.93Z" style="fill: #a71f24;"/>
              <path d="M102.72,157.37h23.52c.45,0,.87.14,1.21.37-.28-.73-1-1.25-1.83-1.25h-22.28c-.83,0-1.54.52-1.82,1.25.34-.23.75-.37,1.21-.37Z" style="fill: #e57680;"/>
            </g>
            <g>
              <path d="M103.34,169.05h22.28c1.09,0,1.97.88,1.97,1.97v.04c0,1.08-.88,1.97-1.97,1.97h-22.28c-1.08,0-1.97-.88-1.97-1.97v-.05c0-1.08.88-1.97,1.97-1.97Z" style="fill: url(#uuid-84138f39-e9c7-4331-88bb-33d24ad71eb3);"/>
              <path d="M125.87,172.01h-22.51c-.94,0-1.73-.61-1.94-1.43-.03.14-.05.28-.05.44v.04c0,1.08.88,1.97,1.96,1.97h22.28c1.08,0,1.95-.87,1.97-1.94-.35.55-.98.92-1.71.92Z" style="fill: #a71f24;"/>
              <path d="M102.72,169.93h23.52c.45,0,.87.14,1.21.37-.28-.73-1-1.25-1.83-1.25h-22.28c-.83,0-1.54.52-1.82,1.25.34-.23.75-.37,1.21-.37Z" style="fill: #e57680;"/>
            </g>
            <g>
              <path d="M103.34,181.6h22.28c1.08,0,1.97.88,1.97,1.97v.04c0,1.09-.88,1.97-1.97,1.97h-22.28c-1.08,0-1.97-.88-1.97-1.97v-.04c0-1.08.88-1.97,1.97-1.97Z" style="fill: url(#uuid-42020656-cee1-4e76-9dda-dfbf5cceeeda);"/>
              <path d="M125.87,184.57h-22.51c-.94,0-1.73-.61-1.94-1.44-.03.14-.05.29-.05.44v.04c0,1.09.88,1.97,1.96,1.97h22.28c1.08,0,1.95-.86,1.97-1.93-.35.55-.98.92-1.71.92Z" style="fill: #a71f24;"/>
              <path d="M102.72,182.48h23.52c.45,0,.87.14,1.21.38-.28-.73-1-1.26-1.83-1.26h-22.28c-.83,0-1.54.53-1.82,1.26.34-.23.75-.38,1.21-.38Z" style="fill: #e57680;"/>
            </g>
            <g>
              <path d="M125.62,198.13h-22.28c-1.09,0-1.96-.88-1.96-1.96v-.04c0-1.09.88-1.97,1.96-1.97h22.28c1.09,0,1.97.88,1.97,1.97v.04c0,1.08-.88,1.96-1.97,1.96Z" style="fill: url(#uuid-961203a3-a11b-40ce-a5e9-067698a829a3);"/>
              <path d="M125.87,197.12h-22.51c-.94,0-1.73-.61-1.94-1.44-.03.14-.05.29-.05.44v.03c0,1.09.88,1.97,1.96,1.97h22.28c1.08,0,1.95-.86,1.97-1.93-.35.55-.98.92-1.71.92Z" style="fill: #a71f24;"/>
              <path d="M102.72,195.03h23.52c.45,0,.87.14,1.21.38-.28-.73-1-1.25-1.83-1.25h-22.28c-.83,0-1.54.52-1.82,1.25.34-.24.75-.38,1.21-.38Z" style="fill: #e57680;"/>
            </g>
          </g>
          <g>
            <g>
              <path d="M167.68,160.47h-22.28c-1.08,0-1.97-.88-1.97-1.97v-.04c0-1.09.88-1.97,1.97-1.97h22.28c1.09,0,1.97.88,1.97,1.97v.04c0,1.09-.88,1.97-1.97,1.97Z" style="fill: url(#uuid-d27eabaf-b18f-4aa4-a5aa-c986d65ef057);"/>
              <path d="M167.93,159.45h-22.52c-.94,0-1.73-.61-1.93-1.44-.03.14-.05.29-.05.45v.04c0,1.09.88,1.97,1.97,1.97h22.28c1.07,0,1.94-.86,1.96-1.94-.34.55-.98.93-1.71.93Z" style="fill: #a71f24;"/>
              <path d="M144.78,157.37h23.52c.46,0,.87.14,1.21.37-.28-.73-.99-1.25-1.82-1.25h-22.28c-.83,0-1.55.52-1.83,1.25.35-.23.76-.37,1.21-.37Z" style="fill: #e57680;"/>
            </g>
            <g>
              <path d="M145.39,169.05h22.28c1.09,0,1.97.88,1.97,1.97v.04c0,1.08-.88,1.97-1.97,1.97h-22.29c-1.08,0-1.97-.88-1.97-1.97v-.05c0-1.08.88-1.97,1.97-1.97Z" style="fill: url(#uuid-9cb68dca-5ba5-458f-b950-903c30f8b909);"/>
              <path d="M167.93,172.01h-22.52c-.94,0-1.73-.61-1.93-1.43-.03.14-.05.28-.05.44v.04c0,1.08.88,1.97,1.97,1.97h22.28c1.07,0,1.94-.87,1.96-1.94-.34.55-.98.92-1.71.92Z" style="fill: #a71f24;"/>
              <path d="M144.78,169.93h23.52c.46,0,.87.14,1.21.37-.28-.73-.99-1.25-1.82-1.25h-22.28c-.83,0-1.55.52-1.83,1.25.35-.23.76-.37,1.21-.37Z" style="fill: #e57680;"/>
            </g>
            <g>
              <path d="M145.39,181.6h22.29c1.08,0,1.97.88,1.97,1.97v.04c0,1.09-.88,1.97-1.97,1.97h-22.28c-1.08,0-1.97-.88-1.97-1.97v-.04c0-1.08.88-1.97,1.97-1.97Z" style="fill: url(#uuid-db31aba3-6dc5-4c2f-ab54-45c21c2eb9ef);"/>
              <path d="M167.93,184.57h-22.52c-.94,0-1.73-.61-1.93-1.44-.03.14-.05.29-.05.44v.04c0,1.09.88,1.97,1.97,1.97h22.28c1.07,0,1.94-.86,1.96-1.93-.34.55-.98.92-1.71.92Z" style="fill: #a71f24;"/>
              <path d="M144.78,182.48h23.52c.46,0,.87.14,1.21.38-.28-.73-.99-1.26-1.82-1.26h-22.28c-.83,0-1.55.53-1.83,1.26.35-.23.76-.38,1.21-.38Z" style="fill: #e57680;"/>
            </g>
            <g>
              <path d="M167.68,198.13h-22.28c-1.08,0-1.97-.88-1.97-1.96v-.04c0-1.09.88-1.97,1.97-1.97h22.28c1.09,0,1.97.88,1.97,1.97v.04c0,1.08-.88,1.96-1.97,1.96Z" style="fill: url(#uuid-f7f50f88-9d52-4a80-9357-54c54acc032c);"/>
              <path d="M167.93,197.12h-22.52c-.94,0-1.73-.61-1.93-1.44-.03.14-.05.29-.05.44v.03c0,1.09.88,1.97,1.97,1.97h22.28c1.07,0,1.94-.86,1.96-1.93-.34.55-.98.92-1.71.92Z" style="fill: #a71f24;"/>
              <path d="M144.78,195.03h23.52c.46,0,.87.14,1.21.38-.28-.73-.99-1.25-1.82-1.25h-22.28c-.83,0-1.55.52-1.83,1.25.35-.24.76-.38,1.21-.38Z" style="fill: #e57680;"/>
            </g>
          </g>
          <g>
            <g>
              <path d="M209.74,160.47h-22.28c-1.09,0-1.97-.88-1.97-1.97v-.04c0-1.09.88-1.97,1.97-1.97h22.28c1.09,0,1.96.88,1.96,1.97v.04c0,1.09-.88,1.97-1.96,1.97Z" style="fill: url(#uuid-37580f27-303b-41f7-a489-0c359a81e890);"/>
              <path d="M209.99,159.45h-22.51c-.95,0-1.73-.61-1.93-1.44-.03.14-.05.29-.05.45v.04c0,1.09.88,1.97,1.97,1.97h22.28c1.07,0,1.95-.86,1.96-1.94-.34.55-.98.93-1.71.93Z" style="fill: #a71f24;"/>
              <path d="M186.84,157.37h23.52c.45,0,.87.14,1.21.37-.28-.73-.99-1.25-1.82-1.25h-22.28c-.83,0-1.54.52-1.82,1.25.34-.23.76-.37,1.21-.37Z" style="fill: #e57680;"/>
            </g>
            <g>
              <path d="M209.74,173.02h-22.28c-1.09,0-1.97-.88-1.97-1.97v-.04c0-1.08.88-1.97,1.97-1.97h22.28c1.09,0,1.96.88,1.96,1.97v.04c0,1.08-.88,1.97-1.96,1.97Z" style="fill: url(#uuid-09e57ae2-a44e-4e61-89a5-7535214a62b9);"/>
              <path d="M209.99,172.01h-22.51c-.95,0-1.73-.61-1.93-1.43-.03.14-.05.28-.05.44v.04c0,1.08.88,1.97,1.97,1.97h22.28c1.07,0,1.95-.87,1.96-1.94-.34.55-.98.92-1.71.92Z" style="fill: #a71f24;"/>
              <path d="M186.84,169.93h23.52c.45,0,.87.14,1.21.37-.28-.73-.99-1.25-1.82-1.25h-22.28c-.83,0-1.54.52-1.82,1.25.34-.23.76-.37,1.21-.37Z" style="fill: #e57680;"/>
            </g>
            <g>
              <path d="M209.74,185.57h-22.28c-1.09,0-1.97-.88-1.97-1.97v-.04c0-1.08.88-1.97,1.97-1.97h22.28c1.09,0,1.96.89,1.96,1.97v.04c0,1.09-.88,1.97-1.96,1.97Z" style="fill: url(#uuid-e0f53aeb-51d6-4ab6-bee3-a66c18e20d4b);"/>
              <path d="M209.99,184.57h-22.51c-.95,0-1.73-.61-1.93-1.44-.03.14-.05.29-.05.44v.04c0,1.09.88,1.97,1.97,1.97h22.28c1.07,0,1.95-.86,1.96-1.93-.34.55-.98.92-1.71.92Z" style="fill: #a71f24;"/>
              <path d="M186.84,182.48h23.52c.45,0,.87.14,1.21.38-.28-.73-.99-1.26-1.82-1.26h-22.28c-.83,0-1.54.53-1.82,1.26.34-.23.76-.38,1.21-.38Z" style="fill: #e57680;"/>
            </g>
            <g>
              <path d="M209.74,198.13h-22.28c-1.09,0-1.97-.88-1.97-1.96v-.04c0-1.09.88-1.97,1.97-1.97h22.28c1.09,0,1.96.88,1.96,1.97v.04c0,1.08-.88,1.96-1.96,1.96Z" style="fill: url(#uuid-81f9fa63-7aee-4610-b968-9fea57035927);"/>
              <path d="M209.99,197.12h-22.51c-.95,0-1.73-.61-1.93-1.44-.03.14-.05.29-.05.44v.03c0,1.09.88,1.97,1.97,1.97h22.28c1.07,0,1.95-.86,1.96-1.93-.34.55-.98.92-1.71.92Z" style="fill: #a71f24;"/>
              <path d="M186.84,195.03h23.52c.45,0,.87.14,1.21.38-.28-.73-.99-1.25-1.82-1.25h-22.28c-.83,0-1.54.52-1.82,1.25.34-.24.76-.38,1.21-.38Z" style="fill: #e57680;"/>
            </g>
          </g>
        </g>
      </g>
    </g>
  </g>
</svg>