<?xml version="1.0" encoding="UTF-8"?>
<svg xmlns="http://www.w3.org/2000/svg" xmlns:xlink="http://www.w3.org/1999/xlink" viewBox="0 0 226.77 226.77">
  <defs>
    <linearGradient id="uuid-96af1c18-c630-4dbb-a7db-1e69466a745b" x1="92.39" y1="149.4" x2="92.39" y2="207.21" gradientUnits="userSpaceOnUse">
      <stop offset="0" stop-color="#bf453e"/>
      <stop offset=".9" stop-color="#d47f88"/>
    </linearGradient>
    <linearGradient id="uuid-23437478-c50e-4123-a9a2-668c1c2501ab" x1="49.73" x2="49.73" xlink:href="#uuid-96af1c18-c630-4dbb-a7db-1e69466a745b"/>
    <linearGradient id="uuid-d1cb0e6b-880c-4f9a-8ecd-bc50f268974b" x1="50.56" y1="287.4" x2="50.56" y2="345.2" gradientTransform="translate(127.17 495) scale(1 -1)" gradientUnits="userSpaceOnUse">
      <stop offset=".1" stop-color="#d47f88"/>
      <stop offset=".99" stop-color="#bf453e"/>
    </linearGradient>
    <linearGradient id="uuid-7fdf93e2-f4bf-44e9-a468-860f7bc5cfa7" x1="7.89" x2="7.89" xlink:href="#uuid-d1cb0e6b-880c-4f9a-8ecd-bc50f268974b"/>
    <linearGradient id="uuid-cf7956b3-8656-4e39-92db-c02bcd7eb52d" x1="29.96" y1="156.48" x2="29.96" y2="160.45" gradientUnits="userSpaceOnUse">
      <stop offset=".1" stop-color="#d15965"/>
      <stop offset=".99" stop-color="#bd2820"/>
    </linearGradient>
    <linearGradient id="uuid-8a153a11-1fc5-4419-9130-e221c40d3103" y1="169.04" y2="173.01" xlink:href="#uuid-cf7956b3-8656-4e39-92db-c02bcd7eb52d"/>
    <linearGradient id="uuid-975da8be-5fe4-4a1f-b924-fa4a841f984d" y1="181.59" y2="185.56" xlink:href="#uuid-cf7956b3-8656-4e39-92db-c02bcd7eb52d"/>
    <linearGradient id="uuid-ada20265-7d57-4081-8a99-21130f22ed70" y1="194.15" y2="198.11" xlink:href="#uuid-cf7956b3-8656-4e39-92db-c02bcd7eb52d"/>
    <linearGradient id="uuid-763a3424-becd-4f2c-a997-846332574d1e" x1="72.01" x2="72.01" xlink:href="#uuid-cf7956b3-8656-4e39-92db-c02bcd7eb52d"/>
    <linearGradient id="uuid-ec0c8826-8d4b-4cb8-8f33-c86595255fe8" x1="72.01" y1="169.04" x2="72.01" y2="173.01" xlink:href="#uuid-cf7956b3-8656-4e39-92db-c02bcd7eb52d"/>
    <linearGradient id="uuid-d41e509f-5233-4551-93e0-4dd108b37073" x1="72.01" y1="181.59" x2="72.01" y2="185.56" xlink:href="#uuid-cf7956b3-8656-4e39-92db-c02bcd7eb52d"/>
    <linearGradient id="uuid-5c3b023a-960c-458b-bf0d-e9edfd684132" x1="72.01" y1="194.15" x2="72.01" y2="198.11" xlink:href="#uuid-cf7956b3-8656-4e39-92db-c02bcd7eb52d"/>
    <linearGradient id="uuid-2b78b3b8-e788-4e23-b26c-90ad6119c57a" x1="114.07" x2="114.07" xlink:href="#uuid-cf7956b3-8656-4e39-92db-c02bcd7eb52d"/>
    <linearGradient id="uuid-cf708324-044b-4cab-aa5f-f4e9c684a891" x1="114.07" y1="169.04" x2="114.07" y2="173.01" xlink:href="#uuid-cf7956b3-8656-4e39-92db-c02bcd7eb52d"/>
    <linearGradient id="uuid-6536fb29-27ae-417c-a77d-59af9a7dbe4f" x1="114.07" y1="181.59" x2="114.07" y2="185.56" xlink:href="#uuid-cf7956b3-8656-4e39-92db-c02bcd7eb52d"/>
    <linearGradient id="uuid-39842154-db7e-4453-8a65-779f40bc3031" x1="114.07" y1="194.15" x2="114.07" y2="198.11" xlink:href="#uuid-cf7956b3-8656-4e39-92db-c02bcd7eb52d"/>
    <linearGradient id="uuid-53fb3768-45b0-4d4d-88eb-276670bfa241" x1="156.13" x2="156.13" xlink:href="#uuid-cf7956b3-8656-4e39-92db-c02bcd7eb52d"/>
    <linearGradient id="uuid-ddaac0da-9e7a-42d5-b9ba-f8def5b7d9e9" x1="156.13" y1="169.04" x2="156.13" y2="173.01" xlink:href="#uuid-cf7956b3-8656-4e39-92db-c02bcd7eb52d"/>
    <linearGradient id="uuid-3fd8baf1-d380-4989-9cf5-b85b2c0ed26e" x1="156.13" y1="181.59" x2="156.13" y2="185.56" xlink:href="#uuid-cf7956b3-8656-4e39-92db-c02bcd7eb52d"/>
    <linearGradient id="uuid-1e8c93b8-2342-4efd-a881-637774a78526" x1="156.13" y1="194.15" x2="156.13" y2="198.11" xlink:href="#uuid-cf7956b3-8656-4e39-92db-c02bcd7eb52d"/>
    <linearGradient id="uuid-de7bd0f4-35c2-4a17-9faa-eaa18293357a" x1="198.19" x2="198.19" xlink:href="#uuid-cf7956b3-8656-4e39-92db-c02bcd7eb52d"/>
    <linearGradient id="uuid-790bcd6c-f0f1-4de0-81b2-1b97881a4cca" x1="198.19" y1="169.04" x2="198.19" y2="173.01" xlink:href="#uuid-cf7956b3-8656-4e39-92db-c02bcd7eb52d"/>
    <linearGradient id="uuid-d43f4a6d-352f-413f-87af-352aab476b6f" x1="198.19" y1="181.59" x2="198.19" y2="185.56" xlink:href="#uuid-cf7956b3-8656-4e39-92db-c02bcd7eb52d"/>
    <linearGradient id="uuid-ec242e5a-528e-476c-8541-c4c59b8cda23" x1="198.19" y1="194.15" x2="198.19" y2="198.11" xlink:href="#uuid-cf7956b3-8656-4e39-92db-c02bcd7eb52d"/>
  </defs>
  <g style="isolation: isolate;">
    <g id="uuid-5a0d01a5-15ad-409e-bc11-c9cfe57a8831" data-name="圖層 1">
      <g>
        <path d="M208.73,207.45h.2c-.07,0-.14,0-.2,0h0Z" style="fill: #e5e5e5;"/>
        <g>
          <g>
            <path d="M95.35,154.3c-3.79-.37-8.59,2.87-12.18,4.09-4.37,1.49-8.02,1.89-12.72,1.66-6.23-.29-12.35.91-18.46-.55-8.81-2.1-17.29.18-26.19-.76-1.89-.2-5.77-2.7-8.77-4.15-1.91-.92-3.46-1.43-3.93-.67-5.05-4.43,7.23-11.81,9.27-14.81,2.78.36,6.13-1.64,6.57-4.38,5.1-.52,4.64-1.65,6.49-5.33,1.16-2.31,3.71-6.07,6.49-6.65.14-.4,0-.76.14-1.16,3.63-.76,4.48-3.14,8.72-3.56.78-.08,1.56-.18,2.33-.28,2.27-.28,4.51-.55,6.73-.07,2.24.47,5.38,1.95,7,3.92,2.99,3.6,1.88,3.84,6.16,5.7,6.04,2.64,8.94,8.08,12.89,12.95,3.14,3.88,13.06,8,9.46,14.04Z" style="fill: #152a32;"/>
            <path d="M72.93,138.62c-.56,2.2-.84,4.07-1.74,6.17-1.08,2.54,1.25,4.76-1.82,6.68-1.86,1.16-2.51.62-3.95-.43-1.62-1.2-2.67.04-4.38.77-1.11.48-2.26.87-3.49.76-.53-.05-1.05-.32-1.59-.34-.92-.03-1.72.33-2.63.43-1.18.13-2.63-.82-3.64-.56-1.67.42-2.04,2.88-3.88,3.36-.98.26-1.72-.04-2.66-.1-1.9-.12-3.71.81-5.65.57-1.48-.18-2.89-.89-4.38-.37-.51.18-1.18.92-1.71.92-.75.02-.34-.15-.89-.57-1.07-.82-1.16-.94-2.61-1.02-1.45-.08-2.84-.65-4.28-.9-2.39-.44-4.44.12-6.58.59-1.91-.92-3.46-1.43-3.93-.67-5.05-4.43,7.23-11.81,9.27-14.81,2.78.36,6.13-1.64,6.57-4.38,5.1-.52,4.64-1.65,6.49-5.33,1.16-2.31,3.71-6.07,6.49-6.65.14-.4,0-.76.14-1.16,3.63-.76,4.48-3.14,8.72-3.56.78-.08,1.56-.18,2.33-.28.29.04.58.1.85.19.99.32,2.64.66,3.51,1.19.98.61.68,1.52,1.31,2.33.85,1.09,2.49,1.03,3.55,2.01.59.54,1.29,1.32,1.72,2,.28.44.24.86.46,1.36.52,1.2,1.88,2.33,2.6,3.53.66,1.09.62,1.01,1.81,1.26,1.21.26,1.18.17,1.81,1.39.3.61.59,1.31,1.02,1.84.4.49,1.17.82,1.44,1.41.35.77-.07,1.6-.26,2.35Z" style="fill: #1d3842;"/>
            <path d="M21.61,149.79c.47-.04,1.38-.08,1.76-.41.34-.29.2-.73.44-1.05.24-.34.55-.45.86-.76.79-.76,1.57-1.59,2.4-2.26,1.23-.98,2.24-1.25,3.78-1.17.3.02,1.18-.16,1.41,0,.6.4.09.91.37,1.38.13.21,1.02.82,1.26.96.57.33.77.54,1.5.49.13.72-.59,1.95-.07,2.53.55.62,1.6,0,2.19-.3.85-.43,1.35-1.17,2.3-1.42,1.9-.51,2.86.99,3.77,2.35,1.1-1.1,2.42.72,3.52.1.77-.43.51-2.2.95-2.95,1.22-2.06,2.28.08,3.95.03.4,0,.94-.39,1.3-.33.31.05.45.33.7.39.19.05.36.33.61.38.4.09.74-.25,1.14-.22.83.06,1.53.93,2.37.78,1.29-.23,2.72-3.07,2.55-4.3-.23-1.74-1.8-3.27-1.3-5.22.11-.42.59-1.45,1.06-1.65.46-.2.83.3,1.37.08.66-.26,1.07-1.1.97-1.82-.18-1.26-.86-.56-1.51-1.31-.65-.75-.61-2.75-.14-3.61-1.11.51-2.31-.01-3.49-.14-2.23-.22-1.81,1.77-1.98,3.54-.19,1.99-.6,1.26-1.96,1.25-.81,0-1.15.6-1.55-.22-.3-.59.57-2.11.94-2.6.55-.75,3.65-4.79.74-4.43-1.61.2-4.11,2.92-5.15,4.1-.35.41-.74,1.44-1.43,1.3-.34-.07-.36-.78-.68-.93-.3.82-.67,1.64-.95,2.45,1.08.86,3.2,2.49,3.38,3.96.27,2.05-2.9,4.1-4.42,2.48-.52-.55-.31-1-1.07-1.09-.58-.06-2.09.82-2.84.92-1.77.23-2.17.05-2.57-1.63-.26-1.09-1.18-3.6-.8-4.68.38-1.07.32-.26,1.08-.44,1.04-.24,1.81-.74,2.58-1.55,1.13-1.2,1.45-3.88,3.25-4.19.6-.1,1.04.13,1.63-.02.69-.18.98-.34,1.64-.44.67-.1.8-.18,1.4-.46.73-.34.55-.34,1.2-.39,1.54-.13,3.18-.17,4.51-1.44,2.59-2.48-3.13-1.97-3.04-3.55-3.03-.92-5.56,1.35-8.13,2.06-1.76.48-4.29,1.55-4.59,3.42-.11.72.17,1.35-.26,1.99-.41.61-1.24.88-1.73,1.46-1.78,2.1-1.13,6.2-4.32,7.11-.47.13-.9-.13-1.32.05-.55.24-.97,1.1-1.36,1.55-.37.42-1.48,1.71-2.12,1.65-.5-.05-.71-.74-1.02-1.05-.33,2.25-2.72,1.48-4.12,1.43-1.26-.06-3.53,1.72-4.1,2.76-1.1,2,1.01,5.23,3.17,5.07Z" style="fill: #244551;"/>
            <path d="M19.78,144.73c-.11.45-.91,2.42-.39,2.79.3.21,1.01-.18,1.38-.06.33.11.8.62,1.02.88.42-1.27,1.9-1.91,2.67-2.9-.34-.6-1.51-1.01-2.05-1.49-.39.38-.53.88-1.04.99-.47.1-1.15-.07-1.54-.28-.06.05-.03,0-.05.06Z" style="fill: #2f596a;"/>
            <path d="M29.85,138.16c-.02.38-.1.8-.15,1.19-.06.5-.32.73.1,1.01.26.18.78.14,1.09.28.33.15.68.39.98.58-.07-.48.61-1.5,1.01-1.74.31-.18,1.2-.39,1.57-.45-.23-.71-.67-1.43-.88-2.17-.83.09-.98,1.56-1.91,1.47-.43-.04-1.77-.78-1.8-.16Z" style="fill: #2f596a;"/>
            <path d="M29.36,147.08c0,.38-.29,1.9.05,2.25.16.15.76.16.99.21.49.1,1.07.18,1.52.39-.11-.55,1.21-1.62,1.64-2.03-.26-.44-.74-.7-.98-1.2-.16-.36-.2-.88-.43-1.13-.14.39-.55.89-.94,1.04-.5.19-1.01-.13-1.52-.05-.06.16-.34.38-.34.54Z" style="fill: #2f596a;"/>
            <path d="M37.36,132.3c-.14.83-.31,1.69-.47,2.51.74.05,1.92.74,2.28,1.41.42-.55.94-1,1.36-1.51-.21-.27-.49-.66-.59-.99-.13-.36,0-.8-.18-1.14-.33.11-.72.34-.99.59-.45-.35-.73-1.03-1.42-.93.02.06-.04-.01,0,.05Z" style="fill: #2f596a;"/>
            <path d="M25.91,140.75c-.05.42-.09.85-.16,1.26-.04.25-.34.87-.26,1.08.08.22.69.58.86.78.25.29.45.6.67.92.46-.65,1.47-1.18,2.22-1.54-.28-.53-.12-1.16-.05-1.74.07-.67-.12-.78-.83-.61-.55.14-.7.39-1.26.18-.35-.13-.91-.4-1.2-.34Z" style="fill: #2f596a;"/>
            <path d="M48.14,132.19c-.28.31-.44.95-.6,1.36.69.08,1.52.56,2.07.98.2-.89,1.36-1.38,1.48-2.16-.45-.27-.81-.57-1.18-.88-.09.26-.17.66-.49.69-.1-.22-.44-.35-.67-.31-.34.04-.34.03-.6.32Z" style="fill: #2f596a;"/>
            <path d="M46.6,122.23c-.07.83-.55,1.63-.59,2.46.89-.36,1.69.29,2.55.22.02-.64.11-1.1.49-1.64.2-.29.5-.49.33-.86-.34-.03-.7-.06-1.03-.18-.45-.15-.43-.26-.61-.76-.35.26-1.1.31-1.14.76Z" style="fill: #2f596a;"/>
            <path d="M56.68,123.43c-.32.45-.77,1.33-.76,1.91.74.19,1.19,1.07,1.84,1.43.17-.63,1.2-1.5,1.86-1.59,0-.34-.33-.55-.41-.87-.07-.22-.01-.52-.02-.76-.43-.04-.65.45-1.08.44-.02.07-.05.13-.06.19-.46-.68-.83-1.51-1.37-.75Z" style="fill: #2f596a;"/>
            <path d="M57,129.84c-.42.95-1.32,1.92-1.57,2.92.47.27.55,1.03.86,1.45.24.33.55.74.88.98.29-.6.99-.88,1.63-.7-.11-.79.12-1.55.11-2.34-.5-.15-1.19-.27-1.1-.94.06-.49.51-.52.18-.95-.17-.23-.91-.58-.98-.43Z" style="fill: #2f596a;"/>
            <path d="M46.33,137.89c-.12.63-1.13,1.71-.93,2.3.14.38,1.11,1.05,1.42,1.26.3-.72,1.75-1.05,1.8-1.68.02-.21-.43-.89-.5-1.16-.07-.29-.11-.58-.1-.88-.42-.07-1,.35-1.37.52-.01-.22-.16-.22-.33-.36Z" style="fill: #2f596a;"/>
            <path d="M43.08,135.44c-.11.62-1.14,1.71-.93,2.3.14.38,1.11,1.05,1.43,1.25.29-.72,1.74-1.05,1.79-1.68.03-.2-.43-.89-.49-1.15-.07-.29-.11-.59-.1-.88-.42-.08-1,.35-1.36.52-.02-.22-.16-.23-.33-.36Z" style="fill: #2f596a;"/>
            <path d="M36.42,139.99c-.12.63-1.14,1.71-.93,2.3.13.38,1.11,1.05,1.42,1.26.3-.72,1.75-1.05,1.81-1.68.01-.21-.44-.89-.5-1.15-.07-.29-.11-.58-.09-.87-.42-.08-1,.34-1.37.51-.01-.22-.16-.23-.32-.36Z" style="fill: #2f596a;"/>
            <path d="M55.36,139.75c-.29.52-.73,1.54-.92,2.23.67.21,1.74,1.01,2.04,1.65.16-.45.21-1.05.49-1.47.16-.25.42-.37.53-.66-.36-.14-.76-.44-.98-.77.73-.84-.54-1.03-1.15-.99Z" style="fill: #2f596a;"/>
            <path d="M38.91,129.88c.43-.13.87-.25,1.26-.13.02-.5.18-.95.7-.94.78-1.54-.95-2.21-2-1.41-1.5,1.14-.65,1.42.03,2.49Z" style="fill: #2f596a;"/>
            <path d="M31.9,133.98c-.05.37,0,.79.02,1.15.79-.19,1.7-.45,2.32.24.22-.57.68-1.35.85-1.82.45-1.2.1-1.08-.85-1.32-1.09-.28-.9-.12-1.49.49-.47.5-.76.5-.85,1.26Z" style="fill: #2f596a;"/>
            <path d="M42.87,124.51c-.51.61-1.1,1.3-1.42,2.03.58.19.7.82,1.19,1.07.18-.79.68-.96,1.45-.94.04-.65-.57-1.11-.49-1.85-.18.16-.23.04-.43.11-.05-.25-.07-.36-.3-.42Z" style="fill: #2f596a;"/>
            <path d="M25.88,138.68c.6-.24.9.76,1.51.71.23-.91,1.23-1.28,1.59-2.07-.46-.34-1.03-1.4-1.65-1.19-.26.09-.55.68-.79.87-.33.26-.77.34-1,.65.26.25.18.77.35,1.03Z" style="fill: #2f596a;"/>
            <path d="M42.29,121.4c0,.45-.02,1.33,0,1.94.52.01,1.27-.04,1.71.22.12-.73.6-1.35.8-2.01-.24,0-.59.04-.78-.1-.26-.18-.02-.52-.29-.63-.21-.1-1.31.44-1.45.58Z" style="fill: #2f596a;"/>
            <path d="M43.3,127.83c.03.36-.37,1.57-.15,1.97.11.2.68.5.87.7.24.27.44.54.65.84.1-.83,1.39-.55,1.58-1.27.12-.42-.3-.79-.21-1.23.07-.4.41-.59.5-.93-.53-.02-1.81.12-2.09.58-.25-.22-1.22-1.64-1.16-.66Z" style="fill: #2f596a;"/>
            <path d="M52.63,118.65c-.21.43-.9.98-1,1.39-.12.44.02.42.41.76.51.43,1.38.93,1.67,1.51.68-.84,1.59-.86,1.43-2.2-.33-.05-.97.22-1.2-.03-.12-.13-.05-1.06-.02-1.19-.37-.17-.92-.14-1.29-.24Z" style="fill: #2f596a;"/>
            <path d="M38.75,138.61c.09.43.15,1.2.3,1.72.44-.16,1.31-.3,1.71,0,.05-.57.24-2.3-.29-2.57-.52-.27-.36.18-.68.29-.37.13-.56.05-.95.06-.11.19-.13.29-.08.5Z" style="fill: #2f596a;"/>
            <path d="M31.16,142.95c.04.33.24,1.18.46,1.53.26.43,0,.24.48.42.3.11,1.01.13,1.29-.01.04-.63.47-2.71-.42-2.74-.65-.01-.38.59-.86.8-.34.15-1.05-.75-.94,0Z" style="fill: #2f596a;"/>
            <path d="M43.74,142.87c-.44.44-.79,1.85-.86,2.45.51-.06.8-.14,1.21.21.28.24.3.69.65.81.25-1.05.8-.87,1.48-1.43.36-.29.64-1.02.13-1.38-.39-.28-.47.07-.96.16-.83.13-.33-.11-.71-.44-.29-.26-1.02-1.16-.93-.36Z" style="fill: #2f596a;"/>
            <path d="M51.98,126.03c-.26.08-1.15,1.44-1.07,1.94.75.46,1.68.16,2.36.8.18-.54,1.61-1.63,1.12-2.33-.43-.6-1.04.05-1.4.03-.41-.04-.66-.43-1.15-.49-.04.1.12-.05.14.05Z" style="fill: #2f596a;"/>
            <path d="M20.74,142.15c.86.02,1.79.43,2.46.91.14-.84.94-1.26.94-2,0-1.31-.99-.46-1.67-.57-.24-.04-.3-.4-.65-.44-.14-.01-.6.14-.7.23-.41.36-.45,1.48-.38,1.86Z" style="fill: #2f596a;"/>
            <path d="M41.64,125.39c-.1.14-.15.33-.14.5.26.06.51.01.72-.14.07.05.15.1.2.14.18-.49.23-.95.59-1.37-.66-.12-1.09.46-1.57.79.21-.04.08.03.2.07Z" style="fill: #5e8292;"/>
            <path d="M37.62,127.72c-.38.39-1.15,1.54-.8,2.05.15.23,1.11.22,1.3.21.19-.79,1.66-1.92.89-2.7-.15.14-.53.47-.75.51-.37.06-.22-.48-.64-.06Z" style="fill: #5e8292;"/>
            <path d="M44.99,124.74c-.29-.07-.79.43-.86.81.32.14.5.43.44.79.23-.05.4-.19.65-.28.16-.06.8-.15.88-.22.36-.28.22-.89.51-1.25-.16-.27-.56-.55-.88-.51-.41.05-.32.76-.73.66Z" style="fill: #5e8292;"/>
            <path d="M28.94,135.68c-.18.22-.58.69-.66.97-.13.43-.02.29.07.7.07.32.28,1.13.57,1.24.25-.88,1.06-.86,1.83-.74.01-.84.15-1.58.07-2.38-.48,0-1.41.03-1.88.21Z" style="fill: #5e8292;"/>
            <path d="M40.47,134.37c-.32.04-.86.95-1.14,1.33,1.22-.04.53,1.5,1.07,2.11.54-.86,1.55-.91,2.1-1.49.44-.47.3-1.22.44-1.78-.93.99-2-1.22-2.47-.17Z" style="fill: #5e8292;"/>
            <path d="M49.96,129.7s-.36.82-.58,1.08c.63.06.74.88,1.24.97.63.11.83-1.04,1.59-.97.22-.77-.38-.53-.74-.78-.17-.12-.07-.38-.27-.52-.12-.08-.48.03-.57.06-.01-.04-.02-.08-.03-.12-.23-.07-.5.14-.65.28Z" style="fill: #5e8292;"/>
            <path d="M23.83,140.28c.05-.26.05.2.07.32.05.3,0,.8.2,1.05.22.26.56.33.97.23.51-.12.37-.06.53-.74.11-.49.16-1.04.77-.94.49-.88-1.53-1.05-2.09-1-.15.42-.41.65-.45,1.08Z" style="fill: #5e8292;"/>
            <path d="M34.92,136.99c-.55.53-.83,1.72-1.24,2.4,1.13-.09,1.61-.08,2.32.88.32-.94.61-1.84.88-2.75-.76-.17-.64.78-1.22.06-.14-.18.07-.45-.22-.61-.3-.16-.54-.31-.53.02Z" style="fill: #5e8292;"/>
            <path d="M55.58,117.65c-.05.7-.67,1.27-.65,1.96.74.08,1.07,1.03,1.88,1.1,0-1.04,1.61-1.8,1.09-2.61-.45-.69-1.41-.44-2-.73-.15.22-.29,0-.31.28Z" style="fill: #5e8292;"/>
            <path d="M50.91,117.72c-.24.36-.57.73-.65,1.16.61.08,1.24.32,1.82.51.12-.58.68-1.31.64-1.88-.5-.06-1.5-.25-1.82.21Z" style="fill: #5e8292;"/>
          </g>
          <path d="M37.68,147.58c-.04.53.15,1.05.22,1.57.05.36-.01,1.13.17,1.44.37.62,1.82-.07,2.4.32.01-.31-.02-.99.19-1.24.29-.35,1.13-.27,1.5-.57-.19-.48-.38-.97-.54-1.46-.21-.63-.25-.83-.88-.38-.55.4-.58.67-1.19.37-.43-.21-.77-.51-1.15-.77-.26.2-.68.37-.72.72Z" style="fill: #2f596a;"/>
        </g>
        <g>
          <g>
            <path d="M215.97,154.98c-3.79-.36-8.59,2.87-12.18,4.1-4.37,1.49-8.02,1.89-12.72,1.66-6.23-.3-12.36.91-18.46-.55-8.81-2.1-17.29.19-26.19-.76-1.89-.2-5.77-2.69-8.76-4.15-1.91-.93-3.46-1.43-3.93-.66-.18.28-1.22-2.33-1.2-2.7.05-1.31.91-2.55,1.68-3.55,1.65-2.13,3.9-2.91,5.78-4.69,1.53-1.45,2.4-3.44,4.16-4.65,1.32-.9,2.97-1.02,4.09-2.14,1.64-1.64,1.59-3.17,3.72-4.17,4.35-2.04,5.5-7.17,9.61-9.6,1.31-.78,3.3-.85,4.81-1.42,1.47-.54,2.6-1.26,4.19-1.34,3.39-.19,6.47.6,9.82.29,3.39-.32,6.79,1.9,9.73,3.5,2.17,1.18,3.97,2.62,5.77,4.24,1.74,1.56,4.47,2.76,5.66,4.77,1,1.69,1.28,3.88,2.36,5.56,1.96,3.01,6.12,5.23,8.83,7.54,1.32,1.13,2.75,2.4,3.49,4.02.23.5.99,4.84-.26,4.71Z" style="fill: #152a32;"/>
            <path d="M192.26,139.14c-.15,1.12-.34,2.24-.34,3.4,0,2.71.72,7.97-1.93,9.62-1.86,1.16-2.52.62-3.95-.43-1.63-1.2-2.68.04-4.39.77-1.11.48-2.27.87-3.5.76-.53-.05-1.05-.32-1.59-.34-.92-.03-1.71.32-2.62.43-1.19.13-2.63-.81-3.65-.56-1.66.42-2.04,2.88-3.88,3.37-.97.25-1.72-.05-2.66-.11-1.9-.12-3.71.82-5.64.58-1.49-.19-2.9-.9-4.38-.37-.51.18-1.18.91-1.72.92-.75.02-.33-.15-.88-.57-1.07-.81-1.16-.94-2.61-1.01-1.45-.08-2.84-.65-4.28-.9-2.39-.44-4.43.12-6.57.59-1.91-.93-3.46-1.43-3.93-.66-.16.27-1.21-2.23-1.2-2.57,0-1.26.78-2.42,1.49-3.41,1.53-2.18,3.67-3.77,5.67-5.49,2.27-1.96,3.97-4.19,6.74-5.52,1.14-.55,2.42-.8,3.47-1.53,1.27-.88,2.17-2.22,3.2-3.33,1.41-1.52,2.47-3.04,4.16-4.34,3.61-2.76,5.9-7.33,10.91-7.64,1.93-.11,3.95.1,5.86.29,1.98.2,4.09-.12,6.06.15,2.45.32,5.42,3.56,7.14,5.36,1.55,1.62,2.25,3.86,3.4,5.77.83,1.38,1.6,2.41,1.75,4.05.1.93.01,1.83-.09,2.73Z" style="fill: #1d3842;"/>
            <path d="M142.6,150.11c.47-.04,1.38-.08,1.76-.4.34-.29.2-.73.44-1.06.24-.34.55-.45.87-.76.79-.77,1.57-1.59,2.4-2.26,1.22-.98,2.24-1.24,3.77-1.17.3.01,1.18-.16,1.41,0,.6.4.09.91.37,1.39.12.21,1.01.81,1.26.96.58.33.78.53,1.5.49.13.72-.59,1.95-.07,2.53.56.62,1.6,0,2.19-.3.85-.43,1.35-1.17,2.31-1.43,1.9-.51,2.85.99,3.77,2.35,1.09-1.1,2.42.72,3.52.1.78-.44.51-2.2.95-2.95,1.22-2.06,2.28.08,3.95.03.4-.01.94-.39,1.3-.33.31.05.46.33.7.39.19.05.36.33.6.38.4.09.74-.25,1.14-.22.83.06,1.53.93,2.37.79,1.3-.24,2.72-3.08,2.55-4.3-.23-1.74-1.79-3.28-1.3-5.22.1-.42.59-1.45,1.05-1.65.47-.2.84.3,1.37.08.67-.27,1.08-1.11.98-1.82-.18-1.27-.86-.56-1.51-1.31-.66-.75-.61-2.75-.15-3.6-1.1.5-2.31-.02-3.49-.14-2.23-.22-1.82,1.77-1.98,3.54-.19,1.99-.6,1.26-1.97,1.24-.81,0-1.15.6-1.56-.22-.29-.59.57-2.11.94-2.61.55-.74,3.65-4.78.74-4.43-1.61.2-4.11,2.92-5.15,4.1-.35.4-.74,1.45-1.44,1.29-.34-.07-.36-.78-.67-.92-.3.81-.67,1.64-.95,2.45,1.08.86,3.2,2.49,3.38,3.96.26,2.05-2.91,4.1-4.43,2.48-.51-.55-.31-1-1.07-1.09-.58-.07-2.1.82-2.83.92-1.78.23-2.18.05-2.57-1.63-.26-1.1-1.18-3.61-.8-4.68.38-1.07.32-.26,1.08-.43,1.04-.24,1.81-.74,2.58-1.55,1.13-1.2,1.45-3.88,3.25-4.19.6-.1,1.04.13,1.63-.02.68-.18.97-.34,1.63-.45.67-.1.8-.18,1.4-.46.73-.34.55-.33,1.2-.39,1.55-.13,3.19-.17,4.51-1.44,2.59-2.47-3.13-1.97-3.04-3.54-3.03-.93-5.56,1.35-8.13,2.05-1.76.48-4.29,1.55-4.59,3.41-.12.72.17,1.35-.26,2-.4.61-1.24.88-1.73,1.45-1.79,2.1-1.13,6.21-4.32,7.11-.47.13-.91-.14-1.32.05-.56.24-.97,1.1-1.36,1.55-.37.42-1.49,1.71-2.12,1.65-.51-.05-.71-.75-1.03-1.05-.33,2.25-2.73,1.48-4.11,1.43-1.27-.05-3.53,1.72-4.11,2.77-1.1,2,1.01,5.23,3.17,5.06Z" style="fill: #244551;"/>
            <path d="M140.4,145.41c-.12.45-.91,2.42-.39,2.8.3.21,1.01-.18,1.37-.06.33.11.8.62,1.02.88.42-1.26,1.9-1.9,2.68-2.9-.34-.6-1.51-1.01-2.06-1.48-.39.38-.52.88-1.03.99-.47.1-1.15-.07-1.54-.28-.06.05-.03,0-.05.06Z" style="fill: #2f596a;"/>
            <path d="M150.48,138.84c-.02.39-.1.8-.15,1.19-.07.5-.32.74.1,1.01.27.18.78.14,1.09.28.33.15.68.39.97.59-.07-.49.61-1.5,1.01-1.74.31-.18,1.2-.39,1.57-.45-.23-.7-.67-1.43-.88-2.17-.83.09-.98,1.56-1.91,1.47-.43-.04-1.77-.79-1.8-.17Z" style="fill: #2f596a;"/>
            <path d="M149.98,147.77c0,.38-.3,1.9.06,2.24.15.16.76.16.98.21.5.1,1.07.18,1.52.39-.11-.55,1.22-1.62,1.65-2.04-.26-.44-.74-.7-.98-1.2-.16-.36-.2-.88-.43-1.13-.14.39-.54.89-.94,1.04-.51.19-1.02-.13-1.53-.05-.06.16-.34.38-.34.54Z" style="fill: #2f596a;"/>
            <path d="M158.23,134.59c-.47.7-.98,1.42-1.46,2.09.66.35,1.45,1.46,1.51,2.23.6-.34,1.27-.53,1.86-.82-.08-.33-.17-.81-.14-1.14.03-.38.33-.73.3-1.12-.34-.03-.8.02-1.14.14-.27-.51-.25-1.24-.91-1.43-.01.07-.04-.03-.02.04Z" style="fill: #2f596a;"/>
            <path d="M146.53,141.44c-.05.41-.09.84-.16,1.26-.05.25-.35.87-.27,1.09.08.22.69.57.87.78.25.29.45.6.67.92.46-.65,1.48-1.18,2.22-1.54-.28-.53-.11-1.15-.04-1.74.07-.67-.11-.78-.83-.6-.55.14-.69.38-1.26.18-.35-.13-.91-.39-1.2-.34Z" style="fill: #2f596a;"/>
            <path d="M168.76,132.88c-.28.31-.44.96-.59,1.36.69.07,1.51.56,2.07.98.2-.89,1.36-1.38,1.47-2.16-.45-.27-.81-.57-1.19-.88-.08.26-.16.66-.49.69-.1-.22-.44-.34-.67-.31-.34.05-.34.03-.6.32Z" style="fill: #2f596a;"/>
            <path d="M167.22,122.91c-.08.83-.55,1.63-.59,2.46.88-.36,1.69.28,2.55.22.02-.63.11-1.1.49-1.64.21-.29.51-.49.33-.86-.34-.04-.7-.06-1.03-.17-.45-.16-.44-.26-.61-.76-.36.26-1.1.31-1.14.76Z" style="fill: #2f596a;"/>
            <path d="M177.29,124.12c-.31.45-.76,1.32-.76,1.91.74.19,1.19,1.07,1.84,1.43.18-.64,1.22-1.49,1.87-1.59,0-.33-.34-.55-.42-.87-.06-.22-.01-.52-.02-.75-.43-.05-.65.45-1.08.44-.02.07-.05.13-.07.19-.45-.68-.83-1.51-1.37-.75Z" style="fill: #2f596a;"/>
            <path d="M177.62,130.53c-.42.95-1.32,1.92-1.56,2.92.47.26.55,1.03.86,1.45.24.33.54.74.88.98.29-.6.99-.88,1.63-.7-.11-.8.11-1.56.11-2.34-.49-.14-1.19-.27-1.1-.94.06-.49.51-.51.18-.94-.17-.22-.91-.58-.98-.42Z" style="fill: #2f596a;"/>
            <path d="M166.95,138.57c-.11.63-1.14,1.71-.93,2.3.14.38,1.11,1.05,1.42,1.26.3-.72,1.74-1.05,1.8-1.68.02-.2-.44-.89-.5-1.15-.07-.29-.11-.58-.1-.87-.41-.07-.99.35-1.36.51,0-.22-.16-.22-.33-.36Z" style="fill: #2f596a;"/>
            <path d="M165.97,136.71c-.12.63-1.14,1.71-.94,2.3.13.38,1.11,1.05,1.42,1.25.29-.72,1.74-1.05,1.8-1.68.01-.2-.44-.89-.5-1.15-.07-.29-.11-.59-.1-.88-.41-.07-.99.35-1.36.52,0-.22-.16-.22-.33-.36Z" style="fill: #2f596a;"/>
            <path d="M158.01,142.56c-.12.62-1.14,1.71-.93,2.3.13.38,1.1,1.05,1.42,1.25.3-.72,1.75-1.05,1.8-1.68.01-.2-.43-.89-.5-1.15-.07-.29-.11-.58-.1-.88-.41-.07-.99.35-1.36.52,0-.22-.16-.23-.32-.36Z" style="fill: #2f596a;"/>
            <path d="M175.98,140.43c-.3.52-.73,1.54-.92,2.23.67.21,1.74,1.01,2.03,1.65.16-.44.21-1.05.49-1.47.17-.24.41-.37.53-.66-.37-.14-.77-.44-.99-.77.73-.84-.55-1.03-1.15-.99Z" style="fill: #2f596a;"/>
            <path d="M159.54,130.57c.43-.12.86-.25,1.27-.13.02-.5.18-.95.7-.94.79-1.54-.95-2.21-1.99-1.42-1.51,1.14-.66,1.42.03,2.49Z" style="fill: #2f596a;"/>
            <path d="M152.52,134.66c-.05.37,0,.79.02,1.15.8-.18,1.69-.45,2.32.24.23-.58.68-1.35.85-1.82.45-1.2.1-1.08-.86-1.32-1.09-.28-.89-.12-1.48.5-.48.5-.76.5-.86,1.26Z" style="fill: #2f596a;"/>
            <path d="M163.49,125.19c-.51.62-1.11,1.3-1.43,2.03.58.19.7.82,1.19,1.07.18-.78.68-.96,1.45-.94.04-.65-.57-1.11-.49-1.85-.18.15-.23.04-.43.11-.06-.25-.07-.36-.3-.42Z" style="fill: #2f596a;"/>
            <path d="M146.61,139.85c.59-.24.89.75,1.51.71.24-.91,1.24-1.28,1.59-2.07-.47-.34-1.04-1.4-1.66-1.19-.26.08-.55.68-.79.87-.33.26-.78.33-1,.65.26.25.17.77.35,1.03Z" style="fill: #2f596a;"/>
            <path d="M162.91,123.74c0,.45-.02,1.33.01,1.94.52,0,1.26-.04,1.71.22.12-.73.6-1.35.8-2-.24,0-.59.04-.78-.1-.26-.18-.01-.52-.29-.64-.21-.09-1.32.45-1.45.58Z" style="fill: #2f596a;"/>
            <path d="M164.48,130.29c.02.36-.37,1.57-.15,1.97.11.2.68.5.87.7.24.27.44.54.65.84.1-.83,1.39-.55,1.59-1.27.11-.42-.3-.79-.22-1.23.07-.4.41-.59.5-.93-.53-.02-1.81.12-2.09.58-.26-.22-1.22-1.64-1.16-.66Z" style="fill: #2f596a;"/>
            <path d="M174.36,122.41c-.21.44-.89.98-1,1.39-.12.45.02.43.41.76.51.43,1.38.94,1.67,1.51.68-.84,1.59-.86,1.44-2.2-.33-.05-.97.22-1.2-.03-.13-.13-.05-1.07-.02-1.19-.37-.17-.91-.14-1.29-.24Z" style="fill: #2f596a;"/>
            <path d="M159.37,139.29c.09.44.15,1.19.3,1.73.44-.16,1.32-.3,1.71,0,.04-.56.24-2.3-.29-2.57-.52-.27-.36.18-.69.29-.36.12-.55.05-.94.07-.11.18-.13.28-.09.49Z" style="fill: #2f596a;"/>
            <path d="M151.78,143.63c.05.33.24,1.18.45,1.53.26.43,0,.24.49.43.3.11,1.01.12,1.29-.02.05-.63.46-2.71-.42-2.73-.65-.02-.38.58-.87.8-.34.15-1.05-.75-.94,0Z" style="fill: #2f596a;"/>
            <path d="M164.36,143.56c-.43.44-.79,1.85-.86,2.45.51-.06.79-.14,1.2.21.29.24.3.68.65.8.25-1.05.79-.87,1.47-1.43.35-.29.64-1.03.14-1.38-.39-.28-.48.07-.97.16-.82.13-.33-.11-.71-.44-.29-.26-1.02-1.16-.93-.36Z" style="fill: #2f596a;"/>
            <path d="M172.6,126.71c-.26.08-1.14,1.43-1.07,1.94.76.46,1.67.16,2.36.8.18-.55,1.6-1.64,1.12-2.33-.43-.6-1.04.05-1.4.03-.41-.03-.66-.43-1.14-.48-.05.1.11-.05.13.04Z" style="fill: #2f596a;"/>
            <path d="M141.37,142.84c.86.02,1.78.43,2.46.91.13-.84.94-1.26.93-1.99,0-1.31-.99-.46-1.67-.58-.24-.04-.3-.4-.65-.44-.14-.02-.6.14-.71.24-.41.37-.45,1.47-.38,1.86Z" style="fill: #2f596a;"/>
            <path d="M162.26,126.07c-.1.14-.15.33-.14.5.27.05.51,0,.72-.15.07.05.14.11.2.15.17-.5.22-.95.59-1.37-.67-.12-1.09.46-1.57.8.2-.05.08.02.19.07Z" style="fill: #5e8292;"/>
            <path d="M158.24,128.41c-.38.39-1.14,1.54-.8,2.05.15.23,1.11.22,1.3.21.19-.79,1.66-1.92.89-2.71-.15.14-.54.48-.74.51-.37.06-.23-.49-.65-.06Z" style="fill: #5e8292;"/>
            <path d="M165.62,125.43c-.3-.08-.8.43-.87.8.32.15.5.43.44.78.23-.05.4-.18.65-.27.16-.06.8-.15.88-.22.36-.28.22-.89.51-1.24-.16-.26-.55-.55-.88-.51-.41.05-.33.76-.73.66Z" style="fill: #5e8292;"/>
            <path d="M151.91,134.17c-.17.23-.57.69-.66.97-.13.43-.01.3.08.7.07.32.28,1.13.57,1.23.26-.88,1.06-.86,1.82-.73.02-.85.15-1.58.07-2.38-.49-.01-1.41.03-1.89.21Z" style="fill: #5e8292;"/>
            <path d="M161.4,131.2c-.32.04-.86.95-1.14,1.34,1.22-.04.53,1.5,1.07,2.1.54-.85,1.56-.9,2.11-1.49.44-.47.3-1.22.44-1.78-.92.99-1.99-1.22-2.47-.17Z" style="fill: #5e8292;"/>
            <path d="M170.58,130.38s-.36.82-.58,1.08c.63.06.75.88,1.23.97.63.11.84-1.03,1.6-.96.22-.78-.37-.53-.74-.79-.17-.11-.07-.37-.27-.52-.12-.08-.47.04-.57.07,0-.04-.02-.08-.02-.12-.24-.07-.5.14-.65.28Z" style="fill: #5e8292;"/>
            <path d="M144.45,140.96c.05-.26.05.2.07.33.05.29,0,.79.2,1.05.22.26.57.33.97.23.5-.12.36-.06.53-.74.11-.49.16-1.04.77-.94.49-.88-1.53-1.05-2.09-1-.14.43-.41.65-.45,1.08Z" style="fill: #5e8292;"/>
            <path d="M154.22,137.43c-.55.54-.83,1.71-1.24,2.4,1.14-.09,1.61-.08,2.31.88.33-.94.63-1.84.89-2.75-.75-.17-.65.78-1.22.06-.14-.18.08-.45-.21-.6-.3-.16-.55-.31-.53.02Z" style="fill: #5e8292;"/>
            <path d="M179.94,120.99c-.05.69-.67,1.27-.64,1.96.73.07,1.07,1.03,1.88,1.09,0-1.04,1.61-1.8,1.08-2.61-.45-.7-1.41-.44-2.01-.73-.15.22-.29,0-.31.28Z" style="fill: #5e8292;"/>
            <path d="M170.86,120.07c-.24.36-.58.73-.65,1.16.61.08,1.24.32,1.82.52.12-.59.68-1.32.65-1.88-.51-.06-1.51-.25-1.81.21Z" style="fill: #5e8292;"/>
          </g>
          <path d="M158.31,148.26c-.05.53.14,1.05.21,1.57.05.36-.02,1.14.16,1.43.37.62,1.82-.07,2.4.33.01-.31-.02-1,.19-1.24.29-.35,1.13-.27,1.5-.57-.19-.48-.38-.98-.54-1.47-.21-.63-.25-.83-.88-.38-.55.4-.58.67-1.18.37-.43-.21-.78-.5-1.16-.77-.26.2-.68.38-.71.72Z" style="fill: #2f596a;"/>
        </g>
        <g>
          <path d="M153.88,152.1c-3.79-.37-8.59,2.88-12.18,4.1-4.37,1.49-8.01,1.89-12.72,1.66-6.23-.3-12.35.91-18.47-.55-8.8-2.1-17.29.18-26.19-.76-1.89-.2-5.77-2.7-8.77-4.15-1.91-.93-3.46-1.43-3.93-.67-3.34-2.93.78-6.5,2.92-8.63,1.08-1.07,1.85-2.28,3.09-3.17,1.24-.9,2.49-1.41,3.77-2.2,2.91-1.81,5.02-3.54,6.52-6.42.81-1.55,2.41-2.16,3.51-3.4.98-1.1,1.82-2.59,2.95-3.72.98-.98,2.2-2.15,3.36-2.93.62-.41,1.29-.53,1.86-1.04.55-.5.76-1.27,1.48-1.62,1.12-.54,3.09-.34,4.36-.61,1.33-.28,2.65-.74,3.97-.99,2.11-.39,5.22-.65,7.31-.16,1.95.47,3.17,1.98,4.81,3.07,2.56,1.7,5.05,3,7.88,4.27,2.13.94,6.2,1.49,7.27,3.76.54,1.15.18,2.17.95,3.33.8,1.2,1.83,1.88,2.87,2.8,2.27,2,4.14,4.21,6.24,6.17,1.85,1.73,3.71,3.26,5.63,4.85.97.8,1.79,2,2.09,3.22.12.45.24,3.88-.61,3.8Z" style="fill: #152a32;"/>
          <path d="M133.39,134.99c.43.58.85,1.17,1.28,1.68.79.94,1.72,2.12,1.82,3.49.21,2.99-4.33,3.92-5.73,6.27-1.26,2.13-2.61,2.94-5.12,3.26-1.61.21-3.16-.19-4.76-.16-1.67.02-3.13,1-4.82.84-.52-.05-1.05-.32-1.6-.34-.92-.03-1.72.33-2.62.43-1.19.13-2.63-.82-3.64-.56-1.67.42-2.04,2.88-3.88,3.36-.97.26-1.72-.05-2.65-.11-1.9-.12-3.72.82-5.65.58-1.48-.19-2.89-.89-4.38-.37-.51.18-1.18.91-1.72.92-.74.01-.33-.15-.89-.57-1.07-.81-1.16-.94-2.61-1.02-1.45-.08-2.84-.65-4.28-.9-2.4-.44-4.43.12-6.58.58-1.03-.51-2.87-1.59-3.94-.71-1.65-1.05-.38-3.2.64-4.16,1.13-1.07,2.02-2.07,2.99-3.24,1.59-1.93,4.15-3.13,6.14-4.67,1.05-.81,1.63-2.07,2.8-2.67,1.93-.98,3.05-.92,4.39-3.03,1.04-1.64,2.05-3.04,3.65-4.34,1.69-1.38,2.32-1.84,3.09-3.78.72-1.8,1.89-3.04,3.47-4.1,1.44-.96,3.29-1.49,4.92-2.07,1.27-.45,3.15-1.19,4.43-1.32,1.89-.19,3.35,1.92,4.99,2.52,1.65.61,2.74-.34,4.35-.33,2.48.03,5.41,3.35,6.83,5.29,1.21,1.66,1.8,3.46,3.57,4.64,1.34.89,3.14,1.83,4.19,2.93.47.49.9,1.06,1.33,1.64Z" style="fill: #1d3842;"/>
          <path d="M80.15,147.59c.46-.03,1.38-.08,1.76-.41.33-.28.2-.73.43-1.05.25-.34.56-.45.87-.76.79-.76,1.57-1.58,2.4-2.25,1.22-.99,2.24-1.25,3.77-1.17.3.02,1.17-.16,1.41,0,.59.4.08.91.36,1.39.13.2,1.02.81,1.26.96.57.33.78.53,1.5.49.12.72-.59,1.95-.07,2.53.55.62,1.6,0,2.19-.3.86-.42,1.35-1.17,2.31-1.42,1.89-.51,2.85.99,3.76,2.35,1.1-1.1,2.43.72,3.52.1.78-.44.51-2.2.95-2.95,1.21-2.06,2.27.07,3.95.03.41-.01.94-.39,1.3-.33.31.05.46.33.7.4.19.05.37.33.61.38.4.09.74-.25,1.14-.22.82.07,1.53.94,2.37.79,2.45-.44,2.74-4.13,2.06-5.86-.48-1.22-1.2-2.42-.38-3.73.6-.95,2.08-1.08,2.51-2.17.45-1.17-.47-1.44-.88-2.34-.38-.82-.1-2.21-.59-2.93-.67-1-2.14-.97-3.21-.72-1.59.37-1.28,1.04-1.86,2.34-.45,1.01-1.36,2.19-2.52,2.33-1.84.22-1.75-1.03-2.05-2.34-.11-.48-.07-1.41-.69-1.65-.84-.32-.68.42-1.32.74-.77.38-2.3.49-3.1,1.34-.85.91-.45,1.81-1.88,2.19-1.32.35-1.67-.38-2.06-1.6-.52-1.65-.21-1.95.84-2.93,1.03-.95,1.93-2.02,3.4-2.48,1.16-.36,2.51-.05,3.65-.44,1.07-.36,2.03-1.34,3.08-1.9.45-.24,1.25-.28,1.59-.69.66-.78.08-.34.04-1.09-.08-1.36-.21-2.08-1.47-2.77-1.28-.72-2.68-.55-4.11-.55-.86,0-1.38-.02-2.11.32-1,.47-1.46,1.58-2.68,1.45-.37,1.04-2.57.54-3.55,1.1-1.59.91-2.87,2.33-3.79,3.86-1,1.68-2.13,3.25-3.17,4.9-.53.84-1.17,1.72-2.08,2.2-.5.26-.92-.1-1.42.36-.78.7-.78,2.13-1.63,2.88-.6.53-1.57.7-2.01,1.46-.3.52-.11,1-.44,1.45-.74,1.02-2.1.95-3.25,1.18-1.94.39-4.5.77-4.88,3.05-.33,1.92,1.33,4.65,3.47,4.48Z" style="fill: #244551;"/>
          <path d="M78.32,142.54c-.11.45-.91,2.42-.38,2.79.3.22,1.01-.18,1.37-.06.34.12.8.62,1.02.88.41-1.26,1.9-1.9,2.68-2.9-.34-.6-1.51-1-2.06-1.48-.38.38-.52.88-1.04.99-.47.11-1.15-.06-1.54-.28-.06.04-.03-.01-.05.06Z" style="fill: #2f596a;"/>
          <path d="M88.38,135.96c-.02.39-.09.8-.14,1.19-.07.5-.33.73.09,1,.27.18.78.14,1.1.28.33.16.67.39.98.58-.08-.48.6-1.5,1-1.74.31-.18,1.2-.39,1.57-.45-.23-.71-.68-1.44-.88-2.17-.83.09-.98,1.56-1.91,1.47-.43-.04-1.77-.79-1.81-.16Z" style="fill: #2f596a;"/>
          <path d="M87.89,144.89c0,.38-.29,1.9.06,2.24.15.16.76.17.98.21.49.1,1.07.18,1.53.39-.12-.55,1.2-1.62,1.64-2.03-.27-.44-.74-.7-.98-1.2-.17-.35-.2-.87-.43-1.13-.14.38-.54.89-.94,1.04-.51.18-1.02-.13-1.53-.05-.05.16-.34.38-.34.54Z" style="fill: #2f596a;"/>
          <path d="M100.2,128.36c-.14.84-.3,1.7-.47,2.51.75.04,1.93.73,2.29,1.41.41-.56.94-1,1.36-1.51-.21-.27-.48-.66-.6-.99-.13-.36,0-.8-.17-1.14-.33.1-.72.34-.99.6-.45-.35-.73-1.03-1.42-.92.02.06-.04,0,0,.04Z" style="fill: #2f596a;"/>
          <path d="M84.45,138.56c-.05.42-.09.85-.16,1.26-.04.25-.34.87-.26,1.08.08.22.69.58.86.78.25.3.46.6.68.92.46-.65,1.47-1.18,2.22-1.54-.27-.53-.11-1.16-.05-1.74.08-.67-.11-.78-.82-.61-.56.14-.69.38-1.26.18-.35-.13-.91-.4-1.2-.34Z" style="fill: #2f596a;"/>
          <path d="M106.67,130c-.28.31-.44.95-.59,1.36.69.08,1.51.57,2.06.98.21-.89,1.36-1.38,1.48-2.16-.45-.27-.81-.57-1.18-.88-.09.27-.17.67-.49.7-.09-.22-.43-.35-.67-.32-.33.04-.34.03-.6.32Z" style="fill: #2f596a;"/>
          <path d="M105.14,120.04c-.07.82-.56,1.63-.59,2.45.88-.36,1.69.28,2.56.22.01-.63.11-1.1.49-1.64.21-.29.51-.49.33-.86-.34-.04-.7-.06-1.03-.18-.45-.15-.44-.26-.61-.76-.35.26-1.09.31-1.14.76Z" style="fill: #2f596a;"/>
          <path d="M115.21,121.24c-.32.45-.77,1.32-.76,1.9.75.19,1.2,1.07,1.85,1.43.17-.63,1.21-1.49,1.86-1.59,0-.34-.34-.55-.42-.87-.06-.23,0-.52-.02-.76-.43-.05-.64.45-1.08.44-.02.07-.04.13-.06.19-.46-.68-.84-1.51-1.37-.74Z" style="fill: #2f596a;"/>
          <path d="M115.53,127.64c-.42.95-1.32,1.92-1.56,2.92.47.26.55,1.02.86,1.45.24.33.54.74.87.98.29-.6.99-.88,1.63-.7-.11-.79.12-1.55.11-2.33-.49-.16-1.19-.28-1.1-.94.06-.49.51-.52.18-.94-.18-.23-.91-.59-.99-.43Z" style="fill: #2f596a;"/>
          <path d="M104.86,135.69c-.12.62-1.14,1.71-.93,2.3.13.38,1.11,1.05,1.42,1.26.3-.72,1.74-1.05,1.81-1.68.01-.2-.44-.89-.5-1.15-.07-.29-.11-.58-.1-.88-.41-.08-.99.35-1.36.52,0-.22-.16-.23-.32-.36Z" style="fill: #2f596a;"/>
          <path d="M101.62,133.23c-.12.63-1.14,1.71-.93,2.3.13.38,1.1,1.05,1.41,1.26.3-.72,1.75-1.05,1.81-1.68.01-.21-.43-.9-.5-1.16-.07-.28-.11-.58-.1-.88-.41-.07-.99.35-1.36.52,0-.22-.16-.22-.32-.36Z" style="fill: #2f596a;"/>
          <path d="M94.96,137.79c-.12.63-1.14,1.71-.94,2.3.14.38,1.11,1.05,1.42,1.25.3-.72,1.74-1.05,1.8-1.68.02-.2-.43-.89-.49-1.15-.07-.29-.11-.58-.1-.88-.41-.07-.99.35-1.36.52-.01-.22-.16-.23-.32-.36Z" style="fill: #2f596a;"/>
          <path d="M113.89,137.55c-.29.52-.72,1.54-.92,2.23.67.21,1.74,1.01,2.04,1.65.15-.44.2-1.05.49-1.47.17-.25.42-.37.53-.67-.37-.13-.77-.44-.99-.76.73-.84-.54-1.04-1.15-.99Z" style="fill: #2f596a;"/>
          <path d="M97.45,127.69c.43-.12.86-.26,1.26-.13.02-.5.18-.95.71-.94.78-1.55-.95-2.21-2-1.42-1.5,1.14-.66,1.42.03,2.49Z" style="fill: #2f596a;"/>
          <path d="M92.31,132.34c-.04.37,0,.78.02,1.15.79-.18,1.69-.45,2.32.24.22-.57.68-1.35.85-1.82.44-1.2.09-1.08-.85-1.32-1.1-.28-.9-.12-1.49.5-.47.49-.76.49-.85,1.25Z" style="fill: #2f596a;"/>
          <path d="M101.4,122.31c-.51.62-1.11,1.3-1.43,2.03.59.19.7.82,1.19,1.07.18-.79.69-.96,1.46-.95.03-.65-.58-1.11-.49-1.84-.18.15-.23.04-.42.11-.06-.25-.08-.36-.3-.43Z" style="fill: #2f596a;"/>
          <path d="M87.86,140.52c.6-.24.9.75,1.5.71.24-.91,1.24-1.28,1.59-2.07-.46-.34-1.03-1.4-1.65-1.19-.26.09-.55.68-.79.87-.34.26-.78.34-1,.65.26.24.17.77.35,1.03Z" style="fill: #2f596a;"/>
          <path d="M100.83,119.2c0,.45-.02,1.33,0,1.94.52,0,1.26-.04,1.71.22.12-.74.6-1.35.8-2-.24,0-.59.03-.79-.1-.25-.18-.01-.52-.29-.64-.21-.09-1.31.45-1.45.58Z" style="fill: #2f596a;"/>
          <path d="M103.57,127.57c.02.36-.38,1.57-.15,1.97.11.2.68.49.86.7.25.27.45.53.66.84.1-.83,1.39-.56,1.59-1.28.11-.42-.3-.79-.21-1.23.07-.4.4-.58.49-.93-.53-.02-1.81.12-2.08.57-.26-.22-1.22-1.64-1.16-.66Z" style="fill: #2f596a;"/>
          <path d="M111.16,116.46c-.21.43-.89.98-.99,1.39-.12.44.01.42.42.76.51.43,1.38.93,1.66,1.51.68-.84,1.6-.86,1.44-2.2-.33-.05-.97.22-1.21-.03-.12-.13-.05-1.06-.02-1.2-.37-.16-.92-.13-1.29-.23Z" style="fill: #2f596a;"/>
          <path d="M97.28,136.41c.1.44.16,1.2.31,1.73.44-.16,1.31-.3,1.71,0,.05-.56.24-2.3-.29-2.57-.52-.27-.36.18-.68.29-.37.12-.56.05-.95.06-.11.19-.13.28-.09.49Z" style="fill: #2f596a;"/>
          <path d="M89.69,140.75c.05.33.24,1.18.45,1.53.26.43,0,.24.49.42.3.11,1.01.13,1.29,0,.04-.63.47-2.71-.42-2.73-.65-.02-.38.58-.86.8-.34.15-1.05-.74-.94,0Z" style="fill: #2f596a;"/>
          <path d="M102.27,140.68c-.43.44-.79,1.85-.86,2.45.51-.06.8-.14,1.21.2.28.24.3.69.65.81.24-1.05.79-.87,1.47-1.43.35-.29.63-1.02.14-1.38-.4-.28-.48.08-.97.16-.83.13-.33-.11-.71-.44-.29-.26-1.02-1.15-.93-.36Z" style="fill: #2f596a;"/>
          <path d="M110.52,123.83c-.27.07-1.15,1.44-1.08,1.94.76.46,1.67.16,2.36.8.18-.54,1.61-1.64,1.12-2.33-.43-.6-1.04.05-1.4.03-.41-.03-.67-.43-1.15-.49-.05.1.11-.04.14.05Z" style="fill: #2f596a;"/>
          <path d="M79.28,141.17c.86.02,1.78.43,2.46.92.13-.84.94-1.26.94-2,0-1.3-.99-.45-1.67-.57-.24-.04-.3-.4-.65-.44-.14-.01-.6.14-.71.24-.41.37-.44,1.48-.38,1.86Z" style="fill: #2f596a;"/>
          <path d="M98.2,123.19c-.1.14-.15.33-.13.5.26.06.51,0,.72-.14.06.05.14.11.2.15.18-.49.22-.95.59-1.37-.66-.12-1.09.46-1.57.8.2-.05.08.02.19.07Z" style="fill: #5e8292;"/>
          <path d="M92.03,129.39c-.38.39-1.15,1.55-.81,2.05.16.23,1.11.22,1.3.21.2-.79,1.67-1.93.9-2.7-.15.13-.54.48-.75.51-.37.06-.23-.48-.64-.06Z" style="fill: #5e8292;"/>
          <path d="M103.53,122.55c-.29-.07-.79.43-.86.8.32.14.5.44.43.79.23-.05.4-.19.65-.28.16-.06.8-.15.88-.22.36-.28.22-.89.51-1.25-.15-.26-.56-.55-.88-.51-.41.05-.33.76-.73.66Z" style="fill: #5e8292;"/>
          <path d="M89.35,133.18c-.17.23-.58.69-.67.97-.13.43-.01.3.08.71.07.32.28,1.13.57,1.23.26-.88,1.06-.86,1.82-.73.01-.85.15-1.58.07-2.39-.48,0-1.41.04-1.88.21Z" style="fill: #5e8292;"/>
          <path d="M99,132.17c-.32.04-.86.95-1.14,1.33,1.22-.03.53,1.5,1.07,2.11.54-.86,1.56-.91,2.11-1.49.44-.47.3-1.21.44-1.78-.93.99-2-1.23-2.47-.17Z" style="fill: #5e8292;"/>
          <path d="M108.49,127.5s-.36.82-.57,1.08c.63.06.75.88,1.23.97.63.11.84-1.03,1.59-.96.22-.78-.37-.54-.74-.79-.17-.12-.07-.37-.27-.52-.12-.08-.47.04-.57.07,0-.04-.01-.08-.02-.12-.23-.07-.5.14-.65.28Z" style="fill: #5e8292;"/>
          <path d="M83.81,137.79c.05-.26.05.2.08.32.05.29-.01.8.2,1.05.22.26.56.33.97.23.51-.12.36-.06.53-.74.12-.5.16-1.04.77-.94.49-.88-1.53-1.05-2.1-1-.15.42-.4.64-.45,1.08Z" style="fill: #5e8292;"/>
          <path d="M95.06,135.32c-.55.54-.83,1.72-1.24,2.4,1.14-.09,1.61-.09,2.32.88.33-.95.62-1.84.89-2.75-.76-.17-.64.78-1.22.06-.15-.19.07-.45-.22-.61-.3-.16-.55-.31-.53.02Z" style="fill: #5e8292;"/>
          <path d="M114.12,119.32c-.05.69-.68,1.26-.65,1.96.74.08,1.07,1.03,1.88,1.09,0-1.04,1.61-1.8,1.09-2.6-.46-.7-1.42-.45-2.01-.74-.15.22-.29,0-.3.29Z" style="fill: #5e8292;"/>
          <path d="M107.26,118.59c-.24.36-.57.74-.65,1.15.61.09,1.24.32,1.82.51.12-.58.68-1.31.64-1.87-.5-.07-1.5-.26-1.82.2Z" style="fill: #5e8292;"/>
          <path d="M96.22,145.38c-.05.53.16,1.05.22,1.57.05.36-.01,1.14.16,1.44.37.62,1.82-.08,2.4.32,0-.31-.02-1,.19-1.24.29-.35,1.13-.27,1.5-.57-.19-.48-.39-.98-.54-1.46-.21-.64-.25-.83-.88-.37-.55.4-.58.66-1.19.37-.43-.2-.77-.51-1.15-.77-.26.2-.68.38-.71.72Z" style="fill: #2f596a;"/>
          <path d="M93.36,126.74c-.05.12-.07.26-.07.41.06.82.34.32.88.36.39.03.59.54.74.56.53.05.47-.57.52-.98.03-.19.22-.87.06-1.04-.11-.12-.95-.03-1.18.02-.4.08-.8.3-.96.66Z" style="fill: #5e8292;"/>
          <path d="M97.91,128.89c-.08.46-.23,1.15.15,1.4.3.2.96.05,1.3.19.2-.51.67-.97.8-1.44-.56-.13-1.09-.48-1.65-.65-.18.28-.35.37-.6.5Z" style="fill: #5e8292;"/>
          <path d="M103.32,125.1c-.13.15-.61.81-.65,1.16.32-.01.65,0,.94.14.18.09.36.51.58.52.34,0,1.28-1.24,1.16-1.73-.2.04-.46.04-.63.12-.18-.8-1.26-1.16-1.4-.21Z" style="fill: #5e8292;"/>
          <path d="M88.28,138.75c0,.22.05.9.08,1.3.73-.03,1.53-.11,2.24-.07-.01-.57.52-1.49.36-1.97-.23-.7-.58-.24-1.16-.22-.86.05-1.54-.38-1.53.95Z" style="fill: #5e8292;"/>
          <path d="M109.37,121.88c-.07.6-.9,1.84-.66,2.35.16.33,1.02.41,1.34.49.23.05.99.3,1.21.15.17-.12.58-1.49.66-1.67.51-1.16-.1-.7-.94-.88-.91-.19-1.42-1.87-1.6-.44Z" style="fill: #5e8292;"/>
        </g>
        <g>
          <g>
            <g>
              <circle cx="22.64" cy="217.06" r="8.02" style="fill: none; stroke: #5f5f60; stroke-miterlimit: 10; stroke-width: 3.38px;"/>
              <circle cx="22.64" cy="217.06" r="8.02" style="fill: #a7a7a6;"/>
              <circle cx="22.64" cy="217.06" r="3" style="fill: #606060;"/>
              <path d="M22.64,209.04c-4.43,0-8.02,3.59-8.02,8.02h16.04c0-4.43-3.59-8.02-8.02-8.02Z" style="fill: #565657; opacity: .8;"/>
            </g>
            <g>
              <circle cx="43.47" cy="217.06" r="8.02" style="fill: none; stroke: #5f5f60; stroke-miterlimit: 10; stroke-width: 3.38px;"/>
              <circle cx="43.47" cy="217.06" r="8.02" style="fill: #a7a7a6;"/>
              <circle cx="43.47" cy="217.06" r="3" style="fill: #606060;"/>
              <path d="M43.47,209.04c-4.43,0-8.02,3.59-8.02,8.02h16.04c0-4.43-3.59-8.02-8.02-8.02Z" style="fill: #565657; opacity: .8;"/>
            </g>
            <g>
              <rect x="20.81" y="216.04" width="24.36" height="2.26" style="fill: none; stroke: #454444; stroke-linecap: round; stroke-linejoin: round; stroke-width: .74px;"/>
              <rect x="20.81" y="216.04" width="24.36" height="2.26" style="fill: #606060;"/>
              <circle cx="22.48" cy="217.06" r=".57" style="fill: #4c4a4a;"/>
              <circle cx="43.65" cy="217.06" r=".57" style="fill: #4c4a4a;"/>
              <rect x="20.81" y="215.67" width="24.36" height="1.39" style="fill: #4a4949; opacity: .8;"/>
            </g>
          </g>
          <g>
            <g>
              <circle cx="179.21" cy="217.06" r="8.02" style="fill: none; stroke: #5f5f60; stroke-miterlimit: 10; stroke-width: 3.38px;"/>
              <circle cx="179.21" cy="217.06" r="8.02" style="fill: #a7a7a6;"/>
              <circle cx="179.21" cy="217.06" r="3" style="fill: #606060;"/>
              <path d="M179.21,209.04c-4.43,0-8.02,3.59-8.02,8.02h16.04c0-4.43-3.59-8.02-8.02-8.02Z" style="fill: #565657; opacity: .8;"/>
            </g>
            <g>
              <circle cx="200.04" cy="217.06" r="8.02" style="fill: none; stroke: #5f5f60; stroke-miterlimit: 10; stroke-width: 3.38px;"/>
              <circle cx="200.04" cy="217.06" r="8.02" style="fill: #a7a7a6;"/>
              <circle cx="200.04" cy="217.06" r="3" style="fill: #606060;"/>
              <path d="M200.04,209.04c-4.43,0-8.02,3.59-8.02,8.02h16.04c0-4.43-3.59-8.02-8.02-8.02Z" style="fill: #565657; opacity: .8;"/>
            </g>
            <g>
              <rect x="177.38" y="216.04" width="24.36" height="2.26" style="fill: none; stroke: #454444; stroke-linecap: round; stroke-linejoin: round; stroke-width: .74px;"/>
              <rect x="177.38" y="216.04" width="24.36" height="2.26" style="fill: #606060;"/>
              <circle cx="179.05" cy="217.06" r=".57" style="fill: #4c4a4a;"/>
              <circle cx="200.22" cy="217.06" r=".57" style="fill: #4c4a4a;"/>
              <rect x="177.38" y="215.67" width="24.36" height="1.39" style="fill: #4a4949; opacity: .8;"/>
            </g>
          </g>
          <rect x=".41" y="207.45" width="225.56" height="4.19" style="fill: #727272;"/>
        </g>
        <g>
          <rect x="7.89" y="145.61" width="210.58" height="61.84" style="fill: #a83029;"/>
          <rect x="7.89" y="145.61" width="210.58" height="5.25" style="fill: #c9aeab; mix-blend-mode: multiply;"/>
          <rect x="6.98" y="145.61" width="212.4" height="3.94" style="fill: #a83029;"/>
          <g>
            <rect x="92.07" y="149.55" width="2.41" height="57.9" style="fill: #c9aeab; mix-blend-mode: multiply;"/>
            <rect x="91.19" y="149.55" width="2.41" height="57.9" style="fill: url(#uuid-96af1c18-c630-4dbb-a7db-1e69466a745b);"/>
          </g>
          <g>
            <rect x="49.39" y="149.55" width="2.42" height="57.9" style="fill: #c9aeab; mix-blend-mode: multiply;"/>
            <rect x="48.52" y="149.55" width="2.42" height="57.9" style="fill: url(#uuid-23437478-c50e-4123-a9a2-668c1c2501ab);"/>
          </g>
          <g>
            <rect x="177.4" y="149.55" width="2.41" height="57.9" style="fill: #c9aeab; mix-blend-mode: multiply;"/>
            <rect x="176.52" y="149.55" width="2.41" height="57.9" style="fill: url(#uuid-d1cb0e6b-880c-4f9a-8ecd-bc50f268974b);"/>
          </g>
          <g>
            <rect x="134.73" y="149.55" width="2.41" height="57.9" style="fill: #c9aeab; mix-blend-mode: multiply;"/>
            <rect x="133.85" y="149.55" width="2.41" height="57.9" style="fill: url(#uuid-7fdf93e2-f4bf-44e9-a468-860f7bc5cfa7);"/>
          </g>
          <g>
            <g>
              <path d="M18.82,156.49h22.28c1.08,0,1.97.88,1.97,1.97v.05c0,1.08-.88,1.97-1.97,1.97h-22.28c-1.09,0-1.97-.88-1.97-1.97v-.04c0-1.09.88-1.97,1.97-1.97Z" style="fill: url(#uuid-cf7956b3-8656-4e39-92db-c02bcd7eb52d);"/>
              <path d="M41.35,159.45h-22.52c-.94,0-1.73-.61-1.93-1.44-.03.14-.05.29-.05.45v.04c0,1.09.88,1.97,1.97,1.97h22.28c1.08,0,1.95-.86,1.97-1.94-.35.55-.98.93-1.71.93Z" style="fill: #a71f24;"/>
              <path d="M18.2,157.37h23.52c.46,0,.87.14,1.21.37-.28-.73-.99-1.25-1.82-1.25h-22.28c-.83,0-1.54.52-1.83,1.25.34-.23.75-.37,1.21-.37Z" style="fill: #e57680;"/>
            </g>
            <g>
              <path d="M18.82,169.05h22.28c1.08,0,1.97.88,1.97,1.97v.05c0,1.08-.88,1.97-1.97,1.97h-22.28c-1.09,0-1.97-.88-1.97-1.97v-.04c0-1.09.88-1.97,1.97-1.97Z" style="fill: url(#uuid-8a153a11-1fc5-4419-9130-e221c40d3103);"/>
              <path d="M41.35,172.01h-22.52c-.94,0-1.73-.61-1.93-1.43-.03.14-.05.28-.05.44v.04c0,1.08.88,1.97,1.97,1.97h22.28c1.08,0,1.95-.87,1.97-1.94-.35.55-.98.92-1.71.92Z" style="fill: #a71f24;"/>
              <path d="M18.2,169.93h23.52c.46,0,.87.14,1.21.37-.28-.73-.99-1.25-1.82-1.25h-22.28c-.83,0-1.54.52-1.83,1.25.34-.23.75-.37,1.21-.37Z" style="fill: #e57680;"/>
            </g>
            <g>
              <path d="M18.82,181.6h22.28c1.08,0,1.97.88,1.97,1.97v.04c0,1.08-.88,1.97-1.97,1.97h-22.28c-1.09,0-1.97-.88-1.97-1.97v-.04c0-1.09.88-1.97,1.97-1.97Z" style="fill: url(#uuid-975da8be-5fe4-4a1f-b924-fa4a841f984d);"/>
              <path d="M41.35,184.57h-22.52c-.94,0-1.73-.61-1.93-1.44-.03.14-.05.29-.05.44v.04c0,1.09.88,1.97,1.97,1.97h22.28c1.08,0,1.95-.86,1.97-1.93-.35.55-.98.92-1.71.92Z" style="fill: #a71f24;"/>
              <path d="M18.2,182.48h23.52c.46,0,.87.14,1.21.38-.28-.73-.99-1.26-1.82-1.26h-22.28c-.83,0-1.54.53-1.83,1.26.34-.23.75-.38,1.21-.38Z" style="fill: #e57680;"/>
            </g>
            <g>
              <path d="M18.82,194.16h22.28c1.08,0,1.97.88,1.97,1.97v.04c0,1.08-.88,1.97-1.97,1.97h-22.28c-1.09,0-1.97-.88-1.97-1.97v-.03c0-1.09.88-1.97,1.97-1.97Z" style="fill: url(#uuid-ada20265-7d57-4081-8a99-21130f22ed70);"/>
              <path d="M41.35,197.12h-22.52c-.94,0-1.73-.61-1.93-1.44-.03.14-.05.29-.05.44v.03c0,1.09.88,1.97,1.97,1.97h22.28c1.08,0,1.95-.86,1.97-1.93-.35.55-.98.92-1.71.92Z" style="fill: #a71f24;"/>
              <path d="M18.2,195.03h23.52c.46,0,.87.14,1.21.38-.28-.73-.99-1.25-1.82-1.25h-22.28c-.83,0-1.54.52-1.83,1.25.34-.24.75-.38,1.21-.38Z" style="fill: #e57680;"/>
            </g>
          </g>
          <g>
            <g>
              <rect x="58.9" y="156.49" width="26.22" height="3.98" rx="1.97" ry="1.97" style="fill: url(#uuid-763a3424-becd-4f2c-a997-846332574d1e);"/>
              <path d="M83.41,159.45h-22.52c-.94,0-1.73-.61-1.93-1.44-.03.14-.06.29-.06.45v.04c0,1.09.88,1.97,1.97,1.97h22.29c1.07,0,1.94-.86,1.96-1.94-.35.55-.98.93-1.71.93Z" style="fill: #a71f24;"/>
              <path d="M60.26,157.37h23.52c.45,0,.87.14,1.21.37-.29-.73-1-1.25-1.82-1.25h-22.29c-.83,0-1.54.52-1.83,1.25.34-.23.76-.37,1.22-.37Z" style="fill: #e57680;"/>
            </g>
            <g>
              <path d="M60.87,169.05h22.29c1.08,0,1.97.88,1.97,1.97v.05c0,1.08-.88,1.97-1.97,1.97h-22.29c-1.08,0-1.97-.88-1.97-1.97v-.04c0-1.09.88-1.97,1.97-1.97Z" style="fill: url(#uuid-ec0c8826-8d4b-4cb8-8f33-c86595255fe8);"/>
              <path d="M83.41,172.01h-22.52c-.94,0-1.73-.61-1.93-1.43-.03.14-.06.28-.06.44v.04c0,1.08.88,1.97,1.97,1.97h22.29c1.07,0,1.94-.87,1.96-1.94-.35.55-.98.92-1.71.92Z" style="fill: #a71f24;"/>
              <path d="M60.26,169.93h23.52c.45,0,.87.14,1.21.37-.29-.73-1-1.25-1.82-1.25h-22.29c-.83,0-1.54.52-1.83,1.25.34-.23.76-.37,1.22-.37Z" style="fill: #e57680;"/>
            </g>
            <g>
              <path d="M60.87,181.6h22.29c1.08,0,1.97.88,1.97,1.97v.04c0,1.08-.88,1.97-1.97,1.97h-22.29c-1.09,0-1.97-.88-1.97-1.97v-.04c0-1.08.88-1.97,1.97-1.97Z" style="fill: url(#uuid-d41e509f-5233-4551-93e0-4dd108b37073);"/>
              <path d="M83.41,184.57h-22.52c-.94,0-1.73-.61-1.93-1.44-.03.14-.06.29-.06.44v.04c0,1.09.88,1.97,1.97,1.97h22.29c1.07,0,1.94-.86,1.96-1.93-.35.55-.98.92-1.71.92Z" style="fill: #a71f24;"/>
              <path d="M60.26,182.48h23.52c.45,0,.87.14,1.21.38-.29-.73-1-1.26-1.82-1.26h-22.29c-.83,0-1.54.53-1.83,1.26.34-.23.76-.38,1.22-.38Z" style="fill: #e57680;"/>
            </g>
            <g>
              <path d="M60.87,194.16h22.29c1.08,0,1.97.88,1.97,1.97v.04c0,1.08-.88,1.97-1.97,1.97h-22.29c-1.09,0-1.97-.88-1.97-1.97v-.04c0-1.08.88-1.97,1.97-1.97Z" style="fill: url(#uuid-5c3b023a-960c-458b-bf0d-e9edfd684132);"/>
              <path d="M83.41,197.12h-22.52c-.94,0-1.73-.61-1.93-1.44-.03.14-.06.29-.06.44v.03c0,1.09.88,1.97,1.97,1.97h22.29c1.07,0,1.94-.86,1.96-1.93-.35.55-.98.92-1.71.92Z" style="fill: #a71f24;"/>
              <path d="M60.26,195.03h23.52c.45,0,.87.14,1.21.38-.29-.73-1-1.25-1.82-1.25h-22.29c-.83,0-1.54.52-1.83,1.25.34-.24.76-.38,1.22-.38Z" style="fill: #e57680;"/>
            </g>
          </g>
          <g>
            <g>
              <path d="M102.93,156.49h22.28c1.08,0,1.96.88,1.96,1.96v.05c0,1.08-.88,1.96-1.96,1.96h-22.28c-1.08,0-1.97-.88-1.97-1.97v-.05c0-1.08.88-1.97,1.97-1.97Z" style="fill: url(#uuid-2b78b3b8-e788-4e23-b26c-90ad6119c57a);"/>
              <path d="M125.47,159.45h-22.51c-.94,0-1.73-.61-1.94-1.44-.03.14-.05.29-.05.45v.04c0,1.09.88,1.97,1.96,1.97h22.28c1.08,0,1.95-.86,1.97-1.94-.35.55-.98.93-1.71.93Z" style="fill: #a71f24;"/>
              <path d="M102.31,157.37h23.52c.45,0,.87.14,1.21.37-.28-.73-1-1.25-1.83-1.25h-22.28c-.83,0-1.54.52-1.82,1.25.34-.23.75-.37,1.21-.37Z" style="fill: #e57680;"/>
            </g>
            <g>
              <path d="M125.21,173.02h-22.28c-1.09,0-1.96-.88-1.96-1.97v-.04c0-1.08.88-1.97,1.96-1.97h22.28c1.09,0,1.97.88,1.97,1.97v.04c0,1.08-.88,1.97-1.97,1.97Z" style="fill: url(#uuid-cf708324-044b-4cab-aa5f-f4e9c684a891);"/>
              <path d="M125.47,172.01h-22.51c-.94,0-1.73-.61-1.94-1.43-.03.14-.05.28-.05.44v.04c0,1.08.88,1.97,1.96,1.97h22.28c1.08,0,1.95-.87,1.97-1.94-.35.55-.98.92-1.71.92Z" style="fill: #a71f24;"/>
              <path d="M102.31,169.93h23.52c.45,0,.87.14,1.21.37-.28-.73-1-1.25-1.83-1.25h-22.28c-.83,0-1.54.52-1.82,1.25.34-.23.75-.37,1.21-.37Z" style="fill: #e57680;"/>
            </g>
            <g>
              <path d="M102.93,181.6h22.28c1.08,0,1.96.88,1.96,1.96v.05c0,1.08-.88,1.96-1.96,1.96h-22.28c-1.08,0-1.97-.88-1.97-1.97v-.04c0-1.08.88-1.97,1.97-1.97Z" style="fill: url(#uuid-6536fb29-27ae-417c-a77d-59af9a7dbe4f);"/>
              <path d="M125.47,184.57h-22.51c-.94,0-1.73-.61-1.94-1.44-.03.14-.05.29-.05.44v.04c0,1.09.88,1.97,1.96,1.97h22.28c1.08,0,1.95-.86,1.97-1.93-.35.55-.98.92-1.71.92Z" style="fill: #a71f24;"/>
              <path d="M102.31,182.48h23.52c.45,0,.87.14,1.21.38-.28-.73-1-1.26-1.83-1.26h-22.28c-.83,0-1.54.53-1.82,1.26.34-.23.75-.38,1.21-.38Z" style="fill: #e57680;"/>
            </g>
            <g>
              <path d="M102.93,194.16h22.28c1.08,0,1.96.88,1.96,1.96v.05c0,1.08-.88,1.96-1.96,1.96h-22.28c-1.08,0-1.97-.88-1.97-1.97v-.04c0-1.08.88-1.97,1.97-1.97Z" style="fill: url(#uuid-39842154-db7e-4453-8a65-779f40bc3031);"/>
              <path d="M125.47,197.12h-22.51c-.94,0-1.73-.61-1.94-1.44-.03.14-.05.29-.05.44v.03c0,1.09.88,1.97,1.96,1.97h22.28c1.08,0,1.95-.86,1.97-1.93-.35.55-.98.92-1.71.92Z" style="fill: #a71f24;"/>
              <path d="M102.31,195.03h23.52c.45,0,.87.14,1.21.38-.28-.73-1-1.25-1.83-1.25h-22.28c-.83,0-1.54.52-1.82,1.25.34-.24.75-.38,1.21-.38Z" style="fill: #e57680;"/>
            </g>
          </g>
          <g>
            <g>
              <path d="M144.99,156.49h22.28c1.09,0,1.97.88,1.97,1.97v.04c0,1.09-.88,1.97-1.97,1.97h-22.28c-1.08,0-1.97-.88-1.97-1.97v-.05c0-1.08.88-1.97,1.97-1.97Z" style="fill: url(#uuid-53fb3768-45b0-4d4d-88eb-276670bfa241);"/>
              <path d="M167.53,159.45h-22.52c-.94,0-1.73-.61-1.93-1.44-.03.14-.05.29-.05.45v.04c0,1.09.88,1.97,1.97,1.97h22.28c1.07,0,1.94-.86,1.96-1.94-.34.55-.98.93-1.71.93Z" style="fill: #a71f24;"/>
              <path d="M144.37,157.37h23.52c.46,0,.87.14,1.21.37-.28-.73-.99-1.25-1.82-1.25h-22.28c-.83,0-1.55.52-1.83,1.25.35-.23.76-.37,1.21-.37Z" style="fill: #e57680;"/>
            </g>
            <g>
              <path d="M144.99,169.05h22.28c1.09,0,1.97.88,1.97,1.97v.04c0,1.09-.88,1.97-1.97,1.97h-22.28c-1.08,0-1.97-.88-1.97-1.97v-.05c0-1.08.88-1.97,1.97-1.97Z" style="fill: url(#uuid-ddaac0da-9e7a-42d5-b9ba-f8def5b7d9e9);"/>
              <path d="M167.53,172.01h-22.52c-.94,0-1.73-.61-1.93-1.43-.03.14-.05.28-.05.44v.04c0,1.08.88,1.97,1.97,1.97h22.28c1.07,0,1.94-.87,1.96-1.94-.34.55-.98.92-1.71.92Z" style="fill: #a71f24;"/>
              <path d="M144.37,169.93h23.52c.46,0,.87.14,1.21.37-.28-.73-.99-1.25-1.82-1.25h-22.28c-.83,0-1.55.52-1.83,1.25.35-.23.76-.37,1.21-.37Z" style="fill: #e57680;"/>
            </g>
            <g>
              <path d="M144.99,181.6h22.28c1.09,0,1.97.88,1.97,1.97v.04c0,1.09-.88,1.97-1.97,1.97h-22.28c-1.08,0-1.97-.88-1.97-1.97v-.04c0-1.08.88-1.97,1.97-1.97Z" style="fill: url(#uuid-3fd8baf1-d380-4989-9cf5-b85b2c0ed26e);"/>
              <path d="M167.53,184.57h-22.52c-.94,0-1.73-.61-1.93-1.44-.03.14-.05.29-.05.44v.04c0,1.09.88,1.97,1.97,1.97h22.28c1.07,0,1.94-.86,1.96-1.93-.34.55-.98.92-1.71.92Z" style="fill: #a71f24;"/>
              <path d="M144.37,182.48h23.52c.46,0,.87.14,1.21.38-.28-.73-.99-1.26-1.82-1.26h-22.28c-.83,0-1.55.53-1.83,1.26.35-.23.76-.38,1.21-.38Z" style="fill: #e57680;"/>
            </g>
            <g>
              <path d="M144.99,194.16h22.28c1.09,0,1.97.88,1.97,1.97v.03c0,1.09-.88,1.97-1.97,1.97h-22.28c-1.08,0-1.97-.88-1.97-1.97v-.04c0-1.08.88-1.97,1.97-1.97Z" style="fill: url(#uuid-1e8c93b8-2342-4efd-a881-637774a78526);"/>
              <path d="M167.53,197.12h-22.52c-.94,0-1.73-.61-1.93-1.44-.03.14-.05.29-.05.44v.03c0,1.09.88,1.97,1.97,1.97h22.28c1.07,0,1.94-.86,1.96-1.93-.34.55-.98.92-1.71.92Z" style="fill: #a71f24;"/>
              <path d="M144.37,195.03h23.52c.46,0,.87.14,1.21.38-.28-.73-.99-1.25-1.82-1.25h-22.28c-.83,0-1.55.52-1.83,1.25.35-.24.76-.38,1.21-.38Z" style="fill: #e57680;"/>
            </g>
          </g>
          <g>
            <g>
              <path d="M209.33,160.47h-22.28c-1.09,0-1.97-.88-1.97-1.97v-.04c0-1.09.88-1.97,1.97-1.97h22.28c1.09,0,1.96.88,1.96,1.97v.04c0,1.09-.88,1.97-1.96,1.97Z" style="fill: url(#uuid-de7bd0f4-35c2-4a17-9faa-eaa18293357a);"/>
              <path d="M209.58,159.45h-22.51c-.95,0-1.73-.61-1.93-1.44-.03.14-.05.29-.05.45v.04c0,1.09.88,1.97,1.97,1.97h22.28c1.07,0,1.95-.86,1.96-1.94-.34.55-.98.93-1.71.93Z" style="fill: #a71f24;"/>
              <path d="M186.43,157.37h23.52c.45,0,.87.14,1.21.37-.28-.73-.99-1.25-1.82-1.25h-22.28c-.83,0-1.54.52-1.82,1.25.34-.23.76-.37,1.21-.37Z" style="fill: #e57680;"/>
            </g>
            <g>
              <path d="M209.33,173.02h-22.28c-1.09,0-1.97-.88-1.97-1.97v-.04c0-1.08.88-1.97,1.97-1.97h22.28c1.09,0,1.96.88,1.96,1.97v.04c0,1.08-.88,1.97-1.96,1.97Z" style="fill: url(#uuid-790bcd6c-f0f1-4de0-81b2-1b97881a4cca);"/>
              <path d="M209.58,172.01h-22.51c-.95,0-1.73-.61-1.93-1.43-.03.14-.05.28-.05.44v.04c0,1.08.88,1.97,1.97,1.97h22.28c1.07,0,1.95-.87,1.96-1.94-.34.55-.98.92-1.71.92Z" style="fill: #a71f24;"/>
              <path d="M186.43,169.93h23.52c.45,0,.87.14,1.21.37-.28-.73-.99-1.25-1.82-1.25h-22.28c-.83,0-1.54.52-1.82,1.25.34-.23.76-.37,1.21-.37Z" style="fill: #e57680;"/>
            </g>
            <g>
              <path d="M209.33,185.57h-22.28c-1.09,0-1.97-.88-1.97-1.97v-.04c0-1.08.88-1.97,1.97-1.97h22.28c1.09,0,1.96.89,1.96,1.97v.04c0,1.09-.88,1.97-1.96,1.97Z" style="fill: url(#uuid-d43f4a6d-352f-413f-87af-352aab476b6f);"/>
              <path d="M209.58,184.57h-22.51c-.95,0-1.73-.61-1.93-1.44-.03.14-.05.29-.05.44v.04c0,1.09.88,1.97,1.97,1.97h22.28c1.07,0,1.95-.86,1.96-1.93-.34.55-.98.92-1.71.92Z" style="fill: #a71f24;"/>
              <path d="M186.43,182.48h23.52c.45,0,.87.14,1.21.38-.28-.73-.99-1.26-1.82-1.26h-22.28c-.83,0-1.54.53-1.82,1.26.34-.23.76-.38,1.21-.38Z" style="fill: #e57680;"/>
            </g>
            <g>
              <path d="M209.33,198.13h-22.28c-1.09,0-1.97-.88-1.97-1.96v-.04c0-1.09.88-1.97,1.97-1.97h22.28c1.09,0,1.96.88,1.96,1.97v.04c0,1.08-.88,1.96-1.96,1.96Z" style="fill: url(#uuid-ec242e5a-528e-476c-8541-c4c59b8cda23);"/>
              <path d="M209.58,197.12h-22.51c-.95,0-1.73-.61-1.93-1.44-.03.14-.05.29-.05.44v.03c0,1.09.88,1.97,1.97,1.97h22.28c1.07,0,1.95-.86,1.96-1.93-.34.55-.98.92-1.71.92Z" style="fill: #a71f24;"/>
              <path d="M186.43,195.03h23.52c.45,0,.87.14,1.21.38-.28-.73-.99-1.25-1.82-1.25h-22.28c-.83,0-1.54.52-1.82,1.25.34-.24.76-.38,1.21-.38Z" style="fill: #e57680;"/>
            </g>
          </g>
        </g>
      </g>
    </g>
  </g>
</svg>